<svg class="img-fluid" id="outputsvg" xmlns="http://www.w3.org/2000/svg" style="transform: matrix(0.659101, 0, 0, 0.659101, 0, 0); transform-origin: 50% 50%; cursor: move; transition: transform 200ms ease-in-out;" width="500" height="450" viewBox="0 0 5000 4500"><g id="l7FRjRcaVfvhCLrbAzrXIHG" fill="rgb(49,42,40)" style="transform: none;"><g style="transform: none;"><path id="pljRvM6lm" d="M392 4473 c3 -24 8 -28 41 -31 20 -2 37 0 37 5 0 4 3 18 6 31 6 20 3 22 -40 22 -46 0 -47 -1 -44 -27z"></path><path id="p18LEm1CQX" d="M1290 4454 c-18 -26 -76 -89 -127 -142 -88 -88 -96 -100 -120 -171 -29 -90 -96 -230 -171 -359 -52 -90 -54 -94 -48 -146 l7 -54 77 -6 c42 -4 205 0 362 8 212 10 287 11 292 2 9 -14 175 -11 244 4 67 15 362 15 459 0 96 -15 362 -19 390 -6 11 5 43 15 70 22 28 7 84 22 125 34 65 19 92 21 201 16 69 -3 138 -10 153 -16 15 -5 64 -10 109 -10 77 0 85 2 119 30 43 36 58 78 58 168 0 51 3 62 17 62 47 0 89 33 121 93 37 70 41 118 18 205 l-15 53 32 -24 c58 -44 91 -55 217 -72 134 -18 190 -15 255 15 64 29 95 64 95 109 0 20 9 71 20 112 11 41 20 84 20 97 l0 22 -1473 0 -1474 0 -33 -46z"></path><path id="p05aqF4XP" d="M3065 3225 c-63 -9 -221 -14 -525 -15 -239 -1 -631 -6 -870 -10 -426 -7 -437 -8 -532 -33 -53 -15 -126 -38 -163 -53 l-67 -27 5 -61 c9 -136 49 -590 63 -726 8 -80 18 -244 22 -365 l7 -220 49 -3 49 -3 -7 65 c-4 36 -9 72 -12 79 -6 17 33 67 52 67 26 0 117 -95 160 -167 46 -77 61 -127 104 -338 67 -330 91 -572 94 -972 1 -122 -2 -163 -11 -163 -22 0 -58 -181 -48 -241 l7 -39 99 0 99 0 1 53 0 52 26 -52 25 -53 179 0 179 0 0 29 c0 34 -59 84 -188 156 -100 56 -106 68 -98 185 4 47 8 254 10 460 6 583 25 720 123 893 61 110 137 173 313 263 149 75 165 80 360 100 76 7 330 -36 330 -57 0 -4 16 -13 36 -19 19 -7 48 -24 63 -38 15 -15 53 -49 85 -77 54 -47 89 -103 136 -220 15 -35 40 -231 40 -307 0 -160 -29 -435 -54 -515 -13 -43 -30 -109 -36 -148 -6 -38 -16 -97 -21 -130 -6 -33 -7 -79 -4 -102 3 -24 2 -43 -2 -43 -12 0 -33 -60 -33 -91 0 -24 123 -183 156 -202 8 -4 14 -13 14 -20 0 -7 16 -36 35 -65 l36 -52 64 0 c57 0 65 2 65 19 0 11 -4 21 -10 23 -5 1 -10 21 -11 43 -3 100 -11 145 -25 145 -7 0 -17 12 -21 27 -3 16 -17 54 -29 85 -18 47 -21 64 -13 93 6 19 14 35 19 35 6 0 10 8 10 18 0 11 9 27 20 37 12 11 20 31 20 51 0 18 13 82 30 141 16 59 34 155 39 213 50 502 50 505 116 720 24 80 47 161 50 180 9 47 45 130 56 130 5 0 9 -9 9 -20 0 -11 7 -20 15 -20 8 0 15 -6 15 -13 0 -8 11 -27 25 -43 14 -16 28 -46 31 -66 6 -35 9 -38 40 -38 19 0 34 5 34 10 0 6 7 10 16 10 14 0 16 8 10 57 -4 32 -11 60 -16 63 -5 3 -5 21 0 45 5 22 10 75 10 118 0 70 -2 77 -19 77 -11 0 -23 5 -26 10 -3 6 -19 10 -36 10 -16 0 -29 5 -29 10 0 6 -7 10 -15 10 -9 0 -18 7 -21 15 -4 8 -19 15 -34 15 -33 0 -35 5 -56 123 -8 45 -19 104 -24 130 -5 28 -23 68 -44 96 -19 26 -46 70 -60 98 -15 28 -42 65 -61 82 l-35 31 6 67 c7 87 -23 310 -46 338 -6 7 -32 23 -58 35 -59 28 -171 34 -297 15z"></path><path id="pv1yLydqB" d="M280 893 c0 -5 -27 -14 -60 -19 -36 -6 -60 -6 -60 -1 0 9 -119 1 -147 -10 -10 -4 -13 -87 -13 -434 l0 -429 656 0 656 0 -7 183 c-4 100 -11 187 -16 192 -4 6 -25 17 -46 24 -21 7 -105 46 -186 87 -109 54 -159 74 -188 74 -31 0 -39 4 -39 19 0 13 -17 26 -57 45 -73 33 -137 69 -141 79 -2 4 -8 7 -12 7 -5 0 -21 11 -36 25 -15 14 -31 25 -36 25 -16 0 -37 27 -44 56 -12 54 -42 71 -137 79 -52 4 -87 4 -87 -2z m30 -178 c0 -8 -7 -15 -15 -15 -8 0 -15 7 -15 15 0 8 7 15 15 15 8 0 15 -7 15 -15z"></path><path id="p1APlzsqQO" d="M2870 156 l0 -34 80 -7 c44 -4 107 -4 140 0 l60 7 0 34 0 34 -140 0 -140 0 0 -34z"></path><path id="pe1jcJlF" d="M2618 158 c-23 -8 -28 -16 -28 -45 l0 -36 61 7 c34 3 73 6 85 6 21 0 24 5 24 34 0 31 -3 34 -37 40 -50 8 -72 7 -105 -6z"></path></g></g><g id="l2oiadLniPmuF5KqdyHctdW" fill="rgb(111,86,72)" style="transform: none;"><g style="transform: none;"><path id="p168qV1mPR" d="M390 4483 c0 -10 -15 -37 -33 -60 -17 -24 -72 -94 -120 -158 -107 -140 -137 -190 -137 -232 0 -30 3 -33 31 -33 33 0 42 7 79 62 14 21 31 38 38 38 6 0 12 7 12 15 0 8 5 15 10 15 6 0 10 7 10 15 0 8 3 15 8 15 10 0 102 88 102 98 0 5 11 14 25 20 14 6 25 18 25 27 0 8 5 15 10 15 6 0 10 7 10 15 0 8 6 15 14 15 8 0 16 10 18 23 2 12 13 26 26 32 12 5 22 15 22 21 0 7 7 14 15 18 8 3 15 17 15 31 0 26 -1 26 -65 24 -52 -2 -65 -5 -65 -18 -1 -14 -2 -14 -14 2 -7 9 -18 17 -25 17 -6 0 -11 -8 -11 -17z"></path><path id="paNW0mgUL" d="M1308 4481 c-10 -10 -18 -22 -18 -27 0 -5 -9 -15 -20 -22 -13 -8 -20 -23 -20 -42 0 -25 -4 -30 -23 -30 -24 0 -117 -86 -117 -107 0 -6 -10 -13 -22 -15 -17 -2 -27 -21 -54 -102 -35 -107 -120 -280 -191 -390 -43 -67 -44 -71 -38 -128 5 -39 3 -58 -4 -58 -6 0 -11 -16 -11 -35 0 -33 2 -35 34 -35 19 0 36 5 38 11 3 8 29 8 93 -1 169 -23 175 -24 175 -6 0 10 9 16 25 16 30 0 34 -25 5 -33 -14 -4 -21 -17 -26 -56 -6 -49 -8 -51 -53 -67 -88 -30 -96 -38 -99 -90 -2 -31 1 -50 10 -55 7 -5 51 -9 98 -9 97 -1 96 -2 -57 -57 l-82 -30 -7 53 c-6 53 -7 54 -40 54 -32 0 -34 -2 -34 -32 0 -18 11 -95 25 -171 13 -76 21 -152 18 -170 -2 -18 2 -63 11 -100 10 -43 18 -144 23 -275 3 -114 10 -209 14 -212 13 -9 12 -359 -1 -415 -15 -68 2 -215 26 -215 8 0 14 -7 14 -15 0 -8 6 -15 14 -15 7 0 21 -11 30 -25 21 -32 84 -35 110 -6 22 24 34 100 17 110 -16 10 1 54 33 86 30 30 43 31 51 6 3 -11 14 -23 23 -26 20 -6 54 -77 76 -160 20 -76 80 -388 101 -524 20 -131 36 -472 25 -533 -5 -25 -9 -98 -9 -163 1 -70 -3 -120 -10 -124 -16 -10 -30 -89 -31 -169 l0 -73 32 3 c24 2 34 9 36 23 l4 20 -17 -20 c-16 -19 -16 -19 -12 12 2 18 0 33 -4 33 -3 0 -1 32 7 71 17 91 23 109 35 109 6 0 7 -9 4 -20 -9 -30 -13 -110 -5 -110 4 0 10 17 14 38 3 22 16 52 28 68 18 24 19 26 3 14 -12 -10 -16 -10 -11 -2 4 7 3 19 -4 27 -15 18 -24 165 -10 165 7 0 7 6 2 18 -5 9 -8 31 -7 47 5 61 5 121 0 160 -2 22 -7 101 -10 175 -5 131 -7 153 -21 250 -24 170 -82 469 -111 575 -33 119 -157 283 -228 301 -34 8 -69 -8 -91 -41 -15 -23 -16 -36 -7 -98 5 -40 9 -74 7 -76 -2 -2 -9 -1 -17 2 -11 4 -15 53 -20 234 -4 125 -14 289 -22 363 -8 74 -24 250 -35 390 -11 140 -23 272 -25 292 l-5 36 77 30 c81 31 219 68 288 76 22 3 200 6 395 6 195 1 365 3 378 7 12 3 22 11 22 19 0 12 -41 14 -234 14 -282 0 -296 2 -296 42 0 16 -6 35 -12 42 -22 20 -95 39 -130 32 -36 -6 -69 7 -53 22 6 5 51 22 100 37 160 49 175 55 198 69 12 8 45 20 72 27 28 6 54 16 59 20 6 5 18 9 27 9 10 0 24 6 31 13 46 45 327 54 632 21 63 -7 143 4 294 43 150 38 409 28 488 -19 37 -21 80 -21 137 1 31 12 35 42 15 97 -11 32 -12 32 -36 16 -31 -20 -113 -26 -156 -12 -41 13 -148 22 -256 22 -75 -1 -135 -12 -255 -48 -11 -3 -33 -8 -50 -11 -16 -3 -35 -10 -42 -15 -28 -22 -263 -17 -363 8 -41 10 -441 7 -487 -4 -26 -6 -43 -6 -43 -1 0 6 -7 6 -18 0 -29 -16 -132 -15 -132 1 0 8 -288 3 -355 -7 -31 -4 -255 -8 -332 -6 -41 1 -42 2 -33 26 5 14 6 24 2 22 -10 -3 -13 14 -6 36 3 9 9 15 13 13 4 -3 8 1 8 7 0 7 15 40 34 72 59 102 126 246 155 333 21 67 33 88 62 110 42 32 189 197 215 241 18 31 18 31 -5 30 -13 0 -31 -8 -40 -18z"></path><path id="pUT91IFKT" d="M4225 4435 c-9 -36 -20 -91 -24 -124 -6 -46 -13 -65 -32 -81 -34 -29 -78 -52 -88 -45 -5 3 -11 1 -13 -4 -1 -4 -20 -11 -41 -15 -25 -5 -37 -4 -33 2 3 6 -2 8 -14 5 -11 -3 -28 -2 -37 3 -10 4 -43 8 -74 9 -70 3 -112 13 -104 25 3 5 0 7 -7 5 -8 -3 -22 2 -33 11 -11 8 -14 12 -6 8 9 -5 12 -3 7 5 -4 6 -11 9 -16 6 -10 -6 -62 34 -56 44 3 4 -8 5 -25 3 -16 -2 -32 -8 -34 -13 -3 -4 4 -51 17 -104 l22 -96 -34 -63 c-35 -65 -76 -96 -128 -96 -25 0 -34 -11 -23 -29 6 -10 22 -11 60 -6 59 8 111 46 111 82 0 13 5 23 10 23 6 0 10 7 10 15 0 8 5 15 10 15 15 0 12 117 -5 180 -8 30 -15 56 -15 58 0 1 7 2 15 2 9 0 15 -10 15 -26 0 -17 6 -28 20 -31 11 -3 20 -9 20 -13 0 -21 97 -41 275 -57 82 -7 165 12 165 38 0 14 7 19 28 19 39 0 72 39 72 86 0 22 7 64 16 94 9 30 19 72 21 93 4 32 2 37 -14 37 -16 0 -24 -13 -38 -65z"></path><path id="p84qm0byW" d="M3456 3788 c-10 -38 -7 -48 14 -48 16 0 20 7 20 35 0 40 -24 49 -34 13z"></path><path id="p15xyEmoDD" d="M4085 3490 c-4 -33 -11 -60 -16 -60 -5 0 -9 -10 -9 -22 0 -22 -4 -36 -40 -144 -11 -33 -20 -70 -20 -83 0 -12 -4 -30 -9 -40 -10 -19 -63 -273 -80 -386 -16 -103 -49 -387 -57 -486 l-7 -87 -33 14 c-46 19 -104 19 -104 -1 0 -8 6 -15 13 -15 7 0 18 -9 25 -20 7 -12 18 -18 25 -14 7 4 9 4 5 -1 -9 -10 10 -29 56 -54 41 -23 50 -26 41 -11 -3 6 -2 10 4 10 9 0 8 -43 -5 -157 -5 -49 -4 -63 6 -63 7 0 11 -3 7 -6 -3 -3 -1 -17 4 -31 8 -21 7 -24 -6 -19 -10 3 -15 -1 -16 -12 -1 -9 -5 1 -10 24 -5 22 -19 51 -30 63 -12 12 -22 28 -23 34 -3 21 -17 38 -27 32 -5 -4 -9 5 -9 19 0 14 -3 25 -7 25 -20 -3 -34 2 -28 11 9 14 -14 12 -29 -3 -16 -16 -52 -104 -61 -147 -3 -19 -26 -100 -50 -180 -51 -166 -70 -253 -80 -360 -11 -125 -15 -172 -25 -250 -5 -41 -12 -109 -16 -150 -3 -41 -19 -121 -35 -178 -16 -56 -29 -116 -29 -134 0 -17 -9 -41 -19 -52 -11 -12 -21 -28 -23 -36 -2 -8 -9 -21 -15 -28 -7 -7 -13 -22 -13 -33 0 -11 -4 -18 -8 -15 -5 3 -18 -12 -29 -33 -18 -34 -19 -41 -6 -74 15 -37 43 -58 43 -32 0 8 -5 15 -12 15 -6 0 -8 3 -5 6 3 4 2 15 -3 25 -6 11 -6 20 -1 24 9 5 51 -90 55 -125 1 -8 8 -28 15 -45 7 -16 20 -68 29 -115 15 -75 20 -85 40 -88 20 -3 22 1 22 48 0 60 -27 178 -46 201 -8 8 -14 25 -14 36 0 11 -9 31 -19 45 -25 32 -36 75 -23 91 29 35 72 138 72 173 0 22 12 80 25 129 16 56 35 175 50 313 14 123 32 247 40 275 8 28 15 64 15 81 0 43 44 212 68 266 12 25 27 60 34 77 7 18 19 35 26 38 15 6 42 -17 42 -37 1 -16 69 -91 97 -107 12 -6 38 -11 57 -11 34 0 37 2 48 45 9 31 17 45 29 45 25 0 35 77 20 159 -6 36 -16 124 -21 194 -11 135 -7 193 29 462 10 83 23 206 26 274 4 68 14 149 22 180 8 31 19 81 25 111 6 30 14 57 18 60 10 7 23 92 24 158 1 34 5 52 14 52 6 0 12 9 12 21 0 11 5 30 11 41 7 13 8 41 4 74 -6 53 -7 54 -40 54 -33 0 -33 0 -40 -60z"></path><path id="p18NDCwGMd" d="M1030 3415 c0 -33 2 -35 35 -35 33 0 35 2 35 35 0 33 -2 35 -35 35 -33 0 -35 -2 -35 -35z"></path><path id="piM8fw8lg" d="M3270 3381 c0 -15 5 -42 11 -60 9 -27 16 -31 45 -31 32 0 34 2 34 33 0 56 -20 87 -57 87 -30 0 -33 -3 -33 -29z"></path><path id="p1COYznyoe" d="M3115 3239 c-16 -5 -90 -12 -162 -15 -120 -6 -133 -9 -133 -26 0 -16 9 -18 93 -17 50 0 134 6 186 13 120 16 178 12 235 -15 57 -26 68 -40 70 -86 4 -83 36 -86 36 -3 0 33 -4 60 -9 60 -5 0 -11 10 -13 22 -2 15 -20 30 -58 49 -47 24 -67 28 -135 28 -44 -1 -93 -5 -110 -10z"></path><path id="pmSP4mDEi" d="M2288 3223 c-139 -3 -148 -5 -148 -23 0 -19 8 -20 225 -20 218 0 225 1 225 20 0 15 -7 20 -27 20 -16 0 -50 2 -78 3 -27 2 -116 2 -197 0z"></path><path id="p01YJNTTz" d="M3430 2948 c0 -30 13 -58 26 -58 9 0 14 12 14 35 0 28 -4 35 -20 35 -11 0 -20 -6 -20 -12z"></path><path id="pnINP2FJk" d="M3436 2858 c-10 -38 -7 -48 14 -48 16 0 20 7 20 35 0 40 -24 49 -34 13z"></path><path id="p13MQYKh1u" d="M3430 2755 c0 -9 16 -29 35 -46 19 -17 46 -54 61 -82 14 -28 41 -73 61 -99 22 -30 37 -64 40 -91 7 -49 19 -77 35 -77 13 0 1 133 -13 138 -5 2 -9 12 -9 23 0 10 -7 19 -15 19 -8 0 -15 9 -15 20 0 11 -4 20 -10 20 -5 0 -10 7 -10 15 0 8 -7 15 -15 15 -9 0 -15 9 -15 25 0 16 -6 25 -15 25 -9 0 -15 10 -15 26 0 29 -21 54 -44 54 -9 0 -16 7 -16 15 0 8 -9 15 -20 15 -11 0 -20 -7 -20 -15z"></path><path id="pHiuOHLHY" d="M3654 2303 c14 -82 18 -93 32 -93 16 0 17 15 8 84 -5 37 -11 46 -26 46 -18 0 -19 -5 -14 -37z"></path><path id="pEF8rrJlx" d="M2525 2117 c-27 -5 -64 -8 -82 -7 -98 3 -406 -153 -505 -257 -79 -82 -141 -224 -163 -372 -20 -132 -20 -151 5 -151 17 0 20 7 20 38 0 77 53 289 82 327 39 50 78 121 78 141 0 20 5 24 29 24 16 0 39 10 55 25 15 14 31 25 36 25 4 0 10 3 12 8 4 9 251 127 293 140 17 5 47 7 68 4 22 -2 44 1 53 9 23 19 171 16 259 -5 78 -18 250 -99 259 -122 3 -7 17 -14 31 -14 16 0 25 -6 25 -15 0 -9 18 -39 39 -68 40 -52 81 -137 95 -192 37 -146 47 -369 21 -433 -12 -28 -15 -66 -13 -162 3 -118 2 -128 -22 -170 -14 -25 -28 -47 -31 -50 -4 -3 -13 -98 -21 -212 -11 -167 -17 -211 -31 -226 -21 -23 -22 -85 -2 -102 19 -16 19 -27 1 -46 -23 -22 -26 -17 -26 37 0 42 -3 52 -20 56 -11 3 -20 9 -20 14 0 5 -12 9 -26 9 l-26 0 7 74 7 74 -36 12 c-26 8 -38 19 -42 38 -4 15 -12 32 -18 37 -33 29 -66 79 -66 101 0 17 -6 24 -20 24 -15 0 -20 7 -20 25 0 20 -5 25 -25 25 -14 0 -25 6 -25 13 0 20 -51 44 -110 50 -30 4 -56 11 -58 17 -2 5 -14 10 -27 10 -13 0 -25 5 -27 11 -3 8 -25 9 -77 3 -66 -8 -74 -11 -88 -39 -30 -57 -33 -65 -33 -93 0 -15 -9 -35 -20 -45 -15 -13 -20 -29 -20 -71 0 -35 5 -56 12 -58 8 -3 4 -9 -10 -17 -16 -9 -22 -21 -22 -46 0 -19 5 -35 10 -35 6 0 10 -4 10 -10 0 -5 -18 -10 -40 -10 -39 0 -40 -1 -40 -35 0 -31 3 -35 25 -35 14 0 25 -4 25 -10 0 -5 -7 -10 -15 -10 -9 0 -15 -9 -15 -24 0 -14 -4 -28 -10 -31 -5 -3 -10 -17 -10 -31 0 -14 -6 -24 -14 -24 -9 0 -16 -12 -18 -27 -3 -24 -8 -29 -43 -33 -38 -5 -40 -7 -43 -44 l-3 -39 72 7 c71 6 74 8 116 54 24 25 43 55 43 65 0 9 10 21 23 26 13 5 29 16 36 25 7 9 20 16 27 16 8 0 14 8 14 18 0 13 13 21 43 29 23 7 54 24 69 38 15 14 36 25 47 25 11 0 27 7 36 16 13 14 22 14 65 4 28 -7 50 -18 50 -25 0 -14 22 -25 52 -25 11 0 18 -5 16 -12 -3 -7 -28 -15 -59 -18 -71 -7 -99 -26 -99 -65 0 -17 5 -36 12 -43 9 -9 9 -12 0 -12 -7 0 -12 -5 -12 -11 0 -23 -30 -39 -74 -39 -45 0 -46 -1 -46 -32 0 -48 10 -78 26 -78 8 0 14 -5 14 -10 0 -13 509 -9 529 4 8 5 37 8 63 7 l48 -2 0 45 c0 25 5 46 10 46 6 0 10 -3 10 -8 0 -4 10 -18 23 -32 12 -14 37 -49 56 -78 27 -43 38 -52 62 -52 l29 0 -45 67 c-25 37 -45 73 -45 80 0 7 -6 16 -14 20 -7 4 -45 45 -84 91 -66 79 -69 85 -59 112 6 16 13 27 16 25 10 -11 28 40 18 53 -14 18 -11 113 6 185 9 34 18 80 20 102 2 22 14 67 25 101 12 33 24 92 27 130 4 38 8 83 11 99 13 95 16 388 5 465 -7 47 -14 101 -17 120 -5 39 -7 44 -57 150 -24 52 -49 87 -81 114 -24 22 -42 44 -39 49 3 6 1 7 -4 4 -6 -4 -27 9 -47 28 -21 19 -40 35 -43 35 -4 0 -15 8 -26 18 -11 9 -17 11 -13 5 10 -18 1 -16 -18 3 -9 9 -31 18 -49 21 -17 3 -40 9 -49 14 -10 5 -44 12 -75 15 -32 3 -75 10 -95 15 -40 10 -65 9 -143 -4z m405 -1697 c0 -21 -8 -24 -34 -14 -12 5 -13 9 -3 20 18 20 37 17 37 -6z m155 -271 c-56 -11 -105 -11 -105 1 0 6 30 10 73 9 65 -1 68 -2 32 -10z m-397 -24 c-2 -1 -19 -5 -38 -8 l-35 -6 30 14 c17 7 34 11 38 8 5 -3 7 -6 5 -8z"></path><path id="pzW2pDvPz" d="M1756 1298 c-3 -13 -6 -38 -6 -55 0 -26 4 -33 20 -33 18 0 20 7 20 55 0 40 -4 55 -14 55 -7 0 -16 -10 -20 -22z"></path><path id="pci0HNBp1" d="M1748 1112 c-3 -10 -6 -160 -6 -333 -1 -173 -5 -336 -10 -364 -8 -55 -8 -163 2 -172 3 -4 6 -11 6 -17 0 -6 -5 -4 -11 4 -8 12 -10 12 -7 1 2 -8 47 -39 99 -69 112 -64 199 -129 199 -148 0 -8 9 -14 20 -14 15 0 20 7 20 25 0 18 -5 25 -19 25 -13 0 -21 8 -23 22 -2 15 -11 24 -25 26 -13 2 -23 10 -23 18 0 8 -7 14 -15 14 -8 0 -15 5 -15 10 0 6 -7 10 -15 10 -8 0 -15 4 -15 8 0 11 -65 42 -88 42 -44 0 -71 148 -45 245 6 23 10 104 8 190 -2 83 -3 228 -4 323 -1 139 -4 172 -15 172 -7 0 -16 -8 -18 -18z"></path><path id="pAwHwLdL5" d="M4925 1005 c-5 -2 -36 -6 -67 -10 l-58 -6 0 -35 0 -34 100 0 100 0 0 45 c0 44 -1 45 -32 44 -18 0 -37 -2 -43 -4z"></path><path id="pldTPQAUp" d="M220 900 c0 -5 -19 -10 -42 -10 -24 0 -73 -3 -110 -7 -62 -5 -68 -8 -68 -28 0 -22 2 -22 118 -19 64 2 128 4 142 6 21 2 26 -2 28 -24 2 -20 -1 -26 -10 -23 -17 7 -42 -49 -35 -81 2 -13 0 -24 -4 -24 -5 0 -9 -7 -9 -15 0 -10 10 -15 34 -15 43 0 89 17 81 29 -3 5 -1 12 5 16 6 4 8 11 4 16 -3 5 0 16 6 24 10 12 9 22 -4 49 -9 19 -16 39 -16 46 0 7 -6 10 -13 7 -8 -3 -14 1 -14 10 0 11 7 12 26 7 14 -4 40 -8 56 -8 38 -1 85 -40 68 -57 -7 -7 -23 -13 -35 -15 -13 -1 -26 -3 -29 -3 -9 -2 -5 -45 6 -53 5 -4 15 -2 22 3 7 6 17 8 24 4 8 -5 9 -1 5 13 -5 13 -1 22 10 26 12 4 15 2 10 -9 -3 -9 0 -15 8 -15 8 0 16 -9 19 -20 3 -11 11 -20 19 -20 10 0 9 3 -2 10 -8 5 -11 10 -7 10 16 0 57 -32 51 -41 -3 -5 4 -9 16 -9 12 0 18 -4 15 -10 -3 -5 2 -10 12 -10 24 -1 55 -25 45 -35 -4 -5 -2 -5 4 -2 6 4 42 -8 80 -27 l68 -33 -37 -7 c-62 -12 -41 -26 39 -26 67 0 82 -4 142 -36 66 -35 67 -35 70 -13 4 25 -12 39 -45 39 -14 0 -23 6 -23 15 0 9 -9 15 -25 15 -14 0 -25 5 -25 10 0 6 -13 10 -30 10 -18 0 -30 5 -30 13 0 7 -41 33 -92 57 -51 25 -100 52 -109 60 -9 8 -32 29 -50 46 -40 36 -90 92 -105 120 -6 10 -22 25 -35 31 -29 15 -229 18 -229 3z"></path><path id="p16RAyjUF7" d="M0 733 c0 -34 3 -44 11 -36 17 17 20 83 3 83 -10 0 -14 -13 -14 -47z"></path><path id="pUdO0xNdr" d="M485 540 c-6 -10 11 -12 125 -14 74 -1 100 3 100 15 0 13 -217 11 -225 -1z"></path><path id="pD1XGEDrP" d="M256 533 c-11 -11 -6 -23 8 -23 8 0 17 4 20 9 7 10 -19 23 -28 14z"></path><path id="p16cHUu319" d="M162 519 c2 -7 10 -15 17 -17 8 -3 12 1 9 9 -2 7 -10 15 -17 17 -8 3 -12 -1 -9 -9z"></path><path id="pAZBjCZvy" d="M390 445 c0 -8 6 -15 14 -15 7 0 19 7 26 15 11 13 8 15 -14 15 -16 0 -26 -5 -26 -15z"></path><path id="pngOqoW75" d="M1100 430 c0 -5 14 -16 30 -25 33 -17 38 -36 15 -55 -13 -11 -13 -16 4 -44 18 -28 18 -34 5 -59 -13 -24 -13 -29 1 -43 20 -20 19 -43 -2 -66 -15 -17 -15 -19 0 -36 19 -21 22 -57 7 -67 -19 -12 -11 -37 11 -33 21 3 22 8 20 98 -1 52 -4 137 -8 189 -5 85 -4 94 11 88 12 -5 16 -1 16 14 0 12 -8 23 -20 26 -11 3 -20 9 -20 14 0 5 -16 9 -35 9 -19 0 -35 -4 -35 -10z"></path><path id="p281N2MEr" d="M272 419 c2 -7 10 -15 17 -17 8 -3 12 1 9 9 -2 7 -10 15 -17 17 -8 3 -12 -1 -9 -9z"></path><path id="pdsJ8RoZa" d="M1230 372 c0 -4 9 -13 20 -20 11 -7 20 -19 20 -27 0 -8 7 -15 15 -15 10 0 15 11 15 35 0 33 -2 35 -35 35 -19 0 -35 -3 -35 -8z"></path><path id="p1B098la0q" d="M389 344 c-19 -23 19 -30 42 -8 18 19 18 19 -6 20 -13 1 -29 -4 -36 -12z"></path><path id="pDMwyeiYx" d="M3238 298 c8 -9 17 -29 22 -45 l8 -28 1 26 c1 15 -8 34 -21 45 -17 14 -19 15 -10 2z"></path><path id="p16FzkklBt" d="M1270 213 c0 -81 8 -113 26 -113 11 0 14 20 14 90 0 83 -1 90 -20 90 -18 0 -20 -7 -20 -67z"></path><path id="pPgcZRuV8" d="M397 243 c-14 -13 -6 -23 17 -23 30 0 42 15 20 24 -20 8 -29 8 -37 -1z"></path><path id="pG88hKPjP" d="M1604 197 c-4 -12 -3 -49 5 -184 1 -14 131 -19 131 -5 0 4 -9 18 -20 32 -11 14 -20 30 -20 36 0 7 -16 35 -35 64 -19 29 -35 56 -35 61 0 14 -20 11 -26 -4z"></path><path id="ppu0NBBmY" d="M413 143 c-7 -3 -13 -11 -13 -20 0 -17 41 -14 47 3 4 13 -16 23 -34 17z"></path><path id="pUkV4ka8K" d="M0 55 c0 -30 4 -55 9 -55 18 0 23 21 9 37 -7 9 -8 14 -2 10 7 -4 14 0 18 8 3 8 0 14 -6 12 -7 -1 -13 7 -15 18 -3 16 -2 17 6 5 9 -13 11 -13 11 3 0 9 -7 17 -15 17 -12 0 -15 -13 -15 -55z"></path><path id="pOeBpHO1u" d="M407 33 c-14 -13 -6 -33 12 -33 24 0 35 26 15 34 -19 7 -19 7 -27 -1z"></path><path id="p13uIyWr2F" d="M2890 20 c0 -17 7 -20 40 -20 33 0 40 3 40 20 0 17 -7 20 -40 20 -33 0 -40 -3 -40 -20z"></path></g></g><g id="l43SXBBLQryOBgtErpruDmP" fill="rgb(144,117,100)" style="transform: none;"><g style="transform: none;"><path id="phiVq22CX" d="M390 4488 c0 -6 -31 -53 -70 -103 -38 -50 -70 -96 -70 -101 0 -5 -9 -15 -20 -22 -11 -7 -20 -16 -20 -22 0 -5 -11 -21 -25 -36 -14 -15 -25 -31 -25 -37 0 -5 -8 -17 -17 -26 -51 -47 -103 -187 -103 -279 l0 -53 37 3 c31 2 39 7 43 28 7 34 38 90 50 90 6 0 10 6 10 13 0 7 14 26 31 43 17 16 37 41 45 56 7 15 23 29 34 33 11 3 20 13 20 21 0 8 7 14 15 14 8 0 15 3 15 8 0 11 89 102 100 102 6 0 10 4 10 8 0 4 19 28 43 53 23 25 51 58 62 74 11 16 31 40 43 53 13 14 26 40 29 58 l6 34 -51 0 c-54 0 -88 -21 -78 -47 4 -8 1 -11 -5 -8 -13 8 -38 -23 -39 -47 0 -10 -7 -18 -15 -18 -8 0 -15 -6 -15 -14 0 -7 -13 -19 -30 -26 -16 -7 -27 -17 -24 -22 3 -5 -2 -16 -12 -23 -11 -8 -15 -15 -11 -15 9 0 -85 -90 -95 -90 -5 0 -8 -7 -8 -15 0 -8 -7 -15 -16 -15 -10 0 -14 -6 -10 -15 3 -8 2 -14 -2 -14 -17 3 -32 -2 -30 -8 2 -11 -36 -73 -45 -73 -14 0 21 55 112 175 51 66 110 144 132 172 31 41 38 58 33 78 -6 25 -34 36 -34 13z"></path><path id="p14qUUVkdy" d="M1310 4480 c0 -11 -7 -20 -15 -20 -9 0 -15 -9 -15 -25 0 -18 -5 -25 -20 -25 -24 0 -33 -17 -28 -57 3 -27 6 -24 66 50 34 43 62 83 62 88 0 5 -11 9 -25 9 -18 0 -25 -5 -25 -20z"></path><path id="pXKmw4w79" d="M4247 4478 c-3 -13 -12 -48 -21 -78 -8 -30 -16 -74 -18 -98 -2 -46 -21 -69 -88 -109 -17 -9 -30 -21 -30 -25 0 -13 68 -9 74 5 7 14 3 -22 -19 -188 -8 -66 -22 -183 -30 -260 -14 -126 -89 -471 -116 -530 -24 -54 -84 -361 -109 -565 -13 -112 -13 -130 5 -130 15 0 16 3 40 180 22 157 37 240 44 236 3 -2 7 8 7 22 2 29 11 90 20 136 5 22 8 25 16 15 7 -10 8 -8 5 9 -3 12 -1 22 4 22 17 0 15 -35 -7 -115 -9 -33 -18 -85 -19 -115 -1 -30 -3 -57 -4 -60 -2 -3 -4 -39 -5 -80 -2 -42 -8 -85 -14 -96 -6 -12 -7 -26 -2 -34 5 -8 7 -17 4 -22 -4 -7 -16 -102 -16 -138 -1 -8 -7 -44 -15 -80 -8 -36 -14 -69 -14 -75 0 -5 1 -89 2 -185 2 -114 7 -186 15 -206 10 -24 10 -34 1 -44 -9 -10 -9 -14 1 -17 10 -4 10 -8 1 -19 -9 -12 -9 -13 2 -9 11 4 14 -2 13 -22 -1 -16 -3 -36 -3 -45 -1 -11 -9 -18 -20 -18 -13 0 -21 -10 -25 -32 -10 -53 -19 -61 -49 -47 -15 7 -27 19 -27 26 0 8 -4 12 -9 9 -9 -6 -26 22 -22 37 1 5 -3 6 -8 3 -11 -7 -35 20 -27 32 8 13 -31 42 -57 42 -18 0 -19 2 -7 10 13 8 12 10 -2 10 -10 0 -18 -4 -18 -9 0 -5 -8 -12 -18 -15 -16 -5 -32 -34 -47 -83 -3 -13 -11 -23 -17 -23 -6 0 -9 -3 -5 -6 3 -4 0 -19 -8 -34 -8 -15 -17 -41 -20 -58 -3 -17 -11 -57 -19 -89 -8 -32 -17 -81 -20 -110 -3 -28 -10 -63 -15 -76 -8 -20 -41 -269 -41 -307 0 -5 8 -10 18 -10 15 0 19 15 29 93 6 50 21 120 33 155 11 34 25 93 29 130 5 37 19 94 30 127 11 33 21 70 21 83 0 12 4 22 9 22 5 0 11 9 14 20 5 20 47 29 47 10 0 -5 11 -12 25 -16 14 -3 25 -12 25 -20 0 -8 4 -14 9 -14 5 0 11 -13 14 -29 7 -31 27 -41 92 -41 29 0 45 6 55 20 8 11 19 20 26 20 6 0 21 13 34 30 12 16 31 32 41 35 15 5 19 16 19 55 0 39 3 49 20 53 15 4 20 14 20 40 0 20 -5 37 -11 39 -14 5 -28 83 -28 164 -1 33 -5 64 -11 70 -20 20 -23 155 -5 218 10 33 15 73 12 92 -4 23 -1 39 10 49 10 11 15 38 17 93 0 42 5 80 10 83 5 4 10 53 13 110 6 156 14 217 29 230 8 6 14 24 14 39 0 15 7 33 15 40 8 7 15 23 15 36 0 12 4 25 9 28 5 3 9 49 9 102 0 53 4 99 9 103 24 15 34 112 31 308 l-3 202 29 30 c27 29 29 33 22 92 -3 34 -11 68 -17 75 -28 33 1 395 32 415 6 4 14 27 16 53 l6 46 -36 0 c-28 0 -36 -4 -40 -22z m-177 -1238 c5 8 8 -2 8 -24 0 -34 -1 -35 -14 -19 -11 14 -13 15 -8 2 3 -10 -2 -19 -12 -23 -13 -5 -15 -2 -9 11 4 10 10 29 13 43 3 14 7 19 10 11 3 -10 6 -11 12 -1z"></path><path id="p1DYEEnhdm" d="M3596 4282 c-14 -23 7 -51 45 -57 24 -4 39 -12 39 -21 0 -9 12 -14 35 -14 19 0 35 5 35 10 0 6 -4 10 -9 10 -4 0 -29 18 -54 40 -42 38 -79 50 -91 32z"></path><path id="p1BVfOobA0" d="M1087 4253 c-4 -3 -7 -15 -7 -25 0 -10 -6 -18 -13 -18 -7 0 -21 -26 -31 -57 -23 -75 -88 -227 -98 -231 -4 -2 -8 -12 -8 -23 0 -10 -4 -19 -9 -19 -5 0 -12 -8 -16 -19 -3 -10 -35 -63 -71 -117 -36 -55 -72 -114 -79 -131 -8 -18 -19 -33 -24 -33 -6 0 -11 -8 -11 -19 0 -10 -9 -21 -20 -24 -12 -3 -20 -14 -20 -25 0 -14 -8 -22 -22 -24 -15 -2 -24 -11 -26 -25 -2 -13 -8 -23 -14 -23 -7 0 -27 -16 -45 -36 -24 -26 -33 -46 -33 -70 0 -19 5 -34 10 -34 6 0 10 -8 10 -18 0 -23 19 -42 43 -42 10 0 25 -7 33 -15 18 -17 81 -20 86 -4 2 7 12 7 31 0 19 -8 27 -17 27 -36 0 -16 6 -25 15 -25 21 0 31 -31 40 -120 4 -41 12 -78 18 -81 5 -4 14 -56 18 -115 5 -60 11 -117 13 -126 2 -10 -1 -18 -6 -18 -13 0 -4 -90 9 -99 6 -3 13 -78 17 -165 4 -102 11 -165 19 -174 8 -11 12 -63 12 -176 -1 -161 -7 -232 -27 -272 -9 -20 -8 -61 8 -161 3 -24 9 -43 13 -43 6 0 21 -31 35 -73 3 -9 14 -17 25 -17 11 0 35 -16 52 -35 36 -39 85 -48 113 -20 8 8 19 15 25 15 6 0 11 7 11 15 0 9 7 18 15 21 8 4 15 15 15 25 0 10 5 19 10 19 6 0 10 20 10 43 0 37 4 46 25 55 34 16 35 15 35 -8 0 -11 4 -20 9 -20 16 0 65 -172 90 -315 4 -23 10 -46 14 -51 13 -21 57 -366 57 -444 0 -73 2 -80 20 -80 18 0 20 7 20 68 0 106 -36 391 -66 524 -2 10 -6 26 -8 36 -2 9 -13 64 -25 122 -33 169 -71 275 -102 285 -9 3 -22 19 -29 35 -10 24 -15 28 -31 20 -13 -8 -21 -6 -29 7 -11 17 -11 17 -6 0 3 -10 0 -17 -7 -17 -7 0 -19 -9 -27 -20 -8 -11 -21 -20 -29 -20 -8 0 -11 -3 -8 -7 4 -3 2 -12 -4 -20 -6 -7 -8 -13 -4 -13 4 0 3 -6 -3 -13 -8 -9 -9 -31 -3 -65 7 -44 5 -54 -10 -68 -15 -14 -21 -14 -34 -4 -9 7 -13 15 -11 17 2 3 -3 13 -12 24 -12 14 -18 15 -24 6 -5 -8 -8 -4 -8 10 0 15 -5 21 -14 17 -15 -6 -25 29 -22 83 1 18 -2 33 -5 33 -4 0 -1 27 6 60 16 75 15 437 -1 448 -5 4 -10 27 -11 52 0 117 -15 382 -22 407 -5 15 -7 38 -5 51 2 12 1 22 -4 22 -4 0 -7 26 -7 58 0 59 -9 136 -19 162 -5 11 16 24 81 51 49 20 114 44 146 54 43 13 57 22 57 36 0 11 4 19 10 19 5 0 7 -7 4 -15 -8 -20 10 -19 27 2 12 14 12 15 0 9 -10 -7 -12 -4 -7 12 8 24 -11 41 -20 18 -3 -9 -10 -14 -15 -11 -4 3 -4 17 2 32 5 14 7 28 4 31 -3 3 -5 1 -5 -4 0 -13 -38 -15 -45 -3 -4 5 -1 9 5 9 7 0 5 6 -4 15 -18 19 -33 20 -17 2 8 -10 7 -17 -1 -25 -9 -9 -9 -12 3 -12 10 -1 9 -5 -5 -15 -23 -17 -36 -19 -36 -5 0 6 6 10 13 10 8 0 13 13 12 35 0 39 -16 42 -26 4 l-6 -24 -5 25 c-5 23 -5 23 -7 -5 -1 -23 -3 -27 -11 -15 -8 12 -10 8 -11 -15 -1 -23 -3 -25 -6 -8 -3 15 -9 20 -21 17 -13 -5 -14 -4 -3 4 7 5 10 15 7 21 -7 11 4 18 39 24 11 2 31 9 44 16 18 10 22 10 16 0 -6 -9 -3 -11 8 -6 11 4 17 1 17 -8 0 -8 7 -15 16 -15 8 0 12 -5 9 -11 -4 -6 -1 -10 6 -8 8 1 23 1 34 0 15 -1 17 -3 7 -10 -11 -7 -10 -9 3 -14 9 -4 13 -3 10 3 -5 9 6 14 26 12 3 -1 6 6 6 13 0 11 -4 12 -14 3 -21 -17 -28 -1 -8 19 10 10 32 19 49 20 26 3 28 1 14 -7 -26 -16 -22 -25 10 -27 73 -6 113 -13 132 -23 21 -11 21 -12 3 -27 -10 -8 -12 -12 -5 -8 6 3 12 4 12 0 0 -12 -45 -22 -52 -11 -6 8 -8 7 -8 -1 0 -7 -8 -13 -17 -14 -10 0 -4 -5 12 -10 17 -6 137 -13 268 -16 l237 -6 0 22 c0 19 -5 21 -57 21 -73 0 -133 10 -133 21 0 5 7 9 15 9 16 0 28 36 23 71 -3 22 -9 25 -74 30 -39 4 -82 12 -95 19 -23 13 -21 14 41 33 36 10 93 25 126 33 34 8 74 18 89 24 14 5 36 10 49 10 12 0 39 9 61 20 22 11 52 20 67 20 15 0 28 3 28 8 0 4 147 7 328 8 229 1 342 5 377 14 28 7 75 14 106 17 51 4 57 3 62 -16 3 -15 13 -21 31 -21 15 0 29 -7 32 -15 5 -13 -22 -61 -53 -93 -19 -19 -17 -82 2 -82 9 0 15 -9 15 -24 0 -32 24 -39 95 -31 43 6 55 4 55 -6 0 -11 -25 -14 -118 -15 -82 0 -124 -5 -142 -15 -35 -20 -319 -21 -339 -1 -10 9 -27 12 -55 8 -23 -4 -139 -11 -258 -18 -207 -11 -218 -12 -218 -31 0 -19 5 -20 163 -13 89 3 209 6 267 5 410 -7 672 1 740 21 114 33 271 -38 258 -118 -5 -31 24 -112 40 -112 15 0 15 0 -6 138 -5 30 -14 57 -21 61 -16 10 6 61 26 61 10 0 13 18 13 70 0 56 -3 70 -15 70 -8 0 -15 9 -15 20 0 13 -7 20 -20 20 -23 0 -39 45 -21 63 8 8 11 8 11 -1 0 -7 14 -12 35 -12 l35 0 0 55 c0 31 -6 71 -14 89 -15 37 -10 86 9 86 14 0 25 31 25 73 0 41 -25 33 -39 -12 -6 -22 -26 -52 -45 -69 -29 -25 -32 -32 -21 -43 18 -18 22 -36 10 -40 -5 -1 -21 -8 -34 -15 -25 -13 -45 -8 -80 20 -8 6 -24 12 -35 13 -12 1 -55 5 -96 9 -127 13 -289 8 -355 -9 -33 -9 -69 -18 -80 -20 -11 -1 -26 -6 -32 -10 -7 -5 -13 -6 -13 -3 0 2 -24 -1 -54 -8 -54 -13 -119 -13 -166 -2 -14 4 -100 9 -191 11 -91 3 -168 5 -170 6 -2 0 -13 2 -24 5 -11 2 -27 1 -35 -3 -26 -10 -50 -10 -50 1 0 8 -2 8 -8 0 -6 -10 -21 -14 -64 -15 -10 0 -18 -5 -18 -10 0 -6 -5 -7 -10 -4 -14 8 -80 -14 -80 -26 0 -6 -4 -8 -9 -5 -5 3 -11 -1 -15 -9 -3 -8 -12 -12 -20 -9 -8 3 -17 0 -21 -5 -3 -6 -10 -9 -15 -6 -5 3 -34 -8 -64 -25 -31 -16 -56 -27 -56 -25 0 3 -13 -1 -29 -9 -16 -9 -31 -13 -34 -10 -3 3 -20 -2 -37 -11 -18 -9 -41 -15 -51 -12 -11 3 -16 1 -13 -4 5 -9 -46 -24 -78 -23 -10 1 -15 -2 -13 -6 7 -12 -64 -17 -75 -6 -6 6 -10 7 -10 3 0 -4 -13 -1 -30 8 -16 8 -35 14 -42 13 -6 -2 -14 5 -16 15 -4 22 27 35 39 16 7 -11 9 -9 9 7 0 24 33 58 45 47 4 -5 5 -3 1 4 -4 7 -14 9 -23 6 -10 -4 -14 -2 -9 5 3 6 2 13 -3 17 -6 3 -8 -3 -6 -15 2 -11 -1 -22 -6 -26 -5 -3 -9 -2 -8 3 1 4 1 19 0 33 -1 23 -5 25 -44 24 -24 -1 -61 -7 -82 -14 -21 -7 -40 -9 -44 -3 -3 5 -26 9 -51 10 -79 3 -95 6 -119 27 -13 12 -21 15 -17 9 4 -7 2 -13 -3 -13 -15 0 -14 26 2 51 10 17 9 22 -5 30 -15 9 -13 17 26 77 66 102 162 297 192 392 21 67 35 92 63 117 l36 32 -36 1 c-20 0 -39 -3 -42 -7z m2153 -728 c7 -9 10 -18 6 -22 -9 -10 -112 -16 -141 -9 -31 8 -33 26 -2 26 12 0 29 5 37 10 23 15 86 12 100 -5z m-2010 -211 c0 -8 -4 -12 -10 -9 -5 3 -10 13 -10 21 0 8 5 12 10 9 6 -3 10 -13 10 -21z"></path><path id="p1FktQHJzE" d="M3780 4170 c0 -16 7 -20 35 -20 40 0 49 24 13 34 -38 10 -48 7 -48 -14z"></path><path id="pEj84ywWO" d="M3870 4161 c0 -20 26 -31 78 -31 48 0 41 25 -12 39 -60 15 -66 14 -66 -8z"></path><path id="pX034wD3v" d="M3620 4158 c0 -30 13 -58 26 -58 9 0 14 12 14 35 0 28 -4 35 -20 35 -11 0 -20 -6 -20 -12z"></path><path id="p1GzlvX2VP" d="M4028 4163 c-33 -8 -20 -33 17 -33 28 0 35 4 35 20 0 20 -14 23 -52 13z"></path><path id="pVi4wAOIk" d="M3613 4035 c-28 -43 -29 -65 -3 -65 11 0 20 7 20 15 0 8 5 15 10 15 6 0 10 16 10 35 0 44 -9 44 -37 0z"></path><path id="p17d7oem8G" d="M3445 3912 c-1 -2 2 -16 8 -33 12 -30 37 -40 37 -14 0 8 7 15 15 15 8 0 15 9 15 20 0 17 -6 20 -36 17 -19 -1 -37 -3 -39 -5z"></path><path id="p10dPbKLwk" d="M50 3565 c0 -33 2 -35 35 -35 33 0 35 2 35 35 0 33 -2 35 -35 35 -33 0 -35 -2 -35 -35z"></path><path id="p10bE1AZam" d="M4404 3516 c-4 -11 -19 -16 -50 -16 l-44 0 0 -68 c0 -40 5 -74 13 -83 25 -31 68 -50 105 -47 36 3 36 3 49 68 8 36 12 85 11 110 -3 44 -4 45 -41 48 -26 2 -39 -1 -43 -12z"></path><path id="pVfgdlsm1" d="M1285 3190 c-3 -5 3 -10 15 -10 12 0 18 5 15 10 -3 6 -10 10 -15 10 -5 0 -12 -4 -15 -10z"></path><path id="p14dr4ucv3" d="M3435 2885 c0 -72 3 -85 16 -85 21 0 32 65 23 127 -4 30 -11 43 -23 43 -14 0 -16 -13 -16 -85z"></path><path id="pPaU2BFDu" d="M3471 2706 l44 -43 3 29 c4 36 -18 58 -59 58 l-33 0 45 -44z"></path><path id="p1HmZDLtbY" d="M3530 2623 c0 -10 60 -100 76 -113 12 -11 14 -7 14 24 0 20 -4 36 -10 36 -5 0 -10 7 -10 15 0 8 -4 15 -10 15 -5 0 -10 7 -10 15 0 9 -9 15 -25 15 -14 0 -25 -3 -25 -7z"></path><path id="pGIrq2LH4" d="M3866 2438 c-9 -83 -8 -108 8 -108 15 0 21 19 31 108 6 47 5 52 -13 52 -16 0 -20 -9 -26 -52z"></path><path id="p1Fv4PdWtq" d="M3650 2342 c0 -12 20 -124 26 -144 6 -22 34 -24 34 -3 0 8 -5 46 -12 85 -10 56 -16 70 -30 70 -10 0 -18 -4 -18 -8z"></path><path id="p16mK7sIVV" d="M3850 2270 c0 -36 4 -50 14 -50 15 0 26 30 26 73 0 20 -5 27 -20 27 -17 0 -20 -7 -20 -50z"></path><path id="p6R4VUkeA" d="M3730 2197 c0 -8 16 -18 35 -24 33 -11 35 -10 35 13 0 21 -5 24 -35 24 -22 0 -35 -5 -35 -13z"></path><path id="p8pug9hHy" d="M3837 2151 c-5 -21 24 -56 36 -44 4 3 7 19 7 35 0 21 -5 28 -19 28 -10 0 -21 -9 -24 -19z"></path><path id="pHFaCbgxM" d="M2520 2114 c-14 -3 -32 -8 -40 -11 -8 -3 -33 -5 -55 -5 -47 2 -156 -37 -163 -57 -4 -11 5 -13 44 -8 27 3 50 10 52 16 4 13 72 -56 72 -75 0 -9 12 -14 37 -14 28 0 42 7 65 32 15 17 28 36 28 41 0 5 10 18 22 29 19 16 32 18 83 13 87 -8 208 -37 223 -52 7 -7 27 -13 43 -13 19 0 29 -5 29 -15 0 -8 7 -15 15 -15 8 0 15 -4 15 -10 0 -5 11 -10 25 -10 16 0 25 -6 25 -16 0 -9 18 -37 41 -61 22 -25 52 -70 66 -101 13 -31 29 -66 34 -77 12 -28 25 -95 39 -202 12 -94 4 -209 -21 -328 -8 -37 -8 -69 1 -120 19 -111 17 -127 -18 -171 -18 -23 -34 -57 -38 -81 -4 -27 -12 -43 -20 -43 -17 0 -20 -66 -3 -72 6 -2 13 -41 16 -86 4 -57 10 -82 19 -82 16 0 22 31 29 150 8 127 9 134 15 140 3 3 16 25 30 50 23 41 25 56 25 165 0 66 4 126 9 134 6 10 5 12 -2 7 -7 -4 -5 9 4 31 13 31 15 66 11 198 -3 88 -8 174 -11 190 -21 101 -32 138 -64 204 -67 144 -225 264 -402 305 -68 16 -237 28 -280 20z"></path><path id="pLsR2n9Om" d="M2105 1973 c-213 -114 -313 -294 -341 -615 -6 -75 -5 -78 15 -78 18 0 21 6 21 43 0 71 29 223 55 293 14 37 25 75 25 85 0 11 6 19 13 19 10 0 57 61 57 74 0 8 72 76 81 76 5 0 9 7 9 15 0 8 9 15 20 15 11 0 20 4 20 8 0 4 16 14 35 21 27 9 35 18 35 37 0 28 -5 29 -45 7z"></path><path id="p1A0OTHMMg" d="M4780 1270 c0 -30 0 -30 -59 -30 -78 0 -121 9 -121 26 0 9 -11 14 -32 14 -32 -1 -35 -5 -73 -88 -22 -47 -61 -119 -87 -160 -28 -42 -48 -84 -48 -100 l0 -28 308 4 c169 2 312 5 318 7 8 2 12 58 13 181 l2 177 -50 -7 c-59 -8 -101 1 -101 20 0 9 -12 14 -35 14 -32 0 -35 -2 -35 -30z m200 -308 c0 -10 -49 -14 -64 -5 -6 5 1 10 19 14 31 6 45 3 45 -9z"></path><path id="plnDDu45f" d="M1756 1245 c-3 -13 -7 -154 -7 -312 0 -340 0 -350 7 -384 2 -14 0 -46 -6 -70 -6 -24 -14 -54 -17 -66 -4 -18 -1 -23 15 -23 37 0 43 48 48 370 6 345 -1 510 -21 510 -7 0 -16 -11 -19 -25z"></path><path id="pFOXXJq4O" d="M2080 1195 c0 -8 -9 -15 -20 -15 -16 0 -20 -7 -20 -35 0 -33 2 -35 35 -35 24 0 35 5 35 15 0 10 10 15 30 15 28 0 30 3 30 35 0 35 0 35 -45 35 -33 0 -45 -4 -45 -15z"></path><path id="p4E23KCap" d="M2342 1003 c-12 -15 -22 -35 -22 -45 0 -10 -7 -18 -15 -18 -10 0 -15 -10 -15 -30 0 -26 -3 -30 -29 -30 -16 0 -31 -6 -35 -15 -3 -8 -16 -15 -30 -15 -13 0 -26 -6 -29 -14 -3 -7 -19 -16 -35 -19 -27 -5 -31 -12 -41 -57 -6 -28 -11 -62 -11 -75 0 -14 -4 -25 -10 -25 -15 0 -12 -68 3 -73 8 -2 12 -28 12 -83 0 -74 1 -79 23 -82 21 -3 32 -36 14 -44 -10 -4 -43 -143 -50 -206 -2 -23 -1 -50 3 -60 4 -9 8 -37 9 -62 l1 -45 73 -3 c64 -3 72 -1 72 15 1 24 34 63 54 63 9 0 19 7 22 15 4 9 19 15 35 15 21 0 29 5 30 18 0 10 3 12 6 5 2 -7 12 -13 20 -13 9 0 25 -10 37 -22 12 -13 41 -40 65 -60 42 -38 43 -38 129 -38 102 0 129 6 135 29 3 11 5 9 6 -6 1 -22 3 -22 163 -22 90 0 165 4 168 9 10 16 179 17 189 2 5 -9 24 -12 54 -10 l47 3 -40 60 c-50 76 -106 148 -208 267 -13 16 -13 20 1 36 18 19 41 118 31 133 -14 23 -33 6 -40 -36 -3 -25 -10 -45 -14 -45 -23 0 -60 105 -60 172 0 18 -7 42 -15 52 -8 11 -15 30 -15 43 0 13 -9 32 -20 43 -11 11 -20 33 -20 49 0 26 -4 30 -40 36 -22 4 -44 14 -49 24 -5 9 -26 26 -47 37 -20 10 -48 29 -62 42 -14 12 -31 22 -38 22 -16 0 -74 33 -74 43 0 4 -17 7 -38 7 -97 0 -192 13 -192 26 0 10 -14 14 -43 14 -35 0 -47 -5 -65 -27z m128 -163 c-15 -9 2 -22 22 -15 34 12 68 13 68 2 0 -7 16 -13 36 -14 45 -2 67 -10 60 -21 -2 -4 4 -8 14 -8 15 0 17 3 7 15 -10 12 -9 13 8 3 45 -25 48 -29 30 -35 -9 -4 -13 -3 -10 3 9 15 -1 12 -14 -3 -12 -15 -7 -16 59 -18 28 -1 31 -3 15 -9 -18 -7 -19 -8 -2 -15 9 -4 17 -15 17 -26 0 -10 7 -24 15 -31 48 -40 72 -72 70 -93 -2 -15 5 -27 21 -36 27 -14 31 -27 10 -35 -8 -3 -17 -16 -20 -30 -4 -13 -13 -24 -22 -24 -8 0 -12 -4 -9 -10 10 -16 -17 -11 -39 8 -20 16 -20 16 -7 -1 8 -9 10 -21 6 -25 -4 -4 -10 -1 -12 6 -3 6 -10 9 -15 6 -7 -5 -8 -2 -4 5 5 8 0 14 -13 18 -12 3 -21 10 -21 15 0 6 -9 8 -20 5 -12 -3 -24 1 -30 11 -5 10 -10 13 -10 7 0 -5 -17 -11 -37 -12 -21 -1 -39 -6 -41 -12 -2 -5 -10 -7 -19 -4 -11 4 -14 2 -9 -5 5 -8 2 -10 -9 -6 -9 4 -27 -6 -47 -25 -17 -16 -35 -28 -40 -25 -4 3 -8 0 -8 -6 0 -6 -4 -9 -9 -5 -5 3 -12 1 -16 -5 -4 -6 -11 -8 -16 -4 -5 3 -16 0 -24 -6 -16 -14 -18 -10 -9 14 3 9 10 13 15 10 5 -3 9 0 9 5 0 6 -14 17 -31 24 l-32 13 27 12 c15 7 25 9 22 4 -2 -4 0 -14 5 -22 20 -32 46 41 30 83 -14 36 -31 34 -31 -3 0 -33 -6 -35 -63 -19 l-38 10 31 29 c23 22 30 35 25 50 -4 11 -2 20 4 20 6 0 11 7 11 15 0 20 -20 19 -36 -2 -12 -17 -13 -16 -14 7 0 14 5 32 10 40 5 8 10 11 10 5 0 -12 22 22 38 59 11 26 11 28 -5 22 -12 -4 -11 -1 5 10 12 9 22 24 21 33 0 12 -2 11 -9 -4 -8 -18 -9 -18 -9 -2 -1 11 8 21 19 24 11 3 20 10 20 15 0 5 -5 6 -12 2 -6 -4 -9 -3 -5 2 3 5 20 10 37 10 19 1 27 -1 20 -6z m457 -349 c-1 -14 -5 -17 -13 -11 -6 6 -15 6 -19 2 -5 -4 -5 -1 -1 6 4 7 12 10 17 7 5 -4 9 -1 9 4 0 6 2 11 4 11 3 0 4 -9 3 -19z m-565 -80 c-4 -10 -7 -11 -10 -3 -2 7 -8 10 -13 6 -5 -3 -9 -1 -9 5 0 5 9 9 19 8 12 -1 17 -6 13 -16z m18 -35 c-5 -15 -6 -25 -1 -21 5 3 13 0 17 -7 4 -7 3 -10 -1 -5 -5 4 -21 -5 -37 -20 -23 -22 -28 -23 -28 -10 0 10 -7 20 -15 23 -8 4 -15 13 -15 21 0 9 6 13 15 10 8 -4 17 -2 20 4 4 5 10 7 15 4 5 -3 15 3 22 14 17 27 21 20 8 -13z m481 -11 c6 15 8 16 8 4 1 -9 10 -19 21 -22 11 -3 18 -1 15 3 -9 15 13 21 27 7 7 -8 20 -14 28 -15 40 -3 60 -7 60 -13 0 -4 10 -9 22 -13 17 -4 20 -8 11 -17 -7 -7 -8 -21 -2 -42 10 -36 10 -36 -26 -43 -20 -3 -25 -1 -19 8 5 10 4 10 -5 2 -16 -15 -83 4 -74 20 4 6 -1 5 -10 -3 -19 -15 -23 -26 -5 -15 7 4 8 3 4 -5 -4 -6 -13 -8 -19 -4 -16 10 -57 11 -51 1 3 -4 -3 -8 -13 -9 -41 -1 -77 -8 -82 -16 -3 -5 -12 -8 -18 -7 -7 1 -17 2 -22 3 -15 2 -7 51 9 52 10 0 11 2 3 6 -7 2 -13 11 -13 18 0 7 -8 16 -17 19 -28 11 24 39 78 42 57 2 69 8 70 37 1 20 2 21 7 2 l5 -20 8 20z m-548 -61 c-3 -8 -8 -12 -13 -9 -4 2 -5 -6 -3 -18 3 -16 -9 -36 -41 -71 -26 -27 -46 -45 -46 -39 0 5 9 18 20 28 11 10 20 25 20 33 0 8 8 21 18 28 16 13 16 13 -2 14 -19 0 -19 1 2 20 12 12 22 25 22 30 0 5 6 7 14 4 8 -3 12 -12 9 -20z m848 -88 c5 3 9 -1 9 -8 0 -10 3 -9 11 2 9 12 9 11 3 -5 -4 -11 -7 -36 -8 -56 -1 -32 -4 -36 -21 -32 -11 2 -27 6 -35 7 -8 2 -24 -2 -35 -8 -11 -6 -32 -12 -47 -13 -16 -2 -43 -4 -60 -6 -18 -2 -41 1 -52 6 -13 6 -16 6 -12 -2 5 -8 -39 -10 -153 -8 -89 1 -161 5 -161 10 0 4 -7 7 -15 7 -8 0 -15 4 -15 9 0 5 -3 17 -6 26 -6 13 1 15 45 11 37 -3 51 -1 51 8 0 8 10 11 30 8 16 -2 28 -8 25 -12 -9 -15 13 -20 41 -10 28 11 51 14 189 24 125 10 160 15 163 26 2 6 10 10 18 10 8 0 14 6 15 13 0 9 2 9 6 -1 2 -6 9 -10 14 -6z"></path><path id="p1AY09Gpd6" d="M3486 978 c-3 -13 -6 -37 -6 -55 0 -18 -16 -94 -35 -169 -20 -75 -33 -144 -30 -152 6 -17 -44 -119 -92 -184 -27 -37 -33 -53 -27 -70 8 -22 8 -21 14 7 6 36 22 35 34 -3 5 -15 15 -34 23 -44 8 -9 16 -28 17 -42 2 -15 10 -34 18 -44 18 -21 48 -137 48 -187 0 -31 3 -35 26 -35 24 0 26 3 20 28 -4 15 -9 44 -13 65 -3 20 -9 37 -13 37 -4 0 -10 24 -13 54 -5 49 -30 122 -47 136 -3 3 -14 21 -23 42 -17 37 -14 62 10 86 7 7 16 25 20 40 3 15 11 30 16 34 6 3 14 35 18 70 4 35 19 106 34 158 33 122 45 250 23 250 -9 0 -18 -10 -22 -22z"></path><path id="p1GFofdvgP" d="M60 945 c0 -31 -3 -36 -30 -41 -24 -5 -30 -12 -30 -32 l0 -25 123 7 c67 4 124 11 125 17 3 6 9 6 17 -1 10 -8 19 -8 34 -1 24 14 81 14 114 2 14 -6 39 -29 56 -53 56 -80 128 -146 198 -182 41 -21 43 -20 43 7 0 24 -33 47 -65 47 -8 0 -15 7 -15 15 0 8 -9 15 -20 15 -11 0 -20 5 -20 11 0 17 -27 39 -49 39 -17 0 -21 6 -21 30 0 25 -4 30 -25 30 -21 0 -25 5 -25 31 0 18 -11 45 -27 66 -26 34 -28 35 -80 29 -43 -5 -53 -3 -53 9 0 10 -10 15 -35 15 -28 0 -35 -4 -35 -19 0 -25 -8 -30 -64 -37 l-46 -7 0 32 c0 29 -2 31 -35 31 -33 0 -35 -2 -35 -35z"></path><path id="ps7AX9VrW" d="M291 796 c-1 -51 -3 -57 -16 -46 -19 16 -27 9 -29 -27 -1 -15 -5 -33 -9 -40 -11 -18 9 -25 50 -17 50 9 61 16 37 25 -15 6 -16 8 -3 8 26 1 33 64 13 106 -9 19 -20 33 -24 30 -5 -3 -11 1 -13 7 -3 7 -6 -13 -6 -46z"></path><path id="p12Y0funvs" d="M1477 578 c-4 -62 -7 -152 -7 -200 0 -49 -4 -88 -9 -88 -5 0 -12 -22 -16 -50 -4 -27 -11 -52 -16 -56 -5 -3 -9 -45 -9 -95 0 -82 1 -89 20 -89 11 0 20 3 20 8 3 105 11 166 28 208 16 40 20 73 20 155 0 57 3 136 7 175 9 81 0 144 -19 144 -9 0 -15 -30 -19 -112z"></path><path id="pQCcyraoB" d="M775 591 c-3 -5 4 -12 15 -16 38 -12 9 -25 -56 -25 -39 0 -64 -4 -64 -11 0 -7 34 -10 103 -8 l102 3 150 -75 c83 -42 171 -84 198 -94 l47 -18 2 -51 c1 -28 2 -58 4 -66 1 -8 2 -23 3 -32 1 -10 8 -18 16 -18 11 0 15 12 15 50 0 38 4 50 15 50 10 0 15 11 15 35 0 19 -5 35 -11 35 -7 0 -19 8 -28 18 -15 17 -112 62 -133 62 -5 0 -16 7 -24 15 -9 8 -27 18 -42 22 -15 3 -29 9 -32 13 -7 10 -107 60 -120 60 -6 0 -18 7 -26 15 -9 8 -26 15 -39 15 -12 0 -25 7 -29 15 -6 17 -71 21 -81 6z"></path><path id="pTM9aYsH3" d="M530 540 c-18 -6 -4 -8 48 -9 42 -1 72 3 72 9 0 12 -84 12 -120 0z"></path><path id="pWoug7faH" d="M1152 349 c-10 -16 -10 -24 -1 -35 16 -19 28 -9 24 21 -3 35 -9 38 -23 14z"></path><path id="pmsaURV1R" d="M1735 288 c9 -62 17 -82 47 -102 31 -22 38 -20 38 9 0 14 -6 25 -13 25 -15 0 -37 55 -37 93 0 21 -5 27 -21 27 -19 0 -20 -4 -14 -52z"></path><path id="p6GyUGwcq" d="M1170 269 c0 -12 -7 -27 -15 -33 -12 -9 -11 -14 5 -35 l20 -23 0 56 c0 31 -2 56 -5 56 -3 0 -5 -10 -5 -21z"></path><path id="p11ozkaCaf" d="M1606 172 c7 -4 10 -24 8 -45 -3 -31 0 -38 12 -33 8 3 12 2 9 -3 -3 -5 -1 -12 5 -16 6 -4 7 -12 3 -18 -4 -7 1 -6 10 2 16 13 17 12 8 -11 -5 -13 -6 -30 -1 -37 12 -20 18 0 15 44 -6 69 -12 90 -24 87 -7 -1 -10 2 -6 7 3 6 -3 15 -14 20 -22 12 -42 15 -25 3z"></path><path id="p5ew4vAPo" d="M1860 153 c0 -5 20 -20 44 -36 24 -15 64 -46 90 -68 l46 -41 0 36 c0 29 -4 36 -19 36 -10 0 -21 9 -24 20 -3 11 -12 20 -21 20 -9 0 -16 5 -16 10 0 6 -7 10 -15 10 -8 0 -15 5 -15 10 0 6 -16 10 -35 10 -19 0 -35 -3 -35 -7z"></path><path id="p17cvZ4Bw3" d="M1162 134 c-11 -12 -11 -18 -2 -29 19 -23 31 -18 27 10 -4 32 -9 36 -25 19z"></path><path id="pwqCdTAjP" d="M1280 45 c0 -38 3 -45 20 -45 17 0 20 7 20 45 0 38 -3 45 -20 45 -17 0 -20 -7 -20 -45z"></path><path id="p136KAJSQK" d="M1167 30 c-18 -29 -18 -30 2 -30 17 0 21 6 21 30 0 17 -1 30 -3 30 -1 0 -11 -13 -20 -30z"></path><path id="pUVC3aSrQ" d="M1693 36 c2 -17 9 -32 15 -34 17 -5 14 19 -4 43 -15 19 -15 19 -11 -9z"></path></g></g><g id="l6UPz86ZnqCz3TLiQu9qmT3" fill="rgb(186,144,113)" style="transform: none;"><g style="transform: none;"><path id="pvX4y3cNv" d="M594 4476 c-4 -16 -11 -23 -20 -19 -8 3 -14 2 -12 -3 5 -19 -26 -63 -99 -142 -24 -26 -43 -50 -43 -54 0 -4 -4 -8 -10 -8 -10 0 -100 -91 -100 -101 0 -4 -9 -9 -21 -12 -12 -3 -18 -10 -15 -16 4 -5 -3 -12 -14 -16 -11 -4 -27 -19 -35 -34 -8 -16 -30 -42 -50 -60 -20 -17 -33 -36 -30 -41 3 -6 2 -10 -3 -10 -13 0 -56 -70 -56 -92 -1 -9 -4 -20 -9 -24 -12 -12 -7 48 8 91 l14 39 -24 -29 c-13 -17 -26 -46 -29 -65 -9 -52 -7 -255 4 -420 5 -80 11 -269 15 -420 9 -459 51 -1072 96 -1420 23 -178 35 -230 52 -230 7 -1 21 -12 32 -26 50 -65 54 -66 131 -60 52 5 84 2 115 -9 24 -8 62 -15 84 -15 59 0 85 -10 85 -31 0 -11 -4 -19 -10 -19 -5 0 -10 7 -10 15 0 12 -13 15 -60 15 l-60 0 0 -34 c0 -42 20 -59 65 -54 24 3 35 0 35 -9 0 -7 8 -13 19 -13 17 0 18 -6 14 -63 -5 -57 -3 -65 22 -95 17 -21 36 -32 52 -32 28 0 52 -24 53 -53 0 -21 23 -43 87 -84 24 -16 43 -34 43 -40 0 -7 11 -13 25 -13 36 0 85 -39 85 -67 0 -19 5 -23 29 -23 58 0 91 12 91 32 0 14 5 18 16 14 9 -3 18 -6 20 -6 2 0 4 -9 4 -19 0 -11 18 -38 40 -61 33 -34 40 -49 40 -81 0 -32 7 -46 35 -73 19 -19 35 -39 35 -45 0 -6 10 -11 23 -11 38 0 67 -12 67 -27 0 -10 10 -13 38 -11 l37 3 8 75 c11 110 11 139 3 310 -7 142 -49 491 -62 512 -3 4 -7 21 -10 36 -9 54 -45 208 -55 237 -6 17 -15 45 -20 63 -6 17 -14 32 -19 32 -6 0 -10 9 -10 20 0 11 -7 20 -15 20 -8 0 -15 6 -15 13 0 8 -4 7 -10 -3 -7 -11 -10 -11 -10 -2 0 7 -5 10 -10 7 -6 -4 -18 -1 -27 7 -12 9 -15 9 -9 1 4 -9 1 -13 -10 -13 -14 0 -15 -2 -3 -17 13 -15 12 -16 -9 -11 -20 6 -22 4 -10 -10 11 -13 11 -15 -4 -10 -11 5 -18 0 -21 -13 -3 -10 -1 -17 3 -14 5 3 8 -4 7 -15 -1 -10 -7 -22 -15 -25 -7 -3 -13 -15 -12 -27 4 -39 0 -59 -8 -54 -5 3 -17 -4 -26 -16 l-18 -21 -35 36 c-19 21 -43 37 -53 37 -10 0 -22 5 -26 12 -5 7 -3 8 6 3 8 -5 3 7 -10 25 -13 18 -18 30 -11 26 8 -5 6 5 -6 25 -10 19 -18 39 -18 44 0 6 -4 16 -9 24 -12 19 -15 70 -5 77 5 3 9 20 9 39 0 19 5 46 11 62 6 16 10 92 9 183 0 85 -1 164 -1 175 0 11 -7 30 -15 42 -11 18 -11 23 -2 23 10 0 10 2 0 8 -9 6 -13 54 -16 166 -3 87 -7 160 -10 163 -3 3 -1 15 5 26 8 13 8 17 0 13 -6 -4 -9 4 -6 24 2 16 -1 30 -6 30 -6 0 -8 21 -5 50 3 28 2 48 -3 46 -4 -3 -7 14 -8 37 0 74 -8 117 -20 117 -8 0 -14 15 -14 38 -2 48 -7 103 -11 123 -5 24 -29 50 -39 43 -5 -3 -6 2 -3 11 7 17 -23 58 -37 50 -16 -11 -18 13 -2 26 14 12 16 12 8 0 -5 -9 -4 -12 2 -8 12 7 5 67 -8 67 -5 0 -9 -5 -9 -11 0 -11 -25 -39 -35 -39 -14 0 -54 -38 -47 -44 3 -4 -1 -4 -11 0 -9 3 -14 10 -11 15 3 5 -8 9 -23 9 -33 0 -53 16 -53 41 0 10 -5 19 -11 21 -13 4 52 78 69 78 6 0 12 10 14 23 2 14 10 22 23 22 12 0 21 8 23 20 6 34 20 40 44 19 13 -10 20 -15 16 -10 -4 5 -2 16 4 24 15 18 19 42 7 42 -14 0 11 49 77 150 84 127 165 289 203 403 29 86 36 97 87 142 63 54 178 186 201 228 14 28 14 28 -14 25 -17 -2 -32 -11 -37 -24 -8 -18 -16 -20 -53 -16 l-43 5 0 -37 c0 -20 5 -36 12 -36 6 0 4 -7 -5 -18 -10 -10 -17 -26 -17 -35 0 -10 -8 -17 -20 -17 -11 0 -20 -7 -20 -15 0 -8 -6 -15 -14 -15 -8 0 -21 -9 -29 -21 -10 -13 -30 -22 -59 -26 -23 -3 -48 -11 -53 -18 -6 -7 -20 -15 -33 -19 -12 -4 -22 -12 -22 -17 0 -5 -7 -9 -15 -9 -28 0 -95 -35 -95 -50 -1 -30 -26 -50 -64 -50 -29 0 -38 -5 -45 -22 -5 -13 -21 -33 -35 -45 -17 -15 -26 -33 -26 -52 0 -47 -10 -61 -41 -61 -16 0 -29 -5 -29 -10 0 -6 -11 -16 -25 -22 -14 -6 -25 -19 -25 -30 0 -13 -7 -18 -25 -18 -23 0 -25 3 -26 55 -1 30 -2 61 -3 67 -1 7 7 14 17 16 12 2 17 -3 17 -17 0 -18 6 -21 40 -21 l40 0 0 40 c0 38 -2 40 -30 40 -23 0 -30 4 -30 20 0 31 27 90 45 96 8 3 15 15 15 25 0 10 6 19 13 19 6 1 21 15 32 32 12 19 32 35 51 40 33 8 44 34 44 99 0 16 5 29 10 29 6 0 10 30 10 70 l0 70 -80 0 c-76 0 -80 -1 -86 -24z m-96 -741 c5 -4 -41 -45 -50 -45 -4 0 -8 14 -8 30 0 28 2 30 28 24 15 -4 28 -8 30 -9z m271 -199 c8 -10 8 -16 -2 -24 -10 -9 -13 -6 -13 13 0 29 0 29 15 11z"></path><path id="piW3zBQ7w" d="M4295 4492 c-6 -4 -12 -18 -12 -31 -1 -13 -6 -27 -11 -30 -13 -9 -24 -42 -28 -88 -2 -23 -9 -55 -16 -70 -6 -15 -10 -32 -9 -37 6 -26 7 -85 2 -81 -4 2 -7 -21 -7 -50 0 -30 2 -52 6 -50 3 2 7 -17 8 -42 1 -25 6 -51 11 -57 4 -6 11 -27 15 -47 5 -30 2 -39 -22 -62 -36 -35 -38 -57 -28 -332 4 -100 -10 -205 -26 -205 -4 0 -8 -15 -8 -34 0 -18 -5 -47 -11 -65 -8 -22 -8 -40 0 -63 9 -25 8 -35 -4 -48 -9 -10 -13 -24 -10 -32 3 -8 -1 -21 -10 -28 -8 -7 -15 -24 -15 -38 0 -14 -7 -33 -16 -43 -8 -9 -15 -35 -16 -58 0 -22 -4 -38 -9 -35 -5 3 -6 -2 -3 -11 4 -8 1 -22 -6 -30 -8 -9 -9 -26 -4 -47 11 -48 4 -149 -11 -160 -11 -8 -15 -78 -5 -78 4 0 7 -7 7 -15 0 -8 -4 -15 -9 -15 -5 0 -6 -5 -2 -11 3 -6 0 -15 -7 -20 -10 -6 -11 -9 -1 -9 6 0 12 -5 12 -11 0 -5 -4 -8 -9 -4 -12 7 -25 -56 -19 -90 3 -13 2 -22 -3 -20 -15 10 -17 -15 -21 -230 -1 -31 6 -56 23 -88 9 -16 8 -17 -13 -6 -19 10 -21 10 -12 -2 5 -8 16 -27 22 -44 11 -28 11 -28 -3 -11 -15 20 -15 19 -15 -1 0 -11 6 -26 14 -32 8 -7 11 -22 8 -38 -3 -17 -1 -24 6 -19 6 4 8 -1 5 -13 -3 -10 0 -28 6 -39 7 -14 8 -21 0 -24 -5 -2 -10 -31 -11 -65 -1 -54 -4 -62 -24 -72 -13 -6 -24 -15 -24 -21 0 -5 -7 -10 -16 -10 -8 0 -12 -5 -9 -10 3 -6 -2 -13 -12 -17 -10 -4 -26 -16 -36 -27 -14 -16 -20 -18 -26 -7 -7 11 -10 11 -14 0 -4 -9 -6 -8 -6 5 -1 15 -4 16 -16 6 -13 -11 -16 -8 -21 19 -4 17 -10 31 -15 31 -5 0 -9 7 -9 15 0 8 -7 15 -15 15 -8 0 -15 5 -15 11 0 5 -4 8 -9 5 -5 -4 -7 4 -3 16 4 19 3 21 -9 12 -11 -9 -17 -9 -26 1 -6 7 -9 15 -6 18 3 4 -7 4 -23 1 -33 -6 -45 -14 -21 -14 9 0 17 -4 17 -9 0 -5 -9 -7 -19 -4 -14 3 -21 -2 -26 -18 -4 -13 -14 -29 -22 -37 -8 -8 -12 -20 -9 -27 2 -7 -7 -45 -20 -86 -13 -41 -27 -99 -30 -129 -3 -30 -14 -81 -25 -115 -19 -58 -40 -192 -54 -342 -3 -40 -17 -114 -31 -165 -14 -51 -28 -112 -31 -135 -5 -42 -5 -43 23 -43 16 0 59 -3 95 -6 59 -6 69 -4 88 15 13 13 21 34 21 56 0 29 -4 35 -22 36 -13 1 6 8 42 15 66 14 150 10 150 -7 0 -5 18 -9 40 -9 22 0 40 5 40 10 0 6 13 10 29 10 28 0 38 8 99 87 11 15 28 22 50 23 51 0 82 26 82 67 0 31 4 36 40 50 33 13 41 22 46 50 4 19 4 54 1 79 -4 37 -2 44 13 44 14 0 19 12 24 63 4 34 4 70 0 80 -5 14 0 17 35 17 l41 0 0 40 c0 36 3 40 25 40 14 0 25 5 25 10 0 6 7 10 15 10 10 0 15 10 15 30 0 29 1 30 49 30 l49 0 7 -60 c6 -48 4 -63 -9 -75 -21 -21 -22 -105 -2 -105 8 0 18 12 23 27 9 27 10 27 15 5 4 -12 2 -20 -3 -16 -5 3 -9 0 -9 -5 0 -6 6 -11 14 -11 10 0 17 16 22 47 4 26 13 53 20 60 7 7 16 39 20 70 4 32 11 61 16 64 11 7 23 140 38 434 9 181 42 495 54 514 5 7 55 373 62 456 16 163 54 417 65 430 5 5 9 18 9 30 0 11 11 54 25 96 13 41 39 128 57 194 l32 120 4 393 3 392 -45 0 -45 0 -7 -47 c-4 -27 -14 -55 -23 -63 -9 -8 -27 -34 -40 -58 -20 -38 -22 -52 -16 -108 7 -64 7 -64 -19 -64 -24 0 -26 -4 -26 -40 0 -38 2 -40 29 -40 37 0 38 -3 50 -160 10 -125 3 -201 -18 -208 -6 -2 -11 -26 -11 -53 0 -37 -4 -49 -15 -49 -12 0 -15 -13 -15 -55 0 -30 -4 -55 -10 -55 -5 0 -10 -13 -10 -30 0 -16 -4 -30 -9 -30 -6 0 -11 -17 -13 -37 -2 -20 -9 -38 -16 -41 -11 -3 -12 10 -6 67 4 47 3 71 -4 71 -5 0 -13 24 -16 53 -3 28 -9 90 -15 135 -8 77 -7 87 11 119 18 29 20 44 14 101 -3 37 -9 104 -13 150 -4 59 -10 82 -19 82 -8 0 -14 5 -14 10 0 6 9 10 20 10 17 0 20 7 20 40 0 36 3 40 25 40 22 0 25 4 25 35 0 33 -2 35 -35 35 -31 0 -35 -3 -35 -25 0 -19 -5 -25 -23 -25 -13 0 -32 7 -43 15 -10 8 -36 15 -56 15 l-38 0 0 -50 c0 -27 -4 -50 -10 -50 -6 0 -10 27 -10 60 l0 60 -32 0 c-19 0 -28 4 -21 8 17 11 27 83 19 137 l-7 45 -87 0 c-48 0 -92 -4 -97 -8z m160 -1056 c-4 -25 -11 -46 -16 -46 -5 0 -7 -11 -3 -24 8 -32 -10 -40 -43 -20 -42 26 -53 44 -53 86 0 31 4 38 19 38 11 0 21 -9 24 -21 3 -12 10 -18 15 -15 6 3 13 0 15 -6 9 -21 28 13 22 38 -5 24 4 39 18 25 5 -5 5 -29 2 -55z m-925 -2676 c0 -13 -5 -17 -21 -13 -12 4 -18 11 -15 20 3 8 6 19 6 25 0 6 6 6 15 -2 8 -7 15 -20 15 -30z"></path><path id="pLgBVqAub" d="M4189 4245 c-3 -5 -6 -59 -7 -120 l0 -110 9 70 c10 73 8 177 -2 160z"></path><path id="pbB85uKH" d="M4217 3869 c-8 -28 -3 -34 11 -16 6 7 7 19 3 26 -6 9 -10 6 -14 -10z"></path><path id="pEprzk8ez" d="M820 3615 c0 -30 15 -33 30 -6 14 27 13 31 -10 31 -15 0 -20 -7 -20 -25z"></path><path id="psYebRcuk" d="M2810 3587 c-19 -4 -48 -10 -65 -12 -16 -2 -30 -4 -30 -5 0 -1 -27 -3 -60 -6 -33 -2 -72 -6 -87 -8 -16 -2 -28 0 -28 5 0 6 -4 7 -10 4 -17 -10 -52 -15 -64 -8 -16 10 -46 11 -46 1 0 -4 -5 -8 -11 -8 -5 0 -8 4 -5 8 6 10 -67 7 -84 -3 -9 -6 -11 -4 -5 6 6 11 5 12 -6 2 -17 -16 -33 -17 -23 -1 5 8 2 9 -12 4 -31 -12 -64 -14 -70 -4 -4 6 -10 5 -15 -3 -7 -11 -9 -10 -9 4 0 12 -4 16 -12 10 -23 -14 -58 -14 -58 -1 0 9 -3 9 -10 -2 -8 -12 -11 -13 -19 -1 -7 11 -9 11 -14 0 -5 -12 -7 -12 -15 0 -6 8 -12 10 -16 3 -4 -6 -16 -9 -27 -7 -15 3 -19 0 -15 -11 5 -12 2 -12 -15 -3 -14 7 -19 7 -15 0 8 -13 -39 -45 -54 -36 -5 3 -10 0 -10 -7 0 -9 -3 -9 -10 2 -8 12 -10 12 -10 1 0 -8 -7 -11 -20 -8 -11 3 -20 1 -20 -4 0 -4 -7 -6 -15 -3 -8 4 -15 1 -15 -6 0 -7 -7 -10 -15 -6 -8 3 -15 1 -15 -5 0 -6 -10 -9 -22 -8 -13 2 -29 0 -35 -4 -8 -5 -13 -3 -13 5 0 9 -3 9 -10 -2 -5 -8 -10 -11 -10 -7 0 5 -7 1 -16 -8 -10 -9 -25 -14 -35 -12 -10 3 -19 1 -21 -4 -2 -6 -15 -11 -30 -12 -27 -2 -88 -49 -88 -68 0 -5 4 -8 9 -5 5 4 11 1 13 -6 3 -7 18 -13 34 -14 16 -1 29 -3 29 -4 0 -3 49 -11 80 -13 27 -2 30 -5 30 -37 0 -32 -3 -35 -33 -38 -18 -2 -30 -7 -27 -13 3 -5 -1 -6 -9 -3 -9 4 -16 1 -16 -6 0 -7 -6 -10 -13 -7 -8 3 -20 1 -28 -5 -11 -8 -10 -9 4 -4 9 3 17 1 17 -3 0 -5 11 -8 25 -7 14 0 25 4 25 7 0 3 13 4 30 1 16 -2 28 -7 26 -11 -3 -4 5 -8 17 -8 12 -1 25 3 29 10 4 7 8 8 8 2 0 -12 299 -11 535 0 72 4 139 6 150 6 11 0 22 5 26 10 4 7 12 5 21 -5 12 -11 45 -15 164 -15 82 0 169 4 194 10 25 6 63 11 85 11 22 1 43 6 47 12 5 8 8 7 8 -1 0 -7 5 -13 11 -13 5 0 7 5 4 10 -3 6 3 10 14 10 11 0 22 -4 25 -8 4 -7 102 -9 116 -2 3 1 7 2 10 2 3 0 11 6 18 14 7 8 8 14 2 14 -5 0 -9 3 -9 8 1 4 0 10 -1 15 -1 4 -3 13 -4 20 -1 6 -8 11 -15 9 -7 -1 -10 2 -6 8 3 6 11 8 16 5 13 -8 11 -2 -6 31 -10 20 -15 23 -15 12 0 -10 -6 -18 -14 -18 -7 0 -19 -7 -26 -15 -11 -14 -14 -13 -25 2 -12 17 -51 11 -41 -6 7 -11 -17 -21 -31 -13 -5 4 -9 19 -8 35 2 23 -1 27 -19 22 -12 -3 -15 -2 -8 1 6 3 9 11 5 17 -3 7 -3 9 2 5 7 -7 15 4 52 75 l15 28 24 -28 c21 -25 26 -26 45 -15 16 10 24 10 35 1 7 -6 11 -16 7 -23 -4 -6 1 -5 10 3 14 11 17 11 17 0 0 -11 2 -11 10 1 7 12 12 12 22 2 13 -13 29 -16 26 -4 -3 9 49 62 55 56 10 -10 1 33 -11 54 -17 30 -71 52 -96 40 -11 -6 -16 -6 -13 -1 4 5 -7 10 -23 10 -19 0 -30 -5 -30 -14 0 -8 -4 -12 -9 -9 -5 4 -12 0 -14 -6 -4 -10 -8 -9 -16 2 -10 13 -11 13 -11 0 0 -13 -1 -13 -10 0 -8 12 -10 11 -10 -7 0 -23 -10 -29 -23 -16 -4 3 -1 13 6 21 9 13 9 14 0 8 -8 -4 -13 -2 -13 6 0 9 -3 9 -10 -2 -9 -13 -10 -13 -10 0 -1 12 -3 11 -11 -3 -12 -20 -31 -13 -22 8 4 11 -3 15 -28 16 -19 1 -47 2 -64 3 -16 1 -46 -2 -65 -7z"></path><path id="proKVPzsU" d="M3440 3530 c0 -25 -3 -31 -9 -21 -21 32 -96 13 -85 -21 3 -10 1 -18 -4 -18 -15 0 0 -54 19 -71 10 -9 16 -19 12 -23 -3 -3 1 -6 10 -6 10 0 17 -7 17 -16 0 -9 6 -14 13 -11 8 3 14 -1 14 -9 0 -8 -4 -14 -9 -14 -4 0 -8 -9 -8 -19 0 -11 -5 -23 -10 -26 -6 -4 -8 -11 -5 -16 4 -5 1 -9 -5 -9 -6 0 -9 -4 -5 -9 3 -5 2 -12 -3 -15 -13 -8 -7 -49 12 -79 20 -30 36 -35 36 -12 0 8 4 15 9 15 13 0 19 56 25 231 5 118 3 149 -9 165 -13 18 -14 17 -15 -16z"></path><path id="pLJq5rnp1" d="M860 3499 c0 -5 -4 -8 -9 -5 -5 4 -5 -10 0 -32 5 -20 14 -59 19 -87 16 -79 21 -90 31 -74 7 12 9 11 9 -1 0 -11 4 -9 13 5 11 20 13 25 16 46 0 5 6 7 13 3 7 -5 8 -3 2 7 -5 8 -7 22 -6 32 2 10 -3 17 -12 17 -9 0 -16 5 -16 10 0 6 5 10 10 10 6 0 10 5 10 10 0 6 -7 10 -15 10 -8 0 -15 7 -15 15 0 14 -11 19 -37 16 -8 -1 -10 5 -7 14 3 8 3 15 0 15 -3 0 -6 -5 -6 -11z"></path><path id="p56ePw54e" d="M740 3430 c0 -11 5 -20 10 -20 6 0 10 9 10 20 0 11 -4 20 -10 20 -5 0 -10 -9 -10 -20z"></path><path id="pQQKnIHoI" d="M924 3176 c-7 -18 0 -94 10 -103 3 -3 19 0 35 6 30 13 48 56 28 68 -6 4 -7 1 -3 -8 6 -10 4 -10 -6 1 -7 8 -20 15 -28 15 -8 0 -15 5 -15 12 0 20 -14 26 -21 9z"></path><path id="pnpIvxb1p" d="M2610 2112 c-55 -7 -88 -23 -84 -40 2 -9 -5 -28 -17 -42 -11 -14 -17 -19 -13 -11 5 9 3 12 -4 7 -7 -4 -12 -14 -12 -22 0 -23 -17 -16 -24 11 -4 14 -12 25 -19 25 -9 0 -9 2 0 8 9 6 6 11 -8 21 -17 10 -20 10 -14 -1 3 -7 0 -5 -8 5 -8 9 -21 17 -30 17 -26 0 -152 -55 -250 -110 -116 -64 -182 -120 -235 -202 -96 -147 -125 -290 -126 -623 -1 -126 -4 -234 -7 -240 -3 -5 -4 -21 -2 -35 3 -14 4 -109 4 -212 -1 -149 -4 -195 -17 -228 -13 -32 -15 -58 -10 -116 8 -89 13 -104 34 -104 13 0 14 12 9 84 -5 77 -4 86 12 91 11 3 24 19 31 35 12 28 14 29 26 13 7 -10 14 -30 14 -45 0 -15 11 -39 24 -53 20 -21 23 -33 18 -70 -4 -37 -2 -45 12 -45 9 0 16 -3 16 -8 0 -4 10 -18 23 -32 29 -31 41 -70 22 -70 -7 0 -16 -6 -18 -12 -3 -7 -6 -1 -6 15 -1 15 -5 27 -11 27 -5 0 -10 13 -10 29 l0 29 -80 0 c-44 0 -80 -3 -80 -8 0 -4 31 -24 68 -43 86 -45 167 -105 183 -135 l13 -22 403 0 c222 1 403 5 403 9 0 10 90 36 105 31 6 -2 27 -3 48 -3 25 1 37 -3 37 -12 0 -22 25 -25 188 -24 136 1 153 2 128 13 l-28 13 23 7 c14 3 20 9 14 13 -6 5 -16 21 -23 36 -9 20 -17 27 -28 23 -12 -4 -15 -2 -11 9 9 21 -14 31 -28 12 -14 -20 -26 -12 -18 11 4 10 2 13 -5 8 -13 -8 -12 -45 2 -43 6 1 12 -9 13 -23 2 -22 2 -23 -6 -5 l-10 20 0 -20 c-1 -17 -3 -17 -11 -5 -5 8 -10 11 -10 5 0 -5 -5 -3 -10 5 -8 13 -10 13 -10 -2 0 -11 -5 -15 -15 -12 -8 4 -15 1 -15 -5 0 -6 -7 -11 -15 -11 -8 0 -15 5 -15 11 0 5 -4 8 -9 4 -5 -3 -11 5 -13 17 -2 19 -8 22 -33 20 -16 -2 -39 -9 -50 -16 -11 -7 -29 -12 -40 -10 -11 2 -33 3 -50 3 -16 -1 -84 0 -149 0 -118 2 -120 2 -102 -18 9 -10 14 -21 9 -24 -10 -6 -67 -2 -80 6 -6 4 -13 3 -17 -1 -15 -15 -41 -6 -78 27 -20 19 -35 37 -33 41 3 5 -2 11 -11 14 -10 4 -13 2 -9 -7 4 -6 0 -3 -9 7 -8 10 -13 22 -11 26 2 4 -7 6 -20 5 -13 -2 -24 0 -24 3 3 20 -2 32 -11 27 -5 -3 -10 1 -10 9 0 19 -23 21 -38 3 -11 -13 -12 -17 -12 -42 0 -12 -4 -13 -19 -5 -27 14 -30 13 -41 -15 -5 -14 -18 -25 -27 -25 -10 0 -24 -9 -31 -20 -7 -11 -21 -20 -32 -20 -25 0 -26 -15 -2 -30 15 -10 14 -11 -5 -7 -13 3 -23 1 -23 -4 0 -4 -7 -6 -15 -3 -9 4 -15 0 -16 -7 0 -8 -4 -4 -10 9 -5 14 -5 30 0 40 10 20 10 72 -1 66 -4 -2 -9 0 -13 6 -3 5 -1 10 6 10 9 0 9 3 0 14 -9 11 -9 16 0 22 8 5 9 3 4 -6 -6 -9 -4 -11 4 -5 8 5 9 11 3 17 -12 12 1 72 20 95 11 14 11 16 -2 8 -10 -6 -9 -2 3 12 13 15 15 23 7 28 -9 6 -9 9 0 15 6 4 12 13 14 21 1 8 8 24 14 37 19 33 -1 67 -29 51 -29 -15 -45 2 -28 29 10 16 10 32 2 69 -11 52 -7 167 7 203 1 3 2 8 1 12 -1 11 46 21 59 13 6 -3 10 -3 9 2 -5 26 2 32 26 23 14 -5 24 -6 23 -2 -4 20 17 42 39 42 32 0 63 35 63 69 0 15 9 38 21 53 l21 26 20 -20 c16 -16 29 -19 63 -15 29 4 48 2 63 -9 13 -9 28 -12 35 -7 15 9 77 12 77 3 0 -4 11 -12 25 -18 14 -6 25 -20 25 -29 0 -10 4 -14 8 -8 13 18 29 15 56 -10 14 -13 34 -26 46 -30 11 -3 33 -20 50 -36 27 -27 52 -39 87 -41 7 -1 10 -5 7 -9 -7 -12 27 -90 37 -83 5 3 6 -2 3 -10 -3 -8 3 -29 12 -48 22 -42 25 -58 11 -58 -7 0 -7 -4 2 -9 8 -5 11 -16 8 -25 -3 -8 -2 -18 4 -22 7 -4 6 -10 -1 -19 -8 -9 -6 -14 7 -19 12 -5 14 -9 6 -14 -8 -5 4 -26 36 -61 l49 -54 13 24 c7 13 14 26 14 29 1 3 5 21 9 40 10 40 14 220 5 225 -3 2 -2 36 2 76 7 60 14 79 41 113 30 37 33 48 34 111 1 39 -2 75 -6 80 -11 15 -20 86 -10 80 4 -3 8 19 9 48 0 30 4 64 9 78 10 26 8 285 -2 334 -4 17 -11 54 -17 84 -6 30 -15 62 -19 70 -4 9 -22 46 -39 82 -54 116 -196 226 -334 259 -69 17 -200 35 -227 32z m-526 -277 c-4 -8 -15 -15 -25 -15 -21 0 -26 16 -6 23 24 10 36 7 31 -8z m1241 -1754 c3 -6 -3 -15 -14 -20 -18 -10 -21 -3 -12 27 2 6 20 1 26 -7z"></path><path id="pauZ19vaZ" d="M4480 1146 c0 -27 4 -34 18 -33 10 0 18 8 18 16 1 9 4 24 9 34 6 14 2 17 -19 17 -23 0 -26 -4 -26 -34z"></path><path id="pkzMXLLBy" d="M720 620 c0 -8 51 -40 65 -40 3 0 5 11 5 25 0 22 -4 25 -35 25 -19 0 -35 -4 -35 -10z"></path><path id="p4kZv3MKP" d="M3381 504 c-23 -41 -41 -77 -41 -80 0 -2 11 -4 25 -4 22 0 25 4 25 35 0 28 4 35 19 35 10 0 22 7 25 16 9 24 7 74 -3 74 -5 0 -28 -34 -50 -76z"></path><path id="p702gkOSR" d="M1020 472 c0 -7 17 -18 63 -40 4 -2 7 8 7 22 0 23 -4 26 -35 26 -19 0 -35 -4 -35 -8z"></path><path id="pcEUGBVZ2" d="M2603 413 c-22 -8 -14 -23 12 -23 14 0 25 4 25 9 0 11 -21 19 -37 14z"></path><path id="p647CKjWs" d="M2566 382 c-4 -6 -13 -9 -20 -6 -8 3 -17 0 -22 -7 -5 -8 -3 -10 7 -4 12 7 12 6 1 -7 -13 -16 -7 -68 7 -68 4 0 11 15 17 33 5 17 15 31 22 30 14 -3 15 6 3 26 -6 9 -11 10 -15 3z"></path><path id="pqLUzyHvO" d="M1420 285 c0 -35 0 -36 40 -33 38 2 40 3 40 35 0 32 -1 33 -40 33 -39 0 -40 -1 -40 -35z"></path><path id="p8Kvqjup7" d="M2890 190 c-24 -8 -23 -8 8 -9 17 -1 32 4 32 9 0 11 -5 11 -40 0z"></path></g></g><g id="l57Zw8EDAODLQbONSwJCZU6" fill="rgb(171,160,153)" style="transform: none;"><g style="transform: none;"><path id="pzQGoGfNo" d="M0 2682 l0 -1818 39 0 c22 0 38 3 36 6 -2 3 10 5 27 6 21 1 26 -1 16 -8 -9 -7 -8 -8 5 -4 10 3 21 6 23 6 3 0 2 5 -2 11 -4 7 2 10 17 8 13 -1 42 2 64 6 22 5 48 8 58 6 9 -1 17 4 17 11 0 10 2 10 9 -1 7 -12 13 -12 24 -3 7 7 17 9 20 5 4 -3 13 -1 21 6 11 10 25 -3 75 -72 33 -46 67 -90 75 -97 14 -11 16 -8 16 24 0 23 -5 39 -15 42 -8 4 -15 13 -15 20 0 8 -7 17 -15 20 -8 4 -15 12 -15 20 0 8 -3 14 -7 14 -5 0 -13 10 -19 23 -6 12 -23 44 -38 70 -15 27 -39 78 -52 115 -14 37 -30 71 -35 77 -5 5 -9 18 -9 30 0 11 -7 34 -16 50 -9 17 -22 59 -31 95 -8 36 -18 79 -23 95 l-8 30 -1 -30 c-1 -24 -4 -27 -11 -14 -5 9 -12 32 -15 50 -35 240 -59 459 -70 639 -3 58 -8 114 -10 125 -2 11 -6 72 -10 135 -3 63 -10 176 -15 250 -5 74 -12 275 -15 445 -4 171 -8 330 -10 355 -13 172 -16 450 -7 485 6 22 11 44 11 48 0 9 60 123 78 146 6 9 67 90 136 182 166 221 172 209 -98 209 l-205 0 0 -1818z"></path><path id="pCUBFspq2" d="M3604 4282 c-8 -5 -7 -24 3 -67 28 -126 28 -142 -2 -201 -33 -65 -62 -90 -114 -99 l-38 -6 5 -54 c7 -81 -4 -117 -45 -158 -34 -34 -35 -38 -20 -55 42 -46 47 -81 39 -272 -7 -148 -11 -184 -24 -191 -12 -7 -14 -17 -7 -46 9 -43 24 -123 36 -198 5 -27 6 -63 2 -80 -4 -16 -7 -49 -8 -72 -1 -36 3 -45 29 -63 17 -12 39 -39 50 -61 11 -21 43 -73 70 -115 28 -42 50 -86 50 -98 0 -11 7 -50 15 -86 8 -36 19 -91 25 -122 l11 -58 40 0 c46 0 72 -11 111 -48 15 -14 31 -22 35 -19 3 4 10 58 14 120 23 312 88 727 145 923 65 226 105 406 119 544 9 80 22 192 31 250 8 58 18 149 21 204 l6 98 -45 -34 c-55 -42 -120 -62 -185 -55 -179 18 -243 39 -301 97 -31 30 -48 36 -68 22z"></path><path id="p2o9PfFna" d="M4985 3853 c-4 -21 -10 -49 -15 -63 -5 -14 -11 -42 -15 -62 -3 -21 -13 -42 -23 -47 -10 -6 -12 -11 -4 -11 13 0 6 -52 -9 -58 -4 -2 -6 -9 -3 -17 6 -15 -47 -196 -56 -190 -3 2 -7 -18 -8 -43 -1 -26 -7 -51 -14 -57 -7 -5 -13 -23 -14 -40 -1 -16 -9 -84 -18 -150 -10 -66 -21 -158 -26 -205 -5 -47 -14 -119 -19 -160 -18 -123 -20 -141 -31 -234 -6 -49 -13 -93 -16 -97 -5 -9 -39 -279 -48 -384 -4 -38 -11 -167 -16 -286 -12 -264 -15 -279 -46 -279 -23 0 -27 -6 -27 -42 0 -10 -3 -18 -7 -18 -4 0 -10 -12 -13 -28 -13 -62 -31 -122 -37 -122 -4 0 -13 -21 -21 -48 -7 -26 -17 -51 -21 -57 -5 -5 -23 -32 -40 -60 -17 -27 -43 -68 -58 -90 -15 -22 -30 -49 -34 -60 -10 -32 -109 -130 -163 -160 -167 -96 -300 -165 -318 -165 -8 0 -69 -18 -135 -40 -66 -22 -124 -40 -129 -40 -5 0 -47 -18 -94 -40 -46 -22 -91 -40 -99 -40 -9 0 -21 -7 -28 -15 -7 -8 -18 -15 -24 -15 -14 0 -66 -51 -66 -65 0 -4 9 0 19 9 19 17 20 16 40 -24 11 -24 18 -47 15 -52 -3 -4 0 -7 8 -6 7 2 13 -4 13 -12 0 -8 5 -18 11 -22 15 -10 38 -104 30 -124 -3 -8 -2 -12 4 -9 9 6 22 -47 24 -97 l1 -27 773 -1 772 0 0 473 0 473 -237 -3 c-131 -1 -268 -5 -306 -7 l-67 -5 31 45 c17 25 42 64 55 87 18 33 24 38 30 24 3 -9 15 -17 26 -17 12 0 17 -4 12 -12 -5 -10 -4 -10 6 -1 11 10 11 16 -3 31 -9 10 -14 23 -10 27 5 5 1 4 -9 -3 -28 -22 -28 2 -1 54 15 27 26 59 25 72 -2 27 13 21 21 -8 3 -11 1 -18 -4 -14 -5 3 -9 0 -9 -5 0 -14 27 -14 35 -1 4 6 10 8 15 5 4 -3 36 -5 71 -6 35 -1 69 -6 76 -11 7 -5 18 -6 24 -2 17 10 78 13 84 5 2 -4 -1 -8 -8 -9 -7 0 -25 -4 -42 -7 -16 -4 -42 -8 -57 -9 -15 -1 -30 -5 -34 -9 -11 -11 -26 -8 -18 4 4 8 1 8 -12 1 -25 -13 -114 -9 -123 6 -4 7 -11 4 -19 -9 -12 -18 -11 -20 7 -17 11 2 19 -1 18 -7 -1 -5 -8 -9 -14 -9 -7 1 -13 -4 -13 -12 0 -8 0 -16 0 -19 0 -3 2 -4 4 -2 2 1 13 -6 24 -16 13 -12 22 -15 27 -8 3 6 -1 14 -9 17 -19 7 -22 25 -3 22 6 -2 11 4 9 14 -2 13 8 17 48 20 27 1 50 -1 50 -6 0 -5 6 -3 13 3 16 12 28 5 21 -12 -3 -8 7 -11 28 -10 18 1 35 2 38 4 3 1 10 3 15 4 63 11 85 19 85 29 0 6 4 5 9 -3 6 -8 14 -10 22 -5 8 5 24 7 35 6 13 -2 24 4 28 14 5 13 4 14 -7 6 -10 -9 -14 -8 -14 3 0 8 6 15 14 15 10 0 13 238 13 1345 0 740 -2 1345 -4 1345 -3 0 -8 -17 -11 -37z m-102 -2636 c-4 -6 0 -8 10 -4 9 3 19 2 21 -2 6 -9 -17 -7 -51 4 -31 10 -29 23 2 17 14 -2 22 -9 18 -15z m9 -49 c-6 -6 -15 -8 -19 -4 -4 4 -1 11 7 16 19 12 27 3 12 -12z m39 9 c-1 -12 -15 -9 -19 4 -3 6 1 10 8 8 6 -3 11 -8 11 -12z"></path><path id="p10ZSS7P0M" d="M827 3618 c-8 -30 2 -37 19 -14 18 25 18 36 0 36 -7 0 -16 -10 -19 -22z"></path><path id="pKCehorV2" d="M2253 2044 c-35 -17 -43 -31 -18 -31 8 0 12 4 9 8 -3 5 7 11 21 15 14 3 25 10 25 15 0 11 1 12 -37 -7z"></path><path id="p1B5OWhFTP" d="M2020 1915 c-50 -37 -54 -50 -17 -52 23 -2 28 0 17 7 -13 8 -13 11 -1 22 10 10 12 10 7 1 -5 -9 0 -13 14 -13 12 0 18 5 15 10 -3 6 -1 10 4 10 6 0 11 9 11 20 0 26 -9 25 -50 -5z"></path><path id="p12aUzr7Q4" d="M1908 1775 c2 -15 0 -25 -7 -25 -6 0 -11 6 -11 13 0 8 -3 7 -10 -3 -7 -11 -5 -17 8 -21 9 -4 20 -5 25 -2 10 6 9 63 -2 63 -4 0 -6 -11 -3 -25z"></path><path id="p7B2mir0C" d="M4755 1090 c-4 -6 -11 -7 -17 -4 -6 4 -8 3 -5 -3 7 -11 127 -14 127 -3 0 4 -18 7 -41 8 -22 1 -45 4 -49 7 -5 3 -11 1 -15 -5z"></path><path id="p1GJCE849v" d="M4882 1083 c5 -7 14 -10 19 -7 16 10 9 23 -10 21 -15 -1 -17 -4 -9 -14z"></path><path id="pLPYvetO1" d="M300 810 c0 -14 -3 -35 -6 -47 -5 -19 -10 -21 -25 -12 -16 8 -19 6 -19 -16 0 -14 6 -25 13 -25 7 -1 5 -6 -5 -14 -27 -20 -22 -26 21 -26 49 0 61 15 24 29 l-28 11 32 -3 c30 -3 31 -1 35 35 3 29 -2 45 -19 66 l-22 27 -1 -25z"></path><path id="pzKz8AoOG" d="M585 695 c22 -19 87 -58 144 -87 l104 -53 -104 -3 c-57 -1 -108 -7 -114 -13 -7 -7 21 -9 90 -5 55 2 117 5 138 5 30 1 37 5 37 21 0 15 -7 20 -25 20 -15 0 -25 6 -25 14 0 16 -21 26 -56 26 -14 0 -24 6 -24 14 0 17 -22 26 -61 26 -22 0 -29 5 -29 20 0 13 -7 20 -20 20 -11 0 -20 7 -20 15 0 11 -11 15 -37 15 l-38 -1 40 -34z"></path><path id="p1BlQXWDW3" d="M3426 668 c-10 -38 -7 -48 14 -48 12 0 20 7 20 16 0 13 -3 14 -14 5 -12 -10 -14 -7 -10 18 6 36 -1 41 -10 9z"></path><path id="pODM0dXYO" d="M3413 565 c-11 -33 -10 -35 13 -35 21 0 24 5 24 35 0 22 -5 35 -13 35 -8 0 -18 -16 -24 -35z"></path><path id="p19Voq21cC" d="M548 533 c12 -2 30 -2 40 0 9 3 -1 5 -23 4 -22 0 -30 -2 -17 -4z"></path><path id="p17E2k8GWC" d="M3142 495 c-1 -19 2 -35 7 -35 9 0 9 55 0 64 -3 4 -6 -10 -7 -29z"></path><path id="pbmtHbEpJ" d="M1152 408 c3 -7 27 -21 54 -33 78 -32 74 -24 74 -159 0 -68 3 -144 6 -170 l7 -46 81 0 82 0 -2 48 c0 26 3 57 7 70 6 15 5 21 -1 17 -13 -8 -13 8 -1 20 10 10 22 54 24 87 1 9 4 15 8 12 10 -6 18 33 12 56 -3 13 -12 20 -22 17 -9 -2 -53 9 -98 25 -45 15 -89 28 -97 28 -9 0 -16 5 -16 10 0 6 -11 10 -25 10 -14 0 -25 5 -25 10 0 6 -16 10 -36 10 -24 0 -34 -4 -32 -12z"></path><path id="pxDsplSHn" d="M1744 256 c6 -34 23 -63 41 -70 11 -4 15 2 15 24 0 17 -4 30 -10 30 -5 0 -10 9 -10 20 0 13 -7 20 -20 20 -16 0 -19 -5 -16 -24z"></path><path id="p1FV176H0f" d="M1647 137 c-4 -10 -7 -26 -7 -35 1 -15 2 -15 11 1 6 10 9 25 7 35 -3 16 -4 15 -11 -1z"></path><path id="pfXR08ubM" d="M1977 72 c51 -46 53 -47 53 -14 0 28 -3 30 -36 30 -34 0 -35 -1 -17 -16z"></path></g></g><g id="l3pmFIeYXdiISJbxkAZrLpc" fill="rgb(209,180,157)" style="transform: none;"><g style="transform: none;"><path id="pgsGuDnMw" d="M724 4484 c3 -8 -2 -23 -11 -32 -15 -16 -15 -17 0 -20 19 -4 23 -38 5 -44 -7 -3 -13 -27 -14 -58 -3 -60 -22 -82 -41 -47 -7 12 -12 17 -13 10 0 -6 -8 -14 -17 -16 -16 -4 -16 -5 0 -6 17 -1 16 -4 -7 -32 -14 -17 -26 -35 -26 -40 0 -5 -7 -9 -15 -9 -8 0 -15 -8 -15 -18 0 -9 -9 -23 -19 -29 -11 -7 -24 -28 -31 -47 -6 -20 -16 -36 -21 -36 -5 0 -9 -7 -9 -15 0 -8 5 -15 11 -15 19 0 4 -24 -27 -41 -25 -14 -28 -21 -25 -50 3 -19 4 -50 4 -69 -1 -19 -2 -45 -3 -57 0 -16 -6 -23 -20 -23 -18 0 -20 -7 -20 -88 l0 -89 -38 -11 c-33 -10 -39 -17 -49 -54 -6 -24 -15 -51 -18 -60 -5 -13 -2 -18 9 -18 9 0 16 8 16 18 0 14 2 15 10 2 6 -10 6 -16 0 -18 -26 -9 -5 -22 36 -22 31 0 44 4 42 12 -3 7 3 28 13 47 12 24 14 41 8 53 -5 9 -9 28 -9 42 0 19 5 26 20 26 11 0 20 7 20 15 0 8 4 15 9 15 4 0 20 12 35 26 19 20 26 37 26 65 0 28 4 39 15 39 8 0 15 8 15 18 0 11 11 24 25 30 14 6 25 16 25 22 0 5 13 10 29 10 31 0 41 14 41 60 0 27 42 80 63 80 4 0 7 8 5 18 -2 13 5 18 36 20 40 3 65 23 66 52 0 15 67 50 95 50 8 0 15 4 15 10 0 5 11 12 24 16 14 3 27 13 30 21 4 9 13 13 22 9 28 -11 81 21 149 90 68 69 155 178 155 195 0 5 -138 9 -316 9 -284 0 -316 -2 -310 -16z"></path><path id="p1HX3ggtF6" d="M4447 4468 c-2 -18 0 -36 5 -39 11 -7 0 -79 -13 -79 -5 0 -9 -18 -9 -40 0 -22 -4 -40 -10 -40 -21 0 -9 -16 30 -40 39 -24 51 -40 29 -40 -8 0 -8 -5 1 -15 7 -9 29 -15 51 -15 l39 0 0 50 c0 50 6 60 27 39 7 -7 29 -15 50 -18 50 -8 60 -41 13 -41 -27 0 -31 -3 -25 -17 4 -10 10 -28 12 -40 3 -13 12 -23 19 -23 10 0 14 -14 14 -51 0 -27 5 -82 11 -120 10 -64 9 -72 -11 -107 -19 -31 -21 -46 -17 -100 4 -34 2 -74 -3 -88 -8 -20 -5 -31 12 -55 17 -22 19 -32 10 -38 -9 -5 -9 -15 1 -42 6 -18 15 -36 18 -39 6 -5 -5 -102 -15 -135 -4 -11 -1 -28 7 -40 13 -16 17 -17 31 -6 9 7 13 17 11 22 -3 4 13 13 35 20 22 7 41 16 41 21 1 4 2 12 3 17 0 5 5 13 10 18 5 4 6 3 2 -4 -3 -6 -2 -14 2 -17 5 -3 8 5 7 17 -3 31 -3 30 -22 11 -13 -13 -18 -14 -22 -3 -2 7 1 15 8 17 6 2 11 10 11 17 0 7 6 16 13 18 9 4 9 8 -1 15 -11 7 -11 10 2 15 12 5 14 17 10 59 -5 48 -4 51 9 35 14 -17 16 -16 22 12 3 16 3 47 0 68 -5 28 -4 34 4 23 9 -12 11 -11 11 8 0 12 4 22 9 22 5 0 8 11 5 25 -2 14 -1 25 3 25 5 0 9 27 10 60 2 36 -2 60 -8 60 -6 0 -9 25 -8 63 1 35 -1 69 -5 76 -5 7 0 22 10 34 11 12 15 19 10 15 -5 -4 -15 4 -23 18 -16 33 -16 34 2 34 11 0 15 11 14 43 -2 29 -3 34 -6 15 -2 -16 -11 -28 -18 -28 -10 0 -14 14 -13 49 0 28 -3 55 -7 60 -6 11 29 84 53 109 10 11 12 11 13 0 2 -17 17 79 18 115 l1 27 -244 0 -244 0 -5 -32z m398 -348 c3 -5 -3 -10 -14 -10 -12 0 -21 5 -21 10 0 6 6 10 14 10 8 0 18 -4 21 -10z"></path><path id="pGCskEnR5" d="M265 4369 c-11 -17 0 -20 21 -4 17 13 17 14 2 15 -9 0 -20 -5 -23 -11z"></path><path id="pCGUe6QZF" d="M128 4266 c-20 -15 -23 -26 -8 -26 5 0 14 9 20 20 12 23 11 24 -12 6z"></path><path id="pGGyO4W2o" d="M247 4249 c-5 -20 -5 -20 14 -3 23 20 23 24 5 24 -7 0 -16 -9 -19 -21z"></path><path id="p1APwv7JgQ" d="M3643 4263 c-13 -5 -7 -33 7 -33 11 0 21 28 12 33 -4 3 -12 2 -19 0z"></path><path id="py4rQoHYu" d="M3611 4218 c1 -7 5 -24 10 -38 8 -22 8 -21 4 8 -3 23 -1 31 7 26 7 -4 8 -3 4 4 -10 16 -26 15 -25 0z"></path><path id="pNzw3kOb3" d="M4630 4023 c0 -5 5 -15 10 -23 8 -12 10 -11 10 8 0 12 -4 22 -10 22 -5 0 -10 -3 -10 -7z"></path><path id="p3QtkaJfF" d="M4143 3785 c0 -22 2 -30 4 -17 2 12 2 30 0 40 -3 9 -5 -1 -4 -23z"></path><path id="pD49foZyE" d="M3485 3740 c-7 -12 2 -12 30 0 19 8 19 9 -2 9 -12 1 -25 -3 -28 -9z"></path><path id="p1Geoltr65" d="M4958 3724 c-5 -4 -8 -18 -8 -30 0 -18 -4 -22 -17 -18 -13 4 -14 3 -5 -3 14 -11 10 -55 -5 -60 -6 -2 -9 -12 -7 -21 3 -9 -2 -39 -10 -65 -14 -48 -14 -49 5 -31 12 11 19 30 19 56 0 22 5 41 13 44 7 2 12 17 11 32 -1 15 3 35 8 45 11 21 7 63 -4 51z"></path><path id="pov95bw5G" d="M3393 3672 c-8 -5 -3 -16 14 -37 14 -17 22 -24 19 -17 -4 7 -1 12 6 12 8 0 6 5 -5 11 -14 8 -16 14 -6 25 9 11 8 14 -2 14 -8 0 -19 -4 -26 -8z"></path><path id="psFoynMf1" d="M830 3633 c0 -6 -3 -18 -6 -27 -3 -9 -2 -16 4 -16 15 0 24 32 12 44 -7 7 -10 7 -10 -1z"></path><path id="p12FYzltDK" d="M4112 3560 c-7 -34 -11 -64 -8 -67 6 -6 29 104 24 118 -2 6 -9 -17 -16 -51z"></path><path id="pRw2qeuci" d="M4871 3398 c0 -9 -4 -25 -7 -35 -5 -17 -5 -17 6 0 6 10 9 25 7 35 -4 15 -5 15 -6 0z"></path><path id="p9DFlAucL" d="M3458 3343 c-15 -4 -18 -16 -18 -65 0 -34 3 -58 6 -55 4 3 6 29 5 57 0 38 3 50 14 50 8 0 15 5 15 10 0 6 -1 9 -2 9 -2 -1 -11 -3 -20 -6z"></path><path id="prNv0d3Dh" d="M4047 3321 c-2 -10 -1 -25 4 -32 6 -10 9 -4 9 19 0 36 -5 42 -13 13z"></path><path id="p1GtKSKrET" d="M60 3295 c-9 -11 -9 -15 -1 -15 7 0 10 -4 7 -8 -3 -5 -1 -22 4 -38 7 -25 8 -22 8 24 -1 28 -2 52 -3 52 -2 0 -8 -7 -15 -15z"></path><path id="pm4QCsUvd" d="M4826 3244 c-3 -9 -6 -23 -6 -31 0 -13 3 -13 15 -3 17 14 20 36 6 44 -5 3 -12 -1 -15 -10z"></path><path id="pFk041bhq" d="M3395 3171 c-7 -12 12 -24 24 -17 5 3 12 -1 15 -10 4 -9 9 -14 13 -10 7 6 -25 46 -38 46 -4 0 -10 -4 -14 -9z"></path><path id="pW9OjIUeh" d="M80 3023 c0 -15 -2 -16 -10 -3 -8 13 -10 13 -10 -1 0 -9 7 -19 15 -23 11 -4 15 1 15 19 0 14 -2 25 -5 25 -3 0 -5 -8 -5 -17z"></path><path id="pEviYjBAm" d="M4780 2888 c0 -19 2 -20 10 -8 13 19 13 30 0 30 -5 0 -10 -10 -10 -22z"></path><path id="pe7GAhErH" d="M4528 2774 c-5 -4 -8 -19 -8 -33 1 -23 2 -24 11 -8 11 19 9 53 -3 41z"></path><path id="p150yGYhQX" d="M4767 2758 c-14 -60 -19 -121 -9 -114 5 3 13 33 17 67 7 61 2 90 -8 47z"></path><path id="pp6mNQQkd" d="M4544 2654 c3 -9 6 -18 6 -20 0 -2 5 -4 10 -4 6 0 10 9 10 20 0 12 -7 20 -16 20 -11 0 -14 -5 -10 -16z"></path><path id="pWwBE0dtz" d="M109 2358 c-6 -22 -6 -45 1 -57 7 -12 9 -6 10 22 0 20 -2 37 -5 37 -3 0 -5 -1 -6 -2z"></path><path id="puc7gm0uh" d="M122 2113 c13 -97 28 -135 23 -58 -4 72 -15 125 -25 125 -3 0 -3 -30 2 -67z"></path><path id="p1FWDoiCVJ" d="M3820 2163 c0 -5 11 -20 25 -33 l25 -23 -1 34 c-1 19 -3 26 -6 16 -5 -18 -6 -18 -24 -1 -10 9 -19 13 -19 7z"></path><path id="pEylWTjus" d="M2719 2087 c5 -5 7 -15 4 -22 -3 -10 2 -12 17 -8 13 3 25 0 30 -7 8 -13 60 -23 59 -12 -4 25 2 34 14 23 8 -6 16 -8 19 -5 4 3 19 -1 35 -9 15 -8 39 -17 53 -21 45 -12 -77 42 -133 58 -58 17 -113 18 -98 3z"></path><path id="p8etRH1Pn" d="M2250 2038 c-36 -18 -66 -39 -68 -46 -2 -9 7 -6 24 7 14 11 31 18 37 14 5 -3 7 -1 3 5 -3 6 8 15 29 22 19 6 37 16 40 21 9 13 6 12 -65 -23z"></path><path id="p141QKlOUl" d="M2671 2029 c-13 -11 -21 -22 -18 -25 7 -7 45 17 51 33 7 18 -5 15 -33 -8z"></path><path id="p19Rg8O4Sc" d="M2970 1983 c0 -15 5 -35 10 -43 8 -11 10 -5 8 23 -3 45 -18 62 -18 20z"></path><path id="pK7yvA6ts" d="M2110 1968 c-118 -67 -207 -154 -201 -196 2 -19 -1 -23 -13 -19 -8 3 -18 2 -21 -3 -4 -6 1 -10 10 -10 9 0 14 -4 10 -10 -3 -5 -13 -6 -23 -3 -13 5 -15 4 -7 -8 6 -8 10 -30 10 -51 0 -28 3 -34 13 -26 7 6 10 20 6 32 -6 20 -5 19 15 -3 13 -15 21 -19 21 -10 0 7 11 22 26 34 14 11 26 29 28 40 2 11 11 21 20 23 14 3 16 -2 11 -25 l-6 -28 15 25 c8 14 15 33 16 43 0 13 8 17 34 17 30 0 36 4 46 35 6 19 9 39 6 44 -4 5 0 12 6 15 7 3 0 4 -15 1 -22 -4 -27 -3 -21 7 6 10 4 10 -9 0 -9 -8 -21 -11 -26 -8 -14 9 71 88 89 83 10 -3 16 3 16 14 0 11 0 19 -1 19 0 0 -25 -14 -55 -32z m-127 -115 c-13 -8 -23 -20 -23 -25 0 -7 4 -7 13 0 8 7 16 6 24 -3 8 -9 9 -16 3 -20 -6 -3 -10 -2 -10 3 0 6 -9 8 -21 5 -12 -4 -18 -11 -15 -20 3 -8 1 -11 -5 -8 -20 13 19 86 45 84 6 0 1 -7 -11 -16z"></path><path id="p1b7Plb0H" d="M2862 1978 c-11 -4 -6 -7 16 -7 39 -1 34 -21 -6 -21 -24 0 -25 -1 -10 -16 15 -15 18 -15 47 2 31 18 40 34 20 34 -5 0 -8 3 -6 8 6 9 -38 9 -61 0z"></path><path id="p13BVD2rYF" d="M144 1903 c0 -29 4 -53 8 -53 10 0 9 59 -2 85 -5 14 -7 3 -6 -32z"></path><path id="p9tRM0BYo" d="M2890 1880 c0 -5 7 -10 15 -10 8 0 15 5 15 10 0 6 -7 10 -15 10 -8 0 -15 -4 -15 -10z"></path><path id="pZxRoPF30" d="M3010 1805 c-4 -21 2 -81 11 -95 7 -12 8 -11 8 5 0 27 -16 103 -19 90z"></path><path id="ponnp6Jlm" d="M2425 1763 l-17 -28 23 22 c12 12 20 25 17 28 -3 3 -13 -7 -23 -22z"></path><path id="pY40T13rh" d="M3027 1663 c5 -29 9 -57 12 -82 0 -8 4 -12 7 -9 8 9 -7 118 -16 118 -5 0 -6 -12 -3 -27z"></path><path id="p8CcbSdcn" d="M3124 1642 c-6 -4 -8 -16 -4 -26 6 -18 7 -18 13 4 7 28 6 32 -9 22z"></path><path id="pXrSH0cUA" d="M3091 1549 c-9 -16 -10 -24 -2 -29 7 -3 9 -15 5 -26 -5 -15 -4 -16 5 -4 8 12 11 12 17 -3 4 -11 17 -17 41 -17 32 0 34 2 31 31 -3 28 -7 32 -35 34 -18 2 -33 -2 -33 -7 0 -5 -4 -7 -9 -4 -5 3 -7 15 -4 26 7 26 1 25 -16 -1z"></path><path id="pvTQwghbH" d="M3051 1529 c0 -13 4 -44 9 -69 8 -41 9 -39 5 19 -4 60 -16 102 -14 50z"></path><path id="pM0rlh45Y" d="M4443 1473 c-29 -4 -33 -8 -33 -35 0 -31 0 -31 -20 -13 -20 18 -21 18 -48 -8 -16 -15 -33 -27 -40 -27 -7 0 -12 -9 -12 -21 0 -13 -8 -23 -21 -26 -18 -5 -20 -13 -19 -62 3 -121 2 -131 -21 -131 -21 0 -21 -4 -16 -58 4 -32 4 -67 1 -79 -7 -26 -64 -51 -64 -27 0 26 -15 15 -17 -13 -2 -16 -4 -40 -5 -55 -4 -35 -34 -57 -78 -58 -24 -1 -41 -8 -52 -23 -61 -79 -71 -87 -99 -87 -16 0 -29 -4 -29 -10 0 -5 -4 -10 -10 -10 -5 0 -10 6 -10 13 0 16 -116 21 -185 8 -27 -5 -52 -6 -55 -1 -3 4 -14 9 -25 11 -11 3 -21 13 -24 24 -2 11 -20 37 -41 57 l-37 37 -12 -52 c-7 -29 -16 -66 -21 -83 -6 -26 -5 -31 9 -27 9 2 42 -7 74 -21 32 -15 65 -26 75 -27 10 0 12 -3 4 -6 -6 -2 -10 -9 -7 -13 3 -5 -4 -14 -15 -20 -26 -14 -63 -3 -56 16 4 11 -1 10 -20 -3 -20 -13 -30 -14 -44 -6 -13 9 -21 8 -30 0 -10 -9 -11 -9 -6 1 4 6 2 12 -3 12 -6 0 -11 -19 -11 -42 0 -34 -11 -62 -50 -127 -28 -46 -50 -86 -50 -88 0 -10 76 9 90 22 9 8 22 15 30 15 7 0 51 18 97 40 47 22 89 40 94 40 5 0 63 18 129 40 66 22 127 40 135 40 18 0 151 69 318 165 54 30 153 128 163 160 4 11 20 40 37 65 17 25 38 56 47 70 30 44 59 106 89 189 28 77 56 187 49 194 -2 2 3 11 11 20 12 16 8 17 -47 17 -33 0 -66 2 -74 3 -7 2 -28 2 -45 0z m-113 -148 c0 -8 -4 -15 -10 -15 -5 0 -10 7 -10 15 0 8 5 15 10 15 6 0 10 -7 10 -15z"></path><path id="pGdU3k8I0" d="M240 1445 c-1 -16 -4 -24 -7 -17 -8 21 -23 13 -23 -12 0 -13 6 -26 14 -29 7 -3 16 -27 19 -55 3 -28 15 -71 26 -96 12 -25 21 -54 21 -65 0 -11 4 -22 9 -26 5 -3 15 -22 21 -43 42 -134 179 -341 272 -410 61 -47 511 -274 656 -331 94 -37 225 -81 243 -81 5 0 9 39 8 88 0 48 -3 81 -6 74 -4 -10 -9 -9 -20 5 -9 11 -12 12 -8 3 4 -8 -1 -6 -10 5 -13 17 -17 18 -25 5 -7 -12 -11 -10 -18 9 -8 21 -10 22 -24 7 -22 -22 -31 -20 -23 4 5 16 3 19 -11 13 -12 -4 -15 -3 -10 5 4 7 1 12 -8 12 -9 0 -19 12 -22 26 -4 16 -9 21 -14 14 -4 -6 -7 8 -6 32 0 38 -5 49 -42 86 -23 24 -42 50 -42 59 0 18 -39 52 -60 53 -21 0 -40 -20 -40 -42 0 -10 -6 -18 -14 -18 -8 0 -21 -3 -30 -6 -12 -5 -16 0 -16 19 0 19 -12 33 -52 59 -29 19 -60 37 -68 40 -34 13 -100 69 -94 80 5 7 2 9 -8 5 -12 -4 -15 0 -13 18 1 13 -4 26 -11 29 -8 3 -14 10 -14 17 0 6 6 9 14 6 10 -4 12 0 9 14 -5 18 -7 19 -29 4 -34 -22 -49 -19 -79 17 -22 26 -25 37 -19 67 4 20 8 45 9 56 1 15 10 21 34 23 30 3 32 6 26 30 -9 35 -14 40 -25 23 -13 -22 -39 -6 -33 20 6 21 7 21 13 4 5 -15 8 -13 13 14 9 44 7 63 -3 31 l-8 -25 -1 25 c-1 20 -3 22 -11 10 -7 -12 -10 -12 -10 -1 0 7 -6 11 -15 7 -8 -3 -15 -2 -15 2 0 4 -18 6 -39 4 -32 -3 -40 0 -44 15 -5 17 -5 17 -6 -1 -1 -13 -6 -16 -18 -11 -10 4 -28 10 -40 12 -13 3 -23 8 -23 12 0 3 -31 6 -69 6 -38 0 -67 -3 -64 -7 2 -5 -2 -8 -10 -8 -12 0 -21 7 -71 59 -10 11 -22 35 -26 53 l-8 33 -2 -30z m370 -220 c0 -2 -9 -9 -19 -14 -14 -8 -22 -7 -31 4 -11 13 -8 15 19 15 17 0 31 -2 31 -5z m70 -35 c0 -5 -7 -10 -15 -10 -8 0 -15 5 -15 10 0 6 7 10 15 10 8 0 15 -4 15 -10z"></path><path id="pr6iFvw2k" d="M3070 1376 c0 -15 4 -25 9 -22 10 7 9 31 -2 42 -4 4 -7 -5 -7 -20z"></path><path id="pyJXlyeqJ" d="M3054 882 c8 -64 8 -64 28 -57 21 8 43 84 29 98 -8 8 -11 0 -12 -29 l-2 -39 -6 39 c-4 28 -11 40 -25 42 -17 2 -18 -2 -12 -54z"></path><path id="p1EDxlOjmb" d="M3200 925 c10 -12 10 -15 -3 -15 -8 0 -17 6 -20 13 -3 9 -10 7 -23 -6 -16 -15 -17 -21 -6 -49 7 -19 8 -34 2 -38 -5 -3 -5 -11 0 -20 9 -13 10 -13 10 0 1 22 37 94 41 83 2 -5 12 -1 22 9 14 15 14 18 2 18 -8 0 -15 5 -15 10 0 6 -5 10 -11 10 -8 0 -8 -5 1 -15z"></path><path id="pDxfZwlBK" d="M2965 900 c-3 -6 5 -10 19 -10 14 0 28 5 31 10 3 6 -5 10 -19 10 -14 0 -28 -4 -31 -10z"></path><path id="p731isgH1" d="M1967 894 c-4 -4 -7 -14 -7 -23 0 -11 3 -12 11 -4 6 6 10 16 7 23 -2 6 -7 8 -11 4z"></path><path id="p18eFTtSeS" d="M1464 758 c1 -13 -5 -23 -13 -23 -7 0 -17 -10 -22 -22 -9 -25 14 -45 41 -35 11 4 11 0 -3 -16 -14 -15 -15 -22 -6 -28 8 -4 10 -3 5 4 -4 7 -3 12 3 12 17 0 32 -35 20 -47 -7 -7 -5 -12 7 -17 15 -6 16 1 10 86 -6 82 -15 107 -37 108 -3 0 -5 -10 -5 -22z m36 -94 c0 -14 -4 -23 -9 -20 -5 3 -7 15 -4 26 7 28 13 25 13 -6z"></path><path id="pXwBEnhsD" d="M1907 774 c-4 -4 -7 -14 -7 -23 0 -11 3 -12 11 -4 6 6 10 16 7 23 -2 6 -7 8 -11 4z"></path><path id="p14NjkQh1A" d="M1782 564 c-7 -28 -15 -66 -17 -84 -2 -17 -9 -38 -15 -45 -19 -23 -11 -187 11 -223 7 -11 33 -30 58 -42 71 -34 180 -110 207 -144 19 -25 24 -27 21 -11 -1 11 -5 25 -8 30 -4 6 -5 20 -4 33 1 12 -1 22 -5 22 -4 0 -5 13 -2 30 3 18 0 30 -7 30 -6 0 -11 12 -11 27 0 14 -3 23 -6 20 -12 -11 -44 40 -38 58 6 15 4 16 -15 5 -21 -11 -22 -10 -12 8 6 11 8 22 5 25 -3 3 -1 15 6 26 6 12 7 20 2 19 -17 -5 -62 52 -62 78 0 14 -9 39 -21 55 -11 16 -17 29 -12 29 4 0 1 6 -8 13 -8 7 -18 20 -22 30 -4 10 -11 16 -16 12 -5 -3 -11 7 -13 22 -2 23 -5 19 -16 -23z m6 -109 c-6 -14 -13 -23 -16 -21 -7 7 9 46 18 46 5 0 4 -11 -2 -25z"></path><path id="pfp1KpGBs" d="M3140 575 c-1 -5 -1 -18 -1 -28 1 -9 -5 -25 -14 -34 -11 -10 -14 -24 -10 -40 8 -34 -3 -66 -22 -59 -10 4 -7 -4 7 -25 21 -29 23 -29 41 -13 21 19 26 81 8 117 -9 20 -9 20 4 5 8 -10 18 -18 22 -18 4 0 2 7 -5 16 -8 8 -17 32 -21 52 -3 20 -8 33 -9 27z"></path></g></g></svg>

