<svg width="349" height="655" viewBox="0 0 349 655" fill="none" xmlns="http://www.w3.org/2000/svg">
<path d="M200.013 1.02676C198.173 0.835075 196.317 0.835075 194.477 1.02676C191.041 1.28315 187.784 2.66269 185.21 4.95272C182.319 7.98628 180.627 11.9651 180.447 16.1513C180.125 18.3396 179.804 20.5278 179.546 22.5873C178.902 26.7707 178.323 30.8898 177.808 34.8801C176.779 42.9895 175.749 50.777 174.783 58.1784C173.046 72.9812 171.694 86.2394 170.793 97.438C169.055 119.771 169.248 133.608 171.758 133.93C174.268 134.252 178.709 121.058 183.858 99.1757C186.433 88.2345 189.2 75.1051 192.032 60.5597C193.319 53.2227 194.799 45.4995 196.215 37.4545C196.945 33.55 197.653 29.5597 198.339 25.4836C199.729 27.7051 201.233 29.8533 202.844 31.9196C208.83 40.8656 219.9 54.7674 236.054 78.5806C259.185 112.371 278.606 148.558 293.978 186.512C305.008 214.246 313.076 243.068 318.049 272.497C320.748 288.72 322.382 305.103 322.94 321.539C323.336 338.732 322.605 355.931 320.752 373.027C318.643 390.413 315.266 407.622 310.647 424.515C305.907 441.624 299.75 458.308 292.24 474.394C277.439 506.3 257.036 535.292 231.999 559.993C219.969 571.691 207.059 582.449 193.383 592.173C180.383 601.228 166.721 609.295 152.515 616.308C128.267 628.591 102.52 637.656 75.9265 643.275C57.7375 646.859 39.2954 649.01 20.77 649.711C13.8699 649.186 6.93149 649.51 0.110474 650.676C6.74867 652.819 13.667 653.968 20.6413 654.088C39.6779 655.294 58.7882 654.518 77.6642 651.771C105.683 647.521 132.975 639.398 158.758 627.636C173.934 620.829 188.565 612.868 202.522 603.822C217.323 594.066 231.313 583.133 244.356 571.128C271.62 545.71 294.038 515.55 310.518 482.118C318.839 465.285 325.729 447.781 331.114 429.793C336.371 412.009 340.266 393.849 342.763 375.473C347.442 340.325 346.987 304.683 341.411 269.665C336.423 238.812 328.071 208.597 316.504 179.561C300.647 139.924 279.774 102.484 254.397 68.1542C242.748 52.1301 229.835 37.0646 215.781 23.1022L214.172 21.622C244.36 25.2767 274.789 26.5463 305.177 25.4192C331.886 24.4538 348.233 21.4932 348.169 18.9832C348.169 13.8344 282.779 13.1908 204.131 1.47728L200.013 1.02676Z" fill="#ffffff
"/>
</svg>
