<svg width="579" height="223" viewBox="0 0 579 223" fill="none" xmlns="http://www.w3.org/2000/svg">
    <path d="M57.1263 28.8806C69.1314 23.5395 80.2476 19.2505 89.6867 15.7257C108.628 8.6621 120.77 4.54297 120.28 2.01479C119.79 -0.51338 106.547 -0.501383 86.112 3.66175C74.0084 6.13926 62.1088 9.52637 50.5147 13.7941C43.9333 16.2295 37.1555 18.9714 30.2232 22.2088C26.7432 23.7646 23.3675 25.4953 19.8033 27.2673C15.5136 29.3935 11.5413 32.1076 8.00138 35.3313C5.68643 37.5085 3.86423 40.156 2.65736 43.0959C1.86907 45.1383 1.45285 47.3055 1.42827 49.4946C0.957162 50.1981 0.764395 51.0515 0.887649 51.8892C1.0109 52.7268 1.44143 53.4887 2.09521 54.0266C3.46883 58.3945 5.83479 62.3852 9.00777 65.6863C14.2241 71.1292 18.6886 75.5512 23.3343 80.197C32.4309 89.202 40.8388 97.1723 48.2587 103.646C62.7842 116.664 72.8063 123.884 74.8205 122.255C76.8347 120.626 70.5543 110.343 58.6515 95.1672C52.7001 87.5795 45.3621 78.7811 37.0351 69.0798C36.6246 68.6876 36.2451 68.2643 35.9 67.8136C44.9962 70.822 230.856 56.4429 372 101.078C399.318 109.717 416.386 115.636 440.963 126.114C465.341 136.244 488.649 148.78 510.54 163.535C528.045 175.287 544.275 188.836 558.965 203.959C570.067 215.489 576.388 223.259 577.786 222.424C579.184 221.59 575.561 212.304 566.349 198.58C553.823 180.673 538.743 164.696 521.591 151.155C499.942 133.984 476.347 119.42 451.294 107.764C428.389 97.0088 409.283 87.7679 380.655 80.197C211 35.3313 38.2114 45.9549 27.0333 43.6678C30.5285 41.5814 34.9942 39.4134 38.845 37.4466C45.1978 34.2707 51.4035 31.3249 57.4758 28.672"
          fill="currentColor"/>
</svg>
