<svg width="453" height="329" viewBox="0 0 453 329" fill="none" xmlns="http://www.w3.org/2000/svg">
    <path d="M232.557 156.468C270.851 132.268 308.695 110.901 339.652 94.4246L361.277 82.9042L380.07 73.3146C391.591 67.2647 401.438 62.6308 409.547 58.4474L420.874 52.5263C418.236 55.7443 415.597 58.9623 413.216 62.1159C408.531 68.2803 404.232 74.7286 400.344 81.4239C393.663 92.6282 388.204 104.517 384.061 116.886C377.238 137.932 377.238 151.641 379.684 152.091C385.348 153.25 398.091 101.89 444.752 54.0066C448.56 49.8392 451.183 44.7278 452.346 39.2037C452.892 35.6915 452.423 32.0966 450.995 28.8418C449.531 25.7151 447.321 22.9964 444.559 20.9255C440.322 17.887 435.535 15.7011 430.464 14.4895C426.281 13.331 422.677 12.43 418.879 11.4646C403.948 7.86044 390.368 5.0286 378.847 3.4196C355.807 -0.120202 341.197 -0.31329 340.746 2.00367C340.296 4.32063 353.618 9.0189 375.565 15.648L413.795 27.2328C417.206 28.3269 421.067 29.421 424.414 30.5795C417.978 32.7034 410.062 35.7927 399.764 40.4266C391.269 44.1595 381.036 48.5359 369.193 54.3927L349.885 63.8536L327.81 75.4384C296.402 92.2364 258.301 114.505 220.071 139.798C182.001 165.076 145.287 192.338 110.08 221.471C81.9443 244.603 55.0271 269.179 29.4368 295.099C10.1288 314.922 -0.812386 327.923 0.281734 328.888C2.98485 331.205 52.4778 284.544 121.214 233.249C155.454 207.505 194.327 180.603 232.75 156.468"
          fill="currentColor"/>
</svg>
