<svg width="30" height="31" viewBox="0 0 30 31" fill="none" xmlns="http://www.w3.org/2000/svg">
<path d="M18.6735 30.2787L16.4992 30.801C15.8375 30.9052 15.1611 30.9519 14.4694 30.9359C13.777 30.9218 13.0987 30.8477 12.4299 30.7153C9.11766 30.0741 6.16084 28.0628 4.06133 25.2338C3.16245 24.0306 2.42405 22.681 1.87551 21.2272C1.24835 19.5643 0.87435 17.7685 0.804664 15.894C0.734979 14.0221 0.978558 12.2358 1.48553 10.6004C1.92666 9.16518 2.56789 7.84307 3.37854 6.67759C3.50385 6.49666 3.63427 6.32021 3.76661 6.14567C3.8088 6.09261 3.85036 6.04083 3.89191 5.99032C3.98717 5.86693 4.08498 5.74866 4.18472 5.63038C4.21029 5.60033 4.23586 5.56773 4.26143 5.53768C4.29404 5.5006 4.32664 5.46544 4.35669 5.43091C4.40081 5.38233 4.443 5.3331 4.48711 5.28707C4.56383 5.20332 4.64055 5.11957 4.71918 5.03837C4.76138 4.99682 4.80293 4.9527 4.84705 4.90859C4.93783 4.81589 5.03053 4.72702 5.12387 4.63688C5.15647 4.60875 5.18652 4.5787 5.21657 4.54865C5.34188 4.4323 5.46974 4.3185 5.5976 4.20982C5.63021 4.18169 5.66281 4.15611 5.69286 4.13118C5.79259 4.04743 5.89233 3.96368 5.99462 3.88504C6.0432 3.84796 6.08987 3.81088 6.13846 3.7738C6.22669 3.70859 6.31491 3.64146 6.40569 3.57625C6.45684 3.53917 6.5099 3.50209 6.5636 3.46501C6.65439 3.40236 6.74517 3.34226 6.83531 3.28408C6.88646 3.24956 6.93952 3.2144 6.99067 3.18179C7.09296 3.11658 7.19525 3.05393 7.29946 2.99383C7.34165 2.96826 7.38576 2.94269 7.42732 2.91711C7.57372 2.83336 7.72204 2.75217 7.87356 2.67545C7.89657 2.66138 7.91959 2.65243 7.9458 2.63837C8.07111 2.57572 8.20153 2.51306 8.32875 2.45233C8.38181 2.42675 8.43552 2.40374 8.48922 2.38009C8.59151 2.33597 8.69572 2.2893 8.80056 2.24775C8.85874 2.22473 8.91884 2.20108 8.97957 2.1755C9.0793 2.13842 9.18159 2.09878 9.28644 2.0617C9.34462 2.04061 9.40472 2.02015 9.46545 1.99905C9.57669 1.96197 9.68601 1.92681 9.79981 1.89228C9.85096 1.87822 9.90402 1.85968 9.95517 1.84562C10.1201 1.79703 10.2876 1.75291 10.4545 1.71328C11.1795 1.53938 11.9038 1.36485 12.6288 1.19287C12.4613 1.23251 12.2963 1.27662 12.132 1.32521C12.0809 1.33927 12.0272 1.35526 11.9741 1.37188C11.8629 1.40704 11.751 1.44157 11.6417 1.47865C11.5816 1.49974 11.5208 1.5202 11.4607 1.5413C11.3585 1.57838 11.2562 1.61546 11.1539 1.6551C11.0957 1.67811 11.0356 1.70177 10.9749 1.72734C10.87 1.76954 10.7684 1.81365 10.6661 1.85968C10.613 1.8827 10.5593 1.90635 10.5056 1.93192C10.3778 1.9901 10.2499 2.05275 10.1246 2.11541C10.099 2.12947 10.0734 2.14098 10.0479 2.15249C9.89891 2.23112 9.75059 2.31296 9.60418 2.39607C9.56007 2.42164 9.51851 2.44721 9.4744 2.47279C9.37211 2.53352 9.26982 2.59618 9.17009 2.65883L9.00962 2.76304C8.91884 2.82121 8.83061 2.88131 8.73983 2.94396C8.68677 2.98105 8.63306 3.01813 8.57936 3.05776C8.49114 3.12042 8.40291 3.18563 8.31724 3.25276C8.26866 3.28984 8.21751 3.32692 8.16828 3.364C8.07047 3.44327 7.97074 3.52191 7.87548 3.60566C7.84096 3.63379 7.80579 3.65936 7.77319 3.68941C7.64277 3.79873 7.51746 3.91253 7.39471 4.02633C7.36019 4.05894 7.32758 4.09154 7.29242 4.12415C7.20164 4.20982 7.11086 4.29612 7.02519 4.38691C6.97852 4.43102 6.93441 4.47769 6.8903 4.52372C6.81358 4.603 6.73942 4.68163 6.66462 4.76283C6.6205 4.81397 6.57383 4.86256 6.52972 4.91371C6.47154 4.97892 6.41848 5.04349 6.36286 5.10678C6.26313 5.22761 6.16339 5.34844 6.06558 5.46927C6.02402 5.52298 5.98183 5.57412 5.94283 5.62719C5.80794 5.80108 5.67815 5.97817 5.55285 6.1591C4.74476 7.32522 4.10097 8.64669 3.65984 10.08C3.1535 11.7154 2.91184 13.5036 2.98153 15.3762C3.04866 17.2481 3.42266 19.0459 4.05238 20.7094C4.60091 22.1632 5.33932 23.5128 6.23819 24.7141C8.3377 27.5456 11.2945 29.5569 14.6068 30.1981C15.2736 30.3305 15.9538 30.4053 16.6462 30.4187C17.338 30.4296 18.0137 30.3854 18.6735 30.2787Z" fill="#AEAEAE"/>
<path d="M25.5547 12.2665C25.9287 13.4007 26.1531 14.609 26.1985 15.8614C26.2445 17.1145 26.109 18.3164 25.8175 19.4365C25.7734 19.6053 25.7261 19.7721 25.6755 19.9364C25.3361 21.0399 24.8425 22.0571 24.2192 22.9547C24.1246 23.0915 24.0268 23.2257 23.9264 23.3568C22.5736 25.1258 20.701 26.3712 18.5453 26.8257C18.3918 26.8583 18.2365 26.8865 18.0799 26.9108C17.5722 26.9913 17.0512 27.0265 16.518 27.015C15.9867 27.0041 15.4625 26.9472 14.9479 26.8449C14.7893 26.8142 14.632 26.7791 14.4754 26.7401C12.2819 26.1954 10.3154 24.8694 8.82962 23.0416C8.71902 22.9061 8.61098 22.7673 8.50613 22.626C7.81567 21.7003 7.24668 20.6614 6.82537 19.542C6.76208 19.3751 6.70198 19.2057 6.64572 19.035C6.26981 17.9002 6.04605 16.6906 6.00002 15.4382C5.95399 14.1864 6.08952 12.9851 6.38041 11.865C6.42452 11.6956 6.47183 11.5281 6.52298 11.3625C6.86245 10.2591 7.35792 9.24254 7.97933 8.3443C8.07395 8.20685 8.17177 8.07323 8.27278 7.94153C9.62749 6.17253 11.5 4.92522 13.6571 4.47067C13.8105 4.43806 13.9659 4.40993 14.1225 4.38564C14.6301 4.30508 15.1505 4.26992 15.6824 4.28143C16.2156 4.2923 16.7399 4.34919 17.2539 4.45085C17.4124 4.48153 17.5697 4.5167 17.7263 4.5557C19.9185 5.10103 21.887 6.42826 23.3715 8.25671C23.4814 8.39225 23.5888 8.53098 23.6937 8.67163C24.3841 9.59673 24.9531 10.6363 25.3744 11.7551C25.4384 11.9251 25.4985 12.0952 25.5547 12.2665Z" fill="#AEAEAE"/>
<path d="M29.2226 15.9233C29.1529 14.0533 28.7789 12.2511 28.1518 10.5927C27.6058 9.13634 26.8648 7.78674 25.9685 6.5861C23.8664 3.75711 20.9096 1.74326 17.5999 1.09946C16.9312 0.967123 16.2503 0.894878 15.5579 0.881452C14.8655 0.867387 14.1898 0.911501 13.53 1.01635C10.2618 1.52269 7.44886 3.41316 5.55138 6.16095C4.74073 7.32707 4.09949 8.64662 3.65581 10.0819C3.15203 11.7173 2.90781 13.5054 2.9775 15.378C3.04718 17.2499 3.42118 19.0477 4.04835 20.7112C4.59624 22.165 5.33529 23.5146 6.23416 24.7153C8.33367 27.5468 11.2905 29.5562 14.6028 30.1993C15.2715 30.3317 15.9498 30.4058 16.6422 30.4199C17.3346 30.434 18.0103 30.3873 18.672 30.2831C21.9376 29.7793 24.7506 27.8882 26.6481 25.1404C27.4587 23.9743 28.1 22.6554 28.5411 21.222C29.0462 19.5815 29.2923 17.7978 29.2226 15.9233Z" fill="#AEAEAE"/>
<path d="M25.817 19.4358C25.7728 19.6052 25.7243 19.7727 25.675 19.9376C25.3362 21.0411 24.8414 22.0583 24.2187 22.9546C24.1234 23.0914 24.0256 23.2263 23.924 23.3567C22.5724 25.1263 20.6999 26.3717 18.5448 26.8269C18.3913 26.8595 18.236 26.887 18.08 26.9107C17.5711 26.9919 17.0513 27.027 16.5169 27.0155C15.985 27.0059 15.4626 26.9484 14.9467 26.8461C14.7888 26.8161 14.6309 26.7809 14.4755 26.7419C12.2827 26.1985 10.3155 24.8719 8.82911 23.0441C8.71979 22.9092 8.61302 22.7698 8.50626 22.6285C7.81644 21.7041 7.24745 20.6633 6.82678 19.5438C6.76413 19.3763 6.70339 19.2094 6.64586 19.0375C6.27186 17.904 6.04682 16.6937 6.00015 15.4419C5.95348 14.1902 6.09093 12.9889 6.38118 11.8675C6.42529 11.7 6.47388 11.5331 6.52502 11.3656C6.8645 10.2622 7.35869 9.24502 7.98138 8.34869C8.07472 8.21124 8.17446 8.07698 8.27419 7.94464C9.62826 6.17693 11.5008 4.92962 13.6585 4.47442C13.8119 4.44182 13.9673 4.41432 14.1233 4.39067C14.6322 4.30948 15.1519 4.27431 15.6838 4.28582C16.2157 4.29477 16.7406 4.35295 17.254 4.45524C17.4145 4.48529 17.5698 4.52045 17.7277 4.56009C18.8241 4.8318 19.8643 5.30106 20.8143 5.92823C21.7669 6.55796 22.6306 7.34496 23.3716 8.26047C23.4809 8.39728 23.5896 8.53474 23.6944 8.67602C24.3843 9.60048 24.9532 10.6413 25.3739 11.7582C25.4366 11.9276 25.4973 12.0977 25.5548 12.269C25.9288 13.4025 26.152 14.6102 26.198 15.8626C26.244 17.115 26.1072 18.3157 25.817 19.4358Z" fill="#AEAEAE"/>
<path d="M15.7259 5.43841C16.2041 5.44864 16.6759 5.49979 17.1388 5.58993C19.4269 6.03426 21.4714 7.42542 22.9239 9.38173C23.5428 10.2122 24.0549 11.1463 24.4327 12.1525C24.8661 13.3008 25.1257 14.5455 25.173 15.8395C25.2203 17.1335 25.0522 18.3686 24.7025 19.5009C24.3975 20.4925 23.9538 21.4067 23.3951 22.2129C22.0819 24.1116 20.1384 25.4178 17.8797 25.7668C17.4233 25.8384 16.954 25.8698 16.4758 25.8602C15.9976 25.8506 15.5277 25.7988 15.0655 25.7087C12.7754 25.2643 10.7328 23.8751 9.28031 21.9188C8.65954 21.0883 8.14808 20.1536 7.76961 19.148C7.33488 17.9998 7.07532 16.755 7.02737 15.461C6.98006 14.167 7.1482 12.9319 7.4979 11.7996C7.80286 10.8074 8.24846 9.89383 8.80722 9.08765C10.1204 7.18887 12.0639 5.88082 14.3245 5.53175C14.7803 5.45951 15.2477 5.42818 15.7259 5.43841Z" fill="white"/>
<path d="M7.91819 9.0069C7.85234 9.11366 7.87792 9.26582 7.97893 9.34637C8.01857 9.37834 8.06332 9.39496 8.10743 9.3956C8.17392 9.39688 8.23785 9.36363 8.27749 9.29842C8.36827 9.1533 8.46225 9.00754 8.5607 8.86625C8.85351 8.44302 9.17764 8.04664 9.52799 7.68478C9.61301 7.59528 9.61493 7.44184 9.53182 7.34019C9.48707 7.28713 9.42697 7.25964 9.36752 7.25836C9.31573 7.25708 9.26459 7.2769 9.22495 7.31718C8.85926 7.69757 8.52043 8.11185 8.21356 8.55362C8.11191 8.70194 8.01217 8.85346 7.91819 9.0069Z" fill="white"/>
<path d="M22.9684 23.9899C23.0534 23.9023 23.0553 23.7489 22.9722 23.6472C22.9281 23.5935 22.8687 23.5648 22.8098 23.5635C22.7581 23.5629 22.7069 23.5827 22.6673 23.6242C22.1999 24.1063 21.6847 24.5314 21.1297 24.8894C21.0287 24.954 20.9993 25.1023 21.0626 25.22C21.1061 25.2992 21.1815 25.344 21.2557 25.3453C21.2921 25.3459 21.3286 25.3363 21.3612 25.3152C21.9429 24.9393 22.4819 24.4937 22.9684 23.9899Z" fill="white"/>
<path d="M11.8455 25.0338C11.9005 24.9187 11.8596 24.7678 11.7541 24.6994C11.1723 24.3184 10.6244 23.8708 10.1213 23.3683C10.0785 23.3261 10.0267 23.3044 9.97489 23.3038C9.91544 23.3025 9.85726 23.3281 9.8157 23.3805C9.74027 23.4789 9.75305 23.6324 9.84511 23.7238C10.3713 24.2493 10.9435 24.716 11.554 25.1169C11.5892 25.1392 11.6262 25.1507 11.6627 25.1514C11.7362 25.1527 11.8072 25.1105 11.8455 25.0338Z" fill="white"/>
<path d="M8.71265 22.0426C8.80599 21.9653 8.82006 21.8144 8.74653 21.7032C8.34121 21.1035 7.98703 20.4591 7.69294 19.7756C7.65395 19.6842 7.57275 19.6279 7.48964 19.626C7.46087 19.6254 7.43146 19.6318 7.40397 19.6452C7.29721 19.6989 7.2531 19.8415 7.30488 19.9649C7.61303 20.679 7.98319 21.3554 8.4077 21.9845C8.45245 22.0503 8.5183 22.0855 8.58543 22.0868C8.63018 22.0874 8.67493 22.0733 8.71265 22.0426Z" fill="white"/>
<path d="M25.2301 20.3275C25.2736 20.206 25.2205 20.0615 25.1093 20.0034C25.0805 19.9887 25.0511 19.9816 25.0217 19.981C24.9386 19.9797 24.8612 20.0321 24.8273 20.1223C24.5844 20.7942 24.2794 21.4265 23.9176 22.0108C23.8511 22.1176 23.8773 22.2691 23.9764 22.3522C24.0161 22.3842 24.0614 22.4002 24.1049 22.4008C24.172 22.4021 24.2366 22.3688 24.2769 22.3043C24.6573 21.6918 24.9757 21.0301 25.2301 20.3275Z" fill="white"/>
<path d="M10.83 5.99159C10.731 6.05617 10.7015 6.20449 10.7648 6.32212C10.8083 6.40076 10.8818 6.44551 10.9554 6.44679C10.9924 6.44743 11.0295 6.4372 11.0634 6.41546C11.6132 6.06128 12.1995 5.77103 12.8183 5.55302C12.9308 5.51211 12.9871 5.37593 12.9455 5.24871C12.9123 5.14514 12.8253 5.07865 12.7352 5.07673C12.7128 5.07609 12.6904 5.07993 12.6687 5.0876C12.0204 5.3152 11.4048 5.62015 10.83 5.99159Z" fill="white"/>
<path d="M18.465 5.35459C18.433 5.48054 18.5008 5.61863 18.6145 5.66274C19.2519 5.9044 19.8631 6.21767 20.4392 6.59487C20.4737 6.61724 20.5114 6.62875 20.5485 6.62939C20.6233 6.63131 20.6949 6.58911 20.7313 6.51176C20.7863 6.39668 20.7454 6.24644 20.6399 6.17803C20.037 5.78357 19.3984 5.45496 18.7309 5.20243C18.7085 5.19412 18.6855 5.18965 18.6638 5.18901C18.5711 5.18709 18.4892 5.25166 18.465 5.35459Z" fill="white"/>
<path d="M24.6 11.1956C24.4932 11.2474 24.4504 11.3919 24.5028 11.5153C24.5776 11.6847 24.6479 11.8586 24.7138 12.0344C24.9075 12.5465 25.0673 13.0771 25.1907 13.6237C25.2156 13.7382 25.3083 13.8175 25.4094 13.82C25.4241 13.8207 25.4394 13.8194 25.4541 13.8162C25.5692 13.7893 25.6382 13.6621 25.6095 13.531C25.4797 12.9595 25.3122 12.4039 25.1095 11.8688C25.0417 11.6847 24.9669 11.5044 24.8902 11.3248C24.8519 11.234 24.7707 11.1777 24.6876 11.1764C24.6582 11.1752 24.6281 11.1815 24.6 11.1956Z" fill="white"/>
<path d="M6.41596 13.1658C6.39678 13.2981 6.47542 13.4286 6.59433 13.458C6.60904 13.4618 6.62438 13.4637 6.63845 13.4644C6.73818 13.4663 6.82512 13.3902 6.84175 13.2764C6.92678 12.7221 7.04888 12.187 7.2068 11.6717C7.25794 11.5087 7.311 11.3482 7.3679 11.1897C7.41138 11.0682 7.35831 10.9237 7.24707 10.8675C7.21766 10.8521 7.18698 10.8444 7.15757 10.8438C7.07446 10.8419 6.99774 10.8949 6.96577 10.9845C6.9076 11.1513 6.8507 11.3182 6.79763 11.4876C6.63205 12.0265 6.50355 12.5885 6.41596 13.1658Z" fill="white"/>
<path d="M15.7142 26.3995C15.7225 26.2665 15.6311 26.1444 15.5128 26.1297C15.3517 26.1073 15.1899 26.0792 15.0307 26.0491C14.5346 25.952 14.0481 25.8126 13.5769 25.6329C13.5552 25.6246 13.5328 25.6208 13.5117 25.6202C13.4203 25.6182 13.3378 25.6809 13.3116 25.7845C13.2797 25.9104 13.3474 26.0485 13.4612 26.0926C13.9548 26.2793 14.4618 26.427 14.9822 26.5267C15.1497 26.5593 15.3165 26.5881 15.4866 26.6117C15.4936 26.6124 15.5006 26.613 15.507 26.6137C15.6164 26.6156 15.7084 26.5261 15.7142 26.3995Z" fill="white"/>
<path d="M25.7828 18.1456C25.896 17.4072 25.9394 16.6419 25.9107 15.8549L25.91 15.83C25.9049 15.6944 25.8052 15.5851 25.685 15.5826C25.5655 15.58 25.4734 15.688 25.4779 15.821L25.4791 15.846C25.5066 16.5978 25.4638 17.3317 25.3564 18.035C25.3372 18.1673 25.4159 18.2971 25.5328 18.3272C25.5482 18.331 25.5629 18.3329 25.5776 18.3329C25.6792 18.3355 25.7662 18.2594 25.7828 18.1456Z" fill="white"/>
<path d="M6.85347 17.9502C6.96855 17.9233 7.0376 17.7961 7.00883 17.665C6.84836 16.9541 6.75118 16.2195 6.72177 15.4658C6.71666 15.3341 6.61885 15.2228 6.50057 15.2203C6.3791 15.2177 6.28512 15.3238 6.29024 15.4587C6.32093 16.2457 6.42322 17.0142 6.59072 17.7584C6.61565 17.8728 6.70835 17.9527 6.80936 17.9546C6.82343 17.9546 6.83813 17.9533 6.85347 17.9502Z" fill="white"/>
<path d="M14.6554 4.64847C14.5377 4.66062 14.4552 4.77697 14.4731 4.91251C14.4898 5.03654 14.5876 5.1318 14.6963 5.13435C14.7039 5.13435 14.7116 5.13435 14.7193 5.13371C15.0466 5.10111 15.3759 5.08704 15.7134 5.09408C16.0382 5.10111 16.3617 5.12604 16.6788 5.1708C16.6871 5.17143 16.6948 5.17207 16.7024 5.17271C16.8124 5.17527 16.9013 5.08385 16.9089 4.9579C16.9153 4.82492 16.8258 4.70473 16.7056 4.68811C16.3738 4.644 16.0356 4.61587 15.6962 4.60883C15.3433 4.60052 14.9967 4.61395 14.6554 4.64847Z" fill="white"/>
<path d="M23.4483 9.58584C23.3531 9.44711 23.254 9.30774 23.153 9.17284C22.8212 8.72596 22.4593 8.3072 22.0725 7.92169C21.9805 7.83027 21.9677 7.67684 22.0438 7.57838C22.084 7.52596 22.1422 7.49974 22.201 7.50102C22.2522 7.5023 22.3046 7.5234 22.3474 7.56623C22.7534 7.969 23.1306 8.4063 23.4777 8.87236C23.5826 9.01365 23.6855 9.15878 23.7853 9.30582C23.8613 9.41578 23.8447 9.56858 23.752 9.64594C23.7149 9.67663 23.6708 9.69069 23.6267 9.69005C23.5596 9.68877 23.4931 9.65297 23.4483 9.58584Z" fill="white"/>
<path d="M19.4399 25.7403C19.5313 25.7422 19.6176 25.8087 19.6515 25.9123C19.6931 26.0401 19.6355 26.1757 19.5243 26.2147C19.0416 26.3854 18.5391 26.5094 18.0225 26.59C17.8627 26.6155 17.6997 26.6373 17.536 26.6526C17.5284 26.6533 17.5207 26.6539 17.513 26.6533C17.4043 26.6507 17.3065 26.5561 17.2905 26.4314C17.2726 26.2959 17.3551 26.1795 17.4727 26.1674C17.6306 26.152 17.7847 26.1322 17.9388 26.1086C18.4336 26.0318 18.9125 25.911 19.3734 25.7505C19.3951 25.7435 19.4175 25.7397 19.4399 25.7403Z" fill="white"/>
<path d="M25.377 11.7579C24.9557 10.6384 24.3867 9.59954 23.6962 8.67444C23.5914 8.53315 23.484 8.39506 23.374 8.25952L25.9709 6.58643C26.8666 7.78771 27.6082 9.13795 28.1535 10.5937L25.5566 12.2674C25.4997 12.0961 25.4403 11.926 25.377 11.7579Z" fill="white"/>
<path d="M25.6759 19.937C25.7264 19.7727 25.7737 19.6058 25.8178 19.437L28.5426 21.2213C28.1028 22.6547 27.4596 23.9755 26.6509 25.1417L23.9268 23.3573C24.0271 23.2263 24.1249 23.092 24.2196 22.9552C24.8429 22.0576 25.3364 21.0404 25.6759 19.937Z" fill="white"/>
<path d="M6.52586 11.3652C6.47472 11.5308 6.42741 11.6983 6.3833 11.8677L3.65918 10.0834C4.10095 8.64808 4.74346 7.32725 5.55283 6.16113L8.27567 7.94483C8.17529 8.07589 8.07748 8.21015 7.98286 8.3476C7.36081 9.24521 6.86534 10.2624 6.52586 11.3652Z" fill="white"/>
<path d="M13.5312 1.01671C14.191 0.911863 14.8661 0.868389 15.5585 0.882454C16.2509 0.896519 16.9318 0.968762 17.6005 1.1011L17.7277 4.55854C17.5711 4.51954 17.4138 4.48502 17.2553 4.45369C16.7406 4.3514 16.217 4.29514 15.6838 4.28427C15.1525 4.2734 14.6315 4.30792 14.1239 4.38848C13.9673 4.41277 13.8125 4.4409 13.6585 4.47351L13.5312 1.01671Z" fill="white"/>
<path d="M18.6735 30.2847L16.4973 30.8058C15.8375 30.9106 15.1605 30.9567 14.4688 30.942C13.7764 30.9279 13.0968 30.8531 12.4287 30.7208L14.6049 30.1997C15.2737 30.332 15.9532 30.4068 16.645 30.4209C17.3361 30.435 18.0131 30.3896 18.6735 30.2847Z" fill="white"/>
<mask id="mask0_508_2709" style="mask-type:luminance" maskUnits="userSpaceOnUse" x="12" y="30" width="7" height="1">
<path d="M18.6745 30.2847L16.4983 30.8058C15.8385 30.9106 15.1615 30.9567 14.4697 30.942C13.7774 30.9279 13.0978 30.8531 12.4297 30.7208L14.6059 30.1997C15.2746 30.332 15.9542 30.4068 16.646 30.4209C17.3371 30.435 18.0141 30.3896 18.6745 30.2847Z" fill="white"/>
</mask>
<g mask="url(#mask0_508_2709)">
<path d="M18.6745 30.2847L16.4983 30.8058C15.8385 30.9106 15.1615 30.9567 14.4697 30.942C13.7774 30.9279 13.0978 30.8531 12.4297 30.7208L14.6059 30.1997C15.2746 30.332 15.9542 30.4068 16.646 30.4209C17.3371 30.435 18.0141 30.3896 18.6745 30.2847Z" fill="white"/>
</g>
<path d="M16.5195 27.0165C17.0527 27.0273 17.5731 26.9928 18.0814 26.9122C18.238 26.888 18.3927 26.8598 18.5468 26.8272L18.674 30.2847C18.0136 30.3895 17.3372 30.4355 16.6448 30.4208C15.9531 30.4068 15.2735 30.332 14.6048 30.1996L14.4775 26.7422C14.6335 26.7812 14.7914 26.8157 14.95 26.847C15.464 26.9487 15.9876 27.0056 16.5195 27.0165Z" fill="white"/>
<mask id="mask1_508_2709" style="mask-type:luminance" maskUnits="userSpaceOnUse" x="1" y="6" width="5" height="5">
<path d="M3.65801 10.0838L1.48242 10.6049C1.92355 9.16962 2.5667 7.84878 3.37607 6.68267L5.55166 6.16162C4.74228 7.3271 4.09913 8.64857 3.65801 10.0838Z" fill="white"/>
</mask>
<g mask="url(#mask1_508_2709)">
<path d="M3.65801 10.0838L1.48242 10.6049C1.92355 9.16962 2.5667 7.84878 3.37607 6.68267L5.55166 6.16162C4.74228 7.3271 4.09913 8.64857 3.65801 10.0838Z" fill="white"/>
</g>
<path d="M6.82668 19.5449C7.24799 20.6644 7.81698 21.7033 8.50744 22.629C8.61229 22.7703 8.72033 22.9084 8.83093 23.0445L6.23532 24.717C5.33772 23.5157 4.59803 22.1655 4.05078 20.7123L6.64767 19.0386C6.70393 19.2086 6.76339 19.3774 6.82668 19.5449Z" fill="white"/>
<path d="M6.23674 24.7166L4.06051 25.2377C3.16228 24.0357 2.42323 22.6861 1.87598 21.2323L4.0522 20.7119C4.59945 22.1651 5.3385 23.5153 6.23674 24.7166Z" fill="white"/>
<mask id="mask2_508_2709" style="mask-type:luminance" maskUnits="userSpaceOnUse" x="1" y="20" width="6" height="6">
<path d="M6.23576 24.7161L4.05954 25.2372C3.1613 24.0352 2.42225 22.6856 1.875 21.2318L4.05122 20.7114C4.59848 22.1646 5.33752 23.5148 6.23576 24.7161Z" fill="white"/>
</mask>
<g mask="url(#mask2_508_2709)">
<path d="M6.23576 24.7161L4.05954 25.2372C3.1613 24.0352 2.42225 22.6856 1.875 21.2318L4.05122 20.7114C4.59848 22.1646 5.33752 23.5148 6.23576 24.7161Z" fill="white"/>
</g>
<path d="M13.5315 1.01611C13.5315 1.01611 13.3793 1.04744 13.0936 1.10562C12.8084 1.16507 12.3948 1.26992 11.8795 1.43806C11.3668 1.61196 10.7517 1.85106 10.0869 2.20652C9.42261 2.56135 8.71042 3.03061 8.0027 3.62645C7.29753 4.22358 6.59685 4.94792 5.97032 5.80077C5.8936 5.90818 5.81688 6.01687 5.73889 6.12619L5.68071 6.20802L5.666 6.22848L5.65514 6.24574L5.62829 6.28922L5.5196 6.46311C5.37576 6.69582 5.22488 6.92981 5.08167 7.16956C4.95381 7.41442 4.82403 7.66119 4.69361 7.91117C4.62456 8.03392 4.56511 8.16242 4.51076 8.29476C4.45386 8.42582 4.39697 8.55752 4.33943 8.68986C4.28189 8.8222 4.22499 8.95454 4.16681 9.08815C4.11886 9.22561 4.07156 9.36306 4.02361 9.50179C3.97566 9.63989 3.92771 9.77862 3.87912 9.91799L3.80624 10.127L3.7519 10.338C3.6771 10.6283 3.60102 10.9198 3.52558 11.2139C3.48211 11.3603 3.46165 11.508 3.43672 11.6557L3.36128 12.1C3.23725 12.6888 3.21999 13.3038 3.16053 13.9125C3.14583 14.2181 3.15606 14.5256 3.15286 14.8324L3.15222 15.2934C3.15094 15.4328 3.17396 15.599 3.18355 15.7505L3.25323 16.6794C3.28967 16.985 3.34529 17.2836 3.39005 17.586L3.46101 18.0373C3.4885 18.1869 3.5307 18.3346 3.56458 18.4829C3.63618 18.7796 3.70715 19.075 3.77875 19.3697C3.87273 19.6574 3.96607 19.9444 4.05877 20.2296L4.19686 20.6515C4.2544 20.7909 4.31194 20.9296 4.36948 21.0684C4.48903 21.342 4.58684 21.6284 4.72174 21.886C4.85152 22.1469 4.98066 22.4064 5.10852 22.6635C5.2447 22.9166 5.39749 23.1602 5.53878 23.4051C5.67623 23.6538 5.83606 23.8846 5.99333 24.1134C6.07133 24.2285 6.14869 24.3429 6.22604 24.4561L6.34176 24.6262L6.46643 24.7841C6.63648 24.9989 6.80462 25.2105 6.97084 25.4202C7.13067 25.6363 7.31288 25.821 7.48869 26.0077C7.6645 26.1944 7.83775 26.3785 8.00781 26.5595C8.18746 26.7314 8.37478 26.89 8.55315 27.0517C8.73535 27.2084 8.90221 27.3772 9.08825 27.5159C9.27429 27.654 9.45586 27.7895 9.63359 27.9212C9.81387 28.0491 9.97818 28.1929 10.1629 28.2965C10.5242 28.5145 10.8579 28.7389 11.1884 28.9186C11.5266 29.0854 11.8431 29.242 12.1352 29.3865C12.4338 29.5176 12.7196 29.6122 12.9714 29.7113C13.0987 29.7593 13.2182 29.8046 13.3314 29.8475C13.4445 29.8903 13.5564 29.9121 13.6568 29.9421C13.8601 29.9971 14.0333 30.0444 14.174 30.0821C14.4553 30.1582 14.6055 30.1991 14.6055 30.1991C14.6055 30.1991 14.454 30.1646 14.1702 30.1007C14.0282 30.0687 13.8524 30.0284 13.6459 29.9824C13.5436 29.9562 13.4298 29.9402 13.3148 29.9012C13.1997 29.8622 13.0782 29.82 12.9491 29.7759C12.6927 29.6845 12.4018 29.5981 12.0969 29.4754C11.7977 29.3386 11.4735 29.1915 11.1277 29.0336C10.7882 28.8629 10.4442 28.6475 10.0715 28.4378C9.88036 28.3393 9.71286 28.1961 9.52746 28.0702C9.34462 27.9398 9.15794 27.8061 8.96678 27.6693C8.77563 27.5325 8.60365 27.365 8.41569 27.2097C8.23157 27.0492 8.0385 26.8913 7.85246 26.7199C7.67473 26.5384 7.4938 26.3536 7.31032 26.1663C7.1262 25.979 6.93504 25.791 6.7733 25.58C6.60324 25.3742 6.43126 25.1651 6.25673 24.9541L6.12247 24.7905L6.00164 24.6198C5.92109 24.506 5.8399 24.3909 5.75807 24.2758C5.67623 24.1601 5.5944 24.0444 5.51129 23.9274C5.42946 23.8104 5.36169 23.6832 5.28561 23.5604C5.13985 23.3111 4.98322 23.0656 4.84193 22.8067C4.70895 22.5433 4.5747 22.2773 4.43916 22.0094C4.29851 21.7428 4.20198 21.4641 4.07987 21.1892C4.02169 21.0511 3.96351 20.9124 3.90469 20.7736C3.85547 20.6279 3.80624 20.4815 3.75701 20.3344C3.66048 20.0442 3.5633 19.752 3.46549 19.4592C3.39133 19.1593 3.31653 18.8589 3.24109 18.5571C3.20528 18.4056 3.16181 18.256 3.13304 18.1026L3.05696 17.6378C3.00902 17.3277 2.94956 17.0163 2.9112 16.7063L2.8364 15.7774C2.82745 15.6188 2.80699 15.4756 2.80763 15.3043L2.81083 14.8337C2.81594 14.5204 2.80827 14.2065 2.82489 13.8946C2.88946 13.2725 2.9112 12.6498 3.0429 12.0393L3.12409 11.5815C3.15094 11.4293 3.1746 11.2759 3.21807 11.1314C3.29607 10.8386 3.37342 10.5471 3.45014 10.2575L3.5096 10.0343L3.58504 9.82145C3.6349 9.67952 3.68541 9.53823 3.73464 9.39694C3.7845 9.25629 3.83437 9.11565 3.8836 8.97564C3.94305 8.8401 4.00251 8.70456 4.06197 8.56967C4.12142 8.43541 4.18024 8.30115 4.23969 8.16754C4.29595 8.03328 4.35733 7.90158 4.43021 7.77499C4.56894 7.51927 4.70575 7.26673 4.84129 7.01612C4.99025 6.77766 5.14432 6.54814 5.29328 6.31735L5.40516 6.14601L5.43329 6.10318L5.45056 6.07824L5.4659 6.05778L5.52663 5.97531C5.60783 5.86535 5.68838 5.75666 5.76893 5.64798C6.42423 4.79129 7.15177 4.06822 7.87931 3.47493C8.60749 2.88037 9.34589 2.42773 10.0287 2.09081C10.7121 1.75261 11.3393 1.5314 11.8603 1.37221C12.1224 1.29805 12.3564 1.22965 12.5648 1.19001C12.772 1.14526 12.9471 1.10434 13.0916 1.08516C13.378 1.04041 13.5315 1.01611 13.5315 1.01611Z" fill="white"/>
<path d="M15.4469 20.0584V13.2703L14.4316 13.5029V11.6553L16.9889 11.1079V20.0584H15.4469Z" fill="#4B4B4B"/>
</svg>
