<svg width="30" height="31" viewBox="0 0 30 31" fill="none" xmlns="http://www.w3.org/2000/svg">
<path d="M18.5456 30.2792L16.3713 30.8015C15.7096 30.9057 15.0332 30.9524 14.3414 30.9364C13.6491 30.9223 12.9707 30.8482 12.302 30.7158C8.98973 30.0746 6.03291 28.0633 3.9334 25.2343C3.03452 24.0311 2.29612 22.6815 1.74759 21.2277C1.12042 19.5648 0.74642 17.769 0.676735 15.8945C0.607049 14.0226 0.850628 12.2363 1.3576 10.6009C1.79873 9.16566 2.43996 7.84355 3.25061 6.67808C3.37592 6.49715 3.50634 6.3207 3.63868 6.14616C3.68087 6.0931 3.72243 6.04131 3.76398 5.99081C3.85924 5.86742 3.95706 5.74914 4.05679 5.63087C4.08236 5.60082 4.10793 5.56822 4.13351 5.53817C4.16611 5.50109 4.19872 5.46593 4.22876 5.4314C4.27288 5.38282 4.31507 5.33359 4.35918 5.28756C4.4359 5.20381 4.51262 5.12006 4.59125 5.03886C4.63345 4.99731 4.675 4.95319 4.71912 4.90908C4.8099 4.81638 4.9026 4.72751 4.99594 4.63737C5.02855 4.60924 5.05859 4.57919 5.08864 4.54914C5.21395 4.43279 5.34181 4.31899 5.46967 4.2103C5.50228 4.18217 5.53488 4.1566 5.56493 4.13167C5.66466 4.04792 5.7644 3.96417 5.86669 3.88553C5.91527 3.84845 5.96194 3.81137 6.01053 3.77429C6.09876 3.70908 6.18698 3.64195 6.27776 3.57674C6.32891 3.53966 6.38197 3.50258 6.43567 3.4655C6.52646 3.40284 6.61724 3.34275 6.70738 3.28457C6.75853 3.25005 6.81159 3.21489 6.86274 3.18228C6.96503 3.11707 7.06732 3.05442 7.17153 2.99432C7.21372 2.96875 7.25783 2.94317 7.29939 2.9176C7.44579 2.83385 7.59411 2.75266 7.74563 2.67594C7.76864 2.66187 7.79166 2.65292 7.81787 2.63886C7.94318 2.5762 8.0736 2.51355 8.20082 2.45282C8.25389 2.42724 8.30759 2.40423 8.36129 2.38057C8.46358 2.33646 8.56779 2.28979 8.67264 2.24823C8.73081 2.22522 8.79091 2.20156 8.85164 2.17599C8.95138 2.13891 9.05367 2.09927 9.15851 2.06219C9.21669 2.04109 9.27679 2.02064 9.33752 1.99954C9.44876 1.96246 9.55808 1.9273 9.67188 1.89277C9.72303 1.87871 9.77609 1.86017 9.82724 1.8461C9.99218 1.79752 10.1597 1.7534 10.3265 1.71376C11.0515 1.53987 11.7759 1.36534 12.5008 1.19336C12.3333 1.233 12.1684 1.27711 12.0041 1.3257C11.953 1.33976 11.8993 1.35575 11.8462 1.37237C11.7349 1.40753 11.6231 1.44205 11.5137 1.47913C11.4537 1.50023 11.3929 1.52069 11.3328 1.54179C11.2305 1.57887 11.1282 1.61595 11.0259 1.65559C10.9678 1.6786 10.9077 1.70226 10.8469 1.72783C10.7421 1.77002 10.6404 1.81414 10.5382 1.86017C10.4851 1.88318 10.4314 1.90684 10.3777 1.93241C10.2498 1.99059 10.122 2.05324 9.99665 2.11589C9.97108 2.12996 9.94551 2.14147 9.91994 2.15298C9.77098 2.23161 9.62266 2.31345 9.47625 2.39656C9.43214 2.42213 9.39059 2.4477 9.34647 2.47328C9.24418 2.53401 9.14189 2.59666 9.04216 2.65932L8.88169 2.76353C8.79091 2.8217 8.70268 2.8818 8.6119 2.94445C8.55884 2.98153 8.50513 3.01861 8.45143 3.05825C8.36321 3.12091 8.27498 3.18612 8.18931 3.25325C8.14073 3.29033 8.08958 3.32741 8.04035 3.36449C7.94254 3.44376 7.84281 3.5224 7.74755 3.60615C7.71303 3.63428 7.67786 3.65985 7.64526 3.6899C7.51484 3.79922 7.38953 3.91302 7.26678 4.02682C7.23226 4.05943 7.19965 4.09203 7.16449 4.12464C7.07371 4.2103 6.98293 4.29661 6.89726 4.3874C6.85059 4.43151 6.80648 4.47818 6.76237 4.52421C6.68565 4.60349 6.61149 4.68212 6.53669 4.76332C6.49257 4.81446 6.4459 4.86305 6.40179 4.9142C6.34361 4.97941 6.29055 5.04398 6.23493 5.10727C6.1352 5.2281 6.03546 5.34893 5.93765 5.46976C5.89609 5.52347 5.8539 5.57461 5.8149 5.62767C5.68001 5.80157 5.55023 5.97866 5.42492 6.15959C4.61683 7.32571 3.97304 8.64718 3.53191 10.0805C3.02557 11.7159 2.78391 13.5041 2.8536 15.3766C2.92073 17.2486 3.29473 19.0463 3.92445 20.7098C4.47298 22.1637 5.21139 23.5133 6.11026 24.7145C8.20977 27.5461 11.1666 29.5574 14.4789 30.1986C15.1457 30.331 15.8259 30.4058 16.5183 30.4192C17.21 30.4301 17.8858 30.3859 18.5456 30.2792Z" fill="#048ABF"/>
<path d="M25.4268 12.267C25.8008 13.4012 26.0252 14.6095 26.0706 15.8619C26.1166 17.115 25.9811 18.3169 25.6895 19.437C25.6454 19.6058 25.5981 19.7726 25.5476 19.9369C25.2081 21.0404 24.7146 22.0575 24.0913 22.9551C23.9966 23.092 23.8988 23.2262 23.7985 23.3573C22.4457 25.1263 20.5731 26.3717 18.4173 26.8262C18.2639 26.8588 18.1086 26.887 17.9519 26.9112C17.4443 26.9918 16.9233 27.027 16.3901 27.0155C15.8588 27.0046 15.3346 26.9477 14.8199 26.8454C14.6614 26.8147 14.5041 26.7796 14.3475 26.7406C12.154 26.1959 10.1875 24.8699 8.70169 23.0421C8.59109 22.9066 8.48305 22.7678 8.3782 22.6265C7.68774 21.7008 7.11875 20.6619 6.69744 19.5425C6.63415 19.3756 6.57405 19.2062 6.51779 19.0355C6.14188 17.9007 5.91812 16.6911 5.87209 15.4387C5.82606 14.1869 5.96159 12.9856 6.25248 11.8655C6.29659 11.6961 6.3439 11.5286 6.39505 11.363C6.73452 10.2595 7.22999 9.24303 7.8514 8.34479C7.94602 8.20733 8.04384 8.07372 8.14485 7.94202C9.49956 6.17302 11.3721 4.92571 13.5292 4.47115C13.6826 4.43855 13.8379 4.41042 13.9946 4.38613C14.5022 4.30557 15.0226 4.27041 15.5545 4.28192C16.0877 4.29278 16.6119 4.34968 17.1259 4.45133C17.2845 4.48202 17.4418 4.51719 17.5984 4.55618C19.7906 5.10152 21.759 6.42875 23.2435 8.2572C23.3535 8.39274 23.4609 8.53147 23.5657 8.67212C24.2562 9.59721 24.8252 10.6367 25.2465 11.7556C25.3104 11.9256 25.3705 12.0957 25.4268 12.267Z" fill="#048ABF"/>
<path d="M29.0957 15.9238C29.026 14.0538 28.652 12.2516 28.0248 10.5932C27.4788 9.13683 26.7379 7.78722 25.8416 6.58658C23.7395 3.7576 20.7827 1.74374 17.4729 1.09995C16.8042 0.967611 16.1233 0.895366 15.431 0.88194C14.7386 0.867875 14.0628 0.91199 13.4031 1.01684C10.1349 1.52318 7.32191 3.41365 5.42442 6.16144C4.61377 7.32756 3.97254 8.64711 3.52886 10.0824C3.02508 11.7178 2.78086 13.5059 2.85054 15.3785C2.92023 17.2504 3.29423 19.0482 3.9214 20.7117C4.46929 22.1655 5.20833 23.5151 6.10721 24.7158C8.20672 27.5473 11.1635 29.5567 14.4758 30.1998C15.1446 30.3322 15.8229 30.4063 16.5152 30.4204C17.2076 30.4345 17.8834 30.3878 18.5451 30.2836C21.8107 29.7798 24.6237 27.8887 26.5211 25.1409C27.3318 23.9748 27.973 22.6559 28.4142 21.2225C28.9192 19.582 29.1653 17.7983 29.0957 15.9238Z" fill="#048ABF"/>
<path d="M25.689 19.4363C25.6449 19.6057 25.5963 19.7732 25.5471 19.9381C25.2083 21.0416 24.7134 22.0587 24.0907 22.9551C23.9955 23.0919 23.8977 23.2268 23.796 23.3572C22.4445 25.1268 20.572 26.3722 18.4168 26.8274C18.2634 26.86 18.108 26.8875 17.9521 26.9112C17.4432 26.9924 16.9234 27.0275 16.3889 27.016C15.857 27.0064 15.3347 26.9489 14.8188 26.8466C14.6609 26.8166 14.503 26.7814 14.3476 26.7424C12.1548 26.199 10.1876 24.8724 8.70118 23.0446C8.59186 22.9097 8.48509 22.7703 8.37833 22.629C7.68851 21.7046 7.11952 20.6637 6.69885 19.5443C6.6362 19.3768 6.57546 19.2099 6.51793 19.038C6.14393 17.9044 5.91889 16.6942 5.87222 15.4424C5.82555 14.1906 5.963 12.9894 6.25325 11.868C6.29736 11.7005 6.34595 11.5336 6.39709 11.3661C6.73657 10.2627 7.23076 9.24551 7.85345 8.34918C7.94679 8.21173 8.04653 8.07747 8.14626 7.94513C9.50033 6.17741 11.3729 4.9301 13.5306 4.47491C13.684 4.4423 13.8393 4.41481 13.9953 4.39116C14.5042 4.30996 15.024 4.2748 15.5559 4.28631C16.0878 4.29526 16.6127 4.35344 17.1261 4.45573C17.2865 4.48578 17.4419 4.52094 17.5998 4.56058C18.6962 4.83229 19.7364 5.30155 20.6864 5.92872C21.639 6.55845 22.5027 7.34545 23.2437 8.26095C23.353 8.39777 23.4617 8.53522 23.5665 8.67651C24.2563 9.60097 24.8253 10.6418 25.246 11.7587C25.3086 11.9281 25.3694 12.0981 25.4269 12.2695C25.8009 13.403 26.024 14.6107 26.0701 15.8631C26.1161 17.1155 25.9793 18.3162 25.689 19.4363Z" fill="#048ABF"/>
<path d="M15.5979 5.4389C16.0762 5.44913 16.548 5.50028 17.0108 5.59042C19.2989 6.03475 21.3435 7.4259 22.796 9.38222C23.4148 10.2127 23.9269 11.1467 24.3048 12.153C24.7382 13.3012 24.9978 14.546 25.0451 15.84C25.0924 17.134 24.9243 18.3691 24.5746 19.5014C24.2696 20.4929 23.8259 21.4072 23.2672 22.2134C21.954 24.1121 20.0105 25.4183 17.7518 25.7673C17.2953 25.8389 16.8261 25.8703 16.3479 25.8607C15.8697 25.8511 15.3998 25.7993 14.9375 25.7092C12.6475 25.2648 10.6049 23.8756 9.15238 21.9193C8.53161 21.0888 8.02016 20.1541 7.64168 19.1485C7.20695 18.0002 6.94739 16.7555 6.89944 15.4615C6.85213 14.1675 7.02027 12.9324 7.36997 11.8001C7.67493 10.8079 8.12053 9.89432 8.67929 9.08813C9.99244 7.18936 11.936 5.88131 14.1966 5.53224C14.6524 5.46 15.1197 5.42867 15.5979 5.4389Z" fill="white"/>
<path d="M7.79026 9.0069C7.72441 9.11366 7.74999 9.26582 7.851 9.34637C7.89064 9.37834 7.93539 9.39496 7.9795 9.3956C8.04599 9.39688 8.10992 9.36363 8.14956 9.29842C8.24034 9.1533 8.33432 9.00754 8.43277 8.86625C8.72558 8.44302 9.04971 8.04664 9.40006 7.68478C9.48509 7.59528 9.487 7.44184 9.40389 7.34019C9.35914 7.28713 9.29905 7.25964 9.23959 7.25836C9.1878 7.25708 9.13666 7.2769 9.09702 7.31718C8.73133 7.69757 8.3925 8.11185 8.08563 8.55362C7.98398 8.70194 7.88424 8.85346 7.79026 9.0069Z" fill="white"/>
<path d="M22.8405 23.9899C22.9255 23.9023 22.9274 23.7489 22.8443 23.6472C22.8002 23.5935 22.7407 23.5648 22.6819 23.5635C22.6301 23.5629 22.579 23.5827 22.5393 23.6242C22.072 24.1063 21.5567 24.5314 21.0018 24.8894C20.9008 24.954 20.8714 25.1023 20.9347 25.22C20.9781 25.2992 21.0536 25.344 21.1277 25.3453C21.1642 25.3459 21.2006 25.3363 21.2332 25.3152C21.815 24.9393 22.3539 24.4937 22.8405 23.9899Z" fill="white"/>
<path d="M11.7166 25.0338C11.7716 24.9187 11.7307 24.7678 11.6252 24.6994C11.0434 24.3184 10.4955 23.8708 9.99239 23.3683C9.94955 23.3261 9.89777 23.3044 9.84599 23.3038C9.78653 23.3025 9.72835 23.3281 9.6868 23.3805C9.61136 23.4789 9.62414 23.6324 9.71621 23.7238C10.2424 24.2493 10.8145 24.716 11.4251 25.1169C11.4603 25.1392 11.4973 25.1507 11.5338 25.1514C11.6073 25.1527 11.6783 25.1105 11.7166 25.0338Z" fill="white"/>
<path d="M8.58472 22.0426C8.67806 21.9653 8.69213 21.8144 8.6186 21.7032C8.21328 21.1035 7.8591 20.4591 7.56501 19.7756C7.52602 19.6842 7.44482 19.6279 7.36171 19.626C7.33294 19.6254 7.30353 19.6318 7.27604 19.6452C7.16928 19.6989 7.12517 19.8415 7.17695 19.9649C7.4851 20.679 7.85526 21.3554 8.27977 21.9845C8.32452 22.0503 8.39037 22.0855 8.4575 22.0868C8.50225 22.0874 8.547 22.0733 8.58472 22.0426Z" fill="white"/>
<path d="M25.1022 20.328C25.1457 20.2065 25.0926 20.062 24.9813 20.0038C24.9526 19.9891 24.9232 19.9821 24.8938 19.9815C24.8107 19.9802 24.7333 20.0326 24.6994 20.1228C24.4565 20.7947 24.1515 21.427 23.7897 22.0113C23.7232 22.1181 23.7494 22.2696 23.8485 22.3527C23.8881 22.3847 23.9335 22.4007 23.977 22.4013C24.0441 22.4026 24.1087 22.3693 24.149 22.3048C24.5294 21.6923 24.8477 21.0306 25.1022 20.328Z" fill="white"/>
<path d="M10.7021 5.99159C10.603 6.05617 10.5736 6.20449 10.6369 6.32212C10.6804 6.40076 10.7539 6.44551 10.8274 6.44679C10.8645 6.44743 10.9016 6.4372 10.9355 6.41546C11.4853 6.06128 12.0715 5.77103 12.6904 5.55302C12.8029 5.51211 12.8592 5.37593 12.8176 5.24871C12.7844 5.14514 12.6974 5.07865 12.6073 5.07673C12.5849 5.07609 12.5625 5.07993 12.5408 5.0876C11.8925 5.3152 11.2769 5.62015 10.7021 5.99159Z" fill="white"/>
<path d="M18.337 5.35459C18.3051 5.48054 18.3728 5.61863 18.4866 5.66274C19.124 5.9044 19.7352 6.21767 20.3112 6.59487C20.3457 6.61724 20.3835 6.62875 20.4205 6.62939C20.4953 6.63131 20.5669 6.58911 20.6034 6.51176C20.6584 6.39668 20.6175 6.24644 20.512 6.17803C19.9091 5.78357 19.2704 5.45496 18.603 5.20243C18.5806 5.19412 18.5576 5.18965 18.5358 5.18901C18.4431 5.18709 18.3613 5.25166 18.337 5.35459Z" fill="white"/>
<path d="M24.4721 11.1956C24.3653 11.2474 24.3225 11.3919 24.3749 11.5153C24.4497 11.6847 24.52 11.8586 24.5859 12.0344C24.7796 12.5465 24.9394 13.0771 25.0628 13.6237C25.0877 13.7382 25.1804 13.8175 25.2814 13.82C25.2961 13.8207 25.3115 13.8194 25.3262 13.8162C25.4413 13.7893 25.5103 13.6621 25.4815 13.531C25.3517 12.9595 25.1842 12.4039 24.9816 11.8688C24.9138 11.6847 24.839 11.5044 24.7623 11.3248C24.7239 11.234 24.6427 11.1777 24.5596 11.1764C24.5302 11.1752 24.5002 11.1815 24.4721 11.1956Z" fill="white"/>
<path d="M6.28706 13.1653C6.26788 13.2977 6.34651 13.4281 6.46543 13.4575C6.48013 13.4613 6.49547 13.4632 6.50954 13.4639C6.60927 13.4658 6.69622 13.3897 6.71284 13.2759C6.79787 12.7216 6.91998 12.1865 7.07789 11.6712C7.12903 11.5082 7.1821 11.3477 7.239 11.1892C7.28247 11.0677 7.22941 10.9232 7.11817 10.867C7.08876 10.8516 7.05807 10.844 7.02866 10.8433C6.94555 10.8414 6.86883 10.8945 6.83687 10.984C6.77869 11.1508 6.72179 11.3177 6.66873 11.4871C6.50315 12.0261 6.37464 12.588 6.28706 13.1653Z" fill="white"/>
<path d="M15.5862 26.3995C15.5946 26.2665 15.5031 26.1444 15.3849 26.1297C15.2238 26.1073 15.062 26.0792 14.9028 26.0491C14.4067 25.952 13.9202 25.8126 13.449 25.6329C13.4273 25.6246 13.4049 25.6208 13.3838 25.6202C13.2924 25.6182 13.2099 25.6809 13.1837 25.7845C13.1517 25.9104 13.2195 26.0485 13.3333 26.0926C13.8269 26.2793 14.3338 26.427 14.8542 26.5267C15.0217 26.5593 15.1886 26.5881 15.3586 26.6117C15.3657 26.6124 15.3727 26.613 15.3791 26.6137C15.4884 26.6156 15.5805 26.5261 15.5862 26.3995Z" fill="white"/>
<path d="M25.6549 18.1456C25.768 17.4072 25.8115 16.6419 25.7828 15.8549L25.7821 15.83C25.777 15.6944 25.6773 15.5851 25.5571 15.5826C25.4375 15.58 25.3455 15.688 25.3499 15.821L25.3512 15.846C25.3787 16.5978 25.3359 17.3317 25.2285 18.035C25.2093 18.1673 25.2879 18.2971 25.4049 18.3272C25.4203 18.331 25.435 18.3329 25.4497 18.3329C25.5513 18.3355 25.6383 18.2594 25.6549 18.1456Z" fill="white"/>
<path d="M6.72554 17.9502C6.84062 17.9233 6.90967 17.7961 6.8809 17.665C6.72043 16.9541 6.62325 16.2195 6.59385 15.4658C6.58873 15.3341 6.49092 15.2228 6.37264 15.2203C6.25117 15.2177 6.15719 15.3238 6.16231 15.4587C6.193 16.2457 6.29529 17.0142 6.46279 17.7584C6.48772 17.8728 6.58042 17.9527 6.68143 17.9546C6.6955 17.9546 6.7102 17.9533 6.72554 17.9502Z" fill="white"/>
<path d="M14.5264 4.64847C14.4088 4.66062 14.3263 4.77697 14.3442 4.91251C14.3609 5.03654 14.4587 5.1318 14.5674 5.13435C14.575 5.13435 14.5827 5.13435 14.5904 5.13371C14.9177 5.10111 15.247 5.08704 15.5845 5.09408C15.9093 5.10111 16.2328 5.12604 16.5499 5.1708C16.5582 5.17143 16.5659 5.17207 16.5735 5.17271C16.6835 5.17527 16.7724 5.08385 16.78 4.9579C16.7864 4.82492 16.6969 4.70473 16.5767 4.68811C16.2449 4.644 15.9067 4.61587 15.5672 4.60883C15.2143 4.60052 14.8678 4.61395 14.5264 4.64847Z" fill="white"/>
<path d="M23.3204 9.58633C23.2252 9.4476 23.1261 9.30823 23.025 9.17333C22.6932 8.72645 22.3314 8.30769 21.9446 7.92218C21.8525 7.83076 21.8398 7.67732 21.9158 7.57887C21.9561 7.52644 22.0143 7.50023 22.0731 7.50151C22.1243 7.50279 22.1767 7.52389 22.2195 7.56672C22.6255 7.96949 23.0027 8.40679 23.3498 8.87285C23.4547 9.01414 23.5576 9.15926 23.6573 9.30631C23.7334 9.41627 23.7168 9.56907 23.6241 9.64643C23.587 9.67711 23.5429 9.69118 23.4988 9.69054C23.4317 9.68926 23.3652 9.65346 23.3204 9.58633Z" fill="white"/>
<path d="M19.312 25.7403C19.4034 25.7422 19.4897 25.8087 19.5236 25.9123C19.5651 26.0401 19.5076 26.1757 19.3964 26.2147C18.9137 26.3854 18.4112 26.5094 17.8946 26.59C17.7348 26.6155 17.5718 26.6373 17.4081 26.6526C17.4004 26.6533 17.3928 26.6539 17.3851 26.6533C17.2764 26.6507 17.1786 26.5561 17.1626 26.4314C17.1447 26.2959 17.2272 26.1795 17.3448 26.1674C17.5027 26.152 17.6568 26.1322 17.8109 26.1086C18.3057 26.0318 18.7845 25.911 19.2455 25.7505C19.2672 25.7435 19.2896 25.7397 19.312 25.7403Z" fill="white"/>
<path d="M25.2481 11.7589C24.8268 10.6394 24.2578 9.60051 23.5673 8.67542C23.4625 8.53413 23.3551 8.39604 23.2451 8.2605L25.842 6.5874C26.7377 7.78868 27.4793 9.13893 28.0246 10.5947L25.4277 12.2684C25.3708 12.0971 25.3114 11.927 25.2481 11.7589Z" fill="white"/>
<path d="M25.548 19.937C25.5985 19.7727 25.6458 19.6058 25.6899 19.437L28.4147 21.2213C27.9748 22.6547 27.3317 23.9755 26.5229 25.1417L23.7988 23.3573C23.8992 23.2263 23.997 23.092 24.0916 22.9552C24.715 22.0576 25.2085 21.0404 25.548 19.937Z" fill="white"/>
<path d="M6.39696 11.3657C6.34581 11.5313 6.2985 11.6988 6.25439 11.8682L3.53027 10.0838C3.97204 8.64857 4.61455 7.32774 5.42392 6.16162L8.14676 7.94532C8.04639 8.07638 7.94857 8.21064 7.85396 8.34809C7.2319 9.24569 6.73643 10.2629 6.39696 11.3657Z" fill="white"/>
<path d="M13.4043 1.0172C14.0641 0.912351 14.7392 0.868878 15.4316 0.882943C16.1239 0.897008 16.8048 0.96925 17.4735 1.10159L17.6008 4.55903C17.4441 4.52003 17.2868 4.4855 17.1283 4.45418C16.6137 4.35189 16.0901 4.29563 15.5569 4.28476C15.0256 4.27389 14.5046 4.30841 13.9969 4.38897C13.8403 4.41326 13.6856 4.44139 13.5315 4.474L13.4043 1.0172Z" fill="white"/>
<path d="M18.5456 30.2847L16.3694 30.8058C15.7096 30.9106 15.0326 30.9567 14.3408 30.942C13.6485 30.9279 12.9689 30.8531 12.3008 30.7208L14.477 30.1997C15.1457 30.332 15.8253 30.4068 16.5171 30.4209C17.2082 30.435 17.8852 30.3896 18.5456 30.2847Z" fill="white"/>
<mask id="mask0_508_70" style="mask-type:luminance" maskUnits="userSpaceOnUse" x="12" y="30" width="7" height="1">
<path d="M18.5446 30.2852L16.3684 30.8063C15.7086 30.9111 15.0316 30.9572 14.3399 30.9424C13.6475 30.9284 12.9679 30.8536 12.2998 30.7212L14.476 30.2002C15.1448 30.3325 15.8243 30.4073 16.5161 30.4214C17.2072 30.4355 17.8842 30.3901 18.5446 30.2852Z" fill="white"/>
</mask>
<g mask="url(#mask0_508_70)">
<path d="M18.5446 30.2852L16.3684 30.8063C15.7086 30.9111 15.0316 30.9572 14.3399 30.9424C13.6475 30.9284 12.9679 30.8536 12.2998 30.7212L14.476 30.2002C15.1448 30.3325 15.8243 30.4073 16.5161 30.4214C17.2072 30.4355 17.8842 30.3901 18.5446 30.2852Z" fill="white"/>
</g>
<path d="M16.3916 27.0165C16.9248 27.0273 17.4452 26.9928 17.9534 26.9122C18.1101 26.888 18.2648 26.8598 18.4188 26.8272L18.5461 30.2847C17.8857 30.3895 17.2093 30.4355 16.5169 30.4208C15.8251 30.4068 15.1456 30.332 14.4768 30.1996L14.3496 26.7422C14.5056 26.7812 14.6635 26.8157 14.8221 26.847C15.3361 26.9487 15.8597 27.0056 16.3916 27.0165Z" fill="white"/>
<mask id="mask1_508_70" style="mask-type:luminance" maskUnits="userSpaceOnUse" x="1" y="6" width="5" height="5">
<path d="M3.53008 10.0829L1.35449 10.6039C1.79562 9.16864 2.43877 7.84781 3.24814 6.68169L5.42373 6.16064C4.61435 7.32612 3.9712 8.64759 3.53008 10.0829Z" fill="white"/>
</mask>
<g mask="url(#mask1_508_70)">
<path d="M3.53008 10.0829L1.35449 10.6039C1.79562 9.16864 2.43877 7.84781 3.24814 6.68169L5.42373 6.16064C4.61435 7.32612 3.9712 8.64759 3.53008 10.0829Z" fill="white"/>
</g>
<path d="M6.69973 19.5449C7.12104 20.6644 7.69003 21.7033 8.38049 22.629C8.48533 22.7703 8.59338 22.9084 8.70398 23.0445L6.10837 24.717C5.21077 23.5157 4.47108 22.1655 3.92383 20.7123L6.52072 19.0386C6.57698 19.2086 6.63644 19.3774 6.69973 19.5449Z" fill="white"/>
<path d="M6.10881 24.7166L3.93258 25.2377C3.03435 24.0357 2.2953 22.6861 1.74805 21.2323L3.92427 20.7119C4.47152 22.1651 5.21057 23.5153 6.10881 24.7166Z" fill="white"/>
<mask id="mask2_508_70" style="mask-type:luminance" maskUnits="userSpaceOnUse" x="1" y="20" width="6" height="6">
<path d="M6.10783 24.7161L3.93161 25.2372C3.03337 24.0352 2.29432 22.6856 1.74707 21.2318L3.92329 20.7114C4.47055 22.1646 5.2096 23.5148 6.10783 24.7161Z" fill="white"/>
</mask>
<g mask="url(#mask2_508_70)">
<path d="M6.10783 24.7161L3.93161 25.2372C3.03337 24.0352 2.29432 22.6856 1.74707 21.2318L3.92329 20.7114C4.47055 22.1646 5.2096 23.5148 6.10783 24.7161Z" fill="white"/>
</g>
<path d="M13.4036 1.0166C13.4036 1.0166 13.2514 1.04793 12.9656 1.10611C12.6805 1.16556 12.2669 1.27041 11.7516 1.43855C11.2388 1.61245 10.6238 1.85155 9.95893 2.20701C9.29468 2.56184 8.58249 3.0311 7.87477 3.62694C7.1696 4.22407 6.46892 4.94841 5.84239 5.80126C5.76567 5.90867 5.68895 6.01735 5.61096 6.12668L5.55278 6.20851L5.53808 6.22897L5.52721 6.24623L5.50036 6.28971L5.39167 6.4636C5.24783 6.69631 5.09695 6.9303 4.95374 7.17005C4.82588 7.41491 4.6961 7.66168 4.56568 7.91166C4.49663 8.03441 4.43718 8.16291 4.38283 8.29525C4.32594 8.42631 4.26904 8.55801 4.2115 8.69035C4.15396 8.82269 4.09706 8.95503 4.03888 9.08864C3.99093 9.2261 3.94363 9.36355 3.89568 9.50228C3.84773 9.64037 3.79978 9.77911 3.75119 9.91848L3.67831 10.1275L3.62397 10.3385C3.54917 10.6288 3.47309 10.9203 3.39765 11.2144C3.35418 11.3608 3.33372 11.5085 3.30879 11.6561L3.23335 12.1005C3.10932 12.6893 3.09206 13.3043 3.0326 13.9129C3.0179 14.2185 3.02813 14.5261 3.02493 14.8329L3.02429 15.2939C3.02301 15.4332 3.04603 15.5995 3.05562 15.751L3.1253 16.6799C3.16175 16.9855 3.21736 17.2841 3.26212 17.5865L3.33308 18.0378C3.36057 18.1874 3.40277 18.3351 3.43665 18.4834C3.50825 18.7801 3.57922 19.0754 3.65082 19.3702C3.7448 19.6579 3.83814 19.9449 3.93084 20.2301L4.06893 20.652C4.12647 20.7914 4.18401 20.9301 4.24155 21.0688C4.3611 21.3425 4.45891 21.6289 4.59381 21.8865C4.72359 22.1474 4.85273 22.4069 4.98059 22.6639C5.11677 22.9171 5.26956 23.1607 5.41085 23.4056C5.5483 23.6542 5.70813 23.885 5.8654 24.1139C5.9434 24.229 6.02076 24.3434 6.09811 24.4566L6.21383 24.6267L6.3385 24.7846C6.50855 24.9994 6.67669 25.211 6.84292 25.4207C7.00274 25.6368 7.18495 25.8215 7.36076 26.0082C7.53657 26.1949 7.70982 26.379 7.87988 26.56C8.05953 26.7319 8.24685 26.8905 8.42522 27.0522C8.60742 27.2089 8.77428 27.3776 8.96032 27.5164C9.14636 27.6545 9.32793 27.79 9.50566 27.9217C9.68594 28.0496 9.85025 28.1934 10.035 28.297C10.3962 28.515 10.7299 28.7394 11.0605 28.919C11.3987 29.0859 11.7151 29.2425 12.0073 29.387C12.3059 29.5181 12.5916 29.6127 12.8435 29.7118C12.9707 29.7597 13.0903 29.8051 13.2034 29.848C13.3166 29.8908 13.4285 29.9125 13.5289 29.9426C13.7322 29.9976 13.9054 30.0449 14.0461 30.0826C14.3274 30.1587 14.4776 30.1996 14.4776 30.1996C14.4776 30.1996 14.3261 30.1651 14.0422 30.1011C13.9003 30.0692 13.7245 30.0289 13.518 29.9829C13.4157 29.9567 13.3019 29.9407 13.1868 29.9017C13.0718 29.8627 12.9503 29.8205 12.8211 29.7764C12.5648 29.6849 12.2739 29.5986 11.9689 29.4759C11.6697 29.3391 11.3456 29.192 10.9997 29.0341C10.6603 28.8634 10.3163 28.648 9.94359 28.4383C9.75243 28.3398 9.58493 28.1966 9.39953 28.0707C9.21669 27.9402 9.03001 27.8066 8.83885 27.6698C8.6477 27.533 8.47572 27.3655 8.28776 27.2101C8.10364 27.0497 7.91057 26.8918 7.72453 26.7204C7.5468 26.5389 7.36587 26.3541 7.18239 26.1668C6.99827 25.9794 6.80711 25.7915 6.64537 25.5805C6.47531 25.3747 6.30333 25.1656 6.1288 24.9546L5.99454 24.791L5.87371 24.6203C5.79316 24.5065 5.71197 24.3914 5.63014 24.2763C5.5483 24.1606 5.46647 24.0449 5.38336 23.9279C5.30153 23.8109 5.23376 23.6837 5.15768 23.5609C5.01192 23.3116 4.85529 23.0661 4.714 22.8072C4.58102 22.5438 4.44677 22.2778 4.31123 22.0099C4.17058 21.7433 4.07405 21.4646 3.95194 21.1897C3.89376 21.0516 3.83558 20.9128 3.77676 20.7741C3.72754 20.6284 3.67831 20.4819 3.62908 20.3349C3.53255 20.0447 3.43537 19.7525 3.33756 19.4597C3.2634 19.1598 3.1886 18.8594 3.11316 18.5576C3.07736 18.4061 3.03388 18.2565 3.00511 18.103L2.92903 17.6383C2.88109 17.3282 2.82163 17.0168 2.78327 16.7068L2.70847 15.7778C2.69952 15.6193 2.67906 15.4761 2.6797 15.3047L2.6829 14.8342C2.68801 14.5209 2.68034 14.207 2.69696 13.895C2.76153 13.273 2.78327 12.6503 2.91497 12.0397L2.99616 11.582C3.02301 11.4298 3.04667 11.2764 3.09014 11.1319C3.16814 10.8391 3.24549 10.5476 3.32221 10.258L3.38167 10.0348L3.45711 9.82194C3.50697 9.68001 3.55748 9.53872 3.60671 9.39743C3.65657 9.25678 3.70644 9.11613 3.75567 8.97612C3.81512 8.84059 3.87458 8.70505 3.93404 8.57015C3.99349 8.4359 4.05231 8.30164 4.11177 8.16802C4.16802 8.03377 4.2294 7.90207 4.30228 7.77548C4.44101 7.51975 4.57783 7.26722 4.71336 7.01661C4.86232 6.77814 5.01639 6.54863 5.16536 6.31783L5.27723 6.1465L5.30536 6.10366L5.32263 6.07873L5.33797 6.05827L5.3987 5.9758C5.4799 5.86584 5.56045 5.75715 5.641 5.64847C6.2963 4.79178 7.02384 4.06871 7.75138 3.47542C8.47956 2.88086 9.21796 2.42822 9.90075 2.0913C10.5842 1.7531 11.2113 1.53189 11.7324 1.3727C11.9945 1.29854 12.2285 1.23013 12.4369 1.1905C12.644 1.14574 12.8192 1.10483 12.9637 1.08565C13.2501 1.04089 13.4036 1.0166 13.4036 1.0166Z" fill="white"/>
<path d="M17.1368 20.5211C16.4927 20.5211 15.9738 20.339 15.5802 19.9748C15.1866 19.6106 14.9003 19.0784 14.7214 18.378C14.5484 17.6683 14.4619 16.8139 14.4619 15.8147C14.4619 14.8156 14.5484 13.9658 14.7214 13.2655C14.9003 12.5651 15.1866 12.0329 15.5802 11.6687C15.9738 11.2952 16.4927 11.1084 17.1368 11.1084C17.7869 11.1084 18.3058 11.2952 18.6935 11.6687C19.0871 12.0329 19.3734 12.5651 19.5523 13.2655C19.7312 13.9658 19.8207 14.8156 19.8207 15.8147C19.8207 16.8139 19.7312 17.6683 19.5523 18.378C19.3734 19.0784 19.0871 19.6106 18.6935 19.9748C18.3058 20.339 17.7869 20.5211 17.1368 20.5211ZM17.1368 18.5881C17.5901 18.5881 17.9032 18.3547 18.0762 17.8878C18.2551 17.4115 18.3446 16.7205 18.3446 15.8147C18.3446 14.909 18.2551 14.2226 18.0762 13.7557C17.9032 13.2795 17.5901 13.0414 17.1368 13.0414C16.6836 13.0414 16.3675 13.2795 16.1885 13.7557C16.0156 14.2226 15.9291 14.909 15.9291 15.8147C15.9291 16.7205 16.0156 17.4115 16.1885 17.8878C16.3675 18.3547 16.6836 18.5881 17.1368 18.5881Z" fill="#4B4B4B"/>
<path d="M12.2911 20.269V13.3215L11.3428 13.5596V11.6687L13.7314 11.1084V20.269H12.2911Z" fill="#4B4B4B"/>
</svg>
