<svg width="29" height="31" viewBox="0 0 29 31" fill="none" xmlns="http://www.w3.org/2000/svg">
<path d="M18.3532 30.2787L16.1789 30.801C15.5172 30.9052 14.8408 30.9519 14.149 30.9359C13.4567 30.9218 12.7784 30.8477 12.1096 30.7153C8.79735 30.0741 5.84052 28.0628 3.74102 25.2338C2.84214 24.0306 2.10373 22.681 1.5552 21.2272C0.928035 19.5643 0.554037 17.7685 0.484352 15.894C0.414667 14.0221 0.658246 12.2358 1.16522 10.6004C1.60635 9.16518 2.24758 7.84307 3.05823 6.67759C3.18353 6.49666 3.31396 6.32021 3.44629 6.14567C3.48849 6.09261 3.53004 6.04083 3.5716 5.99032C3.66686 5.86693 3.76467 5.74866 3.86441 5.63038C3.88998 5.60033 3.91555 5.56773 3.94112 5.53768C3.97373 5.5006 4.00633 5.46544 4.03638 5.43091C4.08049 5.38233 4.12269 5.3331 4.1668 5.28707C4.24352 5.20332 4.32024 5.11957 4.39887 5.03837C4.44107 4.99682 4.48262 4.9527 4.52673 4.90859C4.61752 4.81589 4.71022 4.72702 4.80356 4.63688C4.83616 4.60875 4.86621 4.5787 4.89626 4.54865C5.02156 4.4323 5.14943 4.3185 5.27729 4.20982C5.30989 4.18169 5.3425 4.15611 5.37255 4.13118C5.47228 4.04743 5.57201 3.96368 5.6743 3.88504C5.72289 3.84796 5.76956 3.81088 5.81815 3.7738C5.90637 3.70859 5.9946 3.64146 6.08538 3.57625C6.13653 3.53917 6.18959 3.50209 6.24329 3.46501C6.33407 3.40236 6.42486 3.34226 6.515 3.28408C6.56615 3.24956 6.61921 3.2144 6.67035 3.18179C6.77264 3.11658 6.87494 3.05393 6.97914 2.99383C7.02134 2.96826 7.06545 2.94269 7.10701 2.91711C7.25341 2.83336 7.40173 2.75217 7.55325 2.67545C7.57626 2.66138 7.59928 2.65243 7.62549 2.63837C7.75079 2.57572 7.88122 2.51306 8.00844 2.45233C8.0615 2.42675 8.1152 2.40374 8.16891 2.38009C8.2712 2.33597 8.3754 2.2893 8.48025 2.24775C8.53843 2.22473 8.59852 2.20108 8.65926 2.1755C8.75899 2.13842 8.86128 2.09878 8.96613 2.0617C9.02431 2.04061 9.0844 2.02015 9.14514 1.99905C9.25638 1.96197 9.3657 1.92681 9.4795 1.89228C9.53064 1.87822 9.58371 1.85968 9.63485 1.84562C9.7998 1.79703 9.9673 1.75291 10.1342 1.71328C10.8591 1.53938 11.5835 1.36485 12.3085 1.19287C12.141 1.23251 11.976 1.27662 11.8117 1.32521C11.7606 1.33927 11.7069 1.35526 11.6538 1.37188C11.5426 1.40704 11.4307 1.44157 11.3214 1.47865C11.2613 1.49974 11.2005 1.5202 11.1404 1.5413C11.0381 1.57838 10.9359 1.61546 10.8336 1.6551C10.7754 1.67811 10.7153 1.70177 10.6546 1.72734C10.5497 1.76954 10.4481 1.81365 10.3458 1.85968C10.2927 1.8827 10.239 1.90635 10.1853 1.93192C10.0574 1.9901 9.92958 2.05275 9.80427 2.11541C9.7787 2.12947 9.75313 2.14098 9.72755 2.15249C9.57859 2.23112 9.43027 2.31296 9.28387 2.39607C9.23976 2.42164 9.1982 2.44721 9.15409 2.47279C9.0518 2.53352 8.94951 2.59618 8.84978 2.65883L8.68931 2.76304C8.59853 2.82121 8.5103 2.88131 8.41952 2.94396C8.36645 2.98105 8.31275 3.01813 8.25905 3.05776C8.17082 3.12042 8.0826 3.18563 7.99693 3.25276C7.94834 3.28984 7.8972 3.32692 7.84797 3.364C7.75016 3.44327 7.65042 3.52191 7.55517 3.60566C7.52064 3.63379 7.48548 3.65936 7.45288 3.68941C7.32246 3.79873 7.19715 3.91253 7.0744 4.02633C7.03988 4.05894 7.00727 4.09154 6.97211 4.12415C6.88133 4.20982 6.79055 4.29612 6.70488 4.38691C6.65821 4.43102 6.6141 4.47769 6.56998 4.52372C6.49326 4.603 6.4191 4.68163 6.3443 4.76283C6.30019 4.81397 6.25352 4.86256 6.20941 4.91371C6.15123 4.97892 6.09817 5.04349 6.04255 5.10678C5.94282 5.22761 5.84308 5.34844 5.74527 5.46927C5.70371 5.52298 5.66152 5.57412 5.62252 5.62719C5.48762 5.80108 5.35784 5.97817 5.23254 6.1591C4.42444 7.32522 3.78065 8.64669 3.33953 10.08C2.83319 11.7154 2.59153 13.5036 2.66122 15.3762C2.72834 17.2481 3.10234 19.0459 3.73207 20.7094C4.2806 22.1632 5.01901 23.5128 5.91788 24.7141C8.01739 27.5456 10.9742 29.5569 14.2865 30.1981C14.9533 30.3305 15.6335 30.4053 16.3259 30.4187C17.0177 30.4296 17.6934 30.3854 18.3532 30.2787Z" fill="#2F3734"/>
<path d="M25.2344 12.2665C25.6084 13.4007 25.8328 14.609 25.8782 15.8614C25.9242 17.1145 25.7887 18.3164 25.4972 19.4365C25.453 19.6053 25.4057 19.7721 25.3552 19.9364C25.0158 21.0399 24.5222 22.0571 23.8989 22.9547C23.8043 23.0915 23.7064 23.2257 23.6061 23.3568C22.2533 25.1258 20.3807 26.3712 18.225 26.8257C18.0715 26.8583 17.9162 26.8865 17.7595 26.9108C17.2519 26.9913 16.7309 27.0265 16.1977 27.015C15.6664 27.0041 15.1422 26.9472 14.6275 26.8449C14.469 26.8142 14.3117 26.7791 14.1551 26.7401C11.9616 26.1954 9.99507 24.8694 8.50931 23.0416C8.39871 22.9061 8.29066 22.7673 8.18582 22.626C7.49536 21.7003 6.92637 20.6614 6.50506 19.542C6.44177 19.3751 6.38167 19.2057 6.32541 19.035C5.9495 17.9002 5.72574 16.6906 5.6797 15.4382C5.63367 14.1864 5.76921 12.9851 6.0601 11.865C6.10421 11.6956 6.15152 11.5281 6.20266 11.3625C6.54214 10.2591 7.03761 9.24254 7.65902 8.3443C7.75364 8.20685 7.85145 8.07323 7.95247 7.94153C9.30717 6.17253 11.1797 4.92522 13.3368 4.47067C13.4902 4.43806 13.6456 4.40993 13.8022 4.38564C14.3098 4.30508 14.8302 4.26992 15.3621 4.28143C15.8953 4.2923 16.4195 4.34919 16.9335 4.45085C17.0921 4.48153 17.2494 4.5167 17.406 4.5557C19.5982 5.10103 21.5667 6.42826 23.0511 8.25671C23.1611 8.39225 23.2685 8.53098 23.3734 8.67163C24.0638 9.59673 24.6328 10.6363 25.0541 11.7551C25.118 11.9251 25.1781 12.0952 25.2344 12.2665Z" fill="#2F3734"/>
<path d="M28.9023 15.9233C28.8326 14.0533 28.4586 12.2511 27.8315 10.5927C27.2855 9.13634 26.5445 7.78674 25.6482 6.5861C23.5461 3.75711 20.5893 1.74326 17.2796 1.09946C16.6109 0.967123 15.93 0.894878 15.2376 0.881452C14.5452 0.867387 13.8695 0.911501 13.2097 1.01635C9.94153 1.52269 7.12855 3.41316 5.23106 6.16095C4.42041 7.32707 3.77918 8.64662 3.3355 10.0819C2.83172 11.7173 2.5875 13.5054 2.65719 15.378C2.72687 17.2499 3.10087 19.0477 3.72804 20.7112C4.27593 22.165 5.01498 23.5146 5.91385 24.7153C8.01336 27.5468 10.9702 29.5562 14.2825 30.1993C14.9512 30.3317 15.6295 30.4058 16.3219 30.4199C17.0143 30.434 17.69 30.3873 18.3517 30.2831C21.6173 29.7793 24.4303 27.8882 26.3278 25.1404C27.1384 23.9743 27.7797 22.6554 28.2208 21.222C28.7259 19.5815 28.972 17.7978 28.9023 15.9233Z" fill="#2F3734"/>
<path d="M25.4966 19.4358C25.4525 19.6052 25.4039 19.7727 25.3547 19.9376C25.0159 21.0411 24.5211 22.0583 23.8984 22.9546C23.8031 23.0914 23.7053 23.2263 23.6036 23.3567C22.2521 25.1263 20.3796 26.3717 18.2245 26.8269C18.071 26.8595 17.9157 26.887 17.7597 26.9107C17.2508 26.9919 16.731 27.027 16.1965 27.0155C15.6646 27.0059 15.1423 26.9484 14.6264 26.8461C14.4685 26.8161 14.3106 26.7809 14.1552 26.7419C11.9624 26.1985 9.99521 24.8719 8.5088 23.0441C8.39948 22.9092 8.29271 22.7698 8.18595 22.6285C7.49613 21.7041 6.92714 20.6633 6.50647 19.5438C6.44382 19.3763 6.38308 19.2094 6.32554 19.0375C5.95154 17.904 5.72651 16.6937 5.67984 15.4419C5.63317 14.1902 5.77062 12.9889 6.06087 11.8675C6.10498 11.7 6.15357 11.5331 6.20471 11.3656C6.54419 10.2622 7.03838 9.24502 7.66107 8.34869C7.75441 8.21124 7.85414 8.07698 7.95388 7.94464C9.30794 6.17693 11.1805 4.92962 13.3382 4.47442C13.4916 4.44182 13.647 4.41432 13.803 4.39067C14.3119 4.30948 14.8316 4.27431 15.3635 4.28582C15.8954 4.29477 16.4203 4.35295 16.9337 4.45524C17.0941 4.48529 17.2495 4.52045 17.4074 4.56009C18.5038 4.8318 19.544 5.30106 20.494 5.92823C21.4466 6.55796 22.3103 7.34496 23.0513 8.26047C23.1606 8.39728 23.2693 8.53474 23.3741 8.67602C24.0639 9.60048 24.6329 10.6413 25.0536 11.7582C25.1163 11.9276 25.177 12.0977 25.2345 12.269C25.6085 13.4025 25.8317 14.6102 25.8777 15.8626C25.9237 17.115 25.7869 18.3157 25.4966 19.4358Z" fill="#2F3734"/>
<path d="M15.4056 5.43841C15.8838 5.44864 16.3556 5.49979 16.8184 5.58993C19.1065 6.03426 21.1511 7.42542 22.6036 9.38173C23.2225 10.2122 23.7345 11.1463 24.1124 12.1525C24.5458 13.3008 24.8054 14.5455 24.8527 15.8395C24.9 17.1335 24.7319 18.3686 24.3822 19.5009C24.0772 20.4925 23.6335 21.4067 23.0748 22.2129C21.7616 24.1116 19.8181 25.4178 17.5594 25.7668C17.1029 25.8384 16.6337 25.8698 16.1555 25.8602C15.6773 25.8506 15.2074 25.7988 14.7451 25.7087C12.4551 25.2643 10.4125 23.8751 8.96 21.9188C8.33922 21.0883 7.82777 20.1536 7.4493 19.148C7.01457 17.9998 6.755 16.755 6.70706 15.461C6.65975 14.167 6.82789 12.9319 7.17759 11.7996C7.48254 10.8074 7.92814 9.89383 8.4869 9.08765C9.80005 7.18887 11.7436 5.88082 14.0042 5.53175C14.46 5.45951 14.9274 5.42818 15.4056 5.43841Z" fill="white"/>
<path d="M7.59788 9.0069C7.53203 9.11366 7.5576 9.26582 7.65862 9.34637C7.69825 9.37834 7.74301 9.39496 7.78712 9.3956C7.85361 9.39688 7.91754 9.36363 7.95717 9.29842C8.04796 9.1533 8.14194 9.00754 8.24039 8.86625C8.5332 8.44302 8.85733 8.04664 9.20767 7.68478C9.2927 7.59528 9.29462 7.44184 9.21151 7.34019C9.16676 7.28713 9.10666 7.25964 9.04721 7.25836C8.99542 7.25708 8.94428 7.2769 8.90464 7.31718C8.53895 7.69757 8.20011 8.11185 7.89324 8.55362C7.79159 8.70194 7.69186 8.85346 7.59788 9.0069Z" fill="white"/>
<path d="M22.6481 23.9899C22.7331 23.9023 22.735 23.7489 22.6519 23.6472C22.6078 23.5935 22.5483 23.5648 22.4895 23.5635C22.4377 23.5629 22.3866 23.5827 22.347 23.6242C21.8796 24.1063 21.3643 24.5314 20.8094 24.8894C20.7084 24.954 20.679 25.1023 20.7423 25.22C20.7858 25.2992 20.8612 25.344 20.9354 25.3453C20.9718 25.3459 21.0082 25.3363 21.0408 25.3152C21.6226 24.9393 22.1616 24.4937 22.6481 23.9899Z" fill="white"/>
<path d="M11.5242 25.0338C11.5792 24.9187 11.5383 24.7678 11.4328 24.6994C10.851 24.3184 10.3031 23.8708 9.80001 23.3683C9.75717 23.3261 9.70539 23.3044 9.6536 23.3038C9.59415 23.3025 9.53597 23.3281 9.49442 23.3805C9.41898 23.4789 9.43176 23.6324 9.52382 23.7238C10.05 24.2493 10.6222 24.716 11.2327 25.1169C11.2679 25.1392 11.305 25.1507 11.3414 25.1514C11.4149 25.1527 11.4859 25.1105 11.5242 25.0338Z" fill="white"/>
<path d="M8.39234 22.0426C8.48568 21.9653 8.49974 21.8144 8.42622 21.7032C8.0209 21.1035 7.66672 20.4591 7.37263 19.7756C7.33363 19.6842 7.25244 19.6279 7.16933 19.626C7.14056 19.6254 7.11115 19.6318 7.08366 19.6452C6.9769 19.6989 6.93278 19.8415 6.98457 19.9649C7.29272 20.679 7.66288 21.3554 8.08738 21.9845C8.13214 22.0503 8.19799 22.0855 8.26511 22.0868C8.30987 22.0874 8.35462 22.0733 8.39234 22.0426Z" fill="white"/>
<path d="M24.9108 20.328C24.9542 20.2065 24.9012 20.062 24.7899 20.0038C24.7612 19.9891 24.7318 19.9821 24.7024 19.9815C24.6192 19.9802 24.5419 20.0326 24.508 20.1228C24.2651 20.7947 23.9601 21.427 23.5983 22.0113C23.5318 22.1181 23.558 22.2696 23.6571 22.3527C23.6967 22.3847 23.7421 22.4007 23.7856 22.4013C23.8527 22.4026 23.9173 22.3693 23.9576 22.3048C24.3379 21.6923 24.6563 21.0306 24.9108 20.328Z" fill="white"/>
<path d="M10.5097 5.99159C10.4106 6.05617 10.3812 6.20449 10.4445 6.32212C10.488 6.40076 10.5615 6.44551 10.635 6.44679C10.6721 6.44743 10.7092 6.4372 10.7431 6.41546C11.2929 6.06128 11.8791 5.77103 12.498 5.55302C12.6105 5.51211 12.6668 5.37593 12.6252 5.24871C12.592 5.14514 12.505 5.07865 12.4149 5.07673C12.3925 5.07609 12.3701 5.07993 12.3484 5.0876C11.7001 5.3152 11.0845 5.62015 10.5097 5.99159Z" fill="white"/>
<path d="M18.1446 5.35459C18.1127 5.48054 18.1804 5.61863 18.2942 5.66274C18.9316 5.9044 19.5428 6.21767 20.1188 6.59487C20.1534 6.61724 20.1911 6.62875 20.2282 6.62939C20.303 6.63131 20.3746 6.58911 20.411 6.51176C20.466 6.39668 20.4251 6.24644 20.3196 6.17803C19.7167 5.78357 19.078 5.45496 18.4106 5.20243C18.3882 5.19412 18.3652 5.18965 18.3435 5.18901C18.2508 5.18709 18.1689 5.25166 18.1446 5.35459Z" fill="white"/>
<path d="M24.2797 11.1956C24.1729 11.2474 24.1301 11.3919 24.1825 11.5153C24.2573 11.6847 24.3276 11.8586 24.3935 12.0344C24.5872 12.5465 24.747 13.0771 24.8704 13.6237C24.8953 13.7382 24.988 13.8175 25.089 13.82C25.1037 13.8207 25.1191 13.8194 25.1338 13.8162C25.2489 13.7893 25.3179 13.6621 25.2891 13.531C25.1594 12.9595 24.9919 12.4039 24.7892 11.8688C24.7214 11.6847 24.6466 11.5044 24.5699 11.3248C24.5316 11.234 24.4504 11.1777 24.3673 11.1764C24.3378 11.1752 24.3078 11.1815 24.2797 11.1956Z" fill="white"/>
<path d="M6.09467 13.1658C6.07549 13.2981 6.15413 13.4286 6.27304 13.458C6.28775 13.4618 6.30309 13.4637 6.31716 13.4644C6.41689 13.4663 6.50384 13.3902 6.52046 13.2764C6.60549 12.7221 6.7276 12.187 6.88551 11.6717C6.93665 11.5087 6.98971 11.3482 7.04661 11.1897C7.09009 11.0682 7.03702 10.9237 6.92578 10.8675C6.89637 10.8521 6.86569 10.8444 6.83628 10.8438C6.75317 10.8419 6.67645 10.8949 6.64449 10.9845C6.58631 11.1513 6.52941 11.3182 6.47634 11.4876C6.31076 12.0265 6.18226 12.5885 6.09467 13.1658Z" fill="white"/>
<path d="M15.3939 26.3995C15.4022 26.2665 15.3108 26.1444 15.1925 26.1297C15.0314 26.1073 14.8696 26.0792 14.7104 26.0491C14.2143 25.952 13.7278 25.8126 13.2566 25.6329C13.2349 25.6246 13.2125 25.6208 13.1914 25.6202C13.1 25.6182 13.0175 25.6809 12.9913 25.7845C12.9594 25.9104 13.0271 26.0485 13.1409 26.0926C13.6345 26.2793 14.1414 26.427 14.6618 26.5267C14.8293 26.5593 14.9962 26.5881 15.1663 26.6117C15.1733 26.6124 15.1803 26.613 15.1867 26.6137C15.296 26.6156 15.3881 26.5261 15.3939 26.3995Z" fill="white"/>
<path d="M25.4625 18.1456C25.5757 17.4072 25.6191 16.6419 25.5904 15.8549L25.5897 15.83C25.5846 15.6944 25.4849 15.5851 25.3647 15.5826C25.2451 15.58 25.1531 15.688 25.1576 15.821L25.1588 15.846C25.1863 16.5978 25.1435 17.3317 25.0361 18.035C25.0169 18.1673 25.0955 18.2971 25.2125 18.3272C25.2279 18.331 25.2426 18.3329 25.2573 18.3329C25.3589 18.3355 25.4459 18.2594 25.4625 18.1456Z" fill="white"/>
<path d="M6.53316 17.9502C6.64824 17.9233 6.71728 17.7961 6.68851 17.665C6.52805 16.9541 6.43087 16.2195 6.40146 15.4658C6.39635 15.3341 6.29853 15.2228 6.18026 15.2203C6.05879 15.2177 5.96481 15.3238 5.96993 15.4587C6.00061 16.2457 6.1029 17.0142 6.2704 17.7584C6.29534 17.8728 6.38804 17.9527 6.48905 17.9546C6.50311 17.9546 6.51782 17.9533 6.53316 17.9502Z" fill="white"/>
<path d="M14.335 4.64847C14.2174 4.66062 14.1349 4.77697 14.1528 4.91251C14.1695 5.03654 14.2673 5.1318 14.376 5.13435C14.3836 5.13435 14.3913 5.13435 14.399 5.13371C14.7263 5.10111 15.0555 5.08704 15.3931 5.09408C15.7179 5.10111 16.0414 5.12604 16.3585 5.1708C16.3668 5.17143 16.3744 5.17207 16.3821 5.17271C16.4921 5.17527 16.5809 5.08385 16.5886 4.9579C16.595 4.82492 16.5055 4.70473 16.3853 4.68811C16.0535 4.644 15.7153 4.61587 15.3758 4.60883C15.0229 4.60052 14.6764 4.61395 14.335 4.64847Z" fill="white"/>
<path d="M23.129 9.58584C23.0337 9.44711 22.9347 9.30774 22.8336 9.17284C22.5018 8.72596 22.14 8.3072 21.7532 7.92169C21.6611 7.83027 21.6484 7.67684 21.7244 7.57838C21.7647 7.52596 21.8229 7.49974 21.8817 7.50102C21.9329 7.5023 21.9853 7.5234 22.0281 7.56623C22.4341 7.969 22.8113 8.4063 23.1584 8.87236C23.2633 9.01365 23.3662 9.15878 23.4659 9.30582C23.542 9.41578 23.5254 9.56858 23.4327 9.64594C23.3956 9.67663 23.3515 9.69069 23.3074 9.69005C23.2402 9.68877 23.1738 9.65297 23.129 9.58584Z" fill="white"/>
<path d="M19.1196 25.7403C19.211 25.7422 19.2973 25.8087 19.3312 25.9123C19.3728 26.0401 19.3152 26.1757 19.204 26.2147C18.7213 26.3854 18.2188 26.5094 17.7022 26.59C17.5424 26.6155 17.3794 26.6373 17.2157 26.6526C17.208 26.6533 17.2004 26.6539 17.1927 26.6533C17.084 26.6507 16.9862 26.5561 16.9702 26.4314C16.9523 26.2959 17.0348 26.1795 17.1524 26.1674C17.3103 26.152 17.4644 26.1322 17.6185 26.1086C18.1133 26.0318 18.5922 25.911 19.0531 25.7505C19.0748 25.7435 19.0972 25.7397 19.1196 25.7403Z" fill="white"/>
<path d="M25.0547 11.7579C24.6334 10.6384 24.0644 9.59954 23.374 8.67444C23.2691 8.53315 23.1617 8.39506 23.0518 8.25952L25.6487 6.58643C26.5443 7.78771 27.2859 9.13795 27.8313 10.5937L25.2344 12.2674C25.1775 12.0961 25.118 11.926 25.0547 11.7579Z" fill="white"/>
<path d="M25.3556 19.937C25.4061 19.7727 25.4534 19.6058 25.4975 19.437L28.2223 21.2213C27.7824 22.6547 27.1393 23.9755 26.3306 25.1417L23.6064 23.3573C23.7068 23.2263 23.8046 23.092 23.8993 22.9552C24.5226 22.0576 25.0161 21.0404 25.3556 19.937Z" fill="white"/>
<path d="M6.20458 11.3652C6.15343 11.5308 6.10612 11.6983 6.06201 11.8677L3.33789 10.0834C3.77966 8.64808 4.42217 7.32725 5.23154 6.16113L7.95438 7.94483C7.854 8.07589 7.75619 8.21015 7.66157 8.3476C7.03952 9.24521 6.54405 10.2624 6.20458 11.3652Z" fill="white"/>
<path d="M13.2119 1.01671C13.8717 0.911863 14.5468 0.868389 15.2392 0.882454C15.9316 0.896519 16.6124 0.968762 17.2811 1.1011L17.4084 4.55854C17.2517 4.51954 17.0945 4.48502 16.9359 4.45369C16.4213 4.3514 15.8977 4.29514 15.3645 4.28427C14.8332 4.2734 14.3122 4.30792 13.8046 4.38848C13.6479 4.41277 13.4932 4.4409 13.3391 4.47351L13.2119 1.01671Z" fill="white"/>
<path d="M18.3532 30.2847L16.177 30.8058C15.5172 30.9106 14.8402 30.9567 14.1485 30.942C13.4561 30.9279 12.7765 30.8531 12.1084 30.7208L14.2846 30.1997C14.9533 30.332 15.6329 30.4068 16.3247 30.4209C17.0158 30.435 17.6928 30.3896 18.3532 30.2847Z" fill="white"/>
<mask id="mask0_508_2946" style="mask-type:luminance" maskUnits="userSpaceOnUse" x="12" y="30" width="7" height="1">
<path d="M18.3542 30.2843L16.178 30.8053C15.5182 30.9101 14.8412 30.9562 14.1494 30.9415C13.4571 30.9274 12.7775 30.8526 12.1094 30.7203L14.2856 30.1992C14.9543 30.3316 15.6339 30.4064 16.3257 30.4204C17.0167 30.4345 17.6938 30.3891 18.3542 30.2843Z" fill="white"/>
</mask>
<g mask="url(#mask0_508_2946)">
<path d="M18.3542 30.2843L16.178 30.8053C15.5182 30.9101 14.8412 30.9562 14.1494 30.9415C13.4571 30.9274 12.7775 30.8526 12.1094 30.7203L14.2856 30.1992C14.9543 30.3316 15.6339 30.4064 16.3257 30.4204C17.0167 30.4345 17.6938 30.3891 18.3542 30.2843Z" fill="white"/>
</g>
<path d="M16.1992 27.0165C16.7324 27.0273 17.2528 26.9928 17.761 26.9122C17.9177 26.888 18.0724 26.8598 18.2265 26.8272L18.3537 30.2847C17.6933 30.3895 17.0169 30.4355 16.3245 30.4208C15.6328 30.4068 14.9532 30.332 14.2844 30.1996L14.1572 26.7422C14.3132 26.7812 14.4711 26.8157 14.6297 26.847C15.1437 26.9487 15.6673 27.0056 16.1992 27.0165Z" fill="white"/>
<mask id="mask1_508_2946" style="mask-type:luminance" maskUnits="userSpaceOnUse" x="1" y="6" width="5" height="5">
<path d="M3.33965 10.0834L1.16406 10.6044C1.60519 9.16913 2.24834 7.84829 3.05771 6.68218L5.2333 6.16113C4.42392 7.32661 3.78077 8.64808 3.33965 10.0834Z" fill="white"/>
</mask>
<g mask="url(#mask1_508_2946)">
<path d="M3.33965 10.0834L1.16406 10.6044C1.60519 9.16913 2.24834 7.84829 3.05771 6.68218L5.2333 6.16113C4.42392 7.32661 3.78077 8.64808 3.33965 10.0834Z" fill="white"/>
</g>
<path d="M6.50637 19.5449C6.92768 20.6644 7.49667 21.7033 8.18713 22.629C8.29197 22.7703 8.40002 22.9084 8.51062 23.0445L5.91501 24.717C5.01741 23.5157 4.27772 22.1655 3.73047 20.7123L6.32736 19.0386C6.38362 19.2086 6.44308 19.3774 6.50637 19.5449Z" fill="white"/>
<path d="M5.91643 24.7166L3.7402 25.2377C2.84196 24.0357 2.10292 22.6861 1.55566 21.2323L3.73189 20.7119C4.27914 22.1651 5.01819 23.5153 5.91643 24.7166Z" fill="white"/>
<mask id="mask2_508_2946" style="mask-type:luminance" maskUnits="userSpaceOnUse" x="1" y="20" width="5" height="6">
<path d="M5.91545 24.7161L3.73922 25.2372C2.84099 24.0352 2.10194 22.6856 1.55469 21.2318L3.73091 20.7114C4.27816 22.1646 5.01721 23.5148 5.91545 24.7161Z" fill="white"/>
</mask>
<g mask="url(#mask2_508_2946)">
<path d="M5.91545 24.7161L3.73922 25.2372C2.84099 24.0352 2.10194 22.6856 1.55469 21.2318L3.73091 20.7114C4.27816 22.1646 5.01721 23.5148 5.91545 24.7161Z" fill="white"/>
</g>
<path d="M13.2102 1.0166C13.2102 1.0166 13.058 1.04793 12.7723 1.10611C12.4871 1.16556 12.0735 1.27041 11.5582 1.43855C11.0455 1.61245 10.4305 1.85155 9.76557 2.20701C9.10133 2.56184 8.38913 3.0311 7.68141 3.62694C6.97624 4.22407 6.27556 4.94841 5.64903 5.80126C5.57231 5.90867 5.49559 6.01735 5.4176 6.12668L5.35942 6.20851L5.34472 6.22897L5.33385 6.24623L5.307 6.28971L5.19831 6.4636C5.05447 6.69631 4.90359 6.9303 4.76038 7.17005C4.63252 7.41491 4.50274 7.66168 4.37232 7.91166C4.30327 8.03441 4.24382 8.16291 4.18947 8.29525C4.13258 8.42631 4.07568 8.55801 4.01814 8.69035C3.9606 8.82269 3.9037 8.95503 3.84552 9.08864C3.79758 9.2261 3.75027 9.36355 3.70232 9.50228C3.65437 9.64037 3.60642 9.77911 3.55783 9.91848L3.48495 10.1275L3.43061 10.3385C3.35581 10.6288 3.27973 10.9203 3.20429 11.2144C3.16082 11.3608 3.14036 11.5085 3.11543 11.6561L3.03999 12.1005C2.91596 12.6893 2.8987 13.3043 2.83924 13.9129C2.82454 14.2185 2.83477 14.5261 2.83157 14.8329L2.83093 15.2939C2.82965 15.4332 2.85267 15.5995 2.86226 15.751L2.93194 16.6799C2.96839 16.9855 3.02401 17.2841 3.06876 17.5865L3.13972 18.0378C3.16721 18.1874 3.20941 18.3351 3.24329 18.4834C3.31489 18.7801 3.38586 19.0754 3.45746 19.3702C3.55144 19.6579 3.64478 19.9449 3.73748 20.2301L3.87557 20.652C3.93311 20.7914 3.99065 20.9301 4.04819 21.0688C4.16774 21.3425 4.26555 21.6289 4.40045 21.8865C4.53023 22.1474 4.65937 22.4069 4.78723 22.6639C4.92341 22.9171 5.0762 23.1607 5.21749 23.4056C5.35494 23.6542 5.51477 23.885 5.67204 24.1139C5.75004 24.229 5.8274 24.3434 5.90475 24.4566L6.02047 24.6267L6.14514 24.7846C6.31519 24.9994 6.48333 25.211 6.64956 25.4207C6.80938 25.6368 6.99159 25.8215 7.1674 26.0082C7.34321 26.1949 7.51646 26.379 7.68652 26.56C7.86617 26.7319 8.05349 26.8905 8.23186 27.0522C8.41406 27.2089 8.58092 27.3776 8.76696 27.5164C8.953 27.6545 9.13457 27.79 9.3123 27.9217C9.49258 28.0496 9.65689 28.1934 9.84165 28.297C10.2029 28.515 10.5366 28.7394 10.8671 28.919C11.2053 29.0859 11.5218 29.2425 11.8139 29.387C12.1125 29.5181 12.3983 29.6127 12.6502 29.7118C12.7774 29.7597 12.8969 29.8051 13.0101 29.848C13.1232 29.8908 13.2351 29.9125 13.3355 29.9426C13.5388 29.9976 13.7121 30.0449 13.8527 30.0826C14.134 30.1587 14.2842 30.1996 14.2842 30.1996C14.2842 30.1996 14.1327 30.1651 13.8489 30.1011C13.7069 30.0692 13.5311 30.0289 13.3246 29.9829C13.2223 29.9567 13.1085 29.9407 12.9935 29.9017C12.8784 29.8627 12.7569 29.8205 12.6278 29.7764C12.3714 29.6849 12.0805 29.5986 11.7756 29.4759C11.4764 29.3391 11.1522 29.192 10.8064 29.0341C10.4669 28.8634 10.1229 28.648 9.75023 28.4383C9.55907 28.3398 9.39157 28.1966 9.20617 28.0707C9.02333 27.9402 8.83665 27.8066 8.64549 27.6698C8.45434 27.533 8.28236 27.3655 8.0944 27.2101C7.91028 27.0497 7.71721 26.8918 7.53117 26.7204C7.35344 26.5389 7.17251 26.3541 6.98903 26.1668C6.80491 25.9794 6.61375 25.7915 6.45201 25.5805C6.28195 25.3747 6.10997 25.1656 5.93544 24.9546L5.80119 24.791L5.68036 24.6203C5.5998 24.5065 5.51861 24.3914 5.43678 24.2763C5.35494 24.1606 5.27311 24.0449 5.19 23.9279C5.10817 23.8109 5.0404 23.6837 4.96432 23.5609C4.81856 23.3116 4.66193 23.0661 4.52064 22.8072C4.38766 22.5438 4.25341 22.2778 4.11787 22.0099C3.97722 21.7433 3.88069 21.4646 3.75858 21.1897C3.7004 21.0516 3.64222 20.9128 3.58341 20.7741C3.53418 20.6284 3.48495 20.4819 3.43572 20.3349C3.33919 20.0447 3.24201 19.7525 3.1442 19.4597C3.07004 19.1598 2.99524 18.8594 2.9198 18.5576C2.884 18.4061 2.84052 18.2565 2.81175 18.103L2.73567 17.6383C2.68773 17.3282 2.62827 17.0168 2.58991 16.7068L2.51511 15.7778C2.50616 15.6193 2.4857 15.4761 2.48634 15.3047L2.48954 14.8342C2.49465 14.5209 2.48698 14.207 2.5036 13.895C2.56818 13.273 2.58991 12.6503 2.72161 12.0397L2.8028 11.582C2.82965 11.4298 2.85331 11.2764 2.89678 11.1319C2.97478 10.8391 3.05214 10.5476 3.12885 10.258L3.18831 10.0348L3.26375 9.82194C3.31361 9.68001 3.36412 9.53872 3.41335 9.39743C3.46321 9.25678 3.51308 9.11613 3.56231 8.97612C3.62176 8.84059 3.68122 8.70505 3.74068 8.57015C3.80013 8.4359 3.85895 8.30164 3.91841 8.16802C3.97467 8.03377 4.03604 7.90207 4.10892 7.77548C4.24765 7.51975 4.38447 7.26722 4.52 7.01661C4.66896 6.77814 4.82304 6.54863 4.972 6.31783L5.08388 6.1465L5.11201 6.10366L5.12927 6.07873L5.14461 6.05827L5.20535 5.9758C5.28654 5.86584 5.36709 5.75715 5.44764 5.64847C6.10294 4.79178 6.83048 4.06871 7.55802 3.47542C8.2862 2.88086 9.02461 2.42822 9.70739 2.0913C10.3908 1.7531 11.018 1.53189 11.539 1.3727C11.8011 1.29854 12.0351 1.23013 12.2436 1.1905C12.4507 1.14574 12.6259 1.10483 12.7703 1.08565C13.0568 1.04089 13.2102 1.0166 13.2102 1.0166Z" fill="white"/>
<path d="M19.5566 20.0943C19.0226 20.0943 18.5924 19.9122 18.266 19.5481C17.9397 19.1839 17.7023 18.6516 17.554 17.9513C17.4106 17.2416 17.3389 16.3872 17.3389 15.388C17.3389 14.3888 17.4106 13.5391 17.554 12.8387C17.7023 12.1384 17.9397 11.6061 18.266 11.2419C18.5924 10.8684 19.0226 10.6816 19.5566 10.6816C20.0956 10.6816 20.5258 10.8684 20.8472 11.2419C21.1735 11.6061 21.4109 12.1384 21.5592 12.8387C21.7076 13.5391 21.7818 14.3888 21.7818 15.388C21.7818 16.3872 21.7076 17.2416 21.5592 17.9513C21.4109 18.6516 21.1735 19.1839 20.8472 19.5481C20.5258 19.9122 20.0956 20.0943 19.5566 20.0943ZM19.5566 18.1614C19.9324 18.1614 20.192 17.9279 20.3354 17.461C20.4838 16.9848 20.5579 16.2938 20.5579 15.388C20.5579 14.4822 20.4838 13.7959 20.3354 13.329C20.192 12.8527 19.9324 12.6146 19.5566 12.6146C19.1808 12.6146 18.9187 12.8527 18.7704 13.329C18.627 13.7959 18.5553 14.4822 18.5553 15.388C18.5553 16.2938 18.627 16.9848 18.7704 17.461C18.9187 17.9279 19.1808 18.1614 19.5566 18.1614Z" fill="#4B4B4B"/>
<path d="M14.6533 20.0943C14.1192 20.0943 13.689 19.9122 13.3627 19.5481C13.0363 19.1839 12.799 18.6516 12.6506 17.9513C12.5072 17.2416 12.4355 16.3872 12.4355 15.388C12.4355 14.3888 12.5072 13.5391 12.6506 12.8387C12.799 12.1384 13.0363 11.6061 13.3627 11.2419C13.689 10.8684 14.1192 10.6816 14.6533 10.6816C15.1923 10.6816 15.6225 10.8684 15.9439 11.2419C16.2702 11.6061 16.5076 12.1384 16.6559 12.8387C16.8043 13.5391 16.8784 14.3888 16.8784 15.388C16.8784 16.3872 16.8043 17.2416 16.6559 17.9513C16.5076 18.6516 16.2702 19.1839 15.9439 19.5481C15.6225 19.9122 15.1923 20.0943 14.6533 20.0943ZM14.6533 18.1614C15.0291 18.1614 15.2887 17.9279 15.4321 17.461C15.5804 16.9848 15.6546 16.2938 15.6546 15.388C15.6546 14.4822 15.5804 13.7959 15.4321 13.329C15.2887 12.8527 15.0291 12.6146 14.6533 12.6146C14.2775 12.6146 14.0154 12.8527 13.8671 13.329C13.7237 13.7959 13.652 14.4822 13.652 15.388C13.652 16.2938 13.7237 16.9848 13.8671 17.461C14.0154 17.9279 14.2775 18.1614 14.6533 18.1614Z" fill="#4B4B4B"/>
<path d="M10.6358 19.8422V12.8947L9.84961 13.1329V11.2419L11.83 10.6816V19.8422H10.6358Z" fill="#4B4B4B"/>
</svg>
