<svg width="16" height="11" viewBox="0 0 16 11" fill="none" xmlns="http://www.w3.org/2000/svg">
<path d="M1.26293 6.21113C1.2485 6.19584 1.23406 6.18054 1.21996 6.16528C1.18963 6.13256 1.16003 6.09925 1.13108 6.06601C1.11766 6.05048 1.10421 6.03528 1.09112 6.01978C1.05844 5.98054 1.02677 5.94107 0.996484 5.90107C0.990611 5.89322 0.984055 5.88564 0.978182 5.87779C0.941427 5.82922 0.906705 5.78018 0.873983 5.73101C0.867611 5.72145 0.861928 5.71163 0.855555 5.70208C0.830159 5.66288 0.805449 5.62341 0.782413 5.58377C0.773261 5.56865 0.765122 5.5533 0.756329 5.53788C0.737386 5.50394 0.7188 5.46969 0.701561 5.43525C0.69266 5.4175 0.68409 5.39979 0.675517 5.38207C0.658138 5.34563 0.641778 5.30895 0.626432 5.27204C0.620796 5.25825 0.614474 5.24472 0.609135 5.23129C0.58831 5.17895 0.568823 5.1264 0.552031 5.07345C0.534974 5.01981 0.520246 4.96606 0.507487 4.9125C0.504149 4.89893 0.501469 4.88543 0.498788 4.87192C0.489353 4.82862 0.481234 4.78544 0.474457 4.74206C0.472229 4.72727 0.469667 4.71245 0.467799 4.69736C0.46017 4.63866 0.454187 4.58012 0.451217 4.52121C0.449192 4.47662 0.44851 4.43184 0.449502 4.38689C0.435346 5.07089 0.420828 5.75519 0.406673 6.43919C0.405712 6.48381 0.406425 6.52827 0.40845 6.57285C0.411093 6.63174 0.417051 6.69061 0.42468 6.74931C0.425427 6.75534 0.425553 6.76098 0.4263 6.76702C0.427717 6.77643 0.430115 6.78593 0.431533 6.79534C0.437905 6.83604 0.445263 6.87682 0.454293 6.91744C0.45657 6.92825 0.457835 6.93931 0.46044 6.95016C0.461843 6.95625 0.463902 6.96241 0.465634 6.96854C0.477223 7.01702 0.490512 7.065 0.505446 7.11313C0.50671 7.11723 0.507649 7.1213 0.508913 7.12539C0.509709 7.12746 0.510207 7.12916 0.511003 7.13122C0.527124 7.1808 0.545274 7.2299 0.564741 7.27914C0.566895 7.28431 0.568394 7.28943 0.570548 7.2946C0.575654 7.30701 0.582075 7.31955 0.587477 7.33233C0.601825 7.36583 0.616504 7.39937 0.632524 7.4327C0.636662 7.44138 0.640104 7.45032 0.644539 7.45936C0.649567 7.46912 0.655252 7.47894 0.66028 7.48869C0.676457 7.52039 0.693 7.55178 0.710554 7.58294C0.717331 7.59519 0.723423 7.6077 0.730201 7.61994C0.733871 7.62658 0.738557 7.633 0.742555 7.63967C0.764201 7.67653 0.787483 7.71354 0.811129 7.75025C0.817205 7.75945 0.822264 7.76887 0.82834 7.77807C0.829496 7.77983 0.83098 7.78163 0.832136 7.7834C0.864296 7.83153 0.898136 7.87949 0.933672 7.92695C0.935422 7.92944 0.936874 7.93156 0.938623 7.93405C0.946543 7.94474 0.955806 7.95524 0.964085 7.96564C0.9915 8.00105 1.01956 8.03654 1.04868 8.07146C1.05343 8.07721 1.05752 8.0829 1.0626 8.08869C1.07124 8.09879 1.08086 8.10899 1.08983 8.11912C1.11756 8.15126 1.14628 8.18349 1.17571 8.21513C1.18412 8.22421 1.1918 8.23389 1.20053 8.24301C1.20742 8.25062 1.21565 8.25804 1.2229 8.26536C1.25602 8.3 1.2905 8.33444 1.32535 8.36825C1.33537 8.37782 1.34404 8.3876 1.35405 8.39717C1.35738 8.40047 1.36107 8.40347 1.36472 8.4068C1.41147 8.45136 1.45959 8.49539 1.50974 8.53894C1.51705 8.54561 1.52472 8.55197 1.53236 8.55867C1.54675 8.57098 1.56249 8.58308 1.57721 8.59542C1.61675 8.62869 1.65695 8.66202 1.69853 8.69482C1.70715 8.70161 1.71509 8.70867 1.72368 8.71578C1.73787 8.72675 1.7534 8.73751 1.76759 8.74847C1.80986 8.78101 1.85317 8.81298 1.89717 8.84469C1.91175 8.85503 1.92495 8.8659 1.93986 8.87627C1.9501 8.88354 1.96105 8.89022 1.97099 8.89714C2.03246 8.94012 2.09567 8.98228 2.16058 9.02394C2.16933 9.02942 2.17736 9.03549 2.18611 9.04096C2.18766 9.04211 2.18957 9.04295 2.19144 9.04412C2.27201 9.09523 2.35599 9.14534 2.44137 9.19459C2.45173 9.20056 2.46107 9.20675 2.47143 9.21271C2.48465 9.21994 2.49889 9.22693 2.51208 9.23449C2.60232 9.28487 2.69427 9.33475 2.78969 9.38297C2.79571 9.38587 2.80134 9.38939 2.80735 9.39228C2.80926 9.39313 2.81147 9.39433 2.81337 9.39518C2.88637 9.43198 2.96076 9.46792 3.03657 9.50301C3.09111 9.52844 3.14668 9.55363 3.20295 9.57823C3.22235 9.58672 3.24243 9.59493 3.26185 9.60309C3.29081 9.61547 3.31976 9.62785 3.34908 9.63993C3.40608 9.66394 3.46379 9.68735 3.52252 9.71053C3.55125 9.72189 3.57997 9.73326 3.60872 9.74429C3.62246 9.74958 3.63552 9.75514 3.64925 9.76043C3.66493 9.76624 3.68197 9.77151 3.69794 9.77768C3.82331 9.82446 3.9515 9.86954 4.08283 9.91292C4.09663 9.91755 4.10942 9.92242 4.12322 9.92705C4.13094 9.92945 4.13898 9.93188 4.14703 9.9343C4.17049 9.94185 4.19431 9.9491 4.21813 9.95635C4.28886 9.97869 4.36031 10.0004 4.43279 10.022C4.46534 10.0314 4.49823 10.0408 4.53115 10.0499C4.56469 10.0594 4.59721 10.0692 4.63111 10.0784C4.65565 10.085 4.68123 10.0911 4.7058 10.0975C4.76587 10.1135 4.82632 10.1292 4.88747 10.1443C4.93957 10.1573 4.99198 10.1702 5.04476 10.1829C5.105 10.1973 5.16595 10.2111 5.22727 10.2246C5.26165 10.2322 5.29529 10.2407 5.33003 10.248C5.37161 10.2566 5.41316 10.2656 5.45509 10.2739C5.5672 10.2965 5.6791 10.3179 5.79182 10.3376C5.81789 10.3421 5.84403 10.3459 5.87011 10.3504C5.94766 10.3638 6.02555 10.3772 6.10359 10.389C6.10914 10.3898 6.11471 10.3904 6.12026 10.3912C6.28971 10.4171 6.45953 10.439 6.62958 10.4586C6.64858 10.4607 6.66749 10.4638 6.68649 10.466C6.71207 10.4688 6.73737 10.4709 6.76294 10.4736C6.82229 10.48 6.88203 10.4857 6.94148 10.4911C6.9743 10.4942 7.00706 10.498 7.03991 10.5008C7.06653 10.5031 7.09289 10.5046 7.11951 10.5068C7.16388 10.5104 7.20796 10.5136 7.25236 10.5169C7.28033 10.5189 7.30856 10.5216 7.33655 10.5233C7.37837 10.526 7.41991 10.5279 7.46143 10.5303C7.49569 10.5322 7.52993 10.5345 7.56422 10.5361C7.5784 10.5368 7.59254 10.5379 7.60639 10.5385C7.69247 10.5425 7.77862 10.5457 7.86449 10.5483C7.86548 10.5484 7.86646 10.5485 7.8678 10.5483C7.88565 10.5487 7.90318 10.549 7.92103 10.5494C7.98744 10.5512 8.05353 10.5528 8.11939 10.5535C8.15312 10.5541 8.18689 10.5544 8.22098 10.5546C8.27131 10.5548 8.32131 10.555 8.37137 10.5545C8.45786 10.5541 8.54445 10.5528 8.6304 10.5511C8.68286 10.5498 8.73473 10.5479 8.78689 10.5462C8.80517 10.5457 8.82376 10.5451 8.84204 10.5445C8.85998 10.5439 8.8779 10.5437 8.89588 10.5427C8.98734 10.5389 9.07885 10.5344 9.17014 10.5289C9.24277 10.5246 9.31516 10.5193 9.38759 10.5136C9.39926 10.5128 9.41127 10.5119 9.42295 10.5111C9.43263 10.5103 9.44259 10.51 9.45227 10.5092C9.54906 10.5016 9.64497 10.4929 9.74097 10.4832C9.81591 10.4755 9.89058 10.4671 9.96496 10.4583C9.97837 10.4566 9.99207 10.4553 10.0055 10.4539C10.0148 10.4528 10.0242 10.452 10.0336 10.4506C10.1321 10.4385 10.2308 10.4255 10.3282 10.4113C10.4061 10.3998 10.4838 10.3881 10.5609 10.3756C10.5881 10.3712 10.615 10.3668 10.642 10.3621C10.6948 10.3533 10.7468 10.3434 10.799 10.3338C10.8365 10.3271 10.8742 10.3204 10.9113 10.3134C10.9197 10.3119 10.9282 10.3104 10.9366 10.3089C11.0024 10.2963 11.0673 10.2826 11.1322 10.269C11.1603 10.263 11.1889 10.2578 11.217 10.2516C11.2214 10.2507 11.2258 10.2498 11.2302 10.2489C11.3252 10.2282 11.4201 10.2064 11.5134 10.1836C11.5168 10.1826 11.5205 10.1819 11.5238 10.1813C11.6229 10.157 11.721 10.1319 11.818 10.1054C11.82 10.1049 11.8221 10.1041 11.8241 10.1037C11.8693 10.0914 11.9137 10.0778 11.9583 10.0652C12.0104 10.0503 12.0631 10.0358 12.1147 10.0202C12.1174 10.0195 12.1198 10.0184 12.1222 10.0176C12.2065 9.99189 12.2892 9.96503 12.371 9.93775C12.3857 9.93286 12.4007 9.92867 12.4151 9.92342L12.4165 9.92289C12.5171 9.8888 12.6166 9.85328 12.7142 9.81658C12.7166 9.81582 12.7193 9.81475 12.7214 9.81396C12.7392 9.80739 12.7558 9.80003 12.7734 9.7931C12.8538 9.76238 12.9331 9.73088 13.011 9.69826C13.0203 9.69452 13.03 9.6908 13.0393 9.68706C13.0614 9.67758 13.0822 9.66732 13.1043 9.65784C13.1776 9.6261 13.2503 9.59364 13.3214 9.56037C13.3384 9.55239 13.3563 9.54516 13.373 9.53715C13.3875 9.53027 13.4005 9.52257 13.4151 9.51568C13.5231 9.46342 13.629 9.40962 13.7307 9.35378C13.7328 9.35265 13.7349 9.35153 13.737 9.3504C13.737 9.3504 13.738 9.34984 13.7387 9.34958C13.7642 9.33579 13.7882 9.32086 13.8134 9.30671C13.8642 9.27778 13.915 9.24919 13.9642 9.21945C13.993 9.20201 14.0202 9.18408 14.0484 9.16657C14.0854 9.14328 14.123 9.12071 14.1591 9.09701C14.1662 9.09205 14.1733 9.0871 14.1804 9.08248C14.2009 9.06888 14.2208 9.05488 14.241 9.04092C14.2856 9.01041 14.3293 8.97948 14.3724 8.94817C14.3952 8.93147 14.4181 8.91444 14.4406 8.89738C14.4816 8.86653 14.5214 8.83523 14.5605 8.80353C14.5803 8.78754 14.6003 8.7719 14.6194 8.75584C14.6763 8.70862 14.7319 8.66061 14.785 8.61137C14.9752 8.4368 15.1402 8.25319 15.2788 8.05876C15.4169 7.86528 15.5228 7.66906 15.5977 7.47119C15.6898 7.23289 15.7369 6.99327 15.7418 6.75491C15.756 6.07058 15.7705 5.38694 15.7847 4.70261C15.7797 4.94097 15.7326 5.18059 15.6405 5.41889C15.5653 5.61672 15.459 5.81292 15.3213 6.00643C15.1827 6.20086 15.0181 6.3845 14.8275 6.55903C14.7744 6.60828 14.7184 6.65625 14.6615 6.7038C14.6432 6.71927 14.6238 6.73431 14.6052 6.74942C14.5646 6.7823 14.5234 6.81446 14.4813 6.84653C14.4598 6.8627 14.4384 6.87854 14.4171 6.89438C14.3729 6.92659 14.3278 6.95838 14.282 6.98977C14.2625 7.00314 14.2433 7.01687 14.2232 7.02985C14.1783 7.05967 14.1318 7.08867 14.0853 7.118C14.0595 7.13409 14.0348 7.15027 14.0088 7.166C13.9501 7.20145 13.8898 7.23576 13.8289 7.27001C13.8138 7.2785 13.7991 7.28736 13.7837 7.29582C13.7777 7.29923 13.7715 7.30227 13.7655 7.30535C13.6663 7.35944 13.5632 7.41185 13.4583 7.46275C13.427 7.47798 13.3958 7.49287 13.3642 7.50774C13.2931 7.54101 13.2208 7.57317 13.1472 7.60521C13.1161 7.6188 13.0856 7.63244 13.0539 7.64563C12.9763 7.67795 12.8967 7.70942 12.8169 7.74021C12.7959 7.74846 12.7752 7.75708 12.754 7.76498C12.6591 7.80029 12.5631 7.83482 12.4655 7.8682C12.4165 7.88471 12.366 7.90008 12.3165 7.91621C12.2659 7.93256 12.2162 7.94934 12.1651 7.96465C12.1108 7.98131 12.0557 7.99657 12.0009 8.01219C11.9559 8.02511 11.9119 8.03845 11.8667 8.05068C11.6687 8.10493 11.4659 8.15408 11.2592 8.19888C11.2352 8.20387 11.2109 8.20883 11.1866 8.21379C11.1078 8.2301 11.0287 8.24638 10.9491 8.26161C10.914 8.26819 10.878 8.27434 10.8426 8.28089C10.7631 8.29513 10.6835 8.30971 10.6027 8.32284C10.42 8.35239 10.235 8.3784 10.0477 8.40087C10.034 8.40254 10.0202 8.40387 10.0065 8.40554C9.82793 8.42653 9.64735 8.44435 9.46547 8.45841C9.45278 8.45951 9.44015 8.45996 9.42779 8.46109C9.24729 8.47461 9.06545 8.48469 8.88259 8.4917C8.86531 8.49236 8.84838 8.49273 8.83142 8.49342C8.64265 8.49986 8.45289 8.50289 8.26252 8.50188C8.15325 8.50136 8.04415 8.49919 7.93445 8.4963C7.92752 8.49597 7.9209 8.496 7.91395 8.496C7.81022 8.49302 7.70629 8.4887 7.60245 8.48339C7.57114 8.48172 7.53987 8.47972 7.50856 8.47805C7.43609 8.47376 7.36366 8.46914 7.29126 8.46419C7.24849 8.46109 7.2054 8.45796 7.16234 8.4545C7.10217 8.44973 7.04207 8.44431 6.982 8.43855C6.92259 8.43286 6.86318 8.42718 6.8038 8.42116C6.75952 8.41659 6.7153 8.41136 6.67141 8.40616C6.50071 8.3865 6.32991 8.36452 6.15981 8.33862C6.08863 8.32783 6.0179 8.31576 5.94681 8.30398C5.90771 8.29726 5.86818 8.29148 5.82878 8.2844C5.71769 8.26482 5.60674 8.24392 5.49627 8.22142C5.42153 8.20631 5.34858 8.18972 5.27528 8.17343C5.21072 8.15929 5.14621 8.1445 5.0824 8.12945C5.03123 8.11726 4.98074 8.10481 4.93029 8.09203C4.86851 8.07651 4.80742 8.06072 4.74701 8.04467C4.70566 8.03375 4.66469 8.02221 4.62403 8.01103C4.47174 7.96862 4.32259 7.92452 4.17737 7.87749C4.16163 7.87234 4.14659 7.86693 4.13085 7.86177C3.99725 7.81784 3.86749 7.77196 3.74022 7.72433C3.71015 7.71317 3.67971 7.70231 3.65001 7.69085C3.6203 7.67939 3.59128 7.66767 3.56222 7.65627C3.50573 7.63397 3.44962 7.61104 3.3945 7.58821C3.36298 7.57492 3.33179 7.56166 3.30092 7.54844C3.22585 7.51608 3.15146 7.48345 3.07884 7.44966C3.00178 7.41379 2.92609 7.3774 2.85214 7.34017C2.84836 7.33815 2.84491 7.33617 2.84109 7.33448C2.74124 7.28417 2.64488 7.23188 2.55056 7.17912C2.52885 7.16711 2.50748 7.15512 2.48647 7.14284C2.3998 7.09314 2.31487 7.0426 2.23371 6.99077C2.2237 6.98452 2.21409 6.97763 2.20409 6.97137C2.13793 6.92893 2.07384 6.8857 2.01112 6.84193C1.98815 6.82582 1.96551 6.80974 1.94319 6.79369C1.89765 6.76084 1.85311 6.72775 1.80926 6.6944C1.78645 6.67665 1.76328 6.65919 1.74112 6.6415C1.69954 6.6087 1.65967 6.5754 1.6198 6.5421C1.59741 6.5234 1.57436 6.50463 1.55266 6.48566C1.50251 6.4421 1.45441 6.39774 1.40764 6.35351C1.39459 6.341 1.3822 6.32855 1.36948 6.31607C1.33266 6.28207 1.29727 6.24688 1.26293 6.21113Z" fill="#2F3734"/>
<path d="M2.84097 7.33579C2.74111 7.28548 2.64476 7.23319 2.55043 7.18044C2.52873 7.16842 2.50736 7.15644 2.48634 7.14415C2.39967 7.09445 2.31474 7.04392 2.23358 6.99209C2.22358 6.98583 2.21397 6.97895 2.20397 6.97269C2.13781 6.93025 2.07371 6.88701 2.01099 6.84324C1.98802 6.82713 1.96538 6.81105 1.94307 6.795C1.89752 6.76215 1.85298 6.72907 1.80914 6.69572C1.78633 6.67796 1.76315 6.66051 1.741 6.64282C1.69942 6.61002 1.65955 6.57672 1.61967 6.54342C1.59728 6.52471 1.57424 6.50594 1.55254 6.48697L1.50974 8.53894C1.51705 8.54561 1.52469 8.5523 1.53233 8.559C1.54672 8.5713 1.56246 8.58341 1.57717 8.59575C1.61672 8.62902 1.65692 8.66235 1.6985 8.69515C1.70712 8.70194 1.71506 8.70899 1.72365 8.71611C1.73784 8.72708 1.75337 8.73784 1.76756 8.7488C1.80982 8.78134 1.85314 8.81331 1.89714 8.84502C1.91172 8.85536 1.92492 8.86623 1.93983 8.8766C1.95006 8.88387 1.96102 8.89055 1.97096 8.89747C2.03243 8.94045 2.09564 8.98261 2.16055 9.02427C2.1693 9.02975 2.17733 9.03582 2.18608 9.04129C2.18763 9.04243 2.18954 9.04328 2.19141 9.04445C2.27198 9.09556 2.35596 9.14567 2.44134 9.19492C2.4517 9.20088 2.46104 9.20708 2.4714 9.21304C2.48462 9.22027 2.49886 9.22726 2.51204 9.23482C2.60229 9.2852 2.69424 9.33508 2.78966 9.3833C2.79568 9.3862 2.8013 9.38972 2.80732 9.39261C2.80923 9.39346 2.81143 9.39466 2.81334 9.39551C2.88634 9.43231 2.96074 9.46825 3.03687 9.50337L3.07969 7.45107C3.00263 7.4152 2.92696 7.3788 2.85301 7.34158C2.84821 7.33979 2.84475 7.33781 2.84097 7.33579Z" fill="white"/>
<path d="M15.2785 8.06139C15.4166 7.86791 15.5225 7.67168 15.5975 7.47381L15.6406 5.42154C15.5654 5.61938 15.4591 5.81558 15.3213 6.00908C15.1828 6.20351 15.0181 6.38716 14.8275 6.56169L14.7847 8.61399C14.9753 8.43946 15.14 8.25549 15.2785 8.06139Z" fill="white"/>
<path d="M9.46528 8.46037C9.45259 8.46148 9.43997 8.46193 9.4276 8.46306C9.2471 8.47658 9.06526 8.48666 8.88241 8.49367C8.86512 8.49433 8.84819 8.4947 8.83123 8.49539C8.64246 8.50183 8.4527 8.50486 8.26233 8.50385L8.2195 10.5562C8.26983 10.5563 8.31984 10.5565 8.36991 10.556C8.45639 10.5556 8.54298 10.5543 8.62894 10.5526C8.68139 10.5514 8.73326 10.5494 8.78542 10.5477C8.8037 10.5472 8.82229 10.5466 8.84057 10.5461C8.85851 10.5455 8.87643 10.5452 8.89441 10.5443C8.98587 10.5404 9.07738 10.5359 9.16867 10.5304C9.2413 10.5261 9.31369 10.5208 9.38612 10.5152C9.39779 10.5143 9.4098 10.5135 9.42148 10.5126C9.43116 10.5119 9.44112 10.5115 9.4508 10.5108C9.54759 10.5031 9.6435 10.4944 9.7395 10.4847C9.81444 10.477 9.8891 10.4686 9.96348 10.4598C9.97689 10.4581 9.9906 10.4568 10.004 10.4554C10.0134 10.4543 10.0227 10.4536 10.0321 10.4521C10.1307 10.44 10.2293 10.427 10.3267 10.4128C10.4047 10.4014 10.4823 10.3896 10.5594 10.3771L10.6022 8.32478C10.4195 8.35432 10.2345 8.38033 10.0472 8.40281C10.0334 8.40447 10.0197 8.40581 10.006 8.40748C9.82741 8.42847 9.64716 8.44632 9.46528 8.46037Z" fill="white"/>
<path d="M1.5522 6.48694C1.95961 6.84362 2.47229 7.16964 3.07831 7.4516C3.76968 7.77286 4.58211 8.03716 5.49585 8.22237C6.40851 8.40848 7.3455 8.49953 8.26196 8.50415C9.06546 8.50888 9.85476 8.44732 10.6018 8.32508C12.362 8.04247 13.8904 7.42695 14.8275 6.56235C15.0174 6.38808 15.1821 6.20411 15.321 6.00905C15.4587 5.81653 15.5653 5.61971 15.6409 5.42223C16.0175 4.44367 15.6414 3.44141 14.6808 2.60443C14.2742 2.24916 13.7602 1.92301 13.1555 1.64118C12.4642 1.31992 11.6521 1.05566 10.7394 0.869547C9.82563 0.684658 8.8883 0.593576 7.97184 0.588961C7.16736 0.584138 6.37773 0.64566 5.63065 0.767902C3.87167 1.05195 2.34331 1.66748 1.40589 2.53204C1.21596 2.70631 1.05156 2.89064 0.913778 3.08415C0.774981 3.27789 0.669469 3.47349 0.592805 3.67219C0.216274 4.65009 0.592093 5.65134 1.5522 6.48694Z" fill="#2F3734"/>
<path d="M6.20292 1.63758C6.77862 1.54431 7.38631 1.49749 8.00547 1.50047C8.09819 1.50074 8.19043 1.50261 8.28326 1.50521L7.97155 0.588603C7.1677 0.58417 6.37807 0.645693 5.63006 0.767184L5.94181 1.68346C6.02816 1.66722 6.11541 1.65206 6.20292 1.63758Z" fill="white"/>
<path d="M13.1688 3.05226C13.2168 3.09395 13.2625 3.13609 13.3067 3.17875L14.6814 2.6045C14.2739 2.2488 13.7613 1.92212 13.1559 1.64056L11.7802 2.21505C11.8531 2.24588 11.9246 2.27757 11.9944 2.31009C12.4599 2.52691 12.8558 2.77848 13.1688 3.05226Z" fill="white"/>
<path d="M2.27963 4.01359C2.29341 3.96654 2.30917 3.91969 2.32688 3.87302C2.38452 3.72087 2.46657 3.56972 2.57293 3.42058C2.67894 3.27173 2.80581 3.12985 2.95247 2.99582C2.99751 2.95442 3.04414 2.91384 3.09236 2.87374L1.40596 2.53139C1.21665 2.70605 1.0516 2.89032 0.913522 3.08346C0.774992 3.27789 0.669136 3.47346 0.593222 3.67124L2.27963 4.01359Z" fill="white"/>
<path d="M13.907 5.21976C13.8493 5.37191 13.7673 5.52273 13.661 5.67155C13.5546 5.82102 13.428 5.96293 13.2814 6.09696C13.2363 6.13836 13.1897 6.17894 13.1415 6.21872L14.8276 6.56104C15.0179 6.38647 15.1829 6.20286 15.3214 6.00843C15.4592 5.81492 15.5654 5.61873 15.6407 5.42089L13.9546 5.07857C13.9408 5.12594 13.925 5.17312 13.907 5.21976Z" fill="white"/>
<path d="M10.6025 8.32514L10.2914 7.40893C10.2051 7.42517 10.1178 7.44066 10.03 7.45478C9.45558 7.54818 8.84655 7.59519 8.2288 7.59136C8.13608 7.59109 8.04315 7.58948 7.95032 7.58688L8.26233 8.50385C9.06519 8.50819 9.85482 8.44666 10.6025 8.32514Z" fill="white"/>
<path d="M3.07831 7.4516L4.45374 6.87675C4.38116 6.84595 4.3097 6.81393 4.24023 6.78177C3.77305 6.56512 3.3777 6.31426 3.06373 6.0404C3.01604 5.99873 2.97009 5.95624 2.92582 5.91357L1.55181 6.48756C1.95898 6.84323 2.47229 7.16964 3.07831 7.4516Z" fill="white"/>
<path d="M2.92618 5.91328C2.97046 5.95594 3.01641 5.99844 3.06409 6.0401C3.37806 6.31397 3.7734 6.56482 4.24059 6.78147C4.31002 6.81396 4.38152 6.84565 4.45409 6.87645C4.93695 7.08169 5.48846 7.25143 6.10031 7.37561C6.7102 7.4996 7.33429 7.56864 7.95035 7.58656C8.04318 7.58915 8.13611 7.59076 8.22884 7.59103C8.84662 7.59454 9.45558 7.54818 10.03 7.45478C10.1178 7.44066 10.2051 7.42484 10.2914 7.4086C11.4523 7.18917 12.4638 6.77856 13.1415 6.21872C13.1897 6.17894 13.2364 6.13803 13.2814 6.09696C13.428 5.96293 13.5545 5.82135 13.6609 5.67187C13.7673 5.52306 13.8493 5.37191 13.907 5.21976C13.925 5.17279 13.9408 5.12627 13.9545 5.07923C14.1458 4.42047 13.9005 3.75468 13.3067 3.17908C13.2624 3.13642 13.2168 3.09395 13.1688 3.05226C12.8558 2.77848 12.4602 2.52727 11.994 2.31071C11.9242 2.27819 11.8527 2.2465 11.7798 2.21567C11.2969 2.01076 10.7444 1.84093 10.1349 1.7173C9.523 1.59312 8.89957 1.52415 8.28353 1.5059C8.1907 1.5033 8.09812 1.50139 8.00573 1.50116C7.38661 1.49785 6.77889 1.545 6.20319 1.63827C6.11571 1.65242 6.02843 1.66791 5.9424 1.68418C4.78254 1.9037 3.771 2.31431 3.09299 2.87413C3.04479 2.9139 2.99782 2.95478 2.95311 2.99621C2.80645 3.13024 2.6799 3.27215 2.57356 3.42097C2.46716 3.57044 2.38481 3.72123 2.32751 3.87341C2.30979 3.92008 2.29401 3.96726 2.28026 4.01398C2.08902 4.67241 2.33343 5.33711 2.92618 5.91328Z" fill="#2F3734"/>
<path d="M10.8704 7.10795C10.8368 7.07557 10.7602 7.06261 10.699 7.07861C10.4411 7.14601 10.1711 7.2023 9.89349 7.24727C9.80935 7.26107 9.72367 7.27374 9.63775 7.28538C9.59814 7.29086 9.56825 7.30556 9.55521 7.32419C9.5464 7.33659 9.54505 7.35071 9.55268 7.36436C9.5715 7.39961 9.64174 7.42025 9.70817 7.41138C9.79815 7.39879 9.88754 7.38549 9.97534 7.37137C10.266 7.32468 10.5473 7.26548 10.8173 7.19561C10.8465 7.18814 10.8669 7.17585 10.8776 7.1613C10.8895 7.14455 10.888 7.12553 10.8704 7.10795Z" fill="white"/>
<path d="M12.8644 2.96216C12.8256 2.93161 12.7463 2.92269 12.6888 2.94203C12.6659 2.94944 12.6499 2.9605 12.6411 2.97258C12.6277 2.9915 12.6316 3.0134 12.655 3.03155C12.7083 3.07375 12.7599 3.11579 12.8091 3.15893C12.957 3.28837 13.0859 3.42294 13.1946 3.56154C13.2205 3.59516 13.294 3.61247 13.3585 3.60009C13.3929 3.59312 13.4181 3.57963 13.4299 3.56288C13.4403 3.5483 13.4406 3.53176 13.4278 3.51597C13.3151 3.37135 13.1802 3.23024 13.0249 3.09512C12.9733 3.04976 12.9202 3.00527 12.8644 2.96216Z" fill="white"/>
<path d="M2.80401 5.57364C2.82961 5.60723 2.90315 5.62454 2.96833 5.61157C3.00275 5.60493 3.02793 5.59111 3.03944 5.57465C3.04978 5.56007 3.05 5.54386 3.03793 5.52813C2.89495 5.34352 2.78813 5.15143 2.72046 4.95515C2.70863 4.91956 2.64275 4.89504 2.57397 4.90071C2.52828 4.90395 2.49261 4.92008 2.4777 4.94084C2.47043 4.95108 2.46799 4.96277 2.47247 4.97479C2.5423 5.17957 2.65423 5.38042 2.80401 5.57364Z" fill="white"/>
<path d="M4.41368 2.31723C4.45869 2.34539 4.53774 2.34997 4.59054 2.32787C4.88549 2.20539 5.2037 2.09939 5.54067 2.01208C5.56918 2.00487 5.58927 1.99222 5.59958 1.97797C5.61145 1.96122 5.60996 1.94219 5.5924 1.92494C5.56007 1.89237 5.4835 1.87907 5.42234 1.89508C5.06978 1.9862 4.73689 2.09676 4.42941 2.22565C4.41149 2.23288 4.39899 2.24228 4.39172 2.25252C4.37645 2.27358 4.38368 2.29845 4.41368 2.31723Z" fill="white"/>
<path d="M6.44528 1.75983C6.4658 1.79459 6.53568 1.81553 6.60248 1.80635C6.96788 1.75754 7.346 1.72816 7.72966 1.72051C7.78113 1.71915 7.8225 1.70224 7.83927 1.67933C7.84537 1.67097 7.84789 1.66194 7.84648 1.65253C7.84229 1.61668 7.78108 1.5883 7.71133 1.59023C7.30973 1.59848 6.91494 1.62891 6.53238 1.68039C6.49211 1.68581 6.46183 1.70113 6.44842 1.72005C6.43932 1.7321 6.43767 1.74585 6.44528 1.75983Z" fill="white"/>
<path d="M4.13647 6.61317C4.18632 6.63914 4.26611 6.63949 4.3139 6.61426C4.32644 6.60784 4.33579 6.60012 4.34157 6.59173C4.35804 6.56847 4.34805 6.54134 4.31148 6.52194C4.03419 6.38044 3.78841 6.22474 3.57516 6.0579C3.53665 6.02772 3.45872 6.01827 3.40053 6.03787C3.37763 6.04528 3.36133 6.05631 3.35252 6.06872C3.33915 6.08731 3.34301 6.10921 3.36678 6.12739C3.58826 6.30163 3.8456 6.46474 4.13647 6.61317Z" fill="white"/>
<path d="M13.76 4.11455C13.7485 4.079 13.6823 4.05444 13.6139 4.05948C13.5685 4.06342 13.5332 4.07925 13.5183 4.10034C13.511 4.11058 13.5086 4.12194 13.5124 4.1339C13.5793 4.32812 13.6077 4.52562 13.5947 4.72412C13.5922 4.76032 13.6465 4.79136 13.7172 4.79349C13.7727 4.79516 13.8217 4.77799 13.8397 4.75255C13.844 4.74633 13.8469 4.73999 13.8473 4.73273C13.8599 4.52426 13.8301 4.31703 13.76 4.11455Z" fill="white"/>
<path d="M12.6194 6.34031C12.5637 6.31708 12.4844 6.32109 12.4417 6.3488C12.2057 6.50275 11.9391 6.64086 11.6482 6.7624C11.6309 6.76969 11.6181 6.77906 11.6108 6.7893C11.5959 6.81039 11.6028 6.83523 11.6328 6.85401C11.6775 6.88213 11.7565 6.88672 11.8107 6.86441C12.1147 6.73718 12.3932 6.59259 12.6408 6.43179C12.6493 6.42631 12.6554 6.42061 12.6597 6.41439C12.6783 6.38901 12.6633 6.35909 12.6194 6.34031Z" fill="white"/>
<path d="M8.64626 7.4349C8.64076 7.39893 8.58086 7.37067 8.51078 7.37257C8.41456 7.37429 8.3177 7.37561 8.22041 7.37458C7.93731 7.37331 7.65203 7.36023 7.36589 7.33548C7.30543 7.33036 7.24976 7.34788 7.22986 7.37579C7.22712 7.38016 7.22475 7.38424 7.22332 7.38874C7.21429 7.42432 7.26242 7.45774 7.33109 7.46366C7.6304 7.48934 7.92916 7.50337 8.22483 7.50485C8.32648 7.50531 8.4279 7.50475 8.5295 7.50223C8.58062 7.50116 8.62228 7.48461 8.63875 7.46134C8.64482 7.45331 8.64768 7.44431 8.64626 7.4349Z" fill="white"/>
<path d="M11.149 2.08206C11.0899 2.06216 11.0119 2.07092 10.9746 2.10048C10.97 2.10401 10.9663 2.10829 10.9633 2.11198C10.9434 2.13988 10.964 2.17333 11.0153 2.19116C11.265 2.27502 11.5002 2.36843 11.7174 2.46973C11.7866 2.50153 11.8537 2.53412 11.918 2.56745C11.9679 2.59342 12.0487 2.59387 12.0968 2.56867C12.109 2.56222 12.1184 2.5545 12.1241 2.54644C12.1406 2.52317 12.13 2.49565 12.0927 2.47652C12.0252 2.44123 11.9546 2.40698 11.8833 2.37365C11.6565 2.26813 11.4109 2.17007 11.149 2.08206Z" fill="white"/>
<path d="M2.38788 4.35686C2.38579 4.39243 2.44009 4.4238 2.51008 4.4262C2.56623 4.42793 2.61492 4.41073 2.63292 4.38529C2.63716 4.37907 2.64009 4.37273 2.64045 4.36548C2.65003 4.217 2.68278 4.06875 2.7403 3.92122C2.75736 3.8745 2.77732 3.82871 2.79927 3.78278C2.81717 3.74805 2.77555 3.71227 2.70861 3.70221C2.64422 3.69307 2.58025 3.71079 2.5581 3.74147C2.5566 3.74331 2.55576 3.74522 2.55455 3.74742C2.53175 3.79525 2.51119 3.84397 2.492 3.89215C2.43283 4.04648 2.39838 4.20218 2.38788 4.35686Z" fill="white"/>
<path d="M3.0222 3.26054C3.08451 3.27744 3.16057 3.26485 3.19108 3.23332C3.23231 3.19023 3.27581 3.14769 3.32154 3.10603C3.46149 2.97633 3.62026 2.85406 3.79635 2.7414C3.80449 2.73589 3.8107 2.72986 3.81527 2.72367C3.83363 2.69794 3.81865 2.66768 3.7747 2.64923C3.71926 2.62637 3.63971 2.63034 3.59664 2.65802C3.4137 2.77664 3.24742 2.90448 3.10001 3.03943C3.05242 3.08324 3.00677 3.12756 2.96401 3.17282C2.96215 3.17496 2.96029 3.1771 2.95876 3.17927C2.9373 3.20968 2.9637 3.24533 3.0222 3.26054Z" fill="white"/>
<path d="M5.08085 7.00769C5.41356 7.12037 5.77331 7.2171 6.15775 7.29465L6.1701 7.29716C6.2341 7.31025 6.30616 7.29462 6.3302 7.26148C6.35434 7.22736 6.3212 7.1894 6.25523 7.17613L6.24386 7.17371C5.87636 7.0991 5.53238 7.0072 5.21377 6.89951C5.15469 6.87994 5.07709 6.88775 5.03942 6.91793C5.03475 6.92179 5.03105 6.92574 5.02802 6.92975C5.00812 6.95766 5.02851 6.99042 5.08085 7.00769Z" fill="white"/>
<path d="M8.76648 1.68232C8.75649 1.71747 8.80464 1.7509 8.87422 1.75757C9.24545 1.7898 9.61702 1.84261 9.98485 1.91725C10.0505 1.93082 10.123 1.91391 10.1467 1.88107C10.1704 1.84757 10.136 1.80949 10.0713 1.79667C9.68721 1.71849 9.29764 1.66329 8.90902 1.62939C8.84958 1.62403 8.79292 1.64146 8.77303 1.66937C8.7697 1.67303 8.7679 1.67782 8.76648 1.68232Z" fill="white"/>
<path d="M13.6806 5.34184C13.6985 5.30712 13.6566 5.2713 13.5896 5.26125C13.5259 5.25217 13.4623 5.26959 13.4405 5.29964C13.439 5.30181 13.4374 5.30431 13.4366 5.30655C13.3903 5.40249 13.3328 5.49735 13.2658 5.59164C13.2004 5.68309 13.1274 5.77117 13.0466 5.85685C13.0448 5.85899 13.0429 5.86113 13.0414 5.8633C13.0196 5.89368 13.0463 5.92936 13.1052 5.9446C13.1671 5.96147 13.2435 5.94891 13.2731 5.91696C13.3588 5.82778 13.4349 5.73569 13.5033 5.63989C13.573 5.54156 13.6323 5.44156 13.6806 5.34184Z" fill="white"/>
<path d="M13.0975 5.5573C13.0018 5.6919 12.8879 5.81913 12.7565 5.9397C12.1086 6.53751 11.052 6.96269 9.83569 7.15892C9.31846 7.24354 8.77217 7.28564 8.21664 7.28246C7.58324 7.27945 6.93572 7.21645 6.30436 7.08841C5.67237 6.95999 5.11149 6.77742 4.63231 6.55465C4.21433 6.36026 3.85896 6.13477 3.57782 5.88823C2.91441 5.30961 2.65474 4.6176 2.91461 3.94123C2.96713 3.80448 3.04038 3.66906 3.13608 3.53446C3.23172 3.40052 3.3456 3.27329 3.47673 3.15269C4.12522 2.55527 5.18122 2.13003 6.39751 1.93347C6.91472 1.84917 7.46104 1.80675 8.01559 1.80983C8.65131 1.81274 9.29788 1.87532 9.92986 2.00374C10.5612 2.13178 11.1231 2.31444 11.6 2.53699C12.0189 2.73213 12.3739 2.95759 12.6554 3.2035C13.3192 3.78216 13.5791 4.47485 13.3183 5.15113C13.2664 5.28794 13.1932 5.42336 13.0975 5.5573Z" fill="white"/>
<path d="M0.451185 4.52153C0.451185 4.52153 0.460634 4.59233 0.478354 4.72554C0.49909 4.85837 0.550902 5.04717 0.646493 5.27694C0.752826 5.50177 0.909481 5.76157 1.13727 6.02221C1.36466 6.28348 1.66488 6.53483 2.01361 6.78122C2.35673 7.0274 2.77279 7.24181 3.2147 7.43882C3.44188 7.53279 3.6747 7.63359 3.91788 7.70921C4.03929 7.74899 4.15941 7.79528 4.2851 7.83183C4.41085 7.86772 4.53788 7.90406 4.6659 7.9405C4.73008 7.95858 4.79427 7.97665 4.85909 7.99511C4.92457 8.00999 4.99039 8.02491 5.05621 8.03982C5.18816 8.06968 5.3211 8.09964 5.455 8.13002C5.72114 8.18035 6.0009 8.23032 6.27688 8.27133C6.41538 8.28823 6.55455 8.3052 6.69403 8.3222L6.90366 8.34692L7.11552 8.36223C7.25665 8.37244 7.39811 8.38267 7.53987 8.39326C7.68164 8.40021 7.82397 8.40126 7.96599 8.40558C8.24983 8.41984 8.53289 8.41117 8.81932 8.40879C8.96114 8.40481 9.10121 8.39504 9.24197 8.38831L9.45207 8.37696L9.66132 8.35725C10.2206 8.31441 10.7617 8.21882 11.2879 8.11385C11.4171 8.08282 11.5449 8.052 11.672 8.02178C11.7354 8.00632 11.7985 7.99116 11.8612 7.97596C11.9233 7.95772 11.985 7.93945 12.0467 7.92151C12.1697 7.88559 12.2913 7.84987 12.4113 7.81432C12.5303 7.7757 12.6456 7.73043 12.7608 7.68978C12.9931 7.61298 13.207 7.51024 13.4175 7.41843C13.5246 7.37536 13.621 7.31701 13.7193 7.26581C13.8165 7.21284 13.9133 7.16315 14.0058 7.11072C14.3647 6.88374 14.6837 6.65558 14.9294 6.41145C15.1867 6.17308 15.3519 5.92522 15.4869 5.71224C15.5413 5.60085 15.5899 5.50149 15.6323 5.41512C15.6636 5.32338 15.6942 5.24581 15.7126 5.18166C15.7436 5.05146 15.7602 4.98184 15.7602 4.98184C15.7602 4.98184 15.7469 5.05211 15.7219 5.18454C15.7064 5.24996 15.6797 5.32823 15.6525 5.42169C15.614 5.51241 15.569 5.61543 15.5166 5.73065C15.3925 5.94402 15.225 6.21285 14.9772 6.45843C14.8632 6.58996 14.7116 6.70727 14.5638 6.83589C14.4913 6.90381 14.4063 6.9586 14.3208 7.017C14.2354 7.07573 14.1482 7.13562 14.0588 7.19696C13.9661 7.25234 13.8693 7.30501 13.7715 7.36091C13.6729 7.41506 13.5756 7.47663 13.4681 7.52266C13.2567 7.62034 13.0412 7.72955 12.8077 7.81253C12.6919 7.85642 12.5759 7.90462 12.456 7.94646C12.3351 7.9849 12.2124 8.02384 12.0888 8.06301C12.0266 8.08256 11.9644 8.10244 11.9019 8.12229C11.8381 8.13838 11.7739 8.15443 11.7094 8.17045C11.5802 8.20246 11.4499 8.2347 11.3186 8.26718C10.7941 8.37562 10.2418 8.47742 9.67777 8.52445L9.46604 8.54591L9.25213 8.55888C9.1096 8.56677 8.9658 8.57751 8.82287 8.5827C8.53924 8.58701 8.25033 8.5981 7.96239 8.5851C7.81849 8.57961 7.6746 8.57742 7.53129 8.56933C7.38795 8.55792 7.24462 8.54651 7.10194 8.53517L6.88794 8.51799L6.67453 8.49126C6.53251 8.47302 6.39118 8.45452 6.25015 8.43638C5.96983 8.39231 5.69902 8.3422 5.42332 8.28797C5.2882 8.25648 5.15374 8.22506 5.02027 8.19373C4.95353 8.17806 4.88711 8.16243 4.82067 8.14712C4.75523 8.12827 4.69013 8.10944 4.62535 8.09065C4.49581 8.05274 4.36724 8.01526 4.23997 7.97789C4.11271 7.94053 3.99001 7.89003 3.86695 7.84677C3.61862 7.76271 3.38951 7.65762 3.16444 7.55889C2.71411 7.34617 2.30349 7.12333 1.9539 6.86162C1.60652 6.60808 1.30862 6.3394 1.08744 6.06514C0.864854 5.79174 0.714794 5.52198 0.615061 5.29049C0.525318 5.05499 0.484425 4.85928 0.4693 4.72666C0.457286 4.59268 0.451185 4.52153 0.451185 4.52153Z" fill="white"/>
</svg>
