<svg width="17" height="11" viewBox="0 0 17 11" fill="none" xmlns="http://www.w3.org/2000/svg">
<path d="M1.63208 6.05586C1.61764 6.04056 1.6032 6.02527 1.5891 6.01001C1.55877 5.97729 1.52917 5.94398 1.50022 5.91073C1.4868 5.8952 1.47335 5.88 1.46026 5.86451C1.42758 5.82527 1.39591 5.7858 1.36562 5.7458C1.35975 5.73795 1.3532 5.73037 1.34732 5.72252C1.31057 5.67395 1.27585 5.62491 1.24312 5.57573C1.23675 5.56618 1.23107 5.55636 1.2247 5.5468C1.1993 5.5076 1.17459 5.46814 1.15155 5.4285C1.1424 5.41338 1.13426 5.39802 1.12547 5.38261C1.10653 5.34866 1.08794 5.31442 1.0707 5.27998C1.0618 5.26223 1.05323 5.24452 1.04466 5.2268C1.02728 5.19036 1.01092 5.15368 0.995572 5.11676C0.989937 5.10297 0.983614 5.08945 0.978275 5.07602C0.95745 5.02367 0.937964 4.97113 0.921172 4.91818C0.904115 4.86454 0.889386 4.81079 0.876628 4.75723C0.87329 4.74366 0.87061 4.73015 0.867928 4.71665C0.858494 4.67334 0.850375 4.63016 0.843597 4.58678C0.84137 4.572 0.838807 4.55718 0.836939 4.54209C0.82931 4.48339 0.823328 4.42485 0.820357 4.36593C0.818333 4.32135 0.81765 4.27657 0.818643 4.23161C0.804487 4.91561 0.789969 5.59991 0.775813 6.28391C0.774852 6.32854 0.775566 6.373 0.777591 6.41758C0.780233 6.47646 0.786192 6.53533 0.793821 6.59403C0.794568 6.60007 0.794693 6.60571 0.79544 6.61174C0.796858 6.62115 0.799256 6.63066 0.800674 6.64007C0.807046 6.68076 0.814404 6.72155 0.823434 6.76216C0.82571 6.77298 0.826976 6.78403 0.82958 6.79488C0.830984 6.80098 0.833043 6.80714 0.834775 6.81327C0.846364 6.86175 0.859653 6.90972 0.874587 6.95786C0.875851 6.96196 0.876789 6.96602 0.878053 6.97012C0.878849 6.97218 0.879347 6.97389 0.880144 6.97595C0.896265 7.02552 0.914414 7.07463 0.933881 7.12386C0.936036 7.12904 0.937535 7.13415 0.939689 7.13933C0.944794 7.15174 0.951216 7.16428 0.956618 7.17706C0.970966 7.21056 0.985645 7.2441 1.00167 7.27743C1.0058 7.28611 1.00924 7.29505 1.01368 7.30409C1.01871 7.31384 1.02439 7.32366 1.02942 7.33342C1.0456 7.36511 1.06214 7.39651 1.07969 7.42767C1.08647 7.43991 1.09256 7.45242 1.09934 7.46467C1.10301 7.47131 1.1077 7.47772 1.1117 7.4844C1.13334 7.52125 1.15662 7.55826 1.18027 7.59498C1.18635 7.60417 1.1914 7.6136 1.19748 7.62279C1.19864 7.62456 1.20012 7.62636 1.20128 7.62813C1.23344 7.67626 1.26728 7.72422 1.30281 7.77168C1.30456 7.77416 1.30601 7.77629 1.30776 7.77877C1.31568 7.78947 1.32495 7.79996 1.33323 7.81036C1.36064 7.84578 1.38871 7.88126 1.41782 7.91618C1.42257 7.92194 1.42666 7.92763 1.43174 7.93342C1.44038 7.94352 1.45 7.95371 1.45897 7.96385C1.4867 7.99598 1.51542 8.02822 1.54485 8.05985C1.55326 8.06894 1.56094 8.07862 1.56967 8.08774C1.57656 8.09535 1.58479 8.10277 1.59204 8.11008C1.62516 8.14473 1.65964 8.17916 1.69449 8.21298C1.70451 8.22255 1.71318 8.23232 1.72319 8.24189C1.72652 8.24519 1.73021 8.2482 1.73386 8.25153C1.78061 8.29608 1.82873 8.34011 1.87888 8.38367C1.88619 8.39033 1.89387 8.3967 1.90151 8.40339C1.9159 8.4157 1.93163 8.42781 1.94635 8.44015C1.98589 8.47342 2.02609 8.50675 2.06767 8.53955C2.07629 8.54634 2.08423 8.55339 2.09282 8.56051C2.10701 8.57147 2.12254 8.58223 2.13673 8.5932C2.179 8.62573 2.22231 8.65771 2.26631 8.68941C2.28089 8.69975 2.2941 8.71062 2.309 8.721C2.31924 8.72827 2.33019 8.73495 2.34013 8.74186C2.4016 8.78485 2.46481 8.82701 2.52972 8.86867C2.53847 8.87414 2.5465 8.88021 2.55526 8.88569C2.5568 8.88683 2.55871 8.88768 2.56058 8.88885C2.64115 8.93996 2.72513 8.99007 2.81051 9.03932C2.82087 9.04528 2.83021 9.05148 2.84057 9.05744C2.85379 9.06467 2.86803 9.07166 2.88122 9.07922C2.97146 9.1296 3.06341 9.17948 3.15883 9.2277C3.16485 9.2306 3.17048 9.23412 3.17649 9.23701C3.1784 9.23786 3.18061 9.23906 3.18251 9.23991C3.25551 9.27671 3.32991 9.31265 3.40571 9.34774C3.46025 9.37316 3.51582 9.39836 3.57209 9.42296C3.59149 9.43144 3.61157 9.43966 3.63099 9.44781C3.65995 9.46019 3.6889 9.47257 3.71822 9.48466C3.77522 9.50866 3.83293 9.53208 3.89166 9.55526C3.92039 9.56662 3.94911 9.57798 3.97787 9.58902C3.9916 9.59431 4.00466 9.59987 4.01839 9.60516C4.03407 9.61096 4.05111 9.61624 4.06708 9.6224C4.19245 9.66919 4.32065 9.71426 4.45197 9.75764C4.46577 9.76228 4.47856 9.76714 4.49236 9.77178C4.50008 9.77417 4.50812 9.7766 4.51617 9.77903C4.53963 9.78657 4.56345 9.79382 4.58727 9.80107C4.658 9.82342 4.72945 9.84516 4.80193 9.86668C4.83448 9.87609 4.86737 9.88553 4.90029 9.89465C4.93383 9.90415 4.96635 9.91389 5.00025 9.9231C5.02479 9.92976 5.05037 9.93585 5.07494 9.94218C5.13502 9.9582 5.19546 9.97393 5.25661 9.98906C5.30871 10.002 5.36112 10.015 5.4139 10.0276C5.47414 10.042 5.53509 10.0558 5.59641 10.0693C5.63079 10.0769 5.66443 10.0854 5.69917 10.0927C5.74075 10.1013 5.7823 10.1103 5.82423 10.1186C5.93634 10.1413 6.04824 10.1626 6.16096 10.1823C6.18704 10.1868 6.21318 10.1906 6.23925 10.1951C6.3168 10.2085 6.39469 10.2219 6.47273 10.2337C6.47828 10.2346 6.48386 10.2351 6.4894 10.236C6.65885 10.2618 6.82867 10.2837 6.99872 10.3033C7.01772 10.3054 7.03663 10.3086 7.05564 10.3107C7.08121 10.3135 7.10651 10.3156 7.13208 10.3184C7.19143 10.3247 7.25117 10.3304 7.31062 10.3358C7.34344 10.3389 7.3762 10.3427 7.40905 10.3456C7.43567 10.3478 7.46203 10.3493 7.48865 10.3515C7.53302 10.3551 7.5771 10.3583 7.62151 10.3616C7.64947 10.3636 7.6777 10.3663 7.7057 10.368C7.74751 10.3707 7.78905 10.3727 7.83057 10.375C7.86483 10.3769 7.89907 10.3792 7.93336 10.3809C7.94754 10.3816 7.96168 10.3826 7.97553 10.3832C8.06161 10.3872 8.14776 10.3905 8.23363 10.3931C8.23462 10.3931 8.2356 10.3932 8.23694 10.393C8.25479 10.3934 8.27232 10.3938 8.29017 10.3942C8.35658 10.3959 8.42267 10.3976 8.48853 10.3982C8.52226 10.3988 8.55603 10.3991 8.59012 10.3994C8.64045 10.3995 8.69045 10.3997 8.74052 10.3992C8.827 10.3989 8.91359 10.3975 8.99954 10.3958C9.052 10.3946 9.10387 10.3926 9.15603 10.3909C9.17431 10.3904 9.19291 10.3898 9.21118 10.3893C9.22912 10.3887 9.24704 10.3884 9.26502 10.3875C9.35648 10.3836 9.448 10.3792 9.53928 10.3737C9.61191 10.3693 9.6843 10.364 9.75673 10.3584C9.7684 10.3575 9.78041 10.3567 9.79209 10.3558C9.80177 10.3551 9.81173 10.3547 9.82141 10.354C9.9182 10.3463 10.0141 10.3376 10.1101 10.3279C10.185 10.3202 10.2597 10.3118 10.3341 10.303C10.3475 10.3013 10.3612 10.3 10.3746 10.2986C10.384 10.2975 10.3933 10.2968 10.4027 10.2953C10.5013 10.2833 10.5999 10.2702 10.6973 10.256C10.7753 10.2446 10.8529 10.2328 10.93 10.2203C10.9572 10.2159 10.9842 10.2116 11.0111 10.2069C11.064 10.198 11.1159 10.1881 11.1682 10.1785C11.2056 10.1718 11.2433 10.1652 11.2804 10.1581C11.2889 10.1566 11.2973 10.1551 11.3057 10.1536C11.3715 10.141 11.4364 10.1273 11.5013 10.1137C11.5294 10.1078 11.558 10.1026 11.5861 10.0963C11.5905 10.0954 11.5949 10.0945 11.5993 10.0936C11.6944 10.0729 11.7892 10.0512 11.8825 10.0283C11.8859 10.0273 11.8896 10.0267 11.893 10.026C11.992 10.0017 12.0902 9.97662 12.1871 9.95013C12.1891 9.94966 12.1912 9.94887 12.1932 9.9484C12.2385 9.93617 12.2828 9.92253 12.3274 9.90991C12.3796 9.89502 12.4323 9.88053 12.4838 9.86492C12.4865 9.86419 12.4889 9.8631 12.4913 9.86233C12.5756 9.83662 12.6583 9.80976 12.7401 9.78248C12.7548 9.77759 12.7698 9.77339 12.7842 9.76815L12.7856 9.76762C12.8863 9.73353 12.9857 9.69801 13.0833 9.66131C13.0857 9.66054 13.0885 9.65948 13.0905 9.65868C13.1084 9.65211 13.125 9.64476 13.1425 9.63783C13.223 9.60711 13.3022 9.5756 13.3802 9.54299C13.3895 9.53924 13.3991 9.53553 13.4084 9.53178C13.4305 9.52231 13.4514 9.51205 13.4735 9.50257C13.5467 9.47083 13.6194 9.43837 13.6905 9.4051C13.7075 9.39712 13.7254 9.38989 13.7421 9.38188C13.7567 9.37499 13.7697 9.36729 13.7842 9.36041C13.8923 9.30814 13.9981 9.25435 14.0998 9.1985C14.1019 9.19738 14.104 9.19626 14.1061 9.19513C14.1061 9.19513 14.1072 9.19457 14.1079 9.1943C14.1334 9.18051 14.1573 9.16558 14.1825 9.15143C14.2333 9.12251 14.2841 9.09392 14.3333 9.06418C14.3622 9.04674 14.3894 9.0288 14.4176 9.0113C14.4546 8.98801 14.4922 8.96544 14.5282 8.94173C14.5353 8.93678 14.5424 8.93183 14.5495 8.92721C14.57 8.9136 14.5899 8.89961 14.6101 8.88564C14.6548 8.85514 14.6985 8.82421 14.7416 8.79289C14.7644 8.77619 14.7872 8.75917 14.8097 8.74211C14.8507 8.71126 14.8905 8.67995 14.9297 8.64826C14.9494 8.63226 14.9695 8.61663 14.9885 8.60057C15.0454 8.55334 15.101 8.50534 15.1541 8.45609C15.3444 8.28153 15.5094 8.09792 15.6479 7.90349C15.786 7.71001 15.8919 7.51378 15.9669 7.31592C16.0589 7.07762 16.106 6.838 16.111 6.59964C16.1252 5.91531 16.1396 5.23167 16.1538 4.54734C16.1489 4.7857 16.1017 5.02532 16.0097 5.26361C15.9344 5.46145 15.8282 5.65765 15.6904 5.85115C15.5519 6.04558 15.3872 6.22923 15.1966 6.40376C15.1435 6.453 15.0876 6.50098 15.0307 6.54853C15.0123 6.56399 14.993 6.57904 14.9743 6.59415C14.9337 6.62703 14.8926 6.65919 14.8504 6.69126C14.829 6.70743 14.8076 6.72327 14.7862 6.73911C14.742 6.77131 14.6969 6.8031 14.6512 6.8345C14.6317 6.84787 14.6125 6.8616 14.5924 6.87458C14.5474 6.90439 14.5009 6.9334 14.4544 6.96273C14.4287 6.97882 14.4039 6.995 14.3779 7.01072C14.3192 7.04618 14.2589 7.08049 14.198 7.11473C14.183 7.12323 14.1682 7.13208 14.1528 7.14055C14.1469 7.14395 14.1406 7.147 14.1347 7.15007C14.0354 7.20417 13.9324 7.25658 13.8275 7.30748C13.7962 7.3227 13.7649 7.3376 13.7334 7.35247C13.6623 7.38574 13.59 7.4179 13.5163 7.44994C13.4852 7.46352 13.4548 7.47717 13.423 7.49036C13.3454 7.52268 13.2659 7.55415 13.1861 7.58493C13.1651 7.59319 13.1444 7.60181 13.1231 7.60971C13.0283 7.64502 12.9322 7.67954 12.8346 7.71293C12.7857 7.72944 12.7352 7.74481 12.6856 7.76093C12.635 7.77729 12.5854 7.79407 12.5342 7.80937C12.48 7.82604 12.4248 7.8413 12.37 7.85692C12.325 7.86984 12.281 7.88318 12.2358 7.89541C12.0378 7.94966 11.835 7.99881 11.6283 8.04361C11.6044 8.0486 11.58 8.05356 11.5557 8.05852C11.477 8.07483 11.3979 8.0911 11.3183 8.10633C11.2832 8.11291 11.2471 8.11907 11.2117 8.12562C11.1322 8.13986 11.0526 8.15444 10.9719 8.16757C10.7892 8.19711 10.6042 8.22312 10.4168 8.2456C10.4031 8.24726 10.3894 8.2486 10.3756 8.25027C10.1971 8.27126 10.0165 8.28908 9.83461 8.30313C9.82192 8.30424 9.8093 8.30468 9.79693 8.30582C9.61643 8.31934 9.43459 8.32942 9.25174 8.33642C9.23445 8.33709 9.21752 8.33745 9.20056 8.33815C9.01179 8.34458 8.82203 8.34761 8.63166 8.34661C8.52239 8.34608 8.41329 8.34392 8.30359 8.34103C8.29666 8.3407 8.29004 8.34073 8.28309 8.34072C8.17936 8.33775 8.07543 8.33343 7.97159 8.32812C7.94028 8.32645 7.90901 8.32445 7.8777 8.32277C7.80523 8.31848 7.7328 8.31387 7.6604 8.30892C7.61763 8.30582 7.57454 8.30269 7.53148 8.29923C7.47131 8.29446 7.41121 8.28903 7.35114 8.28328C7.29173 8.27759 7.23232 8.2719 7.17294 8.26588C7.12866 8.26131 7.08444 8.25609 7.04055 8.25089C6.86985 8.23123 6.69905 8.20924 6.52895 8.18335C6.45777 8.17256 6.38704 8.16048 6.31595 8.14871C6.27685 8.14198 6.23732 8.13621 6.19792 8.12912C6.08683 8.10954 5.97588 8.08865 5.86541 8.06615C5.79067 8.05104 5.71772 8.03445 5.64442 8.01815C5.57986 8.00402 5.51535 7.98923 5.45154 7.97418C5.40037 7.96199 5.34988 7.94954 5.29943 7.93676C5.23765 7.92123 5.17656 7.90545 5.11615 7.88939C5.0748 7.87848 5.03383 7.86693 4.99317 7.85575C4.84088 7.81334 4.69173 7.76925 4.54651 7.72222C4.53077 7.71707 4.51573 7.71165 4.49999 7.7065C4.36639 7.66257 4.23663 7.61669 4.10936 7.56906C4.07929 7.5579 4.04886 7.54703 4.01915 7.53557C3.98944 7.52412 3.96042 7.5124 3.93137 7.501C3.87487 7.4787 3.81877 7.45577 3.76365 7.43293C3.73212 7.41965 3.70093 7.40639 3.67006 7.39317C3.59499 7.3608 3.5206 7.32817 3.44798 7.29439C3.37092 7.25852 3.29523 7.22212 3.22129 7.1849C3.2175 7.18288 3.21405 7.18089 3.21024 7.1792C3.11038 7.1289 3.01402 7.07661 2.9197 7.02385C2.89799 7.01183 2.87662 6.99985 2.85561 6.98757C2.76894 6.93786 2.68401 6.88733 2.60285 6.8355C2.59285 6.82924 2.58324 6.82236 2.57323 6.8161C2.50707 6.77366 2.44298 6.73042 2.38026 6.68665C2.35729 6.67054 2.33465 6.65446 2.31233 6.63841C2.26679 6.60556 2.22225 6.57248 2.17841 6.53913C2.15559 6.52138 2.13242 6.50392 2.11026 6.48623C2.06868 6.45343 2.02881 6.42013 1.98894 6.38683C1.96655 6.36812 1.94351 6.34936 1.9218 6.33038C1.87165 6.28682 1.82356 6.24247 1.77678 6.19824C1.76373 6.18573 1.75134 6.17328 1.73862 6.1608C1.7018 6.1268 1.66641 6.09161 1.63208 6.05586Z" fill="#048ABF"/>
<path d="M3.21011 7.18051C3.11025 7.13021 3.0139 7.07792 2.91957 7.02516C2.89787 7.01315 2.8765 7.00116 2.85548 6.98888C2.76881 6.93918 2.68388 6.88864 2.60272 6.83681C2.59272 6.83056 2.58311 6.82367 2.57311 6.81742C2.50695 6.77497 2.44285 6.73174 2.38013 6.68797C2.35716 6.67186 2.33452 6.65578 2.31221 6.63973C2.26666 6.60688 2.22212 6.57379 2.17828 6.54044C2.15547 6.52269 2.13229 6.50524 2.11014 6.48754C2.06856 6.45474 2.02869 6.42145 1.98881 6.38815C1.96642 6.36944 1.94338 6.35067 1.92168 6.3317L1.87888 8.38367C1.88619 8.39033 1.89383 8.39703 1.90147 8.40372C1.91586 8.41603 1.9316 8.42814 1.94632 8.44048C1.98586 8.47375 2.02606 8.50708 2.06764 8.53988C2.07626 8.54667 2.0842 8.55372 2.09279 8.56084C2.10698 8.5718 2.12251 8.58256 2.1367 8.59353C2.17897 8.62606 2.22228 8.65804 2.26628 8.68974C2.28086 8.70008 2.29406 8.71095 2.30897 8.72133C2.31921 8.7286 2.33016 8.73528 2.3401 8.74219C2.40157 8.78518 2.46478 8.82734 2.52969 8.869C2.53844 8.87447 2.54647 8.88054 2.55522 8.88602C2.55677 8.88716 2.55868 8.888 2.56055 8.88918C2.64112 8.94029 2.7251 8.9904 2.81048 9.03965C2.82084 9.04561 2.83018 9.05181 2.84054 9.05777C2.85376 9.06499 2.868 9.07199 2.88119 9.07954C2.97143 9.12992 3.06338 9.1798 3.1588 9.22803C3.16482 9.23092 3.17044 9.23444 3.17646 9.23734C3.17837 9.23818 3.18057 9.23939 3.18248 9.24023C3.25548 9.27704 3.32988 9.31298 3.40601 9.34809L3.44883 7.29579C3.37177 7.25993 3.2961 7.22353 3.22215 7.1863C3.21735 7.18452 3.21389 7.18253 3.21011 7.18051Z" fill="white"/>
<path d="M15.6477 7.90611C15.7858 7.71264 15.8917 7.51641 15.9666 7.31854L16.0098 5.26627C15.9345 5.46411 15.8283 5.6603 15.6905 5.85381C15.552 6.04824 15.3873 6.23188 15.1967 6.40642L15.1538 8.45872C15.3445 8.28419 15.5092 8.10021 15.6477 7.90611Z" fill="white"/>
<path d="M9.83442 8.3051C9.82173 8.3062 9.80911 8.30665 9.79674 8.30779C9.61624 8.32131 9.4344 8.33139 9.25155 8.33839C9.23426 8.33906 9.21733 8.33942 9.20037 8.34012C9.0116 8.34655 8.82184 8.34958 8.63147 8.34858L8.58864 10.4009C8.63897 10.4011 8.68898 10.4012 8.73905 10.4007C8.82553 10.4004 8.91212 10.3991 8.99808 10.3974C9.05053 10.3961 9.1024 10.3941 9.15457 10.3925C9.17284 10.3919 9.19144 10.3914 9.20971 10.3908C9.22765 10.3902 9.24557 10.3899 9.26355 10.389C9.35501 10.3852 9.44653 10.3807 9.53781 10.3752C9.61044 10.3709 9.68283 10.3655 9.75526 10.3599C9.76693 10.359 9.77894 10.3582 9.79062 10.3573C9.8003 10.3566 9.81026 10.3562 9.81994 10.3555C9.91673 10.3479 10.0126 10.3392 10.1086 10.3295C10.1836 10.3217 10.2582 10.3133 10.3326 10.3045C10.346 10.3028 10.3597 10.3015 10.3731 10.3001C10.3825 10.299 10.3919 10.2983 10.4013 10.2969C10.4998 10.2848 10.5985 10.2717 10.6959 10.2575C10.7738 10.2461 10.8515 10.2343 10.9285 10.2218L10.9713 8.16951C10.7886 8.19905 10.6036 8.22506 10.4163 8.24754C10.4026 8.2492 10.3889 8.25054 10.3751 8.2522C10.1966 8.2732 10.0163 8.29105 9.83442 8.3051Z" fill="white"/>
<path d="M1.92134 6.33167C2.32875 6.68835 2.84144 7.01437 3.44746 7.29632C4.13882 7.61759 4.95125 7.88188 5.86499 8.0671C6.77765 8.25321 7.71465 8.34426 8.6311 8.34887C9.4346 8.3536 10.2239 8.29205 10.971 8.16981C12.7312 7.88719 14.2595 7.27167 15.1966 6.40707C15.3865 6.23281 15.5512 6.04883 15.6901 5.85378C15.8278 5.66126 15.9345 5.46444 16.01 5.26696C16.3866 4.2884 16.0106 3.28613 15.0499 2.44916C14.6434 2.09389 14.1294 1.76774 13.5247 1.48591C12.8333 1.16464 12.0212 0.900382 11.1085 0.714274C10.1948 0.529385 9.25744 0.438303 8.34098 0.433688C7.5365 0.428864 6.74687 0.490387 5.99979 0.612629C4.24081 0.896679 2.71245 1.5122 1.77503 2.37677C1.5851 2.55104 1.4207 2.73537 1.28292 2.92888C1.14412 3.12262 1.03861 3.31822 0.961946 3.51692C0.585415 4.49482 0.961234 5.49607 1.92134 6.33167Z" fill="#048ABF"/>
<path d="M6.57206 1.48231C7.14776 1.38903 7.75545 1.34222 8.37461 1.3452C8.46733 1.34546 8.55957 1.34734 8.6524 1.34994L8.34069 0.433329C7.53684 0.428897 6.74721 0.490419 5.9992 0.61191L6.31095 1.52819C6.3973 1.51195 6.48455 1.49678 6.57206 1.48231Z" fill="white"/>
<path d="M13.5379 2.89698C13.5859 2.93868 13.6316 2.98081 13.6759 3.02348L15.0506 2.44922C14.6431 2.09353 14.1304 1.76685 13.5251 1.48529L12.1493 2.05977C12.2222 2.09061 12.2937 2.1223 12.3635 2.15481C12.829 2.37164 13.225 2.62321 13.5379 2.89698Z" fill="white"/>
<path d="M2.64877 3.85831C2.66255 3.81127 2.67831 3.76442 2.69602 3.71775C2.75366 3.56559 2.83571 3.41445 2.94208 3.2653C3.04809 3.11646 3.17495 2.97457 3.32161 2.84055C3.36665 2.79915 3.41328 2.75856 3.4615 2.71846L1.7751 2.37611C1.58579 2.55077 1.42074 2.73504 1.28266 2.92819C1.14413 3.12262 1.03828 3.31819 0.962363 3.51596L2.64877 3.85831Z" fill="white"/>
<path d="M14.2761 5.06448C14.2185 5.21664 14.1365 5.36745 14.0301 5.51627C13.9237 5.66575 13.7972 5.80766 13.6505 5.94168C13.6055 5.98308 13.5588 6.02367 13.5107 6.06344L15.1967 6.40576C15.387 6.2312 15.552 6.04758 15.6905 5.85316C15.8283 5.65965 15.9346 5.46345 16.0098 5.26561L14.3237 4.92329C14.3099 4.97067 14.2941 5.01785 14.2761 5.06448Z" fill="white"/>
<path d="M10.9716 8.16987L10.6605 7.25365C10.5742 7.2699 10.4869 7.28539 10.3991 7.29951C9.82472 7.3929 9.21569 7.43992 8.59794 7.43608C8.50522 7.43582 8.41229 7.43421 8.31946 7.43161L8.63147 8.34858C9.43434 8.35291 10.224 8.29139 10.9716 8.16987Z" fill="white"/>
<path d="M3.44746 7.29632L4.82288 6.72148C4.7503 6.69068 4.67884 6.65866 4.60937 6.6265C4.14219 6.40984 3.74684 6.15899 3.43287 5.88513C3.38518 5.84346 3.33923 5.80096 3.29496 5.7583L1.92095 6.33229C2.32812 6.68796 2.84144 7.01437 3.44746 7.29632Z" fill="white"/>
<path d="M3.29532 5.758C3.3396 5.80067 3.38555 5.84316 3.43324 5.88483C3.7472 6.1587 4.14254 6.40955 4.60973 6.6262C4.67916 6.65869 4.75066 6.69038 4.82323 6.72118C5.30609 6.92642 5.8576 7.09616 6.46945 7.22034C7.07934 7.34433 7.70343 7.41336 8.31949 7.43128C8.41232 7.43388 8.50526 7.43549 8.59798 7.43576C9.21576 7.43926 9.82472 7.3929 10.3991 7.29951C10.4869 7.28539 10.5742 7.26957 10.6606 7.25333C11.8214 7.0339 12.833 6.62329 13.5107 6.06344C13.5588 6.02367 13.6055 5.98276 13.6505 5.94168C13.7972 5.80766 13.9237 5.66608 14.0301 5.5166C14.1364 5.36778 14.2185 5.21664 14.2761 5.06448C14.2942 5.01752 14.3099 4.97099 14.3237 4.92395C14.515 4.26519 14.2697 3.59941 13.6759 3.02381C13.6316 2.98114 13.5859 2.93868 13.5379 2.89698C13.225 2.62321 12.8293 2.372 12.3631 2.15544C12.2934 2.12292 12.2219 2.09123 12.149 2.0604C11.6661 1.85549 11.1136 1.68565 10.504 1.56202C9.89214 1.43784 9.26871 1.36887 8.65267 1.35062C8.55984 1.34803 8.46726 1.34612 8.37487 1.34588C7.75575 1.34258 7.14803 1.38972 6.57233 1.48299C6.48485 1.49714 6.39757 1.51263 6.31154 1.52891C5.15168 1.74843 4.14014 2.15904 3.46213 2.71885C3.41393 2.75863 3.36696 2.79951 3.32225 2.84094C3.17559 2.97497 3.04904 3.11688 2.9427 3.2657C2.8363 3.41517 2.75395 3.56595 2.69665 3.71814C2.67893 3.76481 2.66315 3.81199 2.6494 3.85871C2.45816 4.51714 2.70257 5.18184 3.29532 5.758Z" fill="#048ABF"/>
<path d="M11.2396 6.95267C11.2059 6.9203 11.1293 6.90733 11.0681 6.92334C10.8103 6.99073 10.5402 7.04702 10.2626 7.09199C10.1785 7.1058 10.0928 7.11846 10.0069 7.13011C9.96728 7.13559 9.93739 7.15029 9.92435 7.16891C9.91554 7.18132 9.91419 7.19543 9.92182 7.20908C9.94064 7.24434 10.0109 7.26498 10.0773 7.2561C10.1673 7.24352 10.2567 7.23022 10.3445 7.2161C10.6352 7.1694 10.9164 7.11021 11.1865 7.04034C11.2157 7.03287 11.2361 7.02057 11.2467 7.00603C11.2586 6.98928 11.2571 6.97025 11.2396 6.95267Z" fill="white"/>
<path d="M13.2335 2.80688C13.1947 2.77634 13.1154 2.76741 13.0579 2.78675C13.035 2.79417 13.019 2.80522 13.0103 2.8173C12.9969 2.83623 13.0007 2.85813 13.0242 2.87627C13.0774 2.91847 13.1291 2.96052 13.1783 3.00365C13.3262 3.13309 13.4551 3.26767 13.5637 3.40626C13.5896 3.43988 13.6632 3.45719 13.7276 3.44482C13.7621 3.43785 13.7872 3.42435 13.7991 3.4076C13.8094 3.39302 13.8097 3.37649 13.797 3.36069C13.6843 3.21608 13.5494 3.07497 13.394 2.93985C13.3424 2.89449 13.2894 2.84999 13.2335 2.80688Z" fill="white"/>
<path d="M3.17315 5.41837C3.19875 5.45196 3.27229 5.46927 3.33747 5.4563C3.37189 5.44965 3.39707 5.43583 3.40858 5.41938C3.41892 5.4048 3.41914 5.38859 3.40707 5.37286C3.26409 5.18824 3.15727 4.99616 3.08961 4.79987C3.07778 4.76429 3.01189 4.73976 2.94311 4.74543C2.89742 4.74868 2.86175 4.7648 2.84684 4.78557C2.83957 4.7958 2.83713 4.8075 2.84161 4.81952C2.91144 5.02429 3.02337 5.22515 3.17315 5.41837Z" fill="white"/>
<path d="M4.78282 2.16195C4.82783 2.19011 4.90688 2.1947 4.95968 2.17259C5.25463 2.05012 5.57284 1.94412 5.90981 1.8568C5.93832 1.8496 5.95841 1.83694 5.96872 1.82269C5.9806 1.80594 5.9791 1.78692 5.96154 1.76967C5.92921 1.73709 5.85264 1.7238 5.79148 1.7398C5.43892 1.83092 5.10603 1.94148 4.79855 2.07038C4.78063 2.07761 4.76813 2.08701 4.76086 2.09724C4.74559 2.11831 4.75282 2.14318 4.78282 2.16195Z" fill="white"/>
<path d="M6.81442 1.60456C6.83494 1.63932 6.90482 1.66025 6.97162 1.65108C7.33702 1.60227 7.71514 1.57289 8.0988 1.56524C8.15027 1.56387 8.19164 1.54697 8.20841 1.52406C8.21451 1.5157 8.21704 1.50667 8.21562 1.49725C8.21143 1.46141 8.15022 1.43302 8.08047 1.43496C7.67887 1.44321 7.28408 1.47364 6.90152 1.52512C6.86126 1.53054 6.83097 1.54585 6.81756 1.56478C6.80846 1.57682 6.80681 1.59058 6.81442 1.60456Z" fill="white"/>
<path d="M4.50561 6.45789C4.55546 6.48387 4.63525 6.48422 4.68305 6.45899C4.69558 6.45257 4.70493 6.44485 4.71071 6.43646C4.72718 6.41319 4.71719 6.38607 4.68062 6.36667C4.40334 6.22517 4.15755 6.06946 3.9443 5.90263C3.90579 5.87244 3.82786 5.86299 3.76967 5.8826C3.74677 5.89001 3.73047 5.90104 3.72166 5.91344C3.70829 5.93204 3.71215 5.95394 3.73592 5.97211C3.9574 6.14636 4.21474 6.30947 4.50561 6.45789Z" fill="white"/>
<path d="M14.1292 3.95928C14.1177 3.92372 14.0515 3.89917 13.9831 3.90421C13.9377 3.90814 13.9023 3.92397 13.8874 3.94507C13.8801 3.9553 13.8777 3.96666 13.8815 3.97862C13.9484 4.17285 13.9769 4.37035 13.9638 4.56884C13.9614 4.60504 14.0157 4.63608 14.0864 4.63821C14.1419 4.63988 14.1909 4.62271 14.2089 4.59728C14.2131 4.59106 14.216 4.58471 14.2164 4.57746C14.2291 4.36899 14.1992 4.16175 14.1292 3.95928Z" fill="white"/>
<path d="M12.9886 6.18504C12.9328 6.16181 12.8536 6.16582 12.8109 6.19353C12.5748 6.34748 12.3082 6.48559 12.0173 6.60713C12.0001 6.61442 11.9872 6.62379 11.98 6.63402C11.965 6.65512 11.9719 6.67996 12.0019 6.69873C12.0466 6.72686 12.1257 6.73145 12.1798 6.70914C12.4838 6.5819 12.7623 6.43732 13.0099 6.27652C13.0184 6.27104 13.0246 6.26534 13.0288 6.25912C13.0475 6.23374 13.0325 6.20382 12.9886 6.18504Z" fill="white"/>
<path d="M9.0154 7.27963C9.0099 7.24366 8.95 7.2154 8.87992 7.2173C8.7837 7.21902 8.68684 7.22034 8.58955 7.21931C8.30646 7.21803 8.02117 7.20496 7.73503 7.18021C7.67457 7.17508 7.6189 7.19261 7.599 7.22051C7.59626 7.22489 7.59389 7.22897 7.59246 7.23347C7.58343 7.26904 7.63156 7.30247 7.70023 7.30838C7.99954 7.33406 8.29831 7.3481 8.59397 7.34958C8.69562 7.35004 8.79704 7.34948 8.89864 7.34695C8.94976 7.34589 8.99142 7.32934 9.00789 7.30607C9.01396 7.29804 9.01682 7.28904 9.0154 7.27963Z" fill="white"/>
<path d="M11.5181 1.92679C11.4591 1.90689 11.3811 1.91565 11.3438 1.9452C11.3391 1.94873 11.3354 1.95302 11.3324 1.9567C11.3125 1.98461 11.3332 2.01806 11.3844 2.03589C11.6341 2.11975 11.8693 2.21316 12.0865 2.31445C12.1557 2.34625 12.2228 2.37885 12.2872 2.41217C12.337 2.43815 12.4178 2.4386 12.4659 2.41339C12.4782 2.40694 12.4875 2.39923 12.4932 2.39116C12.5097 2.3679 12.4991 2.34038 12.4618 2.32124C12.3943 2.28596 12.3237 2.25171 12.2524 2.21837C12.0257 2.11286 11.78 2.0148 11.5181 1.92679Z" fill="white"/>
<path d="M2.75702 4.20159C2.75493 4.23716 2.80923 4.26853 2.87923 4.27093C2.93537 4.27266 2.98406 4.25546 3.00206 4.23002C3.0063 4.2238 3.00923 4.21746 3.00959 4.2102C3.01917 4.06173 3.05192 3.91348 3.10944 3.76595C3.1265 3.71922 3.14646 3.67343 3.16841 3.6275C3.18631 3.59278 3.14469 3.55699 3.07775 3.54694C3.01337 3.53779 2.94939 3.55552 2.92725 3.58619C2.92574 3.58804 2.9249 3.58994 2.92369 3.59215C2.90089 3.63998 2.88033 3.68869 2.86114 3.73687C2.80197 3.8912 2.76752 4.0469 2.75702 4.20159Z" fill="white"/>
<path d="M3.39134 3.10527C3.45365 3.12217 3.52971 3.10958 3.56022 3.07805C3.60145 3.03496 3.64495 2.99242 3.69068 2.95075C3.83063 2.82105 3.9894 2.69879 4.16549 2.58613C4.17363 2.58062 4.17984 2.57459 4.18441 2.5684C4.20277 2.54266 4.18779 2.51241 4.14384 2.49396C4.0884 2.47109 4.00885 2.47507 3.96578 2.50274C3.78284 2.62137 3.61656 2.74921 3.46915 2.88416C3.42156 2.92796 3.37591 2.97228 3.33315 3.01755C3.33129 3.01969 3.32943 3.02183 3.3279 3.024C3.30644 3.05441 3.33284 3.09006 3.39134 3.10527Z" fill="white"/>
<path d="M5.44999 6.85241C5.7827 6.9651 6.14245 7.06182 6.52689 7.13938L6.53924 7.14189C6.60324 7.15497 6.6753 7.13935 6.69934 7.10621C6.72348 7.07208 6.69034 7.03413 6.62437 7.02085L6.613 7.01844C6.24551 6.94383 5.90153 6.85193 5.58291 6.74424C5.52383 6.72467 5.44623 6.73247 5.40856 6.76265C5.40389 6.76651 5.40019 6.77047 5.39716 6.77448C5.37726 6.80239 5.39765 6.83515 5.44999 6.85241Z" fill="white"/>
<path d="M9.13562 1.52705C9.12563 1.5622 9.17378 1.59563 9.24336 1.60229C9.61459 1.63453 9.98616 1.68734 10.354 1.76198C10.4196 1.77555 10.4921 1.75864 10.5158 1.72579C10.5395 1.69229 10.5051 1.65422 10.4404 1.6414C10.0564 1.56321 9.66678 1.50802 9.27816 1.47412C9.21872 1.46876 9.16206 1.48619 9.14217 1.5141C9.13884 1.51775 9.13704 1.52255 9.13562 1.52705Z" fill="white"/>
<path d="M14.0498 5.18657C14.0677 5.15185 14.0257 5.11603 13.9588 5.10598C13.895 5.09689 13.8314 5.11432 13.8097 5.14437C13.8081 5.14654 13.8066 5.14904 13.8057 5.15128C13.7594 5.24721 13.702 5.34208 13.635 5.43636C13.5696 5.52782 13.4965 5.6159 13.4158 5.70158C13.4139 5.70372 13.4121 5.70586 13.4105 5.70803C13.3887 5.73841 13.4155 5.77409 13.4743 5.78933C13.5363 5.8062 13.6127 5.79364 13.6422 5.76169C13.728 5.67251 13.804 5.58042 13.8725 5.48462C13.9422 5.38628 14.0015 5.28629 14.0498 5.18657Z" fill="white"/>
<path d="M13.4667 5.40203C13.371 5.53663 13.2571 5.66385 13.1256 5.78443C12.4778 6.38224 11.4211 6.80741 10.2048 7.00364C9.6876 7.08827 9.14131 7.13037 8.58578 7.12719C7.95239 7.12417 7.30486 7.06117 6.6735 6.93314C6.04151 6.80472 5.48063 6.62215 5.00145 6.39937C4.58347 6.20499 4.2281 5.97949 3.94696 5.73295C3.28355 5.15433 3.02388 4.46233 3.28375 3.78596C3.33627 3.64921 3.40952 3.51379 3.50522 3.37919C3.60086 3.24525 3.71474 3.11802 3.84587 2.99741C4.49436 2.39999 5.55036 1.97476 6.76665 1.7782C7.28386 1.6939 7.83018 1.65147 8.38473 1.65456C9.02045 1.65747 9.66702 1.72004 10.299 1.84847C10.9304 1.9765 11.4922 2.15916 11.9691 2.38172C12.388 2.57685 12.7431 2.80231 13.0246 3.04823C13.6883 3.62688 13.9483 4.31958 13.6874 4.99585C13.6356 5.13266 13.5623 5.26809 13.4667 5.40203Z" fill="white"/>
<path d="M0.820326 4.36626C0.820326 4.36626 0.829775 4.43706 0.847494 4.57026C0.868231 4.70309 0.920042 4.8919 1.01563 5.12167C1.12197 5.3465 1.27862 5.60629 1.50641 5.86694C1.7338 6.12821 2.03402 6.37956 2.38275 6.62594C2.72587 6.87213 3.14193 7.08654 3.58384 7.28355C3.81102 7.37751 4.04384 7.47831 4.28702 7.55394C4.40843 7.59372 4.52855 7.64001 4.65424 7.67655C4.77999 7.71245 4.90702 7.74879 5.03504 7.78523C5.09923 7.8033 5.16341 7.82137 5.22823 7.83984C5.29371 7.85472 5.35953 7.86964 5.42535 7.88455C5.55731 7.91441 5.69024 7.94437 5.82414 7.97474C6.09028 8.02507 6.37004 8.07505 6.64602 8.11605C6.78452 8.13296 6.92369 8.14993 7.06317 8.16693L7.2728 8.19164L7.48466 8.20696C7.62579 8.21716 7.76725 8.2274 7.90901 8.23799C8.05078 8.24494 8.19311 8.24598 8.33513 8.25031C8.61897 8.26457 8.90203 8.2559 9.18846 8.25351C9.33028 8.24954 9.47035 8.23976 9.61111 8.23304L9.82121 8.22169L10.0305 8.20197C10.5897 8.15914 11.1309 8.06355 11.657 7.95857C11.7862 7.92755 11.914 7.89673 12.0411 7.8665C12.1046 7.85104 12.1676 7.83588 12.2304 7.82069C12.2924 7.80245 12.3541 7.78418 12.4158 7.76623C12.5388 7.73031 12.6605 7.6946 12.7805 7.65905C12.8995 7.62042 13.0148 7.57515 13.13 7.53451C13.3622 7.45771 13.5761 7.35496 13.7866 7.26316C13.8938 7.22009 13.9901 7.16174 14.0885 7.11054C14.1856 7.05756 14.2825 7.00788 14.3749 6.95545C14.7339 6.72847 15.0529 6.5003 15.2985 6.25618C15.5559 6.01781 15.721 5.76995 15.856 5.55696C15.9104 5.44557 15.959 5.34621 16.0014 5.25984C16.0327 5.1681 16.0634 5.09054 16.0818 5.02638C16.1128 4.89619 16.1294 4.82656 16.1294 4.82656C16.1294 4.82656 16.116 4.89683 16.0911 5.02926C16.0755 5.09469 16.0488 5.17296 16.0217 5.26642C15.9832 5.35714 15.9382 5.46016 15.8857 5.57538C15.7616 5.78874 15.5941 6.05758 15.3463 6.30316C15.2324 6.43468 15.0807 6.552 14.9329 6.68061C14.8605 6.74854 14.7754 6.80333 14.69 6.86173C14.6045 6.92046 14.5173 6.98035 14.428 7.04168C14.3352 7.09706 14.2384 7.14974 14.1406 7.20563C14.042 7.25979 13.9447 7.32136 13.8373 7.36738C13.6259 7.46506 13.4104 7.57428 13.1768 7.65725C13.061 7.70115 12.9451 7.74934 12.8251 7.79119C12.7042 7.82963 12.5816 7.86856 12.4579 7.90773C12.3957 7.92729 12.3335 7.94717 12.271 7.96702C12.2072 7.9831 12.1431 7.99916 12.0786 8.01518C11.9493 8.04718 11.819 8.07943 11.6877 8.1119C11.1632 8.22035 10.6109 8.32215 10.0469 8.36917L9.83518 8.39064L9.62127 8.40361C9.47874 8.41149 9.33495 8.42223 9.19201 8.42743C8.90838 8.43174 8.61947 8.44283 8.33153 8.42983C8.18763 8.42433 8.04374 8.42215 7.90043 8.41405C7.75709 8.40265 7.61376 8.39124 7.47108 8.3799L7.25708 8.36272L7.04367 8.33599C6.90165 8.31775 6.76032 8.29925 6.61929 8.28111C6.33897 8.23704 6.06816 8.18693 5.79246 8.1327C5.65734 8.10121 5.52289 8.06978 5.38941 8.03845C5.32267 8.02279 5.25625 8.00715 5.18981 7.99185C5.12438 7.97299 5.05927 7.95417 4.99449 7.93538C4.86495 7.89747 4.73638 7.85998 4.60911 7.82262C4.48185 7.78526 4.35915 7.73475 4.23609 7.6915C3.98776 7.60743 3.75865 7.50235 3.53358 7.40362C3.08325 7.19089 2.67263 6.96806 2.32304 6.70635C1.97566 6.4528 1.67776 6.18412 1.45658 5.90987C1.23399 5.63647 1.08393 5.36671 0.984201 5.13522C0.894459 4.89972 0.853566 4.70401 0.83844 4.57138C0.826427 4.4374 0.820326 4.36626 0.820326 4.36626Z" fill="white"/>
</svg>
