<svg width="17" height="11" viewBox="0 0 17 11" fill="none" xmlns="http://www.w3.org/2000/svg">
<path d="M1.79711 6.37617C1.78268 6.36088 1.76824 6.34558 1.75413 6.33032C1.72381 6.2976 1.69421 6.26429 1.66526 6.23104C1.65184 6.21552 1.63839 6.20032 1.6253 6.18482C1.59262 6.14558 1.56095 6.10611 1.53066 6.06611C1.52479 6.05826 1.51824 6.05068 1.51236 6.04283C1.47561 5.99426 1.44089 5.94522 1.40816 5.89604C1.40179 5.88649 1.39611 5.87667 1.38973 5.86712C1.36434 5.82792 1.33963 5.78845 1.31659 5.74881C1.30744 5.73369 1.2993 5.71834 1.29051 5.70292C1.27157 5.66897 1.25298 5.63473 1.23574 5.60029C1.22684 5.58254 1.21827 5.56483 1.2097 5.54711C1.19232 5.51067 1.17596 5.47399 1.16061 5.43707C1.15498 5.42328 1.14865 5.40976 1.14331 5.39633C1.12249 5.34399 1.103 5.29144 1.08621 5.23849C1.06915 5.18485 1.05443 5.1311 1.04167 5.07754C1.03833 5.06397 1.03565 5.05046 1.03297 5.03696C1.02353 4.99365 1.01541 4.95048 1.00864 4.9071C1.00641 4.89231 1.00385 4.87749 1.00198 4.8624C0.994349 4.8037 0.988367 4.74516 0.985396 4.68625C0.983372 4.64166 0.982689 4.59688 0.983682 4.55193C0.969526 5.23593 0.955008 5.92023 0.940852 6.60423C0.939891 6.64885 0.940605 6.69331 0.94263 6.73789C0.945272 6.79678 0.951231 6.85565 0.95886 6.91435C0.959607 6.92038 0.959732 6.92602 0.960479 6.93206C0.961897 6.94147 0.964295 6.95097 0.965713 6.96038C0.972085 7.00107 0.979443 7.04186 0.988473 7.08247C0.990749 7.09329 0.992015 7.10435 0.994619 7.1152C0.996023 7.12129 0.998082 7.12745 0.999814 7.13358C1.0114 7.18206 1.02469 7.23004 1.03963 7.27817C1.04089 7.28227 1.04183 7.28633 1.04309 7.29043C1.04389 7.29249 1.04439 7.2942 1.04518 7.29626C1.0613 7.34584 1.07945 7.39494 1.09892 7.44418C1.10107 7.44935 1.10257 7.45446 1.10473 7.45964C1.10983 7.47205 1.11625 7.48459 1.12166 7.49737C1.136 7.53087 1.15068 7.56441 1.1667 7.59774C1.17084 7.60642 1.17428 7.61536 1.17872 7.6244C1.18375 7.63416 1.18943 7.64398 1.19446 7.65373C1.21064 7.68543 1.22718 7.71682 1.24473 7.74798C1.25151 7.76023 1.2576 7.77274 1.26438 7.78498C1.26805 7.79162 1.27274 7.79803 1.27673 7.80471C1.29838 7.84157 1.32166 7.87858 1.34531 7.91529C1.35138 7.92448 1.35644 7.93391 1.36252 7.94311C1.36368 7.94487 1.36516 7.94667 1.36632 7.94844C1.39848 7.99657 1.43232 8.04453 1.46785 8.09199C1.4696 8.09447 1.47105 8.0966 1.4728 8.09909C1.48072 8.10978 1.48999 8.12028 1.49827 8.13067C1.52568 8.16609 1.55374 8.20158 1.58286 8.23649C1.58761 8.24225 1.5917 8.24794 1.59678 8.25373C1.60542 8.26383 1.61504 8.27403 1.62401 8.28416C1.65174 8.3163 1.68046 8.34853 1.70989 8.38017C1.7183 8.38925 1.72598 8.39893 1.73471 8.40805C1.7416 8.41566 1.74983 8.42308 1.75708 8.4304C1.7902 8.46504 1.82467 8.49947 1.85953 8.53329C1.86955 8.54286 1.87822 8.55263 1.88823 8.56221C1.89156 8.56551 1.89525 8.56851 1.8989 8.57184C1.94565 8.6164 1.99376 8.66042 2.04392 8.70398C2.05123 8.71065 2.0589 8.71701 2.06654 8.72371C2.08093 8.73601 2.09667 8.74812 2.11139 8.76046C2.15093 8.79373 2.19113 8.82706 2.23271 8.85986C2.24133 8.86665 2.24927 8.8737 2.25786 8.88082C2.27205 8.89179 2.28758 8.90255 2.30177 8.91351C2.34404 8.94605 2.38735 8.97802 2.43135 9.00973C2.44593 9.02007 2.45913 9.03094 2.47404 9.04131C2.48428 9.04858 2.49523 9.05526 2.50517 9.06218C2.56664 9.10516 2.62985 9.14732 2.69476 9.18898C2.70351 9.19446 2.71154 9.20053 2.72029 9.206C2.72184 9.20714 2.72375 9.20799 2.72562 9.20916C2.80619 9.26027 2.89017 9.31038 2.97555 9.35963C2.98591 9.36559 2.99525 9.37179 3.00561 9.37775C3.01883 9.38498 3.03307 9.39197 3.04626 9.39953C3.1365 9.44991 3.22845 9.49979 3.32387 9.54801C3.32989 9.55091 3.33551 9.55443 3.34153 9.55732C3.34344 9.55817 3.34565 9.55937 3.34755 9.56022C3.42055 9.59702 3.49494 9.63296 3.57075 9.66805C3.62529 9.69348 3.68086 9.71867 3.73713 9.74327C3.75652 9.75176 3.77661 9.75997 3.79603 9.76813C3.82499 9.78051 3.85394 9.79289 3.88326 9.80497C3.94026 9.82898 3.99797 9.85239 4.0567 9.87557C4.08543 9.88693 4.11415 9.8983 4.1429 9.90933C4.15664 9.91462 4.1697 9.92018 4.18343 9.92547C4.19911 9.93128 4.21615 9.93655 4.23212 9.94272C4.35749 9.9895 4.48568 10.0346 4.61701 10.078C4.63081 10.0826 4.6436 10.0875 4.6574 10.0921C4.66512 10.0945 4.67316 10.0969 4.68121 10.0993C4.70467 10.1069 4.72849 10.1141 4.75231 10.1214C4.82304 10.1437 4.89449 10.1655 4.96696 10.187C4.99952 10.1964 5.03241 10.2058 5.06533 10.215C5.09887 10.2245 5.13139 10.2342 5.16529 10.2434C5.18983 10.2501 5.21541 10.2562 5.23998 10.2625C5.30005 10.2785 5.3605 10.2942 5.42165 10.3094C5.47375 10.3223 5.52616 10.3353 5.57894 10.348C5.63918 10.3623 5.70013 10.3761 5.76144 10.3896C5.79583 10.3972 5.82947 10.4057 5.86421 10.413C5.90579 10.4216 5.94734 10.4306 5.98927 10.4389C6.10138 10.4616 6.21328 10.4829 6.326 10.5026C6.35207 10.5071 6.37821 10.5109 6.40429 10.5154C6.48184 10.5288 6.55973 10.5422 6.63777 10.554C6.64332 10.5549 6.64889 10.5554 6.65444 10.5563C6.82389 10.5821 6.99371 10.604 7.16376 10.6236C7.18276 10.6257 7.20167 10.6289 7.22067 10.631C7.24625 10.6338 7.27155 10.6359 7.29712 10.6387C7.35647 10.645 7.41621 10.6508 7.47566 10.6561C7.50848 10.6593 7.54124 10.6631 7.57409 10.6659C7.60071 10.6681 7.62707 10.6696 7.65369 10.6718C7.69806 10.6754 7.74214 10.6787 7.78654 10.6819C7.81451 10.6839 7.84274 10.6866 7.87073 10.6883C7.91255 10.691 7.95409 10.693 7.99561 10.6953C8.02987 10.6973 8.06411 10.6995 8.0984 10.7012C8.11258 10.7019 8.12672 10.7029 8.14057 10.7036C8.22665 10.7075 8.3128 10.7108 8.39867 10.7134C8.39966 10.7135 8.40063 10.7136 8.40198 10.7134C8.41983 10.7137 8.43736 10.7141 8.45521 10.7145C8.52162 10.7162 8.58771 10.7179 8.65357 10.7186C8.6873 10.7191 8.72107 10.7194 8.75516 10.7197C8.80549 10.7199 8.85549 10.72 8.90555 10.7195C8.99204 10.7192 9.07863 10.7179 9.16458 10.7162C9.21704 10.7149 9.26891 10.7129 9.32107 10.7113C9.33935 10.7107 9.35794 10.7102 9.37622 10.7096C9.39416 10.709 9.41208 10.7087 9.43006 10.7078C9.52152 10.704 9.61303 10.6995 9.70432 10.694C9.77695 10.6897 9.84934 10.6843 9.92177 10.6787C9.93344 10.6778 9.94545 10.677 9.95713 10.6761C9.96681 10.6754 9.97677 10.675 9.98645 10.6743C10.0832 10.6667 10.1791 10.6579 10.2751 10.6483C10.3501 10.6405 10.4248 10.6321 10.4991 10.6233C10.5126 10.6216 10.5263 10.6203 10.5396 10.6189C10.549 10.6178 10.5584 10.6171 10.5678 10.6157C10.6663 10.6036 10.765 10.5905 10.8624 10.5763C10.9403 10.5649 11.018 10.5531 11.095 10.5406C11.1223 10.5363 11.1492 10.5319 11.1761 10.5272C11.229 10.5183 11.281 10.5084 11.3332 10.4988C11.3706 10.4921 11.4084 10.4855 11.4455 10.4784C11.4539 10.4769 11.4623 10.4754 11.4708 10.4739C11.5366 10.4613 11.6015 10.4477 11.6664 10.434C11.6944 10.4281 11.7231 10.4229 11.7512 10.4166C11.7556 10.4157 11.76 10.4148 11.7644 10.4139C11.8594 10.3932 11.9543 10.3715 12.0475 10.3486C12.0509 10.3476 12.0547 10.347 12.058 10.3463C12.1571 10.322 12.2552 10.2969 12.3522 10.2704C12.3542 10.27 12.3563 10.2692 12.3583 10.2687C12.4035 10.2565 12.4479 10.2428 12.4925 10.2302C12.5446 10.2153 12.5973 10.2008 12.6488 10.1852C12.6516 10.1845 12.654 10.1834 12.6564 10.1826C12.7407 10.1569 12.8234 10.1301 12.9052 10.1028C12.9199 10.0979 12.9349 10.0937 12.9493 10.0885L12.9506 10.0879C13.0513 10.0538 13.1508 10.0183 13.2484 9.98162C13.2507 9.98085 13.2535 9.97979 13.2556 9.979C13.2734 9.97243 13.29 9.96507 13.3076 9.95814C13.388 9.92742 13.4672 9.89592 13.5452 9.8633C13.5545 9.85956 13.5642 9.85584 13.5735 9.85209C13.5956 9.84262 13.6164 9.83236 13.6385 9.82288C13.7118 9.79114 13.7845 9.75868 13.8556 9.72541C13.8726 9.71743 13.8905 9.7102 13.9071 9.70219C13.9217 9.6953 13.9347 9.68761 13.9493 9.68072C14.0573 9.62846 14.1631 9.57466 14.2649 9.51882C14.267 9.51769 14.2691 9.51657 14.2712 9.51544C14.2712 9.51544 14.2722 9.51488 14.2729 9.51462C14.2984 9.50083 14.3224 9.4859 14.3476 9.47175C14.3984 9.44282 14.4491 9.41423 14.4984 9.38449C14.5272 9.36705 14.5544 9.34912 14.5826 9.33161C14.6196 9.30832 14.6572 9.28575 14.6933 9.26204C14.7004 9.25709 14.7075 9.25214 14.7145 9.24752C14.7351 9.23391 14.7549 9.21992 14.7752 9.20595C14.8198 9.17545 14.8635 9.14452 14.9066 9.1132C14.9294 9.09651 14.9522 9.07948 14.9747 9.06242C15.0158 9.03157 15.0556 9.00027 15.0947 8.96857C15.1144 8.95257 15.1345 8.93694 15.1536 8.92088C15.2104 8.87365 15.2661 8.82565 15.3191 8.77641C15.5094 8.60184 15.6744 8.41823 15.8129 8.2238C15.9511 8.03032 16.057 7.8341 16.1319 7.63623C16.2239 7.39793 16.2711 7.15831 16.276 6.91995C16.2902 6.23562 16.3046 5.55198 16.3188 4.86765C16.3139 5.10601 16.2668 5.34563 16.1747 5.58393C16.0995 5.78176 15.9932 5.97796 15.8554 6.17147C15.7169 6.36589 15.5523 6.54954 15.3616 6.72407C15.3086 6.77332 15.2526 6.82129 15.1957 6.86884C15.1773 6.88431 15.158 6.89935 15.1394 6.91446C15.0988 6.94734 15.0576 6.9795 15.0154 7.01157C14.994 7.02774 14.9726 7.04358 14.9512 7.05942C14.9071 7.09163 14.862 7.12341 14.8162 7.15481C14.7967 7.16818 14.7775 7.18191 14.7574 7.19489C14.7125 7.2247 14.666 7.25371 14.6194 7.28304C14.5937 7.29913 14.569 7.31531 14.543 7.33104C14.4842 7.36649 14.424 7.4008 14.3631 7.43505C14.348 7.44354 14.3332 7.4524 14.3179 7.46086C14.3119 7.46427 14.3057 7.46731 14.2997 7.47039C14.2005 7.52448 14.0974 7.57689 13.9925 7.62779C13.9612 7.64302 13.93 7.65791 13.8984 7.67278C13.8273 7.70605 13.755 7.73821 13.6814 7.77025C13.6503 7.78383 13.6198 7.79748 13.5881 7.81067C13.5105 7.84299 13.4309 7.87446 13.3511 7.90525C13.3301 7.9135 13.3094 7.92212 13.2881 7.93002C13.1933 7.96533 13.0973 7.99985 12.9997 8.03324C12.9507 8.04975 12.9002 8.06512 12.8506 8.08124C12.8001 8.0976 12.7504 8.11438 12.6993 8.12969C12.645 8.14635 12.5899 8.16161 12.535 8.17723C12.4901 8.19015 12.4461 8.20349 12.4008 8.21572C12.2029 8.26997 12.0001 8.31912 11.7934 8.36392C11.7694 8.36891 11.7451 8.37387 11.7207 8.37883C11.642 8.39514 11.5629 8.41142 11.4833 8.42665C11.4482 8.43323 11.4122 8.43938 11.3768 8.44593C11.2972 8.46017 11.2177 8.47475 11.1369 8.48788C10.9542 8.51743 10.7692 8.54343 10.5819 8.56591C10.5681 8.56758 10.5544 8.56891 10.5407 8.57058C10.3621 8.59157 10.1815 8.60939 9.99965 8.62345C9.98696 8.62455 9.97433 8.62499 9.96197 8.62613C9.78147 8.63965 9.59963 8.64973 9.41677 8.65674C9.39949 8.6574 9.38256 8.65777 9.3656 8.65846C9.17683 8.6649 8.98707 8.66792 8.7967 8.66692C8.68743 8.66639 8.57833 8.66423 8.46863 8.66134C8.4617 8.66101 8.45508 8.66104 8.44813 8.66103C8.3444 8.65806 8.24047 8.65374 8.13663 8.64843C8.10532 8.64676 8.07405 8.64476 8.04274 8.64308C7.97027 8.6388 7.89784 8.63418 7.82544 8.62923C7.78267 8.62613 7.73958 8.623 7.69652 8.61954C7.63635 8.61477 7.57625 8.60934 7.51618 8.60359C7.45677 8.5979 7.39736 8.59221 7.33798 8.5862C7.2937 8.58163 7.24948 8.5764 7.20559 8.5712C7.03489 8.55154 6.86409 8.52956 6.69399 8.50366C6.62281 8.49287 6.55208 8.4808 6.48099 8.46902C6.44189 8.46229 6.40236 8.45652 6.36295 8.44944C6.25187 8.42985 6.14092 8.40896 6.03045 8.38646C5.95571 8.37135 5.88276 8.35476 5.80946 8.33847C5.7449 8.32433 5.68039 8.30954 5.61658 8.29449C5.56541 8.2823 5.51492 8.26985 5.46447 8.25707C5.40269 8.24155 5.3416 8.22576 5.28119 8.2097C5.23984 8.19879 5.19887 8.18725 5.1582 8.17606C5.00592 8.13366 4.85677 8.08956 4.71155 8.04253C4.69581 8.03738 4.68076 8.03196 4.66503 8.02681C4.53143 7.98288 4.40167 7.937 4.2744 7.88937C4.24433 7.87821 4.21389 7.86734 4.18419 7.85589C4.15448 7.84443 4.12546 7.83271 4.0964 7.82131C4.03991 7.79901 3.9838 7.77608 3.92868 7.75325C3.89716 7.73996 3.86597 7.7267 3.8351 7.71348C3.76003 7.68111 3.68564 7.64848 3.61302 7.6147C3.53596 7.57883 3.46027 7.54243 3.38632 7.50521C3.38254 7.50319 3.37909 7.5012 3.37527 7.49951C3.27542 7.44921 3.17906 7.39692 3.08474 7.34416C3.06303 7.33214 3.04166 7.32016 3.02064 7.30788C2.93398 7.25817 2.84905 7.20764 2.76789 7.15581C2.75788 7.14956 2.74827 7.14267 2.73827 7.13641C2.67211 7.09397 2.60802 7.05074 2.5453 7.00697C2.52233 6.99085 2.49969 6.97477 2.47737 6.95873C2.43183 6.92588 2.38729 6.89279 2.34344 6.85944C2.32063 6.84169 2.29746 6.82423 2.2753 6.80654C2.23372 6.77374 2.19385 6.74044 2.15398 6.70714C2.13159 6.68844 2.10854 6.66967 2.08684 6.6507C2.03669 6.60714 1.98859 6.56278 1.94182 6.51855C1.92877 6.50604 1.91638 6.49359 1.90366 6.48111C1.86684 6.44711 1.83145 6.41192 1.79711 6.37617Z" fill="#AEAEAE"/>
<path d="M3.37515 7.50083C3.27529 7.45052 3.17894 7.39823 3.08461 7.34547C3.06291 7.33346 3.04154 7.32147 3.02052 7.30919C2.93385 7.25949 2.84892 7.20895 2.76776 7.15713C2.75776 7.15087 2.74815 7.14399 2.73815 7.13773C2.67199 7.09529 2.60789 7.05205 2.54517 7.00828C2.5222 6.99217 2.49956 6.97609 2.47725 6.96004C2.4317 6.92719 2.38716 6.89411 2.34332 6.86076C2.32051 6.843 2.29733 6.82555 2.27518 6.80786C2.2336 6.77506 2.19373 6.74176 2.15385 6.70846C2.13146 6.68975 2.10842 6.67098 2.08672 6.65201L2.04392 8.70398C2.05123 8.71065 2.05887 8.71734 2.06651 8.72403C2.0809 8.73634 2.09664 8.74845 2.11135 8.76079C2.1509 8.79406 2.1911 8.82739 2.23268 8.86019C2.2413 8.86698 2.24924 8.87403 2.25783 8.88115C2.27202 8.89211 2.28755 8.90288 2.30174 8.91384C2.344 8.94638 2.38732 8.97835 2.43132 9.01006C2.4459 9.0204 2.4591 9.03127 2.47401 9.04164C2.48424 9.04891 2.4952 9.05559 2.50514 9.06251C2.56661 9.10549 2.62982 9.14765 2.69473 9.18931C2.70348 9.19479 2.71151 9.20086 2.72026 9.20633C2.72181 9.20747 2.72372 9.20832 2.72559 9.20949C2.80616 9.2606 2.89014 9.31071 2.97552 9.35996C2.98588 9.36592 2.99522 9.37212 3.00558 9.37808C3.0188 9.38531 3.03304 9.3923 3.04622 9.39986C3.13647 9.45024 3.22842 9.50012 3.32384 9.54834C3.32986 9.55124 3.33548 9.55476 3.3415 9.55765C3.34341 9.5585 3.34561 9.5597 3.34752 9.56055C3.42052 9.59735 3.49492 9.63329 3.57105 9.66841L3.61387 7.61611C3.53681 7.58024 3.46114 7.54384 3.38719 7.50662C3.38239 7.50483 3.37893 7.50285 3.37515 7.50083Z" fill="white"/>
<path d="M15.8127 8.22643C15.9508 8.03295 16.0567 7.83672 16.1316 7.63885L16.1748 5.58658C16.0995 5.78442 15.9933 5.98062 15.8555 6.17412C15.717 6.36855 15.5523 6.5522 15.3617 6.72673L15.3189 8.77903C15.5095 8.6045 15.6742 8.42053 15.8127 8.22643Z" fill="white"/>
<path d="M9.99946 8.62541C9.98677 8.62652 9.97415 8.62697 9.96178 8.6281C9.78128 8.64162 9.59944 8.6517 9.41659 8.65871C9.3993 8.65937 9.38237 8.65974 9.36541 8.66043C9.17664 8.66687 8.98688 8.66989 8.79651 8.66889L8.75368 10.7212C8.80401 10.7214 8.85402 10.7215 8.90408 10.721C8.99057 10.7207 9.07716 10.7194 9.16311 10.7177C9.21557 10.7164 9.26744 10.7144 9.3196 10.7128C9.33788 10.7122 9.35647 10.7117 9.37475 10.7111C9.39269 10.7105 9.41061 10.7102 9.42859 10.7093C9.52005 10.7055 9.61156 10.701 9.70285 10.6955C9.77548 10.6912 9.84787 10.6859 9.92029 10.6802C9.93197 10.6793 9.94398 10.6785 9.95566 10.6776C9.96534 10.6769 9.9753 10.6765 9.98498 10.6758C10.0818 10.6682 10.1777 10.6595 10.2737 10.6498C10.3486 10.642 10.4233 10.6336 10.4977 10.6248C10.5111 10.6232 10.5248 10.6218 10.5382 10.6204C10.5475 10.6194 10.5569 10.6186 10.5663 10.6172C10.6649 10.6051 10.7635 10.592 10.8609 10.5778C10.9389 10.5664 11.0165 10.5546 11.0936 10.5421L11.1364 8.48982C10.9537 8.51936 10.7687 8.54537 10.5814 8.56785C10.5676 8.56951 10.5539 8.57085 10.5402 8.57252C10.3616 8.59351 10.1813 8.61136 9.99946 8.62541Z" fill="white"/>
<path d="M2.08638 6.65198C2.49379 7.00866 3.00647 7.33468 3.61249 7.61664C4.30386 7.9379 5.11629 8.20219 6.03003 8.38741C6.94269 8.57352 7.87968 8.66457 8.79614 8.66919C9.59964 8.67391 10.3889 8.61236 11.136 8.49012C12.8962 8.20751 14.4246 7.59199 15.3616 6.72739C15.5516 6.55312 15.7163 6.36915 15.8552 6.17409C15.9929 5.98157 16.0995 5.78475 16.1751 5.58727C16.5517 4.60871 16.1756 3.60644 15.215 2.76947C14.8084 2.4142 14.2944 2.08805 13.6897 1.80622C12.9983 1.48496 12.1862 1.22069 11.2736 1.03459C10.3598 0.849697 9.42247 0.758615 8.50602 0.754C7.70154 0.749177 6.91191 0.810699 6.16483 0.932941C4.40585 1.21699 2.87749 1.83251 1.94007 2.69708C1.75014 2.87135 1.58574 3.05568 1.44796 3.24919C1.30916 3.44293 1.20365 3.63853 1.12698 3.83723C0.750454 4.81513 1.12627 5.81638 2.08638 6.65198Z" fill="#AEAEAE"/>
<path d="M6.7371 1.80262C7.3128 1.70935 7.92049 1.66253 8.53965 1.66551C8.63237 1.66577 8.72461 1.66765 8.81744 1.67025L8.50573 0.753642C7.70188 0.74921 6.91225 0.810732 6.16424 0.932223L6.47599 1.8485C6.56234 1.83226 6.64959 1.8171 6.7371 1.80262Z" fill="white"/>
<path d="M13.703 3.21729C13.751 3.25899 13.7966 3.30113 13.8409 3.34379L15.2156 2.76954C14.8081 2.41384 14.2955 2.08716 13.6901 1.8056L12.3144 2.38009C12.3873 2.41092 12.4588 2.44261 12.5285 2.47513C12.9941 2.69195 13.39 2.94352 13.703 3.21729Z" fill="white"/>
<path d="M2.81381 4.17863C2.82759 4.13158 2.84334 4.08473 2.86106 4.03806C2.9187 3.88591 3.00074 3.73476 3.10711 3.58562C3.21312 3.43677 3.33999 3.29489 3.48665 3.16086C3.53169 3.11946 3.57832 3.07888 3.62654 3.03878L1.94014 2.69642C1.75083 2.87108 1.58578 3.05535 1.4477 3.2485C1.30917 3.44293 1.20332 3.6385 1.1274 3.83628L2.81381 4.17863Z" fill="white"/>
<path d="M14.4411 5.3848C14.3835 5.53695 14.3015 5.68777 14.1952 5.83658C14.0888 5.98606 13.9622 6.12797 13.8155 6.262C13.7705 6.3034 13.7239 6.34398 13.6757 6.38375L15.3618 6.72607C15.5521 6.55151 15.7171 6.3679 15.8556 6.17347C15.9934 5.97996 16.0996 5.78376 16.1749 5.58593L14.4888 5.24361C14.475 5.29098 14.4592 5.33816 14.4411 5.3848Z" fill="white"/>
<path d="M11.1367 8.49018L10.8256 7.57397C10.7392 7.59021 10.652 7.6057 10.5641 7.61982C9.98976 7.71322 9.38073 7.76023 8.76298 7.7564C8.67026 7.75613 8.57733 7.75452 8.4845 7.75192L8.79651 8.66889C9.59937 8.67323 10.389 8.6117 11.1367 8.49018Z" fill="white"/>
<path d="M3.61249 7.61664L4.98792 7.04179C4.91534 7.01099 4.84388 6.97897 4.77441 6.94681C4.30723 6.73016 3.91188 6.4793 3.59791 6.20544C3.55022 6.16377 3.50427 6.12128 3.45999 6.07861L2.08599 6.6526C2.49316 7.00827 3.00647 7.33468 3.61249 7.61664Z" fill="white"/>
<path d="M3.46036 6.07832C3.50464 6.12098 3.55059 6.16348 3.59827 6.20514C3.91224 6.47901 4.30758 6.72986 4.77477 6.94651C4.8442 6.979 4.9157 7.01069 4.98827 7.04149C5.47113 7.24673 6.02264 7.41647 6.63449 7.54065C7.24438 7.66464 7.86846 7.73368 8.48453 7.7516C8.57736 7.75419 8.67029 7.7558 8.76302 7.75607C9.3808 7.75958 9.98976 7.71322 10.5641 7.61982C10.652 7.6057 10.7393 7.58988 10.8256 7.57364C11.9865 7.35421 12.998 6.9436 13.6757 6.38375C13.7239 6.34398 13.7705 6.30307 13.8155 6.262C13.9622 6.12797 14.0887 5.98639 14.1951 5.83691C14.3015 5.6881 14.3835 5.53695 14.4411 5.3848C14.4592 5.33783 14.4749 5.29131 14.4887 5.24426C14.68 4.5855 14.4347 3.91972 13.8409 3.34412C13.7966 3.30146 13.751 3.25899 13.703 3.21729C13.39 2.94352 12.9944 2.69231 12.5282 2.47575C12.4584 2.44323 12.3869 2.41154 12.314 2.38071C11.8311 2.1758 11.2786 2.00596 10.669 1.88234C10.0572 1.75816 9.43375 1.68918 8.81771 1.67094C8.72488 1.66834 8.6323 1.66643 8.53991 1.6662C7.92079 1.66289 7.31307 1.71004 6.73737 1.80331C6.64989 1.81746 6.56261 1.83295 6.47658 1.84922C5.31672 2.06874 4.30518 2.47935 3.62717 3.03917C3.57897 3.07894 3.532 3.11982 3.48729 3.16125C3.34063 3.29528 3.21408 3.43719 3.10774 3.58601C3.00134 3.73548 2.91899 3.88627 2.86169 4.03845C2.84397 4.08512 2.82819 4.1323 2.81444 4.17902C2.6232 4.83745 2.86761 5.50215 3.46036 6.07832Z" fill="#AEAEAE"/>
<path d="M11.4046 7.27299C11.3709 7.24061 11.2943 7.22765 11.2332 7.24365C10.9753 7.31105 10.7053 7.36734 10.4277 7.4123C10.3435 7.42611 10.2578 7.43877 10.1719 7.45042C10.1323 7.4559 10.1024 7.4706 10.0894 7.48922C10.0806 7.50163 10.0792 7.51574 10.0869 7.52939C10.1057 7.56465 10.1759 7.58529 10.2424 7.57642C10.3323 7.56383 10.4217 7.55053 10.5095 7.53641C10.8002 7.48972 11.0815 7.43052 11.3515 7.36065C11.3807 7.35318 11.4011 7.34089 11.4118 7.32634C11.4236 7.30959 11.4221 7.29057 11.4046 7.27299Z" fill="white"/>
<path d="M13.3986 3.1272C13.3598 3.09665 13.2805 3.08773 13.223 3.10706C13.2 3.11448 13.1841 3.12554 13.1753 3.13762C13.1619 3.15654 13.1658 3.17844 13.1892 3.19658C13.2425 3.23879 13.2941 3.28083 13.3433 3.32397C13.4912 3.45341 13.6201 3.58798 13.7287 3.72658C13.7547 3.7602 13.8282 3.77751 13.8927 3.76513C13.9271 3.75816 13.9523 3.74467 13.9641 3.72791C13.9745 3.71334 13.9747 3.6968 13.962 3.68101C13.8493 3.53639 13.7144 3.39528 13.5591 3.26016C13.5074 3.2148 13.4544 3.1703 13.3986 3.1272Z" fill="white"/>
<path d="M3.33819 5.73868C3.36379 5.77227 3.43733 5.78958 3.50251 5.77661C3.53693 5.76997 3.56211 5.75615 3.57362 5.73969C3.58396 5.72511 3.58418 5.7089 3.57211 5.69317C3.42913 5.50856 3.3223 5.31647 3.25464 5.12018C3.24281 5.0846 3.17693 5.06007 3.10815 5.06574C3.06246 5.06899 3.02679 5.08512 3.01188 5.10588C3.00461 5.11612 3.00217 5.12781 3.00665 5.13983C3.07648 5.34461 3.18841 5.54546 3.33819 5.73868Z" fill="white"/>
<path d="M4.94786 2.48226C4.99287 2.51042 5.07192 2.51501 5.12472 2.49291C5.41967 2.37043 5.73788 2.26443 6.07485 2.17711C6.10336 2.16991 6.12345 2.15726 6.13376 2.14301C6.14563 2.12626 6.14414 2.10723 6.12658 2.08998C6.09425 2.0574 6.01768 2.04411 5.95652 2.06012C5.60396 2.15124 5.27107 2.2618 4.96359 2.39069C4.94567 2.39792 4.93317 2.40732 4.9259 2.41756C4.91063 2.43862 4.91786 2.46349 4.94786 2.48226Z" fill="white"/>
<path d="M6.97946 1.92487C6.99998 1.95963 7.06986 1.98057 7.13666 1.97139C7.50206 1.92258 7.88018 1.8932 8.26384 1.88555C8.31531 1.88418 8.35668 1.86728 8.37345 1.84437C8.37955 1.83601 8.38207 1.82698 8.38066 1.81757C8.37647 1.78172 8.31526 1.75334 8.24551 1.75527C7.84391 1.76352 7.44912 1.79395 7.06656 1.84543C7.02629 1.85085 6.99601 1.86617 6.9826 1.88509C6.9735 1.89714 6.97185 1.91089 6.97946 1.92487Z" fill="white"/>
<path d="M4.67065 6.77821C4.7205 6.80418 4.80029 6.80453 4.84808 6.7793C4.86062 6.77288 4.86997 6.76516 4.87575 6.75677C4.89222 6.73351 4.88223 6.70638 4.84566 6.68698C4.56837 6.54548 4.32259 6.38978 4.10934 6.22294C4.07083 6.19276 3.9929 6.18331 3.93471 6.20291C3.9118 6.21032 3.89551 6.22135 3.8867 6.23376C3.87332 6.25235 3.87719 6.27425 3.90095 6.29243C4.12244 6.46667 4.37978 6.62978 4.67065 6.77821Z" fill="white"/>
<path d="M14.2942 4.27959C14.2827 4.24404 14.2165 4.21948 14.1481 4.22452C14.1027 4.22845 14.0674 4.24428 14.0524 4.26538C14.0452 4.27561 14.0428 4.28698 14.0466 4.29894C14.1134 4.49316 14.1419 4.69066 14.1289 4.88915C14.1264 4.92536 14.1807 4.95639 14.2514 4.95853C14.3069 4.9602 14.3559 4.94303 14.3739 4.91759C14.3782 4.91137 14.3811 4.90502 14.3814 4.89777C14.3941 4.6893 14.3643 4.48206 14.2942 4.27959Z" fill="white"/>
<path d="M13.1536 6.50535C13.0979 6.48212 13.0186 6.48613 12.9759 6.51384C12.7399 6.66779 12.4732 6.8059 12.1824 6.92744C12.1651 6.93473 12.1523 6.9441 12.145 6.95434C12.1301 6.97543 12.137 7.00027 12.167 7.01905C12.2116 7.04717 12.2907 7.05176 12.3448 7.02945C12.6489 6.90222 12.9274 6.75763 13.175 6.59683C13.1834 6.59135 13.1896 6.58565 13.1939 6.57943C13.2125 6.55405 13.1975 6.52413 13.1536 6.50535Z" fill="white"/>
<path d="M9.18044 7.59994C9.17494 7.56397 9.11504 7.53571 9.04496 7.53761C8.94874 7.53933 8.85188 7.54065 8.75459 7.53962C8.47149 7.53835 8.18621 7.52527 7.90006 7.50052C7.83961 7.49539 7.78394 7.51292 7.76404 7.54083C7.7613 7.5452 7.75893 7.54928 7.7575 7.55378C7.74847 7.58935 7.7966 7.62278 7.86527 7.6287C8.16458 7.65438 8.46334 7.66841 8.75901 7.66989C8.86066 7.67035 8.96208 7.66979 9.06368 7.66727C9.1148 7.6662 9.15646 7.64965 9.17293 7.62638C9.179 7.61835 9.18186 7.60935 9.18044 7.59994Z" fill="white"/>
<path d="M11.6832 2.2471C11.6241 2.2272 11.5461 2.23596 11.5088 2.26552C11.5042 2.26905 11.5004 2.27333 11.4974 2.27702C11.4775 2.30492 11.4982 2.33837 11.5495 2.3562C11.7992 2.44006 12.0344 2.53347 12.2516 2.63477C12.3207 2.66657 12.3878 2.69916 12.4522 2.73249C12.5021 2.75846 12.5829 2.75891 12.631 2.73371C12.6432 2.72726 12.6525 2.71954 12.6583 2.71148C12.6748 2.68821 12.6641 2.66069 12.6269 2.64156C12.5594 2.60627 12.4888 2.57202 12.4174 2.53869C12.1907 2.43317 11.945 2.33511 11.6832 2.2471Z" fill="white"/>
<path d="M2.92206 4.5219C2.91997 4.55747 2.97427 4.58884 3.04426 4.59124C3.10041 4.59297 3.1491 4.57577 3.1671 4.55033C3.17134 4.54411 3.17427 4.53777 3.17463 4.53052C3.18421 4.38204 3.21696 4.23379 3.27448 4.08626C3.29154 4.03954 3.3115 3.99375 3.33345 3.94782C3.35135 3.91309 3.30973 3.87731 3.24278 3.86725C3.1784 3.85811 3.11443 3.87583 3.09228 3.9065C3.09078 3.90835 3.08994 3.91025 3.08873 3.91246C3.06593 3.96029 3.04537 4.00901 3.02618 4.05719C2.96701 4.21152 2.93256 4.36722 2.92206 4.5219Z" fill="white"/>
<path d="M3.55638 3.42558C3.61869 3.44248 3.69475 3.42989 3.72526 3.39836C3.76649 3.35527 3.80999 3.31273 3.85572 3.27107C3.99567 3.14137 4.15444 3.0191 4.33053 2.90644C4.33867 2.90093 4.34488 2.8949 4.34945 2.88871C4.36781 2.86298 4.35283 2.83272 4.30888 2.81427C4.25344 2.79141 4.17388 2.79538 4.13082 2.82306C3.94787 2.94168 3.7816 3.06952 3.63419 3.20447C3.5866 3.24828 3.54095 3.2926 3.49819 3.33786C3.49633 3.34 3.49447 3.34214 3.49294 3.34431C3.47148 3.37472 3.49787 3.41037 3.55638 3.42558Z" fill="white"/>
<path d="M5.61503 7.17273C5.94774 7.28541 6.30749 7.38214 6.69193 7.45969L6.70428 7.4622C6.76828 7.47529 6.84034 7.45966 6.86438 7.42652C6.88852 7.39239 6.85538 7.35444 6.78941 7.34117L6.77804 7.33875C6.41054 7.26414 6.06656 7.17224 5.74795 7.06455C5.68887 7.04498 5.61127 7.05279 5.5736 7.08297C5.56893 7.08683 5.56523 7.09078 5.5622 7.09479C5.5423 7.1227 5.56268 7.15546 5.61503 7.17273Z" fill="white"/>
<path d="M9.30066 1.84736C9.29067 1.88251 9.33882 1.91594 9.4084 1.92261C9.77963 1.95484 10.1512 2.00765 10.519 2.08229C10.5846 2.09586 10.6572 2.07895 10.6808 2.04611C10.7046 2.01261 10.6701 1.97453 10.6054 1.96171C10.2214 1.88353 9.83182 1.82833 9.4432 1.79443C9.38376 1.78907 9.3271 1.8065 9.30721 1.83441C9.30388 1.83806 9.30208 1.84286 9.30066 1.84736Z" fill="white"/>
<path d="M14.2148 5.50688C14.2327 5.47216 14.1907 5.43634 14.1238 5.42629C14.0601 5.41721 13.9965 5.43463 13.9747 5.46468C13.9732 5.46685 13.9716 5.46935 13.9707 5.47159C13.9245 5.56753 13.867 5.66239 13.8 5.75668C13.7346 5.84813 13.6616 5.93621 13.5808 6.02189C13.579 6.02403 13.5771 6.02617 13.5756 6.02834C13.5538 6.05872 13.5805 6.0944 13.6393 6.10964C13.7013 6.12651 13.7777 6.11395 13.8073 6.082C13.893 5.99282 13.9691 5.90073 14.0375 5.80493C14.1072 5.7066 14.1665 5.6066 14.2148 5.50688Z" fill="white"/>
<path d="M13.6317 5.72234C13.536 5.85694 13.4221 5.98417 13.2907 6.10474C12.6428 6.70255 11.5861 7.12772 10.3699 7.32396C9.85264 7.40858 9.30635 7.45068 8.75082 7.4475C8.11742 7.44448 7.4699 7.38149 6.83854 7.25345C6.20655 7.12503 5.64567 6.94246 5.16649 6.71969C4.74851 6.5253 4.39314 6.29981 4.112 6.05327C3.44859 5.47464 3.18892 4.78264 3.44879 4.10627C3.50131 3.96952 3.57456 3.8341 3.67026 3.6995C3.7659 3.56556 3.87978 3.43833 4.01091 3.31773C4.6594 2.7203 5.7154 2.29507 6.93169 2.09851C7.4489 2.01421 7.99522 1.97179 8.54976 1.97487C9.18549 1.97778 9.83206 2.04036 10.464 2.16878C11.0954 2.29682 11.6573 2.47947 12.1342 2.70203C12.5531 2.89717 12.9081 3.12263 13.1896 3.36854C13.8534 3.9472 14.1133 4.63989 13.8525 5.31617C13.8006 5.45298 13.7273 5.5884 13.6317 5.72234Z" fill="white"/>
<path d="M0.985365 4.68657C0.985365 4.68657 0.994814 4.75737 1.01253 4.89058C1.03327 5.02341 1.08508 5.21221 1.18067 5.44198C1.28701 5.66681 1.44366 5.92661 1.67145 6.18725C1.89884 6.44852 2.19906 6.69987 2.54779 6.94626C2.89091 7.19244 3.30697 7.40685 3.74888 7.60386C3.97606 7.69783 4.20888 7.79863 4.45206 7.87425C4.57347 7.91403 4.69359 7.96032 4.81928 7.99687C4.94503 8.03276 5.07206 8.0691 5.20008 8.10554C5.26426 8.12361 5.32845 8.14169 5.39327 8.16015C5.45875 8.17503 5.52457 8.18995 5.59038 8.20486C5.72234 8.23472 5.85528 8.26468 5.98918 8.29506C6.25532 8.34539 6.53508 8.39536 6.81106 8.43637C6.94956 8.45327 7.08872 8.47024 7.22821 8.48724L7.43784 8.51195L7.6497 8.52727C7.79083 8.53748 7.93229 8.54771 8.07405 8.5583C8.21582 8.56525 8.35815 8.56629 8.50017 8.57062C8.78401 8.58488 9.06707 8.57621 9.3535 8.57383C9.49532 8.56985 9.63539 8.56008 9.77615 8.55335L9.98625 8.542L10.1955 8.52229C10.7548 8.47945 11.2959 8.38386 11.8221 8.27889C11.9512 8.24786 12.0791 8.21704 12.2062 8.18681C12.2696 8.17136 12.3327 8.1562 12.3954 8.141C12.4574 8.12276 12.5192 8.10449 12.5808 8.08655C12.7039 8.05063 12.8255 8.01491 12.9455 7.97936C13.0645 7.94074 13.1798 7.89547 13.295 7.85482C13.5273 7.77802 13.7412 7.67528 13.9517 7.58347C14.0588 7.5404 14.1552 7.48205 14.2535 7.43085C14.3507 7.37788 14.4475 7.32819 14.54 7.27576C14.8989 7.04878 15.2179 6.82062 15.4635 6.57649C15.7209 6.33812 15.8861 6.09026 16.0211 5.87728C16.0755 5.76589 16.1241 5.66653 16.1665 5.58015C16.1978 5.48842 16.2284 5.41085 16.2468 5.3467C16.2778 5.2165 16.2944 5.14687 16.2944 5.14687C16.2944 5.14687 16.2811 5.21715 16.2561 5.34958C16.2406 5.415 16.2139 5.49327 16.1867 5.58673C16.1482 5.67745 16.1032 5.78047 16.0508 5.89569C15.9267 6.10906 15.7592 6.37789 15.5114 6.62347C15.3974 6.755 15.2457 6.87231 15.0979 7.00092C15.0255 7.06885 14.9404 7.12364 14.855 7.18204C14.7696 7.24077 14.6823 7.30066 14.593 7.362C14.5002 7.41738 14.4034 7.47005 14.3057 7.52594C14.2071 7.5801 14.1097 7.64167 14.0023 7.6877C13.7909 7.78538 13.5754 7.89459 13.3419 7.97757C13.226 8.02146 13.1101 8.06966 12.9902 8.1115C12.8692 8.14994 12.7466 8.18888 12.6229 8.22805C12.5608 8.2476 12.4986 8.26748 12.4361 8.28733C12.3722 8.30342 12.3081 8.31947 12.2436 8.33549C12.1144 8.3675 11.9841 8.39974 11.8528 8.43221C11.3283 8.54066 10.7759 8.64246 10.212 8.68949L10.0002 8.71095L9.78631 8.72392C9.64378 8.73181 9.49998 8.74255 9.35705 8.74774C9.07342 8.75205 8.7845 8.76314 8.49657 8.75014C8.35267 8.74464 8.20878 8.74246 8.06546 8.73437C7.92213 8.72296 7.7788 8.71155 7.63612 8.70021L7.42212 8.68303L7.20871 8.6563C7.06669 8.63806 6.92536 8.61956 6.78433 8.60142C6.50401 8.55735 6.2332 8.50724 5.9575 8.45301C5.82238 8.42152 5.68792 8.3901 5.55445 8.35876C5.48771 8.3431 5.42129 8.32747 5.35485 8.31216C5.28941 8.29331 5.22431 8.27448 5.15953 8.25569C5.02999 8.21778 4.90142 8.18029 4.77415 8.14293C4.64689 8.10557 4.52419 8.05507 4.40113 8.01181C4.1528 7.92774 3.92369 7.82266 3.69862 7.72393C3.24829 7.5112 2.83767 7.28837 2.48808 7.02666C2.1407 6.77312 1.8428 6.50443 1.62162 6.23018C1.39903 5.95678 1.24897 5.68702 1.14924 5.45553C1.0595 5.22003 1.0186 5.02432 1.00348 4.8917C0.991466 4.75772 0.985365 4.68657 0.985365 4.68657Z" fill="white"/>
</svg>
