<svg width="30" height="31" viewBox="0 0 30 31" fill="none" xmlns="http://www.w3.org/2000/svg">
<path d="M18.4831 30.2792L16.3088 30.8015C15.6471 30.9057 14.9707 30.9524 14.2789 30.9364C13.5866 30.9223 12.9082 30.8482 12.2395 30.7158C8.92723 30.0746 5.97041 28.0633 3.8709 25.2343C2.97202 24.0311 2.23362 22.6815 1.68509 21.2277C1.05792 19.5648 0.68392 17.769 0.614235 15.8945C0.544549 14.0226 0.788128 12.2363 1.2951 10.6009C1.73623 9.16566 2.37746 7.84355 3.18811 6.67808C3.31342 6.49715 3.44384 6.3207 3.57618 6.14616C3.61837 6.0931 3.65993 6.04131 3.70148 5.99081C3.79674 5.86742 3.89456 5.74914 3.99429 5.63087C4.01986 5.60082 4.04543 5.56822 4.07101 5.53817C4.10361 5.50109 4.13622 5.46593 4.16626 5.4314C4.21038 5.38282 4.25257 5.33359 4.29668 5.28756C4.3734 5.20381 4.45012 5.12006 4.52875 5.03886C4.57095 4.99731 4.6125 4.95319 4.65662 4.90908C4.7474 4.81638 4.8401 4.72751 4.93344 4.63737C4.96605 4.60924 4.99609 4.57919 5.02614 4.54914C5.15145 4.43279 5.27931 4.31899 5.40717 4.2103C5.43978 4.18217 5.47238 4.1566 5.50243 4.13167C5.60216 4.04792 5.7019 3.96417 5.80419 3.88553C5.85277 3.84845 5.89944 3.81137 5.94803 3.77429C6.03626 3.70908 6.12448 3.64195 6.21526 3.57674C6.26641 3.53966 6.31947 3.50258 6.37317 3.4655C6.46396 3.40284 6.55474 3.34275 6.64488 3.28457C6.69603 3.25005 6.74909 3.21489 6.80024 3.18228C6.90253 3.11707 7.00482 3.05442 7.10903 2.99432C7.15122 2.96875 7.19533 2.94317 7.23689 2.9176C7.38329 2.83385 7.53161 2.75266 7.68313 2.67594C7.70614 2.66187 7.72916 2.65292 7.75537 2.63886C7.88068 2.5762 8.0111 2.51355 8.13832 2.45282C8.19139 2.42724 8.24509 2.40423 8.29879 2.38057C8.40108 2.33646 8.50529 2.28979 8.61014 2.24823C8.66831 2.22522 8.72841 2.20156 8.78914 2.17599C8.88888 2.13891 8.99117 2.09927 9.09601 2.06219C9.15419 2.04109 9.21429 2.02064 9.27502 1.99954C9.38626 1.96246 9.49558 1.9273 9.60938 1.89277C9.66053 1.87871 9.71359 1.86017 9.76474 1.8461C9.92968 1.79752 10.0972 1.7534 10.264 1.71376C10.989 1.53987 11.7134 1.36534 12.4383 1.19336C12.2708 1.233 12.1059 1.27711 11.9416 1.3257C11.8905 1.33976 11.8368 1.35575 11.7837 1.37237C11.6724 1.40753 11.5606 1.44205 11.4512 1.47913C11.3912 1.50023 11.3304 1.52069 11.2703 1.54179C11.168 1.57887 11.0657 1.61595 10.9634 1.65559C10.9053 1.6786 10.8452 1.70226 10.7844 1.72783C10.6796 1.77002 10.5779 1.81414 10.4757 1.86017C10.4226 1.88318 10.3689 1.90684 10.3152 1.93241C10.1873 1.99059 10.0595 2.05324 9.93415 2.11589C9.90858 2.12996 9.88301 2.14147 9.85744 2.15298C9.70848 2.23161 9.56016 2.31345 9.41375 2.39656C9.36964 2.42213 9.32809 2.4477 9.28397 2.47328C9.18168 2.53401 9.07939 2.59666 8.97966 2.65932L8.81919 2.76353C8.72841 2.8217 8.64018 2.8818 8.5494 2.94445C8.49634 2.98153 8.44263 3.01861 8.38893 3.05825C8.30071 3.12091 8.21248 3.18612 8.12681 3.25325C8.07823 3.29033 8.02708 3.32741 7.97785 3.36449C7.88004 3.44376 7.78031 3.5224 7.68505 3.60615C7.65053 3.63428 7.61536 3.65985 7.58276 3.6899C7.45234 3.79922 7.32703 3.91302 7.20428 4.02682C7.16976 4.05943 7.13715 4.09203 7.10199 4.12464C7.01121 4.2103 6.92043 4.29661 6.83476 4.3874C6.78809 4.43151 6.74398 4.47818 6.69987 4.52421C6.62315 4.60349 6.54899 4.68212 6.47419 4.76332C6.43007 4.81446 6.3834 4.86305 6.33929 4.9142C6.28111 4.97941 6.22805 5.04398 6.17243 5.10727C6.0727 5.2281 5.97296 5.34893 5.87515 5.46976C5.83359 5.52347 5.7914 5.57461 5.7524 5.62767C5.61751 5.80157 5.48773 5.97866 5.36242 6.15959C4.55433 7.32571 3.91054 8.64718 3.46941 10.0805C2.96307 11.7159 2.72141 13.5041 2.7911 15.3766C2.85823 17.2486 3.23223 19.0463 3.86195 20.7098C4.41048 22.1637 5.14889 23.5133 6.04776 24.7145C8.14727 27.5461 11.1041 29.5574 14.4164 30.1986C15.0832 30.331 15.7634 30.4058 16.4558 30.4192C17.1475 30.4301 17.8233 30.3859 18.4831 30.2792Z" fill="#3DAD16"/>
<path d="M25.3643 12.267C25.7383 13.4012 25.9627 14.6095 26.0081 15.8619C26.0541 17.115 25.9186 18.3169 25.627 19.437C25.5829 19.6058 25.5356 19.7726 25.4851 19.9369C25.1456 21.0404 24.6521 22.0575 24.0288 22.9551C23.9341 23.092 23.8363 23.2262 23.736 23.3573C22.3832 25.1263 20.5106 26.3717 18.3548 26.8262C18.2014 26.8588 18.0461 26.887 17.8894 26.9112C17.3818 26.9918 16.8608 27.027 16.3276 27.0155C15.7963 27.0046 15.2721 26.9477 14.7574 26.8454C14.5989 26.8147 14.4416 26.7796 14.285 26.7406C12.0915 26.1959 10.125 24.8699 8.63919 23.0421C8.52859 22.9066 8.42055 22.7678 8.3157 22.6265C7.62524 21.7008 7.05625 20.6619 6.63494 19.5425C6.57165 19.3756 6.51155 19.2062 6.45529 19.0355C6.07938 17.9007 5.85562 16.6911 5.80959 15.4387C5.76356 14.1869 5.89909 12.9856 6.18998 11.8655C6.23409 11.6961 6.2814 11.5286 6.33255 11.363C6.67202 10.2595 7.16749 9.24303 7.7889 8.34479C7.88352 8.20733 7.98134 8.07372 8.08235 7.94202C9.43706 6.17302 11.3096 4.92571 13.4667 4.47115C13.6201 4.43855 13.7754 4.41042 13.9321 4.38613C14.4397 4.30557 14.9601 4.27041 15.492 4.28192C16.0252 4.29278 16.5494 4.34968 17.0634 4.45133C17.222 4.48202 17.3793 4.51719 17.5359 4.55618C19.7281 5.10152 21.6965 6.42875 23.181 8.2572C23.291 8.39274 23.3984 8.53147 23.5032 8.67212C24.1937 9.59721 24.7627 10.6367 25.184 11.7556C25.2479 11.9256 25.308 12.0957 25.3643 12.267Z" fill="#3DAD16"/>
<path d="M29.0322 15.9238C28.9625 14.0538 28.5885 12.2516 27.9613 10.5932C27.4154 9.13683 26.6744 7.78722 25.7781 6.58658C23.676 3.7576 20.7192 1.74374 17.4095 1.09995C16.7407 0.967611 16.0599 0.895366 15.3675 0.88194C14.6751 0.867875 13.9994 0.91199 13.3396 1.01684C10.0714 1.52318 7.25843 3.41365 5.36095 6.16144C4.5503 7.32756 3.90906 8.64711 3.46538 10.0824C2.9616 11.7178 2.71738 13.5059 2.78707 15.3785C2.85675 17.2504 3.23075 19.0482 3.85792 20.7117C4.40581 22.1655 5.14486 23.5151 6.04373 24.7158C8.14324 27.5473 11.1001 29.5567 14.4124 30.1998C15.0811 30.3322 15.7594 30.4063 16.4518 30.4204C17.1441 30.4345 17.8199 30.3878 18.4816 30.2836C21.7472 29.7798 24.5602 27.8887 26.4577 25.1409C27.2683 23.9748 27.9096 22.6559 28.3507 21.2225C28.8557 19.582 29.1019 17.7983 29.0322 15.9238Z" fill="#3DAD16"/>
<path d="M25.6265 19.4363C25.5824 19.6057 25.5338 19.7732 25.4846 19.9381C25.1458 21.0416 24.6509 22.0587 24.0282 22.9551C23.933 23.0919 23.8352 23.2268 23.7335 23.3572C22.382 25.1268 20.5095 26.3722 18.3543 26.8274C18.2009 26.86 18.0455 26.8875 17.8896 26.9112C17.3807 26.9924 16.8609 27.0275 16.3264 27.016C15.7945 27.0064 15.2722 26.9489 14.7563 26.8466C14.5984 26.8166 14.4405 26.7814 14.2851 26.7424C12.0923 26.199 10.1251 24.8724 8.63868 23.0446C8.52936 22.9097 8.42259 22.7703 8.31583 22.629C7.62601 21.7046 7.05702 20.6637 6.63635 19.5443C6.5737 19.3768 6.51296 19.2099 6.45543 19.038C6.08143 17.9044 5.85639 16.6942 5.80972 15.4424C5.76305 14.1906 5.9005 12.9894 6.19075 11.868C6.23486 11.7005 6.28345 11.5336 6.33459 11.3661C6.67407 10.2627 7.16826 9.24551 7.79095 8.34918C7.88429 8.21173 7.98403 8.07747 8.08376 7.94513C9.43783 6.17741 11.3104 4.9301 13.4681 4.47491C13.6215 4.4423 13.7768 4.41481 13.9328 4.39116C14.4417 4.30996 14.9615 4.2748 15.4934 4.28631C16.0253 4.29526 16.5502 4.35344 17.0636 4.45573C17.224 4.48578 17.3794 4.52094 17.5373 4.56058C18.6337 4.83229 19.6739 5.30155 20.6239 5.92872C21.5765 6.55845 22.4402 7.34545 23.1812 8.26095C23.2905 8.39777 23.3992 8.53522 23.504 8.67651C24.1938 9.60097 24.7628 10.6418 25.1835 11.7587C25.2461 11.9281 25.3069 12.0981 25.3644 12.2695C25.7384 13.403 25.9615 14.6107 26.0076 15.8631C26.0536 17.1155 25.9168 18.3162 25.6265 19.4363Z" fill="#3DAD16"/>
<path d="M15.5354 5.4389C16.0137 5.44913 16.4855 5.50028 16.9483 5.59042C19.2364 6.03475 21.281 7.4259 22.7335 9.38222C23.3523 10.2127 23.8644 11.1467 24.2423 12.153C24.6757 13.3012 24.9353 14.546 24.9826 15.84C25.0299 17.134 24.8618 18.3691 24.5121 19.5014C24.2071 20.4929 23.7634 21.4072 23.2047 22.2134C21.8915 24.1121 19.948 25.4183 17.6893 25.7673C17.2328 25.8389 16.7636 25.8703 16.2854 25.8607C15.8072 25.8511 15.3373 25.7993 14.875 25.7092C12.585 25.2648 10.5424 23.8756 9.08988 21.9193C8.46911 21.0888 7.95766 20.1541 7.57918 19.1485C7.14445 18.0002 6.88489 16.7555 6.83694 15.4615C6.78963 14.1675 6.95777 12.9324 7.30747 11.8001C7.61243 10.8079 8.05803 9.89432 8.61679 9.08813C9.92994 7.18936 11.8735 5.88131 14.1341 5.53224C14.5899 5.46 15.0572 5.42867 15.5354 5.4389Z" fill="white"/>
<path d="M7.72776 9.0069C7.66191 9.11366 7.68749 9.26582 7.7885 9.34637C7.82814 9.37834 7.87289 9.39496 7.917 9.3956C7.98349 9.39688 8.04742 9.36363 8.08706 9.29842C8.17784 9.1533 8.27182 9.00754 8.37027 8.86625C8.66308 8.44302 8.98721 8.04664 9.33756 7.68478C9.42259 7.59528 9.4245 7.44184 9.34139 7.34019C9.29664 7.28713 9.23655 7.25964 9.17709 7.25836C9.1253 7.25708 9.07416 7.2769 9.03452 7.31718C8.66883 7.69757 8.33 8.11185 8.02313 8.55362C7.92148 8.70194 7.82174 8.85346 7.72776 9.0069Z" fill="white"/>
<path d="M22.778 23.9899C22.863 23.9023 22.8649 23.7489 22.7818 23.6472C22.7377 23.5935 22.6782 23.5648 22.6194 23.5635C22.5676 23.5629 22.5165 23.5827 22.4768 23.6242C22.0095 24.1063 21.4942 24.5314 20.9393 24.8894C20.8383 24.954 20.8089 25.1023 20.8722 25.22C20.9156 25.2992 20.9911 25.344 21.0652 25.3453C21.1017 25.3459 21.1381 25.3363 21.1707 25.3152C21.7525 24.9393 22.2914 24.4937 22.778 23.9899Z" fill="white"/>
<path d="M11.6541 25.0338C11.7091 24.9187 11.6682 24.7678 11.5627 24.6994C10.9809 24.3184 10.433 23.8708 9.92989 23.3683C9.88705 23.3261 9.83527 23.3044 9.78349 23.3038C9.72403 23.3025 9.66585 23.3281 9.6243 23.3805C9.54886 23.4789 9.56164 23.6324 9.65371 23.7238C10.1799 24.2493 10.752 24.716 11.3626 25.1169C11.3978 25.1392 11.4348 25.1507 11.4713 25.1514C11.5448 25.1527 11.6158 25.1105 11.6541 25.0338Z" fill="white"/>
<path d="M8.52222 22.0426C8.61556 21.9653 8.62963 21.8144 8.5561 21.7032C8.15078 21.1035 7.7966 20.4591 7.50251 19.7756C7.46352 19.6842 7.38232 19.6279 7.29921 19.626C7.27044 19.6254 7.24103 19.6318 7.21354 19.6452C7.10678 19.6989 7.06267 19.8415 7.11445 19.9649C7.4226 20.679 7.79276 21.3554 8.21727 21.9845C8.26202 22.0503 8.32787 22.0855 8.395 22.0868C8.43975 22.0874 8.4845 22.0733 8.52222 22.0426Z" fill="white"/>
<path d="M25.0407 20.328C25.0841 20.2065 25.0311 20.062 24.9198 20.0038C24.8911 19.9891 24.8616 19.9821 24.8322 19.9815C24.7491 19.9802 24.6718 20.0326 24.6379 20.1228C24.3949 20.7947 24.09 21.427 23.7281 22.0113C23.6617 22.1181 23.6879 22.2696 23.787 22.3527C23.8266 22.3847 23.872 22.4007 23.9155 22.4013C23.9826 22.4026 24.0472 22.3693 24.0874 22.3048C24.4678 21.6923 24.7862 21.0306 25.0407 20.328Z" fill="white"/>
<path d="M10.6396 5.99159C10.5405 6.05617 10.5111 6.20449 10.5744 6.32212C10.6179 6.40076 10.6914 6.44551 10.7649 6.44679C10.802 6.44743 10.8391 6.4372 10.873 6.41546C11.4228 6.06128 12.009 5.77103 12.6279 5.55302C12.7404 5.51211 12.7967 5.37593 12.7551 5.24871C12.7219 5.14514 12.6349 5.07865 12.5448 5.07673C12.5224 5.07609 12.5 5.07993 12.4783 5.0876C11.83 5.3152 11.2144 5.62015 10.6396 5.99159Z" fill="white"/>
<path d="M18.2745 5.35459C18.2426 5.48054 18.3103 5.61863 18.4241 5.66274C19.0615 5.9044 19.6727 6.21767 20.2487 6.59487C20.2832 6.61724 20.321 6.62875 20.358 6.62939C20.4328 6.63131 20.5044 6.58911 20.5409 6.51176C20.5959 6.39668 20.555 6.24644 20.4495 6.17803C19.8466 5.78357 19.2079 5.45496 18.5405 5.20243C18.5181 5.19412 18.4951 5.18965 18.4733 5.18901C18.3806 5.18709 18.2988 5.25166 18.2745 5.35459Z" fill="white"/>
<path d="M24.4096 11.1956C24.3028 11.2474 24.26 11.3919 24.3124 11.5153C24.3872 11.6847 24.4575 11.8586 24.5234 12.0344C24.7171 12.5465 24.8769 13.0771 25.0003 13.6237C25.0252 13.7382 25.1179 13.8175 25.2189 13.82C25.2336 13.8207 25.249 13.8194 25.2637 13.8162C25.3788 13.7893 25.4478 13.6621 25.419 13.531C25.2892 12.9595 25.1217 12.4039 24.9191 11.8688C24.8513 11.6847 24.7765 11.5044 24.6998 11.3248C24.6614 11.234 24.5802 11.1777 24.4971 11.1764C24.4677 11.1752 24.4377 11.1815 24.4096 11.1956Z" fill="white"/>
<path d="M6.22456 13.1658C6.20538 13.2981 6.28401 13.4286 6.40293 13.458C6.41763 13.4618 6.43297 13.4637 6.44704 13.4644C6.54677 13.4663 6.63372 13.3902 6.65034 13.2764C6.73537 12.7221 6.85748 12.187 7.01539 11.6717C7.06653 11.5087 7.1196 11.3482 7.1765 11.1897C7.21997 11.0682 7.16691 10.9237 7.05567 10.8675C7.02626 10.8521 6.99557 10.8444 6.96616 10.8438C6.88305 10.8419 6.80633 10.8949 6.77437 10.9845C6.71619 11.1513 6.65929 11.3182 6.60623 11.4876C6.44065 12.0265 6.31214 12.5885 6.22456 13.1658Z" fill="white"/>
<path d="M15.5237 26.3995C15.5321 26.2665 15.4406 26.1444 15.3224 26.1297C15.1613 26.1073 14.9995 26.0792 14.8403 26.0491C14.3442 25.952 13.8577 25.8126 13.3865 25.6329C13.3648 25.6246 13.3424 25.6208 13.3213 25.6202C13.2299 25.6182 13.1474 25.6809 13.1212 25.7845C13.0892 25.9104 13.157 26.0485 13.2708 26.0926C13.7644 26.2793 14.2713 26.427 14.7917 26.5267C14.9592 26.5593 15.1261 26.5881 15.2961 26.6117C15.3032 26.6124 15.3102 26.613 15.3166 26.6137C15.4259 26.6156 15.518 26.5261 15.5237 26.3995Z" fill="white"/>
<path d="M25.5924 18.1456C25.7055 17.4072 25.749 16.6419 25.7203 15.8549L25.7196 15.83C25.7145 15.6944 25.6148 15.5851 25.4946 15.5826C25.375 15.58 25.283 15.688 25.2874 15.821L25.2887 15.846C25.3162 16.5978 25.2734 17.3317 25.166 18.035C25.1468 18.1673 25.2254 18.2971 25.3424 18.3272C25.3578 18.331 25.3725 18.3329 25.3872 18.3329C25.4888 18.3355 25.5758 18.2594 25.5924 18.1456Z" fill="white"/>
<path d="M6.66304 17.9502C6.77812 17.9233 6.84717 17.7961 6.8184 17.665C6.65793 16.9541 6.56075 16.2195 6.53135 15.4658C6.52623 15.3341 6.42842 15.2228 6.31014 15.2203C6.18867 15.2177 6.09469 15.3238 6.09981 15.4587C6.1305 16.2457 6.23279 17.0142 6.40029 17.7584C6.42522 17.8728 6.51792 17.9527 6.61893 17.9546C6.633 17.9546 6.6477 17.9533 6.66304 17.9502Z" fill="white"/>
<path d="M14.4649 4.64847C14.3473 4.66062 14.2648 4.77697 14.2827 4.91251C14.2993 5.03654 14.3972 5.1318 14.5058 5.13435C14.5135 5.13435 14.5212 5.13435 14.5289 5.13371C14.8562 5.10111 15.1854 5.08704 15.523 5.09408C15.8478 5.10111 16.1712 5.12604 16.4883 5.1708C16.4967 5.17143 16.5043 5.17207 16.512 5.17271C16.622 5.17527 16.7108 5.08385 16.7185 4.9579C16.7249 4.82492 16.6354 4.70473 16.5152 4.68811C16.1834 4.644 15.8452 4.61587 15.5057 4.60883C15.1528 4.60052 14.8063 4.61395 14.4649 4.64847Z" fill="white"/>
<path d="M23.2599 9.58584C23.1646 9.44711 23.0655 9.30774 22.9645 9.17284C22.6327 8.72596 22.2708 8.3072 21.8841 7.92169C21.792 7.83027 21.7792 7.67684 21.8553 7.57838C21.8956 7.52596 21.9537 7.49974 22.0126 7.50102C22.0637 7.5023 22.1161 7.5234 22.159 7.56623C22.5649 7.969 22.9421 8.4063 23.2893 8.87236C23.3941 9.01365 23.497 9.15878 23.5968 9.30582C23.6729 9.41578 23.6562 9.56858 23.5635 9.64594C23.5265 9.67663 23.4823 9.69069 23.4382 9.69005C23.3711 9.68877 23.3046 9.65297 23.2599 9.58584Z" fill="white"/>
<path d="M19.2495 25.7403C19.3409 25.7422 19.4272 25.8087 19.4611 25.9123C19.5026 26.0401 19.4451 26.1757 19.3339 26.2147C18.8512 26.3854 18.3487 26.5094 17.8321 26.59C17.6723 26.6155 17.5093 26.6373 17.3456 26.6526C17.3379 26.6533 17.3303 26.6539 17.3226 26.6533C17.2139 26.6507 17.1161 26.5561 17.1001 26.4314C17.0822 26.2959 17.1647 26.1795 17.2823 26.1674C17.4402 26.152 17.5943 26.1322 17.7484 26.1086C18.2432 26.0318 18.722 25.911 19.183 25.7505C19.2047 25.7435 19.2271 25.7397 19.2495 25.7403Z" fill="white"/>
<path d="M25.1856 11.7589C24.7643 10.6394 24.1953 9.60051 23.5048 8.67542C23.4 8.53413 23.2926 8.39604 23.1826 8.2605L25.7795 6.5874C26.6752 7.78868 27.4168 9.13893 27.9621 10.5947L25.3652 12.2684C25.3083 12.0971 25.2489 11.927 25.1856 11.7589Z" fill="white"/>
<path d="M25.4865 19.9374C25.537 19.7731 25.5843 19.6063 25.6284 19.4375L28.3532 21.2218C27.9133 22.6552 27.2702 23.976 26.4614 25.1421L23.7373 23.3578C23.8377 23.2267 23.9355 23.0925 24.0301 22.9557C24.6534 22.0581 25.147 21.0409 25.4865 19.9374Z" fill="white"/>
<path d="M6.33446 11.3657C6.28331 11.5313 6.236 11.6988 6.19189 11.8682L3.46777 10.0838C3.90954 8.64857 4.55205 7.32774 5.36142 6.16162L8.08426 7.94532C7.98389 8.07638 7.88607 8.21064 7.79146 8.34809C7.1694 9.24569 6.67393 10.2629 6.33446 11.3657Z" fill="white"/>
<path d="M13.3408 1.01671C14.0006 0.911863 14.6757 0.868389 15.3681 0.882454C16.0605 0.896519 16.7413 0.968762 17.4101 1.1011L17.5373 4.55854C17.3806 4.51954 17.2234 4.48502 17.0648 4.45369C16.5502 4.3514 16.0266 4.29514 15.4934 4.28427C14.9621 4.2734 14.4411 4.30792 13.9335 4.38848C13.7768 4.41277 13.6221 4.4409 13.468 4.47351L13.3408 1.01671Z" fill="white"/>
<path d="M18.4831 30.2847L16.3069 30.8058C15.6471 30.9106 14.9701 30.9567 14.2783 30.942C13.586 30.9279 12.9064 30.8531 12.2383 30.7208L14.4145 30.1997C15.0832 30.332 15.7628 30.4068 16.4546 30.4209C17.1457 30.435 17.8227 30.3896 18.4831 30.2847Z" fill="white"/>
<mask id="mask0_508_3301" style="mask-type:luminance" maskUnits="userSpaceOnUse" x="12" y="30" width="7" height="1">
<path d="M18.4841 30.2843L16.3079 30.8053C15.6481 30.9101 14.971 30.9562 14.2793 30.9415C13.5869 30.9274 12.9073 30.8526 12.2393 30.7203L14.4155 30.1992C15.0842 30.3316 15.7638 30.4064 16.4555 30.4204C17.1466 30.4345 17.8237 30.3891 18.4841 30.2843Z" fill="white"/>
</mask>
<g mask="url(#mask0_508_3301)">
<path d="M18.4841 30.2843L16.3079 30.8053C15.6481 30.9101 14.971 30.9562 14.2793 30.9415C13.5869 30.9274 12.9073 30.8526 12.2393 30.7203L14.4155 30.1992C15.0842 30.3316 15.7638 30.4064 16.4555 30.4204C17.1466 30.4345 17.8237 30.3891 18.4841 30.2843Z" fill="white"/>
</g>
<path d="M16.3281 27.0169C16.8613 27.0278 17.3817 26.9933 17.8899 26.9127C18.0466 26.8884 18.2013 26.8603 18.3554 26.8277L18.4826 30.2851C17.8222 30.39 17.1458 30.436 16.4534 30.4213C15.7617 30.4073 15.0821 30.3325 14.4134 30.2001L14.2861 26.7427C14.4421 26.7817 14.6 26.8162 14.7586 26.8475C15.2726 26.9492 15.7962 27.0061 16.3281 27.0169Z" fill="white"/>
<mask id="mask1_508_3301" style="mask-type:luminance" maskUnits="userSpaceOnUse" x="1" y="6" width="5" height="5">
<path d="M3.46758 10.0838L1.29199 10.6049C1.73312 9.16962 2.37627 7.84878 3.18564 6.68267L5.36123 6.16162C4.55185 7.3271 3.9087 8.64857 3.46758 10.0838Z" fill="white"/>
</mask>
<g mask="url(#mask1_508_3301)">
<path d="M3.46758 10.0838L1.29199 10.6049C1.73312 9.16962 2.37627 7.84878 3.18564 6.68267L5.36123 6.16162C4.55185 7.3271 3.9087 8.64857 3.46758 10.0838Z" fill="white"/>
</g>
<path d="M6.63723 19.5449C7.05854 20.6644 7.62753 21.7033 8.31799 22.629C8.42283 22.7703 8.53088 22.9084 8.64148 23.0445L6.04587 24.717C5.14827 23.5157 4.40858 22.1655 3.86133 20.7123L6.45822 19.0386C6.51448 19.2086 6.57394 19.3774 6.63723 19.5449Z" fill="white"/>
<path d="M6.04631 24.7166L3.87008 25.2377C2.97185 24.0357 2.2328 22.6861 1.68555 21.2323L3.86177 20.7119C4.40902 22.1651 5.14807 23.5153 6.04631 24.7166Z" fill="white"/>
<mask id="mask2_508_3301" style="mask-type:luminance" maskUnits="userSpaceOnUse" x="1" y="20" width="6" height="6">
<path d="M6.04533 24.7161L3.86911 25.2372C2.97087 24.0352 2.23182 22.6856 1.68457 21.2318L3.86079 20.7114C4.40805 22.1646 5.1471 23.5148 6.04533 24.7161Z" fill="white"/>
</mask>
<g mask="url(#mask2_508_3301)">
<path d="M6.04533 24.7161L3.86911 25.2372C2.97087 24.0352 2.23182 22.6856 1.68457 21.2318L3.86079 20.7114C4.40805 22.1646 5.1471 23.5148 6.04533 24.7161Z" fill="white"/>
</g>
<path d="M13.3401 1.01709C13.3401 1.01709 13.1879 1.04842 12.9021 1.10659C12.617 1.16605 12.2034 1.2709 11.6881 1.43904C11.1754 1.61294 10.5603 1.85204 9.89546 2.2075C9.23121 2.56232 8.51901 3.03158 7.81129 3.62743C7.10613 4.22455 6.40544 4.9489 5.77891 5.80175C5.70219 5.90916 5.62548 6.01784 5.54748 6.12717L5.4893 6.209L5.4746 6.22946L5.46373 6.24672L5.43688 6.29019L5.3282 6.46409C5.18435 6.6968 5.03347 6.93079 4.89026 7.17054C4.7624 7.41539 4.63262 7.66217 4.5022 7.91215C4.43316 8.03489 4.3737 8.1634 4.31936 8.29574C4.26246 8.4268 4.20556 8.5585 4.14802 8.69083C4.09048 8.82317 4.03358 8.95551 3.97541 9.08913C3.92746 9.22658 3.88015 9.36404 3.8322 9.50277C3.78425 9.64086 3.7363 9.7796 3.68772 9.91897L3.61483 10.128L3.56049 10.339C3.48569 10.6292 3.40961 10.9208 3.33417 11.2149C3.2907 11.3613 3.27024 11.509 3.24531 11.6566L3.16987 12.101C3.04584 12.6898 3.02858 13.3048 2.96913 13.9134C2.95442 14.219 2.96465 14.5265 2.96146 14.8334L2.96082 15.2944C2.95954 15.4337 2.98255 15.6 2.99214 15.7515L3.06183 16.6804C3.09827 16.986 3.15389 17.2846 3.19864 17.587L3.2696 18.0383C3.29709 18.1879 3.33929 18.3356 3.37317 18.4839C3.44478 18.7806 3.51574 19.0759 3.58734 19.3707C3.68132 19.6584 3.77466 19.9454 3.86736 20.2305L4.00545 20.6525C4.06299 20.7919 4.12053 20.9306 4.17807 21.0693C4.29762 21.343 4.39544 21.6294 4.53033 21.887C4.66011 22.1479 4.78925 22.4074 4.91712 22.6644C5.05329 22.9176 5.20609 23.1612 5.34737 23.406C5.48483 23.6547 5.64466 23.8855 5.80193 24.1144C5.87992 24.2295 5.95728 24.3439 6.03464 24.4571L6.15035 24.6271L6.27502 24.7851C6.44508 24.9999 6.61322 25.2115 6.77944 25.4212C6.93927 25.6373 7.12147 25.822 7.29728 26.0087C7.47309 26.1954 7.64635 26.3795 7.8164 26.5604C7.99605 26.7324 8.18337 26.891 8.36174 27.0527C8.54394 27.2093 8.71081 27.3781 8.89685 27.5169C9.08289 27.655 9.26445 27.7905 9.44218 27.9222C9.62247 28.0501 9.78677 28.1939 9.97153 28.2975C10.3327 28.5155 10.6665 28.7399 10.997 28.9195C11.3352 29.0864 11.6516 29.243 11.9438 29.3875C12.2424 29.5186 12.5281 29.6132 12.78 29.7123C12.9073 29.7602 13.0268 29.8056 13.14 29.8485C13.2531 29.8913 13.365 29.913 13.4654 29.9431C13.6687 29.9981 13.8419 30.0454 13.9826 30.0831C14.2639 30.1592 14.4141 30.2001 14.4141 30.2001C14.4141 30.2001 14.2626 30.1656 13.9788 30.1016C13.8368 30.0697 13.661 30.0294 13.4545 29.9834C13.3522 29.9571 13.2384 29.9412 13.1234 29.9022C13.0083 29.8632 12.8868 29.821 12.7577 29.7769C12.5013 29.6854 12.2104 29.5991 11.9055 29.4764C11.6063 29.3396 11.2821 29.1925 10.9363 29.0346C10.5968 28.8639 10.2528 28.6485 9.88011 28.4388C9.68896 28.3403 9.52146 28.1971 9.33606 28.0712C9.15321 27.9407 8.96653 27.8071 8.77538 27.6703C8.58422 27.5335 8.41225 27.366 8.22429 27.2106C8.04016 27.0502 7.84709 26.8922 7.66105 26.7209C7.48332 26.5393 7.3024 26.3546 7.11891 26.1673C6.93479 25.9799 6.74364 25.792 6.58189 25.581C6.41183 25.3751 6.23986 25.1661 6.06532 24.9551L5.93107 24.7914L5.81024 24.6207C5.72968 24.5069 5.64849 24.3919 5.56666 24.2768C5.48483 24.1611 5.403 24.0454 5.31988 23.9284C5.23805 23.8114 5.17028 23.6841 5.09421 23.5614C4.94844 23.3121 4.79181 23.0666 4.65052 22.8076C4.51754 22.5442 4.38329 22.2783 4.24775 22.0104C4.10711 21.7438 4.01057 21.4651 3.88846 21.1902C3.83028 21.0521 3.7721 20.9133 3.71329 20.7746C3.66406 20.6288 3.61483 20.4824 3.56561 20.3354C3.46907 20.0451 3.37189 19.753 3.27408 19.4602C3.19992 19.1603 3.12512 18.8598 3.04968 18.5581C3.01388 18.4066 2.97041 18.257 2.94164 18.1035L2.86556 17.6387C2.81761 17.3287 2.75815 17.0173 2.71979 16.7073L2.64499 15.7783C2.63604 15.6198 2.61559 15.4766 2.61623 15.3052L2.61942 14.8347C2.62454 14.5214 2.61687 14.2075 2.63349 13.8955C2.69806 13.2735 2.71979 12.6508 2.85149 12.0402L2.93269 11.5825C2.95954 11.4303 2.98319 11.2769 3.02667 11.1324C3.10466 10.8396 3.18202 10.5481 3.25874 10.2584L3.31819 10.0353L3.39363 9.82243C3.4435 9.6805 3.494 9.53921 3.54323 9.39792C3.5931 9.25727 3.64296 9.11662 3.69219 8.97661C3.75165 8.84108 3.8111 8.70554 3.87056 8.57064C3.93002 8.43639 3.98883 8.30213 4.04829 8.16851C4.10455 8.03426 4.16592 7.90255 4.2388 7.77597C4.37754 7.52024 4.51435 7.26771 4.64988 7.0171C4.79884 6.77863 4.95292 6.54912 5.10188 6.31832L5.21376 6.14698L5.24189 6.10415L5.25915 6.07922L5.27449 6.05876L5.33523 5.97629C5.41642 5.86632 5.49697 5.75764 5.57753 5.64896C6.23282 4.79227 6.96036 4.0692 7.6879 3.47591C8.41608 2.88134 9.15449 2.42871 9.83728 2.09178C10.5207 1.75359 11.1479 1.53238 11.6689 1.37319C11.931 1.29903 12.165 1.23062 12.3734 1.19098C12.5806 1.14623 12.7557 1.10531 12.9002 1.08613C13.1866 1.04138 13.3401 1.01709 13.3401 1.01709Z" fill="white"/>
<path d="M17.4774 20.4849C17.3207 20.4849 17.145 20.4661 16.9504 20.4284C16.7612 20.4002 16.5721 20.3531 16.3829 20.2872C16.1991 20.2213 16.0369 20.1366 15.8964 20.033V18.1408C16.0261 18.2349 16.1721 18.3196 16.3342 18.395C16.5018 18.4609 16.6667 18.5126 16.8288 18.5503C16.9964 18.588 17.145 18.6068 17.2747 18.6068C17.6099 18.6068 17.8558 18.5173 18.0126 18.3385C18.1747 18.1596 18.2558 17.8536 18.2558 17.4206C18.2558 17.0346 18.1991 16.7569 18.0855 16.5874C17.9774 16.4085 17.7666 16.3191 17.4531 16.3191H15.8721V15.1753L16.0099 11.2495H19.2531L19.1558 13.0006H17.1288L17.072 14.6528H17.7531C18.3855 14.6528 18.8477 14.8976 19.1396 15.3871C19.4369 15.8672 19.5855 16.5733 19.5855 17.5053C19.5855 18.4091 19.4098 19.134 19.0585 19.68C18.7126 20.2166 18.1855 20.4849 17.4774 20.4849Z" fill="#4B4B4B"/>
<path d="M11.6836 20.3438V19.2847C11.8295 18.7575 12.016 18.2868 12.243 17.8726C12.4755 17.4583 12.7268 17.0394 12.9971 16.6158C13.2457 16.2204 13.443 15.905 13.589 15.6696C13.7349 15.4343 13.8376 15.2083 13.8971 14.9918C13.9619 14.7753 13.9944 14.5164 13.9944 14.2151C13.9944 13.4431 13.7079 13.0572 13.1349 13.0572C12.9133 13.0572 12.6944 13.1042 12.4782 13.1984C12.262 13.2831 12.0566 13.3914 11.862 13.5232V11.5603C12.0728 11.4285 12.3187 11.3202 12.5998 11.2355C12.8863 11.1508 13.1701 11.1084 13.4511 11.1084C14.0619 11.1084 14.5268 11.3767 14.8457 11.9133C15.1646 12.4499 15.3241 13.2031 15.3241 14.1728C15.3241 14.7188 15.2511 15.1942 15.1052 15.599C14.9592 15.9944 14.7403 16.4134 14.4484 16.8558C14.2322 17.1759 14.0376 17.4725 13.8646 17.7455C13.6971 18.0091 13.5538 18.2915 13.4349 18.5928H15.3727V20.3438H11.6836Z" fill="#4B4B4B"/>
</svg>
