<svg width="17" height="11" viewBox="0 0 17 11" fill="none" xmlns="http://www.w3.org/2000/svg">
<path d="M1.58325 6.30781C1.56881 6.29252 1.55437 6.27722 1.54027 6.26196C1.50994 6.22924 1.48034 6.19593 1.45139 6.16268C1.43797 6.14716 1.42452 6.13196 1.41143 6.11646C1.37875 6.07722 1.34708 6.03775 1.3168 5.99775C1.31092 5.9899 1.30437 5.98232 1.29849 5.97447C1.26174 5.9259 1.22702 5.87686 1.1943 5.82768C1.18792 5.81813 1.18224 5.80831 1.17587 5.79876C1.15047 5.75956 1.12576 5.72009 1.10273 5.68045C1.09357 5.66533 1.08543 5.64998 1.07664 5.63456C1.0577 5.60062 1.03911 5.56637 1.02187 5.53193C1.01297 5.51418 1.0044 5.49647 0.99583 5.47875C0.978451 5.44231 0.962091 5.40563 0.946744 5.36872C0.941108 5.35493 0.934786 5.3414 0.929447 5.32797C0.908622 5.27563 0.889136 5.22308 0.872344 5.17013C0.855286 5.11649 0.840558 5.06274 0.8278 5.00918C0.824461 4.99561 0.821782 4.98211 0.8191 4.9686C0.809665 4.9253 0.801546 4.88212 0.794769 4.83874C0.792542 4.82395 0.789979 4.80913 0.788111 4.79404C0.780482 4.73534 0.7745 4.6768 0.771529 4.61789C0.769504 4.5733 0.768822 4.52852 0.769814 4.48357C0.755659 5.16757 0.74114 5.85187 0.726985 6.53587C0.726024 6.58049 0.726738 6.62495 0.728763 6.66953C0.731405 6.72842 0.737364 6.78729 0.744993 6.84599C0.74574 6.85202 0.745865 6.85766 0.746612 6.8637C0.74803 6.87311 0.750428 6.88261 0.751845 6.89202C0.758218 6.93271 0.765576 6.9735 0.774605 7.01412C0.776882 7.02493 0.778147 7.03599 0.780752 7.04684C0.782156 7.05293 0.784215 7.05909 0.785947 7.06522C0.797536 7.1137 0.810825 7.16168 0.825759 7.20981C0.827023 7.21391 0.827961 7.21798 0.829225 7.22207C0.830021 7.22414 0.830519 7.22584 0.831315 7.2279C0.847437 7.27748 0.865586 7.32658 0.885053 7.37582C0.887208 7.38099 0.888707 7.38611 0.890861 7.39128C0.895966 7.40369 0.902388 7.41623 0.90779 7.42901C0.922137 7.46251 0.936816 7.49605 0.952837 7.52938C0.956975 7.53806 0.960417 7.547 0.964851 7.55604C0.96988 7.5658 0.975564 7.57562 0.980592 7.58537C0.99677 7.61707 1.01331 7.64846 1.03087 7.67962C1.03764 7.69187 1.04374 7.70438 1.05051 7.71662C1.05418 7.72326 1.05887 7.72968 1.06287 7.73635C1.08451 7.77321 1.1078 7.81022 1.13144 7.84693C1.13752 7.85613 1.14258 7.86555 1.14865 7.87475C1.14981 7.87651 1.15129 7.87831 1.15245 7.88008C1.18461 7.92821 1.21845 7.97617 1.25398 8.02363C1.25573 8.02611 1.25719 8.02824 1.25894 8.03073C1.26686 8.04142 1.27612 8.05192 1.2844 8.06231C1.31181 8.09773 1.33988 8.13322 1.369 8.16814C1.37374 8.17389 1.37784 8.17958 1.38291 8.18537C1.39155 8.19547 1.40118 8.20567 1.41014 8.2158C1.43787 8.24794 1.46659 8.28017 1.49603 8.31181C1.50443 8.32089 1.51211 8.33057 1.52084 8.33969C1.52773 8.3473 1.53597 8.35472 1.54322 8.36204C1.57634 8.39668 1.61081 8.43112 1.64566 8.46493C1.65568 8.4745 1.66435 8.48428 1.67436 8.49385C1.67769 8.49715 1.68138 8.50015 1.68504 8.50348C1.73178 8.54804 1.7799 8.59206 1.83005 8.63562C1.83736 8.64229 1.84504 8.64865 1.85268 8.65535C1.86707 8.66766 1.8828 8.67976 1.89752 8.6921C1.93706 8.72537 1.97726 8.7587 2.01884 8.7915C2.02747 8.79829 2.0354 8.80534 2.044 8.81246C2.05818 8.82343 2.07372 8.83419 2.0879 8.84515C2.13017 8.87769 2.17348 8.90966 2.21749 8.94137C2.23206 8.95171 2.24527 8.96258 2.26017 8.97295C2.27041 8.98022 2.28136 8.9869 2.2913 8.99382C2.35277 9.0368 2.41598 9.07896 2.48089 9.12062C2.48965 9.1261 2.49768 9.13217 2.50643 9.13764C2.50797 9.13879 2.50988 9.13963 2.51176 9.1408C2.59232 9.19191 2.6763 9.24202 2.76169 9.29127C2.77205 9.29723 2.78138 9.30343 2.79174 9.30939C2.80496 9.31662 2.8192 9.32361 2.83239 9.33117C2.92263 9.38155 3.01459 9.43143 3.11001 9.47965C3.11602 9.48255 3.12165 9.48607 3.12766 9.48896C3.12957 9.48981 3.13178 9.49101 3.13368 9.49186C3.20668 9.52866 3.28108 9.5646 3.35689 9.59969C3.41143 9.62512 3.46699 9.65031 3.52326 9.67491C3.54266 9.6834 3.56274 9.69161 3.58216 9.69977C3.61112 9.71215 3.64008 9.72453 3.66939 9.73661C3.72639 9.76062 3.78411 9.78403 3.84284 9.80721C3.87156 9.81857 3.90028 9.82994 3.92904 9.84097C3.94277 9.84626 3.95583 9.85182 3.96957 9.85711C3.98524 9.86292 4.00228 9.86819 4.01826 9.87436C4.14363 9.92114 4.27182 9.96621 4.40314 10.0096C4.41694 10.0142 4.42973 10.0191 4.44353 10.0237C4.45125 10.0261 4.45929 10.0286 4.46734 10.031C4.4908 10.0385 4.51462 10.0458 4.53844 10.053C4.60917 10.0754 4.68063 10.0971 4.7531 10.1186C4.78565 10.128 4.81854 10.1375 4.85146 10.1466C4.885 10.1561 4.91752 10.1658 4.95142 10.1751C4.97596 10.1817 5.00154 10.1878 5.02611 10.1941C5.08619 10.2102 5.14663 10.2259 5.20779 10.241C5.25988 10.2539 5.3123 10.2669 5.36508 10.2796C5.42531 10.294 5.48626 10.3078 5.54758 10.3212C5.58196 10.3288 5.6156 10.3374 5.65035 10.3447C5.69192 10.3533 5.73347 10.3622 5.7754 10.3706C5.88751 10.3932 5.99941 10.4145 6.11214 10.4343C6.13821 10.4388 6.16435 10.4426 6.19042 10.4471C6.26797 10.4605 6.34586 10.4739 6.4239 10.4857C6.42945 10.4865 6.43503 10.4871 6.44058 10.4879C6.61002 10.5137 6.77985 10.5356 6.94989 10.5552C6.96889 10.5574 6.9878 10.5605 7.00681 10.5627C7.03238 10.5655 7.05768 10.5675 7.08326 10.5703C7.1426 10.5767 7.20235 10.5824 7.26179 10.5878C7.29461 10.5909 7.32737 10.5947 7.36023 10.5975C7.38685 10.5997 7.4132 10.6013 7.43982 10.6035C7.48419 10.6071 7.52827 10.6103 7.57268 10.6136C7.60064 10.6156 7.62887 10.6183 7.65687 10.62C7.69868 10.6226 7.74023 10.6246 7.78174 10.6269C7.816 10.6289 7.85024 10.6312 7.88453 10.6328C7.89871 10.6335 7.91285 10.6345 7.9267 10.6352C8.01278 10.6391 8.09893 10.6424 8.18481 10.645C8.18579 10.6451 8.18677 10.6452 8.18811 10.645C8.20596 10.6454 8.22349 10.6457 8.24134 10.6461C8.30776 10.6478 8.37385 10.6495 8.4397 10.6502C8.47343 10.6508 8.5072 10.651 8.54129 10.6513C8.59162 10.6515 8.64162 10.6516 8.69169 10.6511C8.77817 10.6508 8.86476 10.6495 8.95072 10.6478C9.00318 10.6465 9.05504 10.6445 9.10721 10.6429C9.12548 10.6423 9.14408 10.6418 9.16235 10.6412C9.1803 10.6406 9.19821 10.6404 9.21619 10.6394C9.30765 10.6356 9.39917 10.6311 9.49046 10.6256C9.56308 10.6213 9.63548 10.616 9.7079 10.6103C9.71958 10.6095 9.73159 10.6086 9.74326 10.6077C9.75294 10.607 9.76291 10.6066 9.77258 10.6059C9.86937 10.5983 9.96528 10.5896 10.0613 10.5799C10.1362 10.5722 10.2109 10.5638 10.2853 10.555C10.2987 10.5533 10.3124 10.5519 10.3258 10.5506C10.3351 10.5495 10.3445 10.5487 10.3539 10.5473C10.4525 10.5352 10.5511 10.5221 10.6485 10.5079C10.7265 10.4965 10.8041 10.4847 10.8812 10.4722C10.9084 10.4679 10.9353 10.4635 10.9623 10.4588C11.0151 10.45 11.0671 10.44 11.1194 10.4305C11.1568 10.4238 11.1945 10.4171 11.2316 10.4101C11.24 10.4086 11.2485 10.4071 11.2569 10.4055C11.3227 10.393 11.3876 10.3793 11.4525 10.3656C11.4806 10.3597 11.5092 10.3545 11.5373 10.3483C11.5417 10.3474 11.5461 10.3464 11.5505 10.3455C11.6456 10.3248 11.7404 10.3031 11.8337 10.2802C11.8371 10.2792 11.8408 10.2786 11.8442 10.2779C11.9432 10.2536 12.0413 10.2286 12.1383 10.2021C12.1403 10.2016 12.1424 10.2008 12.1444 10.2004C12.1896 10.1881 12.234 10.1745 12.2786 10.1619C12.3307 10.147 12.3835 10.1325 12.435 10.1169C12.4377 10.1161 12.4401 10.115 12.4425 10.1143C12.5268 10.0886 12.6095 10.0617 12.6913 10.0344C12.706 10.0295 12.721 10.0253 12.7354 10.0201L12.7368 10.0196C12.8374 9.98548 12.9369 9.94996 13.0345 9.91326C13.0369 9.9125 13.0396 9.91143 13.0417 9.91064C13.0595 9.90407 13.0761 9.89671 13.0937 9.88978C13.1742 9.85906 13.2534 9.82756 13.3314 9.79494C13.3407 9.7912 13.3503 9.78748 13.3596 9.78373C13.3817 9.77426 13.4025 9.764 13.4247 9.75452C13.4979 9.72278 13.5706 9.69032 13.6417 9.65705C13.6587 9.64907 13.6766 9.64184 13.6933 9.63383C13.7078 9.62694 13.7208 9.61925 13.7354 9.61236C13.8434 9.5601 13.9493 9.5063 14.051 9.45046C14.0531 9.44933 14.0552 9.44821 14.0573 9.44708C14.0573 9.44708 14.0584 9.44652 14.059 9.44626C14.0845 9.43247 14.1085 9.41754 14.1337 9.40339C14.1845 9.37446 14.2353 9.34587 14.2845 9.31613C14.3133 9.29869 14.3406 9.28076 14.3687 9.26325C14.4057 9.23996 14.4433 9.21739 14.4794 9.19368C14.4865 9.18873 14.4936 9.18378 14.5007 9.17916C14.5212 9.16555 14.5411 9.15156 14.5613 9.1376C14.606 9.10709 14.6497 9.07616 14.6927 9.04484C14.7155 9.02815 14.7384 9.01112 14.7609 8.99406C14.8019 8.96321 14.8417 8.93191 14.8808 8.90021C14.9006 8.88422 14.9206 8.86858 14.9397 8.85252C14.9966 8.8053 15.0522 8.75729 15.1053 8.70805C15.2956 8.53348 15.4605 8.34987 15.5991 8.15544C15.7372 7.96196 15.8431 7.76574 15.918 7.56787C16.0101 7.32957 16.0572 7.08995 16.0621 6.85159C16.0763 6.16726 16.0908 5.48362 16.105 4.79929C16.1 5.03765 16.0529 5.27727 15.9609 5.51557C15.8856 5.7134 15.7794 5.9096 15.6416 6.10311C15.503 6.29753 15.3384 6.48118 15.1478 6.65571C15.0947 6.70496 15.0387 6.75293 14.9819 6.80048C14.9635 6.81595 14.9442 6.83099 14.9255 6.8461C14.8849 6.87898 14.8437 6.91114 14.8016 6.94321C14.7801 6.95938 14.7588 6.97522 14.7374 6.99106C14.6932 7.02327 14.6481 7.05506 14.6024 7.08645C14.5829 7.09982 14.5637 7.11355 14.5435 7.12653C14.4986 7.15635 14.4521 7.18535 14.4056 7.21468C14.3798 7.23077 14.3551 7.24695 14.3291 7.26268C14.2704 7.29813 14.2101 7.33244 14.1492 7.36669C14.1341 7.37518 14.1194 7.38404 14.104 7.3925C14.098 7.39591 14.0918 7.39895 14.0859 7.40203C13.9866 7.45612 13.8835 7.50853 13.7786 7.55943C13.7474 7.57466 13.7161 7.58955 13.6846 7.60442C13.6135 7.63769 13.5411 7.66985 13.4675 7.70189C13.4364 7.71547 13.406 7.72912 13.3742 7.74231C13.2966 7.77463 13.217 7.8061 13.1373 7.83689C13.1163 7.84514 13.0956 7.85376 13.0743 7.86166C12.9795 7.89697 12.8834 7.9315 12.7858 7.96488C12.7368 7.98139 12.6863 7.99676 12.6368 8.01289C12.5862 8.02924 12.5365 8.04602 12.4854 8.06133C12.4311 8.07799 12.376 8.09325 12.3212 8.10887C12.2762 8.12179 12.2322 8.13513 12.187 8.14736C11.989 8.20161 11.7862 8.25076 11.5795 8.29556C11.5555 8.30055 11.5312 8.30551 11.5069 8.31047C11.4281 8.32678 11.3491 8.34306 11.2694 8.35829C11.2343 8.36487 11.1983 8.37102 11.1629 8.37757C11.0834 8.39181 11.0038 8.40639 10.923 8.41952C10.7403 8.44907 10.5553 8.47508 10.368 8.49755C10.3543 8.49922 10.3406 8.50055 10.3268 8.50222C10.1482 8.52321 9.96766 8.54103 9.78578 8.55509C9.77309 8.55619 9.76047 8.55664 9.7481 8.55777C9.5676 8.57129 9.38577 8.58137 9.20291 8.58838C9.18562 8.58904 9.16869 8.58941 9.15173 8.5901C8.96296 8.59654 8.7732 8.59957 8.58283 8.59856C8.47357 8.59803 8.36446 8.59587 8.25476 8.59298C8.24784 8.59265 8.24121 8.59268 8.23426 8.59268C8.13053 8.5897 8.0266 8.58538 7.92277 8.58007C7.89146 8.5784 7.86018 8.5764 7.82887 8.57473C7.75641 8.57044 7.68397 8.56582 7.61157 8.56087C7.5688 8.55777 7.52571 8.55464 7.48265 8.55118C7.42249 8.54641 7.36238 8.54099 7.30232 8.53523C7.2429 8.52954 7.18349 8.52386 7.12411 8.51784C7.07983 8.51327 7.03562 8.50804 6.99173 8.50284C6.82103 8.48318 6.65022 8.4612 6.48012 8.4353C6.40894 8.42451 6.33821 8.41244 6.26712 8.40066C6.22802 8.39394 6.18849 8.38816 6.14909 8.38108C6.03801 8.3615 5.92705 8.3406 5.81658 8.3181C5.74184 8.30299 5.6689 8.2864 5.59559 8.27011C5.53103 8.25597 5.46652 8.24118 5.40271 8.22613C5.35154 8.21394 5.30106 8.20149 5.25061 8.18871C5.18882 8.17319 5.12773 8.1574 5.06733 8.14135C5.02597 8.13043 4.985 8.11889 4.94434 8.10771C4.79205 8.0653 4.6429 8.0212 4.49768 7.97417C4.48194 7.96902 4.4669 7.9636 4.45116 7.95845C4.31757 7.91452 4.18781 7.86864 4.06053 7.82101C4.03046 7.80985 4.00003 7.79899 3.97032 7.78753C3.94061 7.77607 3.91159 7.76435 3.88254 7.75295C3.82604 7.73065 3.76994 7.70772 3.71482 7.68489C3.6833 7.6716 3.6521 7.65834 3.62124 7.64512C3.54616 7.61276 3.47177 7.58012 3.39915 7.54634C3.32209 7.51047 3.2464 7.47408 3.17246 7.43685C3.16868 7.43483 3.16522 7.43284 3.16141 7.43115C3.06155 7.38085 2.96519 7.32856 2.87087 7.2758C2.84917 7.26379 2.8278 7.2518 2.80678 7.23952C2.72011 7.18981 2.63518 7.13928 2.55402 7.08745C2.54402 7.0812 2.53441 7.07431 2.52441 7.06805C2.45825 7.02561 2.39415 6.98238 2.33143 6.93861C2.30846 6.92249 2.28582 6.90642 2.26351 6.89037C2.21796 6.85752 2.17342 6.82443 2.12958 6.79108C2.10676 6.77333 2.08359 6.75587 2.06143 6.73818C2.01986 6.70538 1.97999 6.67208 1.94011 6.63878C1.91772 6.62008 1.89468 6.60131 1.87298 6.58234C1.82282 6.53878 1.77473 6.49442 1.72795 6.45019C1.7149 6.43768 1.70251 6.42523 1.6898 6.41275C1.65297 6.37875 1.61759 6.34356 1.58325 6.30781Z" fill="#3DAD16"/>
<path d="M3.16128 7.43247C3.06142 7.38216 2.96507 7.32987 2.87075 7.27712C2.84904 7.2651 2.82767 7.25312 2.80665 7.24083C2.71999 7.19113 2.63505 7.1406 2.55389 7.08877C2.54389 7.08251 2.53428 7.07563 2.52428 7.06937C2.45812 7.02693 2.39402 6.98369 2.3313 6.93992C2.30833 6.92381 2.28569 6.90773 2.26338 6.89168C2.21783 6.85883 2.1733 6.82575 2.12945 6.7924C2.10664 6.77464 2.08346 6.75719 2.06131 6.7395C2.01973 6.7067 1.97986 6.6734 1.93999 6.6401C1.9176 6.62139 1.89455 6.60262 1.87285 6.58365L1.83005 8.63562C1.83736 8.64229 1.84501 8.64898 1.85265 8.65567C1.86704 8.66798 1.88277 8.68009 1.89749 8.69243C1.93703 8.7257 1.97723 8.75903 2.01881 8.79183C2.02743 8.79862 2.03537 8.80567 2.04396 8.81279C2.05815 8.82375 2.07368 8.83452 2.08787 8.84548C2.13014 8.87802 2.17345 8.90999 2.21745 8.9417C2.23203 8.95204 2.24524 8.96291 2.26014 8.97328C2.27038 8.98055 2.28133 8.98723 2.29127 8.99415C2.35274 9.03713 2.41595 9.07929 2.48086 9.12095C2.48961 9.12643 2.49765 9.1325 2.5064 9.13797C2.50794 9.13911 2.50985 9.13996 2.51172 9.14113C2.59229 9.19224 2.67627 9.24235 2.76165 9.2916C2.77201 9.29756 2.78135 9.30376 2.79171 9.30972C2.80493 9.31695 2.81917 9.32394 2.83236 9.3315C2.9226 9.38188 3.01455 9.43176 3.10997 9.47998C3.11599 9.48288 3.12162 9.4864 3.12763 9.48929C3.12954 9.49014 3.13175 9.49134 3.13365 9.49219C3.20665 9.52899 3.28105 9.56493 3.35719 9.60005L3.4 7.54775C3.32295 7.51188 3.24727 7.47548 3.17332 7.43826C3.16852 7.43647 3.16506 7.43449 3.16128 7.43247Z" fill="white"/>
<path d="M15.5988 8.15807C15.7369 7.96459 15.8428 7.76836 15.9178 7.57049L15.9609 5.51822C15.8857 5.71606 15.7794 5.91226 15.6417 6.10576C15.5031 6.30019 15.3385 6.48384 15.1478 6.65837L15.105 8.71067C15.2956 8.53614 15.4603 8.35217 15.5988 8.15807Z" fill="white"/>
<path d="M9.78559 8.55705C9.7729 8.55816 9.76028 8.55861 9.74791 8.55974C9.56741 8.57326 9.38558 8.58334 9.20272 8.59035C9.18543 8.59101 9.1685 8.59138 9.15154 8.59207C8.96278 8.59851 8.77301 8.60153 8.58264 8.60053L8.53981 10.6528C8.59014 10.653 8.64015 10.6532 8.69022 10.6527C8.77671 10.6523 8.86329 10.651 8.94925 10.6493C9.00171 10.648 9.05358 10.646 9.10574 10.6444C9.12401 10.6438 9.14261 10.6433 9.16088 10.6427C9.17883 10.6421 9.19675 10.6419 9.21472 10.6409C9.30618 10.6371 9.3977 10.6326 9.48899 10.6271C9.56161 10.6228 9.63401 10.6175 9.70643 10.6118C9.7181 10.611 9.73012 10.6101 9.74179 10.6093C9.75147 10.6085 9.76144 10.6082 9.77111 10.6074C9.86791 10.5998 9.96381 10.5911 10.0598 10.5814C10.1347 10.5737 10.2094 10.5653 10.2838 10.5565C10.2972 10.5548 10.3109 10.5535 10.3243 10.5521C10.3337 10.551 10.343 10.5502 10.3524 10.5488C10.451 10.5367 10.5496 10.5236 10.647 10.5095C10.725 10.498 10.8026 10.4863 10.8797 10.4738L10.9225 8.42146C10.7398 8.451 10.5548 8.47701 10.3675 8.49949C10.3537 8.50115 10.34 8.50249 10.3263 8.50416C10.1477 8.52515 9.96747 8.543 9.78559 8.55705Z" fill="white"/>
<path d="M1.87252 6.58362C2.27992 6.9403 2.79261 7.26632 3.39863 7.54828C4.08999 7.86954 4.90242 8.13384 5.81616 8.31905C6.72882 8.50516 7.66582 8.59621 8.58228 8.60083C9.38577 8.60556 10.1751 8.544 10.9222 8.42176C12.6823 8.13915 14.2107 7.52363 15.1478 6.65903C15.3377 6.48476 15.5024 6.30079 15.6413 6.10573C15.779 5.91321 15.8856 5.71639 15.9612 5.51891C16.3378 4.54035 15.9617 3.53808 15.0011 2.70111C14.5945 2.34584 14.0805 2.01969 13.4758 1.73786C12.7845 1.4166 11.9724 1.15234 11.0597 0.966227C10.1459 0.781338 9.20861 0.690256 8.29215 0.685641C7.48767 0.680818 6.69804 0.74234 5.95096 0.864582C4.19199 1.14863 2.66362 1.76416 1.7262 2.62872C1.53627 2.80299 1.37187 2.98732 1.23409 3.18083C1.09529 3.37457 0.989782 3.57017 0.913117 3.76887C0.536587 4.74677 0.912406 5.74802 1.87252 6.58362Z" fill="#3DAD16"/>
<path d="M6.52323 1.73426C7.09893 1.64099 7.70663 1.59417 8.32578 1.59715C8.4185 1.59742 8.51074 1.59929 8.60357 1.60189L8.29186 0.685282C7.48801 0.68085 6.69838 0.742372 5.95038 0.863863L6.26212 1.78014C6.34848 1.7639 6.43572 1.74874 6.52323 1.73426Z" fill="white"/>
<path d="M13.4891 3.14893C13.5371 3.19063 13.5828 3.23277 13.6271 3.27543L15.0017 2.70118C14.5942 2.34548 14.0816 2.0188 13.4762 1.73724L12.1005 2.31173C12.1734 2.34256 12.2449 2.37425 12.3147 2.40677C12.7802 2.62359 13.1761 2.87516 13.4891 3.14893Z" fill="white"/>
<path d="M2.59994 4.11027C2.61372 4.06322 2.62948 4.01637 2.6472 3.9697C2.70483 3.81755 2.78688 3.6664 2.89325 3.51726C2.99926 3.36841 3.12612 3.22653 3.27278 3.0925C3.31782 3.0511 3.36445 3.01052 3.41268 2.97042L1.72627 2.62806C1.53696 2.80272 1.37191 2.987 1.23383 3.18014C1.0953 3.37457 0.989448 3.57014 0.913535 3.76792L2.59994 4.11027Z" fill="white"/>
<path d="M14.2273 5.31644C14.1696 5.46859 14.0876 5.61941 13.9813 5.76822C13.8749 5.9177 13.7483 6.05961 13.6017 6.19364C13.5566 6.23504 13.51 6.27562 13.4618 6.3154L15.1479 6.65771C15.3382 6.48315 15.5032 6.29954 15.6417 6.10511C15.7795 5.9116 15.8857 5.71541 15.961 5.51757L14.2749 5.17525C14.2611 5.22262 14.2453 5.2698 14.2273 5.31644Z" fill="white"/>
<path d="M10.9228 8.42182L10.6117 7.50561C10.5254 7.52185 10.4381 7.53734 10.3503 7.55146C9.77589 7.64486 9.16686 7.69187 8.54912 7.68804C8.45639 7.68777 8.36346 7.68616 8.27063 7.68356L8.58264 8.60053C9.38551 8.60487 10.1751 8.54334 10.9228 8.42182Z" fill="white"/>
<path d="M3.39863 7.54828L4.77405 6.97343C4.70147 6.94263 4.63001 6.91061 4.56054 6.87845C4.09336 6.6618 3.69801 6.41094 3.38404 6.13708C3.33636 6.09541 3.2904 6.05292 3.24613 6.01025L1.87213 6.58424C2.27929 6.93991 2.79261 7.26632 3.39863 7.54828Z" fill="white"/>
<path d="M3.24649 6.00996C3.29077 6.05262 3.33672 6.09512 3.38441 6.13678C3.69838 6.41065 4.09372 6.6615 4.5609 6.87815C4.63033 6.91064 4.70183 6.94233 4.7744 6.97313C5.25726 7.17837 5.80877 7.34811 6.42062 7.47229C7.03051 7.59628 7.6546 7.66532 8.27066 7.68324C8.3635 7.68583 8.45643 7.68744 8.54915 7.68771C9.16693 7.69122 9.77589 7.64486 10.3503 7.55146C10.4381 7.53734 10.5254 7.52152 10.6118 7.50528C11.7726 7.28585 12.7841 6.87524 13.4618 6.3154C13.51 6.27562 13.5567 6.23471 13.6017 6.19364C13.7483 6.05961 13.8749 5.91803 13.9813 5.76855C14.0876 5.61974 14.1696 5.46859 14.2273 5.31644C14.2454 5.26947 14.2611 5.22295 14.2749 5.17591C14.4661 4.51715 14.2208 3.85136 13.627 3.27576C13.5827 3.2331 13.5371 3.19063 13.4891 3.14893C13.1761 2.87516 12.7805 2.62395 12.3143 2.40739C12.2445 2.37487 12.173 2.34318 12.1001 2.31235C11.6172 2.10744 11.0648 1.93761 10.4552 1.81398C9.84331 1.6898 9.21988 1.62082 8.60385 1.60258C8.51101 1.59998 8.41844 1.59807 8.32604 1.59784C7.70692 1.59453 7.0992 1.64168 6.5235 1.73495C6.43602 1.7491 6.34874 1.76459 6.26271 1.78086C5.10285 2.00038 4.09132 2.41099 3.4133 2.97081C3.36511 3.01058 3.31813 3.05146 3.27342 3.09289C3.12676 3.22692 3.00021 3.36883 2.89387 3.51765C2.78747 3.66712 2.70513 3.81791 2.64782 3.97009C2.6301 4.01676 2.61433 4.06394 2.60058 4.11066C2.40933 4.76909 2.65374 5.43379 3.24649 6.00996Z" fill="#3DAD16"/>
<path d="M11.1907 7.20463C11.1571 7.17225 11.0805 7.15929 11.0193 7.17529C10.7614 7.24269 10.4914 7.29898 10.2138 7.34395C10.1297 7.35775 10.044 7.37041 9.95806 7.38206C9.91845 7.38754 9.88856 7.40224 9.87552 7.42086C9.86671 7.43327 9.86536 7.44739 9.873 7.46104C9.89181 7.49629 9.96205 7.51693 10.0285 7.50806C10.1185 7.49547 10.2078 7.48217 10.2957 7.46805C10.5863 7.42136 10.8676 7.36216 11.1376 7.29229C11.1668 7.28482 11.1872 7.27253 11.1979 7.25798C11.2098 7.24123 11.2083 7.22221 11.1907 7.20463Z" fill="white"/>
<path d="M13.1847 3.05884C13.1459 3.02829 13.0666 3.01937 13.0091 3.03871C12.9862 3.04612 12.9702 3.05718 12.9614 3.06926C12.948 3.08818 12.9519 3.11008 12.9753 3.12823C13.0286 3.17043 13.0802 3.21247 13.1294 3.25561C13.2774 3.38505 13.4062 3.51962 13.5149 3.65822C13.5408 3.69184 13.6143 3.70915 13.6788 3.69677C13.7133 3.6898 13.7384 3.67631 13.7503 3.65956C13.7606 3.64498 13.7609 3.62844 13.7481 3.61265C13.6354 3.46803 13.5006 3.32692 13.3452 3.1918C13.2936 3.14644 13.2405 3.10195 13.1847 3.05884Z" fill="white"/>
<path d="M3.12432 5.67032C3.14992 5.70391 3.22346 5.72122 3.28864 5.70825C3.32306 5.70161 3.34824 5.68779 3.35975 5.67133C3.37009 5.65675 3.37032 5.64054 3.35824 5.62481C3.21526 5.4402 3.10844 5.24811 3.04078 5.05183C3.02895 5.01624 2.96307 4.99172 2.89429 4.99739C2.84859 5.00063 2.81292 5.01676 2.79802 5.03752C2.79074 5.04776 2.7883 5.05945 2.79278 5.07147C2.86261 5.27625 2.97455 5.4771 3.12432 5.67032Z" fill="white"/>
<path d="M4.73399 2.41391C4.779 2.44207 4.85805 2.44665 4.91085 2.42455C5.2058 2.30207 5.52402 2.19607 5.86098 2.10876C5.88949 2.10155 5.90959 2.0889 5.91989 2.07465C5.93177 2.0579 5.93027 2.03887 5.91271 2.02162C5.88039 1.98905 5.80381 1.97575 5.74266 1.99176C5.39009 2.08288 5.05721 2.19344 4.74972 2.32233C4.7318 2.32956 4.7193 2.33896 4.71203 2.3492C4.69676 2.37026 4.70399 2.39513 4.73399 2.41391Z" fill="white"/>
<path d="M6.76559 1.85651C6.78611 1.89127 6.85599 1.91221 6.92279 1.90303C7.2882 1.85422 7.66631 1.82484 8.04997 1.81719C8.10145 1.81583 8.14281 1.79892 8.15958 1.77601C8.16568 1.76765 8.16821 1.75862 8.16679 1.74921C8.1626 1.71336 8.10139 1.68498 8.03164 1.68691C7.63004 1.69516 7.23525 1.72559 6.8527 1.77707C6.81243 1.78249 6.78214 1.79781 6.76873 1.81673C6.75963 1.82878 6.75799 1.84253 6.76559 1.85651Z" fill="white"/>
<path d="M4.45678 6.70985C4.50663 6.73582 4.58642 6.73617 4.63422 6.71094C4.64676 6.70452 4.65611 6.6968 4.66188 6.68841C4.67835 6.66515 4.66836 6.63802 4.6318 6.61862C4.35451 6.47712 4.10873 6.32142 3.89548 6.15458C3.85696 6.1244 3.77903 6.11495 3.72084 6.13455C3.69794 6.14196 3.68164 6.15299 3.67283 6.1654C3.65946 6.18399 3.66332 6.20589 3.68709 6.22407C3.90857 6.39831 4.16591 6.56142 4.45678 6.70985Z" fill="white"/>
<path d="M14.0804 4.21123C14.0689 4.17568 14.0026 4.15112 13.9343 4.15616C13.8888 4.16009 13.8535 4.17593 13.8386 4.19702C13.8313 4.20725 13.8289 4.21862 13.8327 4.23058C13.8996 4.4248 13.928 4.6223 13.915 4.82079C13.9125 4.857 13.9669 4.88804 14.0375 4.89017C14.093 4.89184 14.142 4.87467 14.16 4.84923C14.1643 4.84301 14.1672 4.83666 14.1676 4.82941C14.1802 4.62094 14.1504 4.41371 14.0804 4.21123Z" fill="white"/>
<path d="M12.9397 6.43699C12.884 6.41376 12.8048 6.41777 12.762 6.44548C12.526 6.59943 12.2594 6.73754 11.9685 6.85908C11.9512 6.86637 11.9384 6.87574 11.9311 6.88598C11.9162 6.90707 11.9231 6.93191 11.9531 6.95069C11.9978 6.97881 12.0768 6.9834 12.131 6.96109C12.435 6.83386 12.7135 6.68927 12.9611 6.52847C12.9696 6.52299 12.9758 6.51729 12.98 6.51107C12.9987 6.48569 12.9836 6.45577 12.9397 6.43699Z" fill="white"/>
<path d="M8.96657 7.53158C8.96107 7.49561 8.90117 7.46735 8.83109 7.46925C8.73487 7.47097 8.63801 7.47229 8.54072 7.47126C8.25763 7.46999 7.97235 7.45691 7.6862 7.43216C7.62574 7.42704 7.57007 7.44456 7.55017 7.47247C7.54744 7.47684 7.54506 7.48092 7.54364 7.48542C7.5346 7.521 7.58274 7.55442 7.6514 7.56034C7.95071 7.58602 8.24948 7.60005 8.54514 7.60153C8.64679 7.60199 8.74821 7.60143 8.84981 7.59891C8.90093 7.59784 8.94259 7.58129 8.95906 7.55802C8.96513 7.54999 8.96799 7.54099 8.96657 7.53158Z" fill="white"/>
<path d="M11.4693 2.17874C11.4103 2.15884 11.3322 2.1676 11.295 2.19716C11.2903 2.20069 11.2866 2.20497 11.2836 2.20866C11.2637 2.23656 11.2843 2.27001 11.3356 2.28784C11.5853 2.3717 11.8205 2.46511 12.0377 2.56641C12.1069 2.59821 12.174 2.6308 12.2384 2.66413C12.2882 2.6901 12.369 2.69055 12.4171 2.66535C12.4293 2.6589 12.4387 2.65118 12.4444 2.64312C12.4609 2.61985 12.4503 2.59233 12.413 2.5732C12.3455 2.53791 12.2749 2.50366 12.2036 2.47033C11.9768 2.36481 11.7312 2.26675 11.4693 2.17874Z" fill="white"/>
<path d="M2.70819 4.45354C2.70611 4.48911 2.7604 4.52048 2.8304 4.52288C2.88654 4.52461 2.93523 4.50741 2.95324 4.48197C2.95748 4.47575 2.9604 4.46941 2.96076 4.46216C2.97034 4.31368 3.00309 4.16543 3.06061 4.0179C3.07768 3.97118 3.09763 3.92539 3.11958 3.87946C3.13748 3.84473 3.09586 3.80895 3.02892 3.79889C2.96454 3.78975 2.90057 3.80747 2.87842 3.83815C2.87692 3.83999 2.87607 3.84189 2.87486 3.8441C2.85207 3.89193 2.8315 3.94065 2.81231 3.98883C2.75315 4.14316 2.71869 4.29886 2.70819 4.45354Z" fill="white"/>
<path d="M3.34251 3.35722C3.40482 3.37412 3.48088 3.36153 3.5114 3.33C3.55262 3.28691 3.59612 3.24437 3.64185 3.20271C3.7818 3.07301 3.94058 2.95074 4.11666 2.83808C4.12481 2.83257 4.13101 2.82654 4.13558 2.82035C4.15395 2.79462 4.13896 2.76436 4.09502 2.74591C4.03957 2.72305 3.96002 2.72702 3.91695 2.7547C3.73401 2.87332 3.56773 3.00116 3.42032 3.13611C3.37273 3.17992 3.32708 3.22424 3.28432 3.2695C3.28246 3.27164 3.28061 3.27378 3.27907 3.27595C3.25761 3.30636 3.28401 3.34201 3.34251 3.35722Z" fill="white"/>
<path d="M5.40116 7.10437C5.73387 7.21705 6.09362 7.31378 6.47806 7.39133L6.49041 7.39384C6.55441 7.40693 6.62647 7.3913 6.65051 7.35816C6.67465 7.32404 6.64151 7.28608 6.57554 7.27281L6.56418 7.27039C6.19668 7.19578 5.8527 7.10388 5.53408 6.99619C5.475 6.97662 5.39741 6.98443 5.35973 7.01461C5.35506 7.01847 5.35137 7.02242 5.34833 7.02643C5.32843 7.05434 5.34882 7.0871 5.40116 7.10437Z" fill="white"/>
<path d="M9.08679 1.779C9.0768 1.81415 9.12495 1.84758 9.19454 1.85425C9.56576 1.88648 9.93733 1.93929 10.3052 2.01393C10.3708 2.0275 10.4433 2.01059 10.467 1.97775C10.4907 1.94425 10.4563 1.90617 10.3916 1.89335C10.0075 1.81517 9.61796 1.75997 9.22933 1.72607C9.16989 1.72071 9.11324 1.73814 9.09334 1.76605C9.09001 1.76971 9.08822 1.7745 9.08679 1.779Z" fill="white"/>
<path d="M14.0009 5.43852C14.0188 5.4038 13.9769 5.36798 13.9099 5.35793C13.8462 5.34885 13.7826 5.36627 13.7608 5.39632C13.7593 5.39849 13.7577 5.40099 13.7569 5.40323C13.7106 5.49917 13.6531 5.59403 13.5861 5.68832C13.5207 5.77977 13.4477 5.86785 13.367 5.95353C13.3651 5.95567 13.3632 5.95781 13.3617 5.95998C13.3399 5.99036 13.3666 6.02604 13.4255 6.04128C13.4875 6.05815 13.5638 6.04559 13.5934 6.01364C13.6791 5.92446 13.7552 5.83237 13.8237 5.73657C13.8934 5.63824 13.9526 5.53824 14.0009 5.43852Z" fill="white"/>
<path d="M13.4178 5.65398C13.3221 5.78858 13.2082 5.91581 13.0768 6.03638C12.4289 6.63419 11.3723 7.05937 10.156 7.2556C9.63877 7.34022 9.09248 7.38232 8.53695 7.37914C7.90356 7.37613 7.25603 7.31313 6.62467 7.18509C5.99269 7.05667 5.43181 6.8741 4.95262 6.65133C4.53465 6.45694 4.17927 6.23145 3.89813 5.98491C3.23473 5.40628 2.97505 4.71428 3.23493 4.03791C3.28744 3.90116 3.36069 3.76574 3.45639 3.63114C3.55203 3.4972 3.66591 3.36997 3.79704 3.24937C4.44553 2.65195 5.50153 2.22671 6.71783 2.03015C7.23503 1.94585 7.78135 1.90343 8.3359 1.90651C8.97162 1.90942 9.61819 1.972 10.2502 2.10042C10.8815 2.22846 11.4434 2.41112 11.9203 2.63367C12.3392 2.82881 12.6942 3.05427 12.9758 3.30018C13.6395 3.87884 13.8994 4.57153 13.6386 5.24781C13.5867 5.38462 13.5135 5.52004 13.4178 5.65398Z" fill="white"/>
<path d="M0.771498 4.61821C0.771498 4.61821 0.780946 4.68901 0.798666 4.82222C0.819403 4.95505 0.871214 5.14385 0.966806 5.37362C1.07314 5.59845 1.22979 5.85825 1.45758 6.11889C1.68497 6.38016 1.98519 6.63151 2.33393 6.8779C2.67705 7.12408 3.09311 7.33849 3.53501 7.5355C3.76219 7.62947 3.99501 7.73027 4.2382 7.80589C4.3596 7.84567 4.47972 7.89196 4.60541 7.92851C4.73116 7.9644 4.85819 8.00074 4.98621 8.03718C5.0504 8.05526 5.11459 8.07333 5.1794 8.09179C5.24489 8.10667 5.3107 8.12159 5.37652 8.1365C5.50848 8.16636 5.64142 8.19632 5.77531 8.2267C6.04146 8.27703 6.32122 8.327 6.5972 8.36801C6.7357 8.38491 6.87486 8.40188 7.01434 8.41888L7.22397 8.44359L7.43583 8.45891C7.57696 8.46912 7.71842 8.47935 7.86018 8.48994C8.00195 8.49689 8.14428 8.49793 8.2863 8.50226C8.57015 8.51652 8.8532 8.50785 9.13963 8.50547C9.28145 8.50149 9.42152 8.49172 9.56228 8.48499L9.77238 8.47364L9.98164 8.45393C10.5409 8.41109 11.0821 8.3155 11.6082 8.21053C11.7374 8.1795 11.8652 8.14868 11.9923 8.11846C12.0557 8.103 12.1188 8.08784 12.1815 8.07264C12.2436 8.0544 12.3053 8.03613 12.367 8.01819C12.49 7.98227 12.6117 7.94655 12.7317 7.911C12.8506 7.87238 12.9659 7.82711 13.0811 7.78646C13.3134 7.70966 13.5273 7.60692 13.7378 7.51511C13.845 7.47204 13.9413 7.41369 14.0396 7.36249C14.1368 7.30952 14.2336 7.25983 14.3261 7.2074C14.6851 6.98042 15.004 6.75226 15.2497 6.50813C15.507 6.26976 15.6722 6.0219 15.8072 5.80892C15.8616 5.69753 15.9102 5.59817 15.9526 5.5118C15.9839 5.42006 16.0145 5.34249 16.0329 5.27834C16.0639 5.14814 16.0805 5.07852 16.0805 5.07852C16.0805 5.07852 16.0672 5.14879 16.0423 5.28122C16.0267 5.34664 16 5.42491 15.9728 5.51837C15.9343 5.60909 15.8894 5.71211 15.8369 5.82733C15.7128 6.0407 15.5453 6.30953 15.2975 6.55511C15.1836 6.68664 15.0319 6.80395 14.8841 6.93256C14.8117 7.00049 14.7266 7.05528 14.6412 7.11368C14.5557 7.17241 14.4685 7.2323 14.3791 7.29364C14.2864 7.34902 14.1896 7.40169 14.0918 7.45758C13.9932 7.51174 13.8959 7.57331 13.7885 7.61934C13.577 7.71702 13.3615 7.82623 13.128 7.90921C13.0122 7.9531 12.8963 8.0013 12.7763 8.04314C12.6554 8.08158 12.5327 8.12052 12.4091 8.15969C12.3469 8.17924 12.2847 8.19912 12.2222 8.21897C12.1584 8.23506 12.0942 8.25111 12.0298 8.26713C11.9005 8.29914 11.7702 8.33138 11.6389 8.36386C11.1144 8.4723 10.5621 8.5741 9.99809 8.62113L9.78635 8.64259L9.57245 8.65556C9.42992 8.66345 9.28612 8.67419 9.14318 8.67938C8.85955 8.68369 8.57064 8.69478 8.2827 8.68178C8.1388 8.67629 7.99492 8.6741 7.8516 8.66601C7.70826 8.6546 7.56493 8.64319 7.42226 8.63185L7.20826 8.61467L6.99484 8.58794C6.85282 8.5697 6.71149 8.5512 6.57046 8.53306C6.29014 8.48899 6.01934 8.43888 5.74363 8.38465C5.60851 8.35316 5.47406 8.32174 5.34058 8.29041C5.27384 8.27474 5.20743 8.25911 5.14099 8.2438C5.07555 8.22495 5.01044 8.20612 4.94566 8.18733C4.81613 8.14942 4.68755 8.11194 4.56029 8.07457C4.43302 8.03721 4.31032 7.98671 4.18727 7.94345C3.93893 7.85939 3.70983 7.7543 3.48475 7.65557C3.03442 7.44284 2.6238 7.22001 2.27422 6.9583C1.92683 6.70476 1.62894 6.43608 1.40776 6.16182C1.18517 5.88842 1.03511 5.61866 0.935373 5.38717C0.845631 5.15167 0.804737 4.95596 0.789612 4.82334C0.777598 4.68936 0.771498 4.61821 0.771498 4.61821Z" fill="white"/>
</svg>
