<svg width="30" height="31" viewBox="0 0 30 31" fill="none" xmlns="http://www.w3.org/2000/svg">
<path d="M18.61 30.2777L16.4357 30.8C15.774 30.9042 15.0976 30.9509 14.4059 30.9349C13.7135 30.9209 13.0352 30.8467 12.3665 30.7144C9.05419 30.0731 6.09736 28.0618 3.99785 25.2328C3.09898 24.0296 2.36057 22.68 1.81204 21.2262C1.18487 19.5634 0.810873 17.7675 0.741188 15.893C0.671503 14.0211 0.915082 12.2348 1.42206 10.5995C1.86318 9.1642 2.50442 7.84209 3.31507 6.67661C3.44037 6.49568 3.57079 6.31923 3.70313 6.1447C3.74532 6.09163 3.78688 6.03985 3.82844 5.98934C3.92369 5.86595 4.02151 5.74768 4.12124 5.62941C4.14681 5.59936 4.17239 5.56675 4.19796 5.5367C4.23056 5.49962 4.26317 5.46446 4.29322 5.42994C4.33733 5.38135 4.37952 5.33212 4.42364 5.28609C4.50035 5.20234 4.57707 5.11859 4.65571 5.0374C4.6979 4.99584 4.73946 4.95173 4.78357 4.90761C4.87435 4.81491 4.96705 4.72605 5.06039 4.6359C5.093 4.60777 5.12305 4.57773 5.15309 4.54768C5.2784 4.43132 5.40626 4.31752 5.53412 4.20884C5.56673 4.18071 5.59933 4.15514 5.62938 4.1302C5.72912 4.04645 5.82885 3.9627 5.93114 3.88407C5.97973 3.84699 6.0264 3.8099 6.07498 3.77282C6.16321 3.70761 6.25144 3.64048 6.34222 3.57527C6.39336 3.53819 6.44643 3.50111 6.50013 3.46403C6.59091 3.40138 6.68169 3.34128 6.77184 3.28311C6.82298 3.24858 6.87604 3.21342 6.92719 3.18082C7.02948 3.11561 7.13177 3.05295 7.23598 2.99285C7.27817 2.96728 7.32229 2.94171 7.36384 2.91614C7.51025 2.83239 7.65856 2.75119 7.81008 2.67447C7.8331 2.66041 7.85611 2.65146 7.88232 2.63739C8.00763 2.57474 8.13805 2.51209 8.26528 2.45135C8.31834 2.42578 8.37204 2.40276 8.42574 2.37911C8.52803 2.335 8.63224 2.28833 8.73709 2.24677C8.79527 2.22375 8.85536 2.2001 8.9161 2.17453C9.01583 2.13745 9.11812 2.09781 9.22297 2.06073C9.28114 2.03963 9.34124 2.01917 9.40198 1.99807C9.51322 1.96099 9.62254 1.92583 9.73634 1.89131C9.78748 1.87724 9.84054 1.8587 9.89169 1.84464C10.0566 1.79605 10.2241 1.75194 10.391 1.7123C11.116 1.5384 11.8403 1.36387 12.5653 1.19189C12.3978 1.23153 12.2329 1.27564 12.0686 1.32423C12.0174 1.3383 11.9637 1.35428 11.9106 1.3709C11.7994 1.40607 11.6875 1.44059 11.5782 1.47767C11.5181 1.49877 11.4574 1.51922 11.3973 1.54032C11.295 1.5774 11.1927 1.61448 11.0904 1.65412C11.0322 1.67714 10.9721 1.70079 10.9114 1.72636C10.8065 1.76856 10.7049 1.81267 10.6026 1.8587C10.5495 1.88172 10.4958 1.90537 10.4421 1.93095C10.3143 1.98912 10.1864 2.05178 10.0611 2.11443C10.0355 2.12849 10.01 2.14 9.98439 2.15151C9.83543 2.23015 9.68711 2.31198 9.54071 2.39509C9.49659 2.42067 9.45504 2.44624 9.41093 2.47181C9.30864 2.53255 9.20634 2.5952 9.10661 2.65785L8.94614 2.76206C8.85536 2.82024 8.76714 2.88033 8.67635 2.94299C8.62329 2.98007 8.56959 3.01715 8.51589 3.05679C8.42766 3.11944 8.33943 3.18465 8.25377 3.25178C8.20518 3.28886 8.15403 3.32594 8.10481 3.36302C8.00699 3.4423 7.90726 3.52093 7.812 3.60468C7.77748 3.63281 7.74232 3.65839 7.70971 3.68843C7.57929 3.79776 7.45398 3.91156 7.33124 4.02536C7.29671 4.05796 7.26411 4.09057 7.22895 4.12317C7.13816 4.20884 7.04738 4.29515 6.96171 4.38593C6.91504 4.43004 6.87093 4.47671 6.82682 4.52275C6.7501 4.60202 6.67594 4.68066 6.60114 4.76185C6.55703 4.813 6.51036 4.86159 6.46624 4.91273C6.40807 4.97794 6.355 5.04251 6.29938 5.1058C6.19965 5.22663 6.09992 5.34747 6.0021 5.4683C5.96055 5.522 5.91835 5.57315 5.87936 5.62621C5.74446 5.8001 5.61468 5.9772 5.48937 6.15812C4.68128 7.32424 4.03749 8.64571 3.59636 10.0791C3.09003 11.7144 2.84837 13.5026 2.91805 15.3752C2.98518 17.2471 3.35918 19.0449 3.9889 20.7084C4.53743 22.1622 5.27584 23.5118 6.17472 24.7131C8.27423 27.5446 11.2311 29.5559 14.5433 30.1972C15.2101 30.3295 15.8904 30.4043 16.5827 30.4177C17.2745 30.4286 17.9502 30.3845 18.61 30.2777Z" fill="#CB1625"/>
<path d="M25.4912 12.266C25.8652 13.4002 26.0896 14.6085 26.135 15.8609C26.1811 17.114 26.0455 18.3159 25.754 19.436C25.7099 19.6048 25.6626 19.7716 25.6121 19.9359C25.2726 21.0394 24.779 22.0566 24.1557 22.9542C24.0611 23.091 23.9633 23.2252 23.8629 23.3563C22.5101 25.1253 20.6376 26.3707 18.4818 26.8252C18.3284 26.8579 18.173 26.886 18.0164 26.9103C17.5088 26.9908 16.9877 27.026 16.4545 27.0145C15.9233 27.0036 15.399 26.9467 14.8844 26.8444C14.7258 26.8137 14.5686 26.7786 14.4119 26.7396C12.2184 26.1949 10.2519 24.8689 8.76614 23.0411C8.65554 22.9056 8.5475 22.7668 8.44265 22.6256C7.75219 21.6998 7.1832 20.6609 6.7619 19.5415C6.6986 19.3746 6.63851 19.2052 6.58225 19.0345C6.20633 17.8997 5.98257 16.6901 5.93654 15.4377C5.89051 14.1859 6.02605 12.9846 6.31693 11.8645C6.36105 11.6951 6.40836 11.5276 6.4595 11.362C6.79898 10.2586 7.29444 9.24205 7.91586 8.34381C8.01048 8.20636 8.10829 8.07274 8.2093 7.94104C9.56401 6.17205 11.4366 4.92473 13.5936 4.47018C13.747 4.43757 13.9024 4.40944 14.059 4.38515C14.5666 4.3046 15.087 4.26943 15.619 4.28094C16.1521 4.29181 16.6764 4.34871 17.1904 4.45036C17.3489 4.48105 17.5062 4.51621 17.6628 4.55521C19.855 5.10055 21.8235 6.42777 23.308 8.25623C23.4179 8.39176 23.5253 8.53049 23.6302 8.67114C24.3207 9.59624 24.8896 10.6358 25.311 11.7546C25.3749 11.9246 25.435 12.0947 25.4912 12.266Z" fill="#CB1625"/>
<path d="M29.1591 15.9229C29.0895 14.0529 28.7155 12.2506 28.0883 10.5922C27.5423 9.13585 26.8013 7.78625 25.905 6.58561C23.803 3.75662 20.8461 1.74277 17.5364 1.09897C16.8677 0.966635 16.1868 0.894389 15.4944 0.880964C14.8021 0.866899 14.1263 0.911013 13.4665 1.01586C10.1984 1.5222 7.38538 3.41267 5.4879 6.16046C4.67725 7.32658 4.03602 8.64613 3.59233 10.0814C3.08855 11.7168 2.84434 13.505 2.91402 15.3775C2.98371 17.2495 3.35771 19.0472 3.98487 20.7107C4.53276 22.1645 5.27181 23.5141 6.17069 24.7148C8.27019 27.5463 11.227 29.5557 14.5393 30.1989C15.208 30.3312 15.8863 30.4054 16.5787 30.4194C17.2711 30.4335 17.9468 30.3868 18.6085 30.2826C21.8742 29.7788 24.6871 27.8877 26.5846 25.1399C27.3953 23.9738 28.0365 22.6549 28.4776 21.2215C28.9827 19.581 29.2288 17.7973 29.1591 15.9229Z" fill="#CB1625"/>
<path d="M25.7545 19.4353C25.7103 19.6047 25.6618 19.7722 25.6125 19.9371C25.2737 21.0406 24.7789 22.0578 24.1562 22.9541C24.0609 23.0909 23.9631 23.2258 23.8615 23.3562C22.5099 25.1259 20.6374 26.3712 18.4823 26.8264C18.3288 26.859 18.1735 26.8865 18.0175 26.9102C17.5086 26.9914 16.9888 27.0265 16.4544 27.015C15.9225 27.0055 15.4001 26.9479 14.8842 26.8456C14.7263 26.8156 14.5684 26.7804 14.413 26.7414C12.2202 26.198 10.253 24.8714 8.76661 23.0436C8.65729 22.9087 8.55052 22.7693 8.44376 22.628C7.75394 21.7036 7.18495 20.6628 6.76428 19.5433C6.70163 19.3758 6.64089 19.209 6.58336 19.037C6.20936 17.9035 5.98432 16.6932 5.93765 15.4414C5.89098 14.1897 6.02843 12.9884 6.31868 11.867C6.36279 11.6995 6.41138 11.5327 6.46252 11.3652C6.802 10.2617 7.29619 9.24453 7.91888 8.3482C8.01222 8.21075 8.11196 8.07649 8.21169 7.94415C9.56576 6.17644 11.4383 4.92913 13.596 4.47393C13.7494 4.44133 13.9048 4.41384 14.0608 4.39018C14.5697 4.30899 15.0894 4.27382 15.6213 4.28533C16.1532 4.29428 16.6781 4.35246 17.1915 4.45475C17.352 4.4848 17.5073 4.51996 17.6652 4.5596C18.7616 4.83131 19.8018 5.30057 20.7518 5.92774C21.7044 6.55747 22.5681 7.34447 23.3091 8.25998C23.4184 8.39679 23.5271 8.53425 23.6319 8.67554C24.3218 9.59999 24.8907 10.6408 25.3114 11.7577C25.3741 11.9271 25.4348 12.0972 25.4923 12.2685C25.8663 13.402 26.0895 14.6097 26.1355 15.8621C26.1815 17.1145 26.0447 18.3152 25.7545 19.4353Z" fill="#CB1625"/>
<path d="M15.6624 5.43792C16.1406 5.44815 16.6124 5.4993 17.0753 5.58944C19.3634 6.03377 21.4079 7.42493 22.8604 9.38124C23.4793 10.2117 23.9914 11.1458 24.3692 12.1521C24.8027 13.3003 25.0622 14.545 25.1095 15.839C25.1568 17.133 24.9887 18.3682 24.639 19.5004C24.3341 20.492 23.8904 21.4062 23.3316 22.2124C22.0185 24.1112 20.0749 25.4173 17.8162 25.7663C17.3598 25.838 16.8905 25.8693 16.4123 25.8597C15.9341 25.8501 15.4642 25.7983 15.002 25.7082C12.712 25.2638 10.6694 23.8746 9.21683 21.9183C8.59606 21.0878 8.08461 20.1531 7.70613 19.1475C7.2714 17.9993 7.01184 16.7545 6.96389 15.4605C6.91658 14.1665 7.08472 12.9314 7.43443 11.7991C7.73938 10.8069 8.18498 9.89334 8.74374 9.08716C10.0569 7.18838 12.0004 5.88033 14.261 5.53127C14.7169 5.45902 15.1842 5.4277 15.6624 5.43792Z" fill="white"/>
<path d="M7.85374 9.00641C7.78789 9.11317 7.81346 9.26533 7.91447 9.34589C7.95411 9.37785 7.99886 9.39447 8.04298 9.39511C8.10947 9.39639 8.1734 9.36315 8.21303 9.29794C8.30382 9.15281 8.3978 9.00705 8.49625 8.86576C8.78906 8.44253 9.11319 8.04615 9.46353 7.6843C9.54856 7.59479 9.55048 7.44135 9.46737 7.3397C9.42262 7.28664 9.36252 7.25915 9.30307 7.25787C9.25128 7.25659 9.20014 7.27641 9.1605 7.31669C8.79481 7.69708 8.45597 8.11136 8.1491 8.55313C8.04745 8.70145 7.94772 8.85297 7.85374 9.00641Z" fill="white"/>
<path d="M22.9039 23.9894C22.989 23.9018 22.9909 23.7484 22.9078 23.6468C22.8637 23.5931 22.8042 23.5643 22.7454 23.563C22.6936 23.5624 22.6425 23.5822 22.6028 23.6237C22.1355 24.1058 21.6202 24.5309 21.0653 24.8889C20.9643 24.9535 20.9349 25.1018 20.9981 25.2195C21.0416 25.2988 21.1171 25.3435 21.1912 25.3448C21.2277 25.3454 21.2641 25.3358 21.2967 25.3147C21.8785 24.9388 22.4174 24.4932 22.9039 23.9894Z" fill="white"/>
<path d="M11.7801 25.0333C11.8351 24.9182 11.7942 24.7673 11.6887 24.6989C11.1069 24.3179 10.559 23.8703 10.0559 23.3678C10.013 23.3256 9.96125 23.3039 9.90946 23.3033C9.85001 23.302 9.79183 23.3276 9.75028 23.38C9.67484 23.4784 9.68762 23.6319 9.77968 23.7233C10.3058 24.2488 10.878 24.7155 11.4886 25.1164C11.5237 25.1388 11.5608 25.1503 11.5973 25.1509C11.6708 25.1522 11.7417 25.11 11.7801 25.0333Z" fill="white"/>
<path d="M8.6482 22.0422C8.74154 21.9648 8.7556 21.8139 8.68208 21.7027C8.27676 21.103 7.92257 20.4586 7.62849 19.7751C7.58949 19.6837 7.5083 19.6274 7.42519 19.6255C7.39642 19.6249 7.36701 19.6313 7.33952 19.6447C7.23276 19.6984 7.18864 19.841 7.24043 19.9644C7.54858 20.6785 7.91874 21.3549 8.34324 21.984C8.388 22.0498 8.45384 22.085 8.52097 22.0863C8.56572 22.0869 8.61048 22.0728 8.6482 22.0422Z" fill="white"/>
<path d="M25.1657 20.3275C25.2091 20.206 25.1561 20.0615 25.0448 20.0034C25.0161 19.9887 24.9866 19.9816 24.9572 19.981C24.8741 19.9797 24.7968 20.0321 24.7629 20.1223C24.5199 20.7942 24.215 21.4265 23.8531 22.0108C23.7867 22.1176 23.8129 22.2691 23.912 22.3522C23.9516 22.3842 23.997 22.4002 24.0405 22.4008C24.1076 22.4021 24.1722 22.3688 24.2124 22.3043C24.5928 21.6918 24.9112 21.0301 25.1657 20.3275Z" fill="white"/>
<path d="M10.7656 5.99111C10.6665 6.05568 10.6371 6.204 10.7004 6.32164C10.7439 6.40027 10.8174 6.44502 10.8909 6.4463C10.928 6.44694 10.9651 6.43671 10.9989 6.41498C11.5488 6.06079 12.135 5.77054 12.7539 5.55253C12.8664 5.51162 12.9226 5.37544 12.8811 5.24822C12.8478 5.14465 12.7609 5.07816 12.6707 5.07624C12.6484 5.0756 12.626 5.07944 12.6043 5.08711C11.956 5.31471 11.3403 5.61966 10.7656 5.99111Z" fill="white"/>
<path d="M18.4005 5.3541C18.3685 5.48005 18.4363 5.61814 18.5501 5.66225C19.1875 5.90391 19.7987 6.21718 20.3747 6.59438C20.4092 6.61676 20.4469 6.62826 20.484 6.6289C20.5588 6.63082 20.6304 6.58862 20.6669 6.51127C20.7218 6.39619 20.6809 6.24595 20.5754 6.17754C19.9726 5.78308 19.3339 5.45447 18.6665 5.20194C18.6441 5.19363 18.6211 5.18916 18.5993 5.18852C18.5066 5.1866 18.4248 5.25117 18.4005 5.3541Z" fill="white"/>
<path d="M24.5355 11.1951C24.4288 11.2469 24.3859 11.3914 24.4384 11.5148C24.5132 11.6842 24.5835 11.8581 24.6493 12.0339C24.843 12.546 25.0029 13.0766 25.1263 13.6233C25.1512 13.7377 25.2439 13.817 25.3449 13.8195C25.3596 13.8202 25.3749 13.8189 25.3897 13.8157C25.5047 13.7888 25.5738 13.6616 25.545 13.5306C25.4152 12.959 25.2477 12.4034 25.0451 11.8683C24.9773 11.6842 24.9025 11.5039 24.8258 11.3243C24.7874 11.2335 24.7062 11.1772 24.6231 11.1759C24.5937 11.1747 24.5637 11.1811 24.5355 11.1951Z" fill="white"/>
<path d="M6.35053 13.1653C6.33135 13.2977 6.40999 13.4281 6.5289 13.4575C6.54361 13.4613 6.55895 13.4632 6.57302 13.4639C6.67275 13.4658 6.75969 13.3897 6.77632 13.2759C6.86135 12.7216 6.98346 12.1865 7.14137 11.6712C7.19251 11.5082 7.24557 11.3477 7.30247 11.1892C7.34595 11.0677 7.29288 10.9232 7.18164 10.867C7.15223 10.8516 7.12155 10.844 7.09214 10.8433C7.00903 10.8414 6.93231 10.8945 6.90035 10.984C6.84217 11.1508 6.78527 11.3177 6.7322 11.4871C6.56662 12.0261 6.43812 12.588 6.35053 13.1653Z" fill="white"/>
<path d="M15.6497 26.399C15.658 26.266 15.5666 26.1439 15.4483 26.1292C15.2872 26.1068 15.1255 26.0787 14.9663 26.0487C14.4702 25.9515 13.9837 25.8121 13.5125 25.6325C13.4908 25.6241 13.4684 25.6203 13.4473 25.6197C13.3559 25.6178 13.2734 25.6804 13.2472 25.784C13.2152 25.9099 13.283 26.048 13.3968 26.0921C13.8903 26.2788 14.3973 26.4265 14.9177 26.5262C15.0852 26.5588 15.2521 26.5876 15.4221 26.6113C15.4292 26.6119 15.4362 26.6125 15.4426 26.6132C15.5519 26.6151 15.644 26.5256 15.6497 26.399Z" fill="white"/>
<path d="M25.7184 18.1456C25.8315 17.4072 25.875 16.6419 25.8462 15.8549L25.8456 15.83C25.8405 15.6944 25.7407 15.5851 25.6205 15.5826C25.501 15.58 25.4089 15.688 25.4134 15.821L25.4147 15.846C25.4422 16.5978 25.3993 17.3317 25.2919 18.035C25.2728 18.1673 25.3514 18.2971 25.4684 18.3272C25.4837 18.331 25.4984 18.3329 25.5131 18.3329C25.6148 18.3355 25.7017 18.2594 25.7184 18.1456Z" fill="white"/>
<path d="M6.78902 17.9497C6.9041 17.9228 6.97314 17.7956 6.94437 17.6645C6.78391 16.9536 6.68673 16.219 6.65732 15.4653C6.65221 15.3336 6.55439 15.2223 6.43612 15.2198C6.31465 15.2172 6.22067 15.3233 6.22579 15.4582C6.25647 16.2452 6.35876 17.0137 6.52626 17.7579C6.5512 17.8723 6.6439 17.9522 6.74491 17.9541C6.75897 17.9541 6.77368 17.9529 6.78902 17.9497Z" fill="white"/>
<path d="M14.5899 4.64798C14.4723 4.66013 14.3898 4.77648 14.4077 4.91202C14.4243 5.03605 14.5222 5.13131 14.6308 5.13386C14.6385 5.13386 14.6462 5.13386 14.6539 5.13323C14.9812 5.10062 15.3104 5.08655 15.648 5.09359C15.9728 5.10062 16.2962 5.12555 16.6133 5.17031C16.6217 5.17095 16.6293 5.17158 16.637 5.17222C16.747 5.17478 16.8358 5.08336 16.8435 4.95741C16.8499 4.82444 16.7604 4.70424 16.6402 4.68762C16.3084 4.64351 15.9702 4.61538 15.6307 4.60834C15.2778 4.60003 14.9313 4.61346 14.5899 4.64798Z" fill="white"/>
<path d="M23.3849 9.58535C23.2896 9.44662 23.1905 9.30725 23.0895 9.17235C22.7577 8.72547 22.3958 8.30671 22.0091 7.92121C21.917 7.82978 21.9042 7.67635 21.9803 7.57789C22.0206 7.52547 22.0787 7.49925 22.1376 7.50053C22.1887 7.50181 22.2411 7.52291 22.284 7.56574C22.6899 7.96852 23.0671 8.40581 23.4143 8.87187C23.5191 9.01316 23.622 9.15829 23.7218 9.30533C23.7979 9.41529 23.7812 9.56809 23.6885 9.64545C23.6515 9.67614 23.6073 9.6902 23.5632 9.68956C23.4961 9.68828 23.4296 9.65248 23.3849 9.58535Z" fill="white"/>
<path d="M19.3754 25.7398C19.4669 25.7417 19.5532 25.8082 19.5871 25.9118C19.6286 26.0397 19.5711 26.1752 19.4598 26.2142C18.9772 26.3849 18.4747 26.5089 17.9581 26.5895C17.7983 26.615 17.6352 26.6368 17.4716 26.6521C17.4639 26.6528 17.4562 26.6534 17.4486 26.6528C17.3399 26.6502 17.2421 26.5556 17.2261 26.4309C17.2082 26.2954 17.2906 26.179 17.4083 26.1669C17.5662 26.1515 17.7203 26.1317 17.8743 26.1081C18.3692 26.0313 18.848 25.9105 19.309 25.75C19.3307 25.743 19.3531 25.7392 19.3754 25.7398Z" fill="white"/>
<path d="M25.3125 11.7579C24.8912 10.6384 24.3222 9.59954 23.6318 8.67444C23.5269 8.53315 23.4195 8.39506 23.3096 8.25952L25.9065 6.58643C26.8021 7.78771 27.5437 9.13795 28.0891 10.5937L25.4922 12.2674C25.4353 12.0961 25.3758 11.926 25.3125 11.7579Z" fill="white"/>
<path d="M25.6124 19.936C25.663 19.7717 25.7103 19.6048 25.7544 19.436L28.4791 21.2204C28.0393 22.6537 27.3961 23.9746 26.5874 25.1407L23.8633 23.3563C23.9637 23.2253 24.0615 23.091 24.1561 22.9542C24.7794 22.0566 25.273 21.0394 25.6124 19.936Z" fill="white"/>
<path d="M6.46141 11.3642C6.41027 11.5298 6.36296 11.6973 6.31884 11.8667L3.59473 10.0824C4.03649 8.64711 4.679 7.32627 5.48837 6.16016L8.21121 7.94385C8.11084 8.07491 8.01303 8.20917 7.91841 8.34663C7.29636 9.24423 6.80089 10.2614 6.46141 11.3642Z" fill="white"/>
<path d="M13.4688 1.01622C14.1285 0.911374 14.8036 0.867901 15.496 0.881966C16.1884 0.896031 16.8693 0.968274 17.538 1.10061L17.6652 4.55805C17.5086 4.51905 17.3513 4.48453 17.1928 4.4532C16.6781 4.35091 16.1545 4.29465 15.6213 4.28378C15.09 4.27291 14.569 4.30744 14.0614 4.38799C13.9048 4.41228 13.75 4.44041 13.596 4.47302L13.4688 1.01622Z" fill="white"/>
<path d="M18.6101 30.2838L16.4338 30.8048C15.7741 30.9097 15.097 30.9557 14.4053 30.941C13.7129 30.9269 13.0333 30.8521 12.3652 30.7198L14.5415 30.1987C15.2102 30.3311 15.8898 30.4059 16.5815 30.4199C17.2726 30.434 17.9496 30.3886 18.6101 30.2838Z" fill="white"/>
<mask id="mask0_508_2764" style="mask-type:luminance" maskUnits="userSpaceOnUse" x="12" y="30" width="7" height="1">
<path d="M18.6101 30.2838L16.4338 30.8048C15.7741 30.9097 15.097 30.9557 14.4053 30.941C13.7129 30.9269 13.0333 30.8521 12.3652 30.7198L14.5415 30.1987C15.2102 30.3311 15.8898 30.4059 16.5815 30.4199C17.2726 30.434 17.9496 30.3886 18.6101 30.2838Z" fill="white"/>
</mask>
<g mask="url(#mask0_508_2764)">
<path d="M18.6101 30.2838L16.4338 30.8048C15.7741 30.9097 15.097 30.9557 14.4053 30.941C13.7129 30.9269 13.0333 30.8521 12.3652 30.7198L14.5415 30.1987C15.2102 30.3311 15.8898 30.4059 16.5815 30.4199C17.2726 30.434 17.9496 30.3886 18.6101 30.2838Z" fill="white"/>
</g>
<path d="M16.456 27.016C16.9892 27.0268 17.5096 26.9923 18.0179 26.9118C18.1745 26.8875 18.3292 26.8593 18.4833 26.8267L18.6105 30.2842C17.9501 30.389 17.2737 30.435 16.5813 30.4203C15.8896 30.4063 15.21 30.3315 14.5413 30.1991L14.4141 26.7417C14.5701 26.7807 14.728 26.8152 14.8865 26.8465C15.4005 26.9482 15.9241 27.0051 16.456 27.016Z" fill="white"/>
<mask id="mask1_508_2764" style="mask-type:luminance" maskUnits="userSpaceOnUse" x="1" y="6" width="5" height="5">
<path d="M3.59453 10.0829L1.41895 10.6039C1.86007 9.16864 2.50322 7.84781 3.31259 6.68169L5.48818 6.16064C4.67881 7.32612 4.03566 8.64759 3.59453 10.0829Z" fill="white"/>
</mask>
<g mask="url(#mask1_508_2764)">
<path d="M3.59453 10.0829L1.41895 10.6039C1.86007 9.16864 2.50322 7.84781 3.31259 6.68169L5.48818 6.16064C4.67881 7.32612 4.03566 8.64759 3.59453 10.0829Z" fill="white"/>
</g>
<path d="M6.76321 19.5439C7.18451 20.6634 7.7535 21.7023 8.44396 22.628C8.54881 22.7693 8.65685 22.9074 8.76746 23.0436L6.17184 24.716C5.27424 23.5147 4.53456 22.1645 3.9873 20.7113L6.5842 19.0376C6.64046 19.2077 6.69991 19.3764 6.76321 19.5439Z" fill="white"/>
<path d="M6.17228 24.7156L3.99606 25.2367C3.09782 24.0348 2.35878 22.6852 1.81152 21.2313L3.98775 20.7109C4.535 22.1641 5.27405 23.5144 6.17228 24.7156Z" fill="white"/>
<mask id="mask2_508_2764" style="mask-type:luminance" maskUnits="userSpaceOnUse" x="1" y="20" width="6" height="6">
<path d="M6.17131 24.7156L3.99508 25.2367C3.09685 24.0348 2.3578 22.6852 1.81055 21.2313L3.98677 20.7109C4.53402 22.1641 5.27307 23.5144 6.17131 24.7156Z" fill="white"/>
</mask>
<g mask="url(#mask2_508_2764)">
<path d="M6.17131 24.7156L3.99508 25.2367C3.09685 24.0348 2.3578 22.6852 1.81055 21.2313L3.98677 20.7109C4.53402 22.1641 5.27307 23.5144 6.17131 24.7156Z" fill="white"/>
</g>
<path d="M13.468 1.01562C13.468 1.01562 13.3159 1.04695 13.0301 1.10513C12.7449 1.16459 12.3313 1.26943 11.816 1.43758C11.3033 1.61147 10.6883 1.85058 10.0234 2.20604C9.35914 2.56086 8.64694 3.03012 7.93922 3.62596C7.23406 4.22309 6.53337 4.94744 5.90684 5.80029C5.83012 5.90769 5.75341 6.01638 5.67541 6.1257L5.61723 6.20753L5.60253 6.22799L5.59166 6.24525L5.56481 6.28873L5.45613 6.46262C5.31228 6.69534 5.1614 6.92933 5.01819 7.16907C4.89033 7.41393 4.76055 7.66071 4.63013 7.91068C4.56109 8.03343 4.50163 8.16193 4.44729 8.29427C4.39039 8.42533 4.33349 8.55703 4.27595 8.68937C4.21841 8.82171 4.16151 8.95405 4.10334 9.08767C4.05539 9.22512 4.00808 9.36257 3.96013 9.50131C3.91218 9.6394 3.86423 9.77813 3.81565 9.9175L3.74276 10.1266L3.68842 10.3375C3.61362 10.6278 3.53754 10.9193 3.4621 11.2134C3.41863 11.3598 3.39817 11.5075 3.37324 11.6552L3.2978 12.0995C3.17377 12.6883 3.15651 13.3033 3.09706 13.912C3.08235 14.2176 3.09258 14.5251 3.08939 14.8319L3.08875 15.2929C3.08747 15.4323 3.11048 15.5985 3.12007 15.75L3.18976 16.6789C3.2262 16.9845 3.28182 17.2831 3.32657 17.5855L3.39753 18.0369C3.42502 18.1865 3.46722 18.3341 3.5011 18.4825C3.57271 18.7791 3.64367 19.0745 3.71527 19.3692C3.80925 19.6569 3.90259 19.9439 3.99529 20.2291L4.13338 20.651C4.19092 20.7904 4.24846 20.9291 4.306 21.0679C4.42555 21.3415 4.52337 21.6279 4.65826 21.8856C4.78804 22.1464 4.91718 22.406 5.04505 22.663C5.18122 22.9161 5.33402 23.1597 5.4753 23.4046C5.61276 23.6533 5.77259 23.8841 5.92986 24.1129C6.00785 24.228 6.08521 24.3425 6.16257 24.4556L6.27828 24.6257L6.40295 24.7836C6.57301 24.9984 6.74115 25.21 6.90737 25.4197C7.0672 25.6358 7.2494 25.8206 7.42521 26.0072C7.60102 26.1939 7.77428 26.3781 7.94433 26.559C8.12398 26.731 8.3113 26.8895 8.48967 27.0513C8.67187 27.2079 8.83874 27.3767 9.02478 27.5154C9.21082 27.6535 9.39238 27.789 9.57011 27.9207C9.7504 28.0486 9.9147 28.1924 10.0995 28.296C10.4607 28.514 10.7944 28.7384 11.1249 28.9181C11.4631 29.0849 11.7796 29.2416 12.0717 29.386C12.3703 29.5171 12.6561 29.6117 12.908 29.7108C13.0352 29.7588 13.1547 29.8042 13.2679 29.847C13.3811 29.8898 13.4929 29.9116 13.5933 29.9416C13.7966 29.9966 13.9699 30.0439 14.1105 30.0816C14.3918 30.1577 14.5421 30.1986 14.5421 30.1986C14.5421 30.1986 14.3905 30.1641 14.1067 30.1002C13.9648 30.0682 13.7889 30.0279 13.5824 29.9819C13.4802 29.9557 13.3664 29.9397 13.2513 29.9007C13.1362 29.8617 13.0147 29.8195 12.8856 29.7754C12.6292 29.684 12.3383 29.5977 12.0334 29.4749C11.7342 29.3381 11.4101 29.1911 11.0642 29.0331C10.7247 28.8624 10.3808 28.647 10.008 28.4373C9.81689 28.3388 9.64939 28.1956 9.46399 28.0697C9.28114 27.9393 9.09446 27.8057 8.9033 27.6688C8.71215 27.532 8.54017 27.3645 8.35222 27.2092C8.16809 27.0487 7.97502 26.8908 7.78898 26.7194C7.61125 26.5379 7.43033 26.3531 7.24684 26.1658C7.06272 25.9785 6.87157 25.7905 6.70982 25.5795C6.53976 25.3737 6.36779 25.1646 6.19325 24.9536L6.059 24.79L5.93817 24.6193C5.85761 24.5055 5.77642 24.3904 5.69459 24.2753C5.61276 24.1596 5.53092 24.0439 5.44781 23.9269C5.36598 23.8099 5.29821 23.6827 5.22214 23.5599C5.07637 23.3106 4.91974 23.0651 4.77845 22.8062C4.64547 22.5428 4.51122 22.2768 4.37568 22.0089C4.23504 21.7423 4.1385 21.4636 4.01639 21.1887C3.95821 21.0506 3.90003 20.9119 3.84122 20.7731C3.79199 20.6274 3.74276 20.481 3.69354 20.3339C3.597 20.0437 3.49982 19.7515 3.40201 19.4587C3.32785 19.1589 3.25305 18.8584 3.17761 18.5566C3.14181 18.4051 3.09834 18.2555 3.06957 18.1021L2.99349 17.6373C2.94554 17.3272 2.88608 17.0159 2.84772 16.7058L2.77292 15.7769C2.76397 15.6183 2.74352 15.4751 2.74416 15.3038L2.74735 14.8332C2.75247 14.52 2.74479 14.2061 2.76142 13.8941C2.82599 13.272 2.84772 12.6493 2.97942 12.0388L3.06062 11.581C3.08747 11.4289 3.11112 11.2754 3.15459 11.1309C3.23259 10.8381 3.30995 10.5466 3.38667 10.257L3.44612 10.0339L3.52156 9.82096C3.57143 9.67904 3.62193 9.53775 3.67116 9.39646C3.72103 9.25581 3.77089 9.11516 3.82012 8.97515C3.87958 8.83961 3.93903 8.70407 3.99849 8.56918C4.05795 8.43492 4.11676 8.30067 4.17622 8.16705C4.23248 8.03279 4.29385 7.90109 4.36673 7.7745C4.50547 7.51878 4.64228 7.26625 4.77781 7.01563C4.92677 6.77717 5.08085 6.54765 5.22981 6.31686L5.34169 6.14552L5.36982 6.10269L5.38708 6.07775L5.40242 6.05729L5.46316 5.97482C5.54435 5.86486 5.6249 5.75617 5.70546 5.64749C6.36075 4.7908 7.08829 4.06773 7.81583 3.47445C8.54401 2.87988 9.28242 2.42724 9.9652 2.09032C10.6486 1.75212 11.2758 1.53092 11.7968 1.37173C12.059 1.29756 12.2929 1.22916 12.5014 1.18952C12.7085 1.14477 12.8837 1.10385 13.0282 1.08467C13.3146 1.03992 13.468 1.01562 13.468 1.01562Z" fill="white"/>
<path d="M16.0265 20.4841C15.8646 20.4841 15.6831 20.465 15.4821 20.4268C15.2867 20.3981 15.0912 20.3503 14.8958 20.2834C14.706 20.2165 14.5385 20.1304 14.3933 20.0253V18.1041C14.5273 18.1997 14.6781 18.2857 14.8456 18.3622C15.0187 18.4291 15.1889 18.4816 15.3565 18.5199C15.5295 18.5581 15.6831 18.5772 15.8171 18.5772C16.1633 18.5772 16.4173 18.4864 16.5793 18.3048C16.7468 18.1232 16.8305 17.8126 16.8305 17.3729C16.8305 16.981 16.7719 16.699 16.6546 16.527C16.543 16.3454 16.3252 16.2546 16.0014 16.2546H14.3682V15.0932L14.5105 11.1074H17.8607L17.7602 12.8853H15.6663L15.6077 14.5627H16.3112C16.9645 14.5627 17.4419 14.8113 17.7434 15.3083C18.0505 15.7958 18.2041 16.5126 18.2041 17.4589C18.2041 18.3765 18.0226 19.1125 17.6597 19.6669C17.3023 20.2117 16.7579 20.4841 16.0265 20.4841Z" fill="#4B4B4B"/>
</svg>
