<svg width="29" height="31" viewBox="0 0 29 31" fill="none" xmlns="http://www.w3.org/2000/svg">
<path d="M18.4176 30.2792L16.2433 30.8015C15.5816 30.9057 14.9052 30.9524 14.2135 30.9364C13.5211 30.9223 12.8428 30.8482 12.1741 30.7158C8.8618 30.0746 5.90498 28.0633 3.80547 25.2343C2.90659 24.0311 2.16819 22.6815 1.61966 21.2277C0.992488 19.5648 0.61849 17.769 0.548805 15.8945C0.47912 14.0226 0.722699 12.2363 1.22967 10.6009C1.6708 9.16566 2.31203 7.84355 3.12268 6.67808C3.24799 6.49715 3.37841 6.3207 3.51075 6.14616C3.55294 6.0931 3.5945 6.04131 3.63605 5.99081C3.73131 5.86742 3.82913 5.74914 3.92886 5.63087C3.95443 5.60082 3.98 5.56822 4.00558 5.53817C4.03818 5.50109 4.07079 5.46593 4.10083 5.4314C4.14495 5.38282 4.18714 5.33359 4.23125 5.28756C4.30797 5.20381 4.38469 5.12006 4.46332 5.03886C4.50552 4.99731 4.54707 4.95319 4.59119 4.90908C4.68197 4.81638 4.77467 4.72751 4.86801 4.63737C4.90062 4.60924 4.93066 4.57919 4.96071 4.54914C5.08602 4.43279 5.21388 4.31899 5.34174 4.2103C5.37435 4.18217 5.40695 4.1566 5.437 4.13167C5.53673 4.04792 5.63647 3.96417 5.73876 3.88553C5.78734 3.84845 5.83401 3.81137 5.8826 3.77429C5.97083 3.70908 6.05905 3.64195 6.14983 3.57674C6.20098 3.53966 6.25404 3.50258 6.30775 3.4655C6.39853 3.40284 6.48931 3.34275 6.57945 3.28457C6.6306 3.25005 6.68366 3.21489 6.73481 3.18228C6.8371 3.11707 6.93939 3.05442 7.0436 2.99432C7.08579 2.96875 7.1299 2.94317 7.17146 2.9176C7.31786 2.83385 7.46618 2.75266 7.6177 2.67594C7.64071 2.66187 7.66373 2.65292 7.68994 2.63886C7.81525 2.5762 7.94567 2.51355 8.07289 2.45282C8.12596 2.42724 8.17966 2.40423 8.23336 2.38057C8.33565 2.33646 8.43986 2.28979 8.54471 2.24823C8.60288 2.22522 8.66298 2.20156 8.72371 2.17599C8.82345 2.13891 8.92574 2.09927 9.03058 2.06219C9.08876 2.04109 9.14886 2.02064 9.20959 1.99954C9.32083 1.96246 9.43016 1.9273 9.54395 1.89277C9.5951 1.87871 9.64816 1.86017 9.69931 1.8461C9.86425 1.79752 10.0318 1.7534 10.1986 1.71376C10.9236 1.53987 11.6479 1.36534 12.3729 1.19336C12.2054 1.233 12.0405 1.27711 11.8762 1.3257C11.825 1.33976 11.7713 1.35575 11.7183 1.37237C11.607 1.40753 11.4951 1.44205 11.3858 1.47913C11.3257 1.50023 11.265 1.52069 11.2049 1.54179C11.1026 1.57887 11.0003 1.61595 10.898 1.65559C10.8398 1.6786 10.7797 1.70226 10.719 1.72783C10.6142 1.77002 10.5125 1.81414 10.4102 1.86017C10.3572 1.88318 10.3035 1.90684 10.2498 1.93241C10.1219 1.99059 9.99403 2.05324 9.86872 2.11589C9.84315 2.12996 9.81758 2.14147 9.79201 2.15298C9.64305 2.23161 9.49473 2.31345 9.34832 2.39656C9.30421 2.42213 9.26266 2.4477 9.21854 2.47328C9.11625 2.53401 9.01396 2.59666 8.91423 2.65932L8.75376 2.76353C8.66298 2.8217 8.57475 2.8818 8.48397 2.94445C8.43091 2.98153 8.3772 3.01861 8.3235 3.05825C8.23528 3.12091 8.14705 3.18612 8.06138 3.25325C8.0128 3.29033 7.96165 3.32741 7.91242 3.36449C7.81461 3.44376 7.71488 3.5224 7.61962 3.60615C7.5851 3.63428 7.54993 3.65985 7.51733 3.6899C7.38691 3.79922 7.2616 3.91302 7.13885 4.02682C7.10433 4.05943 7.07173 4.09203 7.03656 4.12464C6.94578 4.2103 6.855 4.29661 6.76933 4.3874C6.72266 4.43151 6.67855 4.47818 6.63444 4.52421C6.55772 4.60349 6.48356 4.68212 6.40876 4.76332C6.36464 4.81446 6.31797 4.86305 6.27386 4.9142C6.21568 4.97941 6.16262 5.04398 6.107 5.10727C6.00727 5.2281 5.90754 5.34893 5.80972 5.46976C5.76816 5.52347 5.72597 5.57461 5.68697 5.62767C5.55208 5.80157 5.4223 5.97866 5.29699 6.15959C4.4889 7.32571 3.84511 8.64718 3.40398 10.0805C2.89764 11.7159 2.65598 13.5041 2.72567 15.3766C2.7928 17.2486 3.1668 19.0463 3.79652 20.7098C4.34505 22.1637 5.08346 23.5133 5.98234 24.7145C8.08184 27.5461 11.0387 29.5574 14.351 30.1986C15.0178 30.331 15.698 30.4058 16.3904 30.4192C17.0821 30.4301 17.7579 30.3859 18.4176 30.2792Z" fill="#E0791A"/>
<path d="M25.2989 12.267C25.6729 13.4012 25.8973 14.6095 25.9426 15.8619C25.9887 17.115 25.8531 18.3169 25.5616 19.437C25.5175 19.6058 25.4702 19.7726 25.4197 19.9369C25.0802 21.0404 24.5867 22.0575 23.9633 22.9551C23.8687 23.092 23.7709 23.2262 23.6705 23.3573C22.3177 25.1263 20.4452 26.3717 18.2894 26.8262C18.136 26.8588 17.9806 26.887 17.824 26.9112C17.3164 26.9918 16.7953 27.027 16.2622 27.0155C15.7309 27.0046 15.2066 26.9477 14.692 26.8454C14.5334 26.8147 14.3762 26.7796 14.2195 26.7406C12.0261 26.1959 10.0595 24.8699 8.57376 23.0421C8.46316 22.9066 8.35512 22.7678 8.25027 22.6265C7.55981 21.7008 6.99082 20.6619 6.56951 19.5425C6.50622 19.3756 6.44612 19.2062 6.38987 19.0355C6.01395 17.9007 5.79019 16.6911 5.74416 15.4387C5.69813 14.1869 5.83366 12.9856 6.12455 11.8655C6.16866 11.6961 6.21597 11.5286 6.26712 11.363C6.60659 10.2595 7.10206 9.24303 7.72347 8.34479C7.81809 8.20733 7.91591 8.07372 8.01692 7.94202C9.37163 6.17302 11.2442 4.92571 13.4012 4.47115C13.5547 4.43855 13.71 4.41042 13.8666 4.38613C14.3743 4.30557 14.8947 4.27041 15.4266 4.28192C15.9598 4.29278 16.484 4.34968 16.998 4.45133C17.1566 4.48202 17.3138 4.51719 17.4705 4.55618C19.6627 5.10152 21.6311 6.42875 23.1156 8.2572C23.2256 8.39274 23.333 8.53147 23.4378 8.67212C24.1283 9.59721 24.6973 10.6367 25.1186 11.7556C25.1825 11.9256 25.2426 12.0957 25.2989 12.267Z" fill="#E0791A"/>
<path d="M28.9668 15.9238C28.8971 14.0538 28.5231 12.2516 27.8959 10.5932C27.3499 9.13683 26.609 7.78722 25.7126 6.58658C23.6106 3.7576 20.6538 1.74374 17.344 1.09995C16.6753 0.967611 15.9944 0.895366 15.3021 0.88194C14.6097 0.867875 13.9339 0.91199 13.2742 1.01684C10.006 1.52318 7.193 3.41365 5.29552 6.16144C4.48487 7.32756 3.84363 8.64711 3.39995 10.0824C2.89617 11.7178 2.65195 13.5059 2.72164 15.3785C2.79132 17.2504 3.16532 19.0482 3.79249 20.7117C4.34038 22.1655 5.07943 23.5151 5.9783 24.7158C8.07781 27.5473 11.0346 29.5567 14.3469 30.1998C15.0156 30.3322 15.694 30.4063 16.3863 30.4204C17.0787 30.4345 17.7545 30.3878 18.4162 30.2836C21.6818 29.7798 24.4948 27.8887 26.3922 25.1409C27.2029 23.9748 27.8441 22.6559 28.2852 21.2225C28.7903 19.582 29.0364 17.7983 28.9668 15.9238Z" fill="#E0791A"/>
<path d="M25.5611 19.4363C25.517 19.6057 25.4684 19.7732 25.4192 19.9381C25.0803 21.0416 24.5855 22.0587 23.9628 22.9551C23.8676 23.0919 23.7697 23.2268 23.6681 23.3572C22.3166 25.1268 20.444 26.3722 18.2889 26.8274C18.1355 26.86 17.9801 26.8875 17.8241 26.9112C17.3152 26.9924 16.7955 27.0275 16.261 27.016C15.7291 27.0064 15.2068 26.9489 14.6908 26.8466C14.5329 26.8166 14.375 26.7814 14.2197 26.7424C12.0268 26.199 10.0597 24.8724 8.57325 23.0446C8.46393 22.9097 8.35716 22.7703 8.2504 22.629C7.56058 21.7046 6.99159 20.6637 6.57092 19.5443C6.50827 19.3768 6.44753 19.2099 6.39 19.038C6.016 17.9044 5.79096 16.6942 5.74429 15.4424C5.69762 14.1906 5.83507 12.9894 6.12532 11.868C6.16943 11.7005 6.21802 11.5336 6.26916 11.3661C6.60864 10.2627 7.10283 9.24551 7.72552 8.34918C7.81886 8.21173 7.9186 8.07747 8.01833 7.94513C9.3724 6.17741 11.2449 4.9301 13.4026 4.47491C13.5561 4.4423 13.7114 4.41481 13.8674 4.39116C14.3763 4.30996 14.8961 4.2748 15.428 4.28631C15.9599 4.29526 16.4848 4.35344 16.9981 4.45573C17.1586 4.48578 17.314 4.52094 17.4719 4.56058C18.5683 4.83229 19.6084 5.30155 20.5585 5.92872C21.511 6.55845 22.3748 7.34545 23.1157 8.26095C23.225 8.39777 23.3337 8.53522 23.4386 8.67651C24.1284 9.60097 24.6974 10.6418 25.1181 11.7587C25.1807 11.9281 25.2414 12.0981 25.299 12.2695C25.673 13.403 25.8961 14.6107 25.9421 15.8631C25.9882 17.1155 25.8514 18.3162 25.5611 19.4363Z" fill="#E0791A"/>
<path d="M15.47 5.4389C15.9482 5.44913 16.42 5.50028 16.8829 5.59042C19.171 6.03475 21.2155 7.4259 22.6681 9.38222C23.2869 10.2127 23.799 11.1467 24.1768 12.153C24.6103 13.3012 24.8698 14.546 24.9172 15.84C24.9645 17.134 24.7963 18.3691 24.4466 19.5014C24.1417 20.4929 23.698 21.4072 23.1392 22.2134C21.8261 24.1121 19.8826 25.4183 17.6239 25.7673C17.1674 25.8389 16.6981 25.8703 16.2199 25.8607C15.7417 25.8511 15.2718 25.7993 14.8096 25.7092C12.5196 25.2648 10.477 23.8756 9.02445 21.9193C8.40368 21.0888 7.89223 20.1541 7.51375 19.1485C7.07902 18.0002 6.81946 16.7555 6.77151 15.4615C6.7242 14.1675 6.89234 12.9324 7.24204 11.8001C7.547 10.8079 7.9926 9.89432 8.55136 9.08813C9.86451 7.18936 11.808 5.88131 14.0686 5.53224C14.5245 5.46 14.9918 5.42867 15.47 5.4389Z" fill="white"/>
<path d="M7.66233 9.0069C7.59648 9.11366 7.62206 9.26582 7.72307 9.34637C7.76271 9.37834 7.80746 9.39496 7.85157 9.3956C7.91806 9.39688 7.98199 9.36363 8.02163 9.29842C8.11241 9.1533 8.20639 9.00754 8.30484 8.86625C8.59765 8.44302 8.92178 8.04664 9.27213 7.68478C9.35716 7.59528 9.35907 7.44184 9.27596 7.34019C9.23121 7.28713 9.17112 7.25964 9.11166 7.25836C9.05987 7.25708 9.00873 7.2769 8.96909 7.31718C8.6034 7.69757 8.26457 8.11185 7.9577 8.55362C7.85605 8.70194 7.75631 8.85346 7.66233 9.0069Z" fill="white"/>
<path d="M22.7125 23.9899C22.7976 23.9023 22.7995 23.7489 22.7164 23.6472C22.6723 23.5935 22.6128 23.5648 22.554 23.5635C22.5022 23.5629 22.4511 23.5827 22.4114 23.6242C21.9441 24.1063 21.4288 24.5314 20.8739 24.8894C20.7729 24.954 20.7434 25.1023 20.8067 25.22C20.8502 25.2992 20.9257 25.344 20.9998 25.3453C21.0363 25.3459 21.0727 25.3363 21.1053 25.3152C21.6871 24.9393 22.226 24.4937 22.7125 23.9899Z" fill="white"/>
<path d="M11.5887 25.0338C11.6437 24.9187 11.6028 24.7678 11.4973 24.6994C10.9155 24.3184 10.3676 23.8708 9.86446 23.3683C9.82162 23.3261 9.76984 23.3044 9.71806 23.3038C9.6586 23.3025 9.60042 23.3281 9.55887 23.3805C9.48343 23.4789 9.49621 23.6324 9.58828 23.7238C10.1144 24.2493 10.6866 24.716 11.2972 25.1169C11.3323 25.1392 11.3694 25.1507 11.4058 25.1514C11.4794 25.1527 11.5503 25.1105 11.5887 25.0338Z" fill="white"/>
<path d="M8.45679 22.0426C8.55013 21.9653 8.5642 21.8144 8.49068 21.7032C8.08535 21.1035 7.73117 20.4591 7.43708 19.7756C7.39809 19.6842 7.3169 19.6279 7.23378 19.626C7.20502 19.6254 7.17561 19.6318 7.14811 19.6452C7.04135 19.6989 6.99724 19.8415 7.04902 19.9649C7.35717 20.679 7.72733 21.3554 8.15184 21.9845C8.19659 22.0503 8.26244 22.0855 8.32957 22.0868C8.37432 22.0874 8.41907 22.0733 8.45679 22.0426Z" fill="white"/>
<path d="M24.9752 20.328C25.0187 20.2065 24.9656 20.062 24.8544 20.0038C24.8256 19.9891 24.7962 19.9821 24.7668 19.9815C24.6837 19.9802 24.6063 20.0326 24.5725 20.1228C24.3295 20.7947 24.0246 21.427 23.6627 22.0113C23.5962 22.1181 23.6224 22.2696 23.7215 22.3527C23.7612 22.3847 23.8066 22.4007 23.85 22.4013C23.9172 22.4026 23.9817 22.3693 24.022 22.3048C24.4024 21.6923 24.7208 21.0306 24.9752 20.328Z" fill="white"/>
<path d="M10.5742 5.99159C10.4751 6.05617 10.4457 6.20449 10.509 6.32212C10.5524 6.40076 10.626 6.44551 10.6995 6.44679C10.7366 6.44743 10.7737 6.4372 10.8075 6.41546C11.3573 6.06128 11.9436 5.77103 12.5625 5.55302C12.675 5.51211 12.7312 5.37593 12.6897 5.24871C12.6564 5.14514 12.5695 5.07865 12.4793 5.07673C12.457 5.07609 12.4346 5.07993 12.4129 5.0876C11.7646 5.3152 11.1489 5.62015 10.5742 5.99159Z" fill="white"/>
<path d="M18.2091 5.35459C18.1771 5.48054 18.2449 5.61863 18.3587 5.66274C18.9961 5.9044 19.6073 6.21767 20.1833 6.59487C20.2178 6.61724 20.2555 6.62875 20.2926 6.62939C20.3674 6.63131 20.439 6.58911 20.4755 6.51176C20.5304 6.39668 20.4895 6.24644 20.384 6.17803C19.7812 5.78357 19.1425 5.45496 18.475 5.20243C18.4527 5.19412 18.4297 5.18965 18.4079 5.18901C18.3152 5.18709 18.2334 5.25166 18.2091 5.35459Z" fill="white"/>
<path d="M24.3441 11.1956C24.2374 11.2474 24.1945 11.3919 24.2469 11.5153C24.3217 11.6847 24.3921 11.8586 24.4579 12.0344C24.6516 12.5465 24.8115 13.0771 24.9349 13.6237C24.9598 13.7382 25.0525 13.8175 25.1535 13.82C25.1682 13.8207 25.1835 13.8194 25.1982 13.8162C25.3133 13.7893 25.3824 13.6621 25.3536 13.531C25.2238 12.9595 25.0563 12.4039 24.8537 11.8688C24.7859 11.6847 24.7111 11.5044 24.6344 11.3248C24.596 11.234 24.5148 11.1777 24.4317 11.1764C24.4023 11.1752 24.3723 11.1815 24.3441 11.1956Z" fill="white"/>
<path d="M6.15913 13.1658C6.13995 13.2981 6.21858 13.4286 6.3375 13.458C6.3522 13.4618 6.36754 13.4637 6.38161 13.4644C6.48134 13.4663 6.56829 13.3902 6.58491 13.2764C6.66994 12.7221 6.79205 12.187 6.94996 11.6717C7.0011 11.5087 7.05417 11.3482 7.11107 11.1897C7.15454 11.0682 7.10148 10.9237 6.99024 10.8675C6.96083 10.8521 6.93014 10.8444 6.90073 10.8438C6.81762 10.8419 6.7409 10.8949 6.70894 10.9845C6.65076 11.1513 6.59386 11.3182 6.5408 11.4876C6.37522 12.0265 6.24671 12.5885 6.15913 13.1658Z" fill="white"/>
<path d="M15.4583 26.3995C15.4666 26.2665 15.3752 26.1444 15.2569 26.1297C15.0958 26.1073 14.9341 26.0792 14.7749 26.0491C14.2788 25.952 13.7923 25.8126 13.3211 25.6329C13.2994 25.6246 13.277 25.6208 13.2559 25.6202C13.1645 25.6182 13.082 25.6809 13.0558 25.7845C13.0238 25.9104 13.0916 26.0485 13.2054 26.0926C13.6989 26.2793 14.2059 26.427 14.7263 26.5267C14.8938 26.5593 15.0607 26.5881 15.2307 26.6117C15.2378 26.6124 15.2448 26.613 15.2512 26.6137C15.3605 26.6156 15.4526 26.5261 15.4583 26.3995Z" fill="white"/>
<path d="M25.527 18.1456C25.6401 17.4072 25.6836 16.6419 25.6548 15.8549L25.6542 15.83C25.6491 15.6944 25.5493 15.5851 25.4291 15.5826C25.3096 15.58 25.2175 15.688 25.222 15.821L25.2233 15.846C25.2508 16.5978 25.2079 17.3317 25.1005 18.035C25.0814 18.1673 25.16 18.2971 25.277 18.3272C25.2923 18.331 25.307 18.3329 25.3217 18.3329C25.4234 18.3355 25.5103 18.2594 25.527 18.1456Z" fill="white"/>
<path d="M6.59761 17.9502C6.71269 17.9233 6.78174 17.7961 6.75297 17.665C6.5925 16.9541 6.49532 16.2195 6.46592 15.4658C6.4608 15.3341 6.36299 15.2228 6.24471 15.2203C6.12324 15.2177 6.02926 15.3238 6.03438 15.4587C6.06507 16.2457 6.16736 17.0142 6.33486 17.7584C6.35979 17.8728 6.45249 17.9527 6.5535 17.9546C6.56757 17.9546 6.58227 17.9533 6.59761 17.9502Z" fill="white"/>
<path d="M14.3995 4.64847C14.2819 4.66062 14.1994 4.77697 14.2173 4.91251C14.2339 5.03654 14.3317 5.1318 14.4404 5.13435C14.4481 5.13435 14.4557 5.13435 14.4634 5.13371C14.7908 5.10111 15.12 5.08704 15.4576 5.09408C15.7823 5.10111 16.1058 5.12604 16.4229 5.1708C16.4312 5.17143 16.4389 5.17207 16.4466 5.17271C16.5565 5.17527 16.6454 5.08385 16.6531 4.9579C16.6595 4.82492 16.57 4.70473 16.4498 4.68811C16.118 4.644 15.7798 4.61587 15.4403 4.60883C15.0874 4.60052 14.7409 4.61395 14.3995 4.64847Z" fill="white"/>
<path d="M23.1935 9.58584C23.0982 9.44711 22.9991 9.30774 22.8981 9.17284C22.5663 8.72596 22.2044 8.3072 21.8177 7.92169C21.7256 7.83027 21.7128 7.67684 21.7889 7.57838C21.8292 7.52596 21.8873 7.49974 21.9462 7.50102C21.9973 7.5023 22.0497 7.5234 22.0926 7.56623C22.4985 7.969 22.8757 8.4063 23.2229 8.87236C23.3277 9.01365 23.4306 9.15878 23.5304 9.30582C23.6065 9.41578 23.5898 9.56858 23.4971 9.64594C23.4601 9.67663 23.4159 9.69069 23.3718 9.69005C23.3047 9.68877 23.2382 9.65297 23.1935 9.58584Z" fill="white"/>
<path d="M19.1831 25.7403C19.2745 25.7422 19.3608 25.8087 19.3947 25.9123C19.4362 26.0401 19.3787 26.1757 19.2675 26.2147C18.7848 26.3854 18.2823 26.5094 17.7657 26.59C17.6059 26.6155 17.4429 26.6373 17.2792 26.6526C17.2715 26.6533 17.2638 26.6539 17.2562 26.6533C17.1475 26.6507 17.0497 26.5561 17.0337 26.4314C17.0158 26.2959 17.0983 26.1795 17.2159 26.1674C17.3738 26.152 17.5279 26.1322 17.682 26.1086C18.1768 26.0318 18.6556 25.911 19.1166 25.7505C19.1383 25.7435 19.1607 25.7397 19.1831 25.7403Z" fill="white"/>
<path d="M25.1202 11.7589C24.6988 10.6394 24.1299 9.60051 23.4394 8.67542C23.3346 8.53413 23.2271 8.39604 23.1172 8.2605L25.7141 6.5874C26.6098 7.78868 27.3514 9.13893 27.8967 10.5947L25.2998 12.2684C25.2429 12.0971 25.1834 11.927 25.1202 11.7589Z" fill="white"/>
<path d="M25.421 19.9374C25.4715 19.7731 25.5189 19.6063 25.563 19.4375L28.2877 21.2218C27.8479 22.6552 27.2047 23.976 26.396 25.1421L23.6719 23.3578C23.7722 23.2267 23.8701 23.0925 23.9647 22.9557C24.588 22.0581 25.0816 21.0409 25.421 19.9374Z" fill="white"/>
<path d="M6.26903 11.3657C6.21788 11.5313 6.17057 11.6988 6.12646 11.8682L3.40234 10.0838C3.84411 8.64857 4.48662 7.32774 5.29599 6.16162L8.01883 7.94532C7.91846 8.07638 7.82064 8.21064 7.72603 8.34809C7.10397 9.24569 6.6085 10.2629 6.26903 11.3657Z" fill="white"/>
<path d="M13.2754 1.01671C13.9352 0.911863 14.6103 0.868389 15.3027 0.882454C15.995 0.896519 16.6759 0.968762 17.3446 1.1011L17.4718 4.55854C17.3152 4.51954 17.1579 4.48502 16.9994 4.45369C16.4847 4.3514 15.9611 4.29514 15.428 4.28427C14.8967 4.2734 14.3756 4.30792 13.868 4.38848C13.7114 4.41277 13.5567 4.4409 13.4026 4.47351L13.2754 1.01671Z" fill="white"/>
<path d="M18.4177 30.2847L16.2414 30.8058C15.5817 30.9106 14.9046 30.9567 14.2129 30.942C13.5205 30.9279 12.8409 30.8531 12.1729 30.7208L14.3491 30.1997C15.0178 30.332 15.6974 30.4068 16.3891 30.4209C17.0802 30.435 17.7573 30.3896 18.4177 30.2847Z" fill="white"/>
<mask id="mask0_508_2945" style="mask-type:luminance" maskUnits="userSpaceOnUse" x="12" y="30" width="7" height="1">
<path d="M18.4177 30.2843L16.2414 30.8053C15.5817 30.9101 14.9046 30.9562 14.2129 30.9415C13.5205 30.9274 12.8409 30.8526 12.1729 30.7203L14.3491 30.1992C15.0178 30.3316 15.6974 30.4064 16.3891 30.4204C17.0802 30.4345 17.7573 30.3891 18.4177 30.2843Z" fill="white"/>
</mask>
<g mask="url(#mask0_508_2945)">
<path d="M18.4177 30.2843L16.2414 30.8053C15.5817 30.9101 14.9046 30.9562 14.2129 30.9415C13.5205 30.9274 12.8409 30.8526 12.1729 30.7203L14.3491 30.1992C15.0178 30.3316 15.6974 30.4064 16.3891 30.4204C17.0802 30.4345 17.7573 30.3891 18.4177 30.2843Z" fill="white"/>
</g>
<path d="M16.2627 27.0169C16.7959 27.0278 17.3163 26.9933 17.8245 26.9127C17.9811 26.8884 18.1359 26.8603 18.2899 26.8277L18.4172 30.2851C17.7567 30.39 17.0804 30.436 16.388 30.4213C15.6962 30.4073 15.0166 30.3325 14.3479 30.2001L14.2207 26.7427C14.3767 26.7817 14.5346 26.8162 14.6932 26.8475C15.2072 26.9492 15.7308 27.0061 16.2627 27.0169Z" fill="white"/>
<mask id="mask1_508_2945" style="mask-type:luminance" maskUnits="userSpaceOnUse" x="1" y="6" width="5" height="5">
<path d="M3.40312 10.0834L1.22754 10.6044C1.66867 9.16913 2.31182 7.84829 3.12119 6.68218L5.29677 6.16113C4.4874 7.32661 3.84425 8.64808 3.40312 10.0834Z" fill="white"/>
</mask>
<g mask="url(#mask1_508_2945)">
<path d="M3.40312 10.0834L1.22754 10.6044C1.66867 9.16913 2.31182 7.84829 3.12119 6.68218L5.29677 6.16113C4.4874 7.32661 3.84425 8.64808 3.40312 10.0834Z" fill="white"/>
</g>
<path d="M6.5718 19.5449C6.99311 20.6644 7.5621 21.7033 8.25256 22.629C8.3574 22.7703 8.46545 22.9084 8.57605 23.0445L5.98044 24.717C5.08284 23.5157 4.34315 22.1655 3.7959 20.7123L6.39279 19.0386C6.44905 19.2086 6.50851 19.3774 6.5718 19.5449Z" fill="white"/>
<path d="M5.98088 24.7166L3.80465 25.2377C2.90642 24.0357 2.16737 22.6861 1.62012 21.2323L3.79634 20.7119C4.34359 22.1651 5.08264 23.5153 5.98088 24.7166Z" fill="white"/>
<mask id="mask2_508_2945" style="mask-type:luminance" maskUnits="userSpaceOnUse" x="1" y="20" width="5" height="6">
<path d="M5.98088 24.7161L3.80465 25.2372C2.90642 24.0352 2.16737 22.6856 1.62012 21.2318L3.79634 20.7114C4.34359 22.1646 5.08264 23.5148 5.98088 24.7161Z" fill="white"/>
</mask>
<g mask="url(#mask2_508_2945)">
<path d="M5.98088 24.7161L3.80465 25.2372C2.90642 24.0352 2.16737 22.6856 1.62012 21.2318L3.79634 20.7114C4.34359 22.1646 5.08264 23.5148 5.98088 24.7161Z" fill="white"/>
</g>
<path d="M13.2746 1.01709C13.2746 1.01709 13.1225 1.04842 12.8367 1.10659C12.5516 1.16605 12.1379 1.2709 11.6227 1.43904C11.1099 1.61294 10.4949 1.85204 9.83003 2.2075C9.16578 2.56232 8.45358 3.03158 7.74586 3.62743C7.0407 4.22455 6.34001 4.9489 5.71348 5.80175C5.63676 5.90916 5.56005 6.01784 5.48205 6.12717L5.42387 6.209L5.40917 6.22946L5.3983 6.24672L5.37145 6.29019L5.26277 6.46409C5.11892 6.6968 4.96804 6.93079 4.82484 7.17054C4.69697 7.41539 4.56719 7.66217 4.43677 7.91215C4.36773 8.03489 4.30827 8.1634 4.25393 8.29574C4.19703 8.4268 4.14013 8.5585 4.08259 8.69083C4.02505 8.82317 3.96815 8.95551 3.90998 9.08913C3.86203 9.22658 3.81472 9.36404 3.76677 9.50277C3.71882 9.64086 3.67087 9.7796 3.62229 9.91897L3.5494 10.128L3.49506 10.339C3.42026 10.6292 3.34418 10.9208 3.26874 11.2149C3.22527 11.3613 3.20481 11.509 3.17988 11.6566L3.10444 12.101C2.98041 12.6898 2.96315 13.3048 2.9037 13.9134C2.88899 14.219 2.89922 14.5265 2.89603 14.8334L2.89539 15.2944C2.89411 15.4337 2.91712 15.6 2.92671 15.7515L2.9964 16.6804C3.03284 16.986 3.08846 17.2846 3.13321 17.587L3.20417 18.0383C3.23166 18.1879 3.27386 18.3356 3.30774 18.4839C3.37935 18.7806 3.45031 19.0759 3.52191 19.3707C3.61589 19.6584 3.70923 19.9454 3.80193 20.2305L3.94003 20.6525C3.99756 20.7919 4.0551 20.9306 4.11264 21.0693C4.23219 21.343 4.33001 21.6294 4.4649 21.887C4.59468 22.1479 4.72382 22.4074 4.85169 22.6644C4.98786 22.9176 5.14066 23.1612 5.28194 23.406C5.4194 23.6547 5.57923 23.8855 5.7365 24.1144C5.81449 24.2295 5.89185 24.3439 5.96921 24.4571L6.08492 24.6271L6.20959 24.7851C6.37965 24.9999 6.54779 25.2115 6.71401 25.4212C6.87384 25.6373 7.05604 25.822 7.23185 26.0087C7.40766 26.1954 7.58092 26.3795 7.75097 26.5604C7.93062 26.7324 8.11794 26.891 8.29631 27.0527C8.47851 27.2093 8.64538 27.3781 8.83142 27.5169C9.01746 27.655 9.19902 27.7905 9.37675 27.9222C9.55704 28.0501 9.72134 28.1939 9.9061 28.2975C10.2673 28.5155 10.601 28.7399 10.9316 28.9195C11.2698 29.0864 11.5862 29.243 11.8784 29.3875C12.1769 29.5186 12.4627 29.6132 12.7146 29.7123C12.8418 29.7602 12.9614 29.8056 13.0745 29.8485C13.1877 29.8913 13.2996 29.913 13.4 29.9431C13.6033 29.9981 13.7765 30.0454 13.9172 30.0831C14.1985 30.1592 14.3487 30.2001 14.3487 30.2001C14.3487 30.2001 14.1972 30.1656 13.9133 30.1016C13.7714 30.0697 13.5956 30.0294 13.3891 29.9834C13.2868 29.9571 13.173 29.9412 13.0579 29.9022C12.9428 29.8632 12.8214 29.821 12.6922 29.7769C12.4359 29.6854 12.145 29.5991 11.84 29.4764C11.5408 29.3396 11.2167 29.1925 10.8708 29.0346C10.5314 28.8639 10.1874 28.6485 9.81468 28.4388C9.62353 28.3403 9.45603 28.1971 9.27063 28.0712C9.08778 27.9407 8.9011 27.8071 8.70995 27.6703C8.51879 27.5335 8.34682 27.366 8.15886 27.2106C7.97473 27.0502 7.78166 26.8922 7.59562 26.7209C7.41789 26.5393 7.23697 26.3546 7.05348 26.1673C6.86936 25.9799 6.67821 25.792 6.51646 25.581C6.3464 25.3751 6.17443 25.1661 5.99989 24.9551L5.86564 24.7914L5.74481 24.6207C5.66425 24.5069 5.58306 24.3919 5.50123 24.2768C5.4194 24.1611 5.33757 24.0454 5.25445 23.9284C5.17262 23.8114 5.10485 23.6841 5.02878 23.5614C4.88301 23.3121 4.72638 23.0666 4.58509 22.8076C4.45212 22.5442 4.31786 22.2783 4.18233 22.0104C4.04168 21.7438 3.94514 21.4651 3.82303 21.1902C3.76485 21.0521 3.70668 20.9133 3.64786 20.7746C3.59863 20.6288 3.5494 20.4824 3.50018 20.3354C3.40364 20.0451 3.30646 19.753 3.20865 19.4602C3.13449 19.1603 3.05969 18.8598 2.98425 18.5581C2.94845 18.4066 2.90498 18.257 2.87621 18.1035L2.80013 17.6387C2.75218 17.3287 2.69272 17.0173 2.65437 16.7073L2.57957 15.7783C2.57061 15.6198 2.55016 15.4766 2.5508 15.3052L2.55399 14.8347C2.55911 14.5214 2.55144 14.2075 2.56806 13.8955C2.63263 13.2735 2.65436 12.6508 2.78606 12.0402L2.86726 11.5825C2.89411 11.4303 2.91776 11.2769 2.96124 11.1324C3.03923 10.8396 3.11659 10.5481 3.19331 10.2584L3.25276 10.0353L3.3282 9.82243C3.37807 9.6805 3.42857 9.53921 3.4778 9.39792C3.52767 9.25727 3.57753 9.11662 3.62676 8.97661C3.68622 8.84108 3.74567 8.70554 3.80513 8.57064C3.86459 8.43639 3.9234 8.30213 3.98286 8.16851C4.03912 8.03426 4.10049 7.90255 4.17337 7.77597C4.31211 7.52024 4.44892 7.26771 4.58445 7.0171C4.73341 6.77863 4.88749 6.54912 5.03645 6.31832L5.14833 6.14698L5.17646 6.10415L5.19372 6.07922L5.20906 6.05876L5.2698 5.97629C5.35099 5.86632 5.43154 5.75764 5.5121 5.64896C6.16739 4.79227 6.89493 4.0692 7.62247 3.47591C8.35065 2.88134 9.08906 2.42871 9.77185 2.09178C10.4553 1.75359 11.0824 1.53238 11.6035 1.37319C11.8656 1.29903 12.0996 1.23062 12.308 1.19098C12.5151 1.14623 12.6903 1.10531 12.8348 1.08613C13.1212 1.04138 13.2746 1.01709 13.2746 1.01709Z" fill="white"/>
<path d="M18.2528 20.5211C17.6705 20.5211 17.2015 20.339 16.8457 19.9748C16.4899 19.6106 16.2312 19.0784 16.0695 18.378C15.9131 17.6683 15.835 16.8139 15.835 15.8147C15.835 14.8156 15.9131 13.9658 16.0695 13.2655C16.2312 12.5651 16.4899 12.0329 16.8457 11.6687C17.2015 11.2952 17.6705 11.1084 18.2528 11.1084C18.8404 11.1084 19.3094 11.2952 19.6598 11.6687C20.0156 12.0329 20.2743 12.5651 20.4361 13.2655C20.5978 13.9658 20.6786 14.8156 20.6786 15.8147C20.6786 16.8139 20.5978 17.6683 20.4361 18.378C20.2743 19.0784 20.0156 19.6106 19.6598 19.9748C19.3094 20.339 18.8404 20.5211 18.2528 20.5211ZM18.2528 18.5881C18.6625 18.5881 18.9455 18.3547 19.1018 17.8878C19.2635 17.4115 19.3444 16.7205 19.3444 15.8147C19.3444 14.909 19.2635 14.2226 19.1018 13.7557C18.9455 13.2795 18.6625 13.0414 18.2528 13.0414C17.8431 13.0414 17.5573 13.2795 17.3956 13.7557C17.2393 14.2226 17.1611 14.909 17.1611 15.8147C17.1611 16.7205 17.2393 17.4115 17.3956 17.8878C17.5573 18.3547 17.8431 18.5881 18.2528 18.5881Z" fill="#4B4B4B"/>
<path d="M13.2192 20.4091C13.0629 20.4091 12.8877 20.3904 12.6936 20.3531C12.505 20.3251 12.3163 20.2784 12.1276 20.213C11.9443 20.1476 11.7826 20.0636 11.6424 19.9609V18.0839C11.7718 18.1773 11.9174 18.2614 12.0791 18.3361C12.2462 18.4014 12.4106 18.4528 12.5723 18.4901C12.7395 18.5275 12.8877 18.5462 13.0171 18.5462C13.3513 18.5462 13.5966 18.4575 13.7529 18.28C13.9147 18.1026 13.9955 17.7991 13.9955 17.3696C13.9955 16.9867 13.9389 16.7113 13.8257 16.5432C13.7179 16.3658 13.5077 16.277 13.195 16.277H11.6182V15.1425L11.7556 11.2485H14.9901L14.8931 12.9854H12.8715L12.8149 14.6242H13.4942C14.1249 14.6242 14.5858 14.867 14.8769 15.3526C15.1734 15.8288 15.3217 16.5292 15.3217 17.4536C15.3217 18.3501 15.1465 19.0691 14.7961 19.6107C14.4511 20.143 13.9254 20.4091 13.2192 20.4091Z" fill="#4B4B4B"/>
</svg>
