<svg width="17" height="11" viewBox="0 0 17 11" fill="none" xmlns="http://www.w3.org/2000/svg">
<path d="M1.76782 6.33711C1.75338 6.32181 1.73895 6.30652 1.72484 6.29126C1.69451 6.25854 1.66491 6.22523 1.63596 6.19198C1.62254 6.17645 1.60909 6.16125 1.596 6.14576C1.56332 6.10652 1.53166 6.06705 1.50137 6.02705C1.49549 6.0192 1.48894 6.01162 1.48306 6.00377C1.44631 5.9552 1.41159 5.90616 1.37887 5.85698C1.37249 5.84743 1.36681 5.83761 1.36044 5.82805C1.33504 5.78885 1.31033 5.74939 1.2873 5.70975C1.27814 5.69463 1.27 5.67927 1.26121 5.66386C1.24227 5.62991 1.22368 5.59567 1.20644 5.56123C1.19754 5.54348 1.18897 5.52577 1.1804 5.50805C1.16302 5.47161 1.14666 5.43493 1.13131 5.39801C1.12568 5.38422 1.11936 5.3707 1.11402 5.35727C1.09319 5.30492 1.07371 5.25238 1.05691 5.19943C1.03986 5.14579 1.02513 5.09204 1.01237 5.03848C1.00903 5.02491 1.00635 5.0114 1.00367 4.9979C0.994236 4.95459 0.986117 4.91141 0.97934 4.86803C0.977112 4.85325 0.974549 4.83843 0.972681 4.82334C0.965052 4.76464 0.95907 4.7061 0.956099 4.64718C0.954075 4.6026 0.953392 4.55782 0.954385 4.51286C0.940229 5.19686 0.925711 5.88116 0.911555 6.56516C0.910594 6.60979 0.911308 6.65425 0.913333 6.69883C0.915975 6.75771 0.921934 6.81658 0.929563 6.87528C0.93031 6.88132 0.930435 6.88696 0.931183 6.89299C0.9326 6.9024 0.934998 6.91191 0.936416 6.92132C0.942788 6.96201 0.950146 7.0028 0.959176 7.04341C0.961452 7.05423 0.962718 7.06528 0.965323 7.07613C0.966726 7.08223 0.968785 7.08839 0.970517 7.09452C0.982106 7.143 0.995395 7.19097 1.01033 7.23911C1.01159 7.24321 1.01253 7.24727 1.0138 7.25137C1.01459 7.25343 1.01509 7.25514 1.01589 7.2572C1.03201 7.30677 1.05016 7.35588 1.06962 7.40511C1.07178 7.41029 1.07328 7.4154 1.07543 7.42058C1.08054 7.43299 1.08696 7.44553 1.09236 7.45831C1.10671 7.49181 1.12139 7.52535 1.13741 7.55868C1.14155 7.56736 1.14499 7.5763 1.14942 7.58534C1.15445 7.59509 1.16013 7.60491 1.16516 7.61467C1.18134 7.64636 1.19788 7.67776 1.21544 7.70892C1.22221 7.72116 1.22831 7.73367 1.23508 7.74592C1.23875 7.75256 1.24344 7.75897 1.24744 7.76565C1.26908 7.8025 1.29237 7.83951 1.31601 7.87623C1.32209 7.88542 1.32715 7.89485 1.33322 7.90404C1.33438 7.90581 1.33586 7.90761 1.33702 7.90938C1.36918 7.95751 1.40302 8.00547 1.43856 8.05293C1.4403 8.05541 1.44176 8.05754 1.44351 8.06002C1.45143 8.07072 1.46069 8.08121 1.46897 8.09161C1.49638 8.12703 1.52445 8.16251 1.55357 8.19743C1.55831 8.20319 1.56241 8.20888 1.56748 8.21467C1.57612 8.22477 1.58575 8.23496 1.59471 8.2451C1.62244 8.27723 1.65116 8.30947 1.6806 8.3411C1.689 8.35019 1.69668 8.35987 1.70541 8.36899C1.7123 8.3766 1.72054 8.38402 1.72779 8.39133C1.76091 8.42598 1.79538 8.46041 1.83023 8.49423C1.84025 8.5038 1.84892 8.51357 1.85893 8.52314C1.86226 8.52644 1.86595 8.52945 1.86961 8.53278C1.91635 8.57733 1.96447 8.62136 2.01462 8.66492C2.02193 8.67158 2.02961 8.67795 2.03725 8.68464C2.05164 8.69695 2.06737 8.70906 2.08209 8.7214C2.12163 8.75467 2.16183 8.788 2.20341 8.8208C2.21204 8.82759 2.21997 8.83464 2.22857 8.84176C2.24275 8.85272 2.25829 8.86348 2.27247 8.87445C2.31474 8.90698 2.35805 8.93896 2.40206 8.97066C2.41663 8.981 2.42984 8.99187 2.44474 9.00225C2.45498 9.00952 2.46594 9.0162 2.47587 9.02311C2.53734 9.0661 2.60055 9.10826 2.66546 9.14992C2.67422 9.15539 2.68225 9.16146 2.691 9.16694C2.69254 9.16808 2.69445 9.16893 2.69633 9.1701C2.77689 9.22121 2.86087 9.27132 2.94626 9.32057C2.95662 9.32653 2.96595 9.33273 2.97631 9.33869C2.98953 9.34592 3.00377 9.35291 3.01696 9.36047C3.1072 9.41085 3.19916 9.46073 3.29458 9.50895C3.30059 9.51185 3.30622 9.51537 3.31223 9.51826C3.31414 9.51911 3.31635 9.52031 3.31826 9.52116C3.39125 9.55796 3.46565 9.5939 3.54146 9.62899C3.596 9.65441 3.65156 9.67961 3.70783 9.70421C3.72723 9.71269 3.74731 9.72091 3.76673 9.72906C3.79569 9.74144 3.82465 9.75382 3.85396 9.76591C3.91096 9.78991 3.96868 9.81333 4.02741 9.83651C4.05613 9.84787 4.08485 9.85923 4.11361 9.87027C4.12734 9.87556 4.1404 9.88112 4.15414 9.88641C4.16981 9.89221 4.18685 9.89749 4.20283 9.90365C4.3282 9.95044 4.45639 9.99551 4.58771 10.0389C4.60151 10.0435 4.6143 10.0484 4.6281 10.053C4.63582 10.0554 4.64386 10.0579 4.65191 10.0603C4.67537 10.0678 4.69919 10.0751 4.72301 10.0823C4.79374 10.1047 4.8652 10.1264 4.93767 10.1479C4.97022 10.1573 5.00311 10.1668 5.03603 10.1759C5.06957 10.1854 5.10209 10.1951 5.13599 10.2044C5.16053 10.211 5.18611 10.2171 5.21068 10.2234C5.27076 10.2395 5.3312 10.2552 5.39236 10.2703C5.44445 10.2832 5.49687 10.2962 5.54965 10.3089C5.60988 10.3233 5.67083 10.3371 5.73215 10.3505C5.76653 10.3581 5.80017 10.3667 5.83492 10.374C5.87649 10.3826 5.91804 10.3915 5.95997 10.3999C6.07208 10.4225 6.18398 10.4438 6.29671 10.4636C6.32278 10.4681 6.34892 10.4719 6.37499 10.4764C6.45254 10.4898 6.53043 10.5032 6.60847 10.515C6.61402 10.5158 6.6196 10.5164 6.62515 10.5172C6.79459 10.543 6.96442 10.5649 7.13446 10.5845C7.15347 10.5867 7.17237 10.5898 7.19138 10.592C7.21695 10.5948 7.24225 10.5968 7.26783 10.5996C7.32717 10.606 7.38692 10.6117 7.44636 10.6171C7.47918 10.6202 7.51194 10.624 7.5448 10.6268C7.57142 10.629 7.59777 10.6306 7.62439 10.6328C7.66877 10.6364 7.71284 10.6396 7.75725 10.6428C7.78521 10.6449 7.81344 10.6476 7.84144 10.6493C7.88325 10.6519 7.9248 10.6539 7.96631 10.6562C8.00057 10.6582 8.03481 10.6605 8.0691 10.6621C8.08328 10.6628 8.09742 10.6638 8.11127 10.6645C8.19735 10.6684 8.2835 10.6717 8.36938 10.6743C8.37036 10.6744 8.37134 10.6745 8.37268 10.6743C8.39053 10.6747 8.40806 10.675 8.42591 10.6754C8.49233 10.6771 8.55842 10.6788 8.62427 10.6795C8.658 10.6801 8.69177 10.6803 8.72586 10.6806C8.77619 10.6808 8.82619 10.6809 8.87626 10.6804C8.96275 10.6801 9.04933 10.6788 9.13529 10.6771C9.18775 10.6758 9.23961 10.6738 9.29178 10.6722C9.31005 10.6716 9.32865 10.6711 9.34692 10.6705C9.36487 10.6699 9.38279 10.6697 9.40076 10.6687C9.49222 10.6649 9.58374 10.6604 9.67503 10.6549C9.74765 10.6506 9.82005 10.6453 9.89247 10.6396C9.90415 10.6388 9.91616 10.6379 9.92783 10.637C9.93751 10.6363 9.94748 10.6359 9.95715 10.6352C10.0539 10.6276 10.1499 10.6189 10.2458 10.6092C10.3208 10.6015 10.3955 10.593 10.4698 10.5843C10.4833 10.5826 10.497 10.5812 10.5103 10.5799C10.5197 10.5788 10.5291 10.578 10.5385 10.5766C10.637 10.5645 10.7357 10.5514 10.8331 10.5372C10.911 10.5258 10.9887 10.514 11.0657 10.5015C11.093 10.4972 11.1199 10.4928 11.1468 10.4881C11.1997 10.4793 11.2517 10.4693 11.3039 10.4598C11.3413 10.4531 11.3791 10.4464 11.4162 10.4394C11.4246 10.4379 11.433 10.4363 11.4415 10.4348C11.5073 10.4223 11.5722 10.4086 11.6371 10.3949C11.6651 10.389 11.6938 10.3838 11.7219 10.3776C11.7263 10.3766 11.7307 10.3757 11.7351 10.3748C11.8301 10.3541 11.925 10.3324 12.0182 10.3095C12.0216 10.3085 12.0254 10.3079 12.0287 10.3072C12.1278 10.2829 12.2259 10.2579 12.3229 10.2314C12.3249 10.2309 12.327 10.2301 12.329 10.2297C12.3742 10.2174 12.4186 10.2038 12.4632 10.1912C12.5153 10.1763 12.568 10.1618 12.6195 10.1462C12.6223 10.1454 12.6247 10.1443 12.6271 10.1436C12.7114 10.1179 12.7941 10.091 12.8759 10.0637C12.8906 10.0588 12.9056 10.0546 12.92 10.0494L12.9213 10.0489C13.022 10.0148 13.1215 9.97926 13.2191 9.94256C13.2214 9.94179 13.2242 9.94073 13.2263 9.93993C13.2441 9.93336 13.2607 9.92601 13.2783 9.91908C13.3587 9.88836 13.4379 9.85685 13.5159 9.82424C13.5252 9.82049 13.5349 9.81678 13.5442 9.81303C13.5663 9.80356 13.5871 9.7933 13.6092 9.78382C13.6825 9.75208 13.7552 9.71962 13.8263 9.68635C13.8433 9.67837 13.8612 9.67114 13.8778 9.66313C13.8924 9.65624 13.9054 9.64854 13.92 9.64166C14.028 9.58939 14.1338 9.5356 14.2356 9.47975C14.2377 9.47863 14.2398 9.47751 14.2419 9.47638C14.2419 9.47638 14.2429 9.47582 14.2436 9.47555C14.2691 9.46176 14.2931 9.44683 14.3183 9.43268C14.3691 9.40376 14.4198 9.37517 14.4691 9.34543C14.4979 9.32799 14.5251 9.31005 14.5533 9.29255C14.5903 9.26926 14.6279 9.24669 14.664 9.22298C14.6711 9.21803 14.6782 9.21308 14.6852 9.20846C14.7058 9.19485 14.7256 9.18086 14.7459 9.16689C14.7905 9.13639 14.8342 9.10546 14.8773 9.07414C14.9001 9.05744 14.9229 9.04042 14.9454 9.02336C14.9865 8.99251 15.0263 8.9612 15.0654 8.92951C15.0851 8.91351 15.1052 8.89788 15.1243 8.88182C15.1812 8.83459 15.2368 8.78659 15.2898 8.73734C15.4801 8.56278 15.6451 8.37917 15.7837 8.18474C15.9218 7.99126 16.0277 7.79503 16.1026 7.59717C16.1946 7.35887 16.2418 7.11925 16.2467 6.88089C16.2609 6.19656 16.2753 5.51292 16.2895 4.82859C16.2846 5.06695 16.2375 5.30657 16.1454 5.54486C16.0702 5.7427 15.9639 5.9389 15.8261 6.1324C15.6876 6.32683 15.523 6.51048 15.3323 6.68501C15.2793 6.73425 15.2233 6.78223 15.1664 6.82978C15.1481 6.84524 15.1287 6.86029 15.1101 6.8754C15.0695 6.90828 15.0283 6.94044 14.9861 6.97251C14.9647 6.98868 14.9433 7.00452 14.9219 7.02036C14.8778 7.05256 14.8327 7.08435 14.7869 7.11575C14.7674 7.12912 14.7482 7.14285 14.7281 7.15583C14.6832 7.18564 14.6367 7.21465 14.5901 7.24398C14.5644 7.26007 14.5397 7.27625 14.5137 7.29197C14.4549 7.32743 14.3947 7.36174 14.3338 7.39598C14.3187 7.40448 14.304 7.41333 14.2886 7.4218C14.2826 7.4252 14.2764 7.42825 14.2704 7.43132C14.1712 7.48542 14.0681 7.53783 13.9632 7.58873C13.9319 7.60395 13.9007 7.61885 13.8691 7.63372C13.798 7.66699 13.7257 7.69915 13.6521 7.73119C13.621 7.74477 13.5905 7.75842 13.5588 7.77161C13.4812 7.80393 13.4016 7.8354 13.3218 7.86618C13.3008 7.87444 13.2801 7.88306 13.2588 7.89096C13.164 7.92627 13.068 7.96079 12.9704 7.99418C12.9214 8.01069 12.8709 8.02606 12.8213 8.04218C12.7708 8.05854 12.7211 8.07532 12.67 8.09062C12.6157 8.10729 12.5606 8.12255 12.5057 8.13817C12.4608 8.15109 12.4168 8.16443 12.3715 8.17666C12.1736 8.23091 11.9708 8.28006 11.7641 8.32486C11.7401 8.32985 11.7158 8.33481 11.6914 8.33977C11.6127 8.35608 11.5336 8.37235 11.454 8.38758C11.4189 8.39416 11.3829 8.40032 11.3475 8.40687C11.2679 8.42111 11.1884 8.43569 11.1076 8.44882C10.9249 8.47836 10.7399 8.50437 10.5526 8.52685C10.5388 8.52851 10.5251 8.52985 10.5114 8.53152C10.3328 8.55251 10.1522 8.57033 9.97035 8.58438C9.95766 8.58549 9.94504 8.58593 9.93267 8.58707C9.75217 8.60059 9.57034 8.61067 9.38748 8.61767C9.37019 8.61834 9.35326 8.6187 9.3363 8.6194C9.14754 8.62583 8.95777 8.62886 8.7674 8.62786C8.65814 8.62733 8.54903 8.62517 8.43933 8.62228C8.43241 8.62195 8.42579 8.62198 8.41883 8.62197C8.3151 8.619 8.21117 8.61468 8.10734 8.60937C8.07603 8.6077 8.04475 8.6057 8.01344 8.60402C7.94098 8.59973 7.86854 8.59512 7.79614 8.59017C7.75337 8.58707 7.71028 8.58394 7.66722 8.58048C7.60706 8.57571 7.54695 8.57028 7.48689 8.56453C7.42747 8.55884 7.36806 8.55315 7.30868 8.54713C7.2644 8.54256 7.22019 8.53734 7.1763 8.53214C7.0056 8.51248 6.83479 8.49049 6.66469 8.4646C6.59351 8.45381 6.52278 8.44173 6.4517 8.42996C6.41259 8.42323 6.37306 8.41746 6.33366 8.41037C6.22258 8.39079 6.11162 8.3699 6.00115 8.3474C5.92641 8.33229 5.85347 8.3157 5.78016 8.2994C5.7156 8.28527 5.65109 8.27048 5.58728 8.25543C5.53611 8.24324 5.48563 8.23079 5.43518 8.21801C5.37339 8.20248 5.3123 8.1867 5.2519 8.17064C5.21054 8.15973 5.16957 8.14818 5.12891 8.137C4.97662 8.09459 4.82747 8.0505 4.68225 8.00347C4.66651 7.99832 4.65147 7.9929 4.63573 7.98775C4.50214 7.94382 4.37238 7.89794 4.2451 7.85031C4.21503 7.83915 4.1846 7.82828 4.15489 7.81682C4.12518 7.80537 4.09616 7.79365 4.06711 7.78225C4.01061 7.75995 3.95451 7.73702 3.89939 7.71418C3.86787 7.7009 3.83667 7.68764 3.80581 7.67442C3.73073 7.64205 3.65634 7.60942 3.58372 7.57564C3.50666 7.53977 3.43098 7.50337 3.35703 7.46615C3.35325 7.46413 3.34979 7.46214 3.34598 7.46045C3.24612 7.41015 3.14977 7.35786 3.05544 7.3051C3.03374 7.29308 3.01237 7.2811 2.99135 7.26882C2.90468 7.21911 2.81975 7.16858 2.73859 7.11675C2.72859 7.11049 2.71898 7.10361 2.70898 7.09735C2.64282 7.05491 2.57872 7.01167 2.516 6.9679C2.49303 6.95179 2.47039 6.93571 2.44808 6.91966C2.40253 6.88681 2.35799 6.85373 2.31415 6.82038C2.29134 6.80263 2.26816 6.78517 2.246 6.76748C2.20443 6.73468 2.16456 6.70138 2.12468 6.66808C2.10229 6.64937 2.07925 6.63061 2.05755 6.61163C2.00739 6.56807 1.9593 6.52372 1.91252 6.47949C1.89947 6.46698 1.88708 6.45453 1.87437 6.44205C1.83754 6.40805 1.80216 6.37286 1.76782 6.33711Z" fill="#E0791A"/>
<path d="M3.34585 7.46176C3.24599 7.41146 3.14964 7.35917 3.05532 7.30641C3.03361 7.2944 3.01224 7.28241 2.99122 7.27013C2.90456 7.22043 2.81962 7.16989 2.73846 7.11806C2.72846 7.11181 2.71885 7.10492 2.70885 7.09867C2.64269 7.05622 2.57859 7.01299 2.51587 6.96922C2.4929 6.95311 2.47026 6.93703 2.44795 6.92098C2.4024 6.88813 2.35787 6.85504 2.31402 6.82169C2.29121 6.80394 2.26803 6.78649 2.24588 6.76879C2.2043 6.73599 2.16443 6.7027 2.12456 6.6694C2.10217 6.65069 2.07912 6.63192 2.05742 6.61295L2.01462 8.66492C2.02193 8.67158 2.02958 8.67828 2.03722 8.68497C2.05161 8.69728 2.06734 8.70939 2.08206 8.72173C2.1216 8.755 2.1618 8.78833 2.20338 8.82113C2.212 8.82792 2.21994 8.83497 2.22854 8.84209C2.24272 8.85305 2.25825 8.86381 2.27244 8.87478C2.31471 8.90731 2.35802 8.93929 2.40202 8.97099C2.4166 8.98133 2.42981 8.9922 2.44471 9.00258C2.45495 9.00985 2.4659 9.01653 2.47584 9.02344C2.53731 9.06643 2.60052 9.10859 2.66543 9.15025C2.67418 9.15572 2.68222 9.16179 2.69097 9.16727C2.69251 9.16841 2.69442 9.16925 2.69629 9.17043C2.77686 9.22154 2.86084 9.27165 2.94622 9.3209C2.95659 9.32686 2.96592 9.33306 2.97628 9.33902C2.9895 9.34624 3.00374 9.35324 3.01693 9.36079C3.10717 9.41117 3.19912 9.46105 3.29454 9.50928C3.30056 9.51217 3.30619 9.51569 3.3122 9.51859C3.31411 9.51943 3.31632 9.52064 3.31822 9.52148C3.39122 9.55829 3.46562 9.59423 3.54176 9.62934L3.58458 7.57704C3.50752 7.54118 3.43184 7.50478 3.35789 7.46755C3.3531 7.46577 3.34963 7.46378 3.34585 7.46176Z" fill="white"/>
<path d="M15.7834 8.18736C15.9215 7.99389 16.0274 7.79766 16.1023 7.59979L16.1455 5.54752C16.0702 5.74536 15.964 5.94155 15.8262 6.13506C15.6877 6.32949 15.523 6.51313 15.3324 6.68767L15.2896 8.73997C15.4802 8.56544 15.6449 8.38146 15.7834 8.18736Z" fill="white"/>
<path d="M9.97016 8.58635C9.95747 8.58745 9.94485 8.5879 9.93248 8.58904C9.75198 8.60256 9.57015 8.61264 9.38729 8.61964C9.37 8.62031 9.35307 8.62067 9.33611 8.62137C9.14735 8.6278 8.95758 8.63083 8.76721 8.62983L8.72438 10.6821C8.77471 10.6823 8.82472 10.6825 8.87479 10.682C8.96128 10.6816 9.04786 10.6803 9.13382 10.6786C9.18628 10.6773 9.23815 10.6753 9.29031 10.6737C9.30858 10.6731 9.32718 10.6726 9.34545 10.672C9.3634 10.6714 9.38132 10.6712 9.39929 10.6702C9.49075 10.6664 9.58227 10.6619 9.67356 10.6564C9.74618 10.6521 9.81858 10.6468 9.891 10.6411C9.90268 10.6403 9.91469 10.6394 9.92636 10.6386C9.93604 10.6378 9.94601 10.6375 9.95568 10.6367C10.0525 10.6291 10.1484 10.6204 10.2444 10.6107C10.3193 10.603 10.394 10.5946 10.4684 10.5858C10.4818 10.5841 10.4955 10.5828 10.5089 10.5814C10.5182 10.5803 10.5276 10.5795 10.537 10.5781C10.6356 10.566 10.7342 10.5529 10.8316 10.5388C10.9096 10.5273 10.9872 10.5156 11.0643 10.5031L11.1071 8.45076C10.9244 8.4803 10.7394 8.50631 10.5521 8.52879C10.5383 8.53045 10.5246 8.53179 10.5109 8.53345C10.3323 8.55445 10.152 8.5723 9.97016 8.58635Z" fill="white"/>
<path d="M2.05709 6.61292C2.46449 6.9696 2.97718 7.29562 3.5832 7.57757C4.27456 7.89884 5.08699 8.16313 6.00073 8.34835C6.91339 8.53446 7.85039 8.62551 8.76685 8.63012C9.57034 8.63485 10.3596 8.5733 11.1067 8.45106C12.8669 8.16844 14.3953 7.55292 15.3323 6.68832C15.5223 6.51406 15.687 6.33008 15.8259 6.13503C15.9636 5.94251 16.0702 5.74569 16.1458 5.54821C16.5224 4.56965 16.1463 3.56738 15.1857 2.73041C14.7791 2.37514 14.2651 2.04899 13.6604 1.76716C12.969 1.44589 12.1569 1.18163 11.2443 0.995524C10.3305 0.810635 9.39318 0.719553 8.47672 0.714938C7.67224 0.710114 6.88262 0.771637 6.13553 0.893879C4.37656 1.17793 2.84819 1.79345 1.91077 2.65802C1.72084 2.83229 1.55644 3.01662 1.41866 3.21013C1.27986 3.40387 1.17435 3.59947 1.09769 3.79817C0.721157 4.77607 1.09698 5.77732 2.05709 6.61292Z" fill="#E0791A"/>
<path d="M6.7078 1.76356C7.2835 1.67028 7.8912 1.62347 8.51035 1.62645C8.60307 1.62671 8.69531 1.62859 8.78814 1.63119L8.47643 0.714579C7.67258 0.710147 6.88295 0.771669 6.13495 0.89316L6.44669 1.80944C6.53305 1.7932 6.62029 1.77803 6.7078 1.76356Z" fill="white"/>
<path d="M13.6737 3.17823C13.7217 3.21993 13.7673 3.26206 13.8116 3.30473L15.1863 2.73047C14.7788 2.37478 14.2662 2.0481 13.6608 1.76654L12.2851 2.34102C12.358 2.37186 12.4295 2.40355 12.4993 2.43606C12.9648 2.65289 13.3607 2.90446 13.6737 3.17823Z" fill="white"/>
<path d="M2.78451 4.13956C2.79829 4.09252 2.81405 4.04567 2.83177 3.999C2.8894 3.84684 2.97145 3.6957 3.07782 3.54655C3.18383 3.39771 3.3107 3.25582 3.45735 3.1218C3.50239 3.0804 3.54902 3.03981 3.59725 2.99971L1.91084 2.65736C1.72153 2.83202 1.55648 3.01629 1.41841 3.20944C1.27987 3.40387 1.17402 3.59944 1.09811 3.79721L2.78451 4.13956Z" fill="white"/>
<path d="M14.4118 5.34573C14.3542 5.49789 14.2722 5.6487 14.1659 5.79752C14.0595 5.947 13.9329 6.08891 13.7862 6.22293C13.7412 6.26433 13.6946 6.30492 13.6464 6.34469L15.3325 6.68701C15.5228 6.51245 15.6878 6.32883 15.8263 6.13441C15.9641 5.9409 16.0703 5.7447 16.1456 5.54686L14.4595 5.20454C14.4457 5.25192 14.4299 5.2991 14.4118 5.34573Z" fill="white"/>
<path d="M11.1074 8.45112L10.7963 7.5349C10.7099 7.55115 10.6227 7.56664 10.5348 7.58076C9.96046 7.67415 9.35143 7.72117 8.73369 7.71733C8.64096 7.71707 8.54803 7.71546 8.4552 7.71286L8.76721 8.62983C9.57008 8.63416 10.3597 8.57264 11.1074 8.45112Z" fill="white"/>
<path d="M3.5832 7.57757L4.95862 7.00273C4.88604 6.97193 4.81458 6.93991 4.74511 6.90775C4.27793 6.69109 3.88258 6.44024 3.56861 6.16638C3.52093 6.12471 3.47498 6.08221 3.4307 6.03955L2.0567 6.61354C2.46386 6.96921 2.97718 7.29562 3.5832 7.57757Z" fill="white"/>
<path d="M3.43107 6.03925C3.47534 6.08192 3.52129 6.12441 3.56898 6.16608C3.88295 6.43995 4.27829 6.6908 4.74547 6.90745C4.8149 6.93994 4.8864 6.97163 4.95897 7.00243C5.44183 7.20767 5.99334 7.37741 6.60519 7.50159C7.21508 7.62558 7.83917 7.69461 8.45523 7.71253C8.54807 7.71513 8.641 7.71674 8.73372 7.71701C9.3515 7.72051 9.96046 7.67415 10.5348 7.58076C10.6227 7.56664 10.71 7.55082 10.7963 7.53458C11.9572 7.31515 12.9687 6.90454 13.6464 6.34469C13.6946 6.30492 13.7412 6.26401 13.7862 6.22293C13.9329 6.08891 14.0594 5.94733 14.1658 5.79785C14.2722 5.64903 14.3542 5.49789 14.4118 5.34573C14.4299 5.29877 14.4456 5.25224 14.4594 5.2052C14.6507 4.54644 14.4054 3.88066 13.8116 3.30506C13.7673 3.26239 13.7217 3.21993 13.6737 3.17823C13.3607 2.90446 12.9651 2.65325 12.4989 2.43669C12.4291 2.40417 12.3576 2.37248 12.2847 2.34165C11.8018 2.13674 11.2493 1.9669 10.6397 1.84327C10.0279 1.71909 9.40445 1.65012 8.78842 1.63187C8.69558 1.62928 8.60301 1.62737 8.51061 1.62713C7.89149 1.62383 7.28377 1.67097 6.70807 1.76424C6.62059 1.77839 6.53331 1.79388 6.44728 1.81016C5.28742 2.02968 4.27589 2.44029 3.59787 3.0001C3.54968 3.03988 3.5027 3.08076 3.45799 3.12219C3.31133 3.25622 3.18478 3.39813 3.07844 3.54695C2.97204 3.69642 2.8897 3.8472 2.83239 3.99939C2.81467 4.04606 2.7989 4.09324 2.78515 4.13996C2.5939 4.79839 2.83831 5.46309 3.43107 6.03925Z" fill="#E0791A"/>
<path d="M11.3753 7.23392C11.3416 7.20155 11.265 7.18858 11.2039 7.20459C10.946 7.27198 10.676 7.32827 10.3984 7.37324C10.3142 7.38705 10.2285 7.39971 10.1426 7.41136C10.103 7.41684 10.0731 7.43154 10.0601 7.45016C10.0513 7.46257 10.0499 7.47668 10.0576 7.49033C10.0764 7.52559 10.1466 7.54623 10.2131 7.53735C10.303 7.52477 10.3924 7.51147 10.4802 7.49735C10.7709 7.45065 11.0522 7.39146 11.3222 7.32159C11.3514 7.31412 11.3718 7.30182 11.3825 7.28728C11.3943 7.27053 11.3928 7.2515 11.3753 7.23392Z" fill="white"/>
<path d="M13.3693 3.08813C13.3305 3.05759 13.2512 3.04866 13.1937 3.068C13.1708 3.07542 13.1548 3.08647 13.146 3.09855C13.1326 3.11748 13.1365 3.13938 13.1599 3.15752C13.2132 3.19972 13.2648 3.24177 13.314 3.2849C13.4619 3.41434 13.5908 3.54892 13.6994 3.68751C13.7254 3.72113 13.7989 3.73844 13.8634 3.72607C13.8978 3.7191 13.923 3.7056 13.9348 3.68885C13.9452 3.67427 13.9454 3.65774 13.9327 3.64194C13.82 3.49733 13.6851 3.35622 13.5298 3.2211C13.4781 3.17574 13.4251 3.13124 13.3693 3.08813Z" fill="white"/>
<path d="M3.30889 5.69962C3.33449 5.73321 3.40803 5.75052 3.47321 5.73755C3.50763 5.7309 3.53281 5.71708 3.54432 5.70063C3.55466 5.68605 3.55489 5.66984 3.54281 5.65411C3.39983 5.46949 3.29301 5.27741 3.22535 5.08112C3.21352 5.04554 3.14764 5.02101 3.07886 5.02668C3.03316 5.02993 2.99749 5.04605 2.98259 5.06682C2.97531 5.07705 2.97287 5.08875 2.97735 5.10077C3.04718 5.30554 3.15912 5.5064 3.30889 5.69962Z" fill="white"/>
<path d="M4.91857 2.4432C4.96357 2.47136 5.04263 2.47595 5.09542 2.45384C5.39037 2.33137 5.70859 2.22537 6.04555 2.13805C6.07406 2.13085 6.09416 2.11819 6.10446 2.10394C6.11634 2.08719 6.11484 2.06817 6.09728 2.05092C6.06496 2.01834 5.98838 2.00505 5.92723 2.02105C5.57466 2.11217 5.24178 2.22273 4.93429 2.35163C4.91637 2.35886 4.90387 2.36826 4.8966 2.37849C4.88133 2.39956 4.88856 2.42443 4.91857 2.4432Z" fill="white"/>
<path d="M6.95016 1.88581C6.97068 1.92057 7.04056 1.9415 7.10736 1.93233C7.47277 1.88352 7.85088 1.85414 8.23454 1.84649C8.28602 1.84512 8.32738 1.82822 8.34415 1.80531C8.35025 1.79695 8.35278 1.78792 8.35136 1.7785C8.34717 1.74266 8.28596 1.71427 8.21621 1.71621C7.81461 1.72446 7.41982 1.75489 7.03727 1.80637C6.997 1.81179 6.96671 1.8271 6.9533 1.84603C6.9442 1.85807 6.94256 1.87183 6.95016 1.88581Z" fill="white"/>
<path d="M4.64135 6.73914C4.6912 6.76512 4.77099 6.76547 4.81879 6.74024C4.83133 6.73382 4.84068 6.7261 4.84645 6.71771C4.86292 6.69444 4.85293 6.66732 4.81637 6.64792C4.53908 6.50642 4.2933 6.35071 4.08005 6.18388C4.04153 6.15369 3.9636 6.14424 3.90541 6.16385C3.88251 6.17126 3.86621 6.18229 3.8574 6.19469C3.84403 6.21329 3.84789 6.23519 3.87166 6.25336C4.09314 6.42761 4.35048 6.59072 4.64135 6.73914Z" fill="white"/>
<path d="M14.2649 4.24053C14.2534 4.20497 14.1872 4.18042 14.1188 4.18546C14.0734 4.18939 14.0381 4.20522 14.0232 4.22632C14.0159 4.23655 14.0135 4.24791 14.0173 4.25987C14.0842 4.4541 14.1126 4.6516 14.0996 4.85009C14.0971 4.88629 14.1514 4.91733 14.2221 4.91946C14.2776 4.92113 14.3266 4.90396 14.3446 4.87853C14.3489 4.87231 14.3518 4.86596 14.3521 4.85871C14.3648 4.65024 14.335 4.443 14.2649 4.24053Z" fill="white"/>
<path d="M13.1243 6.46629C13.0686 6.44306 12.9893 6.44707 12.9466 6.47478C12.7106 6.62873 12.444 6.76684 12.1531 6.88838C12.1358 6.89567 12.123 6.90504 12.1157 6.91527C12.1008 6.93637 12.1077 6.96121 12.1377 6.97998C12.1823 7.00811 12.2614 7.0127 12.3155 6.99039C12.6196 6.86315 12.8981 6.71857 13.1457 6.55777C13.1542 6.55229 13.1603 6.54659 13.1646 6.54037C13.1832 6.51499 13.1682 6.48507 13.1243 6.46629Z" fill="white"/>
<path d="M9.15114 7.56088C9.14564 7.52491 9.08574 7.49665 9.01567 7.49855C8.91944 7.50027 8.82258 7.50159 8.7253 7.50056C8.4422 7.49928 8.15692 7.48621 7.87077 7.46146C7.81031 7.45633 7.75464 7.47386 7.73474 7.50176C7.73201 7.50614 7.72963 7.51022 7.72821 7.51472C7.71917 7.55029 7.76731 7.58372 7.83597 7.58963C8.13528 7.61531 8.43405 7.62935 8.72971 7.63083C8.83136 7.63129 8.93278 7.63073 9.03438 7.6282C9.0855 7.62714 9.12716 7.61059 9.14363 7.58732C9.1497 7.57929 9.15256 7.57029 9.15114 7.56088Z" fill="white"/>
<path d="M11.6539 2.20804C11.5948 2.18814 11.5168 2.1969 11.4795 2.22645C11.4749 2.22998 11.4712 2.23427 11.4681 2.23795C11.4483 2.26586 11.4689 2.29931 11.5202 2.31714C11.7699 2.401 12.0051 2.49441 12.2223 2.5957C12.2914 2.6275 12.3585 2.6601 12.4229 2.69342C12.4728 2.7194 12.5536 2.71985 12.6017 2.69464C12.6139 2.68819 12.6232 2.68048 12.629 2.67241C12.6455 2.64915 12.6348 2.62163 12.5976 2.60249C12.5301 2.56721 12.4595 2.53296 12.3881 2.49962C12.1614 2.39411 11.9157 2.29605 11.6539 2.20804Z" fill="white"/>
<path d="M2.89276 4.48284C2.89068 4.51841 2.94497 4.54978 3.01497 4.55218C3.07111 4.55391 3.1198 4.53671 3.13781 4.51127C3.14205 4.50505 3.14497 4.49871 3.14533 4.49145C3.15491 4.34298 3.18766 4.19473 3.24518 4.0472C3.26225 4.00047 3.2822 3.95468 3.30415 3.90875C3.32205 3.87403 3.28043 3.83824 3.21349 3.82819C3.14911 3.81904 3.08514 3.83677 3.06299 3.86744C3.06149 3.86929 3.06064 3.87119 3.05944 3.8734C3.03664 3.92123 3.01607 3.96994 2.99688 4.01812C2.93772 4.17245 2.90326 4.32815 2.89276 4.48284Z" fill="white"/>
<path d="M3.52708 3.38652C3.58939 3.40342 3.66545 3.39083 3.69597 3.3593C3.73719 3.31621 3.78069 3.27367 3.82642 3.232C3.96637 3.1023 4.12515 2.98004 4.30123 2.86738C4.30938 2.86187 4.31558 2.85584 4.32015 2.84965C4.33852 2.82391 4.32353 2.79366 4.27959 2.77521C4.22414 2.75234 4.14459 2.75632 4.10153 2.78399C3.91858 2.90262 3.7523 3.03046 3.60489 3.16541C3.5573 3.20921 3.51165 3.25353 3.46889 3.2988C3.46703 3.30094 3.46518 3.30308 3.46364 3.30525C3.44218 3.33566 3.46858 3.37131 3.52708 3.38652Z" fill="white"/>
<path d="M5.58573 7.13366C5.91844 7.24635 6.27819 7.34307 6.66263 7.42063L6.67498 7.42314C6.73898 7.43622 6.81104 7.4206 6.83508 7.38746C6.85922 7.35333 6.82608 7.31538 6.76011 7.3021L6.74875 7.29969C6.38125 7.22508 6.03727 7.13318 5.71865 7.02549C5.65957 7.00592 5.58198 7.01372 5.5443 7.0439C5.53963 7.04776 5.53594 7.05172 5.5329 7.05573C5.513 7.08364 5.53339 7.1164 5.58573 7.13366Z" fill="white"/>
<path d="M9.27136 1.8083C9.26137 1.84345 9.30952 1.87688 9.37911 1.88354C9.75033 1.91578 10.1219 1.96859 10.4897 2.04323C10.5553 2.0568 10.6279 2.03989 10.6515 2.00704C10.6753 1.97354 10.6408 1.93547 10.5761 1.92265C10.1921 1.84446 9.80253 1.78927 9.4139 1.75537C9.35446 1.75001 9.29781 1.76744 9.27791 1.79535C9.27458 1.799 9.27279 1.8038 9.27136 1.8083Z" fill="white"/>
<path d="M14.1855 5.46782C14.2034 5.4331 14.1614 5.39728 14.0945 5.38723C14.0308 5.37814 13.9672 5.39557 13.9454 5.42562C13.9439 5.42779 13.9423 5.43029 13.9414 5.43253C13.8952 5.52846 13.8377 5.62333 13.7707 5.71761C13.7053 5.80907 13.6323 5.89715 13.5515 5.98283C13.5497 5.98497 13.5478 5.98711 13.5463 5.98928C13.5245 6.01966 13.5512 6.05534 13.61 6.07058C13.672 6.08745 13.7484 6.07489 13.778 6.04294C13.8637 5.95376 13.9398 5.86167 14.0082 5.76587C14.0779 5.66753 14.1372 5.56754 14.1855 5.46782Z" fill="white"/>
<path d="M13.6024 5.68328C13.5067 5.81788 13.3928 5.9451 13.2614 6.06568C12.6135 6.66349 11.5568 7.08866 10.3406 7.28489C9.82334 7.36952 9.27705 7.41162 8.72152 7.40844C8.08813 7.40542 7.4406 7.34242 6.80924 7.21439C6.17726 7.08597 5.61638 6.9034 5.13719 6.68062C4.71922 6.48624 4.36384 6.26074 4.0827 6.0142C3.4193 5.43558 3.15962 4.74358 3.4195 4.06721C3.47201 3.93046 3.54526 3.79504 3.64097 3.66044C3.7366 3.5265 3.85048 3.39927 3.98161 3.27866C4.6301 2.68124 5.6861 2.25601 6.9024 2.05945C7.4196 1.97515 7.96592 1.93272 8.52047 1.93581C9.15619 1.93872 9.80276 2.00129 10.4347 2.12972C11.0661 2.25775 11.628 2.44041 12.1049 2.66297C12.5238 2.8581 12.8788 3.08356 13.1603 3.32948C13.8241 3.90813 14.084 4.60083 13.8232 5.2771C13.7713 5.41391 13.698 5.54934 13.6024 5.68328Z" fill="white"/>
<path d="M0.956068 4.64751C0.956068 4.64751 0.965517 4.71831 0.983236 4.85151C1.00397 4.98434 1.05578 5.17315 1.15138 5.40292C1.25771 5.62775 1.41436 5.88754 1.64215 6.14819C1.86954 6.40946 2.16977 6.66081 2.5185 6.90719C2.86162 7.15338 3.27768 7.36779 3.71958 7.5648C3.94676 7.65876 4.17958 7.75956 4.42277 7.83519C4.54417 7.87497 4.66429 7.92126 4.78998 7.9578C4.91573 7.9937 5.04276 8.03004 5.17078 8.06648C5.23497 8.08455 5.29916 8.10262 5.36397 8.12109C5.42946 8.13597 5.49527 8.15089 5.56109 8.1658C5.69305 8.19566 5.82599 8.22562 5.95988 8.25599C6.22603 8.30632 6.50579 8.3563 6.78177 8.3973C6.92027 8.41421 7.05943 8.43118 7.19891 8.44818L7.40854 8.47289L7.6204 8.48821C7.76153 8.49841 7.90299 8.50865 8.04475 8.51924C8.18652 8.52619 8.32885 8.52723 8.47088 8.53156C8.75472 8.54582 9.03777 8.53715 9.3242 8.53476C9.46602 8.53079 9.60609 8.52101 9.74685 8.51429L9.95695 8.50294L10.1662 8.48322C10.7255 8.44039 11.2666 8.3448 11.7928 8.23982C11.9219 8.2088 12.0498 8.17798 12.1769 8.14775C12.2403 8.13229 12.3034 8.11713 12.3661 8.10194C12.4282 8.0837 12.4899 8.06543 12.5515 8.04748C12.6746 8.01156 12.7962 7.97585 12.9162 7.9403C13.0352 7.90167 13.1505 7.8564 13.2657 7.81576C13.498 7.73896 13.7119 7.63621 13.9224 7.54441C14.0295 7.50134 14.1259 7.44299 14.2242 7.39179C14.3214 7.33881 14.4182 7.28913 14.5107 7.2367C14.8696 7.00972 15.1886 6.78155 15.4342 6.53743C15.6916 6.29906 15.8568 6.0512 15.9918 5.83821C16.0462 5.72682 16.0948 5.62746 16.1372 5.54109C16.1685 5.44935 16.1991 5.37179 16.2175 5.30763C16.2485 5.17744 16.2651 5.10781 16.2651 5.10781C16.2651 5.10781 16.2518 5.17808 16.2268 5.31051C16.2113 5.37594 16.1846 5.45421 16.1574 5.54767C16.1189 5.63839 16.0739 5.74141 16.0215 5.85663C15.8974 6.06999 15.7299 6.33883 15.4821 6.58441C15.3681 6.71593 15.2164 6.83325 15.0686 6.96186C14.9962 7.02979 14.9112 7.08458 14.8257 7.14298C14.7403 7.20171 14.653 7.2616 14.5637 7.32293C14.4709 7.37831 14.3741 7.43099 14.2764 7.48688C14.1778 7.54104 14.0805 7.60261 13.973 7.64863C13.7616 7.74631 13.5461 7.85553 13.3126 7.9385C13.1967 7.9824 13.0808 8.03059 12.9609 8.07244C12.8399 8.11088 12.7173 8.14981 12.5936 8.18898C12.5315 8.20854 12.4693 8.22842 12.4068 8.24827C12.3429 8.26435 12.2788 8.28041 12.2143 8.29643C12.0851 8.32843 11.9548 8.36068 11.8235 8.39315C11.299 8.5016 10.7466 8.6034 10.1827 8.65042L9.97092 8.67189L9.75702 8.68486C9.61449 8.69274 9.47069 8.70348 9.32775 8.70868C9.04412 8.71299 8.75521 8.72408 8.46727 8.71108C8.32337 8.70558 8.17949 8.7034 8.03617 8.6953C7.89284 8.6839 7.7495 8.67249 7.60683 8.66115L7.39283 8.64397L7.17941 8.61724C7.03739 8.599 6.89606 8.5805 6.75503 8.56236C6.47471 8.51829 6.20391 8.46818 5.9282 8.41395C5.79308 8.38246 5.65863 8.35103 5.52515 8.3197C5.45841 8.30404 5.392 8.2884 5.32556 8.2731C5.26012 8.25424 5.19501 8.23542 5.13023 8.21663C5.0007 8.17872 4.87212 8.14123 4.74486 8.10387C4.61759 8.06651 4.49489 8.016 4.37184 7.97275C4.1235 7.88868 3.8944 7.7836 3.66932 7.68487C3.21899 7.47214 2.80837 7.24931 2.45879 6.9876C2.1114 6.73405 1.81351 6.46537 1.59233 6.19112C1.36974 5.91772 1.21968 5.64796 1.11994 5.41647C1.0302 5.18097 0.989308 4.98526 0.974183 4.85263C0.962169 4.71865 0.956068 4.64751 0.956068 4.64751Z" fill="white"/>
</svg>
