<svg width="16" height="11" viewBox="0 0 16 11" fill="none" xmlns="http://www.w3.org/2000/svg">
<path d="M0.898677 6.57002C0.884242 6.55472 0.869804 6.53943 0.855697 6.52417C0.825374 6.49145 0.795771 6.45814 0.766823 6.42489C0.753404 6.40936 0.739952 6.39416 0.726861 6.37867C0.694181 6.33943 0.662514 6.29996 0.632226 6.25996C0.626353 6.25211 0.619798 6.24453 0.613924 6.23668C0.577169 6.18811 0.542448 6.13907 0.509726 6.08989C0.503353 6.08034 0.49767 6.07052 0.491297 6.06096C0.465901 6.02176 0.441191 5.9823 0.418155 5.94266C0.409003 5.92754 0.400864 5.91218 0.392071 5.89677C0.373128 5.86282 0.354542 5.82858 0.337303 5.79414C0.328402 5.77639 0.319832 5.75868 0.311259 5.74096C0.293881 5.70452 0.27752 5.66784 0.262174 5.63092C0.256538 5.61713 0.250216 5.60361 0.244877 5.59018C0.224052 5.53783 0.204565 5.48529 0.187773 5.43234C0.170716 5.3787 0.155988 5.32495 0.143229 5.27139C0.139891 5.25782 0.137211 5.24431 0.13453 5.23081C0.125095 5.1875 0.116976 5.14432 0.110199 5.10094C0.107971 5.08616 0.105409 5.07134 0.103541 5.05625C0.0959118 4.99755 0.0899297 4.93901 0.0869589 4.88009C0.0849342 4.83551 0.0842517 4.79073 0.0852441 4.74577C0.0710887 5.42977 0.0565701 6.11407 0.0424147 6.79807C0.0414538 6.8427 0.0421676 6.88716 0.0441923 6.93174C0.0468349 6.99062 0.0527933 7.04949 0.0604223 7.10819C0.0611695 7.11423 0.0612948 7.11987 0.062042 7.1259C0.0634596 7.13532 0.0658576 7.14482 0.0672752 7.15423C0.0736473 7.19492 0.0810056 7.23571 0.0900351 7.27632C0.0923117 7.28714 0.0935771 7.29819 0.0961819 7.30904C0.0975856 7.31514 0.0996445 7.3213 0.101376 7.32743C0.112965 7.37591 0.126254 7.42388 0.141189 7.47202C0.142453 7.47612 0.143391 7.48018 0.144655 7.48428C0.145451 7.48634 0.145949 7.48805 0.146745 7.49011C0.162867 7.53968 0.181016 7.58879 0.200483 7.63802C0.202637 7.6432 0.204136 7.64831 0.206291 7.65349C0.211396 7.6659 0.217817 7.67844 0.223219 7.69122C0.237567 7.72472 0.252246 7.75826 0.268267 7.79159C0.272404 7.80027 0.275846 7.80921 0.280281 7.81825C0.285309 7.828 0.290994 7.83782 0.296022 7.84758C0.3122 7.87927 0.328742 7.91067 0.346296 7.94183C0.353074 7.95407 0.359166 7.96658 0.365943 7.97883C0.369613 7.98547 0.374299 7.99188 0.378297 7.99856C0.399943 8.03541 0.423225 8.07242 0.446872 8.10914C0.452947 8.11833 0.458006 8.12776 0.464082 8.13695C0.465238 8.13872 0.466722 8.14052 0.467878 8.14229C0.500038 8.19042 0.533878 8.23838 0.569414 8.28584C0.571164 8.28832 0.572616 8.29045 0.574365 8.29293C0.582285 8.30363 0.591548 8.31412 0.599828 8.32452C0.627242 8.35994 0.655307 8.39542 0.684425 8.43034C0.689174 8.4361 0.693266 8.44179 0.698343 8.44758C0.706982 8.45768 0.716607 8.46787 0.725574 8.47801C0.753303 8.51014 0.782022 8.54238 0.811455 8.57401C0.81986 8.5831 0.827538 8.59278 0.836271 8.6019C0.843161 8.60951 0.851396 8.61693 0.858646 8.62424C0.891766 8.65889 0.926237 8.69332 0.961093 8.72714C0.971108 8.73671 0.979779 8.74648 0.989793 8.75605C0.993121 8.75935 0.99681 8.76236 1.00047 8.76569C1.04721 8.81024 1.09533 8.85427 1.14548 8.89783C1.15279 8.90449 1.16047 8.91086 1.16811 8.91755C1.1825 8.92986 1.19823 8.94197 1.21295 8.95431C1.25249 8.98758 1.29269 9.02091 1.33427 9.05371C1.3429 9.0605 1.35083 9.06755 1.35943 9.07467C1.37361 9.08563 1.38915 9.09639 1.40333 9.10736C1.4456 9.13989 1.48891 9.17187 1.53292 9.20357C1.54749 9.21391 1.5607 9.22478 1.5756 9.23516C1.58584 9.24243 1.59679 9.24911 1.60673 9.25602C1.6682 9.29901 1.73141 9.34117 1.79632 9.38283C1.80507 9.3883 1.81311 9.39437 1.82186 9.39985C1.8234 9.40099 1.82531 9.40184 1.82719 9.40301C1.90775 9.45412 1.99173 9.50423 2.07712 9.55348C2.08748 9.55944 2.09681 9.56564 2.10717 9.5716C2.12039 9.57883 2.13463 9.58582 2.14782 9.59338C2.23806 9.64376 2.33002 9.69364 2.42544 9.74186C2.43145 9.74476 2.43708 9.74828 2.44309 9.75117C2.445 9.75202 2.44721 9.75322 2.44911 9.75407C2.52211 9.79087 2.59651 9.82681 2.67232 9.8619C2.72686 9.88732 2.78242 9.91252 2.83869 9.93712C2.85809 9.9456 2.87817 9.95382 2.89759 9.96197C2.92655 9.97435 2.95551 9.98673 2.98482 9.99882C3.04182 10.0228 3.09954 10.0462 3.15827 10.0694C3.18699 10.0808 3.21571 10.0921 3.24447 10.1032C3.2582 10.1085 3.27126 10.114 3.285 10.1193C3.30067 10.1251 3.31771 10.1304 3.33369 10.1366C3.45906 10.1834 3.58725 10.2284 3.71857 10.2718C3.73237 10.2764 3.74516 10.2813 3.75896 10.2859C3.76668 10.2883 3.77472 10.2908 3.78277 10.2932C3.80623 10.3007 3.83005 10.308 3.85387 10.3152C3.9246 10.3376 3.99606 10.3593 4.06853 10.3808C4.10108 10.3903 4.13397 10.3997 4.16689 10.4088C4.20043 10.4183 4.23295 10.4281 4.26685 10.4373C4.29139 10.4439 4.31697 10.45 4.34154 10.4563C4.40162 10.4724 4.46206 10.4881 4.52322 10.5032C4.57531 10.5162 4.62773 10.5291 4.68051 10.5418C4.74074 10.5562 4.80169 10.57 4.86301 10.5835C4.89739 10.5911 4.93103 10.5996 4.96578 10.6069C5.00735 10.6155 5.0489 10.6244 5.09083 10.6328C5.20294 10.6554 5.31484 10.6767 5.42757 10.6965C5.45364 10.701 5.47978 10.7048 5.50585 10.7093C5.5834 10.7227 5.66129 10.7361 5.73933 10.7479C5.74488 10.7487 5.75046 10.7493 5.75601 10.7501C5.92545 10.776 6.09528 10.7978 6.26532 10.8174C6.28432 10.8196 6.30323 10.8227 6.32224 10.8249C6.34781 10.8277 6.37311 10.8298 6.39869 10.8325C6.45803 10.8389 6.51778 10.8446 6.57722 10.85C6.61004 10.8531 6.6428 10.8569 6.67566 10.8597C6.70227 10.8619 6.72863 10.8635 6.75525 10.8657C6.79962 10.8693 6.8437 10.8725 6.88811 10.8758C6.91607 10.8778 6.9443 10.8805 6.9723 10.8822C7.01411 10.8848 7.05566 10.8868 7.09717 10.8892C7.13143 10.8911 7.16567 10.8934 7.19996 10.895C7.21414 10.8957 7.22828 10.8967 7.24213 10.8974C7.32821 10.9013 7.41436 10.9046 7.50023 10.9072C7.50122 10.9073 7.5022 10.9074 7.50354 10.9072C7.52139 10.9076 7.53892 10.9079 7.55677 10.9083C7.62319 10.91 7.68928 10.9117 7.75513 10.9124C7.78886 10.913 7.82263 10.9132 7.85672 10.9135C7.90705 10.9137 7.95705 10.9139 8.00712 10.9134C8.0936 10.913 8.18019 10.9117 8.26615 10.91C8.31861 10.9087 8.37047 10.9067 8.42264 10.9051C8.44091 10.9045 8.45951 10.904 8.47778 10.9034C8.49572 10.9028 8.51364 10.9026 8.53162 10.9016C8.62308 10.8978 8.7146 10.8933 8.80589 10.8878C8.87851 10.8835 8.95091 10.8782 9.02333 10.8725C9.035 10.8717 9.04702 10.8708 9.05869 10.87C9.06837 10.8692 9.07834 10.8689 9.08801 10.8681C9.1848 10.8605 9.28071 10.8518 9.37671 10.8421C9.45165 10.8344 9.52633 10.826 9.6007 10.8172C9.61412 10.8155 9.62782 10.8141 9.6412 10.8128C9.65058 10.8117 9.65993 10.8109 9.66934 10.8095C9.76789 10.7974 9.86652 10.7843 9.96394 10.7701C10.0419 10.7587 10.1195 10.747 10.1966 10.7345C10.2238 10.7301 10.2508 10.7257 10.2777 10.721C10.3306 10.7122 10.3825 10.7022 10.4348 10.6927C10.4722 10.686 10.5099 10.6793 10.547 10.6723C10.5555 10.6708 10.5639 10.6693 10.5723 10.6677C10.6381 10.6552 10.703 10.6415 10.7679 10.6278C10.796 10.6219 10.8246 10.6167 10.8527 10.6105C10.8571 10.6096 10.8615 10.6087 10.8659 10.6077C10.961 10.587 11.0558 10.5653 11.1491 10.5424C11.1525 10.5414 11.1562 10.5408 11.1596 10.5401C11.2586 10.5158 11.3568 10.4908 11.4537 10.4643C11.4557 10.4638 11.4578 10.463 11.4598 10.4626C11.5051 10.4503 11.5494 10.4367 11.594 10.4241C11.6462 10.4092 11.6989 10.3947 11.7504 10.3791C11.7531 10.3783 11.7555 10.3773 11.7579 10.3765C11.8422 10.3508 11.9249 10.3239 12.0067 10.2966C12.0214 10.2918 12.0364 10.2876 12.0508 10.2823L12.0522 10.2818C12.1529 10.2477 12.2523 10.2122 12.3499 10.1755C12.3523 10.1747 12.3551 10.1736 12.3571 10.1728C12.375 10.1663 12.3916 10.1589 12.4091 10.152C12.4896 10.1213 12.5688 10.0898 12.6468 10.0572C12.6561 10.0534 12.6657 10.0497 12.675 10.0459C12.6971 10.0365 12.718 10.0262 12.7401 10.0167C12.8134 9.98499 12.886 9.95253 12.9571 9.91926C12.9741 9.91128 12.992 9.90405 13.0087 9.89604C13.0233 9.88915 13.0363 9.88145 13.0508 9.87457C13.1589 9.8223 13.2647 9.76851 13.3665 9.71266C13.3685 9.71154 13.3706 9.71042 13.3727 9.70929C13.3727 9.70929 13.3738 9.70873 13.3745 9.70846C13.4 9.69467 13.4239 9.67974 13.4491 9.66559C13.4999 9.63667 13.5507 9.60808 13.5999 9.57834C13.6288 9.5609 13.656 9.54296 13.6842 9.52546C13.7212 9.50217 13.7588 9.4796 13.7948 9.45589C13.8019 9.45094 13.809 9.44599 13.8161 9.44137C13.8366 9.42776 13.8565 9.41377 13.8767 9.3998C13.9214 9.3693 13.9651 9.33837 14.0082 9.30705C14.031 9.29035 14.0538 9.27333 14.0763 9.25627C14.1173 9.22542 14.1571 9.19411 14.1963 9.16242C14.216 9.14642 14.2361 9.13079 14.2552 9.11473C14.312 9.0675 14.3676 9.0195 14.4207 8.97025C14.611 8.79569 14.776 8.61208 14.9145 8.41765C15.0526 8.22417 15.1585 8.02794 15.2335 7.83008C15.3255 7.59178 15.3726 7.35216 15.3776 7.1138C15.3918 6.42947 15.4062 5.74583 15.4204 5.0615C15.4155 5.29986 15.3683 5.53948 15.2763 5.77777C15.201 5.97561 15.0948 6.17181 14.957 6.36531C14.8185 6.55974 14.6538 6.74339 14.4632 6.91792C14.4101 6.96716 14.3542 7.01514 14.2973 7.06269C14.2789 7.07816 14.2596 7.0932 14.2409 7.10831C14.2003 7.14119 14.1592 7.17335 14.117 7.20542C14.0956 7.22159 14.0742 7.23743 14.0528 7.25327C14.0086 7.28547 13.9635 7.31726 13.9178 7.34866C13.8983 7.36203 13.8791 7.37576 13.859 7.38874C13.814 7.41855 13.7675 7.44756 13.721 7.47689C13.6953 7.49298 13.6705 7.50916 13.6445 7.52488C13.5858 7.56034 13.5255 7.59465 13.4646 7.62889C13.4496 7.63739 13.4348 7.64624 13.4194 7.65471C13.4135 7.65811 13.4072 7.66116 13.4013 7.66423C13.302 7.71833 13.199 7.77074 13.0941 7.82164C13.0628 7.83686 13.0315 7.85176 13 7.86663C12.9289 7.8999 12.8566 7.93206 12.7829 7.9641C12.7518 7.97768 12.7214 7.99133 12.6896 8.00452C12.612 8.03684 12.5325 8.06831 12.4527 8.09909C12.4317 8.10735 12.411 8.11597 12.3897 8.12387C12.2949 8.15918 12.1988 8.1937 12.1012 8.22709C12.0523 8.2436 12.0018 8.25897 11.9522 8.27509C11.9016 8.29145 11.852 8.30823 11.8008 8.32353C11.7466 8.3402 11.6914 8.35546 11.6366 8.37108C11.5916 8.384 11.5476 8.39734 11.5024 8.40957C11.3044 8.46382 11.1016 8.51297 10.895 8.55777C10.871 8.56276 10.8466 8.56772 10.8223 8.57268C10.7436 8.58899 10.6645 8.60526 10.5849 8.62049C10.5498 8.62707 10.5137 8.63323 10.4783 8.63978C10.3988 8.65402 10.3192 8.6686 10.2385 8.68173C10.0558 8.71127 9.87076 8.73728 9.68344 8.75976C9.6697 8.76142 9.65598 8.76276 9.64224 8.76443C9.46368 8.78542 9.28309 8.80324 9.10121 8.81729C9.08852 8.8184 9.0759 8.81884 9.06353 8.81998C8.88303 8.8335 8.70119 8.84358 8.51834 8.85058C8.50105 8.85125 8.48412 8.85161 8.46716 8.85231C8.27839 8.85874 8.08863 8.86177 7.89826 8.86077C7.789 8.86024 7.67989 8.85808 7.57019 8.85519C7.56327 8.85486 7.55664 8.85489 7.54969 8.85488C7.44596 8.85191 7.34203 8.84759 7.23819 8.84228C7.20689 8.84061 7.17561 8.83861 7.1443 8.83693C7.07184 8.83264 6.9994 8.82803 6.927 8.82308C6.88423 8.81998 6.84114 8.81685 6.79808 8.81339C6.73792 8.80862 6.67781 8.80319 6.61774 8.79744C6.55833 8.79175 6.49892 8.78606 6.43954 8.78004C6.39526 8.77547 6.35105 8.77025 6.30716 8.76505C6.13646 8.74539 5.96565 8.7234 5.79555 8.69751C5.72437 8.68672 5.65364 8.67464 5.58255 8.66287C5.54345 8.65614 5.50392 8.65037 5.46452 8.64328C5.35344 8.6237 5.24248 8.60281 5.13201 8.58031C5.05727 8.5652 4.98433 8.54861 4.91102 8.53231C4.84646 8.51818 4.78195 8.50339 4.71814 8.48834C4.66697 8.47615 4.61649 8.4637 4.56603 8.45092C4.50425 8.43539 4.44316 8.41961 4.38276 8.40355C4.3414 8.39264 4.30043 8.38109 4.25977 8.36991C4.10748 8.3275 3.95833 8.28341 3.81311 8.23638C3.79737 8.23123 3.78233 8.22581 3.76659 8.22066C3.633 8.17673 3.50324 8.13085 3.37596 8.08322C3.34589 8.07206 3.31546 8.06119 3.28575 8.04973C3.25604 8.03828 3.22702 8.02656 3.19797 8.01516C3.14147 7.99286 3.08537 7.96993 3.03025 7.94709C2.99873 7.93381 2.96753 7.92055 2.93667 7.90733C2.86159 7.87496 2.7872 7.84233 2.71458 7.80855C2.63752 7.77268 2.56183 7.73628 2.48789 7.69906C2.4841 7.69704 2.48065 7.69505 2.47684 7.69336C2.37698 7.64306 2.28062 7.59077 2.1863 7.53801C2.1646 7.52599 2.14323 7.51401 2.12221 7.50173C2.03554 7.45202 1.95061 7.40149 1.86945 7.34966C1.85945 7.3434 1.84984 7.33652 1.83984 7.33026C1.77368 7.28782 1.70958 7.24458 1.64686 7.20081C1.62389 7.1847 1.60125 7.16862 1.57894 7.15257C1.53339 7.11972 1.48885 7.08664 1.44501 7.05329C1.42219 7.03554 1.39902 7.01808 1.37686 7.00039C1.33529 6.96759 1.29542 6.93429 1.25554 6.90099C1.23315 6.88229 1.21011 6.86352 1.18841 6.84454C1.13825 6.80098 1.09016 6.75663 1.04338 6.7124C1.03033 6.69989 1.01794 6.68744 1.00522 6.67496C0.9684 6.64096 0.933016 6.60577 0.898677 6.57002Z" fill="#CB1625"/>
<path d="M2.47671 7.69467C2.37685 7.64437 2.2805 7.59208 2.18618 7.53932C2.16447 7.52731 2.1431 7.51532 2.12208 7.50304C2.03542 7.45334 1.95048 7.4028 1.86932 7.35097C1.85932 7.34472 1.84971 7.33783 1.83971 7.33158C1.77355 7.28913 1.70945 7.2459 1.64673 7.20213C1.62376 7.18602 1.60112 7.16994 1.57881 7.15389C1.53326 7.12104 1.48873 7.08795 1.44488 7.0546C1.42207 7.03685 1.39889 7.0194 1.37674 7.00171C1.33516 6.9689 1.29529 6.93561 1.25542 6.90231C1.23303 6.8836 1.20998 6.86483 1.18828 6.84586L1.14548 8.89783C1.15279 8.90449 1.16044 8.91119 1.16808 8.91788C1.18247 8.93019 1.1982 8.9423 1.21292 8.95464C1.25246 8.98791 1.29266 9.02124 1.33424 9.05404C1.34286 9.06083 1.3508 9.06788 1.35939 9.075C1.37358 9.08596 1.38911 9.09672 1.4033 9.10769C1.44557 9.14022 1.48888 9.1722 1.53288 9.2039C1.54746 9.21424 1.56067 9.22511 1.57557 9.23549C1.58581 9.24276 1.59676 9.24944 1.6067 9.25635C1.66817 9.29934 1.73138 9.3415 1.79629 9.38316C1.80504 9.38863 1.81307 9.3947 1.82183 9.40018C1.82337 9.40132 1.82528 9.40217 1.82715 9.40334C1.90772 9.45445 1.9917 9.50456 2.07708 9.55381C2.08744 9.55977 2.09678 9.56597 2.10714 9.57193C2.12036 9.57915 2.1346 9.58615 2.14779 9.5937C2.23803 9.64408 2.32998 9.69396 2.4254 9.74219C2.43142 9.74508 2.43705 9.7486 2.44306 9.7515C2.44497 9.75234 2.44718 9.75355 2.44908 9.75439C2.52208 9.7912 2.59648 9.82714 2.67262 9.86226L2.71543 7.80995C2.63838 7.77409 2.5627 7.73769 2.48875 7.70046C2.48395 7.69868 2.48049 7.69669 2.47671 7.69467Z" fill="white"/>
<path d="M14.9143 8.42027C15.0524 8.2268 15.1583 8.03057 15.2332 7.8327L15.2764 5.78043C15.2011 5.97827 15.0949 6.17446 14.9571 6.36797C14.8186 6.5624 14.6539 6.74604 14.4633 6.92058L14.4204 8.97288C14.6111 8.79835 14.7758 8.61437 14.9143 8.42027Z" fill="white"/>
<path d="M9.10102 8.81926C9.08833 8.82036 9.07571 8.82081 9.06334 8.82195C8.88284 8.83547 8.70101 8.84555 8.51815 8.85255C8.50086 8.85322 8.48393 8.85358 8.46697 8.85428C8.27821 8.86071 8.08844 8.86374 7.89807 8.86274L7.85524 10.915C7.90557 10.9152 7.95558 10.9154 8.00565 10.9149C8.09214 10.9145 8.17872 10.9132 8.26468 10.9115C8.31714 10.9102 8.369 10.9083 8.42117 10.9066C8.43944 10.9061 8.45804 10.9055 8.47631 10.9049C8.49426 10.9043 8.51217 10.9041 8.53015 10.9031C8.62161 10.8993 8.71313 10.8948 8.80442 10.8893C8.87704 10.885 8.94943 10.8797 9.02186 10.874C9.03353 10.8732 9.04555 10.8723 9.05722 10.8715C9.0669 10.8707 9.07687 10.8704 9.08654 10.8696C9.18334 10.862 9.27924 10.8533 9.37524 10.8436C9.45018 10.8359 9.52485 10.8275 9.59922 10.8187C9.61264 10.817 9.62635 10.8157 9.63973 10.8143C9.64911 10.8132 9.65846 10.8124 9.66787 10.811C9.76642 10.7989 9.86505 10.7859 9.96247 10.7717C10.0404 10.7602 10.1181 10.7485 10.1951 10.736L10.2379 8.68367C10.0552 8.71321 9.87024 8.73922 9.68292 8.7617C9.66918 8.76336 9.65546 8.7647 9.64172 8.76636C9.46316 8.78736 9.2829 8.80521 9.10102 8.81926Z" fill="white"/>
<path d="M1.18795 6.84583C1.59535 7.20251 2.10804 7.52853 2.71406 7.81048C3.40542 8.13175 4.21785 8.39604 5.13159 8.58126C6.04425 8.76737 6.98125 8.85842 7.89771 8.86303C8.7012 8.86776 9.49051 8.80621 10.2376 8.68397C11.9978 8.40135 13.5261 7.78583 14.4632 6.92124C14.6531 6.74697 14.8178 6.56299 14.9567 6.36794C15.0944 6.17542 15.2011 5.9786 15.2766 5.78112C15.6532 4.80256 15.2772 3.80029 14.3165 2.96332C13.91 2.60805 13.396 2.2819 12.7913 2.00007C12.0999 1.6788 11.2878 1.41454 10.3751 1.22843C9.46137 1.04354 8.52404 0.952463 7.60758 0.947848C6.8031 0.943025 6.01347 1.00455 5.26639 1.12679C3.50742 1.41084 1.97905 2.02636 1.04163 2.89093C0.851702 3.0652 0.6873 3.24953 0.54952 3.44304C0.410724 3.63678 0.305212 3.83238 0.228547 4.03108C-0.147983 5.00898 0.227835 6.01023 1.18795 6.84583Z" fill="#CB1625"/>
<path d="M5.83866 1.99647C6.41436 1.9032 7.02206 1.85638 7.64121 1.85936C7.73393 1.85962 7.82617 1.8615 7.919 1.8641L7.60729 0.947489C6.80344 0.943057 6.01381 1.00458 5.26581 1.12607L5.57755 2.04235C5.66391 2.02611 5.75115 2.01094 5.83866 1.99647Z" fill="white"/>
<path d="M12.8045 3.41114C12.8525 3.45284 12.8982 3.49497 12.9425 3.53764L14.3172 2.96338C13.9097 2.60769 13.397 2.28101 12.7917 1.99945L11.4159 2.57393C11.4888 2.60477 11.5603 2.63646 11.6301 2.66897C12.0956 2.8858 12.4916 3.13737 12.8045 3.41114Z" fill="white"/>
<path d="M1.91537 4.37247C1.92915 4.32543 1.94491 4.27858 1.96263 4.23191C2.02026 4.07975 2.10231 3.92861 2.20868 3.77946C2.31469 3.63062 2.44155 3.48873 2.58821 3.35471C2.63325 3.31331 2.67988 3.27272 2.72811 3.23262L1.0417 2.89027C0.852392 3.06493 0.687342 3.2492 0.549265 3.44235C0.410734 3.63678 0.304878 3.83235 0.228964 4.03012L1.91537 4.37247Z" fill="white"/>
<path d="M13.5427 5.57864C13.4851 5.7308 13.4031 5.88161 13.2967 6.03043C13.1903 6.17991 13.0638 6.32182 12.9171 6.45584C12.8721 6.49724 12.8255 6.53783 12.7773 6.5776L14.4633 6.91992C14.6536 6.74536 14.8186 6.56174 14.9571 6.36732C15.0949 6.17381 15.2012 5.97761 15.2764 5.77977L13.5903 5.43745C13.5765 5.48483 13.5607 5.53201 13.5427 5.57864Z" fill="white"/>
<path d="M10.2382 8.68403L9.92715 7.76781C9.84079 7.78406 9.75352 7.79955 9.66571 7.81367C9.09132 7.90706 8.48229 7.95408 7.86455 7.95025C7.77182 7.94998 7.67889 7.94837 7.58606 7.94577L7.89807 8.86274C8.70094 8.86707 9.49057 8.80555 10.2382 8.68403Z" fill="white"/>
<path d="M2.71406 7.81048L4.08948 7.23564C4.0169 7.20484 3.94544 7.17282 3.87597 7.14066C3.40879 6.924 3.01344 6.67315 2.69947 6.39929C2.65179 6.35762 2.60583 6.31512 2.56156 6.27246L1.18756 6.84645C1.59472 7.20212 2.10804 7.52853 2.71406 7.81048Z" fill="white"/>
<path d="M2.56192 6.27216C2.6062 6.31483 2.65215 6.35732 2.69984 6.39899C3.01381 6.67286 3.40914 6.92371 3.87633 7.14036C3.94576 7.17285 4.01726 7.20454 4.08983 7.23534C4.57269 7.44058 5.1242 7.61032 5.73605 7.7345C6.34594 7.85849 6.97003 7.92752 7.58609 7.94544C7.67893 7.94804 7.77186 7.94965 7.86458 7.94992C8.48236 7.95342 9.09132 7.90706 9.66571 7.81367C9.75352 7.79955 9.84083 7.78373 9.92718 7.76749C11.088 7.54806 12.0996 7.13745 12.7773 6.5776C12.8255 6.53783 12.8721 6.49692 12.9171 6.45584C13.0638 6.32182 13.1903 6.18024 13.2967 6.03076C13.403 5.88194 13.4851 5.7308 13.5427 5.57864C13.5608 5.53168 13.5765 5.48516 13.5903 5.43811C13.7816 4.77935 13.5363 4.11357 12.9425 3.53797C12.8982 3.4953 12.8525 3.45284 12.8045 3.41114C12.4916 3.13737 12.0959 2.88616 11.6297 2.6696C11.56 2.63708 11.4885 2.60539 11.4156 2.57456C10.9327 2.36965 10.3802 2.19981 9.7706 2.07618C9.15874 1.952 8.53531 1.88303 7.91928 1.86478C7.82644 1.86219 7.73387 1.86028 7.64147 1.86004C7.02235 1.85674 6.41463 1.90388 5.83893 1.99716C5.75145 2.0113 5.66417 2.02679 5.57814 2.04307C4.41828 2.26259 3.40675 2.6732 2.72873 3.23301C2.68054 3.27279 2.63356 3.31367 2.58885 3.3551C2.44219 3.48913 2.31564 3.63104 2.2093 3.77986C2.1029 3.92933 2.02056 4.08011 1.96325 4.2323C1.94553 4.27897 1.92975 4.32615 1.91601 4.37287C1.72476 5.0313 1.96917 5.696 2.56192 6.27216Z" fill="#CB1625"/>
<path d="M10.5062 7.46684C10.4725 7.43446 10.3959 7.42149 10.3347 7.4375C10.0769 7.50489 9.80682 7.56118 9.52923 7.60615C9.4451 7.61996 9.35941 7.63262 9.27349 7.64427C9.23388 7.64975 9.20399 7.66445 9.19095 7.68307C9.18214 7.69548 9.18079 7.70959 9.18843 7.72324C9.20724 7.7585 9.27748 7.77914 9.34392 7.77026C9.4339 7.75768 9.52328 7.74438 9.61109 7.73026C9.90176 7.68356 10.183 7.62437 10.4531 7.5545C10.4823 7.54703 10.5027 7.53473 10.5133 7.52019C10.5252 7.50344 10.5237 7.48441 10.5062 7.46684Z" fill="white"/>
<path d="M12.5001 3.32104C12.4613 3.2905 12.382 3.28158 12.3245 3.30091C12.3016 3.30833 12.2856 3.31939 12.2769 3.33146C12.2635 3.35039 12.2673 3.37229 12.2908 3.39043C12.344 3.43263 12.3957 3.47468 12.4449 3.51781C12.5928 3.64725 12.7217 3.78183 12.8303 3.92042C12.8562 3.95404 12.9298 3.97135 12.9942 3.95898C13.0287 3.95201 13.0538 3.93851 13.0657 3.92176C13.076 3.90718 13.0763 3.89065 13.0636 3.87485C12.9509 3.73024 12.816 3.58913 12.6606 3.45401C12.609 3.40865 12.556 3.36415 12.5001 3.32104Z" fill="white"/>
<path d="M2.43975 5.93253C2.46535 5.96612 2.53889 5.98343 2.60407 5.97046C2.63849 5.96381 2.66367 5.94999 2.67518 5.93354C2.68552 5.91896 2.68575 5.90275 2.67367 5.88702C2.53069 5.7024 2.42387 5.51032 2.35621 5.31403C2.34438 5.27845 2.2785 5.25392 2.20971 5.25959C2.16402 5.26284 2.12835 5.27896 2.11345 5.29973C2.10617 5.30996 2.10373 5.32166 2.10821 5.33368C2.17804 5.53845 2.28998 5.73931 2.43975 5.93253Z" fill="white"/>
<path d="M4.04942 2.67611C4.09443 2.70427 4.17348 2.70886 4.22628 2.68675C4.52123 2.56428 4.83945 2.45828 5.17641 2.37096C5.20492 2.36376 5.22502 2.3511 5.23532 2.33685C5.2472 2.3201 5.2457 2.30108 5.22814 2.28383C5.19581 2.25125 5.11924 2.23796 5.05809 2.25396C4.70552 2.34508 4.37264 2.45564 4.06515 2.58454C4.04723 2.59177 4.03473 2.60117 4.02746 2.6114C4.01219 2.63247 4.01942 2.65734 4.04942 2.67611Z" fill="white"/>
<path d="M6.08102 2.11872C6.10154 2.15348 6.17142 2.17441 6.23822 2.16524C6.60363 2.11643 6.98174 2.08705 7.3654 2.0794C7.41687 2.07803 7.45824 2.06113 7.47501 2.03822C7.48111 2.02986 7.48364 2.02083 7.48222 2.01142C7.47803 1.97557 7.41682 1.94718 7.34707 1.94912C6.94547 1.95737 6.55068 1.9878 6.16813 2.03928C6.12786 2.0447 6.09757 2.06001 6.08416 2.07894C6.07506 2.09098 6.07342 2.10474 6.08102 2.11872Z" fill="white"/>
<path d="M3.77221 6.97205C3.82206 6.99803 3.90185 6.99838 3.94965 6.97315C3.96219 6.96673 3.97154 6.95901 3.97731 6.95062C3.99378 6.92735 3.98379 6.90023 3.94723 6.88083C3.66994 6.73933 3.42416 6.58362 3.21091 6.41679C3.17239 6.3866 3.09446 6.37715 3.03627 6.39676C3.01337 6.40417 2.99707 6.4152 2.98826 6.4276C2.97489 6.4462 2.97875 6.4681 3.00252 6.48627C3.224 6.66052 3.48134 6.82363 3.77221 6.97205Z" fill="white"/>
<path d="M13.3958 4.47344C13.3843 4.43788 13.3181 4.41333 13.2497 4.41837C13.2043 4.4223 13.1689 4.43813 13.154 4.45923C13.1467 4.46946 13.1443 4.48082 13.1481 4.49278C13.215 4.68701 13.2435 4.88451 13.2304 5.083C13.228 5.1192 13.2823 5.15024 13.353 5.15237C13.4085 5.15404 13.4575 5.13687 13.4755 5.11144C13.4797 5.10522 13.4826 5.09887 13.483 5.09162C13.4957 4.88315 13.4658 4.67591 13.3958 4.47344Z" fill="white"/>
<path d="M12.2552 6.6992C12.1994 6.67597 12.1202 6.67998 12.0775 6.70769C11.8414 6.86164 11.5748 6.99975 11.2839 7.12129C11.2667 7.12858 11.2538 7.13795 11.2466 7.14818C11.2316 7.16928 11.2385 7.19412 11.2685 7.21289C11.3132 7.24102 11.3923 7.24561 11.4464 7.2233C11.7504 7.09606 12.0289 6.95148 12.2765 6.79068C12.285 6.7852 12.2912 6.7795 12.2954 6.77328C12.3141 6.7479 12.2991 6.71798 12.2552 6.6992Z" fill="white"/>
<path d="M8.282 7.79379C8.2765 7.75782 8.2166 7.72956 8.14652 7.73146C8.0503 7.73318 7.95344 7.7345 7.85615 7.73347C7.57306 7.73219 7.28778 7.71912 7.00163 7.69437C6.94117 7.68924 6.8855 7.70677 6.8656 7.73468C6.86287 7.73905 6.86049 7.74313 6.85907 7.74763C6.85003 7.7832 6.89817 7.81663 6.96683 7.82254C7.26614 7.84822 7.56491 7.86226 7.86057 7.86374C7.96222 7.8642 8.06364 7.86364 8.16524 7.86111C8.21636 7.86005 8.25802 7.8435 8.27449 7.82023C8.28056 7.8122 8.28342 7.8032 8.282 7.79379Z" fill="white"/>
<path d="M10.7847 2.44095C10.7257 2.42105 10.6477 2.42981 10.6104 2.45936C10.6057 2.46289 10.602 2.46718 10.599 2.47086C10.5791 2.49877 10.5998 2.53222 10.651 2.55005C10.9007 2.63391 11.1359 2.72732 11.3531 2.82861C11.4223 2.86041 11.4894 2.89301 11.5538 2.92634C11.6036 2.95231 11.6844 2.95276 11.7325 2.92755C11.7448 2.9211 11.7541 2.91339 11.7598 2.90532C11.7763 2.88206 11.7657 2.85454 11.7285 2.8354C11.6609 2.80012 11.5903 2.76587 11.519 2.73253C11.2923 2.62702 11.0466 2.52896 10.7847 2.44095Z" fill="white"/>
<path d="M2.02362 4.71575C2.02154 4.75132 2.07583 4.78269 2.14583 4.78509C2.20197 4.78682 2.25066 4.76962 2.26867 4.74418C2.2729 4.73796 2.27583 4.73162 2.27619 4.72436C2.28577 4.57589 2.31852 4.42764 2.37604 4.28011C2.3931 4.23338 2.41306 4.18759 2.43501 4.14166C2.45291 4.10694 2.41129 4.07115 2.34435 4.0611C2.27997 4.05195 2.216 4.06968 2.19385 4.10035C2.19235 4.1022 2.1915 4.1041 2.19029 4.10631C2.1675 4.15414 2.14693 4.20285 2.12774 4.25103C2.06857 4.40536 2.03412 4.56106 2.02362 4.71575Z" fill="white"/>
<path d="M2.65794 3.61943C2.72025 3.63633 2.79631 3.62374 2.82683 3.59221C2.86805 3.54912 2.91155 3.50658 2.95728 3.46491C3.09723 3.33521 3.25601 3.21295 3.43209 3.10029C3.44023 3.09478 3.44644 3.08875 3.45101 3.08256C3.46938 3.05682 3.45439 3.02657 3.41045 3.00812C3.355 2.98525 3.27545 2.98923 3.23238 3.01691C3.04944 3.13553 2.88316 3.26337 2.73575 3.39832C2.68816 3.44212 2.64251 3.48644 2.59975 3.53171C2.59789 3.53385 2.59604 3.53599 2.5945 3.53816C2.57304 3.56857 2.59944 3.60422 2.65794 3.61943Z" fill="white"/>
<path d="M4.71659 7.36657C5.0493 7.47926 5.40905 7.57598 5.79349 7.65354L5.80584 7.65605C5.86984 7.66913 5.9419 7.65351 5.96594 7.62037C5.99008 7.58624 5.95694 7.54829 5.89097 7.53501L5.87961 7.5326C5.51211 7.45799 5.16813 7.36609 4.84951 7.2584C4.79043 7.23883 4.71284 7.24663 4.67516 7.27681C4.67049 7.28067 4.6668 7.28463 4.66376 7.28864C4.64386 7.31655 4.66425 7.34931 4.71659 7.36657Z" fill="white"/>
<path d="M8.40222 2.04121C8.39223 2.07636 8.44038 2.10979 8.50996 2.11645C8.88119 2.14869 9.25276 2.2015 9.62059 2.27614C9.6862 2.28971 9.75872 2.2728 9.7824 2.23996C9.80615 2.20645 9.7717 2.16838 9.707 2.15556C9.32295 2.07737 8.93338 2.02218 8.54476 1.98828C8.48532 1.98292 8.42867 2.00035 8.40877 2.02826C8.40544 2.03191 8.40365 2.03671 8.40222 2.04121Z" fill="white"/>
<path d="M13.3164 5.70073C13.3343 5.66601 13.2923 5.63019 13.2254 5.62014C13.1616 5.61105 13.098 5.62848 13.0763 5.65853C13.0747 5.6607 13.0732 5.6632 13.0723 5.66544C13.026 5.76137 12.9686 5.85624 12.9016 5.95052C12.8362 6.04198 12.7631 6.13006 12.6824 6.21574C12.6805 6.21788 12.6787 6.22002 12.6771 6.22219C12.6553 6.25257 12.6821 6.28825 12.7409 6.30349C12.8029 6.32036 12.8793 6.3078 12.9088 6.27585C12.9946 6.18667 13.0706 6.09458 13.1391 5.99878C13.2088 5.90044 13.2681 5.80045 13.3164 5.70073Z" fill="white"/>
<path d="M12.7333 5.91619C12.6376 6.05079 12.5237 6.17801 12.3922 6.29859C11.7444 6.8964 10.6877 7.32157 9.47143 7.51781C8.9542 7.60243 8.40791 7.64453 7.85238 7.64135C7.21899 7.63833 6.57146 7.57533 5.9401 7.4473C5.30812 7.31888 4.74724 7.13631 4.26805 6.91353C3.85008 6.71915 3.4947 6.49365 3.21356 6.24711C2.55016 5.66849 2.29048 4.97649 2.55036 4.30012C2.60287 4.16337 2.67612 4.02795 2.77182 3.89335C2.86746 3.75941 2.98134 3.63218 3.11247 3.51157C3.76096 2.91415 4.81696 2.48892 6.03325 2.29236C6.55046 2.20806 7.09678 2.16563 7.65133 2.16872C8.28705 2.17163 8.93362 2.23421 9.5656 2.36263C10.197 2.49066 10.7588 2.67332 11.2357 2.89588C11.6546 3.09101 12.0097 3.31647 12.2912 3.56239C12.9549 4.14104 13.2149 4.83374 12.954 5.51001C12.9022 5.64682 12.8289 5.78225 12.7333 5.91619Z" fill="white"/>
<path d="M0.0869274 4.88042C0.0869274 4.88042 0.0963761 4.95122 0.114096 5.08442C0.134832 5.21725 0.186644 5.40606 0.282236 5.63583C0.388569 5.86066 0.545223 6.12045 0.773008 6.3811C1.0004 6.64237 1.30062 6.89372 1.64936 7.1401C1.99248 7.38629 2.40854 7.6007 2.85044 7.79771C3.07762 7.89167 3.31044 7.99248 3.55363 8.0681C3.67503 8.10788 3.79515 8.15417 3.92084 8.19071C4.04659 8.22661 4.17362 8.26295 4.30164 8.29939C4.36583 8.31746 4.43002 8.33553 4.49483 8.354C4.56032 8.36888 4.62613 8.3838 4.69195 8.39871C4.82391 8.42857 4.95684 8.45853 5.09074 8.4889C5.35689 8.53923 5.63665 8.58921 5.91263 8.63021C6.05113 8.64712 6.19029 8.66409 6.32977 8.68109L6.5394 8.7058L6.75126 8.72112C6.89239 8.73132 7.03385 8.74156 7.17561 8.75215C7.31738 8.7591 7.45971 8.76014 7.60173 8.76447C7.88558 8.77873 8.16863 8.77006 8.45506 8.76767C8.59688 8.7637 8.73695 8.75392 8.87771 8.7472L9.08781 8.73585L9.29707 8.71613C9.85634 8.6733 10.3975 8.57771 10.9236 8.47274C11.0528 8.44171 11.1806 8.41089 11.3077 8.38066C11.3712 8.3652 11.4342 8.35004 11.497 8.33485C11.559 8.31661 11.6207 8.29834 11.6824 8.28039C11.8054 8.24447 11.9271 8.20876 12.0471 8.17321C12.1661 8.13458 12.2814 8.08931 12.3966 8.04867C12.6288 7.97187 12.8427 7.86912 13.0532 7.77732C13.1604 7.73425 13.2567 7.6759 13.3551 7.6247C13.4522 7.57172 13.5491 7.52204 13.6415 7.46961C14.0005 7.24263 14.3195 7.01446 14.5651 6.77034C14.8225 6.53197 14.9876 6.28411 15.1226 6.07113C15.177 5.95973 15.2256 5.86037 15.268 5.774C15.2993 5.68226 15.33 5.6047 15.3484 5.54054C15.3794 5.41035 15.396 5.34072 15.396 5.34072C15.396 5.34072 15.3826 5.41099 15.3577 5.54343C15.3421 5.60885 15.3154 5.68712 15.2883 5.78058C15.2498 5.8713 15.2048 5.97432 15.1524 6.08954C15.0282 6.3029 14.8607 6.57174 14.6129 6.81732C14.499 6.94884 14.3473 7.06616 14.1995 7.19477C14.1271 7.2627 14.042 7.31749 13.9566 7.37589C13.8711 7.43462 13.7839 7.49451 13.6946 7.55584C13.6018 7.61122 13.505 7.6639 13.4072 7.71979C13.3086 7.77395 13.2113 7.83552 13.1039 7.88154C12.8925 7.97922 12.677 8.08844 12.4434 8.17142C12.3276 8.21531 12.2117 8.2635 12.0917 8.30535C11.9708 8.34379 11.8482 8.38272 11.7245 8.42189C11.6623 8.44145 11.6001 8.46133 11.5376 8.48118C11.4738 8.49726 11.4097 8.51332 11.3452 8.52934C11.2159 8.56134 11.0856 8.59359 10.9543 8.62606C10.4298 8.73451 9.8775 8.83631 9.31352 8.88333L9.10178 8.9048L8.88788 8.91777C8.74535 8.92565 8.60155 8.93639 8.45861 8.94159C8.17498 8.9459 7.88607 8.95699 7.59813 8.94399C7.45423 8.93849 7.31035 8.93631 7.16703 8.92821C7.02369 8.91681 6.88036 8.9054 6.73769 8.89406L6.52369 8.87688L6.31027 8.85015C6.16825 8.83191 6.02692 8.81341 5.88589 8.79527C5.60557 8.7512 5.33477 8.70109 5.05906 8.64686C4.92394 8.61537 4.78949 8.58394 4.65601 8.55261C4.58927 8.53695 4.52286 8.52131 4.45642 8.50601C4.39098 8.48715 4.32587 8.46833 4.26109 8.44954C4.13156 8.41163 4.00298 8.37414 3.87572 8.33678C3.74845 8.29942 3.62575 8.24891 3.5027 8.20566C3.25436 8.12159 3.02525 8.01651 2.80018 7.91778C2.34985 7.70505 1.93923 7.48222 1.58965 7.22051C1.24226 6.96697 0.944367 6.69828 0.723185 6.42403C0.500596 6.15063 0.350536 5.88087 0.250803 5.64938C0.16106 5.41388 0.120167 5.21817 0.105042 5.08555C0.0930282 4.95156 0.0869274 4.88042 0.0869274 4.88042Z" fill="white"/>
</svg>
