<svg width="32" height="32" viewBox="0 0 32 32" fill="none" xmlns="http://www.w3.org/2000/svg">
<path d="M31.5203 19.8728C33.6592 11.3011 28.4444 2.61853 19.8728 0.479663C11.3011 -1.6592 2.61853 3.5556 0.479663 12.1272C-1.6592 20.6989 3.5556 29.3815 12.1272 31.5203C20.6989 33.6592 29.3815 28.4444 31.5203 19.8728Z" fill="#FDC95A"/>
<path d="M28.6295 19.1523C30.3698 12.1775 26.1266 5.11254 19.1518 3.37215C12.1771 1.63176 5.11208 5.87503 3.37169 12.8498C1.6313 19.8245 5.87457 26.8895 12.8493 28.6299C19.824 30.3703 26.8891 26.127 28.6295 19.1523Z" fill="#E9AD41"/>
<path d="M21.0505 8.53891C20.5561 7.87569 19.9792 7.30427 19.2403 6.91393C18.755 6.65758 18.2462 6.49634 17.7176 6.4056C17.6995 6.10793 17.6814 5.81028 17.6634 5.51262C17.6572 5.41131 17.6511 5.31004 17.645 5.20875C17.6229 4.8457 17.4912 4.49543 17.2229 4.23981C16.986 4.01412 16.6009 3.84664 16.2687 3.86484C15.9122 3.88441 15.5414 4.00961 15.2997 4.28687C15.0733 4.54669 14.9033 4.8868 14.9248 5.24114C14.9525 5.69864 14.9803 6.15613 15.0081 6.61363C14.4468 6.79799 13.8946 7.06067 13.4155 7.4033C13.1101 7.62167 12.8114 7.86007 12.546 8.12665C12.2848 8.38895 12.0639 8.68743 11.8545 8.9918C11.7075 9.20531 11.5815 9.43332 11.4818 9.67264C11.3399 10.0133 11.2065 10.3567 11.1436 10.7214C11.0138 11.474 11.0336 12.2398 11.2612 12.9739C11.5196 13.8077 11.988 14.6425 12.6308 15.2401C13.2583 15.8234 14.0657 16.1974 14.9065 16.3442C15.6432 16.4728 16.3868 16.4836 17.1303 16.5341C17.229 16.5408 17.3273 16.5512 17.4257 16.5608C17.6537 16.5952 17.8788 16.6447 18.0979 16.7164C18.1866 16.7583 18.2728 16.8047 18.3562 16.8561C18.4631 16.9475 18.5622 17.0469 18.6556 17.1522C18.7825 17.3262 18.8945 17.5097 18.9901 17.7026C19.0503 17.868 19.0975 18.0373 19.1319 18.21C19.1467 18.3831 19.1486 18.5565 19.1377 18.7298C19.1052 18.9215 19.0582 19.1099 18.9967 19.2943C18.9015 19.5092 18.7883 19.715 18.6586 19.9109C18.4761 20.1408 18.2723 20.3518 18.0501 20.5437C17.8425 20.6964 17.6235 20.8319 17.3924 20.9459C17.1381 21.0412 16.876 21.1119 16.6088 21.1609C16.2753 21.1962 15.9399 21.1994 15.6056 21.1718C15.2921 21.1238 14.9842 21.0482 14.6847 20.9437C14.4576 20.8437 14.2396 20.7257 14.0328 20.5886C13.8853 20.4685 13.7479 20.3372 13.621 20.1953C13.5302 20.0659 13.4497 19.9302 13.3786 19.7891C13.3637 19.7479 13.3491 19.7067 13.3357 19.6649C13.2252 19.3209 13 19.013 12.6786 18.8372C12.3919 18.6803 11.976 18.6163 11.6601 18.7199C11.3208 18.8312 10.9946 19.0471 10.8323 19.377C10.6792 19.6881 10.606 20.0561 10.715 20.3955C10.9887 21.2478 11.4971 22.0465 12.2072 22.6011C12.561 22.8774 12.928 23.1305 13.3382 23.3146C13.7493 23.4991 14.1789 23.6579 14.6201 23.7537C14.946 23.8244 15.2802 23.8709 15.6171 23.8938C15.6407 24.2822 15.6643 24.6707 15.6878 25.0592C15.694 25.1605 15.7001 25.2618 15.7062 25.3631C15.7283 25.7262 15.86 26.0764 16.1283 26.3321C16.3652 26.5578 16.7503 26.7253 17.0825 26.707C17.439 26.6875 17.8098 26.5623 18.0515 26.285C18.278 26.0252 18.448 25.6851 18.4265 25.3307C18.3894 24.7205 18.3524 24.1103 18.3154 23.5C18.7258 23.3379 19.1164 23.1268 19.4739 22.8606C20.1897 22.3276 20.8025 21.6983 21.2339 20.9089C21.6333 20.1779 21.8565 19.3486 21.8665 18.5151C21.8768 17.6674 21.6316 16.8123 21.2064 16.0818C20.9812 15.6948 20.6914 15.3281 20.3741 15.0134C20.2457 14.886 20.1029 14.7815 19.9571 14.675C19.8116 14.5688 19.669 14.465 19.5094 14.3811C18.403 13.7995 17.1569 13.8391 15.946 13.7497C15.8743 13.7444 15.8029 13.7365 15.7314 13.7297C15.4655 13.691 15.203 13.6336 14.9482 13.5481C14.8358 13.4954 14.7268 13.4359 14.6218 13.3696C14.5205 13.2847 14.4251 13.1933 14.3359 13.0957C14.1918 12.8961 14.066 12.6831 13.9588 12.4614C13.8864 12.2686 13.8293 12.0709 13.7897 11.8688C13.776 11.7077 13.7736 11.5462 13.7834 11.3849C13.8118 11.2205 13.852 11.0587 13.9041 10.9003C13.9877 10.7134 14.0865 10.534 14.1991 10.3629C14.3663 10.1529 14.5526 9.95938 14.7551 9.78297C15.0051 9.59848 15.2719 9.43869 15.5522 9.3048C15.8305 9.19762 16.1177 9.11623 16.4111 9.0628C16.653 9.03905 16.8962 9.03569 17.1387 9.05355C17.3364 9.08665 17.5309 9.13504 17.721 9.19861C17.8964 9.27747 18.0652 9.36945 18.2262 9.47451C18.4092 9.62179 18.5782 9.78477 18.7328 9.96159C18.8219 10.1148 18.94 10.2377 19.089 10.3283C19.2228 10.4446 19.3783 10.5214 19.5554 10.5587C19.879 10.6395 20.3023 10.5925 20.5848 10.4051C20.8783 10.2105 21.1315 9.92362 21.2041 9.56849C21.2723 9.23527 21.2626 8.82342 21.0505 8.53891Z" fill="#FFDA77"/>
</svg>
