<svg width="463" height="501" viewBox="0 0 463 501" fill="none" xmlns="http://www.w3.org/2000/svg">
<path d="M239.535 320.675C239.535 320.675 250.197 263.426 247.231 247.186C244.534 232.4 228.828 192.929 228.828 192.929L226.926 163.421L266.432 172.464C266.432 172.464 273.094 226.243 275.473 241.953C278.505 261.964 258.806 329.623 258.806 329.623L239.535 320.675Z" fill="#66100C"/>
<path d="M209.794 335.798L206.345 257.166L201.703 158.345L237.874 169.131L234.543 263.37L230.737 335.204L209.794 335.798Z" fill="#931F16"/>
<path d="M237.883 68.0833C241.32 68.3048 244.944 68.6215 248.554 68.9914C244.503 68.575 240.43 68.2251 236.631 68.0058C234.771 67.8995 230.616 68.1653 225.635 68.6038L237.883 68.0833Z" fill="#8366FF"/>
<path d="M222.326 68.9071C223.409 68.8052 224.468 68.7078 225.498 68.6169C224.468 68.7055 223.409 68.803 222.326 68.9071Z" fill="#8366FF"/>
<path d="M278.5 87.9083C279.891 73.4233 276.732 72.905 276.732 72.905C276.732 72.905 264.597 70.8984 251.228 69.3923L224.59 68.5684C222.438 68.7433 220.136 68.9471 217.786 69.1664C217.786 69.1664 196.057 70.3956 192.32 73.6138C190.298 75.3546 190.271 85.8884 190.271 85.8884L200.043 147.751C200.043 147.751 200.331 175.27 201.29 176.531C203.494 179.421 208.234 181.729 212.134 182.677L212.132 182.723C212.132 182.723 227.102 185.95 236.006 185.95C263.366 185.95 267.842 177.02 267.751 175.884C266.974 166.017 266.152 163.461 267.2 153.711C268.032 145.911 277.616 97.1066 278.5 87.9083Z" fill="#DDDCEA"/>
<path d="M201.289 176.529C203.493 179.419 208.233 181.727 212.133 182.675L212.131 182.722C212.131 182.722 227.101 185.949 236.005 185.949C263.365 185.949 269.063 188.228 268.973 187.094C268.195 177.226 267.185 171.005 268.233 161.255C268.585 157.962 269.466 139.805 271.624 127.955C268.532 125.924 264.39 121.855 264.716 114.724C265.227 103.439 276.461 72.8633 276.461 72.8633C275.274 72.6706 269.865 71.8024 262.729 70.83L236.618 109.554L208.479 69.8511C202.268 69.8511 196.031 71.8865 196.031 71.8865C196.033 71.8932 213.307 103.494 197.055 127.813L197.602 132.283L200.047 147.749C200.042 147.749 200.33 175.271 201.289 176.529Z" fill="#3F2812"/>
<path d="M220.945 74.6108L222.051 49.4813L248.485 48.613L250.959 70.1656C250.959 70.1656 249.253 83.2642 239.488 85.6297C224.945 89.1535 220.945 74.6108 220.945 74.6108Z" fill="#E8C5AC"/>
<path d="M226.113 65.4809C227.608 67.1354 229.708 68.1055 231.914 68.1409L235.717 68.2074L239.387 68.2672C241.58 68.3115 243.715 67.4189 245.267 65.8131L249.938 61.4278L249.307 49.1465L222.049 49.4809L221.566 60.451L226.113 65.4809Z" fill="#D1A382"/>
<path d="M252.931 33.7732L254.191 33.8751C256.081 34.4354 258.103 36.2627 257.569 39.1464C257.084 41.7666 256.874 41.9858 256.28 45.235C255.438 49.8352 251.695 48.2605 251.695 48.2605L252.931 33.7732Z" fill="#D1A382"/>
<path d="M219.741 33.1775L218.476 33.2351C218.111 33.3303 217.741 33.4676 217.384 33.6559C215.863 34.4399 214.569 36.0346 214.908 38.3846C215.304 41.018 215.508 41.2484 215.987 44.5152C216.655 49.1443 220.463 47.7046 220.463 47.7046L219.741 33.1775Z" fill="#D1A382"/>
<path d="M234.594 13.0626L224.645 10.5L219.261 17.6517L218.661 51.2198C218.623 53.4922 220.01 54.8499 221.514 56.5133L226.127 63.1024C227.622 64.7569 229.722 65.7248 231.926 65.7603L235.731 65.8311V65.8267L239.398 65.8887C241.591 65.9308 243.728 65.0404 245.281 63.4324L249.722 57.3771C251.285 55.7713 253.124 54.1013 253.166 51.8333L253.766 18.2674L234.594 13.0626Z" fill="#E8C5AC"/>
<path d="M261.063 314.595L276.035 331.076C277.532 333.007 286.299 334.039 286.299 337.634C286.299 338.876 286.299 339.718 286.299 341.676C286.299 344.836 285.328 344.591 283.264 344.591H265.346C262.206 344.591 241.191 332.478 238.332 329.62C237.475 328.761 237.621 327.228 237.621 323.368L263.798 333.062L261.063 314.595Z" fill="#0F0F0F"/>
<path d="M238.673 315.341C239.471 311.926 239.967 310.004 243.404 314.307C243.404 314.307 245.903 318.006 250.72 313.448C255.052 309.346 261.639 307.873 263.969 310.351C264.975 311.417 265.345 316.201 265.345 316.201L276.357 330.482C278.589 331.683 286.166 333.408 286.292 335.849C286.268 338.555 285.3 338.562 283.263 338.562L266.206 338.568C262.301 338.568 237.619 323.368 237.619 323.368C237.619 323.368 238.069 317.922 238.673 315.341Z" fill="#3F3F3F"/>
<path d="M228.99 332.863L241.271 340.894C242.769 342.821 244.948 344.349 244.948 347.944C244.948 349.188 244.948 350.026 244.948 351.988C244.948 355.146 243.976 355.146 241.911 355.146H223.389C220.246 355.146 212.607 352.774 209.88 349.786C208.042 347.771 208.188 345.479 208.188 341.618L214.583 337.707L228.99 332.863Z" fill="#0F0F0F"/>
<path d="M207.234 348.648C207.234 350.225 207.591 350.493 208.233 350.493H219.199L210.623 339.946L209.248 336.504C207.602 336.504 207.234 332.843 207.234 335.919V348.648Z" fill="#0F0F0F"/>
<path d="M207.234 335.569C207.234 333.479 207.369 332.996 208.189 332.878V332.843C208.189 332.843 213.562 333.966 218.196 329.793C225.079 323.6 233.09 326.01 232.65 329.536C232.479 330.912 232.479 333.58 232.479 333.58L242.043 340.701C244.789 343.31 244.942 343.273 244.942 346.158C244.918 348.865 243.95 348.872 241.91 348.872H225.008C221.106 348.872 213.644 347.485 211.438 345.558L207.234 342.57V335.569Z" fill="#3F3F3F"/>
<path d="M245.575 94.5686C246.279 98.0414 262.04 75.2197 256.525 69.5475C252.928 65.851 250.505 66.2031 250.505 66.2031C250.505 66.2031 247.3 73.0647 236.596 83.2419C236.452 83.3814 235.353 86.0547 235.639 86.1256C238.596 86.8521 244.228 87.9639 245.575 94.5686Z" fill="#EEEEF5"/>
<path d="M238.328 182.203C238.328 182.203 235.748 164.139 236.133 156.781C236.523 149.423 236.91 110.453 236.39 107.742C235.876 105.034 237.55 114.841 237.55 118.068C237.55 121.295 237.94 150.329 237.422 157.04C236.91 163.749 238.328 182.203 238.328 182.203Z" fill="#C4C4CE"/>
<path d="M235.355 112.245C235.355 113.175 234.6 113.931 233.67 113.931C232.74 113.931 231.984 113.175 231.984 112.245C231.984 111.315 232.74 110.56 233.67 110.56C234.6 110.56 235.355 111.315 235.355 112.245Z" fill="#3F3F3F"/>
<path d="M236.205 130.597C236.205 131.525 235.45 132.28 234.517 132.28C233.589 132.28 232.834 131.525 232.834 130.597C232.834 129.667 233.589 128.912 234.517 128.912C235.452 128.912 236.205 129.667 236.205 130.597Z" fill="#3F3F3F"/>
<path d="M235.687 150.531C235.687 151.459 234.932 152.216 234.002 152.216C233.074 152.216 232.316 151.461 232.316 150.531C232.316 149.6 233.074 148.845 234.002 148.845C234.932 148.845 235.687 149.6 235.687 150.531Z" fill="#3F3F3F"/>
<path d="M235.916 166.345C235.916 167.275 235.161 168.033 234.233 168.033C233.302 168.033 232.545 167.277 232.545 166.345C232.545 165.417 233.302 164.662 234.233 164.662C235.161 164.662 235.916 165.415 235.916 166.345Z" fill="#3F3F3F"/>
<path d="M224.967 2.76776C225.749 2.29157 226.495 1.85747 227.199 1.46322C228.867 0.526348 230.947 1.33032 232.827 0.964872C233.921 0.752248 235.264 0.493124 236.603 0.233988C238.869 -0.202335 239.545 3.73786 241.819 3.34583C241.89 3.33255 241.966 3.31925 242.048 3.30153C243.407 3.00695 245.184 2.56621 246.69 2.17861C248.067 1.82424 249.368 3.01803 249.044 4.40452L246.931 7.37463C246.931 7.37463 219.813 6.76112 220.473 6.11217C222.105 4.50863 224.967 2.76776 224.967 2.76776Z" fill="#142635"/>
<path d="M216.663 30.905C216.663 30.905 216.342 25.7599 215.305 16.6791C214.924 13.3413 215.68 10.4709 217.436 8.35132C218.924 6.5573 221.126 5.30148 223.963 4.74555C228.302 3.9017 241.004 3.72894 247.396 5.30369C251.381 6.28929 253.757 7.72452 255.469 10.8563C256.577 12.8807 256.805 15.0955 256.395 17.8663C256.098 19.9039 253.635 33.1132 253.635 33.1132C253.635 33.1132 251.715 33.9106 251.844 26.5352C252.012 17.255 246.435 16.2029 245.009 16.1786C244.772 16.1763 240.958 19.2815 240.958 19.2815C240.958 19.2815 233.556 17.6426 232.767 17.4676C231.977 17.2971 220.874 12.0479 220.047 18.843C219.806 20.8209 219.082 33.3856 219.082 33.3856C219.082 33.3856 217.332 33.5385 216.663 30.905Z" fill="#142635"/>
<path d="M224.32 93.1646C223.613 96.6375 209.033 75.22 214.548 69.5456C218.145 65.849 220.568 66.2012 220.568 66.2012C220.568 66.2012 223.773 73.0627 234.475 83.2399C234.621 83.3795 235.722 86.0528 235.434 86.1236C232.477 86.8523 225.664 86.56 224.32 93.1646Z" fill="#EEEEF5"/>
<path d="M225.393 82.3842C225.393 81.1705 226.863 80.5592 227.723 81.4185L235.291 88.9866L227.723 96.5547C226.863 97.4141 225.393 96.8028 225.393 95.5913V82.3842Z" fill="#515050"/>
<path d="M235.674 88.9888L243.242 81.4207C244.104 80.5614 245.574 81.1727 245.574 82.3864V95.5957C245.574 96.8094 244.104 97.4207 243.242 96.5592L235.674 88.9888Z" fill="#515050"/>
<path d="M238.319 88.9891C238.319 90.6613 236.964 92.019 235.289 92.019C233.619 92.019 232.262 90.6635 232.262 88.9891C232.262 87.3169 233.619 85.9614 235.289 85.9614C236.962 85.9614 238.319 87.3169 238.319 88.9891Z" fill="#515050"/>
<path d="M199.073 84.6258C199.073 84.6258 195.062 71.7421 192.105 73.5937C187.37 76.5527 159.066 136.998 158.728 141.764C158.017 151.837 165.341 154.652 172.3 152.13C179.614 149.479 196.546 113.758 196.546 113.758L199.073 84.6258Z" fill="#DDDCEA"/>
<path d="M274.264 85.9605C274.264 85.9605 275.358 71.7013 277.205 73.2096C281.528 76.7401 311.92 137.077 312.259 141.843C312.97 151.916 305.646 154.733 298.685 152.209C291.371 149.557 273.553 112.244 273.553 112.244L274.264 85.9605Z" fill="#DDDCEA"/>
<path d="M160.7 136.212C160.7 136.212 172.036 132.185 177.11 145.716C178.592 149.662 163.783 170.947 163.783 170.947C163.783 170.947 150.087 184.582 145.276 167.06C142.858 158.256 160.7 136.212 160.7 136.212Z" fill="#EAE9F7"/>
<path d="M449.068 219.975H13.4492V413.869H449.068V219.975Z" fill="#A97C50"/>
<path d="M449.069 219.975H231.26V413.869H449.069V219.975Z" fill="#94673C"/>
<path d="M440.236 197.874H22.1647H0.580078V287.714C0.580078 405.062 103.833 500.2 231.2 500.2C358.567 500.2 461.82 405.068 461.82 287.714V197.874H440.236Z" fill="#1D232D"/>
<path d="M440.656 175.726H22.5847H1V270.83C1 395.062 104.253 495.77 231.62 495.77C358.987 495.77 462.24 395.062 462.24 270.83V175.726H440.656Z" fill="#414042"/>
<path d="M428.377 177.941H33.3924H13V268.111C13 385.892 110.551 481.374 230.887 481.374C351.219 481.374 448.77 385.892 448.77 268.111V177.941H428.377Z" fill="#58A350"/>
<path d="M248.357 347.637V348.246H250.475V349.627H251.04V354.45H250.475V359.285H251.04V364.108H250.475V368.942H251.04V373.766H250.475V378.6H251.04V380.022C251.04 381.179 250.945 382.304 250.769 383.409L250.211 383.31C249.969 384.851 249.537 386.357 248.941 387.779L249.467 388.019C248.855 389.503 248.076 390.894 247.156 392.165L246.701 391.795C245.804 393.035 244.77 394.155 243.621 395.134L243.974 395.609C242.792 396.614 241.497 397.468 240.107 398.151L239.87 397.604C238.535 398.26 237.123 398.75 235.668 399.041L235.777 399.635C234.612 399.875 233.411 400 232.181 400C231.864 400 231.549 399.995 231.239 399.974L231.266 399.37C229.788 399.302 228.329 399.031 226.921 398.588L226.761 399.161C225.286 398.692 223.888 398.041 222.588 397.229L222.884 396.708C221.614 395.926 220.435 394.968 219.387 393.869L218.988 394.301C217.903 393.176 216.946 391.915 216.14 390.54L216.627 390.222C215.844 388.894 215.225 387.466 214.773 385.982L214.227 386.169C213.766 384.664 213.474 383.08 213.365 381.445L213.934 381.403C213.9 380.95 213.889 380.491 213.889 380.022V376.616H213.316V371.776H213.889V366.953H213.316V362.118H213.889V357.295H213.316V352.471H213.889V348.246H216.427V347.637H220.984V348.246H225.542V347.637H230.109V348.246H234.667V347.637H239.234V348.246H243.791V347.637H248.357Z" fill="#227F3A"/>
<path d="M148.978 317.722L151.13 319.134L151.434 318.618L155.311 321.155L155.013 321.665L158.899 324.213L159.199 323.692L163.082 326.229L162.782 326.745L166.655 329.276L166.959 328.766L170.838 331.303L170.538 331.813L174.424 334.36L174.724 333.845L178.605 336.382L178.309 336.892L180.106 338.075L179.422 339.241L179.904 339.559L177.503 343.675L177.016 343.352L174.621 347.462L175.106 347.774L172.709 351.884L172.226 351.567L169.82 355.671L170.307 355.994L167.912 360.099L167.425 359.781L165.03 363.892L165.513 364.209L164.797 365.434C164.228 366.413 163.588 367.319 162.895 368.153L162.469 367.757C161.487 368.924 160.385 369.976 159.171 370.851L159.499 371.351C158.237 372.273 156.885 373.023 155.469 373.596L155.265 373.039C153.898 373.586 152.452 373.961 150.985 374.159L151.056 374.758C150.288 374.862 149.515 374.909 148.739 374.909C147.994 374.909 147.248 374.862 146.505 374.768L146.57 374.169C145.103 373.982 143.669 373.612 142.29 373.049L142.082 373.622C140.976 373.174 139.893 372.617 138.848 371.929C138.579 371.757 138.317 371.575 138.058 371.388L138.384 370.893C137.158 370.007 136.043 368.965 135.074 367.798L134.645 368.2C133.625 366.986 132.76 365.647 132.059 364.235L132.569 363.954C131.887 362.579 131.356 361.105 131.003 359.589L130.443 359.735C130.08 358.177 129.891 356.573 129.889 354.963H130.46C130.46 353.385 130.638 351.832 130.989 350.316L130.432 350.176C130.789 348.639 131.329 347.128 132.049 345.675L132.555 345.961C132.754 345.55 132.962 345.164 133.195 344.769L134.885 341.862L134.404 341.549L136.803 337.434L137.288 337.752L139.683 333.642L139.202 333.329L141.595 329.224L142.076 329.542L144.482 325.432L143.993 325.114L146.39 321.004L146.875 321.322L148.978 317.722Z" fill="#227F3A"/>
<path d="M108.9 255.652L110.035 258.048L110.543 257.777L112.584 262.096L112.078 262.372L114.118 266.68L114.624 266.414L116.667 270.733L116.161 271.004L118.203 275.327L118.709 275.057L120.749 279.375L120.243 279.651L122.286 283.959L122.792 283.693L124.834 288.017L124.328 288.283L125.275 290.288L124.106 290.908L124.364 291.445L120.283 293.601L120.023 293.07L115.953 295.227L116.205 295.763L112.124 297.925L111.87 297.389L107.789 299.55L108.048 300.087L103.971 302.249L103.719 301.712L99.6363 303.874L99.8903 304.411L98.6791 305.057C97.7072 305.572 96.7144 305.989 95.711 306.312L95.5451 305.734C94.1324 306.187 92.6673 306.458 91.2 306.541L91.2273 307.151C90.9019 307.166 90.5744 307.177 90.2512 307.177C89.0526 307.177 87.8603 307.057 86.6931 306.817L86.7981 306.223C85.3539 305.932 83.9412 305.452 82.5957 304.801L82.3606 305.343C80.9856 304.676 79.6821 303.832 78.4835 302.822L78.8445 302.348C77.6858 301.379 76.6489 300.259 75.7441 299.019L75.2886 299.389C74.5665 298.394 73.9221 297.31 73.37 296.144C73.2315 295.847 73.0971 295.55 72.9733 295.247L73.5044 294.997C72.8977 293.56 72.4674 292.065 72.226 290.528L71.6572 290.632C71.3927 289.028 71.3192 287.418 71.4263 285.824L71.9951 285.866C72.0938 284.313 72.3813 282.771 72.8306 281.276L72.2869 281.094C72.7529 279.562 73.3868 278.093 74.1887 276.723L74.6736 277.041C75.444 275.708 76.3718 274.484 77.4192 273.384L77.0246 272.962C78.091 271.853 79.2959 270.868 80.633 270.03L80.9206 270.551C81.2942 270.316 81.67 270.108 82.0562 269.894L84.9467 268.363L84.6948 267.821L88.7713 265.659L89.0295 266.201L93.0997 264.039L92.8478 263.497L96.9285 261.33L97.1804 261.872L101.263 259.71L101.003 259.168L105.079 257.007L105.333 257.548L108.9 255.652Z" fill="#227F3A"/>
<path d="M315.399 317.722L317.494 321.317L317.981 320.999L320.378 325.109L319.889 325.427L322.284 329.537L322.773 329.214L325.173 333.324L324.69 333.636L327.085 337.746L327.57 337.429L329.967 341.539L329.48 341.857L331.18 344.763C331.411 345.159 331.621 345.545 331.82 345.956L332.324 345.67C333.046 347.123 333.582 348.634 333.941 350.17L333.386 350.311C333.739 351.832 333.915 353.379 333.915 354.958H334.482C334.478 356.567 334.291 358.172 333.928 359.729L333.376 359.584C333.023 361.105 332.492 362.574 331.81 363.949L332.312 364.23C331.613 365.642 330.748 366.975 329.728 368.194L329.306 367.793C328.323 368.96 327.209 370.002 325.995 370.888L326.319 371.382C326.063 371.57 325.8 371.752 325.532 371.929C324.484 372.617 323.399 373.18 322.29 373.622L322.089 373.049C320.71 373.612 319.264 373.987 317.796 374.169L317.87 374.768C317.127 374.862 316.384 374.904 315.64 374.904C314.862 374.904 314.085 374.857 313.317 374.753L313.384 374.154C311.927 373.956 310.481 373.581 309.102 373.034L308.904 373.591C307.49 373.023 306.136 372.273 304.874 371.346L305.195 370.846C303.992 369.971 302.878 368.918 301.91 367.752L301.478 368.153C300.783 367.314 300.143 366.408 299.572 365.428L298.858 364.209L299.349 363.892L296.944 359.781L296.461 360.099L294.064 355.989L294.548 355.666L292.155 351.561L291.669 351.879L289.271 347.769L289.76 347.451L287.355 343.341L286.874 343.659L284.477 339.549L284.96 339.231L284.275 338.064L286.072 336.882L285.774 336.371L289.653 333.834L289.956 334.35L293.839 331.803L293.535 331.292L297.416 328.755L297.712 329.266L301.595 326.734L301.297 326.218L305.176 323.682L305.481 324.197L309.366 321.65L309.064 321.139L312.941 318.602L313.237 319.113L315.399 317.722Z" fill="#227F3A"/>
<path d="M334.494 219.01V219.604H338.012C338.002 220.412 337.991 221.219 337.958 222.032C338.394 223.662 338.279 225.272 338.115 226.866C337.452 228.361 337.242 229.95 336.975 231.518L337.477 231.632C337.219 233.206 336.914 234.768 336.564 236.331L336.071 236.175C335.731 237.696 335.342 239.233 334.912 240.743L335.393 240.946C334.962 242.457 334.49 243.968 333.978 245.463L333.51 245.229C333.016 246.687 332.464 248.161 331.879 249.609L332.336 249.875C331.761 251.308 331.146 252.74 330.493 254.157L330.048 253.86C329.408 255.251 328.734 256.642 328.029 257.996L328.453 258.319C327.748 259.674 327.007 261.023 326.236 262.351L325.823 262.007C325.061 263.315 324.265 264.612 323.461 265.888L323.856 266.253C323.043 267.519 322.2 268.769 321.328 270.004L320.944 269.613C320.096 270.816 319.202 272.03 318.287 273.212L318.656 273.624C317.749 274.801 316.82 275.958 315.86 277.099L315.508 276.671C314.557 277.791 313.587 278.917 312.605 279.979L312.945 280.427C311.96 281.506 310.952 282.568 309.922 283.61L309.594 283.146C308.578 284.173 307.531 285.194 306.483 286.173L306.792 286.652C305.736 287.637 304.664 288.601 303.566 289.549L303.272 289.059C302.199 289.981 301.089 290.903 299.985 291.789L300.26 292.289C299.149 293.174 298.016 294.044 296.865 294.893L296.597 294.372C295.484 295.201 294.325 296.019 293.154 296.816L293.404 297.342C292.239 298.128 291.061 298.899 289.865 299.644L289.625 299.102C288.448 299.847 287.243 300.561 286.04 301.254L286.261 301.801C285.056 302.488 283.834 303.155 282.598 303.801L282.398 303.254C281.174 303.884 279.925 304.504 278.691 305.088L278.88 305.656C277.635 306.244 276.382 306.812 275.11 307.354L274.94 306.781C273.704 307.323 272.425 307.833 271.143 308.323L271.298 308.896C270.026 309.385 268.739 309.849 267.442 310.292L267.305 309.714C266.025 310.146 264.724 310.557 263.431 310.943L263.552 311.532C262.257 311.917 260.949 312.277 259.633 312.61L259.528 312.016C258.235 312.355 256.913 312.662 255.599 312.938L255.689 313.532C254.371 313.813 253.044 314.069 251.711 314.298L251.64 313.704C250.328 313.923 249.003 314.126 247.668 314.313L247.723 314.907C246.392 315.084 245.057 315.235 243.711 315.355L243.671 314.751C242.349 314.881 241.012 314.975 239.679 315.043L239.702 315.647C238.478 315.715 237.25 315.756 236.018 315.777L235.663 315.183C235.172 315.189 234.679 315.188 234.186 315.188C233.692 315.188 233.197 315.183 232.708 315.183L231.658 315.157L231.648 315.761C230.302 315.725 228.965 315.668 227.632 315.579L227.655 314.98C226.32 314.886 224.987 314.782 223.663 314.642L223.619 315.241C222.277 315.1 220.946 314.933 219.62 314.746L219.681 314.152C218.346 313.954 217.021 313.74 215.709 313.495L215.631 314.089C214.303 313.844 212.978 313.574 211.666 313.277L211.761 312.688C210.436 312.386 209.133 312.068 207.833 311.719L207.72 312.313C206.406 311.964 205.104 311.589 203.809 311.188L203.937 310.599C202.636 310.203 201.345 309.781 200.075 309.328L199.932 309.912C198.637 309.458 197.356 308.979 196.087 308.479L196.248 307.906C194.968 307.401 193.708 306.88 192.463 306.328L192.287 306.89C191.023 306.333 189.77 305.755 188.534 305.145L188.723 304.582C187.486 303.989 186.25 303.358 185.037 302.702L184.831 303.249C183.601 302.593 182.386 301.91 181.187 301.207L181.407 300.665C180.205 299.951 179.002 299.217 177.833 298.482L177.597 299.014C176.411 298.253 175.236 297.472 174.081 296.67L174.335 296.149C173.177 295.341 172.018 294.503 170.903 293.669L170.633 294.18C169.491 293.32 168.37 292.44 167.263 291.539L167.551 291.044C166.449 290.143 165.345 289.21 164.274 288.262L163.974 288.752C162.887 287.788 161.825 286.814 160.781 285.819L161.096 285.345C160.047 284.355 159.01 283.324 158.004 282.287L157.677 282.74C156.657 281.688 155.653 280.61 154.681 279.516L155.028 279.073C154.033 277.974 153.073 276.843 152.158 275.718L151.799 276.15C150.85 274.994 149.931 273.827 149.037 272.639L149.413 272.233C148.518 271.051 147.637 269.826 146.787 268.597L146.402 268.983C145.542 267.727 144.715 266.472 143.913 265.185L144.314 264.826C143.506 263.539 142.725 262.221 141.996 260.924L141.581 261.257C140.825 259.913 140.099 258.554 139.41 257.184L139.832 256.876C139.15 255.501 138.478 254.1 137.872 252.709L137.427 252.995C136.791 251.568 136.192 250.12 135.634 248.672C135.518 246.963 135 245.479 134.515 244.01L134.053 244.228C133.564 242.723 133.113 241.207 132.704 239.686L133.18 239.498C132.773 237.977 132.408 236.425 132.089 234.899C131.276 233.476 130.997 231.898 130.764 230.32L131.261 230.215C131.031 228.647 130.842 227.064 130.697 225.485C130.069 223.949 129.981 222.35 129.945 220.745C130.432 220.36 130.432 219.985 130.422 219.61H132.496V219.016H136.522V219.61H140.55V219.016H144.564V219.61H146.461C146.461 220.078 146.472 220.532 146.495 221C147.062 222.574 147.2 224.168 147.412 225.767C147.135 227.449 147.412 229.059 147.765 230.637L148.254 230.486C148.598 232.023 149.005 233.555 149.48 235.076L149.01 235.284C149.473 236.779 150.005 238.285 150.599 239.78L151.048 239.519C151.617 240.952 152.238 242.379 152.914 243.791L152.475 244.093C153.147 245.484 153.865 246.875 154.627 248.229L155.04 247.896C155.781 249.219 156.566 250.521 157.393 251.813L156.997 252.183C157.803 253.443 158.674 254.704 159.568 255.944L159.948 255.548C160.819 256.746 161.728 257.934 162.673 259.101L162.316 259.517C163.242 260.663 164.224 261.809 165.217 262.914L165.557 262.476C166.529 263.56 167.528 264.628 168.565 265.67L168.242 266.128C169.256 267.154 170.326 268.186 171.397 269.175L171.703 268.696C172.759 269.67 173.846 270.624 174.95 271.556L174.661 272.046C175.752 272.968 176.88 273.869 178.028 274.744L178.294 274.244C179.415 275.109 180.561 275.947 181.726 276.765L181.47 277.281C182.619 278.088 183.809 278.88 185.014 279.651L185.247 279.125C186.424 279.88 187.617 280.61 188.83 281.313L188.609 281.855C189.823 282.558 191.059 283.235 192.283 283.886L192.487 283.339C193.71 283.985 194.949 284.605 196.202 285.199L196.013 285.761C197.273 286.355 198.54 286.918 199.81 287.455L199.974 286.892C201.238 287.429 202.51 287.934 203.794 288.413L203.65 288.981C204.928 289.46 206.229 289.918 207.533 290.335L207.665 289.757C208.958 290.179 210.264 290.57 211.576 290.934L211.46 291.518C212.772 291.877 214.11 292.216 215.432 292.523L215.526 291.929C216.845 292.231 218.167 292.497 219.5 292.742L219.429 293.331C220.764 293.575 222.109 293.784 223.444 293.961L223.499 293.367C224.832 293.544 226.171 293.69 227.515 293.799L227.481 294.393C228.816 294.508 230.183 294.591 231.518 294.622L231.534 294.029C232.431 294.055 233.327 294.07 234.221 294.07C234.668 294.07 235.115 294.065 235.563 294.06L235.569 294.654C236.914 294.633 238.273 294.57 239.618 294.492L239.591 293.893C240.928 293.805 242.265 293.68 243.596 293.528L243.644 294.117C244.967 293.966 246.323 293.779 247.647 293.57L247.582 292.971C248.913 292.752 250.238 292.507 251.554 292.226L251.642 292.82C252.956 292.539 254.291 292.226 255.603 291.888L255.498 291.299C256.81 290.96 258.113 290.59 259.404 290.195L259.532 290.768C260.832 290.372 262.135 289.939 263.416 289.481L263.273 288.908C264.564 288.449 265.849 287.96 267.117 287.444L267.276 288.017C268.557 287.491 269.837 286.944 271.082 286.371L270.901 285.819C272.161 285.246 273.403 284.642 274.636 284.022L274.833 284.574C276.08 283.933 277.316 283.277 278.529 282.6L278.313 282.053C279.535 281.365 280.74 280.656 281.928 279.917L282.159 280.448C283.36 279.714 284.554 278.927 285.708 278.135L285.465 277.614C286.643 276.817 287.795 275.994 288.931 275.145L289.197 275.656C290.333 274.817 291.479 273.926 292.583 273.015L292.302 272.52C293.419 271.613 294.514 270.676 295.583 269.722L295.883 270.207C296.964 269.238 298.045 268.232 299.082 267.217L298.763 266.753C299.812 265.727 300.833 264.68 301.823 263.617L302.159 264.065C303.173 262.982 304.168 261.856 305.104 260.736L304.752 260.304C305.713 259.163 306.643 257.996 307.535 256.814L307.907 257.22C308.824 256.017 309.706 254.767 310.545 253.532L310.151 253.152C311.003 251.881 311.811 250.599 312.577 249.302L312.991 249.646C313.774 248.312 314.523 246.937 315.22 245.583L314.792 245.265C315.499 243.874 316.152 242.468 316.754 241.051L317.208 241.327C317.827 239.858 318.398 238.373 318.908 236.899L318.434 236.67C318.948 235.159 319.401 233.648 319.788 232.117L320.273 232.294C320.669 230.716 321.001 229.127 321.268 227.564L320.772 227.444C321.035 225.855 321.226 224.267 321.341 222.673C321.916 221.688 321.962 220.646 321.973 219.594L322.426 219H326.442V219.594H330.47V219H334.494V219.01Z" fill="#227F3A"/>
<path d="M355.478 255.654L359.04 257.545L359.303 256.998L363.377 259.159L363.123 259.706L367.204 261.868L367.458 261.326L371.534 263.488L371.274 264.03L375.357 266.192L375.609 265.65L379.689 267.812L379.437 268.354L382.328 269.885C382.714 270.094 383.088 270.307 383.453 270.542L383.747 270.021C385.084 270.854 386.289 271.844 387.355 272.953L386.952 273.381C388.01 274.48 388.936 275.704 389.713 277.038L390.195 276.72C390.995 278.095 391.631 279.564 392.095 281.09L391.551 281.273C392.005 282.768 392.28 284.31 392.389 285.862L392.956 285.82C393.061 287.414 392.987 289.024 392.723 290.628L392.16 290.524C391.908 292.066 391.476 293.561 390.88 294.994L391.402 295.239C391.276 295.541 391.144 295.843 391.004 296.14C390.454 297.307 389.809 298.39 389.087 299.385L388.632 299.015C387.737 300.255 386.7 301.375 385.542 302.344L385.898 302.818C384.7 303.829 383.394 304.672 382.015 305.344L381.778 304.797C380.443 305.454 379.03 305.933 377.575 306.22L377.687 306.813C376.518 307.048 375.329 307.173 374.131 307.173C373.805 307.173 373.48 307.163 373.153 307.147L373.186 306.537C371.708 306.454 370.254 306.188 368.841 305.73L368.675 306.313C367.668 305.985 366.671 305.568 365.697 305.053L364.487 304.412L364.748 303.87L360.667 301.708L360.411 302.25L356.33 300.088L356.584 299.547L352.514 297.385L352.256 297.921L348.177 295.765L348.433 295.223L344.353 293.066L344.099 293.608L340.016 291.446L340.272 290.91L339.113 290.29L340.06 288.284L339.544 288.013L341.588 283.69L342.102 283.955L344.143 279.647L343.631 279.371L345.671 275.053L346.185 275.324L348.228 271L347.715 270.734L349.76 266.411L350.268 266.676L352.31 262.368L351.802 262.092L353.845 257.774L354.353 258.045L355.478 255.654Z" fill="#227F3A"/>
<path d="M147.065 161.939C147.065 161.939 156.69 158.977 159.403 165.27C162.119 171.562 157.8 180.818 159.403 185.998C161.007 191.181 156.194 189.329 155.576 186.738C154.96 184.147 151.875 194.634 149.778 199.075C147.68 203.518 145.213 198.953 144.841 198.211C144.473 197.471 139.538 195.498 139.414 191.055C139.29 186.614 138.314 177.566 139.536 174.273C141.14 169.961 147.065 161.939 147.065 161.939Z" fill="#E8C5AC"/>
<path d="M312.831 143.315C312.831 143.315 306.931 132.832 294.217 139.693C290.508 141.698 287.684 167.47 287.684 167.47C287.684 167.47 289.048 186.75 304.189 176.703C311.797 171.656 312.831 143.315 312.831 143.315Z" fill="#EAE9F7"/>
<path d="M306.205 171.667C306.205 171.667 300.896 163.111 294.712 166.07C288.53 169.029 285.707 178.843 281.093 181.695C276.477 184.548 281.326 186.316 283.489 184.767C285.658 183.217 281.091 193.151 279.753 197.877C278.413 202.604 283.275 200.785 284.041 200.471C284.807 200.154 289.822 201.908 292.838 198.641C295.848 195.374 302.53 189.197 303.773 185.912C305.401 181.607 306.205 171.667 306.205 171.667Z" fill="#E8C5AC"/>
</svg>
