<svg width="29" height="31" viewBox="0 0 29 31" fill="none" xmlns="http://www.w3.org/2000/svg">
<path d="M17.8805 29.3993L15.7062 29.9216C15.0445 30.0258 14.3681 30.0725 13.6764 30.0565C12.984 30.0424 12.3057 29.9683 11.637 29.8359C8.32469 29.1947 5.36787 27.1834 3.26836 24.3544C2.36949 23.1512 1.63108 21.8016 1.08255 20.3478C0.455379 18.6849 0.0813808 16.8891 0.0116956 15.0146C-0.0579896 13.1427 0.185589 11.3564 0.692565 9.72105C1.13369 8.28578 1.77492 6.96367 2.58557 5.79819C2.71088 5.61727 2.8413 5.44081 2.97364 5.26628C3.01583 5.21322 3.05739 5.16143 3.09894 5.11092C3.1942 4.98754 3.29202 4.86926 3.39175 4.75099C3.41732 4.72094 3.44289 4.68833 3.46847 4.65829C3.50107 4.62121 3.53368 4.58604 3.56372 4.55152C3.60784 4.50293 3.65003 4.45371 3.69414 4.40767C3.77086 4.32392 3.84758 4.24017 3.92621 4.15898C3.96841 4.11742 4.00997 4.07331 4.05408 4.0292C4.14486 3.93649 4.23756 3.84763 4.3309 3.75749C4.36351 3.72936 4.39355 3.69931 4.4236 3.66926C4.54891 3.5529 4.67677 3.43911 4.80463 3.33042C4.83724 3.30229 4.86984 3.27672 4.89989 3.25178C4.99962 3.16803 5.09936 3.08428 5.20165 3.00565C5.25023 2.96857 5.2969 2.93149 5.34549 2.89441C5.43372 2.8292 5.52194 2.76207 5.61273 2.69686C5.66387 2.65978 5.71693 2.62269 5.77064 2.58561C5.86142 2.52296 5.9522 2.46287 6.04235 2.40469C6.09349 2.37017 6.14655 2.335 6.1977 2.3024C6.29999 2.23719 6.40228 2.17453 6.50649 2.11444C6.54868 2.08886 6.59279 2.06329 6.63435 2.03772C6.78075 1.95397 6.92907 1.87277 7.08059 1.79605C7.10361 1.78199 7.12662 1.77304 7.15283 1.75898C7.27814 1.69632 7.40856 1.63367 7.53578 1.57293C7.58885 1.54736 7.64255 1.52435 7.69625 1.50069C7.79854 1.45658 7.90275 1.40991 8.0076 1.36835C8.06577 1.34534 8.12587 1.32168 8.1866 1.29611C8.28634 1.25903 8.38863 1.21939 8.49347 1.18231C8.55165 1.16121 8.61175 1.14075 8.67248 1.11966C8.78372 1.08258 8.89305 1.04741 9.00684 1.01289C9.05799 0.998825 9.11105 0.980286 9.1622 0.966221C9.32714 0.917633 9.49464 0.873519 9.6615 0.833882C10.3865 0.659987 11.1108 0.485453 11.8358 0.313477C11.6683 0.353114 11.5034 0.397225 11.3391 0.445814C11.2879 0.459879 11.2342 0.475863 11.1812 0.492485C11.0699 0.527648 10.958 0.562171 10.8487 0.599251C10.7886 0.620349 10.7279 0.640807 10.6678 0.661904C10.5655 0.698985 10.4632 0.736066 10.3609 0.775704C10.3027 0.798719 10.2426 0.822374 10.1819 0.847946C10.0771 0.890141 9.9754 0.934255 9.87311 0.980286C9.82005 1.0033 9.76635 1.02696 9.71265 1.05253C9.58478 1.11071 9.45692 1.17336 9.33161 1.23601C9.30604 1.25008 9.28047 1.26159 9.2549 1.27309C9.10594 1.35173 8.95762 1.43356 8.81121 1.51667C8.7671 1.54225 8.72555 1.56782 8.68143 1.59339C8.57914 1.65413 8.47685 1.71678 8.37712 1.77943L8.21665 1.88364C8.12587 1.94182 8.03764 2.00192 7.94686 2.06457C7.8938 2.10165 7.8401 2.13873 7.78639 2.17837C7.69817 2.24102 7.60994 2.30623 7.52427 2.37336C7.47569 2.41044 7.42454 2.44752 7.37532 2.4846C7.2775 2.56388 7.17777 2.64251 7.08251 2.72627C7.04799 2.7544 7.01282 2.77997 6.98022 2.81002C6.8498 2.91934 6.72449 3.03314 6.60174 3.14694C6.56722 3.17954 6.53462 3.21215 6.49945 3.24475C6.40867 3.33042 6.31789 3.41673 6.23222 3.50751C6.18555 3.55163 6.14144 3.5983 6.09733 3.64433C6.02061 3.7236 5.94645 3.80224 5.87165 3.88343C5.82754 3.93458 5.78087 3.98317 5.73675 4.03431C5.67858 4.09952 5.62551 4.16409 5.56989 4.22739C5.47016 4.34822 5.37043 4.46905 5.27261 4.58988C5.23106 4.64358 5.18886 4.69473 5.14986 4.74779C5.01497 4.92169 4.88519 5.09878 4.75988 5.2797C3.95179 6.44582 3.308 7.76729 2.86687 9.20065C2.36053 10.836 2.11887 12.6242 2.18856 14.4968C2.25569 16.3687 2.62969 18.1665 3.25941 19.83C3.80794 21.2838 4.54635 22.6334 5.44523 23.8347C7.54473 26.6662 10.5016 28.6775 13.8138 29.3187C14.4807 29.4511 15.1609 29.5259 15.8533 29.5393C16.545 29.5502 17.2207 29.5061 17.8805 29.3993Z" fill="#CB1625"/>
<path d="M24.7617 11.3876C25.1357 12.5218 25.3601 13.7301 25.4055 14.9825C25.4516 16.2356 25.316 17.4375 25.0245 18.5576C24.9804 18.7264 24.9331 18.8932 24.8826 19.0575C24.5431 20.161 24.0496 21.1781 23.4262 22.0758C23.3316 22.2126 23.2338 22.3468 23.1334 22.4779C21.7806 24.2469 19.9081 25.4923 17.7523 25.9468C17.5989 25.9794 17.4435 26.0076 17.2869 26.0319C16.7793 26.1124 16.2582 26.1476 15.725 26.1361C15.1938 26.1252 14.6695 26.0683 14.1549 25.966C13.9963 25.9353 13.8391 25.9002 13.6824 25.8612C11.4889 25.3165 9.52242 23.9905 8.03665 22.1627C7.92605 22.0272 7.81801 21.8884 7.71316 21.7471C7.0227 20.8214 6.45371 19.7825 6.0324 18.6631C5.96911 18.4962 5.90902 18.3268 5.85276 18.1561C5.47684 17.0213 5.25308 15.8117 5.20705 14.5593C5.16102 13.3075 5.29655 12.1062 5.58744 10.9861C5.63155 10.8167 5.67886 10.6492 5.73001 10.4836C6.06948 9.38015 6.56495 8.36364 7.18637 7.46539C7.28098 7.32794 7.3788 7.19432 7.47981 7.06262C8.83452 5.29363 10.7071 4.04632 12.8641 3.59176C13.0175 3.55916 13.1729 3.53103 13.3295 3.50673C13.8371 3.42618 14.3576 3.39101 14.8895 3.40252C15.4226 3.41339 15.9469 3.47029 16.4609 3.57194C16.6194 3.60263 16.7767 3.63779 16.9333 3.67679C19.1256 4.22213 21.094 5.54936 22.5785 7.37781C22.6885 7.51334 22.7959 7.65207 22.9007 7.79272C23.5912 8.71782 24.1602 9.75735 24.5815 10.8762C24.6454 11.0462 24.7055 11.2163 24.7617 11.3876Z" fill="#CB1625"/>
<path d="M28.4296 15.0444C28.36 13.1744 27.986 11.3722 27.3588 9.7138C26.8128 8.25743 26.0719 6.90783 25.1755 5.70719C23.0735 2.8782 20.1166 0.86435 16.8069 0.220556C16.1382 0.0882166 15.4573 0.0159714 14.765 0.00254569C14.0726 -0.0115193 13.3968 0.0325952 12.737 0.137443C9.46887 0.643784 6.65589 2.53425 4.75841 5.28204C3.94776 6.44816 3.30652 7.76772 2.86284 9.20299C2.35906 10.8384 2.11484 12.6265 2.18453 14.4991C2.25421 16.371 2.62821 18.1688 3.25538 19.8323C3.80327 21.2861 4.54232 22.6357 5.44119 23.8364C7.5407 26.6679 10.4975 28.6773 13.8098 29.3204C14.4785 29.4528 15.1568 29.5269 15.8492 29.541C16.5416 29.5551 17.2174 29.5084 17.879 29.4042C21.1447 28.9004 23.9576 27.0093 25.8551 24.2615C26.6658 23.0954 27.307 21.7765 27.7481 20.3431C28.2532 18.7026 28.4993 16.9189 28.4296 15.0444Z" fill="#CB1625"/>
<path d="M25.025 18.5569C24.9809 18.7263 24.9323 18.8938 24.883 19.0587C24.5442 20.1622 24.0494 21.1793 23.4267 22.0757C23.3314 22.2125 23.2336 22.3474 23.132 22.4778C21.7805 24.2474 19.9079 25.4928 17.7528 25.948C17.5993 25.9806 17.444 26.0081 17.288 26.0318C16.7791 26.113 16.2593 26.1481 15.7249 26.1366C15.193 26.127 14.6706 26.0695 14.1547 25.9672C13.9968 25.9372 13.8389 25.902 13.6835 25.863C11.4907 25.3196 9.52353 23.993 8.03712 22.1652C7.9278 22.0303 7.82103 21.8909 7.71427 21.7496C7.02445 20.8252 6.45546 19.7843 6.03479 18.6649C5.97214 18.4974 5.9114 18.3305 5.85386 18.1586C5.47986 17.025 5.25483 15.8148 5.20816 14.563C5.16149 13.3112 5.29894 12.11 5.58919 10.9886C5.6333 10.8211 5.68189 10.6542 5.73303 10.4867C6.07251 9.38327 6.5667 8.36611 7.18939 7.46979C7.28273 7.33233 7.38246 7.19808 7.4822 7.06574C8.83626 5.29802 10.7088 4.05071 12.8665 3.59551C13.0199 3.56291 13.1753 3.53542 13.3313 3.51176C13.8402 3.43057 14.3599 3.39541 14.8918 3.40691C15.4238 3.41586 15.9486 3.47404 16.462 3.57633C16.6225 3.60638 16.7778 3.64155 16.9357 3.68118C18.0322 3.95289 19.0723 4.42215 20.0223 5.04933C20.9749 5.67905 21.8386 6.46606 22.5796 7.38156C22.6889 7.51837 22.7976 7.65583 22.9024 7.79712C23.5923 8.72157 24.1613 9.76238 24.5819 10.8793C24.6446 11.0487 24.7053 11.2188 24.7629 11.3901C25.1368 12.5236 25.36 13.7313 25.406 14.9837C25.452 16.2361 25.3152 17.4368 25.025 18.5569Z" fill="#CB1625"/>
<path d="M14.9329 4.55951C15.4111 4.56974 15.8829 4.62088 16.3458 4.71103C18.6339 5.15535 20.6784 6.54651 22.1309 8.50283C22.7498 9.3333 23.2619 10.2673 23.6397 11.2736C24.0732 12.4219 24.3327 13.6666 24.38 14.9606C24.4274 16.2546 24.2592 17.4897 23.9095 18.622C23.6046 19.6136 23.1609 20.5278 22.6021 21.334C21.289 23.2327 19.3454 24.5389 17.0868 24.8879C16.6303 24.9595 16.161 24.9909 15.6828 24.9813C15.2046 24.9717 14.7347 24.9199 14.2725 24.8298C11.9825 24.3854 9.93986 22.9962 8.48734 21.0399C7.86657 20.2094 7.35512 19.2747 6.97664 18.2691C6.54191 17.1208 6.28235 15.8761 6.2344 14.5821C6.18709 13.2881 6.35523 12.053 6.70493 10.9207C7.00989 9.92851 7.45549 9.01492 8.01425 8.20874C9.3274 6.30996 11.2709 5.00192 13.5315 4.65285C13.9874 4.5806 14.4547 4.54928 14.9329 4.55951Z" fill="white"/>
<path d="M7.12425 8.12799C7.0584 8.23476 7.08397 8.38691 7.18498 8.46747C7.22462 8.49943 7.26937 8.51606 7.31348 8.51669C7.37997 8.51797 7.4439 8.48473 7.48354 8.41952C7.57432 8.27439 7.6683 8.12863 7.76676 7.98734C8.05956 7.56411 8.3837 7.16773 8.73404 6.80588C8.81907 6.71637 8.82099 6.56294 8.73788 6.46128C8.69312 6.40822 8.63303 6.38073 8.57357 6.37945C8.52179 6.37817 8.47064 6.39799 8.43101 6.43827C8.06532 6.81866 7.72648 7.23294 7.41961 7.67471C7.31796 7.82303 7.21823 7.97455 7.12425 8.12799Z" fill="white"/>
<path d="M22.1744 23.111C22.2595 23.0234 22.2614 22.87 22.1783 22.7683C22.1342 22.7146 22.0747 22.6859 22.0159 22.6846C21.9641 22.6839 21.913 22.7038 21.8733 22.7453C21.406 23.2274 20.8907 23.6525 20.3358 24.0105C20.2348 24.0751 20.2054 24.2234 20.2687 24.3411C20.3121 24.4203 20.3876 24.4651 20.4617 24.4664C20.4982 24.467 20.5346 24.4574 20.5672 24.4363C21.149 24.0604 21.6879 23.6148 22.1744 23.111Z" fill="white"/>
<path d="M11.0506 24.1548C11.1056 24.0398 11.0647 23.8889 10.9592 23.8205C10.3774 23.4394 9.82951 22.9919 9.32637 22.4894C9.28354 22.4472 9.23175 22.4255 9.17997 22.4249C9.12051 22.4236 9.06234 22.4491 9.02078 22.5016C8.94534 22.6 8.95813 22.7535 9.05019 22.8449C9.57635 23.3704 10.1485 23.8371 10.7591 24.238C10.7942 24.2603 10.8313 24.2718 10.8678 24.2725C10.9413 24.2738 11.0122 24.2316 11.0506 24.1548Z" fill="white"/>
<path d="M7.9187 21.1637C8.01204 21.0864 8.02611 20.9355 7.95259 20.8243C7.54726 20.2246 7.19308 19.5801 6.899 18.8967C6.86 18.8053 6.77881 18.749 6.6957 18.7471C6.66693 18.7465 6.63752 18.7529 6.61003 18.7663C6.50326 18.82 6.45915 18.9626 6.51094 19.086C6.81909 19.8001 7.18925 20.4765 7.61375 21.1056C7.6585 21.1714 7.72435 21.2066 7.79148 21.2079C7.83623 21.2085 7.88099 21.1944 7.9187 21.1637Z" fill="white"/>
<path d="M24.4362 19.4491C24.4796 19.3276 24.4266 19.1831 24.3153 19.1249C24.2866 19.1102 24.2572 19.1032 24.2277 19.1026C24.1446 19.1013 24.0673 19.1537 24.0334 19.2439C23.7905 19.9158 23.4855 20.5481 23.1237 21.1324C23.0572 21.2392 23.0834 21.3907 23.1825 21.4738C23.2221 21.5058 23.2675 21.5217 23.311 21.5224C23.3781 21.5237 23.4427 21.4904 23.4829 21.4258C23.8633 20.8134 24.1817 20.1517 24.4362 19.4491Z" fill="white"/>
<path d="M10.0361 5.11269C9.93701 5.17726 9.9076 5.32558 9.97089 5.44322C10.0144 5.52185 10.0879 5.56661 10.1614 5.56788C10.1985 5.56852 10.2356 5.55829 10.2695 5.53656C10.8193 5.18238 11.4055 4.89212 12.0244 4.67412C12.1369 4.6332 12.1931 4.49702 12.1516 4.3698C12.1183 4.26623 12.0314 4.19974 11.9413 4.19782C11.9189 4.19718 11.8965 4.20102 11.8748 4.20869C11.2265 4.43629 10.6108 4.74124 10.0361 5.11269Z" fill="white"/>
<path d="M17.671 4.47568C17.639 4.60163 17.7068 4.73972 17.8206 4.78383C18.458 5.0255 19.0692 5.33876 19.6452 5.71596C19.6797 5.73834 19.7175 5.74985 19.7545 5.75048C19.8293 5.7524 19.9009 5.71021 19.9374 5.63285C19.9924 5.51777 19.9514 5.36753 19.846 5.29912C19.2431 4.90467 18.6044 4.57606 17.937 4.32353C17.9146 4.31521 17.8916 4.31074 17.8698 4.3101C17.7771 4.30818 17.6953 4.37275 17.671 4.47568Z" fill="white"/>
<path d="M23.806 10.3167C23.6993 10.3685 23.6564 10.513 23.7089 10.6364C23.7837 10.8058 23.854 10.9797 23.9198 11.1555C24.1135 11.6676 24.2734 12.1982 24.3968 12.7448C24.4217 12.8593 24.5144 12.9386 24.6154 12.9411C24.6301 12.9417 24.6455 12.9405 24.6602 12.9373C24.7752 12.9104 24.8443 12.7832 24.8155 12.6521C24.6857 12.0806 24.5182 11.525 24.3156 10.9899C24.2478 10.8058 24.173 10.6255 24.0963 10.4458C24.0579 10.3551 23.9767 10.2988 23.8936 10.2975C23.8642 10.2962 23.8342 10.3026 23.806 10.3167Z" fill="white"/>
<path d="M5.62104 12.2869C5.60186 12.4192 5.6805 12.5497 5.79941 12.5791C5.81411 12.5829 5.82946 12.5848 5.84352 12.5855C5.94326 12.5874 6.0302 12.5113 6.04682 12.3975C6.13185 11.8432 6.25396 11.3081 6.41187 10.7928C6.46302 10.6298 6.51608 10.4693 6.57298 10.3108C6.61645 10.1893 6.56339 10.0448 6.45215 9.98855C6.42274 9.97321 6.39206 9.96553 6.36265 9.96489C6.27954 9.96298 6.20282 10.016 6.17085 10.1055C6.11268 10.2724 6.05577 10.4393 6.00271 10.6087C5.83713 11.1476 5.70863 11.7096 5.62104 12.2869Z" fill="white"/>
<path d="M14.9202 25.5206C14.9285 25.3876 14.8371 25.2655 14.7188 25.2508C14.5577 25.2284 14.396 25.2003 14.2368 25.1702C13.7407 25.0731 13.2542 24.9337 12.783 24.754C12.7613 24.7457 12.7389 24.7419 12.7178 24.7413C12.6264 24.7393 12.5439 24.802 12.5177 24.9056C12.4857 25.0315 12.5535 25.1696 12.6673 25.2137C13.1608 25.4004 13.6678 25.5481 14.1882 25.6478C14.3557 25.6804 14.5226 25.7092 14.6926 25.7328C14.6997 25.7335 14.7067 25.7341 14.7131 25.7348C14.8224 25.7367 14.9145 25.6472 14.9202 25.5206Z" fill="white"/>
<path d="M24.9889 17.2672C25.102 16.5288 25.1455 15.7635 25.1167 14.9765L25.1161 14.9516C25.111 14.816 25.0112 14.7067 24.8911 14.7041C24.7715 14.7016 24.6794 14.8096 24.6839 14.9426L24.6852 14.9675C24.7127 15.7194 24.6699 16.4533 24.5624 17.1566C24.5433 17.2889 24.6219 17.4187 24.7389 17.4487C24.7542 17.4526 24.7689 17.4545 24.7837 17.4545C24.8853 17.4571 24.9722 17.381 24.9889 17.2672Z" fill="white"/>
<path d="M6.05953 17.0712C6.17461 17.0444 6.24365 16.9172 6.21488 16.7861C6.05441 16.0752 5.95724 15.3406 5.92783 14.5869C5.92271 14.4552 5.8249 14.3439 5.70663 14.3414C5.58516 14.3388 5.49118 14.4449 5.49629 14.5798C5.52698 15.3668 5.62927 16.1353 5.79677 16.8795C5.8217 16.9939 5.9144 17.0738 6.01542 17.0757C6.02948 17.0757 6.04419 17.0744 6.05953 17.0712Z" fill="white"/>
<path d="M13.8604 3.76956C13.7428 3.78171 13.6603 3.89807 13.6782 4.0336C13.6948 4.15763 13.7927 4.25289 13.9013 4.25545C13.909 4.25545 13.9167 4.25545 13.9244 4.25481C14.2517 4.2222 14.5809 4.20814 14.9185 4.21517C15.2433 4.2222 15.5668 4.24714 15.8839 4.29189C15.8922 4.29253 15.8998 4.29317 15.9075 4.29381C16.0175 4.29636 16.1063 4.20494 16.114 4.079C16.1204 3.94602 16.0309 3.82583 15.9107 3.8092C15.5789 3.76509 15.2407 3.73696 14.9012 3.72993C14.5483 3.72162 14.2018 3.73504 13.8604 3.76956Z" fill="white"/>
<path d="M22.6554 8.70694C22.5601 8.5682 22.461 8.42883 22.36 8.29394C22.0282 7.84705 21.6664 7.4283 21.2796 7.04279C21.1875 6.95136 21.1747 6.79793 21.2508 6.69947C21.2911 6.64705 21.3493 6.62084 21.4081 6.62211C21.4592 6.62339 21.5116 6.64449 21.5545 6.68733C21.9604 7.0901 22.3376 7.52739 22.6848 7.99345C22.7896 8.13474 22.8926 8.27987 22.9923 8.42691C23.0684 8.53688 23.0517 8.68967 22.959 8.76703C22.922 8.79772 22.8779 8.81178 22.8337 8.81114C22.7666 8.80986 22.7001 8.77406 22.6554 8.70694Z" fill="white"/>
<path d="M18.646 24.8614C18.7374 24.8633 18.8237 24.9298 18.8576 25.0334C18.8991 25.1612 18.8416 25.2968 18.7303 25.3358C18.2477 25.5065 17.7452 25.6305 17.2286 25.7111C17.0688 25.7366 16.9057 25.7584 16.7421 25.7737C16.7344 25.7743 16.7267 25.775 16.7191 25.7743C16.6104 25.7718 16.5126 25.6772 16.4966 25.5525C16.4787 25.417 16.5612 25.3006 16.6788 25.2885C16.8367 25.2731 16.9908 25.2533 17.1448 25.2296C17.6397 25.1529 18.1185 25.0321 18.5795 24.8716C18.6012 24.8646 18.6236 24.8608 18.646 24.8614Z" fill="white"/>
<path d="M24.583 10.8795C24.1617 9.76001 23.5928 8.72112 22.9023 7.79603C22.7974 7.65474 22.69 7.51664 22.5801 7.38111L25.177 5.70801C26.0727 6.90929 26.8143 8.25953 27.3596 9.71526L24.7627 11.389C24.7058 11.2177 24.6463 11.0476 24.583 10.8795Z" fill="white"/>
<path d="M24.883 19.0576C24.9335 18.8933 24.9808 18.7264 25.0249 18.5576L27.7496 20.342C27.3098 21.7753 26.6666 23.0961 25.8579 24.2623L23.1338 22.4779C23.2342 22.3469 23.332 22.2126 23.4266 22.0758C24.0499 21.1782 24.5435 20.161 24.883 19.0576Z" fill="white"/>
<path d="M5.73192 10.4858C5.68077 10.6514 5.63346 10.8189 5.58935 10.9883L2.86523 9.20396C3.307 7.76869 3.94951 6.44786 4.75888 5.28174L7.48172 7.06544C7.38135 7.1965 7.28353 7.33075 7.18892 7.46821C6.56686 8.36581 6.07139 9.38297 5.73192 10.4858Z" fill="white"/>
<path d="M12.7393 0.137805C13.399 0.0329563 14.0741 -0.0105168 14.7665 0.00354821C15.4589 0.0176132 16.1398 0.0898557 16.8085 0.222195L16.9357 3.67963C16.7791 3.64063 16.6218 3.60611 16.4633 3.57478C15.9486 3.47249 15.425 3.41623 14.8918 3.40536C14.3606 3.3945 13.8395 3.42902 13.3319 3.50957C13.1753 3.53387 13.0206 3.562 12.8665 3.5946L12.7393 0.137805Z" fill="white"/>
<path d="M17.8806 29.4053L15.7043 29.9264C15.0446 30.0312 14.3675 30.0773 13.6758 30.0626C12.9834 30.0485 12.3038 29.9737 11.6357 29.8414L13.812 29.3203C14.4807 29.4527 15.1603 29.5275 15.852 29.5415C16.5431 29.5556 17.2202 29.5102 17.8806 29.4053Z" fill="white"/>
<mask id="mask0_541_3" style="mask-type:luminance" maskUnits="userSpaceOnUse" x="11" y="29" width="7" height="2">
<path d="M17.8806 29.4053L15.7043 29.9264C15.0446 30.0312 14.3675 30.0773 13.6758 30.0626C12.9834 30.0485 12.3038 29.9737 11.6357 29.8414L13.812 29.3203C14.4807 29.4527 15.1603 29.5275 15.852 29.5415C16.5431 29.5556 17.2202 29.5102 17.8806 29.4053Z" fill="white"/>
</mask>
<g mask="url(#mask0_541_3)">
<path d="M17.8806 29.4053L15.7043 29.9264C15.0446 30.0312 14.3675 30.0773 13.6758 30.0626C12.9834 30.0485 12.3038 29.9737 11.6357 29.8414L13.812 29.3203C14.4807 29.4527 15.1603 29.5275 15.852 29.5415C16.5431 29.5556 17.2202 29.5102 17.8806 29.4053Z" fill="white"/>
</g>
<path d="M15.7265 26.1375C16.2597 26.1484 16.7801 26.1139 17.2884 26.0333C17.445 26.009 17.5997 25.9809 17.7538 25.9483L17.881 29.4057C17.2206 29.5106 16.5442 29.5566 15.8518 29.5419C15.1601 29.5279 14.4805 29.4531 13.8118 29.3207L13.6846 25.8633C13.8406 25.9023 13.9985 25.9368 14.157 25.9681C14.671 26.0698 15.1946 26.1267 15.7265 26.1375Z" fill="white"/>
<mask id="mask1_541_3" style="mask-type:luminance" maskUnits="userSpaceOnUse" x="0" y="5" width="5" height="5">
<path d="M2.86504 9.20445L0.689453 9.72549C1.13058 8.29022 1.77373 6.96939 2.5831 5.80327L4.75869 5.28223C3.94932 6.44771 3.30617 7.76918 2.86504 9.20445Z" fill="white"/>
</mask>
<g mask="url(#mask1_541_3)">
<path d="M2.86504 9.20445L0.689453 9.72549C1.13058 8.29022 1.77373 6.96939 2.5831 5.80327L4.75869 5.28223C3.94932 6.44771 3.30617 7.76918 2.86504 9.20445Z" fill="white"/>
</g>
<path d="M6.03371 18.6655C6.45502 19.785 7.02401 20.8239 7.71447 21.7496C7.81932 21.8909 7.92736 22.029 8.03796 22.1652L5.44235 23.8376C4.54475 22.6363 3.80507 21.2861 3.25781 19.8329L5.85471 18.1592C5.91097 18.3292 5.97042 18.498 6.03371 18.6655Z" fill="white"/>
<path d="M5.44279 23.8372L3.26657 24.3583C2.36833 23.1563 1.62928 21.8067 1.08203 20.3529L3.25826 19.8325C3.80551 21.2857 4.54456 22.6359 5.44279 23.8372Z" fill="white"/>
<mask id="mask2_541_3" style="mask-type:luminance" maskUnits="userSpaceOnUse" x="1" y="19" width="5" height="6">
<path d="M5.44182 23.8372L3.26559 24.3583C2.36735 23.1563 1.62831 21.8067 1.08105 20.3529L3.25728 19.8325C3.80453 21.2857 4.54358 22.6359 5.44182 23.8372Z" fill="white"/>
</mask>
<g mask="url(#mask2_541_3)">
<path d="M5.44182 23.8372L3.26559 24.3583C2.36735 23.1563 1.62831 21.8067 1.08105 20.3529L3.25728 19.8325C3.80453 21.2857 4.54358 22.6359 5.44182 23.8372Z" fill="white"/>
</g>
<path d="M12.7385 0.137207C12.7385 0.137207 12.5864 0.168533 12.3006 0.226711C12.0155 0.286168 11.6018 0.391017 11.0865 0.559157C10.5738 0.733052 9.95878 0.972157 9.29389 1.32762C8.62965 1.68244 7.91745 2.1517 7.20973 2.74755C6.50456 3.34467 5.80388 4.06902 5.17735 4.92187C5.10063 5.02927 5.02391 5.13796 4.94592 5.24728L4.88774 5.32912L4.87304 5.34957L4.86217 5.36684L4.83532 5.41031L4.72663 5.58421C4.58279 5.81692 4.43191 6.05091 4.2887 6.29065C4.16084 6.53551 4.03106 6.78229 3.90064 7.03226C3.83159 7.15501 3.77214 7.28351 3.7178 7.41585C3.6609 7.54691 3.604 7.67861 3.54646 7.81095C3.48892 7.94329 3.43202 8.07563 3.37384 8.20925C3.3259 8.3467 3.27859 8.48416 3.23064 8.62289C3.18269 8.76098 3.13474 8.89971 3.08615 9.03908L3.01327 9.24814L2.95893 9.45912C2.88413 9.74937 2.80805 10.0409 2.73261 10.335C2.68914 10.4814 2.66868 10.6291 2.64375 10.7768L2.56831 11.2211C2.44428 11.8099 2.42702 12.4249 2.36756 13.0336C2.35286 13.3391 2.36309 13.6467 2.35989 13.9535L2.35925 14.4145C2.35797 14.5539 2.38099 14.7201 2.39058 14.8716L2.46027 15.8005C2.49671 16.1061 2.55233 16.4047 2.59708 16.7071L2.66804 17.1584C2.69553 17.308 2.73773 17.4557 2.77161 17.604C2.84321 17.9007 2.91418 18.1961 2.98578 18.4908C3.07976 18.7785 3.1731 19.0655 3.2658 19.3507L3.40389 19.7726C3.46143 19.912 3.51897 20.0507 3.57651 20.1894C3.69606 20.4631 3.79387 20.7495 3.92877 21.0071C4.05855 21.268 4.18769 21.5275 4.31555 21.7845C4.45173 22.0377 4.60452 22.2813 4.74581 22.5262C4.88326 22.7749 5.04309 23.0056 5.20036 23.2345C5.27836 23.3496 5.35572 23.464 5.43307 23.5772L5.54879 23.7473L5.67346 23.9052C5.84351 24.12 6.01165 24.3316 6.17788 24.5413C6.3377 24.7574 6.51991 24.9421 6.69572 25.1288C6.87153 25.3155 7.04478 25.4996 7.21484 25.6806C7.39449 25.8525 7.58181 26.0111 7.76018 26.1728C7.94238 26.3295 8.10924 26.4982 8.29528 26.637C8.48132 26.7751 8.66289 26.9106 8.84062 27.0423C9.0209 27.1702 9.18521 27.314 9.36997 27.4176C9.73118 27.6356 10.0649 27.86 10.3954 28.0396C10.7336 28.2065 11.0501 28.3631 11.3423 28.5076C11.6408 28.6387 11.9266 28.7333 12.1785 28.8324C12.3057 28.8804 12.4253 28.9257 12.5384 28.9686C12.6516 29.0114 12.7634 29.0331 12.8638 29.0632C13.0671 29.1182 13.2404 29.1655 13.381 29.2032C13.6623 29.2793 13.8126 29.3202 13.8126 29.3202C13.8126 29.3202 13.661 29.2857 13.3772 29.2217C13.2353 29.1898 13.0595 29.1495 12.853 29.1035C12.7507 29.0773 12.6369 29.0613 12.5218 29.0223C12.4067 28.9833 12.2852 28.9411 12.1561 28.897C11.8997 28.8056 11.6088 28.7192 11.3039 28.5965C11.0047 28.4597 10.6806 28.3126 10.3347 28.1547C9.99522 27.984 9.65127 27.7686 9.27855 27.5589C9.08739 27.4604 8.91989 27.3172 8.73449 27.1913C8.55165 27.0608 8.36497 26.9272 8.17381 26.7904C7.98266 26.6536 7.81068 26.4861 7.62272 26.3307C7.4386 26.1703 7.24553 26.0124 7.05949 25.841C6.88176 25.6595 6.70083 25.4747 6.51735 25.2874C6.33323 25.1001 6.14207 24.9121 5.98033 24.7011C5.81027 24.4953 5.63829 24.2862 5.46376 24.0752L5.32951 23.9116L5.20868 23.7409C5.12812 23.6271 5.04693 23.512 4.9651 23.3969C4.88326 23.2812 4.80143 23.1655 4.71832 23.0485C4.63649 22.9315 4.56872 22.8043 4.49264 22.6815C4.34688 22.4322 4.19025 22.1867 4.04896 21.9278C3.91598 21.6644 3.78173 21.3984 3.64619 21.1305C3.50554 20.8639 3.40901 20.5852 3.2869 20.3103C3.22872 20.1722 3.17054 20.0335 3.11173 19.8947C3.0625 19.749 3.01327 19.6026 2.96404 19.4555C2.86751 19.1653 2.77033 18.8731 2.67252 18.5803C2.59836 18.2804 2.52356 17.98 2.44812 17.6782C2.41232 17.5267 2.36884 17.3771 2.34007 17.2236L2.264 16.7589C2.21605 16.4488 2.15659 16.1374 2.11823 15.8274L2.04343 14.8984C2.03448 14.7399 2.01402 14.5967 2.01466 14.4253L2.01786 13.9548C2.02297 13.6415 2.0153 13.3276 2.03192 13.0156C2.0965 12.3936 2.11823 11.7709 2.24993 11.1603L2.33112 10.7026C2.35798 10.5504 2.38163 10.397 2.4251 10.2525C2.5031 9.9597 2.58046 9.66817 2.65717 9.37856L2.71663 9.15544L2.79207 8.94255C2.84194 8.80062 2.89244 8.65933 2.94167 8.51804C2.99154 8.37739 3.0414 8.23674 3.09063 8.09673C3.15008 7.96119 3.20954 7.82566 3.269 7.69076C3.32845 7.5565 3.38727 7.42225 3.44673 7.28863C3.50299 7.15437 3.56436 7.02267 3.63724 6.89609C3.77597 6.64036 3.91279 6.38783 4.04832 6.13721C4.19728 5.89875 4.35136 5.66923 4.50032 5.43844L4.6122 5.2671L4.64033 5.22427L4.65759 5.19933L4.67293 5.17888L4.73367 5.0964C4.81486 4.98644 4.89541 4.87776 4.97597 4.76907C5.63126 3.91239 6.3588 3.18932 7.08634 2.59603C7.81452 2.00146 8.55293 1.54882 9.23571 1.2119C9.91914 0.873702 10.5463 0.652498 11.0673 0.493307C11.3295 0.419146 11.5635 0.350739 11.7719 0.311101C11.979 0.266349 12.1542 0.225432 12.2987 0.206252C12.5851 0.1615 12.7385 0.137207 12.7385 0.137207Z" fill="white"/>
<path d="M10 19.8494V10.1506H10.8933V17.9819H12.5799V19.8494H10Z" fill="#4B4B4B"/>
<path d="M14.5416 20C13.9609 20 13.5189 19.5984 13.2156 18.7952C12.9123 17.992 12.7606 16.742 12.7606 15.0452C12.7606 13.248 12.9123 11.9578 13.2156 11.1747C13.5189 10.3916 13.9609 10 14.5416 10C15.1223 10 15.5643 10.3916 15.8676 11.1747C16.1709 11.9578 16.3226 13.248 16.3226 15.0452C16.3226 16.742 16.1709 17.992 15.8676 18.7952C15.5643 19.5984 15.1223 20 14.5416 20ZM14.5416 17.9367C14.8412 17.9367 15.0594 17.7058 15.1963 17.244C15.3368 16.7721 15.4071 16.0392 15.4071 15.0452C15.4071 13.9608 15.3368 13.1978 15.1963 12.756C15.0594 12.3042 14.8412 12.0783 14.5416 12.0783C14.2383 12.0783 14.0164 12.3042 13.8758 12.756C13.739 13.1978 13.6705 13.9608 13.6705 15.0452C13.6705 16.0392 13.739 16.7721 13.8758 17.244C14.0164 17.7058 14.2383 17.9367 14.5416 17.9367Z" fill="#4B4B4B"/>
<path d="M17.2772 19.8494L16.445 10.1506H17.3216L17.7932 15.994L18.2814 11.5211V10.1506H19.0138L19.6296 16.009L20.1234 10.1506H21L20.1733 19.8494H19.3467L18.7474 14.247L18.1039 19.8494H17.2772Z" fill="#4B4B4B"/>
</svg>
