<svg width="209" height="187" fill="none" xmlns="http://www.w3.org/2000/svg">
  <path d="M202.5 93H5.8v87.4h196.7V93Z" fill="#A97C50"/>
  <path d="M202.5 93h-98.3v87.4h98.3V93Z" fill="#94673C"/>
  <path d="M198.6 77H0v17.4c0 22.5 46.6 40.8 104.2 40.8 57.5 0 104.1-18.3 104.1-40.8V77h-9.7Z" fill="#1D232D"/>
  <path d="M198.6 73H0v17.3C0 112.8 46.6 131 104.2 131c57.5 0 104.1-18.3 104.1-40.8V73h-9.7Z" fill="#414042"/>
  <path d="M193.3 73.4H5.8v16.3c0 21.3 44 38.6 98.4 38.6 54.3 0 98.3-17.3 98.3-38.6V73.4h-9.2Z" fill="#58A350"/>
  <path d="M110.5 115.7v.1h1v.3h.3v1h-.3v.9h.3v.9h-.3v1h.3v.8h-.3v1h.3v.2c0 .3 0 .5-.2.7h-.2l-.6.8h.2l-1 .9-.3-.1-1.5.6.2.1-1.9.5-2 .2v.1a20.8 20.8 0 0 1-2.2 0l-2-.2-.1.1a17 17 0 0 1-2-.4h.1l-1.6-.6h-.2c-.5-.1-1-.4-1.4-.6l.3-.1-1-.8h-.2a2 2 0 0 1-.4-.9h.3V121.3h-.3v-1h.3v-.9h-.3v-.9h.3v-1h-.3v-.8h.3v-.9h16.4ZM63.1 110l1 .3.2-.1 1.9.4-.2.1 1.9.5h.1l1.9.4-.2.1 1.9.5.1-.1 1.8.5 1.8.6.1-.1 1.8.5.8.3-.4.2h.3l-1.2.9-.2-.1-1.2.8h.3l-1.2.8h-.2l-1.1.8h.2l-1.1.8h-.3l-1.1.7.2.1-.3.2-1 .6-.1-.1-1.6.6h.1c-.6.3-1.2.4-1.9.5v-.1l-2.1.2v.1a20.2 20.2 0 0 1-2.1 0l-2-.3-.2.1a16.2 16.2 0 0 1-1.9-.4l.2-.1-1.6-.6h-.2c-.5-.2-.9-.4-1.2-.7h.2c-.3-.3-.6-.6-.7-.9h-.3l-.3-.9h.3l.3-.9h-.3l.8-.9.2.1.3-.2.8-.6h-.2l1.1-.8h.3l1.1-.8h-.2l1.1-.8h.2l1.2-.7-.2-.1 1.1-.8h.2l1-.6ZM44 98l.6.5h.2l1 .8h-.2l1 .9h.2l1 .8h-.3l1 .8h.2l1 .8h-.3l1 .9h.3l1 .8h-.3l.4.4-.5.1.1.1-2 .5v-.2l-2 .5h.1l-2 .5v-.1l-2 .4.1.1-2 .4-2 .3.1.1-.5.2-1.4.2-.1-.1-2 .1v.2a24.1 24.1 0 0 1-2.2-.1v-.1c-.7 0-1.3-.2-2-.3l-.1.1-1.8-.5h.1a9 9 0 0 1-1.5-.7H28a5.6 5.6 0 0 1-1-.7h.2c-.3-.4-.5-.6-.6-1h-.3c-.1-.2-.2-.5-.1-.8h.3c0-.3.1-.6.4-1h-.3l.9-.8h.2l1.3-.6-.1-.1 1.7-.6.1.1.6-.1 1.3-.3v-.1l1.9-.4 2-.3-.1-.1 2-.4 2-.4h-.1l2-.5v.1l1.7-.3ZM142.4 110l1 .7h.2l1.2.7h-.2l1 .8h.3l1.2.8h-.3l1.2.8h.2l1.2.8h-.3l.8.6.3.2h.3c.3.2.6.5.7.8h-.2c.2.3.2.6.2 1h.3c0 .2 0 .5-.3.8h-.2l-.8.9h.3l-1.3.8-.2-.1-1.5.6h.1a14.3 14.3 0 0 1-1.9.5l-.1-.1-2 .2v.1a21 21 0 0 1-2.2 0l-2-.3v.1l-2-.4.2-.1-1.6-.6h-.2a7 7 0 0 1-1-.5l-.3-.2h.3l-1.2-.8h-.2l-1.2-.8h.3l-1.2-.8h-.2l-1.1-.8h.2l-1.1-.8h-.3l-1.1-.7h.2l-.3-.3.8-.2-.1-.1 1.8-.5h.2l1.8-.4-.1-.1 1.8-.5.2.1 1.8-.5h-.1l1.8-.6.2.1 1.8-.5h-.1l1.8-.5h.2l1-.2ZM151.5 91v.1h1.7v.5c.2.3.1.6 0 1-.3.2-.4.5-.5.8h.2c0 .4-.2.7-.4 1h-.2l-.6.8h.2l-.6 1-.3-.1-.7.8h.2l-.9.9h-.2l-1 .7h.2l-1 .9-.2-.1-1.1.7.1.1-1.2.7h-.1l-1.3.6.2.1-1.4.7-.1-.1-1.4.6.1.1-1.4.6h-.2l-1.4.5.1.1-1.5.6-.2-.1-1.5.5.1.1-1.6.5-.1-.1-1.7.5h.1a82 82 0 0 1-3.5.8l.1.1-1.7.4h-.1l-1.8.3h.1l-1.8.4v-.1c-.7 0-1.3.2-1.9.3h.1l-1.8.4-.1-.2-1.8.3c-.6.2-1.2.2-1.9.3v-.1l-1.9.2-1.8.2h-2v.1l-1.8.1h-2l-1.7.1-.2-.1h-1.9v.1h-1.9v-.1l-1.9-.1v.1h-2l.1-.2-1.9-.1H93v-.2l-1.8-.2v.1c-.7 0-1.3 0-2-.2h.1l-1.8-.3-2-.2.2-.1-1.9-.3v.1l-1.8-.3v-.1l-1.7-.4v.1l-1.8-.4-1.6-.5h-.1c-.6 0-1.2-.2-1.7-.4h.1l-1.6-.5h-.2l-1.6-.4.2-.1-1.6-.6-.1.1-1.5-.5.1-.1-1.5-.6h-.1l-1.5-.6h.2l-1.4-.7-.1.1c-.5-.2-1-.4-1.3-.7h.1l-1.2-.7h-.2l-1.2-.7h.2l-1-.8h-.3a24 24 0 0 1-1-.7l.2-.1-1-.8h-.2l-.8-.8c0-.3-.3-.6-.6-.9H56a12 12 0 0 1-.6-.8h.2l-.5-1c-.4-.2-.5-.5-.6-.8h.2l-.3-1c-.3-.2-.3-.5-.3-.8.2-.1.2-.2.2-.3H62v.3l.4 1c-.1.3 0 .6.2.9h.2l.6.8H63l.8 1 .2-.1 1 .8h-.3l1 .8h.2l1.1.7-.1.1 1.2.7h.2l1.3.6-.2.1 1.4.7.1-.1 1.5.6h-.2l1.5.7.2-.1 1.5.5-.1.1 1.6.5h.1l1.6.4v.1l1.6.5.1-.1 1.7.4v.1l1.7.4v-.1l1.8.3v.1l1.7.4.1-.1 1.8.3 1.8.3 2 .1-.1.2 1.9.1h2l-.1.2 2 .1h1.8v.1h2a109.4 109.4 0 0 0 1.9 0h2-.1l2-.2v.2l1.8-.2 1.9-.2v.1l2-.2h-.1l1.8-.3.1.1 1.8-.2v-.1l1.8-.3 1.9-.2v-.1l1.7-.4v.1l1.8-.4 1.7-.5v.1l1.8-.4-.1-.1a65 65 0 0 0 1.6-.5l.1.1 1.6-.5c.4-.3 1-.4 1.5-.6h.1l1.5-.5-.1-.1 1.4-.6h.2c.5-.1 1-.3 1.4-.6h-.2l1.4-.7h.1l1.3-.6-.2-.1 1.2-.8.2.1 1-.8h-.2l1-.8h.2l.8-.8h-.2l.6-1h.2l.5-.8h-.2l.2-1c.3-.2.3-.4.3-.6h6.1ZM161.5 98l1.7.4h.1l2 .3-.2.1 2 .5.1-.1 2 .4h-.2l2 .5.1-.1 2 .4-.2.1 1.4.3.5.1h.2c.6 0 1.2.3 1.7.5h-.2l1.3.8h.2l1 .8h-.3l.4.9h.3c0 .3 0 .6-.2.9h-.2l-.6.8h.2l-.2.2c-.2.3-.5.5-.9.7l-.2-.1-1.5.6.2.1-1.9.5v-.1l-2 .3a21 21 0 0 1-2.2.2v-.2l-2-.1h-.1c-.5 0-1 0-1.4-.2h-.6l.1-.2-2-.4v.1l-2-.4.1-.1-2-.4-2-.3.2-.1-2-.5-.1.2-2-.5h.2l-.6-.2.5-.4h-.3l1-.9.2.1 1-.8h-.2l1-1 .2.1 1-.8h-.3l1-.9h.2l1-.7-.2-.1 1-.8h.2l.5-.4Z" fill="#227F3A"/>
  <rect x="91" y="85" width="8" height="12" rx="1" fill="#fff"/>
  <path d="M95 89c.5 0 1 .5 1 1l-.1.4h.1a1 1 0 0 1 .8 1 1 1 0 0 1-1 1l-.2-.1a.9.9 0 0 1-.5-.4c0 .2 0 .4.2.6l.3.3h-1.2l.3-.3.3-.6a1 1 0 0 1-.9.5 1 1 0 0 1-.9-1c0-.5.4-1 1-1l-.1-.3c0-.6.4-1 .9-1ZM92 88v-.2l.6-.7.2-.1v-.2l.1-.1v-.1l-.1-.1h-.5v.2H92v-.3l.3-.2h.6l.3.2v.5l-.1.2-.3.3-.3.3h.8v.3H92ZM96.7 96v-.2l.6-.7.2-.1v-.5H97l-.1.2h-.3v-.3l.3-.2h.6l.2.2.1.3v.2l-.2.2-.2.3-.4.3h.8v.3h-1.2Z" fill="#414042"/>
  <path d="M57.8 99.2v.2h-.4c-.1 0 0-.1 0-.2a.4.4 0 0 1 .4 0Z" fill="#F49E2D"/>
  <path d="M56.9 98.2s.2.4 0 .7l-.1.2a.7.7 0 0 1-.6 0 .3.3 0 0 1-.2-.3l-.2.3h-.2l-.2-.2H56l-.6-.1c-.2-.2-.1-.4 0-.5h.5l1-.1ZM59.7 99.6l.1.2-.5.2-.7.2H58.3c-.2-.2-.2-.3 0-.4l.4-.2h1ZM51 99.3c0 .1 0 .2-.2.3h-.4l.5-.3Z" fill="#048ABF"/>
  <path d="M59 102.1c.1.1.1.2 0 .2h-.3c-.1 0-.1-.1 0-.2H59ZM60.7 97.4h-.3c-.1 0-.1-.1 0-.2l.3.2Z" fill="#F49E2D"/>
  <path d="m55.3 103.8.1.1.3.4a3 3 0 0 1-.3 0l-.1-.5Z" fill="#F22233"/>
  <path d="M55 104.5c0 .1.1.1 0 .2a.4.4 0 0 1-.4 0v-.2a.4.4 0 0 1 .4 0Z" fill="#F49E2D"/>
  <path d="m56.8 104.2-.3.3-.1.4-.7-.6-.3-.4a6.9 6.9 0 0 0 1.4.3Z" fill="#F22233"/>
  <path d="m56.2 105-.7.5c-.2-.2 0-.3 0-.4h.2l.5-.1Z" fill="#048ABF"/>
  <path d="M54 105.2v.7l-.4-.1-1-.5h.7l.7-.1Z" fill="#F22233"/>
  <path d="m54.5 103 .1.1Z" fill="#F49E2D"/>
  <path d="M69.5 102.1c.2.2 0 .4 0 .5h.5l.1.1c.1.2 0 .3-.1.4h-.3l-.2.1a6 6 0 0 1-1.3-.2l.2-.5.3-.3c.2-.1.5-.2.7 0h.1Z" fill="#F22233"/>
  <path d="M67.6 103.1v.3H67.3v-.3h.3Z" fill="#F49E2D"/>
  <path d="M67.4 102s0 .3-.3.5l-.2.2-.3.1h-.2a.6.6 0 0 1-.3 0c-.1-.2 0-.4 0-.4l-.2.2-.1.1-.2-.1-.1-.2H66l-.4-.1c-.1-.2 0-.3 0-.4h.7l1 .1ZM59.3 100l-.2.1h-.5l.7-.1Z" fill="#048ABF"/>
  <path d="M62.9 100.8v.3h-.4v-.3a.4.4 0 0 1 .4 0Z" fill="#F49E2D"/>
  <path d="m62.6 99.8-.3.3-.1.4-.7-.1h-.6c0-.1 0-.3.2-.4l.1-.5.7.2h.7Z" fill="#F22233"/>
  <path d="M61.5 101.3c.1.1 0 .3 0 .4H61c.1.2 0 .3 0 .4h-.2a.8.8 0 0 1-.6 0v-.3h-.1l-.2.1v.1l-.2-.1-.2-.2h.6a.7.7 0 0 1-.3 0l-.1-.1c-.1-.1 0-.3 0-.4h.2a.8.8 0 0 1 .6 0v.1H61.6Z" fill="#048ABF"/>
  <path d="m63.5 104.2.1.1v.2h.2l.4.1c.2.2 0 .4 0 .5H62.3v-.7h.1a.6.6 0 0 1 .2-.2c.2-.1.5-.2.8 0Z" fill="#F22233"/>
  <path d="M63.4 103.3c.1.1.1.3 0 .4a.9.9 0 0 1-.4 0v.1l-.6.3h-.2c-.1-.2-.1-.3 0-.4l-.3.2v.1l-.2-.1-.1-.2h.5-.3v-.1c-.2-.1-.2-.3 0-.4H63.4Z" fill="#048ABF"/>
  <path d="M65.7 101.2c.1 0 0 .1 0 .2h-.4v-.2h.4ZM60.1 100.5c.1 0 0 .1 0 .2a.4.4 0 0 1-.3 0h-.1v-.2h.4Z" fill="#F49E2D"/>
  <path d="m57.9 102.6-.3.5a.7.7 0 0 1-.4.3h-.5c-.2-.2-.1-.4 0-.4h-.2l-.1.2H56l-.1-.2H56.6l-.4-.1v-.4h.3l.1-.1H57l1 .2Z" fill="#048ABF"/>
  <path d="M56.2 101.7v.2H56a.4.4 0 0 1-.3 0c-.1 0 0-.1 0-.2h.3Z" fill="#F49E2D"/>
  <path d="M58.1 100.8c.2.1 0 .3 0 .4l.5.1h.1l-.1.4-.3.1a6.5 6.5 0 0 1-1.4-.2h-.1s.1-.6.5-.8l.6-.1h.2Z" fill="#F22233"/>
  <path d="M59.7 104.5a1.4 1.4 0 0 1-.3.6.7.7 0 0 1-.4.2h-.5c-.2-.2 0-.4 0-.4h-.2l-.1.2H58l-.2-.2h.7l-.5-.1v-.4h.4c.4-.2 1.3 0 1.3 0Z" fill="#048ABF"/>
  <path d="M60.9 104V104.4h-.3a.3.3 0 0 1-.1 0v-.2a.4.4 0 0 1 .4 0Z" fill="#F49E2D"/>
  <path d="M60 102.6c.2.2.1.4 0 .4h.3l.3.1v.4l-.4.1H60l-1.3-.1a1.5 1.5 0 0 1 .2-.5v-.1l.3-.3c.2 0 .5-.1.8 0ZM60.8 105c0-.2.1-.3.2-.3l.5-.2-.2.2-.5.2Z" fill="#F22233"/>
  <path d="M55.8 101c0 .2-.2.3-.3.4h-.7l1-.3Z" fill="#048ABF"/>
  <path d="m58.3 106-.6.3-.4-.4.7.1h.3Z" fill="#F22233"/>
  <path d="M58 103.6v.3h-.2a.3.3 0 0 1-.2 0v-.3h.4ZM55.2 103.3c.1.1 0 .2 0 .2H55l-.3-.2h.4ZM57 105.3h.1v.2H57l-.3-.2a.4.4 0 0 1 .4 0Z" fill="#F49E2D"/>
  <path d="M64.3 103.4h-.5.5ZM61.3 104.7l-.2.3a.8.8 0 0 1-.7 0h.4l.5-.3Z" fill="#048ABF"/>
  <path d="M58.5 106.9c.1 0 .1.1 0 .2H58.2c-.1-.1-.1-.2 0-.2h.3ZM61.4 107v.2H61v-.2a.4.4 0 0 1 .4 0Z" fill="#F49E2D"/>
  <path d="M60.7 106v.3l-.1.4h-1.4l.1-.4v-.5a7 7 0 0 0 1.4.1Z" fill="#F22233"/>
  <path d="M61.9 105.3v.2h-.2a.4.4 0 0 1-.2 0c-.1 0-.1-.2 0-.2h.3ZM65 103.7l.4.2H65v-.2ZM69.4 99.9l.2.3H69.3v-.3Z" fill="#F49E2D"/>
  <path d="m68.2 98.7.8.8a.7.7 0 0 1-.2.1h-.5a.5.5 0 0 1-.2 0c-.1-.1 0-.3 0-.4l-.1.1-.2.1v.2l-.2-.2-.1-.2H68h-.4V99c-.2-.2 0-.3 0-.3l.3-.1h.2ZM70 100.6l.8.8-.3.2h-.2a.6.6 0 0 1-.3-.1c-.2-.1 0-.3 0-.4l-.2.1-.1.1-.1.1-.2-.1-.1-.2H69.9h-.4v-.4l.3-.1h.2ZM66.9 97.7h-.5.5ZM71.7 102.5c0 .2-.2.3-.4.4l.1-.3h.3ZM68.5 103.8l-1 .3.2-.2h.8Z" fill="#048ABF"/>
  <path d="m71.3 101.9.2.2a.4.4 0 0 1-.3 0c-.1 0 0-.2 0-.2ZM67.5 98l.3.3H67.5v-.1c-.2 0-.1-.1 0-.2ZM68.6 101.5v.2h-.1s-.1.1-.2 0h-.1c-.1 0 0-.1 0-.2h.4Z" fill="#F49E2D"/>
  <path d="m57.5 106.4-.1.2-.5.1.6-.3Z" fill="#048ABF"/>
  <path d="M58 108.6v.2h-.4c-.1 0 0-.2 0-.2a.4.4 0 0 1 .4 0Z" fill="#F49E2D"/>
  <path d="M60.1 107.5c.2.2.2.3 0 .4l-.2.1c.1.1.1.3 0 .4H59v-.3l-.2.2v.1l-.3-.1-.2-.2h.6-.4v-.1c-.2-.1-.2-.3 0-.4H59.4c.2-.1.3-.2.5-.1h.2ZM54.5 107.9l-.2.3h-.1c-.2.2-.4.2-.6.1l.9-.4ZM73 105.3h-.4.4Z" fill="#048ABF"/>
  <path d="m66.7 108.8-.3.2c-.1-.1-.1-.2 0-.2h.3ZM63.8 108.7c.1.1 0 .2 0 .2h-.2a.3.3 0 0 1-.2 0v-.2h.4Z" fill="#F49E2D"/>
  <path d="m56.3 110.8-.1.4v.4l-1.3-.9a7 7 0 0 0 1.4.1Z" fill="#F22233"/>
  <path d="M57.4 110.2c.1 0 .1.2 0 .2a.4.4 0 0 1-.3 0c-.1 0-.1-.1 0-.2h.3Z" fill="#F49E2D"/>
  <path d="m59.3 110.8-.1.7-.1.1H59c-.2.2-.5.2-.7 0-.2 0-.1-.2 0-.2-.2 0-.3 0-.3.2v.1l-.2-.1-.2-.2H58.2l-.5-.1c-.2-.2-.1-.3 0-.4h.2v-.1a5 5 0 0 1 1.4 0ZM61 112.5l-.9.4.1-.3h.8Z" fill="#048ABF"/>
  <path d="m58.7 112.5-.1.4v.3l-.3-.1h-.1l-.9-.6a7.2 7.2 0 0 0 1.4 0Z" fill="#F22233"/>
  <path d="M54.6 110.2v.2h-.1l-.3-.2a.4.4 0 0 1 .4 0ZM57 112v.2l-.4-.3a.4.4 0 0 1 .4 0Z" fill="#F49E2D"/>
  <path d="m67 108.7-.2.2-.4.1.4-.2.1-.1ZM72.6 111.2v.4h-.2c.2.2.2.4 0 .5h-.7l-.1-.3-.1.2v.1h-.3l-.2-.2H71.6c-.2 0-.4 0-.5-.2-.2-.1-.2-.3 0-.4h.8c.2-.2.5-.2.7-.1ZM76 106.6v.1h-.2c-.1.2-.4.2-.6.1H75v-.3c-.2 0-.2.1-.3.2v.2l-.2-.2h-.2.2l.4-.2h-.5c-.2-.2-.2-.4 0-.5h.2l1.3.6ZM78.7 108.1v.1h-.2a.8.8 0 0 1-.7.1v-.1c-.1-.1-.1-.2 0-.2-.2 0-.2.1-.3.2v.2l-.2-.2h-.2.2l.4-.2h-.3a.5.5 0 0 1-.3 0c-.1-.2 0-.4.1-.5h.2l1.3.6ZM80 109v.5c-.2-.2-.2-.3 0-.4ZM77.7 110.8l-.8.5.1-.3h.2l.5-.2ZM74.4 112.8l-.7.4c-.1 0-.1-.3 0-.4h.7Z" fill="#048ABF"/>
  <path d="M79.7 108.7h-.4v-.2l.4.2ZM76.9 107.1c-.1.1-.3.1-.4 0v-.2l.4.2ZM67.6 114.2v.2l-.4-.2h.4Z" fill="#F49E2D"/>
  <path d="M56.7 95.7h-.5.5Z" fill="#048ABF"/>
  <path d="M57.9 96a.4.4 0 0 1-.4 0c-.1 0 0-.1 0-.2l.4.2ZM49.2 101.6v.2a.4.4 0 0 1-.4 0s-.1 0 0-.1h.3Z" fill="#F49E2D"/>
  <path d="M55 102.2h-.1l-.2.4-.2.4-.4-.4-.2-.2a.4.4 0 0 1-.1-.3 7.4 7.4 0 0 0 1.1.1ZM51 103.8v.4l.2.4-1.5-.8h1.4Z" fill="#F22233"/>
  <path d="M55 105.7c-.2.2-.6.3-1 .2v-.7h-1.4l-.5-.2c.1 0 .1-.1 0-.2h-.3l-.6-.2-.1-.4v-.4h-1.4l-.6-.2h.1v-.3h-.4l-.5-.2v-.4c-.1-.2-.1-.3 0-.4a5.3 5.3 0 0 1-1.2.1c-.2-.2-.1-.4.2-.6l.3-.2.6-.1v-.1l.2-.3 2-1.4.4-.1c.1-.1.2-.2.1-.3l2.4-1.6h.6l.1-.2v-.3l2-1.3.3-.1.4-.1.8.1v.2h.4l.6.3a.9.9 0 0 0-.2.1c-.2.1-.3.3 0 .4h.5l-.4.2h-.2l.2.1.3.1.1-.3v.2h.2c.2.2.5.1.6 0h.1V97l.7.2c-.1.1-.1.2 0 .2h.3l.6.3-.2.1c-.2.1-.2.3 0 .4a1.2 1.2 0 0 0 .5 0l-.3.2H61l.3.1.2.2v-.2l.2-.2v.3H62.6v-.1l.1-.1.6.3-.7.2-2.7.9v-.2a6.2 6.2 0 0 0-1.4.1c-.3.2-.3.3-.2.5h.2l-2.6.9-1 .3-.5.2c-.3 0-.5.2-.5.4a2 2 0 0 0-.3 0v-.2l-.2-.1a.9.9 0 0 0-.7 0l-.1.1v.2c-.2.3 0 .7 0 .7a5.2 5.2 0 0 0 1.6-.1l.4.4v.1l.3.2.3.3.2.2.1.5h.3l.6.6h-.1a2 2 0 0 0-.5.2h-.1c-.2.1-.3.2-.1.4l-.4.2Zm.2-9 .1.8a5 5 0 0 0 1.6-.2c.2 0 .3-.3 0-.4h-.6V96.5l-.1-.1H55.3l-.1.1v.2Zm3.8 1.1h-.7a.4.4 0 0 0-.2.3l.1.7a5 5 0 0 0 1.6-.1c.2-.1.3-.3 0-.5h-.6l-.1-.4H59Zm-7.9 3.4h.1c.2-.1.3-.3 0-.4l-.2-.1h-.4v-.2l-.2-.1c-.3-.2-.5-.1-.7 0h-.1v.2c-.2.3 0 .8 0 .8s1 0 1.5-.2Zm1.4-2.7.1.5v.3H54v-.4c-.1-.3 0-.4 0-.4h-1.5Zm4.4 2.2v-.4c-.1-.2-.1-.3 0-.4h-1.5l.1.5v.4H57Zm-4.6-.4c-.1.1-.1.3 0 .4h.6l-.3.2h-.3l.3.1.2.1v-.1l.1-.2.1.2c.3.2.6.2.7 0h.2v-.3h-.1a.8.8 0 0 0 0-.1c.3-.2.3-.3 0-.4h-.6l-.2.1a.8.8 0 0 0-.6 0Zm3.2-2c-.2.2-.3.3-.1.4l.6.1-.4.1h-.2l.2.2h.2l.2-.3.1.3h.7l.1-.1c.2-.4 0-.8 0-.8a6.1 6.1 0 0 0-1.4.1Zm-5 4.7h.6v-.1c.3-.3 0-.8 0-.8a5.2 5.2 0 0 0-1.3 0v.1c-.2.1-.3.3-.1.4h.1a1.5 1.5 0 0 0 .4 0l-.3.2h-.3l.3.1.2.1c0-.2.1-.3.2-.3v.2h.1v.1Zm2.8 1.4h.6a.4.4 0 0 0 .2-.2v-.7a6 6 0 0 0-1.4 0l-.1.1c-.2.1-.3.3 0 .4l.3.1h.2l-.4.1h-.2l.2.1.3.2v-.2l.1-.2.1.3h.1ZM55 98v-.2c-.1-.1-.3-.1-.4 0v.1c.1.1.3.1.4 0ZM52 99.9v-.3a.4.4 0 0 0-.4 0v.2c.1.1.3.1.4 0Zm-.4 3.4a.4.4 0 0 0 .4 0v-.2a.4.4 0 0 0-.4 0c-.1 0-.1.1 0 .2Zm5.7-4.1s-.1.1 0 .2h.4v-.2h-.4Zm-2.7 5.6h.3v-.1c.1 0 0-.1 0-.1h-.3c-.1 0-.1 0 0 .1Zm.2-5.1v-.1c.1 0 0 0 0-.1h-.3l-.1.1c.2.1.3.1.4 0Zm5.8-.7h-.4c-.1 0-.1.1 0 .2h.4V99Zm-8.6 2.6v-.2a.4.4 0 0 0-.4 0c-.1.1 0 .2 0 .2h.4Zm-3.3.2h.4v-.2h-.4c-.1.1 0 .2 0 .2Zm9-4.3h-.4c-.1.1 0 .2 0 .2.1.1.3.1.4 0v-.2Z" fill="#fff"/>
  <path d="m59.8 97-.2.1c-.1.1-.4.2-.6 0h-.1v-.2l-.2.2v.1h-.3l-.2-.2h.2l.4-.1-.6-.1c-.2-.1-.1-.3 0-.4H58.6l1.3.6Z" fill="#048ABF"/>
  <path d="M57 96.9c.2.1.1.3 0 .4h-.2a5 5 0 0 1-1.5.2s-.2-.4 0-.7v-.2h.1c.2-.2.5-.2.7-.1l.2.1v.2h.6Z" fill="#F22233"/>
  <path d="M54 97.2v.3l-.1.1c-.2.1-.4.2-.6.1l.8-.5Z" fill="#048ABF"/>
  <path d="M57.8 97.5v.2a.4.4 0 0 1-.4 0s-.1 0 0-.1a.4.4 0 0 1 .4 0ZM54.9 97.8v.2h-.4v-.2a.4.4 0 0 1 .4 0Z" fill="#F49E2D"/>
  <path d="m62.6 98.4-.1.2h-.7a.3.3 0 0 1-.1-.3l-.2.2v.1h-.2l-.3-.2h.3l.3-.1H61c-.2-.2-.2-.4 0-.5h.2l1.3.6Z" fill="#048ABF"/>
  <path d="M59.9 98.2c.2.2.1.4 0 .5h-.2a5 5 0 0 1-1.5.1s-.2-.4 0-.8a.4.4 0 0 1 .1-.1c.2-.1.5-.2.7 0 .2 0 .2.2.2.3h.6Z" fill="#F22233"/>
  <path d="m63.5 98.6-.3.3h-.7l.7-.2.3-.1Z" fill="#048ABF"/>
  <path d="M60.7 99v.2h-.4c-.1 0-.1-.2 0-.2a.4.4 0 0 1 .4 0Z" fill="#F49E2D"/>
  <path d="M65.8 98.3c.2.1 0 .4 0 .4a1.5 1.5 0 0 1 .5.1v.1c.2.1.1.2 0 .3l-.4.1h-.2a6 6 0 0 1-1.2-.2l.1-.4v-.1l.4-.3h.8ZM54 98.5s-.1.1 0 .4v.4h-1.4v-.8H53.8Z" fill="#F22233"/>
  <path d="M63.8 99.2v.3a.4.4 0 0 1-.3 0c-.1-.1-.1-.2 0-.2h.3ZM55 99.5v.2h-.4l-.1-.1v-.1c.2-.1.3-.1.4 0ZM66.7 99.6c.1.1 0 .2 0 .2h-.4v-.2a.4.4 0 0 1 .4 0ZM52 99.6c.2.1.2.2.1.2-.1.1-.3.1-.4 0v-.1c.1-.1.3-.1.4 0Z" fill="#F49E2D"/>
  <path d="M56.8 100v.3l.1.4h-1.4v-.7a7.2 7.2 0 0 0 1.3 0Z" fill="#F22233"/>
  <path d="M65.5 100.1s0 .5-.4.7l-.1.1h-.7c-.1-.2 0-.4 0-.4h-.1l-.2.2v.1l-.2-.1-.2-.2h.7l-.4-.1h-.1l.1-.4h.6l1 .1Z" fill="#048ABF"/>
  <path d="M67.7 100.1c.2.2 0 .4 0 .4h.3l.2.2a.2.2 0 0 1 .1 0l-.1.4h-.6a6 6 0 0 1-1.2-.1s0-.3.2-.5c0-.2.2-.3.3-.3.2-.2.5-.2.7-.1h.1Z" fill="#F22233"/>
  <path d="M53.9 100.2c.2 0 .2.2 0 .4h-.2l.1.1v.3c-.2.2-.5.2-.7 0-.2 0-.2-.1-.2-.2v.2c-.1.1 0 .1 0 .1h-.3l-.3-.2h.3l.3-.1a.8.8 0 0 1-.5 0v-.1c-.2-.1-.2-.3 0-.4h.7v-.1c.3-.1.6-.1.8 0Z" fill="#048ABF"/>
  <path d="M51.2 100.7c.3.2.2.4 0 .5h-.1c-.4.2-1.5.2-1.5.2s-.2-.5 0-.8v-.1l.1-.1a.8.8 0 0 1 .7 0h.2v.3H51.2Z" fill="#F22233"/>
  <path d="m48.4 101-.1.4-.1.1h-.6l.8-.4Z" fill="#048ABF"/>
  <path d="M52 101.4c.1 0 .2.1.1.2h-.4s-.1 0 0-.1.2-.1.4 0Z" fill="#F49E2D"/>
  <path d="m64.4 101.7-.2.4-.1.4-.7-.2h-.7l.2-.4.2-.4.7.1h.6ZM53.3 101.7l.2.1v.2h.3l.1.4.2.2H54c-.4.2-1.5.1-1.5.1s-.2-.4 0-.7v-.2h.1c.2-.2.4-.2.7-.1Z" fill="#F22233"/>
  <path d="M64.7 102.8c.1.1.1.2 0 .2h-.3c-.1 0-.1-.1 0-.2H64.7Z" fill="#F49E2D"/>
  <path d="M51.2 102s.2.6 0 .9H51c-.2.1-.4.2-.6.1l-.2-.1v-.2l-.2.2v.1H50l-.3-.2h.3l.3-.1a1.8 1.8 0 0 1-.4 0h-.1v-.1c-.2-.1-.2-.3 0-.4h.2c.5-.2 1.3-.1 1.3-.1Z" fill="#048ABF"/>
  <path d="M48.2 102.3v.4l.1.4-1-.4a.6.6 0 0 1-.2-.3 8 8 0 0 0 1.1 0Z" fill="#F22233"/>
  <path d="M52 103v.3a.4.4 0 0 1-.3 0c-.1-.1-.1-.2 0-.2h.3ZM49.2 103.3c.1 0 .1.2 0 .2l-.4-.1.4-.1Z" fill="#F49E2D"/>
  <path d="M66 104v.3h-.1l-.5-.4-.3-.2H65l-.1-.1v-.2l.7.1.7.1-.2.4Z" fill="#F22233"/>
  <path d="M54 103.5s.2.4.1.7l-.2.2a.7.7 0 0 1-.6 0 .3.3 0 0 1-.2-.3l-.1.2v.2l-.3-.2h-.2.2l.4-.2a1.8 1.8 0 0 1-.4 0 .5.5 0 0 1-.2 0c-.2-.2-.1-.4 0-.5h.4c.5-.2 1.1-.1 1.1-.1Z" fill="#048ABF"/>
  <path d="M52.1 104.8c.1 0 .1.1 0 .2l-.4-.2h.4Z" fill="#F49E2D"/>
  <path d="m65.9 104.3.4.2.7.5-.1.1a.8.8 0 0 1-.8 0c-.1 0-.1-.1 0-.2l-.3.1v.2l-.2-.2-.2-.1H66l-.4-.1-.1-.1v-.3a.8.8 0 0 1 .4-.1Z" fill="#048ABF"/>
  <path d="m67.4 105.4.4.2h-.2a.4.4 0 0 1-.2 0v-.2ZM64.8 105.4v.2a.4.4 0 0 1-.4 0c-.1-.1 0-.2 0-.2h.4ZM74.2 105.6h-.4c-.1-.1 0-.1 0-.2l.4.2Z" fill="#F49E2D"/>
  <path d="M71.3 102.9h-.2l-2.6 1h-.8l-.2.2-1.2.4-.4-.2s0-.2.2-.3l.2-.4h-.7l-.6-.2-.1.2-.6-.2h-.5l-.2.2-.5.2a.9.9 0 0 0 .2-.1c.2-.1.3-.3.1-.4l-.2-.1a1 1 0 0 0-.5 0H62.4a.8.8 0 0 0-.6 0c-.2.1-.2.3 0 .4l.3.1h-.5l.1.2.2.1v-.1l.2-.1v.2h.1l.2.1-.9.4a1 1 0 0 0-.5.2l-.2.2-.4.2-2 1H58l-.7-.2-.3-.3c.1-.1.2-.2.1-.3h-.4l-.3-.4.1-.4.3-.3-.7-.1c-.4 0-.7-.1-.7-.2h-.1l-.2-.3h.1c0-.1.1-.2 0-.2l-.3-.1-.3-.2v-.5l.3-.3a5.3 5.3 0 0 1-1.1-.2c0-.3.2-.4.5-.5l.5-.2h.7l.3-.3 2.6-.9H59.1l.2-.2.5-.2 2.7-.9h.7l.3-.3 2.6-.8.3-.1h.5c.1 0 .3 0 .4.2h.2v.1c-.1 0-.2.1 0 .2h.2l.5.5h-.5c0 .1-.2.2 0 .4l.4.1H67.5l.1.2.2.2v-.2h.2l.1-.2s-.1.3 0 .4h.2a.9.9 0 0 0 .6 0l.5.3h-.1s-.1.1 0 .2H69.6l.4.5h-.4c-.2.1-.2.2-.2.3l.1.1.4.1a2 2 0 0 1-.4 0h-.2l.1.2.2.1.2-.2h.2s-.2.2 0 .3H70.8l.5.4h-.1s-.1.1 0 .2a.4.4 0 0 0 .2 0h.1l.2.4-.3.1v.3Zm-14.5-1.3a6.5 6.5 0 0 0 1.5.2l.3-.1c.1 0 .2-.2.1-.3v-.1l-.6-.1s.2-.3 0-.4l-.2-.1a1 1 0 0 0-.6 0c-.4.3-.5 1-.5 1Zm8.8-3.4a1 1 0 0 0-.6.1l-.3.3-.2.5 1.2.2H66.3c.1-.2.2-.3 0-.4v-.1l-.5-.1s.2-.3 0-.4h-.2Zm4 5 .4-.1c.1-.1.2-.2.1-.3v-.1l-.3-.1h-.2s.1-.3 0-.4h-.2a1 1 0 0 0-.7 0 .8.8 0 0 0-.3.3l-.2.5 1.2.2h.3Zm-3.2-2.2 1.2.2h.3l.3-.1c.1-.1.2-.2.1-.4l-.3-.1h-.3c0-.1.2-.3 0-.4v-.1a1 1 0 0 0-.8 0l-.3.3v.1c-.2.2-.2.5-.2.5Zm-7.7 2.5a5.6 5.6 0 0 0 1.5.1h.3c.2-.1.2-.3.1-.4l-.3-.1h-.2v-.5H60a1 1 0 0 0-.8 0l-.3.3-.2.6Zm1.1-1.6.2.1.2-.2v.2l.1.1h.4a.7.7 0 0 0 .3 0c.2 0 .2-.2.1-.3h.2l.1-.1c.2-.1.2-.3.1-.4h-.2a1 1 0 0 0-.5 0 .7.7 0 0 0-.1 0h-.2c-.2-.1-.4-.2-.5-.1h-.1c-.2.1-.2.3-.1.4l.4.1a2 2 0 0 1-.3 0h-.3l.2.2Zm2.1-2.2c-.4 0-.6-.2-.7-.2l-.1.5-.2.3.6.1.7.1.2-.4c0-.2.1-.3.2-.3a4 4 0 0 1-.7-.1Zm1.5 2.6c.4 0 .6.2.7.2l.1-.4.2-.4h-.6l-.7-.2-.2.4c0 .2-.2.3-.2.3l.7.1Zm2.1-2.2a5.8 5.8 0 0 0-1.3-.2l-.3.1c-.1.1-.2.2-.1.3.2.2.4.2.5.2h-.7l.2.2.2.1v-.1l.2-.1.1-.1v.3l.2.1a.9.9 0 0 0 .6 0c.3-.3.4-.8.4-.8Zm-5.8 4.4s-.9-.3-1.3-.2l-.3.1c-.1 0-.2.2-.1.3l.5.2h-.7l.2.1.1.2v-.1l.2-.2h.2s-.2.2 0 .3l.3.1h.4l.2-.2v-.1l.3-.5Zm7-1.7h.2l.2-.2.3-.6a5.5 5.5 0 0 0-1.4-.2l-.2.1c-.2.1-.2.2-.2.3h.1c.1.2.4.2.4.2H65.5l.1.2.2.1v-.1l.2-.1.1-.1v.3l.3.1h.2Zm-9.5.6a.7.7 0 0 0 .4-.2l.3-.6-1-.2h-.4l-.3.1v.3l.4.2H56l.1.1.2.2v-.1l.2-.2h.1v.3l.3.1h.3Zm1.5-1.3c-.1 0-.1.1 0 .2h.2a.3.3 0 0 0 .1 0c.1 0 .1 0 0-.2a.4.4 0 0 0-.3 0Zm6 1c.1-.1.1-.2 0-.2l-.2-.1h-.1c-.1 0-.1.2 0 .2a.4.4 0 0 0 .3 0Zm3.6-1.6h-.1s-.1.2 0 .2h.1c0 .1.1 0 .2 0s.2 0 .1-.1l-.3-.1Zm-7.7 2.6c-.2 0-.2.1-.1.2h.3c.2 0 .2-.1.1-.2h-.3Zm4.7-3v.2l.1.1H65.7s.1-.1 0-.2a.4.4 0 0 0-.4 0Zm-9.2.9c.2-.1.2-.2.1-.2v-.1h-.4s-.1.1 0 .2a.4.4 0 0 0 .3 0Zm11.5 1.4c.1 0 .1-.2 0-.2h-.3c-.1 0-.1 0 0 .1a.4.4 0 0 0 .3 0Zm-3.7-4v-.1c-.2-.1-.3-.1-.4 0-.1 0-.1 0 0 .1a.4.4 0 0 0 .3 0Zm-3.8 1.3s.1-.2 0-.2a.4.4 0 0 0-.4 0v.1l.1.1H60.1Zm-2.1 3.2c.1 0 .1-.2 0-.2a.4.4 0 0 0-.3 0c-.1 0-.1 0 0 .1l.1.1h.1Zm4.9-2.9v-.1l-.1-.1a.4.4 0 0 0-.3 0v.2c.1 0 .2.1.2 0a.3.3 0 0 0 .2 0Zm3.5-1.4c-.1 0-.2.1-.1.2a.4.4 0 0 0 .2 0h.2s.1-.1 0-.2h-.3Z" fill="#fff"/>
  <path d="M66 105.8c.1 0 0 .3 0 .4h.6v.1c.2.1.1.3 0 .4h-.2l-.5.1h-1v-.7l.2-.2v-.1a.9.9 0 0 1 .8 0Z" fill="#F22233"/>
  <path d="M63.7 106v.6l-.2.1c-.2.2-.5.2-.7.1-.2 0-.2-.2-.2-.3l-.2.2v.1l-.2-.1-.2-.2H62.6l-.5-.1c-.1-.2 0-.3 0-.4h.3l.8-.1h.5ZM68.3 106l1 .7-.1.1a.8.8 0 0 1-.7 0h-.1v-.3l-.2.2v.2l-.3-.2-.2-.1h.7l-.5-.2c-.2-.1-.1-.3 0-.4h.4Z" fill="#048ABF"/>
  <path d="M70.6 112.4v.2h-.4v-.2h.4Z" fill="#F49E2D"/>
  <path d="M66.6 113.1v.9l-1.4-.8h1.4ZM69.4 114.7v.7l-.4-.2-1-.5a8.9 8.9 0 0 0 1.4 0Z" fill="#F22233"/>
  <path d="m70.8 115-.4.2c-.2.2-.7.2-1 .2v-.7H68l-.5-.3c.2 0 .2-.1 0-.2h-.3l-.5-.2-.1-.5v-.4h-1.4l-.5-.2.2-.1v-.1h-.1c-.1-.1-.3-.1-.4 0l-.5-.3v-.8a5.2 5.2 0 0 1-1.2 0c0-.1 0-.4.3-.5l.4-.3h.5l.1-.1.2-.3.5-.3.7-.5 1-.6h.4l.1-.3.3-.2 1.3-.7 1-.6h.3l.2-.1h.1l.1-.4 2.1-1.3h.3l.4-.1.8.1s-.1.1 0 .2h.4l.6.4H74.5c-.2.1-.2.3 0 .4h.1l.1.1h.3l-.4.1h-.2l.2.1.2.2v-.2l.2-.2.1.3H76v-.2l.6.3v.2c.1.1.3.1.4 0l.6.4h-.2c-.3.1-.3.3-.2.4h.2l.1.1h.3l-.4.1h-.2l.2.1.2.2v-.2l.2-.2v.2l.1.1H78.7v-.2l.7.4v.2h.4c.2.1.3.2.3.4-.2 0-.2.2 0 .4h-.2l-2.1 1.3a2 2 0 0 0-.5.1H77c-.1.2-.2.3 0 .4l-2.6 1.5h-.6c-.2.1-.2.3 0 .4l-2.2 1.3H71l-.1.1c-.2.1-.3.3-.2.4Zm-1.5-7h-.7v.8H70v-.8h-.7Zm3.1 5.7h.1c.2-.2.3-.3.1-.5h-.2c-.2-.1-.4 0-.4 0 0-.1 0-.3-.2-.4a.8.8 0 0 0-.7 0H71l-.1.2c-.2.3 0 .8 0 .8l1.5-.1Zm-2.7-1.6c.3-.2.3-.4.2-.5h-.2l-.5-.1-.1-.4h-.8v.2H68c-.1.4 0 .8 0 .8s1 .1 1.6 0Zm5.8-1.1H74v.8a14.2 14.2 0 0 1 1.4 0v-.8Zm-3.5-.7h.8l-.1-.4v-.4h-1.4s.1.2 0 .4v.4h.7Zm-.6-4v.7s1.1.1 1.6 0l.1-.1c.2-.1.3-.3 0-.4v-.1h-.6l-.1-.4a.8.8 0 0 0-.8 0v.2h-.2ZM78 109c-.3-.1-.6 0-.8 0a.4.4 0 0 0-.1.2v.8h1.5l.1-.1c.2-.1.3-.3 0-.5H78l-.1-.4Zm-2.8-1.7-.7.1a.4.4 0 0 0-.2.2c-.1.3 0 .8 0 .8l1.5-.1h.2c.2-.2.2-.3 0-.5h-.6l-.1-.4H75Zm-8.2 3.2h.1c.2-.2.3-.3 0-.5h-.6l-.1-.4c-.3-.1-.6 0-.8 0a.4.4 0 0 0-.1.2v.1a.6.6 0 0 0 0 .2v.5h1.5Zm4.9.7a.8.8 0 0 0-.7 0c-.2.1-.2.3 0 .4l.5.1h-.4c-.1.1-.2 0-.2 0l.2.2.3.1v-.3l.2.3h.7c.2-.1.2-.3 0-.4h.2v-.5a.8.8 0 0 0-.7 0l-.1.1Zm-3.6-1.5c-.2 0-.2.2 0 .4h.5l-.3.1h-.2l.2.1.2.2v-.2l.2-.2V110.6c.3.1.6.1.8 0 .2-.2.1-.3 0-.4h.1c.2-.2.2-.4 0-.5a.8.8 0 0 0-.7 0v.1a.8.8 0 0 0-.8 0Zm-2.1 2.6h.6l.1-.2c.3-.2 0-.8 0-.8a5.6 5.6 0 0 0-1.3.1h-.1c-.2.2-.2.3 0 .4l.3.1h.2l-.4.1h-.2l.2.2h.2l.2-.3v.3h.1Zm8.2-3h-.1c-.2.1-.2.3 0 .4h.5l-.4.2h-.2l.2.1.2.1v-.1l.2-.2.1.2c.3.2.6.1.7 0h.1c.2-.3 0-.8 0-.8a5.3 5.3 0 0 0-1.3 0Zm-5.5 4.5h.6l.1-.2c.3-.2.1-.7 0-.8a5.4 5.4 0 0 0-1.3.1c-.3.2-.3.3-.2.4l.6.1-.4.1H68l.2.2.2.1v-.1l.2-.3.1.3h.1Zm2.8-6h-.1c-.2 0-.2.2 0 .4h.5l-.4.2h-.2.2l.2.2v-.1l.2-.2v.2h.1c.3.2.5.1.7 0h.1c.2-.3 0-.8 0-.8h-1.3Zm5 .8h-.3c-.1 0 0 .1 0 .2h.4v-.2Zm-8.6.6c.1-.1.1-.2 0-.2 0-.1-.3-.1-.4 0v.2h.4ZM74 107h-.4v.2c.1.1.3 0 .4 0v-.1Zm-.3 3.7.1-.1v-.1c-.2-.1-.3-.1-.4 0h-.1v.2h.4Zm-2.6-3.3v-.2c-.1-.1-.3 0-.4 0v.2h.4Zm-.4 5.1v-.2h-.4v.2h.4Zm-3.3 0h.3c.1 0 .1 0 0-.1h-.3c-.1 0-.1 0 0 .1Zm8.9-2.2c-.1 0-.1.1 0 .2h.4v-.2c-.2-.1-.3-.1-.4 0Zm-5.3-1.2v-.3h-.4v.2c.1.1.3.1.4 0Zm-3 1.8v-.2h-.4c-.1 0-.1.1 0 .2h.3Zm2.2 3.2c.1.1.3.1.4 0v-.2H70v.2Zm3.6-5.2c.1 0 .1-.2 0-.2h-.3c-.1 0-.1.1 0 .2h.3Zm-9.2 2.1c.1.1.3.1.4 0 .1 0 .1-.1 0-.2h-.4v.2Z" fill="#fff"/>
  <path d="M73.1 106.5c.2.1.2.3 0 .4H73c-.5.2-1.5.1-1.5.1s-.2-.4 0-.7v-.1l.1-.1c.2-.1.5-.2.7 0 .3 0 .2.2.2.3h.6Z" fill="#F22233"/>
  <path d="M70.2 106.7v.3l-.2.1h-.5l.2-.1.5-.3Z" fill="#048ABF"/>
  <path d="M64.3 107v.2h-.4c-.1 0-.1-.2 0-.2h.3ZM67.2 107v.3H67a.4.4 0 0 1-.2 0v-.2a.4.4 0 0 1 .4 0ZM73.9 107.1v.2c-.1 0-.3.1-.4 0v-.2a.4.4 0 0 1 .4 0ZM71 107.3v.2h-.4v-.2a.4.4 0 0 1 .4 0Z" fill="#F49E2D"/>
  <path d="m56.7 107.4.1.1v.2h.3l.3.1c.1.2 0 .4-.1.5h-1.7v-.6l.2-.3h.1c.2-.1.5-.2.8 0ZM63.1 107.6v.4l-.1.4h-1.4l.1-.4v-.5l.8.1h.6ZM68.3 107.6a.2.2 0 0 1 .2.2l-1.3.7v-.6l.3-.2c.3-.2.6-.2.8-.1ZM76 107.9c.1.2 0 .3-.1.4h-.2c-.4.2-1.5.2-1.5.2s-.1-.5 0-.8v-.1l.2-.1c.2-.1.5-.2.7 0 .2 0 .2.3.2.3h.6Z" fill="#F22233"/>
  <path d="M66.1 107.6s0 .6-.2.8c-.3.2-.6.2-.8 0v-.3l-.3.3h-.2l-.2-.2H65a1.2 1.2 0 0 1-.5-.2c-.2-.1 0-.2 0-.3l.2-.1h1.4ZM73 107.8s.1.5 0 .8h-.2c-.2.1-.4.2-.6 0H72a.3.3 0 0 1-.1-.2l-.2.2v.1l-.2-.1-.2-.1h.2l.4-.1-.6-.1c-.1-.2 0-.3 0-.4h.2l.2-.1H73Z" fill="#048ABF"/>
  <path d="M70 108v.8h-1.4v-.8a7.5 7.5 0 0 0 1.4 0Z" fill="#F22233"/>
  <path d="M55 108.5c.1 0 .1.2 0 .2H54.7c-.1 0-.1-.1 0-.2a.4.4 0 0 1 .3 0ZM76.6 108.7c.1 0 .1.1 0 .2a.4.4 0 0 1-.3 0s-.1-.1 0-.2a.4.4 0 0 1 .3 0ZM73.7 108.8c.1 0 .1.1 0 .2h-.3c-.1 0-.1-.2 0-.2a.4.4 0 0 1 .3 0ZM70.9 109v.2h-.4v-.2c0-.1.3-.1.4 0ZM68 109v.3H67.7l-.1-.2c.1-.1.3-.1.4 0Z" fill="#F49E2D"/>
  <path d="m54 109.1-.2.4v.4l-.8-.5a.5.5 0 0 1-.2-.3h1.1ZM65.5 109.3v.3l-.8.5H64l.1-.4v-.5l.8.1h.6ZM59.1 109l.2.1a.3.3 0 0 1 0 .2s.3 0 .5.2c.2.1.1.3 0 .4h-.3c-.4.2-1.5 0-1.5 0s0-.4.2-.7a.4.4 0 0 1 .2-.2.9.9 0 0 1 .7 0Z" fill="#F22233"/>
  <path d="M57 109.2s0 .5-.3.7c-.3.2-.5.2-.8.1v-.3l-.3.2v.1l-.2-.1-.2-.2H55.8a1.2 1.2 0 0 1-.5-.1c-.1-.2 0-.3 0-.4h.3l.1-.1H57Z" fill="#048ABF"/>
  <path d="M78.7 109.5c.2.2.1.4 0 .5h-.2c-.5.2-1.5.1-1.5 0v-.7a.4.4 0 0 1 .1-.2H78c.2.1.2.3.1.3h.5l.2.1Z" fill="#F22233"/>
  <path d="M75.7 109.3s.1.5 0 .8h-.2c-.1.1-.4.2-.6 0h-.1c-.1 0-.1-.2 0-.2-.2 0-.2.1-.3.2v.1l-.2-.1-.2-.1h.2l.4-.1h-.2l-.3-.1c-.2-.1-.2-.3 0-.4H74.5c.4-.2 1.2-.1 1.2-.1ZM62.6 109.3c.2.1.2.3 0 .4h-.2v.5h-.5a.6.6 0 0 1-.3 0v-.3c-.1 0-.2 0-.3.2h-.2l-.2-.2H61.5l-.4-.1c-.2-.2-.2-.3 0-.4a.8.8 0 0 1 .7 0l.1-.1h.7Z" fill="#048ABF"/>
  <path d="M72.7 109.5v.8H71.5v-.8H72.6Z" fill="#F22233"/>
  <path d="M76.6 110.4v.2h-.4c-.1 0-.1-.2 0-.2h.3Z" fill="#F49E2D"/>
  <path d="M69.8 109.6c.1.1.1.3 0 .4l-.2.1c.1.1.2.2 0 .3v.1H68.8v-.2l-.2.1v.2l-.2-.2h-.2.2l.3-.2a.8.8 0 0 1-.5 0c-.2-.2-.2-.3 0-.4.2-.2.5-.2.7 0l.1-.1a.8.8 0 0 1 .8 0Z" fill="#048ABF"/>
  <path d="M60.4 110.3v.3H60v-.3h.4Z" fill="#F49E2D"/>
  <path d="M67 110.1c.3.2.2.4 0 .5H67a5 5 0 0 1-1.5.1 1.4 1.4 0 0 1 0-.6v-.2l.1-.2h.7c.3.1.2.3.2.4h.6Z" fill="#F22233"/>
  <path d="m73.6 110.5.1.2c-.2.1-.3.1-.4 0h-.1v-.2h.4Z" fill="#F49E2D"/>
  <path d="M64.2 110.4s0 .2-.2.3c-.2.2-.4.2-.6.1l.8-.4Z" fill="#048ABF"/>
  <path d="M67.8 110.8c.1 0 .1.2 0 .2h-.3c-.1 0-.1-.1 0-.2h.3ZM64.9 111c.1 0 .1 0 0 .1s-.3.1-.4 0v-.2h.4Z" fill="#F49E2D"/>
  <path d="M75.5 111v.8H74v-.8a7.8 7.8 0 0 0 1.4 0ZM63.9 111.6v.8l-.9-.5a.7.7 0 0 1-.2-.2 8 8 0 0 0 1 0Z" fill="#F22233"/>
  <path d="M63 111c-.3.2-.4.4-.3.6l-1.7 1h-.8c-.1.1-.2.2-.1.3l-.4.2c-.4.2-.8.2-1.1.1v-.3l.1-.4h-1.4l-.4-.3c.2 0 .2-.2.1-.2-.1-.1-.3-.1-.4 0l-.4-.4v-.4l.1-.4a7 7 0 0 1-1.4 0l-.4-.4c.2 0 .2-.2 0-.2h-.3l-.4-.3v-.4l.1-.4h-.7a9 9 0 0 1-.4 0c-.1-.2 0-.4.3-.6l.5-.2h.6l.3-.4 2.4-1.2a.8.8 0 0 0 .5 0l.1-.3h.2l.6-.3 2-1h.3a.8.8 0 0 0 .5-.1l.2-.3.2-.2.9-.4.7-.3.5-.2.2-.1H65v.1h.1v.3h.4l.5.4H65.6c-.2.1-.2.3-.1.4l.5.1-.4.1h-.2l.2.1.2.2v-.2l.2-.2.1.4h.7v-.1h.2l.4.3v.2H67.7l.6.3H68l-.2.1c-.1.1-.2.3 0 .4l.5.1h-.7l.2.2.2.2v-.2l.3-.2v.3c.3.2.6.1.8 0h.1l.4.2-.3.2-1 .6v-.2a.9.9 0 0 0-.9 0l-.2.4v.5l-.4.2h-.5v.3l-1 .6.1-.3h-1.4v.4l-.1.3h.7l-.5.4-.8.4-.4.3Zm-1 .8.1-.1c.2-.1.3-.2.1-.4l-.6-.1v-.4h-.1a.9.9 0 0 0-.8 0l-.2.4v.5s1 .2 1.4 0Zm4-6a.9.9 0 0 0-.8 0H65l-.2.3v.6a6.7 6.7 0 0 0 1.5 0h.2c.1-.1.2-.3 0-.4l-.6-.1s.1-.3 0-.4Zm-8 4.1s1 .2 1.5 0h.2c.2-.1.3-.3.2-.4h-.1l-.6-.1v-.4a.9.9 0 0 0-1 0v.2c-.2.3-.2.7-.2.7Zm5.5-5.8a.9.9 0 0 0-.9.1v.2h-.1l-.1.7a6.5 6.5 0 0 0 1.5 0h.2c.2-.1.3-.3.1-.4a1 1 0 0 0-.4-.2h-.2v-.2l-.1-.1Zm-8 4.2h1.8c.2-.1.2-.3.1-.4l-.3-.1h-.3V107.4a.2.2 0 0 0-.1-.1.9.9 0 0 0-.8 0l-.3.3v.6Zm4.6-2.4h-.8v.4l-.1.3a21.8 21.8 0 0 1 1.4.1v-.4l.1-.4h-.6Zm3 1.7h-1.4v.4l-.1.3h.7l.7.1v-.4l.1-.4Zm-1.5 2.5.3.1a.8.8 0 0 0 .4 0c.2-.1.2-.3 0-.4h.2c.3-.2.3-.4.1-.5h-1.5c-.2.2-.2.3 0 .4 0 .1.2.2.4.1l-.4.1H61l.2.1.2.2v-.2l.2-.1v.2Zm-2.7-1.8.1-.2.1.3h.7c.2-.1.2-.3 0-.4h.2c.3-.2.3-.3.2-.5h-.3a.9.9 0 0 0-.5 0l-.1.1h-.7c-.2.1-.2.3 0 .4 0 0 .2.1.4 0l-.3.1h-.3l.2.2.2.1v-.1Zm-.6 3.4h.7l.2-.2v-.7h-1.4c-.2.2-.3.3-.1.4l.5.2H57.6l.2.2.2.1v-.1l.2-.2v.3h.1Zm7.8-4a5.3 5.3 0 0 0-1.4-.1h-.1c-.2.2-.3.3-.1.4l.5.1-.4.1h-.2l.2.1.2.2v-.1l.2-.3v.3h.1a.8.8 0 0 0 .8 0c.3-.2.2-.8.2-.8Zm-3-1.8H62.3c-.2.2-.2.3-.1.4l.5.2H62l.2.2.2.1v-.1l.2-.2.1.3a.8.8 0 0 0 .8 0l.1-.2c.2-.3.1-.7.1-.7h-.5ZM56 110a.8.8 0 0 0 .8 0c.3-.3.2-.8.2-.8a5.5 5.5 0 0 0-1.3 0h-.2c-.2 0-.2.2-.1.3.2.2.4.2.5.2H55.2l.2.2.2.1v-.1l.2-.2v.3h.1Zm8.5-4.7v.3h.4v-.2h-.4Zm-6.4 3.5v-.2h-.4s-.1.1 0 .2h.4Zm-3 0v-.3a.4.4 0 0 0-.3 0c-.1 0-.1.1 0 .2H55Zm2.4 1.6c.1 0 .1-.1 0-.2H57c-.1 0-.1.1 0 .2h.1a.4.4 0 0 0 .2 0ZM64 107c-.1 0-.1.1 0 .2h.3c.2 0 .2-.1 0-.2H64Zm-3.9 3.3v.2l.2.1a.5.5 0 0 0 .2 0v-.2c-.1-.1-.3-.1-.4 0Zm1-3.3v.2h.2a.4.4 0 0 0 .2 0v-.2H61Zm-2.5 0c.1 0 .1 0 0-.1a.4.4 0 0 0-.3 0c-.1 0-.1 0 0 .2h.1a.4.4 0 0 0 .2 0Zm1.4 5.2c.1 0 .1-.2 0-.2a.4.4 0 0 0-.3 0c-.1 0-.1.1 0 .2h.3Zm2-6.7v-.2h-.4c-.1 0-.1.1 0 .2h.2a.4.4 0 0 0 .1 0Zm5 1.6c-.2 0-.2.1-.1.2h.2a.5.5 0 0 0 .2 0v-.2h-.4Zm-3.1 1.8s.1 0 0-.2a.4.4 0 0 0-.4 0v.2h.2a.4.4 0 0 0 .2 0Z" fill="#fff"/>
  <path d="m61.5 110.8.1.2v.1s.4 0 .6.2c.2.2.1.3 0 .4h-.3c-.5.2-1.5 0-1.5 0v-.5l.3-.3c.2-.2.6-.2.8-.1ZM69.8 111.6c.2.1.2.3 0 .4h-.1a5 5 0 0 1-1.6.1v-.7a.4.4 0 0 1 .2-.2.8.8 0 0 1 .7 0c.2 0 .2.2.2.3h.6Z" fill="#F22233"/>
  <path d="M60 112v.2h-.4c-.1-.1-.1-.2 0-.2h.3Z" fill="#F49E2D"/>
  <path d="M66.9 111.4s.1.6 0 .8l-.2.1H66v-.2c-.2 0-.2 0-.3.2h-.2l-.2-.2H65.9h-.2l-.3-.1c-.2-.2-.2-.3 0-.4h.1l.2-.1H67Z" fill="#048ABF"/>
  <path d="M67.6 112.5c.1 0 .1.1 0 .2h-.3c-.1-.1-.1-.2 0-.2a.4.4 0 0 1 .3 0ZM64.8 112.6v.2h-.1l-.3-.1c.1-.1.3-.1.4 0Z" fill="#F49E2D"/>
  <path d="M72.6 113.2c.2.2.1.3 0 .4h-.2c-.5.3-1.5.2-1.5.2s-.2-.5 0-.8a.4.4 0 0 1 .2-.2.8.8 0 0 1 .7 0c.2 0 .2.3.2.3H72.6Z" fill="#F22233"/>
  <path d="M69.6 113s.2.5 0 .7l-.2.1c-.1.1-.4.2-.6 0-.2 0-.2-.2-.2-.3l-.2.3v.1l-.2-.1-.2-.2H68.6l-.5-.1c-.2-.2-.2-.3 0-.4a.7.7 0 0 1 .3-.1h1.2Z" fill="#048ABF"/>
  <path d="M70.5 114v.2c-.1.1-.3.1-.4 0v-.2a.4.4 0 0 1 .4 0Z" fill="#F49E2D"/>
  <path d="m71.6 114.5-.8.5c0-.1 0-.3.2-.4h.6Z" fill="#048ABF"/>
  <path d="M14.9 88.6c-.2 0-.3-.2-.3-.3 0-.2.1-.3.3-.4L31 79.5c.4-.2.9-.2 1.2 0l22.5 13c.2 0 .3.2.2.4l-.2.2-16.3 8.4c-.3.2-.9.2-1.2 0L15 88.5Z" fill="#272727"/>
  <path d="m27.2 90.6.2.2-.3.3-.4.2-1.8-1 .5-.2.4-.2c.1 0 .3 0 .4.2h.1c.2.1.2.2.2.3h.5l.2.2Zm-1.3-.4-.1-.1h-.2l-.3.2.6.3.2-.1.1-.1v-.1l-.3-.1Zm.8.4h-.4l-.2.1.6.4.3-.2v-.2l-.3-.1ZM28 90.6l-1.8-1 .3-.1 1.5.9.6-.3.2.1-.8.4ZM29.8 89.7l-.5-.2-.5.2.3.3-.2.1-1.3-1.2.3-.1 2.2.7-.3.2Zm-2-.8.8.7.5-.2-1.2-.5ZM30.7 89.2a.9.9 0 0 1-.9 0l-.9-.5-.2-.3.3-.2.3-.2.2.1-.4.2v.2l1 .6h.4l.4-.2.1.1-.3.2ZM32 88.5l-1.1-.3v.2l.7.3-.2.2-1.8-1 .2-.2.8.5-.3-.7.2-.1.3.7 1.5.3h-.2ZM32.8 87.7l.2.2-.3.3h-.4l.3-.2v-.2l-1.2-.7-.4.2h-.2l.6-.4 1.4.8ZM34.4 87.3l-.6-.2-.5.3.4.3h-.2L32 86.6l.3-.1 2.2.8-.2.1Zm-2-.7.8.6.4-.2-1.2-.4ZM35.3 86.8a.9.9 0 0 1-.9 0l-1-.5-.1-.2c0-.1 0-.2.2-.3l.3-.1h.2l-.3.2-.1.2 1 .6h.5l.3-.1h.2l-.3.2ZM36.6 86.1l-1.2-.2v.1l.7.4-.2.1-1.7-1 .2-.1.7.4-.2-.7.2-.1.3.7 1.5.3-.3.1ZM34.8 94.6l-.5-.2.8-.4-3.4-2-.5.7-.5-.3.5-.6.6-.3 3.8 2.2.6-.3.5.2-2 1ZM38.6 91.5c.4.2.5.4.5.6 0 .2-.2.4-.5.5l-1 .3c-.4 0-.8 0-1.1-.3l-2.2-1.3c-.4-.1-.5-.3-.5-.5s.2-.4.5-.6a2.2 2.2 0 0 1 2.1 0l2.2 1.3Zm-2.8-1a1 1 0 0 0-.5-.2 1 1 0 0 0-.5.1l-.3.3c0 .1 0 .2.2.3l2.4 1.4.5.1.5-.1.3-.3c0-.1 0-.2-.2-.3l-2.4-1.4ZM40.6 91.6l-.4-.3.7-.4-3.3-1.9-.5.6-.5-.3.5-.5.5-.3 3.9 2.2.6-.4.4.3-1.9 1Z" fill="#EDEDED"/>
  <path d="m54.8 93-16.3 8.5c-.3.2-.9.2-1.2 0L15 88.5c-.2 0-.3 0-.3-.2-.5 0-.1 5.6.1 5.8l22.4 12.5c.3.2 1 .3 1.3.2l16.3-8.3c.3-.2 0-.8 0-.8l-.1.2-16.2 8.5c-.6.2-.5-.3-.5-.6l.1-2.8c0-.8.3-1 .5-1.1l16.3-8.6c.2 0 .2-.4.2-.4l-.2.2Z" fill="#373737"/>
  <path d="M54.8 93.3 38.5 102c-.2.1-.5.3-.5 1v2.9c0 .3-.2.8.4.6l16.2-8.5v-.2l.2-4.4Z" fill="#EDEDED"/>
  <rect x="96" y="85" width="8" height="12" rx="1" fill="#fff"/>
  <path d="M100 89s1.5 1 1.7 2v.3c0 .4-.2.9-.7 1h-.2c-.4-.1-.7-.5-.8-.6l.3.8.3.3h-1.2l.3-.3.3-.8-.2.2c-.2.2-.4.4-.7.3H99c-.5 0-.8-.5-.8-1V91l.2-.3A6 6 0 0 1 100 89ZM97.6 88h-.3a.6.6 0 0 1-.3-.2v-.3h.3v.1l.2.1h.4v-.4h-.1l-.2-.1h-.2v-.3h.4l.1-.2v-.2h-.5v.2H97v-.3l.3-.2h.6l.3.2v.5l-.3.2.3.1v.6l-.2.2h-.4ZM102.3 96h-.3a.6.6 0 0 1-.3-.2v-.3h.3v.1l.1.1h.4l.1-.2v-.2h-.1l-.2-.1h-.2v-.3h.4v-.4h-.4l-.1.2h-.3v-.3l.3-.2h.6l.2.2.1.3v.2l-.3.2.3.1v.6l-.3.2h-.3Z" fill="#414042"/>
  <rect x="101" y="85" width="8" height="12" rx="1" fill="#fff"/>
  <path d="M105 89c.5 0 1 .5 1 1l-.1.4h.1a1 1 0 0 1 .8 1 1 1 0 0 1-1 1l-.2-.1a.9.9 0 0 1-.5-.4c0 .2 0 .4.2.6l.3.3h-1.2l.3-.3.3-.6a1 1 0 0 1-.9.5 1 1 0 0 1-1-1h.1c0-.5.4-1 1-1l-.1-.3c0-.6.4-1 .9-1ZM102 87.7v-.3l.7-1.2h.2v.4h-.1l-.5.8h1v.3H102Zm.8.3v-1.8h.3V88h-.3ZM106.6 95.7v-.3l.8-1.2h.2v.4h-.1l-.6.8h1.1v.3h-1.4Zm.9.3v-1.8h.3V96h-.3Z" fill="#414042"/>
  <rect x="106" y="85" width="8" height="12" rx="1" fill="#fff"/>
  <path d="m110 89 1 1 1 1-1.1 1-.9 1-.9-1-1.2-1 1.2-1 1-1ZM107.6 88h-.3l-.2-.2-.1-.3h.3l.1.2h.4l.1-.1v-.4l-.1-.1h-.8l.1-1h1v.4h-.7v.4h.1l.2-.1a.6.6 0 0 1 .5.3v.6l-.2.2-.4.1ZM112.3 96h-.3l-.2-.2-.1-.3h.3v.2h.5v-.1l.1-.2v-.2l-.1-.1h-.8l.1-1h1v.4h-.7v.4l.3-.1a.6.6 0 0 1 .5.3v.6l-.3.2-.3.1Z" fill="#F22233"/>
  <rect x="123" y="81" width="8" height="12" rx="1" fill="#fff"/>
  <path d="M127 85s1.5 1 1.7 2v.3c0 .4-.2.9-.7 1h-.2c-.4-.1-.7-.5-.8-.6l.3.8.3.3h-1.2l.3-.3.3-.8-.2.2c-.2.2-.4.4-.7.3h-.1c-.5 0-.8-.5-.8-1V87l.2-.3A6 6 0 0 1 127 85ZM124.1 84l.8-1.5h-1v-.3h1.3v.3l-.7 1.5h-.4ZM128.8 92l.8-1.5h-1v-.3h1.3v.3l-.8 1.5h-.3Z" fill="#414042"/>
  <rect x="111" y="85" width="8" height="12" rx="1" fill="#fff"/>
  <path d="M112.6 88h-.2l-.2-.2-.2-.2v-.9l.1-.3.3-.2h.6a.6.6 0 0 1 .3.5h-.3a.3.3 0 0 0-.3-.3c-.2 0-.3.1-.3.2l-.1.5v-.2h.4a.5.5 0 0 1 .5.2v.6l-.2.2-.4.1Zm0-.2h.2l.1-.2v-.4a.3.3 0 0 0-.3-.1.3.3 0 0 0-.2 0 .4.4 0 0 0-.1.3v.2l.2.1h.1ZM117.3 96h-.2l-.3-.2-.1-.2v-.9l.1-.3a.6.6 0 0 1 .5-.2h.3a.6.6 0 0 1 .4.5h-.4v-.2h-.3l-.3.1v.5-.2h.4a.5.5 0 0 1 .5.2v.6l-.2.2-.4.1Zm0-.2a.3.3 0 0 0 .3-.2v-.2a.3.3 0 0 0-.1-.3h-.2a.3.3 0 0 0-.2 0 .4.4 0 0 0 0 .5v.1h.2ZM116 89h.2c.6.2.9.7.9 1.2v.4c-.4 1-2 2.2-2 2.2-.1 0-1.5-1-2-2l-.1-.3v-.3c0-.6.3-1 .8-1.1h.1c.6 0 1 .5 1.1.6 0 0 .4-.5.8-.6h.3Z" fill="#F22233"/>
  <rect x="129" y="84" width="8" height="12" rx="1" fill="#fff"/>
  <path d="M133 88c.5 0 1 .5 1 1l-.1.4h.1a1 1 0 0 1 .8 1 1 1 0 0 1-1 1l-.2-.1a.9.9 0 0 1-.5-.4c0 .2 0 .4.2.6l.3.3h-1.2l.3-.3.3-.6a1 1 0 0 1-.9.5 1 1 0 0 1-1-1h.1c0-.5.4-1 1-1l-.1-.3c0-.6.4-1 .9-1ZM130.6 87h-.3a.6.6 0 0 1-.3-.2v-.3a.4.4 0 0 1 .1-.4h.2l-.2-.2v-.5l.2-.2h.6l.3.2v.2a.4.4 0 0 1-.3.4l.2.1a.5.5 0 0 1 .2.4v.3l-.3.2h-.4Zm0-.2h.2l.1-.2V86.3h-.1l-.2-.1h-.2v.1l-.1.2v.1l.1.1h.2Zm0-.9h.2a.3.3 0 0 0 .1-.2v-.2h-.5v.4h.2ZM135.3 95h-.4a.6.6 0 0 1-.2-.2v-.5a.5.5 0 0 1 .3-.2l-.2-.2-.1-.3v-.2l.3-.2h.6l.2.2.1.2a.4.4 0 0 1-.3.4l.2.1a.5.5 0 0 1 .2.4l-.1.3-.3.2h-.3Zm0-.2h.2l.1-.2V94.3h-.1l-.2-.1h-.2v.1l-.1.2v.1l.1.1h.2Zm0-.9h.1a.3.3 0 0 0 .2-.2v-.2h-.5a.2.2 0 0 0 0 .2v.2h.2Z" fill="#414042"/>
  <rect x="135" y="86" width="8" height="12" rx="1" fill="#fff"/>
  <path d="M136.6 87.2h.3l.2.1.1.3.1.4v.5l-.2.3a.6.6 0 0 1-.5.2h-.3a.6.6 0 0 1-.3-.5h.3v.2h.3l.3-.1V88a.5.5 0 0 1-.2.2h-.2a.5.5 0 0 1-.5-.2v-.6l.3-.3h.3Zm0 .2a.3.3 0 0 0-.3.2V87.9l.1.2h.2a.3.3 0 0 0 .2 0 .3.3 0 0 0 .1-.3v-.2l-.1-.1h-.2ZM141.3 95.2h.2l.3.1.1.3v.9l-.1.3a.6.6 0 0 1-.5.2h-.3a.6.6 0 0 1-.4-.5h.4v.2h.3l.3-.1V96a.5.5 0 0 1-.2.2h-.2a.5.5 0 0 1-.5-.2v-.6l.2-.3h.4Zm0 .2h-.2a.3.3 0 0 0-.2.4v.1l.2.2h.2a.3.3 0 0 0 .2 0v-.2l.1-.1a.4.4 0 0 0-.1-.3h-.2ZM140 90h.2c.6.2.9.7.9 1.2v.4c-.4 1-2 2.2-2 2.2-.1 0-1.5-1-2-2l-.1-.3v-.3c0-.6.3-1 .8-1.1h.1c.6 0 1 .5 1.1.6 0 0 .4-.5.8-.6h.3Z" fill="#F22233"/>
  <rect x="148" y="85" width="8" height="12" rx="1" fill="#fff"/>
  <path d="M152 89c.5 0 1 .5 1 1l-.1.4h.1a1 1 0 0 1 .8 1 1 1 0 0 1-1 1l-.2-.1a.9.9 0 0 1-.5-.4c0 .2 0 .4.2.6l.3.3h-1.2l.3-.3.3-.6a1 1 0 0 1-.9.5 1 1 0 0 1-1-1h.1c0-.5.4-1 1-1l-.1-.3c0-.6.4-1 .9-1ZM149.5 86.2V88h-.4v-1.5l-.4.3v-.3l.5-.3h.3Zm1.1 1.8h-.4a.7.7 0 0 1-.2-.4l-.1-.5v-.5l.3-.3.4-.1h.4l.2.4.1.5v.5l-.3.3-.4.1Zm0-.2.3-.2v-.9l-.1-.2h-.2l-.3.1v.9l.1.2h.2ZM153.5 94.2V96h-.4v-1.5l-.4.3v-.3l.5-.3h.3Zm1.1 1.8h-.4a.7.7 0 0 1-.2-.4l-.1-.5v-.5l.3-.3.4-.1h.4l.2.4.1.5v.5l-.3.3-.4.1Zm0-.2.3-.2v-.9l-.1-.2h-.2l-.3.1v.9l.1.2h.2Z" fill="#414042"/>
  <rect x="152" y="85" width="8" height="12" rx="1" fill="#fff"/>
  <path d="m156 89 1 1 1 1-1.1 1-.9 1-.9-1-1.2-1 1.2-1 1-1ZM153.8 86.2h.3v1.6l-.2.2h-.6l-.2-.2-.1-.3h.3v.1l.1.1H153.7l.1-.2v-1.3ZM158.2 94.2h.3v1.6l-.3.2h-.6l-.2-.2v-.3h.3v.1l.1.1H158.1l.1-.2v-1.3Z" fill="#F22233"/>
  <rect x="156" y="85" width="8" height="12" rx="1" fill="#fff"/>
  <path d="M160 89c.5 0 1 .5 1 1l-.1.4h.1a1 1 0 0 1 .8 1 1 1 0 0 1-1 1l-.2-.1a.9.9 0 0 1-.5-.4c0 .2 0 .4.2.6l.3.3h-1.2l.3-.3.3-.6a1 1 0 0 1-.9.5 1 1 0 0 1-1-1h.1c0-.5.4-1 1-1l-.1-.3c0-.6.4-1 .9-1ZM157.5 87.4h.3l.2.2.1.2.3.4h-.3l-.2-.3-.1-.1-.3-.4Zm1-.3c0 .2 0 .4-.2.5a.8.8 0 0 1-.7.4h-.4a.8.8 0 0 1-.3-.4 1 1 0 0 1-.1-.5l.1-.5a.8.8 0 0 1 .7-.4h.5l.2.4.2.5Zm-.4 0v-.4l-.2-.2h-.5l-.2.2v.7c0 .1 0 .2.2.3h.5l.2-.3v-.3ZM161.9 95.4h.3l.2.2v.2l.4.4h-.3l-.2-.3-.1-.1-.3-.4Zm1-.3-.2.5a.8.8 0 0 1-.7.4h-.4a.8.8 0 0 1-.3-.4 1 1 0 0 1-.1-.5v-.5a.8.8 0 0 1 .8-.4h.4c.2.1.3.2.3.4l.1.5Zm-.4 0v-.4l-.2-.2h-.6l-.1.2-.1.4v.3l.2.3h.6l.1-.3.1-.3Z" fill="#414042"/>
  <rect x="160" y="85" width="8" height="12" rx="1" fill="#fff"/>
  <path d="M164 89s1.5 1 1.7 2v.3c0 .4-.2.9-.7 1h-.2c-.4-.1-.7-.5-.8-.6l.3.8.3.3h-1.2l.3-.3.3-.8-.2.2c-.2.2-.4.4-.7.3h-.1c-.5 0-.8-.5-.8-1V91l.2-.3A6 6 0 0 1 164 89ZM161 88v-1.8h.3v.8l.7-.8h.4l-.7.8.7 1h-.4l-.5-.8-.2.3v.5h-.3ZM165.6 96v-1.8h.4v.8l.7-.8h.4l-.7.8.7 1h-.4l-.5-.8-.2.3v.5h-.4Z" fill="#414042"/>
  <rect x="172" y="85" width="8" height="12" rx="1" fill="#fff"/>
  <path d="M176 89s1.5 1 1.7 2v.3c0 .4-.2.9-.7 1h-.2c-.4-.1-.7-.5-.8-.6l.3.8.3.3h-1.2l.3-.3.3-.8-.2.2c-.2.2-.4.4-.7.3h-.1c-.5 0-.8-.5-.8-1V91l.2-.3A6 6 0 0 1 176 89ZM173.1 88h-.3l.6-1.8h.4l.7 1.8h-.4l-.5-1.4-.5 1.4Zm0-.7h1v.3h-1v-.3ZM177.8 96h-.3l.6-1.8h.4l.6 1.8h-.3l-.5-1.4-.5 1.4Zm0-.7h1v.3h-1v-.3Z" fill="#414042"/>
  <path d="m85.8 113.4-.4.2-.4.4v.2h.6c.5.1.7 0 .8 0l-.1.5v.4l.5.2h.4v.3l.3.1.2.2h1.6l-.1.4v.4l.6.3h.4c.2 0 .1.1 0 .2l.4.3h1.5v.7c.4 0 .8 0 1-.2l.5-.2.1-.4h.8l.6-.4.9-.4 1-.6s0-.2.2-.2l.5-.1.3-.2 1.4-.7 1.2-.6c-.1 0-.1-.1 0-.2v-.1h.2l.7-.2 2.3-1.2.2-.1c0-.1 0-.2.2-.3l-.3-.4a.5.5 0 0 1-.4 0c-.2 0-.2-.2 0-.2l-.7-.4-.1.2h-.7l-.2-.1v-.2l-.2.2v.1l-.3-.1-.2-.1h.3l.4-.1-.5-.1h-.1c-.2-.2-.1-.3 0-.4a.9.9 0 0 1 .4-.1l-.6-.3h-.4c-.1 0-.1-.2 0-.2l-.6-.4v.1h-.2a1 1 0 0 1-.7.1l-.1-.1v-.2l-.2.2v.2l-.3-.2-.2-.1h.2l.5-.1h-.4l-.2-.1c-.2-.1-.2-.3 0-.4H98.7l-.7-.5h-.4v-.2l-.6-.2c-.3.2-.6.2-.8 0l-.2.2-2.4 1.2-.1.3h-.1a1 1 0 0 1-.7.1l-2.8 1.5c.1.1.1.3 0 .4a1 1 0 0 1-.8 0l-2.4 1.3-.2.3a1 1 0 0 1-.7.1Zm13.2.9v.4h-1.5v-.4c.1-.2 0-.4 0-.4h1.6l-.1.4Zm-10.8-1.8h.1c.2-.2.6-.2.8-.1h.2v.4h.7c.2.2.1.4-.1.5h-.4c-.5.2-1.4 0-1.4 0s-.2-.5.1-.8Zm3.1 1.6h.1a1 1 0 0 1 .8-.1h.1c.1.2 0 .3 0 .4h.7c.3.2.2.4 0 .5a1.3 1.3 0 0 1-.4 0c-.5.2-1.4 0-1.4 0s-.2-.5.1-.8Zm2-3.4v.8h-1.5v-.8h1.5Zm1.4 2v-.4h1.5v.8h-1.6l.1-.4Zm7.6.3h-1.5s-.2-.6.1-.8l.2-.1c.2-.1.5-.2.7 0h.2v.3a1.5 1.5 0 0 1 .7.1c.2.2.1.3 0 .4l-.2.1h-.2Zm-5.4-3.7c.2.1.1.3 0 .4h-.2l-.2.1H95c-.1 0-.3-.6 0-.9h.1c.3-.2.6-.2.8 0h.2v.3a1.6 1.6 0 0 1 .7 0v.1Zm3.1 1.6c.2.1.1.3 0 .4h-.2l-.2.1a7 7 0 0 1-1.5 0s-.2-.6.1-.9h.1c.2-.2.6-.2.8 0h.2v.3h.7v.1Zm-6 4.8h.1c.2-.2.6-.2.8-.1h.1l.1.4h.7c.2.2.1.4-.1.5h-.2l-.2.1a2.3 2.3 0 0 1-.3 0h-1.1s-.2-.6.1-.9Zm-1.3-2.8c.2 0 .2.3 0 .4a1 1 0 0 1-.7 0h-.1c-.1-.1-.2-.2-.1-.3l-.2.2v.1l-.2-.1-.3-.1h.3l.3-.1-.5-.1c-.2-.1-.2-.3 0-.4.3-.1.6-.1.8 0l.1-.1h.3c.1-.1.3-.1.4 0h.1c.2 0 .2.3 0 .4h-.2Zm3 2a1 1 0 0 1-.8 0c-.2 0-.2-.2-.1-.3l-.2.2v.2l-.2-.2H94l.3-.1h.3-.1a.9.9 0 0 1-.4-.1c-.2-.2-.2-.3 0-.5h.2a1 1 0 0 1 .6 0h.1c.3-.2.6-.2.8 0 .2 0 .2.2 0 .4h-.2c.2.1.2.3 0 .4Zm-5 1.3c-.1-.1 0-.3.1-.4h.2c.4-.2 1.5 0 1.5 0v.6l-.1.1-.2.1a1 1 0 0 1-.7 0 .2.2 0 0 1-.1-.2v-.1l-.2.2v.2l-.3-.2-.2-.1h.2l.5-.1h-.6v-.1Zm5.7-4.8a.9.9 0 0 1-.8 0 .2.2 0 0 1-.2-.2l-.2.2v.1l-.2-.1-.2-.2H95.4a1.5 1.5 0 0 1-.5-.1c-.2-.2-.2-.3 0-.4h.2c.4-.2 1.4-.1 1.4-.1s.2.4 0 .7Zm-8.5 3.2c-.2-.1-.1-.3 0-.4h.2c.5-.2 1.5 0 1.5 0v.6l-.1.1-.1.1a.9.9 0 0 1-.7 0c-.2 0-.2-.2-.2-.3l-.2.2v.2l-.2-.2h-.3.3l.4-.2H88l-.1-.1Zm11.4-1.6h-.1a1 1 0 0 1-.7 0c-.2 0-.2-.2-.2-.3l-.2.3v.1l-.2-.1-.3-.2h.7l-.5-.1h-.1c-.2-.2-.1-.4 0-.5h1.7v.7h-.1Zm-1.6-3c.1 0 .1.2 0 .2h-.4v-.2h.4Zm-1.1 5h.4v.3h-.4l-.1-.1v-.1Zm4-3.4c.1 0 .1.2 0 .2h-.4v-.2H100.5a.4.4 0 0 1 .1 0Zm-6.8.2H94c.2 0 .2.1 0 .2h-.3c-.2 0-.1-.2 0-.2Zm6.2 1.5a.4.4 0 0 1 .2 0h.2v.2h-.4c-.1 0-.1-.1 0-.2Zm-9.7.3c0-.1.3-.1.4 0v.2a.5.5 0 0 1-.4 0c-.1 0-.1-.2 0-.2Zm-.2 1.9v-.2h.4c.2 0 .2.1 0 .2a.5.5 0 0 1-.3 0Zm4.4-5.2h-.4c-.1 0-.1-.2 0-.2h.4c.1 0 .1.1 0 .2Zm2.3 3h.4v.3h-.4c-.1 0-.1-.2 0-.2Zm-3.6 1.9h.4c.2 0 .2.1 0 .2h-.3c-.2 0-.2-.2 0-.2Zm-6-1.4c-.1 0-.1-.1 0-.2h.4v.2a.5.5 0 0 1-.4 0Zm9.9-2c0-.1.3-.1.4 0 .1 0 0 0 0 .1H97c-.1 0-.1-.1 0-.2Zm-4 5.3c-.2 0-.2-.2 0-.2h.3c.1 0 .1.1 0 .2h-.3Z" fill="#fff"/>
  <path d="M85 114.3h1.4l-.1.4v.4l.5.2h.4v.3l.3.1.2.2 1.5.8.6.3h.4c.2 0 .1.1 0 .2l.4.3h1.5v.7c.4 0 .8 0 1-.2l.5-.2.1-.4h.8l.6-.4.9-.4 1-.6s0-.2.2-.2l.5-.1.3-.2 1.4-.7 1.2-.6c-.1 0-.1-.1 0-.2v-.1h.2l.7-.2 2.3-1.2.2-.1c0-.1 0-.2.2-.3l.1 3.4s0 .2-.3.4l-10.7 5.5c-.3.2-.8.2-1.2 0l-6.4-3.4c-.4-.3-.5-.4-.5-.6a22137.2 22137.2 0 0 1-.1-3.1Z" fill="#EDEDED"/>
  <path d="M104.2 112.1c-.2 0-.2.2-.2.3l.2-.3ZM97.7 115.7a1 1 0 0 0-.5 0l-.2.3h.1l.4-.2.2-.1ZM93 112.4h-.2a1 1 0 0 0-.7 0 .9.9 0 0 0-.8 0c-.3.2-.3.4 0 .5h.4a1.5 1.5 0 0 1-.6.2h.3l.2.2v-.1l.2-.2.1.3h.8c.2-.1.2-.3 0-.4h.2v-.1c.2-.1.2-.3 0-.4ZM101.6 110.4H101.3c-.2.2-.3.3-.1.5h.6l-.4.2h-.3l.2.1.3.1v-.1l.2-.2v.1l.1.2h.8a.5.5 0 0 0 .1-.2l-1.2-.7ZM98.7 108.8h-.1l-.2.1c-.2.1-.2.3 0 .4H99l-.5.2h-.2l.2.1.3.2v-.2s0-.2.2-.2v.1l.1.2c.3.1.6 0 .8 0l.1-.2-1.3-.7ZM97 108a2 2 0 0 0-.8 0 .9.9 0 0 0 .8 0ZM93.6 109.4l-.9.5.7-.1.2-.4ZM89.9 111.3l-.8.4h.7c.2-.1.2-.3 0-.4Z" fill="#048ABF"/>
  <path d="M97.7 108.2c-.2 0-.2.2 0 .2H98l-.3-.2ZM100.6 109.9c-.1 0-.1.1 0 .2a.5.5 0 0 0 .4 0l-.4-.2ZM87.2 115.3h-.4l.4.3v-.3ZM103.5 111.5c-.2 0-.2.1 0 .2h.4l-.4-.2Z" fill="#F49E2D"/>
  <path d="M89.3 115.9h-1.6l1.5.8v-.8ZM86.4 114.3h-.8a8 8 0 0 1-.5 0l.2.2 1 .6v-.8ZM101.9 112a1 1 0 0 0-.8 0l-.2.2c-.3.2-.1.8 0 .8a7.5 7.5 0 0 0 1.6 0h.1c.2-.2.3-.3.1-.5h-.7v-.4h-.1Z" fill="#F22233"/>
  <path d="m101.5 113.7-.7.1h-.1l-.2.2v.2l.4-.2.6-.3Z" fill="#048ABF"/>
  <path d="M100.6 111.6h-.4v.2h.4c.1 0 .1-.1 0-.2ZM100.4 113.3h-.4c-.1 0-.1.2 0 .2h.4v-.2Z" fill="#F49E2D"/>
  <path d="M99.2 110.4a1 1 0 0 0-.9 0v.1c-.4.3-.2 1-.2 1a6.9 6.9 0 0 0 1.7-.1h.1c.2-.2.3-.4.1-.5l-.7-.1v-.3h-.1Z" fill="#F22233"/>
  <path d="M99.4 112.2h-1.6c-.2.1-.3.3-.1.4l.6.1-.4.1h-.3l.2.2.3.1v-.1l.2-.3.1.3c.3.2.6.1.8 0l.2-.1v-.7Z" fill="#048ABF"/>
  <path d="M99 114h-.7a8 8 0 0 1-.8-.1s.1.2 0 .4v.4H99a1.4 1.4 0 0 1 0-.8Z" fill="#F22233"/>
  <path d="M97.7 110h-.4v.2h.4c.1 0 .1-.1 0-.2ZM97.5 111.7H97c-.1 0-.1.2 0 .2h.4v-.2ZM97.2 113.4h-.4c-.1 0-.1.1 0 .2h.4v-.2ZM97 115h-.4l-.1.2a.5.5 0 0 0 .5 0s.1 0 0-.1Z" fill="#F49E2D"/>
  <path d="M96 108.8a1 1 0 0 0-.8 0v.1c-.4.3-.2 1-.2 1a8.2 8.2 0 0 0 1.5 0 1.3 1.3 0 0 0 .3-.2c.2 0 .3-.3.1-.4l-.7-.1v-.3H96Z" fill="#F22233"/>
  <path d="M96.5 110.6H95c-.2.2-.2.3 0 .4.2.2.5.1.5.1l-.4.1h-.2l.2.2.2.1v-.1l.3-.2v.3H96.4l.1-.1.1-.1c.2-.3 0-.7 0-.7Z" fill="#048ABF"/>
  <path d="M96.2 112.3h-1.5v.8h1.5v-.8Z" fill="#F22233"/>
  <path d="M94.5 110H94v.3h.4c.1 0 .1-.2 0-.2Z" fill="#F49E2D"/>
  <path d="M94.5 110H94v.3h.4c.1 0 .1-.2 0-.2ZM90.8 112H90.5c-.2.1-.2.2 0 .3h.3c.2 0 .2-.2 0-.2Z" fill="#F49E2D"/>
  <path d="M95.9 114a1 1 0 0 0-.8 0l-.1.1a1 1 0 0 0-.8 0c-.2.2-.2.3 0 .4l.1.1h.4l-.3.1H94l.3.1.2.2v-.2l.2-.2v.3h.1a1 1 0 0 0 .8 0c.2 0 .2-.3 0-.4h.1c.3-.2.3-.3.1-.5Z" fill="#048ABF"/>
  <path d="M95 115.6a1 1 0 0 0-.9 0v.1c-.4.3-.2.9-.2.9h1a5.4 5.4 0 0 0 .4 0h.4c.2-.2.3-.4.1-.5l-.7-.1v-.3H95Z" fill="#F22233"/>
  <path d="M94.2 111.8h-.4c-.2 0-.2.1 0 .2a.5.5 0 0 0 .4 0v-.2Z" fill="#F49E2D"/>
  <path d="M94.5 117.3H94l-.2.1c-.1.1-.2.3 0 .4l.8-.5Z" fill="#048ABF"/>
  <path d="M93.6 115.2h-.4v.2h.4c.2 0 .2-.2 0-.2ZM93.4 116.9H93v.2h.4c.1 0 .1-.2 0-.2Z" fill="#F49E2D"/>
  <path d="M93.3 110.7h-1.5v.8h1.5a1.4 1.4 0 0 1 0-.8ZM92.1 117.5h-.7a7 7 0 0 1-.8 0l1 .5.4.1v-.2l.1-.4ZM92.2 114a1 1 0 0 0-.8 0l-.1.1c-.3.3-.1.9-.1.9a7.3 7.3 0 0 0 1.6 0l.2-.1c.2-.1.3-.3 0-.4-.2-.2-.5-.1-.6-.1v-.3l-.2-.1Z" fill="#F22233"/>
  <path d="M92.5 115.7H91l-.2.1c-.2.1-.2.3 0 .4h.1c.1 0 .3.1.4 0l-.4.2h-.2l.2.1.3.2v-.2l.2-.2a.2.2 0 0 0 .1.3H92.4v-.2a1 1 0 0 0 0-.7Z" fill="#048ABF"/>
  <path d="M90.5 115.3h-.3c-.2 0-.2.1 0 .2h.3c.2 0 .2-.2 0-.2ZM90.2 117a.5.5 0 0 0-.4 0l.4.2c.2 0 .2-.2 0-.2Z" fill="#F49E2D"/>
  <path d="M89.2 112.4a1 1 0 0 0-.9 0v.1c-.4.3-.2.9-.2.9a7.4 7.4 0 0 0 1.6 0l.2-.1c.2-.1.3-.3.1-.4-.2-.2-.6-.1-.7-.1v-.3l-.1-.1Z" fill="#F22233"/>
  <path d="M89.6 114.1h-1.5l-.1.1c-.2.1-.3.3-.1.4l.6.1-.4.1h-.3l.3.1.2.2v-.2l.2-.2.1.3c.3.1.6.1.8 0l.2-.2v-.7Z" fill="#048ABF"/>
  <path d="M87.6 113.6h-.4c-.1 0-.1.2 0 .2h.4v-.2Z" fill="#F49E2D"/>
  <path d="m86.7 113-.9.4h.6l.1-.1.2-.3Z" fill="#048ABF"/>
  <path d="M90.7 113.6c-.1-.1-.3-.1-.4 0-.1 0-.1.1 0 .2h.4v-.2ZM94 113.5h-.4c-.1 0-.1.1 0 .2h.4v-.2Z" fill="#F49E2D"/>
  <path d="M62.8 124.5H52l.3 2c.7 7.8-1 11-.3 20.9.8 9.8 3.9 25.6 5.2 28.6 1.3 3 4.3 2.5 4.3 0 0-2.6 1.5-43.4 1.4-49.2v-2.3ZM76.5 125l.4-4H66v4.6c.2 5.8 2.4 39.7 2 51.3-.2 2.5 3 2.9 4.2-.2 1.2-3 4.7-21.5 5-31.4.4-10-.9-12.6-.6-20.3Z" fill="#EAC3A9"/>
  <path d="M55 168.2c-.2-.7-.7-4-1-4.8l7.8 1 .1 6.4v5.5s-.6 5.8-1.6 6.4c-2.1 1.5-6-1.7-6-1.7l.4-2.8c.4-3.8.6-8.9.3-10Z" fill="#E8C5AF"/>
  <path d="M62 175.2s-.5 7.4-3.5 7c-3.6-.5-3.8-4-3.8-4s-.3 1.6-.3 2.8c-.3 4.3 3.2 5.8 4.5 5.7.8 0 2.4-1.3 2.8-6.1l.3-5.4Z" fill="#313D3F"/>
  <path d="M74.1 168.3c.1-.7.3-6.8.5-7.7l-7.1-2.2c.3 5 .2 13.1.2 13.1v3.5s1 7.5 1.9 8.1c2.2 1.3 5.9-2 5.9-2l-.5-2.9c-.6-3.7-1.1-8.7-.9-9.9Z" fill="#EAC3A9"/>
  <path d="M67.7 174.4s.4 6.7 4 7.3c3.5.5 3.3-4 3.3-4s.4 1.6.5 2.8c.4 6-3 6.2-4.4 6.2-.7 0-2.3-1.4-3-6.2-.3-1.8-.4-6.1-.4-6.1Z" fill="#313D3F"/>
  <path d="M53 19.6c0-1.4-.7-4.7-1-6.3C50.8 6.2 56.3 0 64.2 0H66.1c8 0 13.4 6.2 12.3 13.3-.3 1.6-1 4.9-1 6.3a6.8 6.8 0 0 0 3.2 6.5s-1.6 2-5 3.6c-4 1.9-10.2 1.9-10.2 1.9H65s-6.2 0-10.3-2c-3.4-1.5-5-3.5-5-3.5s3.5-1.8 3.3-6.5Z" fill="#42331F"/>
  <path d="M80.2 36.2s1.6-.8 2.5 2.5c2.1 5 9.9 22 8.8 23.3-.8 1-5.2 3.4-6.4 1.8C83.9 62 76.5 49 76.5 49l-.6-9.5 4.3-3.3ZM49.7 36.1s-1.6-.8-2.6 2.5c-2 5-10 23-8.9 24.4.8 1 5.3 2.3 6.6.7 1.2-1.7 8.6-14.8 8.6-14.8l.6-9.5-4.3-3.3Z" fill="#EAE9F2"/>
  <path d="m78.9 81-15.1 1-13-1c2.1-6.7 3-8.5.2-19.7L49.7 52l-.9-15.7 14.3-1.9h2.4l16 2v14.4l-2.9 10c-2.4 11.7-1.3 14.4.3 20Z" fill="#EAE9F2"/>
  <path d="M47.2 100.2c-.3-12.6 4.5-20.8 4.5-20.8L79 80.9s2.5 5.5 3.5 13.5c1 8.1-2.8 38.8-2.8 38.8l-30.4-.2s-1.6-16-2-32.8Z" fill="#2E2B29"/>
  <path d="m52.2 76.1 3.1 1.4a28 28 0 0 0 19.2.3l3.2-1.3 1.2 4.4H50.8l1.4-4.8Z" fill="#2E2B29"/>
  <path d="M51.5 63.2c-1-3.1 6.3-3.4 2.5-16.9C52.5 41 49 36 49 36l7.8-.8s2.9 12.4 5.5 20.7c0 .3 1.6 2.8 2.9 2.7 1.5 0 2.8-2.9 3-3.3 2.5-8.2 5.3-20 5.3-20s7.8.2 8 1c0 0-2.6 4.6-4 10-3.9 13.5 1.7 13 .9 16.1-1.8 8-.7 14-.7 14l-3.2 1.4a28 28 0 0 1-19.2-.3l-3.1-1.4s1.4-3.4-.7-12.9Z" fill="#313D3F"/>
  <path d="M65 79.4v-1c-.3-3.2-.1-16.6-.1-18.1l.1-1.7H65.3a542.3 542.3 0 0 0 .3 21l-.6-.2Z" fill="#7C7C80"/>
  <path d="M66 61a.8.8 0 1 0 1.5 0 .8.8 0 0 0-1.6 0ZM66 68.4a.8.8 0 1 0 1.5 0 .8.8 0 0 0-1.6 0ZM65.8 75.3a.8.8 0 0 0 1.5 0 .8.8 0 0 0-1.5 0Z" fill="#2E2B29"/>
  <path d="M57.2 35.2a3.6 3.6 0 0 0 2.8-3.4l.1-2.3.1-2.3h10.1V29l.2 2.8c0 1.6 1.3 3 2.9 3.4l1 1.5c0 2.4-8.8 5-8.8 5s-8.7-2.3-8.7-4.6l.3-2Z" fill="#EAC3A9"/>
  <path d="M60.2 28.5V26l5 1.1h5.1v1.5c-1.2 1.4-3.1 3-5 3-1.8 0-3.8-1.8-5.1-3.2Z" fill="#BC9982"/>
  <path d="M65.2 8.7h1.5c4 0 7.3 3.3 7.3 7.3l-.4 4.8c-.1 1.5-.8 3.3-1.4 4.3 0 0-3.2 5.4-7 5.4-3.2 0-6.7-5.6-6.7-5.6-1-1.4-1.4-3-1.5-4.2l-.5-4.7c0-4 3.3-7.3 7.2-7.3h1.5Z" fill="#EAC3A9"/>
  <path d="M56.9 17.4s-.1-2.2-1.1-1.6c-1 .5.3 6 1.3 6.8 1 1-.2-5.2-.2-5.2ZM73.6 17.5s.1-2.2 1.1-1.6c1 .5-.4 6-1.3 6.8-1 1 .2-5.2.2-5.2ZM68.1 25.3s-2.6-.3-5 0c0 0 3 3.2 5 0Z" fill="#EAC3A9"/>
  <path d="M40.5 59.9s-2.5.3-2.6 4.2c-.1 3.8 6.8 22.5 6.8 22.5l3-2.8s-2-19.4-3-21c-1-1.4-3.8-3-4.2-3Z" fill="#EAE9F7"/>
  <path d="M46.2 81.8s1.6-.4 2.2.7c.6 1 1.5 6.7 2.4 7.3 1 .6-.4 1.2-1.2.3-.8-1-1.7-2.8-1.7-2.8s-.3 4 .3 6.1c1.4 4.5-1.4 2.7-2.7 1.4-1.6-1.7-2.8-11.3-2.4-12.3.3-1 3-.7 3-.7Z" fill="#EAC3A9"/>
  <path d="M61 45.3c-.3 1.6-7-7.5-4.4-10.2 1.6-1.7 2.8-1.5 2.8-1.5s.8 1.7 5.8 6.5c0 0 .6 1.3.4 1.3-1.3.3-4 .9-4.6 4ZM70.9 44.7c.3 1.6 5.7-7 3.1-9.6-1.7-1.7-2.8-1.5-2.8-1.5s0 1.7-5 6.5l-.5 1.3c1.4.3 4.6.2 5.2 3.3Z" fill="#EEEEF5"/>
  <path d="M70.4 39.7c0-.6-.7-.9-1-.5l-3.6 3.5 3.5 3.5c.4.4 1 .1 1-.4v-6.1ZM65.6 42.7l-3.5-3.5a.6.6 0 0 0-1 .5v6c0 .6.6 1 1 .5l3.5-3.5Z" fill="#313D3F"/>
  <path d="M64.4 42.7a1.4 1.4 0 1 0 2.8 0 1.4 1.4 0 0 0-2.8 0Z" fill="#202D2F"/>
  <path d="M74.2 7.6v8.7S70.6 15.2 69 14c-3-2-3.8-4.5-3.8-4.5s-.2 4.2 1.2 5.5c0 0-3.3.1-4.4-3.2-.6-1.6-.5-2.2-.5-2.2s-3.4-.5-4 5.4l-1.8-7.5h18.5Z" fill="#42331F"/>
  <path d="M65.2 4.8c-4.3 0-8 2.7-9.6 6.5-.2.4-.8.3-.8-.2a10.5 10.5 0 0 1 20.9 0c0 .5-.6.6-.8.2a10.5 10.5 0 0 0-9.7-6.5Z" fill="#202D2F"/>
  <path d="M89.5 59.9s2.5.3 2.6 4.2c.1 3.8-6.8 22.5-6.8 22.5l-3-2.8s2-19.4 3-21c1-1.4 3.8-3 4.2-3Z" fill="#EAE9F7"/>
  <path d="M84 81.8s-1.6-.4-2.2.7c-.7 1-1.5 6.7-2.5 7.3-1 .6.4 1.2 1.2.3.8-1 1.8-2.8 1.8-2.8s.3 4-.4 6.1c-1.4 4.5 1.4 2.7 2.7 1.4 1.7-1.7 2.8-11.3 2.5-12.3-.4-1-3.1-.7-3.1-.7Z" fill="#EAC3A9"/>
  <circle cx="61" cy="17.6" stroke="#000" stroke-width=".4" r="2.7"/>
  <circle cx="69.8" cy="17.6" stroke="#000" stroke-width=".4" r="2.7"/>
  <path d="M63.8 17.6c1-.6 2.2-.6 3.2 0M58.3 17h-1m15.2 0h1.1" stroke="#000" stroke-width=".3" stroke-linecap="round"/>
</svg>