<svg width="209" height="188" fill="none" xmlns="http://www.w3.org/2000/svg">
  <path d="M202.5 93.2H5.8v87.6h196.7V93.2Z" fill="#A97C50"/>
  <path d="M202.5 93.2h-98.3v87.6h98.3V93.2Z" fill="#94673C"/>
  <path d="M198.6 77.4H0v17.3c0 22.6 46.6 40.9 104.2 40.9 57.5 0 104.1-18.3 104.1-41V77.5h-9.7Z" fill="#1D232D"/>
  <path d="M198.6 73.3H0v17.3c0 22.6 46.6 40.9 104.2 40.9 57.5 0 104.1-18.3 104.1-40.9V73.3h-9.7Z" fill="#414042"/>
  <path d="M193.3 73.7H5.8V90c0 21.3 44 38.6 98.4 38.6 54.3 0 98.3-17.3 98.3-38.6V73.7h-9.2Z" fill="#58A350"/>
  <path d="M110.5 116v.2h1v.2h.3v1h-.3v.9h.3v1h-.3v.8h.3v1h-.3v.9h.3v.3c0 .2 0 .4-.2.6h-.2l-.6.9h.2l-1 .8h-.3l-1.5.6h.2l-1.9.5-2 .2v.1a20.8 20.8 0 0 1-2.2 0c-.7 0-1.4 0-2-.2l-.1.1a17 17 0 0 1-2-.3l.1-.1-1.6-.6-.2.1-1.4-.7h.3l-1-.9h-.2a2 2 0 0 1-.4-.9h.3V121.6h-.3v-1h.3v-.8h-.3v-1h.3v-.9h-.3v-1h.3v-.7h1.2v-.2h2.1v.2h2.2v-.2h2.2v.2h2.2v-.2h2.1v.2h2.2v-.2h2.2ZM63.1 110.3l1 .3.2-.1 1.9.5H66l1.9.5h.1l1.9.4-.2.1 1.9.5h.1l1.8.4v.1l1.8.5.1-.1 1.8.5.8.3-.4.2h.3l-1.2.9h-.2l-1.2.7h.3l-1.2.9-.2-.1-1.1.8h.2l-1.1.8h-.3l-1.1.8h.2l-.3.3-1 .5h-.1l-1.6.5.1.1-1.9.4-2.1.1v.2a20.2 20.2 0 0 1-2.1 0v-.2c-.7 0-1.4 0-2-.2l-.2.1a16.2 16.2 0 0 1-1.9-.4h.2l-1.6-.7h-.2c-.5-.1-.9-.4-1.2-.7h.2c-.3-.3-.6-.6-.7-.9h-.3c-.2-.2-.3-.5-.3-.8h.3c0-.4.1-.6.3-1h-.3c.2-.3.4-.6.8-.8h.2l.3-.2.8-.6h-.2l1.1-.8h.3l1.1-.7-.2-.1 1.1-.8h.2l1.2-.7h-.2l1.1-.9h.2l1-.6ZM44 98.4l.6.4h.2l1 .8h-.2l1 1 .2-.1 1 .8h-.3l1 .9h.2l1 .7h-.3l1 1 .3-.1 1 .8h-.3l.4.4-.5.2h.1l-2 .5v-.1l-2 .4h.1l-2 .5v-.1l-2 .4.1.1-2 .4-2 .3.1.1-.5.2-1.4.2-.1-.1-2 .2a24.1 24.1 0 0 1-2.2 0v-.1c-.7 0-1.3-.2-2-.3l-.1.1-1.8-.5h.1a9 9 0 0 1-1.5-.7H28a5.6 5.6 0 0 1-1-.7h.2c-.3-.3-.5-.6-.6-1l-.3.1c-.1-.3-.2-.6-.1-1h.3c0-.2.1-.5.4-.8h-.3l.9-.9h.2l1.3-.6H29l1.7-.7.1.1h.6l1.3-.4 1.9-.5v.1l2-.4-.1-.1 2-.4 2-.3-.1-.1 2-.5v.2l1.7-.4ZM142.4 110.3l1 .7h.2l1.2.7h-.2l1 .9h.3l1.2.7h-.3l1.2.8h.2l1.2.8h-.3l.8.6.3.2h.3c.3.2.6.5.7.8h-.2c.2.4.2.6.2 1h.3c0 .3 0 .6-.3.9h-.2l-.8.8h.3l-1.3.8h-.2l-1.5.5.1.1a14.3 14.3 0 0 1-1.9.4h-.1l-2 .1v.2a21 21 0 0 1-2.2 0v-.2c-.6 0-1.3 0-2-.2v.1c-.8 0-1.4-.2-2-.4l.2-.1-1.6-.6h-.2a7 7 0 0 1-1-.4l-.3-.3h.3l-1.2-.8h-.2l-1.2-.8h.3l-1.2-.8h-.2l-1.1-.7h.2l-1.1-.9h-.3l-1.1-.7h.2l-.3-.3.8-.2-.1-.1 1.8-.5h.2l1.8-.4h-.1l1.8-.6.2.1 1.8-.5h-.1l1.8-.6.2.1 1.8-.4-.1-.1 1.8-.5h.2l1-.2ZM151.5 91.4h1.7v.5c.2.3.1.7 0 1-.3.2-.4.6-.5.9h.2c0 .3-.2.6-.4.9h-.2l-.6.8h.2l-.6 1-.3-.1-.7.8h.2l-.9.9h-.2l-1 .7.2.1-1 .8h-.2l-1.1.7h.1c-.3.3-.7.5-1.2.7h-.1l-1.3.7h.2l-1.4.7h-.1c-.5.1-1 .4-1.4.6h.1l-1.4.7-.2-.1-1.4.5.1.1-1.5.6-.2-.1-1.5.5.1.1-1.6.5h-.1c-.6 0-1.1.2-1.7.4h.1a82 82 0 0 1-3.5.8l.1.1-1.7.4h-.1l-1.8.3h.1l-1.8.4v-.1l-1.9.3.1.1-1.8.3-.1-.1-1.8.2v.1l-1.9.2h-1.9v.2l-1.8.1h-2v.2h-3.8v.1H100.7v-.1h-3.9l.1-.2-1.9-.1v.1l-1.9-.1v-.2l-1.8-.1c-.7 0-1.3 0-2-.2h.1l-1.8-.3v.1c-.7 0-1.3-.2-2-.3h.2l-1.9-.4v.1L82 108v-.1l-1.7-.4v.1l-1.8-.4-1.6-.5-.1.1-1.7-.4.1-.1-1.6-.5h-.2c-.5 0-1-.3-1.6-.4l.2-.1-1.6-.6-.1.1-1.5-.5.1-.1-1.5-.6h-.1l-1.5-.5.2-.1-1.4-.7-.1.1c-.5-.2-1-.4-1.3-.7h.1l-1.2-.7h-.2l-1.2-.7h.2l-1-.8h-.3a24 24 0 0 1-1-.7h.2l-1-.9h-.2l-.8-.8c0-.3-.3-.6-.6-.8H56a12 12 0 0 1-.6-.9h.2l-.5-.9c-.4-.3-.5-.6-.6-.9h.2l-.3-.9c-.3-.3-.3-.6-.3-1l.2-.1h1v-.1H62v.3l.4 1c-.1.3 0 .6.2.9h.2l.6.8H63l.8 1 .2-.1 1 .8h-.3l1 .9.2-.1 1.1.8H67c.3.3.8.5 1.2.7h.2l1.3.7h-.2l1.4.7.1-.1 1.5.6-.2.1 1.5.6.2-.1 1.5.5-.1.1 1.6.6.1-.1 1.6.4v.1l1.6.5.1-.1 1.7.4v.1l1.7.4v-.1l1.8.4 1.7.4.1-.1 1.8.3 1.8.3c.7 0 1.3 0 2 .2h-.1l1.9.3v-.1l2 .1-.1.1 2 .1h1.8v.1h2a109.4 109.4 0 0 0 1.9 0h2-.1l2-.1h1.8v-.1l1.9-.2v.1c.7 0 1.3 0 2-.2h-.1l1.8-.3.1.1 1.8-.2v-.1l1.8-.3v.1l1.9-.3v-.1l1.7-.4v.1c.7 0 1.3-.2 1.8-.3v-.1l1.7-.5v.1c.7 0 1.2-.2 1.8-.4l-.1-.1a65 65 0 0 0 1.6-.5l.1.1 1.6-.5 1.5-.6h.1l1.5-.5h-.1l1.4-.7.2.1 1.4-.6-.2-.1 1.4-.7h.1c.5-.1.9-.4 1.3-.6h-.2l1.2-.8h.2l1-.7-.2-.1 1-.8h.2l.8-.8h-.2l.6-1 .2.1.5-.9h-.2l.2-1c.3-.1.3-.3.3-.5l.3-.1h5.8ZM161.5 98.4l1.7.4.1-.2 2 .5h-.2l2 .5.1-.1 2 .4-.2.1 2 .4h.1l2 .3-.2.1 1.4.3.5.1h.2l1.7.5h-.2l1.3.8h.2l1 .8h-.3l.4.9h.3c0 .3 0 .6-.2.9h-.2c-.1.3-.3.6-.6.8h.2l-.2.3-.9.6h-.2l-1.5.6h.2l-1.9.5-2 .2v.1a21 21 0 0 1-2.2 0l-2-.2-.1.1-1.4-.2-.6-.2h.1l-2-.5v.1l-2-.4h.1l-2-.5v.1l-2-.4.2-.1-2-.4h-.1l-2-.3.2-.1-.6-.2.5-.3-.3-.1 1-.8h.2l1-.8h-.2l1-.9h.2l1-.8h-.3l1-.8h.2l1-.8h-.2l1-.9h.2l.5-.4Z" fill="#227F3A"/>
  <path d="M140.2 87v.4l.1.1c.1 0 .3.1.4 0l-.5-.5ZM135.5 94.5l.5.6c.2-.1.2-.3 0-.4l-.5-.2Z" fill="#048ABF"/>
  <path d="M136 95c.2 0 .2-.2 0-.3l-.5-.2-.1-.1.5-.6h.6l.3-.5V93l.6-.7.2-.3-.1-.3-.1-.1h-.1c-.1-.1-.3-.2-.4-.1l-.2-.1-.2-.1h-.4l-.5-.2-2.8-1s.1 0 0 0v-.1h-.7l-1.7-.5-.7-.7v-.1c.2-.2.1-.3 0-.4l.2-.2.2-.1h.1a.4.4 0 0 0 .4 0v-.2l.8-.3v.1l.2.2h.6l.2-.3v.3h.3l.3-.1h-.3a1 1 0 0 1-.3-.2h.6c.2-.2.2-.3 0-.4h-.1l.7-.3a.4.4 0 0 0 .4 0v-.1l.7-.3c0 .1 0 .2.2.2 0 0 .3.1.4 0h.2l.1-.2.1.2v.2l.3-.1.2-.1h-.2a1 1 0 0 1-.3-.2h.6a.4.4 0 0 0 .1-.2l-.1-.3h-.2l.8-.3a.4.4 0 0 0 .4 0v-.1l.8-.1h.1l.3.1.2.2 1.5 1.4v.4l.1.1.4.1 1.8 1.8v.3h.2l.2.1 1.6 1.6v.3l.1.2h.4l.3.3c.2.2.2.4 0 .6a8 8 0 0 1-1.1-.2l-.1.4-.3.4-.5.2c-.2-.1-.3-.1-.4 0-.1 0-.1 0 0 .1l-.7.3h-.7l-.6-.2-.1.4-.3.4-.6.2h-.4c-.1 0-.1 0 0 .2l-.6.2-.7-.1a5 5 0 0 1-.6-.1l-.1.3-.2.4c-.4 0-.8-.1-1-.3l-.3-.3Zm-.8-7.8h-.2l-.2.3h-.7l-.1.2v.3h.1c.4.2 1.5.3 1.5.3s.3-.4.3-.7a.4.4 0 0 0 0-.1l-.2-.3a.8.8 0 0 0-.5 0Zm4-.7v-.1l-.2-.2a.8.8 0 0 0-.5 0h-.2l-.2.3h-.7c-.2.1-.2.3 0 .5.4.2 1.5.2 1.5.2s.3-.4.3-.7Zm-7.4 2a.4.4 0 0 0-.1 0c-.2.1-.2.3-.2.3h-.7l-.2.1v.3l.2.1c.4.2 1.4.3 1.4.3s.3-.4.3-.7v-.2l-.1-.2a.8.8 0 0 0-.6 0Zm8 4.1.4-.5v-.3l-.2-.2a.8.8 0 0 0-.6 0c-.2 0-.3.2-.3.3h-.7c-.2.1-.2.2-.1.3l.1.2c.4.2 1.5.2 1.5.2Zm3.4-1s.4-.6.3-.9l-.2-.2a.8.8 0 0 0-.6 0l-.3.3h-.7c-.1.1-.2.2-.1.3l.1.2c.4.2 1.5.3 1.5.3Zm-2.6-.8h-.4v-.1h.5v-.1c.2-.1.2-.2.1-.3-.2-.2-.5-.2-.6-.1l-.1-.1-.1-.1a.8.8 0 0 0-.7 0l-.1.2v.2h.1v.1h-.1v.4a.8.8 0 0 0 .8 0v-.2c.1 0 .2.1.1.2v.1h.3l.2-.2Zm-6.8-1.9a1.6 1.6 0 0 0-.3.6v.2l.2.2h.6l.1-.2.1-.1v.4l.3-.1.3-.1h-.3a1 1 0 0 1-.3-.2h.6l.1-.1c.1-.1 0-.3 0-.4h-.1c-.4-.2-1.3-.2-1.3-.2Zm8 4.2a.4.4 0 0 0 .1 0l.2-.3v.4l.3-.1.2-.1h-.2a1 1 0 0 1-.3-.2h.6l.1-.1-.1-.4c-.4-.2-1.3-.2-1.3-.2s-.4.5-.3.8l.2.1h.5Zm-4.7-5.3s-.4.5-.3.7c0 .1 0 .2.2.2h.5a.4.4 0 0 0 .3-.2V88.8h.3l.2-.2h-.2a1 1 0 0 1-.3-.1h.6v-.1c.2-.2.1-.3 0-.4-.4-.2-1.3-.2-1.3-.2Zm1.4 6.4h.1c.2-.1.2-.2.2-.3v.4h.3l.3-.2h-.3a1.2 1.2 0 0 1-.3-.2h.6c.2-.2.2-.3 0-.4-.4-.2-1.3-.3-1.3-.2 0 0-.4.5-.3.7l.2.2h.5Zm-2-4.7v.3l-.3.4.7.1.7.1v-.3l.3-.5a7.3 7.3 0 0 1-1.3-.1Zm4.7-1a7.2 7.2 0 0 1-1.3-.2l-.1.4-.3.4h.8l.6.2v-.4l.3-.4Zm-4.7-1.5h-.1v.2a.4.4 0 0 0 .4 0V87h-.3Zm4 6.3V93h-.3c-.1 0-.1.2 0 .2h.3Zm-2-3.9h.4c.1 0 .1-.1 0-.2h-.3c-.1 0-.1.1 0 .2Zm1-1.9h-.3c-.1.1-.1.2 0 .2h.3c.1 0 .1 0 0-.1Zm-6.4.7s-.1.1 0 .2h.3l.1-.1v-.1h-.4Zm10.7 3.9.1-.1v-.1a.4.4 0 0 0-.4 0c-.1 0-.1 0 0 .1h.3Zm-8.3-1.4v-.3h-.3c-.1 0-.1.1 0 .2h.3Zm1.6 3.8v-.2a.4.4 0 0 0-.4 0v.1h.4Zm.3-2v.1c-.1 0-.2.1-.1.2a.4.4 0 0 0 .4 0s.1-.1 0-.2h-.3Zm3.7-1v-.1h-.4s-.1.1 0 .2h.3l.1-.2Zm.2-1.6a.4.4 0 0 0 .3 0l.1-.1v-.1a.4.4 0 0 0-.4 0c-.1 0-.1 0 0 .1Zm-5-1.2a.4.4 0 0 0-.4 0c-.1 0-.1.1 0 .2a.4.4 0 0 0 .3 0h.1v-.2Z" fill="#fff"/>
  <path d="m140.9 93.8-.1.4-.3.4 1.7-.6h-.7l-.6-.2Z" fill="#F22233"/>
  <path d="M139.5 94.8c-.1 0-.1 0 0 .1l.4-.1c-.1 0-.3-.1-.4 0Z" fill="#F49E2D"/>
  <path d="m130.5 96.3 1 .3-.2-.3h-.8Z" fill="#048ABF"/>
  <path d="m118.5 100.3-.1-.1c.1-.2 0-.3-.1-.4h-.1c0-.2.1-.3.3-.4h.4v-.2l.6-.4.2.1h.6c.2 0 .2-.2.1-.3l.2.2v.2l.3-.2.2-.1h-.3l-.3-.1h.5v-.1c.2-.1.1-.3 0-.4H120.6l.5-.4h.4v-.2l.5-.4v.1h.1c.2.2.5.2.7.1l.1-.3.2.2v.1l.2-.1.3-.2h-.7.4l.2-.1c.1-.2 0-.3-.1-.4h-.1l-.2-.1.6-.4c0 .1.3 0 .4 0v-.2l.7-.2h.5l.2.2 2.2 1.1.1.3h.1c.2.2.4.2.6.1l2.7 1.4.1.3h.5l2.3 1.2.1.4h.1c.2.1.4.2.6 0l.4.3c.3.1.4.4.3.6a8.1 8.1 0 0 1-1.2 0l.1.4v.4l-.4.3h-.1c-.1-.1-.3-.1-.4 0v.1h.1l-.5.4H132l.1.4v.5l-.5.3c-.1-.1-.3 0-.4 0-.1 0-.1.1 0 .2l-.4.3a8.2 8.2 0 0 1-1.4 0v.7h-1l-.4-.3-.1-.3h-.2l-.5-.1-2.3-1.2c.2-.1.2-.3 0-.4h-.7l-2.6-1.3-.1-.4h-.2a2 2 0 0 0-.5 0l-2.2-1.2Zm10.3-2.2h-.6v.9l.7-.1h.7v-.4c-.1-.2 0-.4 0-.4h-.8Zm-5 4.1h.6l-.1-.3v-.5h-.7a5 5 0 0 1-.7 0l.1.5v.4h.7Zm1.8-1.6h1.4v-.4c-.1-.3 0-.4 0-.4h-1.5l.1.4v.4Zm-5.8 0c.5.2 1.5 0 1.5 0V99.9l-.2-.1a.9.9 0 0 0-.8 0c-.1.1 0 .3 0 .4h-.7c-.2.2-.1.4 0 .5h.2Zm11.7 0c.4.2 1.5 0 1.5 0s.1-.5-.1-.8l-.2-.1a.9.9 0 0 0-.7 0c-.2.1-.2.3-.1.4h-.6c-.3.2-.2.4 0 .5h.2Zm-5-4.1-.1-.1a.9.9 0 0 0-.8 0c-.2 0-.1.3-.1.3h-.5a.5.5 0 0 0-.2.1c-.1.2 0 .4.1.5h1.7s.1-.6-.1-.8Zm-.4 7.4.1.1h1.5s.1-.5 0-.8h-.1l-.1-.2a.9.9 0 0 0-.7 0c-.3.2-.2.4-.2.4h-.5l-.1.1c-.2.2-.1.3 0 .4Zm-3.1-6c-.2.1-.2.4-.2.4a1.4 1.4 0 0 0-.6.1c-.2.2-.1.3 0 .4h.2c.5.2 1.5 0 1.6 0v-.6l-.1-.1-.2-.2a.8.8 0 0 0-.7 0Zm5.8 4.3a5 5 0 0 0 1.5 0v-.7a.4.4 0 0 0-.2-.2.8.8 0 0 0-.7 0c-.2 0-.2.3-.2.3h-.5l-.1.1c-.2.2-.1.4 0 .5h.2Zm-1.8 0v.2l.2-.1.3-.2h-.6H127.2l.2-.1c.2-.1.2-.3 0-.4a.8.8 0 0 0-.7 0h-.2a.8.8 0 0 0-.7 0c-.2 0-.1.2 0 .3h.2c-.2.2-.1.4 0 .5a.8.8 0 0 0 .8 0v-.3l.2.2Zm2.7-1.6h.3l.2-.2h-.6a.9.9 0 0 0 .3 0l.2-.1c.2-.2.2-.3 0-.4a.8.8 0 0 0-.7 0l-.2-.1a.8.8 0 0 0-.7 0c-.2.1-.1.3 0 .4h.2c-.2.2-.1.4 0 .5h.1a.8.8 0 0 0 .7 0v-.3c.1 0 .2 0 .2.2Zm2.7 1.7.1-.1v-.2l.2.2v.1h.3l.2-.2h-.2l-.4-.1h.5v-.1c.2-.1.1-.3 0-.4h-1.6v.6a.4.4 0 0 0 .3.2h.6Zm-2.6 1.7.2-.4.2.3v.1l.2-.1.2-.2H130s.4 0 .5-.2c.2-.1.1-.2 0-.3a.8.8 0 0 0-.4-.1H129s-.2.6 0 .8h.2c.1.2.4.2.6 0Zm-3.3-5.9h-1.3s-.2.6 0 .8h.2a.8.8 0 0 0 .7 0c.1 0 0-.2 0-.2.1 0 .2 0 .3.2v.1l.2-.1.2-.2h-.2a1.5 1.5 0 0 1-.4 0h.3a.5.5 0 0 0 .2-.2c.2 0 .1-.2 0-.3h-.2Zm-2.6 1.7h-1.3s-.2.5.1.8h.7l.2-.1v-.2l.2.2v.2l.2-.2.2-.1h-.2l-.4-.1h.4a.6.6 0 0 0 .2-.1c.1-.1 0-.3-.1-.4h-.2Zm1.2 1.1a.4.4 0 0 0-.4 0v.2h.4v-.2Zm5.5.2h.3c.1 0 .1-.2 0-.2h-.4v.2Zm-6.3-3.6h-.1c-.1 0-.1.2 0 .2h.4v-.2h-.3Zm6 1.9h.3V99h-.4v.3Zm-3.2-1.7h.4v-.2h-.4c-.1 0-.1.2 0 .2Zm6.7 3.4v-.3h-.3v.3h.3Zm-2.6 1.6c.1 0 .1-.1 0-.2h-.3c-.1 0-.1.2 0 .2h.3Zm-3.3.1h.4v-.2h-.4v.2Zm-.2-3.6a.4.4 0 0 0-.3 0c-.1 0-.1.1 0 .2h.3c.1 0 .1-.2 0-.2Zm-6.1 0c-.1 0-.1.2 0 .2h.3c.1 0 .1-.2 0-.2h-.3Zm.6 1.7h-.4c-.1 0-.1.1 0 .2h.4v-.2Zm2.6-1.7h-.3c-.1 0-.1.1 0 .2h.4v-.2Zm3.7 5.2c.1 0 .1-.1 0-.2h-.3c-.1.1-.1.2 0 .2h.3ZM134.3 91.6Z" fill="#fff"/>
  <path d="M134 87.6v.4h.1c.4.2 1.5.3 1.5.3s.3-.4.3-.7v-.1l-.2-.3a.8.8 0 0 0-.5 0 .4.4 0 0 0-.2 0l-.2.3h-.7Z" fill="#F22233"/>
  <path d="M137 87.8s-.3.5-.2.7c0 .1 0 .2.2.2a.7.7 0 0 0 .5 0 .4.4 0 0 0 .2-.1v-.1c.1 0 .2.1.1.2v.1h.3l.2-.2h-.2a1 1 0 0 1-.3-.1h.6v-.1c.2-.2.1-.3 0-.4-.4-.2-1.3-.2-1.3-.2Z" fill="#048ABF"/>
  <path d="M137.4 86.5c-.2.1-.2.3 0 .5.4.2 1.5.2 1.5.2s.3-.4.3-.7a.3.3 0 0 0 0-.2l-.2-.1a.8.8 0 0 0-.5 0h-.2l-.2.3h-.7Z" fill="#F22233"/>
  <path d="M139.2 87.5c-.1.1-.1.2 0 .2a.4.4 0 0 0 .3 0c.1 0 .1 0 0-.1a.4.4 0 0 0-.3 0Z" fill="#F49E2D"/>
  <path d="M133.8 89a1.6 1.6 0 0 0-.3.5v.2l.2.2h.6l.1-.2.1-.1v.4l.3-.1.3-.1h-.3l-.2-.1v-.1h.5l.1-.1c.1-.1 0-.3 0-.4h-.1c-.4-.2-1.3-.2-1.3-.2ZM132.1 89.9l.2.2h.5l-.4-.1-.3-.1Z" fill="#048ABF"/>
  <path d="m132.4 89.9.4.2c.1 0 .1-.1 0-.2a.4.4 0 0 0-.4 0ZM133 88.2v.2h.4l.1-.1v-.1h-.4Z" fill="#F49E2D"/>
  <path d="M136.5 91.2h-.4.5v.1-.1Z" fill="#048ABF"/>
  <path d="m135.6 91 .2.3h.8l-.5-.2-.5-.1Z" fill="#048ABF"/>
  <path d="M135.2 91.6c-.1.1 0 .2 0 .2h.4v-.2h-.4ZM133.3 93.6c-.1 0 0 .1 0 .2a.4.4 0 0 0 .4 0v-.2h-.4ZM135.2 90.4s-.1.1 0 .2h.3c.1 0 .1-.1 0-.2a.4.4 0 0 0-.3 0Z" fill="#F49E2D"/>
  <path d="M133.3 90.7c-.2.1 0 .4 0 .4h-.5v.1l-.1.1c-.1.1 0 .3.1.3l.3.1 1.1-.1h.4s-.1-.7-.5-1a1 1 0 0 0-.8 0Z" fill="#F22233"/>
  <path d="M132.3 92v.3h.4V92h-.3Z" fill="#F49E2D"/>
  <path d="M133.5 92.5s0 .5.4.7l.6.1h.2c.2-.2 0-.4 0-.4h.1l.2.2h.2l.2-.2h-.7c.1 0 .3 0 .4-.2h.1l-.1-.3h-.3v-.1h-.2l-1.1.2ZM130 91.3h-.1c-.2.1-.1.3 0 .4h.4c-.2.1-.1.3 0 .4h.7l.1-.1v-.3l.2.2H131.6l.1-.2H131.1l.4-.1c.2-.2.1-.3 0-.4H130.6a1 1 0 0 0-.6 0Z" fill="#048ABF"/>
  <path d="M128.5 90.8v.3h.4v-.3h-.4Z" fill="#F49E2D"/>
  <path d="m128.8 89.8.2.3.2.4.7-.1.6-.1-.2-.4a1 1 0 0 1-.1-.4l-.7.2a4 4 0 0 1-.7 0ZM130.7 88.8v.5l1.5.3s.3-.4.3-.7a.4.4 0 0 0 0-.2l-.1-.2a.8.8 0 0 0-.7 0c-.2.1-.2.3-.2.3h-.7Z" fill="#F22233"/>
  <path d="M134.7 86.3c0 .1 0 .2.2.2 0 0 .3.1.4 0h.2l.1-.2.1.2v.2l.3-.1.2-.1h-.2a1 1 0 0 1-.3-.2h.6l.1-.2-.1-.3h-.2l-1.4.5ZM131.4 87.4v.1l.2.2h.5a.4.4 0 0 0 .3-.3v.3h.3l.3-.1h-.3a1 1 0 0 1-.3-.2h.6c.2-.2.2-.3 0-.4h-.1l-1.5.4ZM138.1 85.3l.4.1-.4-.1ZM129.7 88.2c-.1.1-.1.2 0 .4.2-.2.1-.3 0-.4Z" fill="#048ABF"/>
  <path d="M131.3 90.4c-.1.1 0 .2 0 .2h.3c.2 0 .1-.2 0-.2h-.3Z" fill="#F49E2D"/>
  <path d="M142.5 89.4v.3h.2l.2.1-.4-.4ZM139.3 90l-.1.2v.2h.1v.1h-.1v.4a.8.8 0 0 0 .8 0v-.2c.1 0 .2.1.1.2v.1h.3l.2-.2h-.4v-.1h.5v-.1c.2-.1.2-.2.1-.3-.2-.2-.5-.2-.7-.1V90l-.1-.1a.8.8 0 0 0-.7 0ZM136.9 91.4h.1l.5.2-.1-.1h-.1c-.1-.1-.3-.2-.4-.1Z" fill="#048ABF"/>
  <path d="m139.9 88.3-.1.4-.3.4h.8l.6.2v-.4l.3-.4a7.3 7.3 0 0 1-1.3-.2Z" fill="#F22233"/>
  <path d="M138.6 89.2c-.1 0-.1.1 0 .2h.3c.1 0 .1-.1 0-.2h-.3Z" fill="#F49E2D"/>
  <path d="m136.6 89.5-.1.3-.3.4.7.1.7.1v-.3l.3-.5h-.7l-.6-.1Z" fill="#F22233"/>
  <path d="M135.9 88.7c-.1 0-.1.1 0 .2a.4.4 0 0 0 .3 0h.1v-.2h-.4ZM130.2 87.9h.4v-.2l-.4.2ZM133.6 86.7h.3l.1-.1h-.4Z" fill="#F49E2D"/>
  <path d="M138.1 93.2s-.4.6-.3.8l.2.2h.6c.2-.1.2-.2.2-.3v.4h.3l.3-.2h-.3a1.2 1.2 0 0 1-.3-.2h.6c.2-.2.2-.3 0-.4-.4-.2-1.3-.3-1.3-.3Z" fill="#048ABF"/>
  <path d="M136.1 93.2v.2h.2l.2-.2h-.4Z" fill="#F49E2D"/>
  <path d="m136.4 92.1.3.4.1.4.6-.7.2-.3-.5.1-.6.1Z" fill="#F22233"/>
  <path d="M137.3 92.6v.2h.4s.1-.1 0-.2a.4.4 0 0 0-.3 0Z" fill="#F49E2D"/>
  <path d="M136 93.8h-.1.6l.3-.5V93l-.3.2-.2.2-.4.4ZM134.6 94l.2.4.1.4.5-.4.5-.6a8.2 8.2 0 0 1-1.3.3ZM137.6 95l-.2.3-.1.3h.4l1.2-.5h-.7l-.6-.1Z" fill="#F22233"/>
  <path d="M136.7 94.2v.2a.4.4 0 0 0 .4 0c.1 0 0-.1 0-.2a.4.4 0 0 0-.4 0Z" fill="#F49E2D"/>
  <path d="M125.6 88.4c-.2.1 0 .3 0 .4h-.4v.1h-.2c0 .2 0 .3.2.4h.3a5 5 0 0 0 1.5-.1l-.3-.7-.2-.1a1 1 0 0 0-.9 0Z" fill="#F22233"/>
  <path d="M125.7 91.2c-.1.1-.1.2 0 .2a.4.4 0 0 0 .4 0v-.2h-.1a.6.6 0 0 0-.1 0h-.2Z" fill="#F49E2D"/>
  <path d="M125.9 90.2s0 .3.2.5a.7.7 0 0 0 .2.2h.7c.2-.1.1-.3 0-.4h.2l.2.2v.1l.2-.1.1-.2h-.2a2 2 0 0 1-.4 0h.4v-.2c.2 0 .1-.2 0-.3h-.5c-.6 0-1.1.2-1.1.2Z" fill="#048ABF"/>
  <path d="M124.7 89.7c-.1 0 0 .2 0 .2h.4v-.2h-.3ZM122.8 91.7c-.1 0 0 .1 0 .2a.4.4 0 0 0 .4 0v-.3h-.3Z" fill="#F49E2D"/>
  <path d="M123.7 90.2c-.2.2 0 .4 0 .4a1.7 1.7 0 0 0-.5.2h-.1c-.1.2 0 .3.1.4h.3a5 5 0 0 0 1.5-.2s0-.4-.3-.6l-.2-.2a1 1 0 0 0-.6 0h-.2Z" fill="#F22233"/>
  <path d="M123.7 93.2v.3h.4v-.3h-.4Z" fill="#F49E2D"/>
  <path d="M121.8 92.3c-.2.1 0 .4 0 .4h-.3l-.2.1v.4l.4.1a5 5 0 0 0 1.4-.2s0-.4-.2-.7l-.2-.1a1 1 0 0 0-.9 0Z" fill="#F22233"/>
  <path d="m122 90-.2.3h.3V90Z" fill="#F49E2D"/>
  <path d="m123.3 88.8-.9.8.1.1a.8.8 0 0 0 .8 0c.1-.1 0-.3 0-.4l.3.2v.1l.2-.1.2-.2h-.7.2a.8.8 0 0 0 .2-.1h.1l-.1-.4h-.4ZM121.4 90.7l-.8.9a.8.8 0 0 0 .8 0c.2-.1 0-.3 0-.3h.1l.2.2h.2l.2-.3h-.7.1a1.3 1.3 0 0 0 .4 0v-.4l-.3-.1h-.2ZM124.6 87.8h.5-.5ZM119.7 92.7l.3.4c.1-.2 0-.3-.1-.3l-.2-.1ZM128 88.6l.2.3h.7l-1-.3ZM124 92s.1.6.4.8h.8c.2-.1 0-.3 0-.3h.1l.2.2h.2l.2-.3h-.3c-.1.1-.3 0-.4 0h.5v-.1c.1-.1 0-.3-.1-.3a.8.8 0 0 0-.3-.1h-.2l-1.1.2ZM122.8 94l1 .2-.1-.2H122.8ZM128 93.3h-.1c-.1.1 0 .3.1.4H128.3c-.1.2 0 .3 0 .4h.8c.2-.2.1-.3 0-.4h.1l.2.2v.1l.2-.1.2-.2h-.6.4v-.1c.1-.2 0-.3 0-.4h-1a1 1 0 0 0-.5 0h-.1ZM127 95.2l.8.3-.1-.3h-.1a.8.8 0 0 0-.6 0Z" fill="#048ABF"/>
  <path d="M126.6 92.9v.2h.2a.3.3 0 0 0 .2 0v-.2h-.3Z" fill="#F49E2D"/>
  <path d="m127 91.7.2.4v.4l.8-.2h.6l-.2-.4-.1-.4-.7.1-.7.1ZM125 93.7l.3.3.1.5.7-.2h.7v-.1l-.3-.3-.1-.5-.7.2h-.6Z" fill="#F22233"/>
  <path d="M127.6 89.3c-.1 0-.1.1 0 .2H128c.1-.1.1-.2 0-.2h-.3ZM120.1 92l-.2.3a.4.4 0 0 0 .3 0V92ZM124 88l-.3.3h.3V88ZM130.4 94v.3h.1a.4.4 0 0 0 .3 0V94h-.4Z" fill="#F49E2D"/>
  <path d="M129.5 94.6c-.2.2 0 .4 0 .4h-.1a1.4 1.4 0 0 0-.5.2c-.1.2 0 .3.1.4h.3a5 5 0 0 0 1.5-.2s-.1-.6-.5-.8a1 1 0 0 0-.6 0h-.2Z" fill="#F22233"/>
  <path d="M131.3 95.6v.2h.1a.4.4 0 0 0 .3 0c.1-.1.1-.2 0-.2h-.3Z" fill="#F49E2D"/>
  <path d="M131.6 94.4s0 .3.3.6v.1h.2l.3.2.4-.1c.2-.2 0-.3 0-.4h.1l.2.2v.1l.2-.1.2-.2H132.9a1.3 1.3 0 0 0 .4-.1c.1-.2 0-.3 0-.4a.8.8 0 0 0-.4 0c-.5-.1-1.3.1-1.3.1Z" fill="#048ABF"/>
  <path d="M131.3 92.6c-.2.1 0 .3 0 .4h-.4v.1h-.2l.1.4.3.1a5 5 0 0 0 1.5-.2s0-.6-.5-.8a1 1 0 0 0-.6-.1h-.2ZM132.7 96l.2.4.1.3a1.2 1.2 0 0 0 .3-.2l.7-.7a6.6 6.6 0 0 1-1.3.2Z" fill="#F22233"/>
  <path d="M134.2 95.2v.2h.1l.3-.2h-.4ZM127.4 99.2c-.1 0-.1.1 0 .2h.3c.1 0 .1-.2 0-.2a.4.4 0 0 0-.3 0ZM124.7 101v.1h.4v-.2a.4.4 0 0 0-.4 0Z" fill="#F49E2D"/>
  <path d="m120.7 98-1.2.8.2.1h.6c.2 0 .2-.2.1-.3l.2.2v.2l.3-.2.2-.1h-.3l-.3-.1h.5v-.1c.2-.1 0-.3 0-.4H120.6Z" fill="#048ABF"/>
  <path d="M123 98c-.2 0-.2.3-.2.3a1.4 1.4 0 0 0-.6 0v.1c-.2.2-.1.3 0 .4h.2c.5.2 1.5 0 1.5 0s.2-.4 0-.6V98l-.2-.2a.9.9 0 0 0-.7 0Z" fill="#F22233"/>
  <path d="M125.2 98.1s-.2.6 0 .8h.2a.8.8 0 0 0 .7 0c.1 0 0-.2 0-.2.1 0 .2 0 .3.2v.1l.2-.1.2-.2H126.2h.3a.5.5 0 0 0 .2-.2c.2 0 .1-.2 0-.3h-.2l-.2-.1h-1.1Z" fill="#048ABF"/>
  <path d="M121.6 99.2c-.1 0-.1.2 0 .2h.3c.1 0 .1-.2 0-.2h-.3ZM124.5 99.2c-.1 0-.1.1 0 .2h.4v-.2h-.4Z" fill="#F49E2D"/>
  <path d="M120.3 99.7c-.1.1 0 .3 0 .4h-.7c-.2.2-.1.4 0 .5h.2c.5.2 1.5 0 1.5 0V99.8l-.2-.1a.9.9 0 0 0-.8 0ZM125.5 99.8l.1.4v.4h1.4v-.4c-.1-.3 0-.4 0-.4h-1.5Z" fill="#F22233"/>
  <path d="M122.6 99.8s-.1.5.1.8h.7l.2-.1v-.2l.2.2v.2l.2-.2.2-.1h-.2l-.4-.1h.4l.1-.1c.2-.1.1-.3 0-.4h-1.5Z" fill="#048ABF"/>
  <path d="M121.8 100.9c-.1 0-.1.1 0 .2h.4v-.2h-.4Z" fill="#F49E2D"/>
  <path d="M123 101.5v.8h1.4l-.1-.4v-.5h-.7a4 4 0 0 1-.7 0Z" fill="#F22233"/>
  <path d="m123.2 96.4-1.1.7v.1h.1c.2.2.5.2.7.1l.1-.3.2.2v.1l.2-.1.3-.2h-.7.4l.2-.1c.1-.2 0-.3-.1-.4h-.1l-.2-.1Z" fill="#048ABF"/>
  <path d="M124.2 97.5c-.1 0-.1.2 0 .2h.4v-.2a.4.4 0 0 0-.4 0Z" fill="#F49E2D"/>
  <path d="M128.2 98.1v.9l.7-.1h.7v-.4c-.1-.2 0-.4 0-.4h-1.4Z" fill="#F22233"/>
  <path d="M127.1 97.5c-.1 0-.1.2 0 .2h.4v-.2h-.4Z" fill="#F49E2D"/>
  <path d="M125.6 96.4c-.2 0-.1.3-.1.3h-.5l-.1.1c-.2.2-.2.4 0 .5h1.7s.1-.6-.1-.8l-.1-.2a.9.9 0 0 0-.8 0Z" fill="#F22233"/>
  <path d="M124.9 95.6h.5-.5ZM127.8 96.9l.1.3h.1c.2.2.4.2.6.1l-.8-.4Z" fill="#048ABF"/>
  <path d="m121.5 97.5-.3.2h.4v-.2ZM124.1 95.8l-.3.2h.3c.2 0 .1-.1 0-.2Z" fill="#F49E2D"/>
  <path d="m119.9 92.8-.2-.1.1-.4a.4.4 0 0 0 .4 0V92l.4-.4a.8.8 0 0 0 .4.1h.4c.2-.2 0-.4 0-.4h.1l.2.2h.2l.2-.3h-.7.1a1.3 1.3 0 0 0 .4 0v-.4l-.3-.1h-.2l.4-.4h.3V90l.3-.4.1.1a.8.8 0 0 0 .6 0h.2c.1-.1 0-.3 0-.4l.3.2v.2l.2-.2.2-.2h-.7.4l.1-.2-.1-.3h-.4l.4-.5h.3V88l.6-.2h.8l2.5.8.3.3h.7l1.5.5 1.7.5.2.2h.5l2.8.9.3.3h1l.1.1.5.2v.3a8 8 0 0 1-1 .2l.2.4.1.4-.3.3h-.4v.2h.2l-.4.4-.7.2h-.6l.2.4.1.4-.4.4h-.3v.2h.1l-.3.4-.7.1a5 5 0 0 1-.6.1l.2.4.1.3h-1l-.6-.1-.1-.3h-.8l-2.7-.8-.1-.4h-.1l-.7.1-3.1-1-.1-.2H122.8l-2.6-.9h-.2c.1-.2 0-.3-.1-.3Zm14.3-1.2h.4s-.1-.7-.5-1a1 1 0 0 0-.8 0v.1c-.2.1-.1.4 0 .4h-.1l-.4.1-.1.1c-.1.1 0 .3.1.3l.3.1 1.2-.1Zm-1.6 1.8s0-.6-.5-.8a1 1 0 0 0-.6-.1h-.2c-.2.2 0 .4 0 .5h-.4v.1h-.2l.1.4.3.1 1.5-.2Zm-3.3 2.3a5 5 0 0 0 1.5-.3s-.1-.6-.5-.8a1 1 0 0 0-.6 0 .7.7 0 0 0-.3 0c-.1.2 0 .4 0 .4a1.5 1.5 0 0 0-.5.2c-.1.2 0 .3.1.4h.3Zm-5.4-5.5a.7.7 0 0 0-.2 0c-.2.2 0 .4 0 .4a1.7 1.7 0 0 0-.5.2h-.1c-.1.2 0 .3.1.4h.3a5 5 0 0 0 1.5-.2s0-.4-.3-.6l-.2-.2a1 1 0 0 0-.6 0Zm1.8-1.9c-.3.2-.1.4 0 .5a1.6 1.6 0 0 0-.6.1c-.1.2 0 .3 0 .4h.4a5 5 0 0 0 1.5-.1l-.3-.7-.2-.1a1 1 0 0 0-.8 0Zm-4 5 1.4-.2s0-.4-.2-.7a.8.8 0 0 0-.3-.1 1 1 0 0 0-.7 0c-.3.1-.1.4 0 .4h-.4l-.2.1v.4l.4.1Zm7.7.6v.1l.2-.1.2-.2h-.6.4v-.1c.1-.2 0-.3 0-.4h-.2a.8.8 0 0 0-.6 0v.1h-.2a1 1 0 0 0-.5 0 .5.5 0 0 0-.2 0c-.1.1 0 .3.1.4H128.3c-.1.2 0 .3 0 .4h.8c.2-.2.1-.3 0-.4h.1l.2.2Zm2-2h.2l.1-.2H131.1l.4-.1c.2-.2.1-.3 0-.4H130.6a1 1 0 0 0-.6 0 .5.5 0 0 0-.2.1c0 .1 0 .3.2.4h.3c-.2.1-.1.3 0 .4h.7l.1-.1v-.3l.2.2Zm-5.3 2.4h.7v-.1l-.3-.3-.1-.5-.7.2h-.7l.3.4.1.5.7-.2Zm3.4-4.6a4 4 0 0 1-.7 0l.2.4.2.4.7-.1.6-.1-.2-.4-.1-.4-.7.2Zm-2.6 2 .3.4v.4l.8-.2h.6l-.2-.4-.1-.4-.7.1a5 5 0 0 1-.7.1Zm-2.9.4s.1.5.4.7h.8c.2-.1 0-.3 0-.3a.8.8 0 0 1 .3.2h.2l.2-.3h-.3c-.1.1-.3 0-.4 0h.5v-.1c.1-.1 0-.3-.1-.3a.8.8 0 0 0-.3-.1 1.5 1.5 0 0 0-.3 0l-1 .2Zm10 1.2h.7c.2-.2 0-.4 0-.4h.1l.2.2h.2l.2-.2h-.7a1.2 1.2 0 0 0 .5-.2l-.1-.3h-.3v-.1h-.2l-1.1.2s0 .5.4.7Zm-1.6 2 .4-.1c.2-.2 0-.3 0-.4h.1l.2.2v.1l.2-.1.2-.2H132.9a1.4 1.4 0 0 0 .4-.1c.1-.2 0-.3 0-.4a.8.8 0 0 0-.4 0c-.5-.1-1.3.1-1.3.1s0 .3.3.6a.8.8 0 0 0 .2.2h.3Zm-6.5-5.1s0 .3.2.5a.7.7 0 0 0 .2.2h.7c.2-.1.1-.3 0-.4h.2l.2.2v.1l.2-.1.1-.2h-.2a2 2 0 0 1-.4 0h.4v-.2c.2 0 .1-.2 0-.3h-.5c-.6 0-1.1.2-1.1.2Zm7.5 3.6a.4.4 0 0 0 .3 0v-.2h-.4c-.1 0 0 .1 0 .2Zm-2.1-3.2h.3c.2 0 .1-.2 0-.2h-.3c-.1.1 0 .2 0 .2Zm-.5 3.4h-.4v.3h.1a.4.4 0 0 0 .3 0V94Zm4.4-2.2h.4v-.2h-.4c-.1.1 0 .2 0 .2Zm-12-.2h-.3a.3.3 0 0 0-.1 0v.3h.4v-.3Zm2.5-.2h.3c.1 0 .1-.1 0-.2a.6.6 0 0 0-.1 0h-.2c-.1.1-.1.2 0 .2Zm-.7-1.7H124.7c-.1 0 0 .2 0 .2h.4v-.2Zm2.6-.2a.4.4 0 0 0 .3 0c.1-.1.1-.2 0-.2h-.3c-.1 0-.1.1 0 .2Zm3.8 6.3H131.7c.1-.1.1-.2 0-.2h-.3c-.2 0-.1.2 0 .2Zm-4.8-2.7h.2a.3.3 0 0 0 .2 0v-.2h-.4v.2Zm-2.5.1h-.4v.3h.4v-.3Zm8.6-1.2h-.3a.3.3 0 0 0-.1 0v.3h.4V92Zm-4.2-1c.2.1.3.1.4 0v-.2a.4.4 0 0 0-.4 0v.3Z" fill="#fff"/>
  <path d="M136.4 87v.2a.4.4 0 0 0 .4 0V87h-.3ZM136.9 85.5a.4.4 0 0 0 .4 0v-.1l-.4.1ZM141.3 89.6c-.1.1-.1.2 0 .2h.4v-.1c-.2-.1-.3-.1-.4 0Z" fill="#F49E2D"/>
  <path d="M141.7 90.8c-.1.1-.2.2-.1.3l.1.2c.4.2 1.5.3 1.5.3s.4-.6.3-.9l-.2-.2a.8.8 0 0 0-.6 0l-.3.3h-.7Z" fill="#F22233"/>
  <path d="M140.2 93c-.1 0-.1.2 0 .2h.3c.1 0 .1-.1 0-.2h-.3Z" fill="#F49E2D"/>
  <path d="M141.4 92.1s-.4.5-.3.8l.2.1h.5a.4.4 0 0 0 .3-.2v.4l.3-.1.2-.1h-.2a1 1 0 0 1-.3-.2h.6l.1-.1-.1-.4c-.4-.2-1.3-.2-1.3-.2Z" fill="#048ABF"/>
  <path d="M140.7 91.4s-.1.1 0 .2h.3c.1 0 .2-.1.1-.2h-.4Z" fill="#F49E2D"/>
  <path d="M138.4 92c-.2 0-.2.1-.1.2l.1.2c.4.2 1.5.2 1.5.2l.3-.5v-.3l-.2-.2a.8.8 0 0 0-.6 0c-.2 0-.3.2-.3.3h-.7Z" fill="#F22233"/>
  <path d="M144.5 91.4v.3l.1.2h.4l-.5-.5Z" fill="#048ABF"/>
  <path d="m144.2 92.6-.1.4-.3.4 1.1-.4h.3l.1-.2a6.2 6.2 0 0 1-1.1-.2Z" fill="#F22233"/>
  <path d="M143.5 91.9c-.1 0-.1 0 0 .1a.4.4 0 0 0 .3 0h.1v-.1a.4.4 0 0 0-.4 0ZM142.9 93.5c-.1 0-.1.2 0 .2h.4v-.1c-.2-.1-.3-.1-.4 0Z" fill="#F49E2D"/>
  <path d="M118.2 99.8c0 .1 0 .3.2.4.1-.2 0-.3-.1-.4h-.1ZM120.7 101.4l.8.4-.1-.3h-.2a2 2 0 0 0-.5 0ZM131.3 98.7l.1.3h.5l-.6-.3Z" fill="#048ABF"/>
  <path d="M130.2 99.1v.3h.4V99h-.4Z" fill="#F49E2D"/>
  <path d="m134.2 100.2.1.4h.7l-.8-.4Z" fill="#048ABF"/>
  <path d="M133.5 100.9c-.1 0-.1.1 0 .2h.3v-.3h-.3Z" fill="#F49E2D"/>
  <path d="M126.7 103c-.2.2-.1.4-.1.4h-.5l-.1.1c-.2.2-.1.3 0 .4l.2.1h1.5s.1-.5 0-.8h-.1l-.1-.2a.9.9 0 0 0-.8 0ZM129.3 104.8v.7l.5-.1.9-.6h-1.4Z" fill="#F22233"/>
  <path d="M129 103.1s-.2.6 0 .8h.2c.2.2.4.2.6 0 .2 0 .2-.2.2-.3l.2.3v.1l.2-.1.2-.2H130s.4 0 .5-.2c.2-.1.1-.3 0-.3a1 1 0 0 0-.4-.1H129Z" fill="#048ABF"/>
  <path d="M128.2 104.2c-.1.1-.1.2 0 .2h.3c.1 0 .1-.1 0-.2h-.3ZM130.9 102.5c-.1 0-.1.2 0 .2h.3c.1 0 .1-.1 0-.2h-.3ZM133.7 102.5v.2h.1l.4-.1h-.1c-.1-.1-.3-.1-.4 0Z" fill="#F49E2D"/>
  <path d="M132 99.7c-.2.1-.2.3-.1.4h-.6c-.3.2-.2.4 0 .5h.2c.4.2 1.5 0 1.5 0s.1-.5-.1-.8l-.2-.1a.9.9 0 0 0-.7 0Z" fill="#F22233"/>
  <path d="M130.5 100.9v.2h.4c.1 0 .1-.2 0-.2h-.4Z" fill="#F49E2D"/>
  <path d="M131.5 101.5v.6l.2.2a.8.8 0 0 0 .7 0l.1-.1v-.2l.2.2v.1h.3l.2-.2h-.2l-.4-.1.5-.1c.2-.1.1-.3 0-.4h-1.6ZM128.5 99.8c-.2.1-.1.3 0 .4h.2c-.2.2-.1.4 0 .5h.1a.8.8 0 0 0 .7 0v-.3c.1 0 .2 0 .2.2h.3l.2-.2h-.6a1 1 0 0 0 .3 0l.2-.1c.2-.2.2-.3 0-.4a.8.8 0 0 0-.7 0l-.2-.1a.8.8 0 0 0-.7 0Z" fill="#048ABF"/>
  <path d="m129.3 101.3-.1.3h-.5l-.1.1c-.2.2-.1.4 0 .5h.2a5 5 0 0 0 1.5 0v-.7a.4.4 0 0 0-.2-.2.8.8 0 0 0-.7 0Z" fill="#F22233"/>
  <path d="M128 102.6c-.2 0-.2.2 0 .2h.3v-.2h-.4Z" fill="#F49E2D"/>
  <path d="M125.8 101.5c-.2.1-.1.3 0 .4h.2c-.2.2-.1.4 0 .5a.8.8 0 0 0 .7 0c.2-.1.2-.2.2-.3l.1.2v.1l.2-.1.3-.2h-.6a.8.8 0 0 0 .5-.1c.2-.1.2-.3 0-.4a.8.8 0 0 0-.7 0h-.2c-.2-.2-.5-.2-.7 0ZM124.1 103.2l.7.4c.2-.1.2-.3 0-.4h-.7Z" fill="#048ABF"/>
  <path d="m118.9 99.2-.4.2h.4v-.2Z" fill="#F49E2D"/>
  <path d="m127 104.8.9.4-.1-.3h-.2l-.5-.1Z" fill="#048ABF"/>
  <path d="m134.5 101.5.1.4v.4l.8-.6c.2 0 .3-.1.3-.2a8 8 0 0 1-1.2 0ZM132 103.2v.8l1.3-1a7.7 7.7 0 0 1-1.4.2Z" fill="#F22233"/>
  <path d="m131 104.3.1.2.4-.2c-.1-.1-.3 0-.4 0Z" fill="#F49E2D"/>
  <path d="M57.4 82.3c.3-.2.8-.3 1.3-.2l24.9 7.7c.4.1.5.4.3.6L60.7 109c-.3.3-.9.3-1.3.2l-25-7.7c-.3-.1-.5-.4-.2-.6l23.2-18.5Z" fill="#fff"/>
  <path d="m62.4 86.5-.4-.2.1-.2.7-.6.3-.1h.5l.4.2H63l-.7.6v.1l.4.2h-.4ZM64.3 85.7h.3l-.4.4h.2l.4.2-.1.2-.7.5-.2-.1.6-.5v-.2H64l-.7.5H63l1.3-1ZM65 87.3l-.4-.2.1-.2.4-.3.3-.1h.5l.2.2v.2l-.3.2-.7-.2H65v.2l.5.2H65Zm.7-.4.1-.1v-.1h-.1c-.1 0-.2-.1-.2 0H65.2l.5.2ZM66.7 87.8l-.1-.1H66l-.2-.2v-.2h.1c.2-.2.4-.2.7-.1h.4L67 87h-.4l.1-.2.4.1c.2 0 .3.1.3.2l-.1.2-.4.4v.1h-.2Zm-.2-.2h.2l.2-.2-.3-.1h-.4v.2h.3ZM67.5 88h-.2l.1-.2.6-.5h-.2l.1-.1h.2l.2-.1h.3l-.3.2.4.1-.2.1h-.3l-.6.4h.1l.2.1-.1.1h-.3ZM70 88.5l-.4.1h-.4l-.4-.2h.9l.2-.1v-.1h-.1l-.3-.3.1-.2h.1l.4-.2h.4l.4.2-.1.1-.4-.1H70l-.2.1v.1h.1v.1c.2 0 .3.1.3.2v.2H70ZM71.3 87.8l.3.1-.4.3H71.5l.3.2-.1.3-.6.4h-.3l.7-.5v-.2H71l-.7.5h-.2l1.2-1ZM72 89.4l-.3-.1V89l.4-.2.3-.2.5.1c.2 0 .2.1.3.2l-.1.2-.3.2-.7-.3-.1.1v.2l.5.1-.1.1H72Zm.7-.3.2-.1v-.1h-.1l-.1-.1H72.4l-.1.1.4.2ZM73.3 89.8l-.3-.1.1-.2.3-.3.4-.1h.4c.2 0 .3.1.3.2v.2l-.3.2-.7-.2h-.2v.1l.1.1.4.1-.1.1h-.4Zm.8-.3.1-.1v-.1H74l-.1-.1h-.2l-.1.1.5.2ZM74.5 90.2l-.1-.1v-.2l.6-.4h-.2l.1-.2h.7l-.2.2h.3l-.1.2-.4-.1-.5.4v.1h.2l-.1.2-.3-.1Z" fill="#000"/>
  <path d="m58 87.3 19.6 6-1.9 1.5-19.5-6 1.9-1.5ZM53.1 87.8l3 1-14.8 11.8-3-1L53 87.9Z" fill="#D9D9D9"/>
  <path d="m56.2 88.8 19.5 6L61 106.6l-19.6-6 14.9-11.8Z" fill="#F79A9A"/>
  <path d="m56.2 88.8 19.5 6-6.2 5-19.6-6 6.3-5Z" fill="#83BA55"/>
  <path d="m60.7 97 8.8 2.8-7 5.5-8.8-2.7 7-5.5ZM50 93.8l3.8 1.1-1.5 1.2-3.8-1.2 1.4-1.1Z" fill="#83BA55"/>
  <path d="M52 93.3c.3-.2.9-.2 1.3-.1L69 98c.4.2.6.4.3.6-.3.3-.8.3-1.2.2L52.3 94c-.4-.2-.5-.4-.2-.7Z" fill="#F7F157"/>
  <path d="M52 93.3c.3-.2.9-.2 1.3-.1L69 98c.4.2.6.4.3.6-.3.3-.8.3-1.2.2L52.3 94c-.4-.2-.5-.4-.2-.7Z" fill="#F7F157"/>
  <path d="M52 93.3c.3-.2.9-.2 1.3-.1L69 98c.4.2.6.4.3.6-.3.3-.8.3-1.2.2L52.3 94c-.4-.2-.5-.4-.2-.7ZM53.5 92.2c.3-.2.8-.3 1.2-.1l15.8 4.8c.4.1.5.4.2.6-.2.2-.8.3-1.2.2l-15.7-4.9c-.4-.1-.6-.4-.3-.6Z" fill="#F7F157"/>
  <path d="M53.5 92.2c.3-.2.8-.3 1.2-.1l15.8 4.8c.4.1.5.4.2.6-.2.2-.8.3-1.2.2l-15.7-4.9c-.4-.1-.6-.4-.3-.6Z" fill="#F7F157"/>
  <path d="M53.5 92.2c.3-.2.8-.3 1.2-.1l15.8 4.8c.4.1.5.4.2.6-.2.2-.8.3-1.2.2l-15.7-4.9c-.4-.1-.6-.4-.3-.6ZM57.6 91.9c.3-.2.8-.3 1.3-.2l5.3 1.7c.4.1.6.4.3.6-.3.2-.8.3-1.2.1l-5.4-1.6c-.4-.1-.6-.4-.3-.6Z" fill="#F7F157"/>
  <path d="M57.6 91.9c.3-.2.8-.3 1.3-.2l5.3 1.7c.4.1.6.4.3.6-.3.2-.8.3-1.2.1l-5.4-1.6c-.4-.1-.6-.4-.3-.6Z" fill="#F7F157"/>
  <path d="M57.6 91.9c.3-.2.8-.3 1.3-.2l5.3 1.7c.4.1.6.4.3.6-.3.2-.8.3-1.2.1l-5.4-1.6c-.4-.1-.6-.4-.3-.6Z" fill="#F7F157"/>
  <path d="M68.8 100.5v.2h-.4c-.1 0 0-.1 0-.2h.3Z" fill="#F49E2D"/>
  <path d="M67.9 99.5s.2.5 0 .7v.1l-.1.1a.7.7 0 0 1-.6 0 .3.3 0 0 1-.2-.3l-.2.3v.1l-.2-.1-.2-.1h.2l.4-.2h-.6c-.2-.2-.1-.3 0-.4h.1l.4-.2h1ZM70.7 101l.1.1-.5.2-.7.2H69.3c-.2-.1-.2-.3 0-.4l.4-.1h1ZM62 100.6c0 .1 0 .2-.2.3 0 0-.2.1-.4 0l.5-.3Z" fill="#048ABF"/>
  <path d="M70 103.4c.1.1.1.2 0 .2h-.3c-.1 0-.1-.1 0-.2H70ZM71.7 98.8h-.3c-.1 0-.1-.2 0-.2l.3.2Z" fill="#F49E2D"/>
  <path d="m66.3 105.1.1.2.3.3a3 3 0 0 1-.3 0l-.1-.5Z" fill="#F22233"/>
  <path d="M66 105.9s.1 0 0 0v.2a.4.4 0 0 1-.4 0v-.2c.1-.1.3-.1.4 0Z" fill="#F49E2D"/>
  <path d="m67.8 105.5-.3.3-.1.5v-.1l-.7-.6-.3-.3a6.9 6.9 0 0 0 1.4.2Z" fill="#F22233"/>
  <path d="m67.2 106.3-.7.5c-.2-.1 0-.3 0-.4h.2l.5-.1Z" fill="#048ABF"/>
  <path d="M65 106.5v.7l-.4-.1-1-.5H65Z" fill="#F22233"/>
  <path d="M65.5 104.4h.1Z" fill="#F49E2D"/>
  <path d="M80.5 103.5c.2.1 0 .3 0 .4h.3l.2.1h.1c.1.2 0 .3-.1.4l-.3.1h-.2a6 6 0 0 1-1.3-.2l.2-.4v-.1l.3-.3c.2-.1.5-.2.7 0h.1Z" fill="#F22233"/>
  <path d="M78.6 104.5c.1 0 .1.1 0 .2H78.3c-.1-.1-.1-.2 0-.2h.3Z" fill="#F49E2D"/>
  <path d="M78.4 103.3s0 .3-.3.5v.1l-.2.2h-.5a.6.6 0 0 1-.3 0c-.1-.1 0-.3 0-.4l-.2.2-.1.1-.2-.1-.1-.2H77h-.4v-.1c-.1-.2 0-.3 0-.4h.7l1 .1ZM70.3 101.3l-.2.1v.1h-.5l.7-.2Z" fill="#048ABF"/>
  <path d="M73.9 102.2v.2h-.4v-.2a.4.4 0 0 1 .4 0Z" fill="#F49E2D"/>
  <path d="m73.6 101-.3.5-.1.4-.7-.2h-.6l.2-.4.1-.4.7.1h.7Z" fill="#F22233"/>
  <path d="M72.5 102.6c.1.2 0 .3 0 .4H72c.1.2 0 .3 0 .4h-.2a.8.8 0 0 1-.6 0v-.3h-.1l-.2.1v.2l-.2-.2-.2-.2h.6a.7.7 0 0 1-.3 0h-.1c-.1-.2 0-.3 0-.4h.2a.8.8 0 0 1 .6 0H72.6Z" fill="#048ABF"/>
  <path d="m74.5 105.5.1.1v.2h.2l.4.2c.2.1 0 .3 0 .4h-.3l-.3.1h-1.2v-.8h.1a.6.6 0 0 1 .2-.2c.2-.1.5-.1.8 0Z" fill="#F22233"/>
  <path d="M74.4 104.6c.1.1.1.3 0 .4a.9.9 0 0 1-.4 0v.1l-.6.4h-.2v-.2c-.1 0-.1-.2 0-.2l-.3.1v.1l-.2-.1-.1-.2h.5-.3v-.1c-.2-.1-.2-.3 0-.3H74.4Z" fill="#048ABF"/>
  <path d="M76.7 102.5c.1 0 0 .2 0 .2h-.4v-.2h.4ZM71.1 101.8c.1 0 0 .1 0 .2a.4.4 0 0 1-.3 0h-.1v-.2h.4Z" fill="#F49E2D"/>
  <path d="m68.9 104-.3.4v.1a.7.7 0 0 1-.4.2h-.5c-.2-.2-.1-.4 0-.4h-.2l-.1.2-.1.1-.2-.1-.1-.2H67.6l-.4-.1c-.1-.2 0-.3 0-.4h.7l1 .1Z" fill="#048ABF"/>
  <path d="M67.2 103v.3H67a.4.4 0 0 1-.3 0v-.3h.3Z" fill="#F49E2D"/>
  <path d="M69.1 102v.1c.2.1 0 .4 0 .4l.5.1.1.1-.1.3-.3.1a6.5 6.5 0 0 1-1.4-.2h-.1s.1-.6.5-.8h.8Z" fill="#F22233"/>
  <path d="M70.7 105.8a1.4 1.4 0 0 1-.3.6.7.7 0 0 1-.4.2h-.5c-.2-.2 0-.4 0-.4h-.2l-.1.2v.1l-.2-.1-.2-.2h.7l-.5-.1c-.1-.2 0-.3 0-.4h.4c.4-.1 1.3 0 1.3.1Z" fill="#048ABF"/>
  <path d="M71.9 105.4v.2h-.3a.3.3 0 0 1-.1 0v-.2a.4.4 0 0 1 .4 0Z" fill="#F49E2D"/>
  <path d="M71 104c.2 0 .1.3 0 .3h.3l.3.2c.1.2 0 .3 0 .4H71l-1.3-.1a1.5 1.5 0 0 1 .2-.5l.3-.3c.2-.2.5-.2.8-.1ZM71.8 106.2l.2-.2.5-.1h-.2l-.5.3Z" fill="#F22233"/>
  <path d="m66.8 102.4-.3.3h-.7l1-.3Z" fill="#048ABF"/>
  <path d="m69.3 107.4-.6.3-.4-.5.7.1h.3Z" fill="#F22233"/>
  <path d="M69 105c.1 0 .1.1 0 .2h-.2a.3.3 0 0 1-.2 0v-.2h.4ZM66.2 104.6v.3H66l-.3-.2h.4ZM68 106.6h.1v.2H68l-.3-.2a.4.4 0 0 1 .4 0Z" fill="#F49E2D"/>
  <path d="M75.3 104.8h-.5.5ZM72.3 106l-.2.3a.8.8 0 0 1-.7.1l.4-.2.5-.2Z" fill="#048ABF"/>
  <path d="M69.5 108.2c.1 0 .1.1 0 .2H69.2c-.1 0-.1-.2 0-.2h.3ZM72.4 108.3v.2H72v-.2a.4.4 0 0 1 .4 0Z" fill="#F49E2D"/>
  <path d="M71.7 107.2v.4l-.1.4h-1.4l.1-.4v-.5a7 7 0 0 0 1.4.1Z" fill="#F22233"/>
  <path d="M72.9 106.6v.2h-.2a.4.4 0 0 1-.2 0c-.1 0-.1-.1 0-.2h.3ZM76 105l.4.2H76v-.2ZM80.4 101.2l.2.3H80.3c-.1-.1 0-.2 0-.2Z" fill="#F49E2D"/>
  <path d="m79.2 100 .8.8a.7.7 0 0 1-.2.2h-.5a.5.5 0 0 1-.2 0c-.1-.2 0-.4 0-.4H79l-.2.2h-.2l-.1-.2H79s-.3 0-.4-.2c-.2-.1 0-.2 0-.3l.3-.1h.2ZM81 101.9l.8.8v.1h-.3l-.2.1a.6.6 0 0 1-.3-.1c-.2-.1 0-.3 0-.3h-.2l-.1.1-.1.2-.2-.2-.1-.2H80.9h-.4v-.4l.3-.1h.2ZM77.9 99h-.5.5ZM82.7 103.8c0 .2-.2.3-.4.4l.1-.3h.3ZM79.5 105.2l-1 .3c0-.1 0-.2.2-.3h.8Z" fill="#048ABF"/>
  <path d="m82.3 103.2.2.2a.4.4 0 0 1-.3 0c-.1 0 0-.1 0-.2ZM78.5 99.3l.3.3H78.5c-.2-.1-.1-.2 0-.3ZM79.6 102.9v.2h-.4c-.1-.1 0-.2 0-.2h.4Z" fill="#F49E2D"/>
  <path d="m68.5 107.8-.1.2h-.5l.6-.2Z" fill="#048ABF"/>
  <path d="M69 110v.1h-.4c-.1 0 0-.1 0-.2a.4.4 0 0 1 .4 0Z" fill="#F49E2D"/>
  <path d="M71.1 108.9c.2 0 .2.3 0 .4h-.2c.1.2.1.3 0 .4h-.1a.8.8 0 0 1-.7 0v-.3l-.2.2v.1l-.3-.1-.2-.2h.6-.4c-.2-.2-.2-.4 0-.5H70.4l.5-.1h.2ZM65.5 109.2l-.2.3h-.1c-.2.2-.4.2-.6.1l.9-.4ZM84 106.6h-.4.4Z" fill="#048ABF"/>
  <path d="M77.7 110v.1l-.3.2c-.1 0-.1-.2 0-.2h.3ZM74.8 110v.3h-.2a.3.3 0 0 1-.2 0v-.2c.2-.1.3-.1.4 0Z" fill="#F49E2D"/>
  <path d="m67.3 112.2-.1.3v.5l-1.3-1a7 7 0 0 0 1.4.2Z" fill="#F22233"/>
  <path d="M68.4 111.5c.1.1.1.2 0 .2a.4.4 0 0 1-.3 0c-.1 0-.1-.1 0-.2h.3Z" fill="#F49E2D"/>
  <path d="m70.3 112.2-.1.6-.1.1H70c-.2.2-.5.2-.7.1-.2-.1-.1-.3 0-.3-.2 0-.3.1-.3.2v.1l-.2-.1-.2-.2H69.2l-.5-.1c-.2-.2-.1-.3 0-.4h.2a5 5 0 0 1 1.4 0ZM72 113.9l-.9.4.1-.3.2-.1h.6Z" fill="#048ABF"/>
  <path d="m69.7 113.9-.1.3v.4l-.3-.2h-.1l-.9-.6a7.2 7.2 0 0 0 1.4 0Z" fill="#F22233"/>
  <path d="M65.6 111.5v.2h-.1l-.3-.2a.4.4 0 0 1 .4 0ZM68 113.3v.2l-.4-.2a.4.4 0 0 1 .4 0Z" fill="#F49E2D"/>
  <path d="m78 110-.2.3h-.4l.4-.2h.1ZM83.6 112.5v.4l-.2.1c.2.1.2.3 0 .4h-.7l-.1-.2-.1.1v.2l-.3-.2H82h.2l.4-.2H82c-.2-.2-.2-.3 0-.4.1-.2.5-.2.6 0l.2-.1c.2-.2.5-.2.7 0ZM87 108l-.2.1h-.7v-.3c-.2 0-.2.2-.3.3h-.2l-.2-.2H86a1.9 1.9 0 0 1-.4 0l-.1-.1c-.2-.2-.2-.3 0-.4h.1l.1-.1 1.3.6ZM89.7 109.5l-.2.1a.8.8 0 0 1-.7 0v-.1c-.1 0-.1-.1 0-.2-.2 0-.2.2-.3.3h-.2l-.2-.2H88.7h-.3a.5.5 0 0 1-.3-.2l.1-.3h.1l.1-.1 1.3.7ZM91 110.4v.4c-.2-.1-.2-.3 0-.4ZM88.7 112.2l-.8.4.1-.3h.2l.5-.1ZM85.4 114.1l-.7.4v-.3h.7Z" fill="#048ABF"/>
  <path d="M90.7 110h-.4v-.1l.4.1ZM87.9 108.5h-.4v-.2l.4.2ZM78.6 115.5v.3l-.4-.2c0-.1.3-.1.4 0Z" fill="#F49E2D"/>
  <path d="m67.7 97-.5.1.5-.1Z" fill="#048ABF"/>
  <path d="M68.9 97.3a.4.4 0 0 1-.4 0c-.1 0 0-.1 0-.2l.4.2ZM60.2 103v.1a.4.4 0 0 1-.4 0s-.1 0 0-.1h.3Z" fill="#F49E2D"/>
  <path d="M66 103.6h-.1l-.2.3-.2.4-.4-.4-.2-.2a.4.4 0 0 1-.1-.3 7.4 7.4 0 0 0 1.1.2ZM62 105v.5l.2.4-1.5-.7h.7l.7-.1Z" fill="#F22233"/>
  <path d="M66 107c-.2.2-.6.3-1 .2v-.7h-1.4l-.5-.1v-.3h-.3l-.6-.2-.1-.4v-.4h-1.4l-.6-.2h.1v-.3h-.4l-.5-.1v-.8a5.3 5.3 0 0 1-1.2 0c-.2-.2-.1-.4.2-.6l.3-.2h.6v-.2l.2-.3 2-1.4h.4c.1-.2.2-.3.1-.4l2.4-1.6h.6l.1-.1v-.4l2-1.3.3-.1.4-.1.8.1v.2c.1.1.3.1.4 0l.6.3a.9.9 0 0 0-.2.1c-.2.1-.3.3 0 .4h.5l-.4.2h-.2l.2.1.3.2v-.2l.1-.2v.2h.2v.1h.6l.1-.1v-.1l.7.3c-.1 0-.1.1 0 .2h.3l.6.3H72c-.2.1-.2.3 0 .4a1.2 1.2 0 0 0 .5.1l-.3.1H72l.3.2h.2l.2-.3v.3H73.6v-.1l.1-.1.6.3-.7.3-2.7.8v-.2a6.2 6.2 0 0 0-1.4.1c-.3.2-.3.4-.2.5h.2l-2.6 1-1 .2-.5.2c-.3 0-.5.3-.5.4a2 2 0 0 0-.3 0v-.2h-.2a.9.9 0 0 0-.7 0h-.1v.2c-.2.3 0 .7 0 .7a5.2 5.2 0 0 0 1.6-.1l.4.4v.1l.3.3.3.2.2.2.1.5h.3l.6.6-.1.1a2 2 0 0 0-.5 0l-.1.1c-.2.1-.3.3-.1.4l-.4.2Zm.2-9 .1.8a5 5 0 0 0 1.6-.1c.2-.2.3-.3 0-.5h-.6V97.8h-.1v-.1H66.3l-.1.1v.2Zm3.8 1.1h-.7a.4.4 0 0 0-.2.3l.1.8a5 5 0 0 0 1.6-.2c.2-.1.3-.3 0-.4l-.6-.1-.1-.3H70Zm-7.9 3.5h.1c.2-.2.3-.4 0-.5H62c-.2-.1-.3-.1-.4 0V101.7l-.2-.1h-.7l-.1.1v.1c-.2.3 0 .8 0 .8l1.5-.1Zm1.4-2.7.1.4v.4h.7l.7-.1v-.4c-.1-.2 0-.4 0-.4h-1.5ZM68 102v-.4c-.1-.2-.1-.3 0-.4h-.7c-.4.1-.8 0-.8 0l.1.5v.4H68Zm-4.6-.3v.3a.4.4 0 0 0 .1 0l.5.1-.3.1h-.3l.3.1.2.2v-.2l.1-.2.1.3h.7l.2-.1v-.3h-.1a.8.8 0 0 0 0-.1c.3-.1.3-.3 0-.4h-.6l-.2.1a.8.8 0 0 0-.6 0Zm3.2-2c-.2 0-.3.2-.1.4h.6l-.4.2h-.2.2l.2.2v-.1l.2-.3.1.3H68v-.1c.2-.3 0-.8 0-.8a6.1 6.1 0 0 0-1.4.1Zm-5 4.6h.6v-.1c.3-.3 0-.8 0-.8a5.2 5.2 0 0 0-1.3 0v.1c-.2.1-.3.3-.1.4h.1a1.5 1.5 0 0 0 .4.1l-.3.1h-.3l.3.2h.2c0-.2.1-.2.2-.3v.2l.1.1Zm2.8 1.4h.6a.4.4 0 0 0 .2-.2v-.7a6 6 0 0 0-1.4.1h-.1c-.2.2-.3.3 0 .4v.1h.5l-.4.1h-.2l.2.2h.3l.1-.3.1.3h.1Zm1.6-6.4V99h-.4v.2h.4Zm-2.8 1.9v-.2a.4.4 0 0 0-.4 0v.2h.4Zm-.4 3.4a.4.4 0 0 0 .4 0v-.2a.4.4 0 0 0-.4 0c-.1 0-.1.1 0 .2Zm5.7-4s-.1 0 0 0v.1h.4v-.2h-.4Zm-2.7 5.5h.3v-.1c.1 0 0 0 0-.1h-.3c-.1 0-.1.1 0 .2Zm.2-5.1v-.1c.1 0 0 0 0 0v-.1h-.3l-.1.1c.2.1.3.1.4 0Zm5.8-.7h-.4c-.1 0-.1.1 0 .2h.4v-.2ZM63 103v-.3a.4.4 0 0 0-.4 0v.3h.4Zm-3.3.2h.4v-.3h-.4v.3Zm9-4.4h-.4v.1c-.1 0 0 .1 0 .2h.4v-.2Z" fill="#fff"/>
  <path d="m70.8 98.3-.2.2H70l-.1-.1v-.2l-.2.2v.2l-.3-.2h-.2.2l.4-.2h-.6c-.2-.2-.1-.4 0-.5H69.6l1.3.6Z" fill="#048ABF"/>
  <path d="M68 98.2c.2.2.1.3 0 .5h-.2a5 5 0 0 1-1.5.1s-.2-.4 0-.7v-.2h.1c.2-.2.5-.2.7-.1l.2.1v.2h.6v.1Z" fill="#F22233"/>
  <path d="M65 98.5v.4h-.1c-.2.1-.4.2-.6.1l.8-.5Z" fill="#048ABF"/>
  <path d="M68.8 98.9v.1a.4.4 0 0 1-.4 0s-.1 0 0-.1a.4.4 0 0 1 .4 0ZM65.9 99v.3h-.4V99a.4.4 0 0 1 .4 0Z" fill="#F49E2D"/>
  <path d="m73.6 99.7-.1.2h-.7a.3.3 0 0 1-.1-.3l-.2.2v.2l-.2-.2H72h.3l.3-.2H72c-.2-.2-.2-.4 0-.5h.2l1.3.6Z" fill="#048ABF"/>
  <path d="M70.9 99.6c.2.1.1.3 0 .4h-.2a5 5 0 0 1-1.5.2s-.2-.5 0-.8a.4.4 0 0 1 .1-.2c.2-.1.5-.2.7 0 .2 0 .2.2.2.3h.6Z" fill="#F22233"/>
  <path d="m74.5 100-.3.2c-.2.1-.5.2-.7 0l.7-.2h.3Z" fill="#048ABF"/>
  <path d="M71.7 100.3v.2h-.4c-.1 0-.1-.1 0-.2a.4.4 0 0 1 .4 0Z" fill="#F49E2D"/>
  <path d="M76.8 99.6c.2.2 0 .4 0 .4a1.5 1.5 0 0 1 .5.1v.1c.2.1.1.3 0 .3l-.4.1h-.2a6 6 0 0 1-1.2-.1 1.6 1.6 0 0 1 .2-.5v-.1l.3-.3h.8ZM65 99.8s-.1.2 0 .4v.4h-1.4v-.7h.7l.6-.1Z" fill="#F22233"/>
  <path d="M74.8 100.6c.1 0 .1.1 0 .2a.4.4 0 0 1-.3 0c-.1-.1-.1-.2 0-.2h.3ZM66 100.8v.1c-.2.1-.3.1-.4 0h-.1v-.1h.4ZM77.7 101c.1 0 0 0 0 .1h-.4v-.2a.4.4 0 0 1 .4 0ZM63 101c.2 0 .2.1.1.2h-.4v-.2h.4Z" fill="#F49E2D"/>
  <path d="M67.8 101.2v.4l.1.4h-1.4v.1-.8a7.2 7.2 0 0 0 1.3 0Z" fill="#F22233"/>
  <path d="M76.5 101.4s0 .6-.4.8h-.8c-.1-.1 0-.3 0-.4h-.1l-.2.2v.1l-.2-.1-.2-.2h.7-.4v-.1h-.1l.1-.4h.6l1 .1Z" fill="#048ABF"/>
  <path d="M78.7 101.5c.2.1 0 .3 0 .4h.5a.2.2 0 0 1 .1.2l-.1.3h-.3l-.2.1h-.1a6 6 0 0 1-1.2-.2l.2-.5c0-.2.2-.3.3-.3.2-.1.5-.2.7 0h.1Z" fill="#F22233"/>
  <path d="M64.9 101.5c.2 0 .2.3 0 .4h-.2l.1.1v.3c-.2.2-.5.2-.7 0-.2 0-.2 0-.2-.2v.2c-.1.1 0 .2 0 .2l-.3-.2h-.3.3l.3-.2a.8.8 0 0 1-.5 0c-.2-.2-.2-.3 0-.4.1-.2.4-.2.6 0l.1-.2c.3-.1.6-.1.8 0Z" fill="#048ABF"/>
  <path d="M62.2 102c.3.2.2.4 0 .5h-.1c-.4.2-1.5.2-1.5.2s-.2-.5 0-.8l.1-.2a.8.8 0 0 1 .7 0h.2v.3H62.2Z" fill="#F22233"/>
  <path d="m59.4 102.4-.1.3-.1.1h-.6l.8-.4Z" fill="#048ABF"/>
  <path d="m63 102.7.1.2c-.1.1-.3.1-.4 0 0 0-.1 0 0-.1s.2-.1.4 0Z" fill="#F49E2D"/>
  <path d="m75.4 103-.2.4-.1.4-.7-.2h-.7l.2-.4.2-.4.7.1.6.1ZM64.3 103l.2.1v.2h.3v.1l.1.3.2.2H65c-.4.2-1.5.1-1.5.1s-.2-.4 0-.7v-.1l.1-.2h.7Z" fill="#F22233"/>
  <path d="M75.7 104.2c.1 0 .1.1 0 .2h-.3c-.1-.1-.1-.2 0-.2H75.7Z" fill="#F49E2D"/>
  <path d="M62.2 103.4s.2.5 0 .8H62c-.2.2-.4.2-.6.1h-.2v-.3l-.2.2v.2l-.2-.2h-.3.3l.3-.2a1.8 1.8 0 0 1-.4 0h-.1c-.2-.2-.2-.4 0-.5h.2c.5-.2 1.3-.1 1.3-.1Z" fill="#048ABF"/>
  <path d="M59.2 103.7v.3l.1.5-1-.5a.6.6 0 0 1-.2-.3 8 8 0 0 0 1.1 0Z" fill="#F22233"/>
  <path d="M63 104.4c.1 0 .1.1 0 .2a.4.4 0 0 1-.3 0c-.1 0-.1-.2 0-.2h.3ZM60.2 104.6c.1 0 .1.2 0 .2l-.4-.1c.1-.1.3-.1.4 0Z" fill="#F49E2D"/>
  <path d="M77 105.3v.3h-.1l-.5-.4-.3-.2H76l-.1-.1v-.2s.4 0 .7.2h.7l-.2.4Z" fill="#F22233"/>
  <path d="M65 104.8s.2.4.1.7l-.2.2h-.6a.3.3 0 0 1-.2-.3l-.1.3h-.3l-.2-.2H64a1.8 1.8 0 0 1-.4-.1.5.5 0 0 1-.2 0c-.2-.2-.1-.3 0-.5h.4l1.1-.1Z" fill="#048ABF"/>
  <path d="M63.1 106.1c.1 0 .1.2 0 .2l-.4-.1c.2-.1.3-.1.4 0Z" fill="#F49E2D"/>
  <path d="m76.9 105.6.4.3.7.4-.1.1a.8.8 0 0 1-.8 0c-.1 0-.1-.1 0-.2-.1 0-.2 0-.3.2v.1l-.2-.1-.2-.2H77l-.4-.1h-.1c-.1-.2 0-.3 0-.4a.8.8 0 0 1 .4-.1Z" fill="#048ABF"/>
  <path d="m78.4 106.7.4.2h-.2a.4.4 0 0 1-.2 0v-.2ZM75.8 106.7v.2a.4.4 0 0 1-.4 0c-.1 0 0-.2 0-.2h.4ZM85.2 107h-.4v-.1c-.1 0 0-.1 0-.2l.4.2Z" fill="#F49E2D"/>
  <path d="m82.3 104.2-.2.1-2.6.9h-.8l-.2.3-1.2.4-.4-.3s0-.2.2-.3l.2-.4h-.7l-.6-.2-.1.2-.6-.1h-.5l-.2.1-.5.2a.9.9 0 0 0 .2-.1c.2-.1.3-.3.1-.4h-.2a1 1 0 0 0-.5 0H73.4a.8.8 0 0 0-.6 0c-.2 0-.2.2 0 .3l.3.1h-.5l.1.2.2.1.2-.2v.2l.1.1h.2l-.9.5a1 1 0 0 0-.5 0l-.2.3-.4.2-2 1H69l-.7-.2-.3-.3.1-.2c-.1-.1-.3-.1-.4 0l-.3-.4.1-.4.3-.4H67l-.7-.2-.1-.2-.2-.2h.1s.1-.2 0-.2H66l-.3-.3v-.5l.3-.3a5.3 5.3 0 0 1-1.1-.2c0-.2.2-.4.5-.5l.5-.2h.7l.3-.3 2.6-.8h.2l.4-.1h.1l.2-.2.5-.2 2.7-.9c.2.2.5.1.7 0l.3-.3 2.6-.8H78.3l.2.2c-.1 0-.2.2 0 .2 0 0 .1.1.2 0l.5.5h-.5c0 .2-.2.3 0 .4l.4.2H78.5l.1.1.2.2v-.1l.2-.2h.1v.3h.2a.9.9 0 0 0 .6 0l.5.3h-.1c0 .1-.1.2 0 .2l.1.1h.2l.4.4h-.4l-.2.4h.1l.4.1a2 2 0 0 1-.4 0h-.2l.1.2.2.2v-.2h.2l.2-.1s-.2.2 0 .3l.3.1h.2l.2-.1h.1l.5.4h-.1s-.1.1 0 .2a.4.4 0 0 0 .2 0h.1l.2.5h-.3v.3ZM67.8 103a6.5 6.5 0 0 0 1.5.1h.3c.1-.2.2-.3.1-.4-.2-.2-.5-.2-.6-.2 0 0 .2-.3 0-.4h-.2a1 1 0 0 0-.6 0c-.4.2-.5.8-.5.8Zm8.8-3.4a1 1 0 0 0-.6 0l-.3.3-.2.6 1.2.2h.2l.4-.2c.1 0 .2-.2 0-.3l-.5-.2s.2-.2 0-.4h-.2Zm4 5 .4-.2c.1 0 .2-.2.1-.3l-.3-.2h-.2s.1-.3 0-.4h-.2a1 1 0 0 0-.7 0 .8.8 0 0 0-.3.3l-.2.5 1.2.2h.3Zm-3.2-2.3 1.2.2h.3l.3-.1c.1-.1.2-.2.1-.3v-.1H79l-.3-.1s.2-.3 0-.4a1 1 0 0 0-.8 0l-.3.2v.1l-.2.5Zm-7.7 2.5a5.6 5.6 0 0 0 1.5.2l.3-.1c.2-.1.2-.2.1-.4l-.3-.1h-.2c0-.1.1-.3 0-.4l-.1-.1a1 1 0 0 0-.8 0l-.3.3v.1l-.2.5Zm1.1-1.6.2.2v-.2h.2v-.1.3h.1l.3.1h.1a.7.7 0 0 0 .3 0c.2-.2.2-.3.1-.4h.2l.1-.1c.2-.1.2-.2.1-.4h-.2a1 1 0 0 0-.5 0 .7.7 0 0 0-.1 0H70.9c-.2 0-.2.2-.1.3l.4.2a2 2 0 0 1-.3 0h-.3l.2.1Zm2.1-2.2-.7-.1-.1.4a5 5 0 0 1-.2.3l.6.1c.4 0 .7.2.7.2l.2-.5c0-.2.1-.3.2-.3a4 4 0 0 1-.7 0Zm1.5 2.6.7.2.1-.4.2-.4h-.6l-.7-.2-.2.4-.2.4h.7Zm2.1-2.2a5.8 5.8 0 0 0-1.3-.1h-.3c-.1.1-.2.2-.1.3v.1l.5.1h-.7l.2.2.2.1.2-.2h.1v.3h.2a.9.9 0 0 0 .6 0c.3-.2.4-.8.4-.8Zm-5.8 4.4-1.3-.2-.3.1c-.1.1-.2.2-.1.3.2.2.4.2.5.2h-.7l.2.2.1.1v-.1l.2-.1.2-.1s-.2.2 0 .3l.3.1h.4l.2-.2.3-.6Zm7-1.6.2-.1.2-.2.3-.6a5.5 5.5 0 0 0-1.4-.1h-.2c-.2.1-.2.2-.2.3l.1.1.4.1H76.5l.1.2.2.1.2-.2h.1v.3h.5Zm-9.5.5a.7.7 0 0 0 .4-.2l.3-.6-1-.2h-.4l-.3.1v.3c.1.2.3.2.4.2H67l.1.2.2.1v-.1l.2-.1.1-.1v.3l.3.1h.3Zm1.5-1.3c-.1 0-.1.2 0 .2 0 0 .1.1.2 0a.3.3 0 0 0 .1 0c.1 0 .1 0 0-.1a.4.4 0 0 0-.3 0Zm6 1c.1 0 .1-.2 0-.2H75.4c-.1 0-.1 0 0 .1v.1a.4.4 0 0 0 .3 0Zm3.6-1.6h-.1c0 .1-.1.2 0 .2l.1.1h.2c.1 0 .2-.1.1-.2h-.3Zm-7.7 2.6c-.2 0-.2.1-.1.2h.3c.2 0 .2-.1.1-.2h-.3Zm4.7-3v.3h.4s.1-.1 0-.2a.4.4 0 0 0-.4 0Zm-9.2.9c.2 0 .2-.2.1-.2h-.4s-.1 0 0 .1a.4.4 0 0 0 .3 0Zm11.5 1.4c.1 0 .1-.1 0-.2h-.3c-.1 0-.1 0 0 .1v.1a.4.4 0 0 0 .3 0Zm-3.7-4v-.1h-.4c-.1 0-.1 0 0 .1v.1a.4.4 0 0 0 .3 0ZM71 102s.1-.1 0-.2a.4.4 0 0 0-.4 0v.2h.4Zm-2.1 3.2c.1 0 .1-.1 0-.2a.4.4 0 0 0-.3 0c-.1 0-.1 0 0 .1v.1h.2Zm4.9-2.8v-.2h-.1a.4.4 0 0 0-.3 0v.2h.2a.3.3 0 0 0 .2 0Zm3.5-1.5-.1.2a.4.4 0 0 0 .2 0h.2s.1 0 0-.1h-.3Z" fill="#fff"/>
  <path d="M77 107.1c.1.1 0 .3 0 .4h.6v.1c.2.2.1.3 0 .4h-.2l-.5.1h-1v-.6c0-.2.1-.3.2-.3a.9.9 0 0 1 .8-.1Z" fill="#F22233"/>
  <path d="M74.7 107.3v.6l-.2.1c-.2.2-.5.2-.7.1-.2 0-.2-.2-.2-.2v-.1l-.2.2v.1l-.2-.1-.2-.2H73.6l-.5-.1c-.1-.2 0-.3 0-.4h.3c.2-.1.5-.1.8 0h.5ZM79.3 107.3l1 .7v.1h-.1a.8.8 0 0 1-.7 0h-.1v-.3l-.2.2v.2l-.3-.2-.2-.1h.7c-.1 0-.4 0-.5-.2-.2-.1-.1-.3 0-.3l.2-.1h.2Z" fill="#048ABF"/>
  <path d="M81.6 113.7v.2h-.4v-.2h.4Z" fill="#F49E2D"/>
  <path d="M77.6 114.5v.8l-1.4-.8h1.4ZM80.4 116v.7c-.2 0-.3 0-.4-.2l-1-.5a8.9 8.9 0 0 0 1.4 0Z" fill="#F22233"/>
  <path d="m81.8 116.3-.4.2c-.2.2-.7.3-1 .2v-.7H79l-.5-.2c.2-.1.2-.2 0-.3h-.3l-.5-.2-.1-.4v-.4h-1.4l-.5-.3.2-.1v-.1h-.1c-.1-.1-.3-.1-.4 0l-.5-.3v-.8a5.2 5.2 0 0 1-1.2 0c0-.1 0-.4.3-.5l.4-.2.5-.1h.1l.2-.4.5-.3.7-.5 1-.5.4-.1.1-.3.3-.2 1.3-.7 1-.6h.5l.1-.2.1-.3 2.1-1.2.3-.1.4-.1.8.1s-.1.1 0 .2.3.1.4 0l.6.4H85.5c-.2.2-.2.3 0 .4l.1.1h.4l-.4.1h-.2l.2.2h.2l.2-.3.1.3H87v-.1l.6.3v.2h.4l.6.3h-.2c-.3.2-.3.3-.2.4l.2.1h.4l-.4.1h-.2l.2.2h.2l.2-.3v.2l.1.1H89.7v-.1l.7.3v.2h.4c.2.1.3.3.3.4-.2.1-.2.3 0 .4l-.2.1-2.1 1.3a2 2 0 0 0-.5 0H88c-.1.2-.2.3 0 .4l-2.6 1.5h-.6c-.2.2-.2.3 0 .4l-2.2 1.3-.5.1H82c-.2.2-.3.3-.2.4Zm-1.5-7h-.7v.8H81v-.8h-.7Zm3.1 5.7h.1c.2-.1.3-.3.1-.5H83c0-.1 0-.3-.2-.4a.8.8 0 0 0-.7 0l-.1.1-.1.1c-.2.3 0 .8 0 .8h1.5Zm-2.7-1.6c.3-.2.3-.4.2-.5h-.7l-.1-.4c-.3-.2-.6-.1-.8 0l-.2.2c-.1.3 0 .8 0 .8l1.6-.1Zm5.8-1H85v.7a14.2 14.2 0 0 1 1.4 0v-.8Zm-3.5-.8h.8l-.1-.4v-.4h-1.4s.1.2 0 .4v.4h.7Zm-.6-4v.8l1.6-.1h.1c.2-.2.3-.4 0-.5l-.6-.1-.1-.3a.8.8 0 0 0-.8 0l-.2.2Zm6.5 2.8c-.3-.1-.6 0-.8 0a.4.4 0 0 0-.1.2v.8h1.5l.1-.1c.2-.1.3-.3 0-.4v-.1H89l-.1-.4Zm-2.8-1.6h-.7a.4.4 0 0 0-.2.2c-.1.3 0 .8 0 .8h1.5l.2-.1c.2-.1.2-.3 0-.5h-.6l-.1-.4H86Zm-8.2 3.1h.1c.2-.1.3-.3 0-.4-.2-.2-.5-.1-.6-.1l-.1-.4h-.8a.4.4 0 0 0-.1.2v.1a.6.6 0 0 0 0 .2v.5h1.5Zm4.9.7a.8.8 0 0 0-.7 0c-.2.2-.2.3 0 .4.1.1.3.2.5.1l-.4.1H82l.2.1.3.2v-.4c0 .2.1.2.2.3h.7c.2-.1.2-.3 0-.4h.2v-.2c.1 0 .1-.2 0-.2a.8.8 0 0 0-.7 0h-.1Zm-3.6-1.5c-.2 0-.2.3 0 .4h.5l-.3.1h-.2l.2.2h.2l.2-.2v.2c.3.1.6.1.8 0 .2-.2.1-.3 0-.3l.1-.1c.2-.2.2-.4 0-.5a.8.8 0 0 0-.7 0v.2a.8.8 0 0 0-.8 0Zm-2.1 2.6h.6l.1-.2c.3-.2 0-.7 0-.7a5.6 5.6 0 0 0-1.3 0h-.1c-.2.2-.2.3 0 .5h.5l-.4.2h-.2.2l.2.2v-.1l.2-.3v.3h.1Zm8.2-3h-.1c-.2.1-.2.3 0 .4h.5l-.4.2h-.2l.2.1.2.1c0-.2.1-.3.2-.3l.1.3h.7l.1-.1c.2-.3 0-.8 0-.8a5.3 5.3 0 0 0-1.3 0Zm-5.5 4.5h.6l.1-.1c.3-.3.1-.8 0-.8a5.4 5.4 0 0 0-1.3 0c-.3.2-.3.3-.2.5h.6l-.4.2H79h.2l.2.2v-.1l.2-.2.1.2h.1Zm2.8-6h-.1c-.2.1-.2.3 0 .4h.5l-.4.2h-.2l.2.1.2.1c0-.2.1-.3.2-.3v.3H83.9l.1-.1c.2-.3 0-.8 0-.8h-1.3Zm5 .8h-.3c-.1.1 0 .2 0 .2h.4v-.2Zm-8.6.6c.1 0 .1-.2 0-.2h-.4v.2h.4Zm5.9-2.2h-.4v.3h.4v-.2Zm-.3 3.7.1-.1v-.1h-.5v.2h.4Zm-2.6-3.3v-.2h-.4v.2h.4Zm-.4 5.1v-.2h-.4v.2h.4Zm-3.3 0c0 .2.2.1.3 0 .1 0 .1 0 0-.1h-.3c-.1 0-.1.1 0 .2Zm8.9-2.2c-.1 0-.1.1 0 .2h.4v-.2h-.4Zm-5.3-1.2v-.2h-.4v.1c.1.1.3.1.4 0Zm-3 1.9v-.3h-.4c-.1 0-.1.2 0 .2h.3Zm2.2 3.2h.4v-.2c-.1-.1-.3-.1-.4 0v.2Zm3.6-5.3c.1 0 .1-.1 0-.2h-.3c-.1 0-.1.1 0 .2h.3Zm-9.2 2.2h.4c.1 0 .1-.2 0-.2-.1-.1-.3-.1-.4 0v.1Z" fill="#fff"/>
  <path d="M84.1 107.8c.2.1.2.3 0 .4H84c-.5.2-1.5.2-1.5.1 0 0-.2-.4 0-.7v-.1l.1-.1c.2-.1.5-.2.7 0 .3 0 .2.3.2.3h.6Z" fill="#F22233"/>
  <path d="M81.2 108v.3l-.2.1-.2.1h-.3l.2-.2.5-.3Z" fill="#048ABF"/>
  <path d="M75.3 108.3v.2h-.4c-.1 0-.1-.1 0-.2h.3ZM78.2 108.4v.2H78a.4.4 0 0 1-.2 0v-.2a.4.4 0 0 1 .4 0ZM84.9 108.4v.2c-.1.1-.3.1-.4 0v-.1a.4.4 0 0 1 .4 0ZM82 108.6v.1c-.1.2-.3.2-.4.1v-.2a.4.4 0 0 1 .4 0Z" fill="#F49E2D"/>
  <path d="m67.7 108.7.1.1v.2h.3l.3.2c.1.1 0 .3-.1.4h-.2l-.5.1h-1v-.7l.2-.2h.1c.2-.2.5-.2.8-.1ZM74.1 109v.3l-.1.4h-1.4l.1-.4v-.4h1.4ZM79.3 109a.2.2 0 0 1 .2 0l-1.3.8v-.5l.3-.3c.3-.2.6-.2.8 0ZM87 109.2c.1.2 0 .3-.1.5h-.2c-.4.2-1.5 0-1.5 0v-.7l.2-.2h.7c.2 0 .2.3.2.3h.5l.1.1Z" fill="#F22233"/>
  <path d="M77.1 109s0 .5-.2.7c-.3.2-.6.2-.8.1v-.3c-.1 0-.3 0-.3.2v.1l-.2-.1-.2-.2H76a1.2 1.2 0 0 1-.5-.1c-.2-.2 0-.3 0-.4h.2l.2-.1h1.2ZM84 109v.9h-.2c-.2.2-.4.2-.6.1H83a.3.3 0 0 1-.1-.3l-.2.2v.1h-.2l-.2-.2h.2l.4-.1h-.6v-.1c-.1-.1 0-.3 0-.4h.4c.4-.2 1.2-.1 1.2-.1Z" fill="#048ABF"/>
  <path d="M81 109.3v.8h-1.4v-.8a7.5 7.5 0 0 0 1.4 0Z" fill="#F22233"/>
  <path d="M66 109.8c.1 0 .1.2 0 .2H65.7c-.1 0-.1-.1 0-.2a.4.4 0 0 1 .3 0ZM87.6 110c.1 0 .1.1 0 .2h-.3s-.1 0 0-.1v-.1a.4.4 0 0 1 .3 0ZM84.7 110.1c.1 0 .1.2 0 .2h-.3c-.1 0-.1-.1 0-.2a.4.4 0 0 1 .3 0ZM81.9 110.3v.2h-.4v-.2h.4ZM79 110.4c.1 0 .1.1 0 .2H78.7l-.1-.1v-.1h.4Z" fill="#F49E2D"/>
  <path d="m65 110.4-.2.4v.4l-.8-.5a.5.5 0 0 1-.2-.3h1.1ZM76.5 110.7v.2l-.8.5H75l.1-.4v-.4h1.4ZM70.1 110.3l.2.2a.3.3 0 0 1 0 .1s.3 0 .5.2.1.3 0 .4h-.3c-.4.2-1.5 0-1.5 0s0-.4.2-.7a.4.4 0 0 1 .2-.2.9.9 0 0 1 .7 0Z" fill="#F22233"/>
  <path d="M68 110.5s0 .5-.3.8c-.3.1-.5.1-.8 0v-.3l-.3.2v.1l-.2-.1-.2-.1h.2l.4-.1a1.2 1.2 0 0 1-.5-.1c-.1-.2 0-.3 0-.4H68Z" fill="#048ABF"/>
  <path d="M89.7 110.8c.2.2.1.4 0 .5h-.2c-.5.2-1.5.1-1.5.1v-.7a.4.4 0 0 1 .1-.2c.2-.2.5-.2.7-.1h.1c.2.1.2.3.1.4h.7Z" fill="#F22233"/>
  <path d="M86.7 110.6s.1.5 0 .8h-.2c-.1.2-.4.2-.6.1h-.1v-.3c-.2 0-.2.1-.3.2v.1h-.2l-.2-.2h.2l.4-.1h-.5v-.1c-.2-.1-.2-.3 0-.4H85.5c.4-.2 1.2-.1 1.2-.1ZM73.6 110.6c.2.1.2.3 0 .4l-.2.1c.1.1.1.3 0 .4h-.5a.6.6 0 0 1-.3 0v-.3l-.3.2v.1l-.2-.1-.2-.2H72.5l-.4-.1c-.2-.1-.2-.3 0-.4a.8.8 0 0 1 .7 0h.1l.5-.2.2.1Z" fill="#048ABF"/>
  <path d="M83.7 110.8v.8H82.5v-.8H83.6Z" fill="#F22233"/>
  <path d="M87.6 111.7v.1c-.1.2-.3.2-.4.1-.1 0-.1-.2 0-.2h.3Z" fill="#F49E2D"/>
  <path d="M80.8 111c.1 0 .1.2 0 .4h-.2c.1.1.2.2 0 .3v.1a.8.8 0 0 1-.7 0h-.1v-.2c-.1 0-.2 0-.2.2h-.2l-.2-.2h.5a.8.8 0 0 1-.5-.1c-.2-.1-.2-.3 0-.4h.7l.1-.1a.8.8 0 0 1 .8 0Z" fill="#048ABF"/>
  <path d="M71.4 111.7v.2H71v-.2h.4Z" fill="#F49E2D"/>
  <path d="M78 111.4c.3.2.2.4 0 .5H78a5 5 0 0 1-1.5.1 1.4 1.4 0 0 1 0-.6v-.1a.4.4 0 0 1 0-.2h.1c.2-.2.5-.2.7-.1.3.1.2.3.2.4h.6Z" fill="#F22233"/>
  <path d="m84.6 111.9.1.1c-.2.1-.3.1-.4 0h-.1v-.1h.4Z" fill="#F49E2D"/>
  <path d="M75.2 111.7c0 .1 0 .2-.2.3-.2.2-.4.2-.6.2l.8-.5Z" fill="#048ABF"/>
  <path d="M78.8 112.1v.3h-.3v-.3h.3ZM75.9 112.3c.1 0 .1.1 0 .2h-.4v-.2c.1-.1.3-.1.4 0Z" fill="#F49E2D"/>
  <path d="M86.5 112.3v.8H85v-.8a7.8 7.8 0 0 0 1.4 0ZM74.9 113v.7l-.9-.5a.7.7 0 0 1-.2-.2 8 8 0 0 0 1 0Z" fill="#F22233"/>
  <path d="M74 112.4c-.3.1-.4.4-.3.6l-1.7.9h-.8c-.1.1-.2.3-.1.4l-.4.2h-1.1v-.3l.1-.3h-.6l-.8-.1-.4-.3c.2 0 .2-.2.1-.2h-.4l-.4-.3v-.5l.1-.3a7 7 0 0 1-1.4 0l-.4-.5c.2 0 .2-.1 0-.2h-.3l-.4-.3v-.4l.1-.3h-.7a9 9 0 0 1-.4-.1c-.1-.2 0-.4.3-.6l.5-.2h.6c.2-.1.2-.3.3-.4l2.4-1.1a.8.8 0 0 0 .5-.1l.1-.2.2-.1.6-.3 2-1h.3a.8.8 0 0 0 .5 0l.2-.4.2-.1.9-.4.7-.4.5-.2h.2l.5-.1.6.1h.1v.3h.4l.5.4H76.6c-.2.2-.2.3-.1.4l.5.2H76.4l.2.2.2.1v-.1l.2-.2.1.3h.7l.2-.2.4.4v.2H78.7l.6.4h-.4c-.1.2-.2.3 0 .4l.5.1-.4.1h-.3l.2.1.2.2v-.1l.3-.3v.3c.3.2.6.2.8 0h.1l.4.2-.3.2-1 .6v-.2a.9.9 0 0 0-.9 0l-.2.4v.5l-.4.2-.1.1h-.4c-.1 0-.1.1 0 .2l-1 .6.1-.2H76l-.8-.1v.4l-.1.4h.7l-.5.3-.8.5-.4.2Zm-1 .7h.1c.2-.2.3-.3.1-.5l-.6-.1v-.4h-.1a.9.9 0 0 0-.8 0v.1l-.2.3v.6h1.4Zm4-6a.9.9 0 0 0-.8 0H76l-.2.4v.5a6.7 6.7 0 0 0 1.5 0h.2c.1-.1.2-.2 0-.4l-.6-.1s.1-.3 0-.4Zm-8 4.2h1.7c.2-.2.3-.3.2-.5h-.1l-.6-.1v-.4a.9.9 0 0 0-1 0v.2c-.2.3-.2.8-.2.8Zm5.5-5.8a.9.9 0 0 0-.9 0v.2h-.1l-.1.7a6.5 6.5 0 0 0 1.5 0h.2c.2-.1.3-.3.1-.4a1 1 0 0 0-.4-.1h-.2v-.3l-.1-.1Zm-8 4.1 1 .1h.6l.2-.1c.2-.1.2-.3.1-.4l-.3-.1h-.3V108.8a.2.2 0 0 0-.1-.1.9.9 0 0 0-.8 0c-.2.1-.2.2-.3.4v.5Zm4.6-2.4h-.8v.4l-.1.3a21.8 21.8 0 0 1 1.4.1v-.4l.1-.4h-.6Zm3 1.7h-1.4v.4l-.1.4H74v-.4l.1-.4Zm-1.5 2.6h.3a.8.8 0 0 0 .4 0c.2-.1.2-.3 0-.4h.2c.3-.2.3-.4.1-.5H73l-.1.1h-.1a.8.8 0 0 0-.6 0c-.2 0-.2.3 0 .4h.4l-.4.1H72l.2.2.2.1v-.1l.2-.2v.3Zm-2.7-1.9.1-.2.1.3h.7c.2 0 .2-.2 0-.4h.2c.3-.1.3-.3.2-.4l-.3-.1a.9.9 0 0 0-.5 0l-.1.1h-.7c-.2.1-.2.3 0 .4l.4.1h-.6l.2.2.2.1v-.1Zm-.6 3.4h.7l.2-.2v-.6s-.8-.2-1.2 0h-.2c-.2 0-.3.2-.1.3.2.2.4.2.5.2H68.6l.2.2.2.1v-.1l.2-.2v.3h.1Zm7.8-4a5.3 5.3 0 0 0-1.4 0h-.1c-.2 0-.3.2-.1.3.2.2.4.2.5.2H75.4l.2.2.2.1v-.1l.2-.2v.3h.1a.8.8 0 0 0 .8 0c.3-.3.2-.8.2-.8Zm-3-1.8h-.7l-.2.1c-.2 0-.2.2-.1.3.2.2.5.2.5.2H73l.2.2.2.1v-.1l.2-.2.1.3a.8.8 0 0 0 .8 0l.1-.2c.2-.2.1-.6.1-.6h-.5Zm-7.2 4.1a.8.8 0 0 0 .8 0c.3-.3.2-.8.2-.8a5.5 5.5 0 0 0-1.3 0h-.2c-.2.1-.2.2-.1.4h.5l-.4.2h-.2.2l.2.2c0-.2.2-.3.2-.3v.3h.1Zm8.5-4.6s-.1.1 0 .2h.4v-.2h-.4ZM69 110v-.2h-.4s-.1.2 0 .2h.4Zm-3 0v-.3a.4.4 0 0 0-.3 0c-.1 0-.1.2 0 .2H66Zm2.4 1.6c.1 0 .1-.1 0-.2H68c-.1 0-.1.2 0 .2h.1a.4.4 0 0 0 .2 0Zm6.5-3.4c-.1 0-.1.2 0 .2h.3c.2 0 .2-.1 0-.2H75Zm-3.9 3.4v.2h.2a.5.5 0 0 0 .2 0v-.2H71Zm1-3.4v.2h.2a.4.4 0 0 0 .2 0v-.2H72Zm-2.5 0c.1 0 .1 0 0-.1a.4.4 0 0 0-.3 0c-.1 0-.1.1 0 .2h.1a.4.4 0 0 0 .2 0Zm1.4 5.2c.1 0 .1-.1 0-.2a.4.4 0 0 0-.3 0c-.1 0-.1.1 0 .2h.3Zm2-6.7v-.2h-.4c-.1 0-.1.1 0 .2h.2a.4.4 0 0 0 .2 0Zm5 1.6c-.2 0-.2.1-.1.2h.2a.5.5 0 0 0 .2 0v-.2h-.4Zm-3.1 1.9s.1-.2 0-.2a.4.4 0 0 0-.4 0v.2h.2a.4.4 0 0 0 .2 0Z" fill="#fff"/>
  <path d="m72.5 112.1.1.2v.2h.6v.1c.2.2.1.3 0 .4l-.3.1h-1.5v-.6l.3-.3c.2-.2.6-.2.8 0ZM80.8 112.9c.2.1.2.3 0 .4h-.1a5 5 0 0 1-1.6.2s-.1-.5 0-.8a.4.4 0 0 1 .2-.2.8.8 0 0 1 .7 0c.2 0 .2.3.2.3h.6Z" fill="#F22233"/>
  <path d="M71 113.3v.2h-.4c-.1 0-.1-.2 0-.2h.3Z" fill="#F49E2D"/>
  <path d="M77.9 112.8s.1.5 0 .8h-.2c-.1.1-.4.2-.6 0H77v-.2c-.2 0-.2 0-.3.2v.1l-.2-.1-.2-.1h.2l.4-.2h-.5c-.2-.2-.2-.3 0-.4h.1l.2-.1H78Z" fill="#048ABF"/>
  <path d="M78.6 113.8c.1 0 .1.1 0 .2h-.3c-.1-.1-.1-.2 0-.2a.4.4 0 0 1 .3 0ZM75.8 114v.2h-.1l-.3-.2c.1-.1.3-.1.4 0Z" fill="#F49E2D"/>
  <path d="M83.6 114.5c.2.2.1.4 0 .5h-.2c-.5.2-1.5 0-1.5 0s-.2-.4 0-.7a.4.4 0 0 1 .2-.2.8.8 0 0 1 .7 0c.2 0 .2.3.2.3h.4l.2.1Z" fill="#F22233"/>
  <path d="M80.6 114.3s.2.5 0 .8h-.2c-.1.1-.4.2-.6 0-.2 0-.2-.2-.2-.2l-.2.2v.1l-.2-.1-.2-.1h.2l.4-.1-.5-.1c-.2-.2-.2-.3 0-.4a.7.7 0 0 1 .3-.1h1.2Z" fill="#048ABF"/>
  <path d="M81.5 115.4v.2H81v-.2a.4.4 0 0 1 .4 0Z" fill="#F49E2D"/>
  <path d="m82.6 115.8-.8.5c0-.1 0-.2.2-.3l.6-.2Z" fill="#048ABF"/>
  <path d="M175.2 88.3h.4l.2-.1v-.1l-.6.2Z" fill="#F49E2D"/>
  <path d="m173 89.2.1.2a.8.8 0 0 0 .7 0c.2 0 .2-.2.2-.2l.1.2v.2l.3-.1.3-.2h-.3l-.4-.1h.7V89c.2-.2.2-.3 0-.4l-.2-.1-1.6.6Z" fill="#048ABF"/>
  <path d="M171.7 89.7h.5v-.2l-.5.2Z" fill="#F49E2D"/>
  <path d="M169.5 90.6c0 .1 0 .2.2.2h.6c.2 0 .3-.2.3-.3v.4h.3l.3-.2h-.2l-.4-.2h.7c.2-.2.1-.4 0-.5H171l-1.5.6ZM167.7 91.4v.5c.2-.1.2-.3 0-.5Z" fill="#048ABF"/>
  <path d="M168.2 91v.1h.4V91l-.4.2ZM171.5 91.4c-.1 0-.1.1 0 .2a.5.5 0 0 0 .4 0v-.2h-.4ZM168.7 104.6c-.1 0-.1.1 0 .2a.4.4 0 0 0 .4 0v-.2h-.4Z" fill="#F49E2D"/>
  <path d="M182 87.8h.6a2 2 0 0 0-.5 0ZM176.6 88l.5.1-.5-.1ZM180.7 88.9l-.8 1a.6.6 0 0 0 .1 0l.4.1h.4v-.1c.2-.1 0-.3 0-.4l.2.1.2.1v.2l.2-.2.2-.2h-.3a2 2 0 0 1-.5 0l.5-.1V89l-.4-.1h-.2Z" fill="#048ABF"/>
  <path d="M182.5 89.9c-.1 0-.1.2 0 .2h.4v-.2h-.4Z" fill="#F49E2D"/>
  <path d="M183.8 90.4s.1.4.4.7h.2v.1h.8c.2-.1 0-.4 0-.4h.2l.2.2v.1l.2-.2.2-.1h-.8l.5-.1v-.4a.9.9 0 0 0-.5-.1h-.1a5.5 5.5 0 0 0-1.3.2Z" fill="#048ABF"/>
  <path d="M183.7 91.6v.2h.5v-.2h-.4ZM185 93.4v.3h.4v-.1c.1 0 0-.1 0-.2a.4.4 0 0 0-.4 0Z" fill="#F49E2D"/>
  <path d="m192.6 92.9.5.7.1.1H194c.2-.1 0-.4 0-.4a1 1 0 0 1 .4.2v.1l.2-.1.2-.2h-.3a2 2 0 0 1-.4 0l.4-.1V93h.1l-.1-.3-.4-.1h-.2l-1.3.2Z" fill="#048ABF"/>
  <path d="M192.6 94v.1c-.1.1-.1.2 0 .2h.4V94h-.4Z" fill="#F49E2D"/>
  <path d="m186.6 93.8-.1.1c-.1.1 0 .3.1.4h.4c-.1.2 0 .3 0 .4l.2.1H187.8a.6.6 0 0 0 .1 0v-.1c.2-.2.1-.3 0-.4l.2.1.1.1.1.1.2-.1.1-.2H188h.3v-.1h.1c.1-.2 0-.3 0-.4h-.2a.9.9 0 0 0-.7 0h-.2a1 1 0 0 0-.5 0h-.2Z" fill="#048ABF"/>
  <path d="M189.4 94.7v.2h.4c.1-.1.1-.2 0-.2h-.3ZM193.8 96v.2h.1l.3-.3a.5.5 0 0 0-.4 0Z" fill="#F49E2D"/>
  <path d="m192.2 96.8.2.4.2.4h.1l.3-.3.6-.7-.7.1a5 5 0 0 1-.7.1Z" fill="#F22233"/>
  <path d="M186.3 95.9h-.3c0-.2 0-.3-.2-.4l-.3-.3-.3-.3h.1l-.3-.4c-.2-.2-.2-.4-.2-.5l-.5.2-1-.8c.3-.2.1-.4 0-.4h.3l.1.2v.1l.2-.2.2-.1h-.7s.3 0 .4-.2h.1l-.1-.4h-.4a4 4 0 0 0-1.1 0l-1-.7a2 2 0 0 0 .5 0l1.1-.3s-.1-.5-.5-.8l-.1-.1a1 1 0 0 0-.9 0c-.2.2 0 .4 0 .5a2 2 0 0 0-.5.1h-.1l-.9-.6-.3-.3.3-.3a.8.8 0 0 0 .6.1h.3v-.1c.2-.1 0-.3 0-.4l.2.1.2.1v.2l.2-.2.2-.2h-.3a2 2 0 0 1-.5 0l.5-.1V89l-.4-.1h-.2l.4-.5h.4V88h-.1l.2-.2.5-.1h.9l3 .8c0 .2.1.3.3.4.2 0 .6.1.8 0l3.7 1 .1.2h.7l3.2 1a1 1 0 0 0 .4.3h.7l.6.1c.4.1.6.4.6.6a9.8 9.8 0 0 1-1.2.2l.3.4.2.5-.3.3h-.4v.3h.2l-.4.4-.7.2-.8.1.3.4.2.5-.3.4a.5.5 0 0 0-.4 0v.3h.1l-.3.3-.7.2-.7.1.2.4.2.4c-.3.1-.8.2-1.2 0l-.6-.1-.1-.3h-1l-3.1-1-.1-.2-.2-.1Zm2 .6a2 2 0 0 0 .5 0c.5 0 1.1-.3 1.2-.3l-.5-.8h-.1a1 1 0 0 0-.8-.1h-.2c-.2.2 0 .4 0 .5a1.5 1.5 0 0 0-.5.1l-.1.1.1.4h.4Zm3.5-2.6-.5-.8h-.1V93a1 1 0 0 0-1 0c-.2.2 0 .4 0 .5h-.2l-.3.1-.1.1c0 .1 0 .3.2.3l.3.2h.2c.6 0 1.5-.3 1.5-.3Zm-7.5-5.5a1 1 0 0 0-1 0c-.2.2 0 .4 0 .4l-.4.1-.2.2c0 .1 0 .2.2.3l.4.1c.6.1 1.6-.2 1.6-.2a1.7 1.7 0 0 0-.6-1Zm9.4 3.4s-.1-.6-.5-.8v-.1h-.1a1 1 0 0 0-.9 0c-.2.2 0 .4 0 .4l-.5.1-.1.2c-.1.1 0 .2.1.3l.4.1h.4l1.2-.2Zm-5.2 2.7.1-.2H188h.3v-.1h.1c.1-.2 0-.3 0-.4h-1.1a1 1 0 0 0-.5 0h-.2l-.1.1c-.1.1 0 .3.1.4h.4c-.1.2 0 .3 0 .4l.2.1H187.8a.6.6 0 0 0 .1 0v-.1c.2-.2.1-.3 0-.4l.2.1.1.1.1.1.2-.1Zm1.4-2.4h.1l.2.1v.2l.2-.2.2-.2h-.3a2 2 0 0 1-.4 0h.4v-.1c.2-.2.1-.3 0-.4h-1.1a1 1 0 0 0-.5 0h-.2v.1c-.2.1-.1.3 0 .4h.4l.1.4a.7.7 0 0 0 .3.1.9.9 0 0 0 .5 0l.1-.1V92Zm-6-1.7s0 .4.3.7h.2v.1h.8c.2-.1 0-.4 0-.4a1 1 0 0 1 .4.2v.1l.2-.2.2-.1h-.8l.5-.1v-.4a.9.9 0 0 0-.5-.1h-.2l-1.2.2Zm7.5 5.5h.8c.2-.2 0-.4 0-.4h.2l.1.2.1.1.2-.2.1-.1h-.7a1.4 1.4 0 0 0 .5-.2c.1-.2 0-.3 0-.4H192l-1.2.2s.1.5.5.7Zm1.8-2.2H194c.2-.1 0-.4 0-.4a1 1 0 0 1 .4.2v.1l.2-.1.2-.2h-.3a2 2 0 0 1-.4 0l.4-.1V93h.1l-.1-.3-.4-.1h-.2l-1.3.2.5.7.1.1Zm-8-1.6.3.4.2.5.8-.2.7-.1-.3-.4-.2-.5-.8.2-.7.1Zm2.6-2.3-.7.1.3.4.2.5.8-.2.7-.1-.3-.4-.2-.5-.8.2Zm6.7 2.3h.4v-.2h-.1a.5.5 0 0 0-.4 0v.2h.1Zm-1.8 2.3h.3V94a.5.5 0 0 0-.4 0c-.1.1-.1.2 0 .2Zm-8.6-2.8h-.4v.2h.5v-.2h-.1Zm2.8-.2h.4V91h-.5v.3Zm2.6 3.5h.3c.2-.1.1-.2 0-.2h-.4v.2h.1Zm.8-4.3h-.4v.2h.4c.1 0 .1-.2 0-.2Zm.4 6h.4v-.2h-.1c-.1-.1-.3 0-.4 0v.2h.1Zm-4.8-7.3h-.3v.1c-.1 0 0 .2 0 .2h.4c.1-.1.1-.2 0-.2Zm-3.1.5h-.3v.1c-.1 0-.1.2 0 .2a.5.5 0 0 0 .4 0v-.2h-.1Zm8.6 2.9h.3v-.1c.1 0 0-.1 0-.2h-.4c-.1.1 0 .2 0 .2Zm-6 .7a.4.4 0 0 0-.4 0v.3h.4v-.1c.1 0 0-.1 0-.2Z" fill="#fff"/>
  <path d="m181.4 88.1-.3.3h.4V88h-.1Z" fill="#F49E2D"/>
  <path d="M186 88.6c0 .2.1.3.3.4a1 1 0 0 0 .8 0l-1.2-.4Z" fill="#048ABF"/>
  <path d="M183.4 88.4h-.1c-.2.2 0 .4 0 .4l-.4.1-.2.2c0 .1 0 .2.2.3l.4.1c.6.1 1.6-.2 1.6-.2s-.2-.6-.6-.9a1 1 0 0 0-1 0Z" fill="#F22233"/>
  <path d="M185.6 89.4c-.1 0 0 .2 0 .2h.4c.1-.1.1-.2 0-.2h-.4Z" fill="#F49E2D"/>
  <path d="m176 89.3-.1.2v.2a.5.5 0 0 0 .2.2c.5.2 1.7.2 1.7.2s.3-.6.2-.9l-.2-.2a1 1 0 0 0-.8 0c-.2 0-.2.2-.2.3 0 0-.5-.1-.8 0Z" fill="#F22233"/>
  <path d="M175 90s-.1.1 0 .2h.4c.1 0 .1-.1 0-.2h-.3Z" fill="#F49E2D"/>
  <path d="m190.8 90 .1.2h.7l-.8-.2ZM179.2 89.9v.3l.2.2h.3c0 .1.1.1.2 0l-.3-.2-.4-.3Z" fill="#048ABF"/>
  <path d="M178.2 90.4v.1h-.1v.2h.4l.2-.1v-.1h-.1a.5.5 0 0 0-.4 0Z" fill="#F49E2D"/>
  <path d="M187 90c.1 0 .2 0 .4.3l.2.5.8-.2.7-.1-.3-.4-.2-.5-.8.2-.7.1ZM172.5 90.6c-.2.2-.2.3 0 .4v.1h.1c.5.3 1.7.3 1.7.3l.2-.7v-.2l-.2-.2a1 1 0 0 0-.7-.1h-.1l-.2.2v.2c-.1 0-.5-.1-.8 0Z" fill="#F22233"/>
  <path d="M186.9 91.1h-.1v.3h.5V91h-.4Z" fill="#F49E2D"/>
  <path d="m194.8 91.2.3.3h.8l-1.1-.3Z" fill="#048ABF"/>
  <path d="M181.4 90.5c-.2.2 0 .4 0 .5a2 2 0 0 0-.5.1h-.1l.5.6a2 2 0 0 0 .5 0l1.1-.3s-.1-.5-.5-.8l-.1-.1a1 1 0 0 0-.9 0Z" fill="#F22233"/>
  <path d="M174.7 91.8v.3a.5.5 0 0 0 .4 0v-.2c-.1-.1-.3-.1-.4 0Z" fill="#F49E2D"/>
  <path d="M179.1 91.3v.4l-.3.5h.8c.4 0 .7.1.7.2l.1-.5.2-.4a8.7 8.7 0 0 1-1.5-.2Z" fill="#F22233"/>
  <path d="M177.8 92.3c-.1 0-.1.2 0 .2h.5v-.1h-.1a.5.5 0 0 0-.4 0Z" fill="#F49E2D"/>
  <path d="M182.3 92.4v.3l.5.2-.5-.4Z" fill="#048ABF"/>
  <path d="m169 92.1-.1.1c-.2.2 0 .3.1.4.5.3 1.7.3 1.7.3s.4-.6.2-.9c0-.1 0-.2-.2-.2a1 1 0 0 0-.7 0l-.2.1v.2c-.1 0-.6-.1-.8 0Z" fill="#F22233"/>
  <path d="M180.9 92.7v.3h.3a.2.2 0 0 0 .2-.1v-.1h-.1c-.1-.1-.3-.1-.4 0ZM171 93.3v.2a.5.5 0 0 0 .5 0v-.2c-.1 0-.3-.1-.4 0Z" fill="#F49E2D"/>
  <path d="m175.6 92.7 1.3 1v-.4c0-.3.2-.4.2-.5a9.2 9.2 0 0 1-1.5-.1Z" fill="#F22233"/>
  <path d="M178.8 93.2c-.2.1-.2.3 0 .4a.5.5 0 0 0 0 .1l-.1.1v.4c.3.1.5.1.8 0h.1l.1-.2.1.2v.1h.3l.3-.2h-.3l-.3-.1h.5l.1-.1c.2-.1.2-.3 0-.4a.9.9 0 0 0-.7-.1v-.1h-.2a.9.9 0 0 0-.7-.1Z" fill="#048ABF"/>
  <path d="M181.6 94c-.3.2-.2.4 0 .6.5.2 1.7.2 1.7.2s.3-.4.3-.7v-.2l-.3-.2a1 1 0 0 0-.7 0l-.2.1v.2h-.8Z" fill="#F22233"/>
  <path d="M180.5 94.7v.2c.1.1.3.1.4 0h.1v-.2h-.4Z" fill="#F49E2D"/>
  <path d="M184.7 94.6v.4l.2.1h.6l-.3-.2-.5-.3Z" fill="#048ABF"/>
  <path d="M183.7 95.2s-.1.1 0 .2h.4l.1-.1v-.1c-.2-.1-.3-.1-.4 0Z" fill="#F49E2D"/>
  <path d="m179 95 1 .8V95l-.2-.1a1 1 0 0 0-.8 0Z" fill="#F22233"/>
  <path d="M181.4 95.5a1.5 1.5 0 0 0-.2.7v.2l.2.1h.8v-.3l.2.3v.2l.3-.2h.3l-.3-.1a1.4 1.4 0 0 1-.4-.2h.7c.2-.2.1-.4 0-.5h-.1c-.4-.2-1.5-.2-1.5-.2Z" fill="#048ABF"/>
  <path d="M184.6 96v.4l-.3.5 1.2-.5h.2l.2-.2a9.2 9.2 0 0 1-1.3-.2Z" fill="#F22233"/>
  <path d="M183.3 97s-.1.2 0 .2h.5V97h-.5Z" fill="#F49E2D"/>
  <path d="M170.4 94.3c.1-.2 0-.4-.1-.5a2 2 0 0 0-.6-.1l-1.9-1.7-.1-.1c.2-.1.2-.3 0-.5l.2-.2.2-.1a.5.5 0 0 0 .5 0V91l.9-.3c0 .1 0 .2.2.2h.6c.2 0 .3-.2.3-.3v.4h.3l.3-.2h-.2l-.4-.2h.7c.2-.2.1-.4 0-.5H171l.7-.3H172.4v-.2l.6-.3.2.2c.2.1.4.2.6.1h.1c.2-.1.2-.3.2-.3l.1.2v.2l.3-.1.3-.2h-.3l-.4-.1h.7V89c.2-.2.2-.3 0-.4l-.2-.1.7-.3h.4l.2-.1v-.1l.8-.1.5.1.2.2 2 1.6c-.1.1-.1.2 0 .4l.1.1h.3c0 .1.1.1.2 0l.9.8.5.5 1 .7v.3l.4.2.7.5.9.8.4.4v.4l.2.1h.6l.3.4c.2.1.2.2.2.4v.2a9.2 9.2 0 0 1-1.4-.1v.4l-.2.5-.6.2h-.5s-.1 0 0 .1l-.7.4-.8-.6-.6-.4-1.2-.8V95l-.2-.1a1 1 0 0 0-.8 0l-.5-.2-.8-.6-.8-.6v-.3c0-.3.2-.4.2-.4a9.2 9.2 0 0 1-1.5-.2h-.3l-.6-.2a2 2 0 0 0-.6 0l-.2-.1a5 5 0 0 0-1.5-.2l-.2.6v.2l.2.2h.2l-1.3.7-.6.4H170.4Zm7.6-5V89l-.2-.1a1 1 0 0 0-.8 0c-.2 0-.2.2-.2.3 0 0-.5-.1-.8 0l-.1.2v.2a.5.5 0 0 0 .2.2c.5.2 1.7.2 1.7.2s.3-.6.2-.9Zm-5.4 1.9c.5.2 1.7.2 1.7.2l.2-.7v-.2l-.2-.2a1 1 0 0 0-.7-.1h-.1l-.2.2v.2c-.1 0-.5-.1-.8 0-.2.2-.2.3 0 .4v.1h.1Zm-3.6 1.5c.5.2 1.7.2 1.7.2s.4-.6.2-.9c0-.1 0-.2-.2-.2a1 1 0 0 0-.7 0l-.2.1v.2c-.1 0-.6-.1-.8 0l-.1.1c-.2.2 0 .3.1.4Zm12.7 1.9c.4.2 1.6.2 1.6.2s.3-.4.3-.7v-.2l-.3-.2a1 1 0 0 0-.7 0l-.2.1v.2h-.8c-.3.2-.2.4 0 .6Zm-1.3-2.7.2-.4a8.7 8.7 0 0 1-1.5-.2v.4l-.3.5h.8c.4 0 .7.1.7.2l.1-.5Zm-1.7 2V94.3c.3.1.5.1.8 0h.1l.1-.2.1.2v.1h.3l.3-.2h-.3l-.3-.2h.6c.2-.1.2-.3 0-.4a.9.9 0 0 0-.7-.1v-.1h-.2a.9.9 0 0 0-.7-.1c-.2.1-.2.3 0 .4a.5.5 0 0 0 0 .1l-.1.1Zm2.5 2.2v.3l.2.1h.8v-.3l.2.3v.2l.3-.2h.3l-.3-.1a1.4 1.4 0 0 1-.4-.2h.7c.2-.2.1-.4 0-.5h-.1c-.4-.2-1.5-.2-1.5-.2l-.2.6Zm-3.9-5.1c-.4-.2-1.4-.2-1.4-.2a1.5 1.5 0 0 0-.3.7v.1l.2.2h.8l.2-.3v.4h.3l.3-.2h-.2a1.4 1.4 0 0 1-.4-.2h.7c.1-.2 0-.4-.1-.5Zm-5.9 2.5h.1v-.2c-.1 0-.3-.1-.4 0-.2 0-.2.1 0 .2h.3Zm6.4-1h.5v-.1h-.1l-.4-.1c-.1 0-.1.2 0 .2Zm.4-1.8h.3l.2-.1v-.1h-.1a.5.5 0 0 0-.4 0h-.1v.2ZM175 90c-.2 0-.2.1-.1.2h.4c.1 0 .1-.1 0-.2h-.3Zm-3.2 1.6v-.2h-.4c-.1 0-.1.1 0 .2h.4Zm9 1.4h.5v-.2h-.1c-.1-.1-.3-.1-.4 0-.1 0-.1 0 0 .2ZM175 92l.2-.1v-.1h-.1c-.1-.1-.3-.1-.4 0-.1 0-.1 0 0 .2h.3Zm6 2.6h-.5v.2c.1.1.3.1.4 0h.1v-.2Zm3 .7h.1l.1-.1v-.1a.5.5 0 0 0-.5 0s-.1.1 0 .2h.4Z" fill="#fff"/>
  <path d="M175.9 90.8a1.5 1.5 0 0 0-.3.7v.1l.2.2h.8l.2-.3v.4h.3l.3-.2h-.2l-.4-.2h.7c.1-.2 0-.4-.1-.5a5 5 0 0 0-1.5-.2Z" fill="#048ABF"/>
  <path d="M192.2 90.9c-.2.2 0 .4 0 .4l-.5.1-.1.2c-.1.1 0 .2.1.3l.4.1h.4l1.2-.2s-.1-.6-.5-.8v-.1h-.1a1 1 0 0 0-.9 0Z" fill="#F22233"/>
  <path d="M188.5 91.5v.1c-.2.1-.1.3 0 .4h.4l.1.4a.7.7 0 0 0 .3.1.9.9 0 0 0 .5 0l.1-.1V92h.1l.2.1v.2l.2-.2.2-.2h-.3a2 2 0 0 1-.4 0h.4v-.1c.2-.2.1-.3 0-.4h-1.1a1 1 0 0 0-.5 0h-.2ZM174.7 92.5l.6.1-.6-.1Z" fill="#048ABF"/>
  <path d="M191.3 92.4c-.1.1 0 .2 0 .2.2.1.3.1.4 0 .1 0 0-.1 0-.2h-.4Z" fill="#F49E2D"/>
  <path d="m173.4 93-.1-.1Z" fill="#fff"/>
  <path d="m172.2 93 .2.2H172.7l.6-.2v-.1h.1l.5-.2.2-.1s0-.2-.2-.2a5 5 0 0 0-1.5-.2l-.2.6v.2Z" fill="#048ABF"/>
  <path d="M173.3 93v-.1Z" fill="#fff"/>
  <path d="M173.4 92.9h.4c.2 0 .2-.2 0-.2l-.4.2Z" fill="#F49E2D"/>
  <path d="M173.3 92.9Z" fill="#fff"/>
  <path d="m185.2 92.1.3.4.2.5.8-.2.7-.1-.3-.4-.2-.5-.8.2-.7.1Z" fill="#F22233"/>
  <path d="m182.3 92.5.5.4.6.5c.2-.2 0-.4 0-.4h.2l.1.2v.1l.2-.2.2-.1h-.7s.3 0 .4-.2a.3.3 0 0 0 .1 0l-.1-.4h-.4a4 4 0 0 0-1.1 0Z" fill="#048ABF"/>
  <path d="M195.7 93.6v.3h.2l.2-.3a.5.5 0 0 0-.4 0Z" fill="#F49E2D"/>
  <path d="M190.2 93c-.2.2 0 .4 0 .5h-.2l-.3.1-.1.1c0 .1 0 .3.2.3l.3.2h.2c.6 0 1.5-.3 1.5-.3l-.5-.8h-.1V93a1 1 0 0 0-1 0Z" fill="#F22233"/>
  <path d="m169.7 93.7.7.6c.1-.2 0-.4-.1-.5a2 2 0 0 0-.6-.1ZM171.3 94l.2.1a.9.9 0 0 0 .7 0h.1v-.3c.2 0 .2.2.3.3v.1h.2l.3-.2h-.3l-.4-.2h.6c.3-.2.2-.4 0-.5H172.7l-1.4.6Z" fill="#048ABF"/>
  <path d="M170.2 94.5h.4c.2-.1.2-.2 0-.2h-.1l-.3.2Z" fill="#F49E2D"/>
  <path d="M174.5 93.9c-.3.1-.2.3 0 .5h.1c.5.2 1.7.2 1.7.1 0 0 .2-.5 0-.9l-.1-.2a1 1 0 0 0-.8 0c-.2.1-.2.3-.2.4h-.7Z" fill="#F22233"/>
  <path d="M177.7 94.2v.4h.2c.2.2.4.2.6.2l-.8-.6Z" fill="#048ABF"/>
  <path d="M173.6 94.6h-.1v.2h.4c.2 0 .2-.1.1-.2h-.4Z" fill="#F49E2D"/>
  <path d="m184.3 94.2.4.4.5.3h.1l-.3-.4c-.2-.2-.2-.4-.2-.5l-.5.2Z" fill="#F22233"/>
  <path d="M176.8 94.8c0 .1-.1.1 0 .2l.1.1a.5.5 0 0 0 .3 0v-.3h-.4Z" fill="#F49E2D"/>
  <path d="m194 94.6.3.4.2.5 1-1.2-.7.2-.8.1Z" fill="#F22233"/>
  <path d="M168.1 95.5v.1l.2.1h.7c.2 0 .2-.1.2-.2 0 0 .2 0 .2.2v.1l.2-.1.3-.1h-.3l-.4-.2h.7c.2-.2.1-.4-.1-.5l-.2-.1-1.5.7Z" fill="#048ABF"/>
  <path d="M171.2 95.4c-.2.1-.2.3 0 .5h.2l1.1.2h.5s.3-.6.1-1l-.2-.2a1 1 0 0 0-.8 0l-.1.2v.1l-.7.1Z" fill="#F22233"/>
  <path d="M167 96.1h.3c.2 0 .2-.1 0-.2l-.4.2Z" fill="#F49E2D"/>
  <path d="M174.5 95.3s-.2.5 0 .8v.1l.2.1c.1.1.4.2.6 0h.1l.1-.3.2.3v.1l.3-.1.3-.1h-.3l-.4-.2h.6c.2-.2.1-.4 0-.5h-.2l-.1-.1a4.5 4.5 0 0 0-1.4 0Z" fill="#048ABF"/>
  <path d="M170.3 96.2c-.1 0-.1.1 0 .2a.5.5 0 0 0 .4 0c.1 0 .1-.1 0-.2h-.4Z" fill="#F49E2D"/>
  <path d="M177.9 95.6v.5c0 .3-.2.4-.2.4h.9l.7.1v-.4l.1-.5H178Z" fill="#F22233"/>
  <path d="M173.6 96.4h-.1v.3h.4c.2-.1.2-.2 0-.3h-.3Z" fill="#F49E2D"/>
  <path d="M166.5 96.5v.5c.3-.2.2-.4 0-.5ZM181.2 96.6l.1.3h.5l-.6-.3Z" fill="#048ABF"/>
  <path d="M176.7 96.7v.3h.4l.1-.2c-.2-.1-.3-.1-.4 0ZM179.9 97v.2h.4c.1 0 .1-.2 0-.2a.5.5 0 0 0-.4 0Z" fill="#F49E2D"/>
  <path d="M182.7 97.6ZM168 97c-.3.2-.2.5 0 .6h.1c.5.2 1.7.2 1.7.2s.2-.6 0-1l-.1-.1a1 1 0 0 0-.8 0h-.2v.3h-.7Z" fill="#F22233"/>
  <path d="M171.3 97v.7l.2.2a.8.8 0 0 0 .7 0c.2 0 .2-.3.2-.3l.1.3v.1l.3-.1.3-.2h-.3l-.4-.1h.6c.2-.2.2-.4 0-.5h-.2l-.1-.1h-1.4Z" fill="#048ABF"/>
  <path d="M174.6 97.2v.5l-.1.4h.8l.7.1v-.4c0-.3.2-.5.2-.5a8.6 8.6 0 0 1-1.6 0Z" fill="#F22233"/>
  <path d="M170.2 98V98.4a.5.5 0 0 0 .4 0c.1 0 .1-.1 0-.2a.5.5 0 0 0-.4 0Z" fill="#F49E2D"/>
  <path d="M177.9 97.5c-.2.1-.2.3 0 .5h.2l-.2.2v.3h.1c.2.1.6.2.8 0 .2 0 .2-.2.2-.3v.3c.1 0 0 .1 0 .1l.4-.1.2-.2H179l.6-.1.1-.3v-.1a.5.5 0 0 0-.1-.1.9.9 0 0 0-.8 0 .4.4 0 0 0-.1-.2.9.9 0 0 0-.8 0Z" fill="#048ABF"/>
  <path d="M173.5 98.4c-.1 0-.2.1 0 .2 0 .1.2.1.4 0v-.2h-.4Z" fill="#F49E2D"/>
  <path d="M180.8 98.2c-.2.2-.1.4.1.5h.1c.5.2 1.7.2 1.7.2s.2-.6 0-1l-.1-.1a1 1 0 0 0-.8-.1c-.3.2-.2.4-.2.4a1.7 1.7 0 0 0-.7 0Z" fill="#F22233"/>
  <path d="m169 98.6.7.5c.2-.1 0-.3 0-.4h-.2l-.6-.1ZM184 98.5c0 .2 0 .3.2.4l.1.1c.2.1.4.2.6.1l-.8-.6Z" fill="#048ABF"/>
  <path d="M180 99h-.1v.2h.4v-.3a.5.5 0 0 0-.4 0ZM183.2 99.2c-.1 0-.1.1 0 .2h.4s.1-.2 0-.2c-.1-.1-.3-.1-.4 0Z" fill="#F49E2D"/>
  <path d="M171.4 98.8v.5l-.1.4a6 6 0 0 1 1.5.1v-.4l.1-.5h-.8a4 4 0 0 1-.7 0Z" fill="#F22233"/>
  <path d="M174.5 99.2c-.2 0-.1.3 0 .4l.2.1-.1.1v.4c.3 0 .6.1.8 0h.2V99.8l.1.2v.2l.3-.2.3-.1h-.3l-.3-.1h.5l.2-.3v-.2h-.1a.9.9 0 0 0-.8 0l-.1-.2a.9.9 0 0 0-.8 0Z" fill="#048ABF"/>
  <path d="M177.6 99.7c-.3.2-.2.4 0 .5h.2c.5.2 1.6.2 1.6.2l.2-.8-.1-.2-.2-.1a1 1 0 0 0-.7-.1h-.1l-.2.2v.2h-.7Z" fill="#F22233"/>
  <path d="M181 99.6s-.3.5-.2.8l.1.1.1.1a.8.8 0 0 0 .8 0l.1-.3.2.3v.2l.3-.2.2-.1h-.2l-.4-.2h.6c.2-.2.1-.4 0-.5H182.2a6 6 0 0 0-1.4-.2Z" fill="#048ABF"/>
  <path d="M176.7 100.6c-.1 0-.1.1 0 .2h.4v-.2h-.4Z" fill="#F49E2D"/>
  <path d="M184.2 100v.9l1-.6c.2 0 .3-.2.3-.3a10 10 0 0 1-1.3 0Z" fill="#F22233"/>
  <path d="M180 100.8h-.1v.2a.4.4 0 0 0 .5 0v-.2c-.2-.1-.3-.1-.4 0ZM183.1 101v.3l.5-.2a.5.5 0 0 0-.5 0Z" fill="#F49E2D"/>
  <path d="M177.7 101.2v.7a.5.5 0 0 0 0 .2l.1.1c.2.1.5.2.7 0 .2 0 .2-.2.2-.3l.2.3v.1l.3-.1.2-.1h-.2l-.4-.2h.6c.2-.2.1-.4 0-.5H179a6 6 0 0 0-1.4-.2Z" fill="#048ABF"/>
  <path d="M176.6 102.4v.2c.1.1.3.1.4 0 .1 0 .1-.1 0-.2h-.4Z" fill="#F49E2D"/>
  <path d="M177.8 103.2v.4l-.1.3.5-.1 1.1-.6h-1.5Z" fill="#F22233"/>
  <path d="m176.1 103.4-.1-.3h-.1l-.6-.2-2.2-1.5c.1-.1.2-.3 0-.4a.9.9 0 0 0-.7-.1l-2.7-1.8c.2-.1 0-.3 0-.4h-.2l-.6-.1-2.2-1.5-.1-.1c.2-.2.1-.4 0-.5h-.1l.3-.3h.6v-.3l.7-.4v.1l.2.1c.2.1.4.2.7 0 .2 0 .2-.1.2-.2 0 0 .2 0 .2.2v.1l.2-.1.3-.1h-.3l-.4-.2h.7c.2-.2.1-.4 0-.5h-.2l-.1-.1.7-.3h.4v-.3l.6-.3v.1l.2.1a.9.9 0 0 0 .7.1l.1-.1.1-.3.2.3v.1h.2l.3-.2h-.3l-.4-.2h.7c.2-.2 0-.4-.1-.5H172.7l.6-.3.2-.1h.3c.2 0 .2-.2 0-.2l.3-.1h1.2l.2.1 1.4 1 .8.5v.4l.2.1h.6l.4.3 1 .8 1.3.8.1.3h.5l.9.7 1.4 1v.3l.2.1c.2.1.4.2.6.1l.4.3c.3.2.4.4.2.6a10 10 0 0 1-1.3 0v.9l-.6.2h-.5v.2h.1l-.6.3H181v.4l-.1.5-.6.2h-.4l-.1.2-.5.3h-1.5v.4l-.1.3c-.4.1-.9 0-1.2-.2l-.4-.3Zm.3-9.8-.2-.2a1 1 0 0 0-.8 0c-.2.1-.2.3-.2.4h-.6a.5.5 0 0 0-.2 0c-.2.2-.1.4.1.6h.1c.5.2 1.7.2 1.7.1 0 0 .2-.5 0-.9Zm-7.5 3-.2.2v.2h-.7c-.3.2-.2.5 0 .6h.1c.5.2 1.7.2 1.7.2s.2-.6 0-1l-.1-.1a1 1 0 0 0-.8-.1Zm5.6 5.4c.5.2 1.7.1 1.7 0 0 0 .2-.4 0-.7v-.2l-.1-.1a1 1 0 0 0-.8 0h-.2v.3h-.7v.1c-.3.2-.2.4 0 .5h.1Zm6.5-3.3c.5.2 1.7.2 1.7.2s.2-.6 0-1l-.1-.1a1 1 0 0 0-.8-.1l-.2.4a1.7 1.7 0 0 0-.7 0v.1c-.3.2-.2.4 0 .5h.1Zm-3.2 1.5c.5.2 1.6.2 1.6.2l.2-.8-.1-.2-.2-.1a1 1 0 0 0-.7-.1h-.1l-.2.2v.2h-.7v.1c-.3.2-.2.4 0 .5h.2Zm-5.6-5.3c-.2 0-.2.1-.2.2v.1l-.7.1h-.1c-.2.2-.2.4 0 .6h.2l1.1.2h.5s.3-.6.1-1l-.2-.2a1 1 0 0 0-.7 0Zm7.2.8H178v.4c0 .3-.2.4-.2.4h.9l.7.1v-.4l.1-.5Zm-5 2.4h1l.7.1v-.9a8.6 8.6 0 0 1-1.5 0v.4l-.1.4Zm-3.1 1.6h.8l.7.1v-.4l.1-.5h-1.5v.4l-.1.4Zm5.1-.1v-.2h-.1a.9.9 0 0 0-.8 0l-.1-.2a.9.9 0 0 0-.8 0c-.2 0-.2.3 0 .4l.1.1-.1.1v.4c.3 0 .6.1.8 0h.2V99.8l.1.2v.2l.3-.2.3-.1h-.3l-.3-.1h.5l.2-.3Zm2.5-1.1v-.3l.2.3v.1l.3-.1.2-.2H179l.6-.1.1-.3v-.1a.5.5 0 0 0-.1-.1.9.9 0 0 0-.8 0 .4.4 0 0 0-.1-.2.9.9 0 0 0-.8 0c-.2.1-.2.3 0 .5h.2l-.2.2v.3h.1c.2.1.6.2.8 0Zm-.4 3.8c.2-.1.2-.3.2-.4l.2.3v.1l.3-.1.2-.1h-.2l-.4-.2h.6c.2-.2.1-.4 0-.5H179a6 6 0 0 0-1.4-.2V102.1l.1.1c.2.1.5.2.7 0Zm-2.5-6.9h-.1a4.5 4.5 0 0 0-1.4 0s-.2.4 0 .7v.1l.2.1c.1.1.4.2.6 0h.1c.1-.1.2-.2.1-.3l.2.3v.1l.3-.1.3-.1h-.3l-.4-.2h.6c.2-.2.1-.4 0-.5h-.2Zm-3.2 1.6h-1.5v.7l.2.2a.8.8 0 0 0 .7 0c.2 0 .2-.3.2-.3l.1.3v.1l.3-.1.3-.2h-.3l-.4-.1h.6c.2-.2.2-.4 0-.5h-.2Zm8.9 3.7h.1l.1-.4.2.3v.1h.3l.2-.2h-.2l-.4-.2h.6c.2-.2.1-.4 0-.5H182.2a6 6 0 0 0-1.4-.2s-.2.5 0 .8v.1l.1.1c.2.1.5.2.7.1Zm-11-2.6h-.5v.2h.4c.1 0 .1-.1 0-.2Zm6 2.7h.4v-.2h-.4c-.1 0-.1.1 0 .2Zm3.2-1.6h.4v-.3h-.4v.2Zm-3.1-4.1h.1a.5.5 0 0 0 .3 0v-.3a.5.5 0 0 0-.4 0c0 .1-.1.1 0 .2Zm-6.5 1v.3a.5.5 0 0 0 .4 0c.1 0 .1-.1 0-.2h-.4Zm6.7 6.6v-.3a.5.5 0 0 0-.4 0v.2c.1.1.3.1.4 0Zm6.6-3.3s.1-.2 0-.2c-.1-.1-.3-.1-.4 0-.1 0-.1.1 0 .2h.4Zm-9.6-3h-.5v.3h.4c.2-.1.2-.2 0-.3Zm6 .8h.3c.1 0 .1-.2 0-.2-.1-.1-.3-.1-.4 0v.2Zm-6.5 1.4c0 .1.2.1.4 0v-.2a.5.5 0 0 0-.4 0c-.1 0-.2.1 0 .2Zm0-4v.2h.4c.2 0 .2-.1.1-.2h-.4Zm6.8 6.4c.1 0 .2-.1.1-.2-.2-.1-.3-.1-.4 0h-.1v.2h.4Zm-3.2-4.3h-.4v.3h.4l.1-.2Z" fill="#fff"/>
  <path d="M186 95.9v.2l.6.2-.1-.3-.2-.1h-.3Z" fill="#048ABF"/>
  <path d="M190 90.6h-.1v.2h.4c.1 0 .1-.2 0-.2h-.4Z" fill="#F49E2D"/>
  <path d="M188.4 95.3c-.2.2 0 .4 0 .5a1.7 1.7 0 0 0-.5.1l-.1.1.1.4h.4s.1.1.2 0h.3l1.2-.2-.5-.8h-.1a1 1 0 0 0-.8-.1h-.2Z" fill="#F22233"/>
  <path d="M190.8 95s.1.6.5.8v.1h.9c.2-.2 0-.4 0-.4h.2l.1.2.1.1.2-.2.1-.1h-.7a1.4 1.4 0 0 0 .5-.2V95l-.4-.2H192c-.5 0-1.2.3-1.2.3ZM189.7 97.2l1.1.3-.1-.3h-1Z" fill="#048ABF"/>
  <path d="m195.9 92.4.3.4.2.5.6-.8c.1 0 .2-.2.1-.3a9.8 9.8 0 0 1-1.2.2Z" fill="#F22233"/>
  <path d="M194.4 91.9v.2h.5v-.2h-.1a.5.5 0 0 0-.4 0ZM190.6 96.4v.2h.5v-.2h-.1c-.1-.1-.3 0-.4 0Z" fill="#F49E2D"/>
  <path d="m172.4 100.9.7.5c.1-.1.2-.3 0-.4a.9.9 0 0 0-.7-.1Z" fill="#048ABF"/>
  <path d="M174.3 101.4c-.2.2-.1.4.1.5h.1c.5.3 1.7.2 1.7.2s.2-.5 0-.8v-.2l-.1-.1a1 1 0 0 0-.8 0h-.2v.3h-.7v.1Z" fill="#F22233"/>
  <path d="M179.8 102.7v.2l.5-.1c-.2-.1-.3-.1-.4 0Z" fill="#F49E2D"/>
  <path d="m167.8 101.5-.1.2.1.3h.1c.4.3 1.5.4 1.5.4s.4-.4.5-.8v-.1l-.2-.3a1 1 0 0 0-.6 0h-.1c-.2 0-.3.2-.3.3 0 0-.5-.2-.8 0Z" fill="#F22233"/>
  <path d="M164.9 101c0 .2.1.2.2.3a.8.8 0 0 0 .6 0l.2-.1.1-.1v.4l.3-.1h.3l-.3-.1-.1-.1-.2-.1H166.8c.2-.2.1-.4 0-.5h-.2l-1.7.4ZM167.3 102.9s-.2.1-.3.4v.1l-.1.2v.1s0 .2.2.2a.8.8 0 0 0 .5 0 .5.5 0 0 0 .1 0c.2 0 .2-.2.3-.2v.4h.2l.4-.2h-.5l-.1-.2h.6a.5.5 0 0 0 .2 0c.1-.2 0-.4-.1-.5-.4-.2-1.4-.3-1.4-.3Z" fill="#048ABF"/>
  <path d="M166.7 102c-.1 0-.1.1 0 .2a.5.5 0 0 0 .4 0v-.2a.4.4 0 0 0-.4 0Z" fill="#F49E2D"/>
  <path d="M164 102.4c-.2.1-.2.3-.1.4l.1.1c.5.3 1.5.4 1.5.4s.5-.4.5-.8v-.1c0-.1 0-.2-.2-.3a.9.9 0 0 0-.5 0h-.2l-.3.3s-.5-.2-.7 0a.5.5 0 0 0-.1 0ZM160 103.5c-.1.1-.2.2-.1.3l.1.2h.1c.4.3 1.5.4 1.5.4l.3-.4.1-.1.1-.3v-.1l-.2-.3a.9.9 0 0 0-.6 0h-.2l-.2.3c-.1 0-.5-.1-.8 0Z" fill="#F22233"/>
  <path d="m161 102 .3.3a.8.8 0 0 0 .5 0h.1l.2-.1v-.1l.1.2v.2l.3-.1h.3l-.3-.1a1 1 0 0 1-.3-.2h.6a.5.5 0 0 0 .2-.1c.1-.1 0-.3 0-.4h-.1l-1.8.4ZM168.9 100.2h.1l.3.2-.4-.2ZM159 102.7s-.1.3 0 .4c.2-.2.2-.3 0-.4ZM170.9 102.3l-.1.4.2.2h.4l-.5-.6ZM163.5 103.8l-.5.7v.2l.2.2a.8.8 0 0 0 .6 0 .5.5 0 0 0 .2-.1l.1-.1v.4h.3l.3-.2h-.2a1.1 1.1 0 0 1-.4-.2H165c.2-.2.1-.4 0-.5l-1.4-.4ZM160.4 105l.5.7c.2-.1.1-.3 0-.4a2 2 0 0 0-.5-.2ZM173 105.2v.2l.2.1.2.1-.3-.4Z" fill="#048ABF"/>
  <path d="M171.6 105.3s-.1.1 0 .2h.4s.1 0 0 0v-.1a.5.5 0 0 0-.4 0Z" fill="#F49E2D"/>
  <path d="m171.8 106.7-.1.2.1.3h.1c.4.3 1.5.4 1.5.4s.4-.4.5-.8v-.1l-.2-.3a.9.9 0 0 0-.6 0 .5.5 0 0 0-.2 0l-.2.3s-.5-.2-.8 0Z" fill="#F22233"/>
  <path d="m174.9 107.5-.1.4.2.2h.4l-.5-.6ZM171.3 108l-.3.5a1 1 0 0 0-.1.3v.1l.1.2a.8.8 0 0 0 .6 0h.1c.2 0 .2-.2.2-.2v.4h.3l.4-.2h-.5l-.1-.2h.7c.2-.2.2-.4 0-.5-.4-.2-1.4-.3-1.4-.3Z" fill="#048ABF"/>
  <path d="M170.7 107.2h-.1v.2a.4.4 0 0 0 .5 0v-.1l-.4-.1Z" fill="#F49E2D"/>
  <path d="m168 107.6-.2.2v.1l.2.2c.5.3 1.5.4 1.5.4s.5-.4.5-.8v-.1c0-.1 0-.2-.2-.3a.9.9 0 0 0-.5 0 .5.5 0 0 0-.2 0l-.3.3h-.7a1.6 1.6 0 0 0-.1 0Z" fill="#F22233"/>
  <path d="M169.3 105.6v.4a1 1 0 0 0 0 .1h-.1l-.1.2v.2a.9.9 0 0 0 .9 0l.1-.1v.4l.3-.1.3-.1h-.2l-.2-.1-.1-.1h.7c.2-.2.2-.3.1-.4l-.1-.1a.9.9 0 0 0-.6 0v-.2l-.2-.1a.8.8 0 0 0-.6 0h-.1ZM165.3 106.6v.1h-.1v.3h.1v.1h-.1l-.2.2v.2l.2.1h.8v-.1h.1V107.7h.3l.3-.2h-.3a1 1 0 0 1-.2-.2.9.9 0 0 0 .7 0c.1-.1.2-.3 0-.4a.8.8 0 0 0-.6-.1v-.2h-.2a.8.8 0 0 0-.6-.2h-.1v.1ZM162.5 107.8l.4.6h.1l.2-.2v-.1l-.2-.2a.8.8 0 0 0-.5 0Z" fill="#048ABF"/>
  <path d="m170.3 103.7-.2.4-.3.4.8.2.6.2.2-.4.4-.5a8.2 8.2 0 0 1-1.5-.3ZM166.5 104.7l-.2.4-.4.4.8.2.7.2s0-.3.2-.4l.3-.5-.8-.1-.6-.2ZM162.6 105.7l-.2.4-.4.5h.8l.7.3.2-.4.3-.5a7.7 7.7 0 0 1-1.4-.3Z" fill="#F22233"/>
  <path d="M169.7 102.8c-.1 0-.2.1-.1.2a.5.5 0 0 0 .5 0v-.2h-.4ZM165.8 103.8c-.1 0-.1.1 0 .2h.5v-.2h-.5ZM161.8 104.8c-.1 0-.1.1 0 .2l.3.1.2-.1v-.1h-.1l-.3-.1h-.1ZM159.6 102.3l.1.1a.5.5 0 0 0 .4 0s.1 0 0-.1h-.5ZM163.6 101.3l.4.1.2-.1v-.1l-.6.1ZM167.5 100.3l.4.1.1-.2-.5.1ZM162.8 103c-.1 0-.1.1 0 .2a.5.5 0 0 0 .4 0v-.1c-.1-.1-.2-.2-.3-.1h-.1ZM164.7 105.7s-.1 0 0 .1v.1a.5.5 0 0 0 .4 0s.1-.1 0-.2a.5.5 0 0 0-.3 0Z" fill="#F49E2D"/>
  <path d="M164 108.7c-.1.1-.2.2-.1.3a.4.4 0 0 0 .1.2h.1c.4.3 1.5.4 1.5.4s.4-.4.5-.8v-.1l-.2-.3a.9.9 0 0 0-.6 0 .5.5 0 0 0-.2 0l-.2.3c-.1 0-.5-.1-.8 0Z" fill="#F22233"/>
  <path d="m167.5 109-.5.7v.2l.2.2a.8.8 0 0 0 .6 0l.2-.1.1-.1v.4h.3l.3-.2h-.4l-.2-.2h.7c.3-.2.3-.4 0-.5a5 5 0 0 0-1.3-.4ZM164.4 110.3l.5.6c.2-.1.1-.3 0-.4a2 2 0 0 0-.5-.2Z" fill="#048ABF"/>
  <path d="m174.3 108.9-.2.4-.3.4 1.3-.3a1.4 1.4 0 0 0 .4-.2 8.5 8.5 0 0 1-1.2-.3ZM170.5 109.9l-.3.4-.3.4 2-.5a8 8 0 0 1-1.4-.3ZM166.6 111l-.2.3-.3.3h.6l1.3-.4a7.4 7.4 0 0 1-1.4-.3Z" fill="#F22233"/>
  <path d="M173.6 108v.2a.5.5 0 0 0 .5 0v-.2a.5.5 0 0 0-.5 0ZM169.8 109c-.1 0-.1.1 0 .2a.4.4 0 0 0 .4 0v-.2h-.4ZM165.8 110c-.1 0-.1.2 0 .2l.3.1.2-.1v-.1h-.1l-.3-.1h-.1ZM172.7 109.8c-.1 0-.1.1 0 .2l.5-.1-.1-.1a.5.5 0 0 0-.4 0ZM168.7 110.9s-.1 0 0 .2l.5-.2c-.2 0-.3-.1-.4 0ZM166.7 108.3v.2h.4l.1-.1v-.1a.5.5 0 0 0-.5 0Z" fill="#F49E2D"/>
  <path d="M164.9 111c.2-.2.1-.4 0-.5l-.5-.2-1.5-1.9h.1l.2-.2v-.1l-.2-.2a.8.8 0 0 0-.5 0l-1.6-2.2c.2-.1.1-.3 0-.4a2 2 0 0 0-.5-.2l-1.4-1.8v-.2c.2-.2.2-.3 0-.4l.2-.2.4-.1h.1a.5.5 0 0 0 .4 0s.1 0 0-.1l1-.3c0 .2 0 .2.2.3a.8.8 0 0 0 .5 0 .5.5 0 0 0 .3-.1v-.1l.1.2v.2l.3-.1h.3l-.3-.1a1 1 0 0 1-.3-.2h.7v-.1c.2-.1.2-.3 0-.4l.7-.3.4.1.2-.1v-.1l.7-.2c0 .2.1.2.2.3a.8.8 0 0 0 .6 0l.2-.1.1-.1v.4l.3-.1h.3l-.3-.1a1.1 1.1 0 0 1-.3-.2H166.8c.2-.2.1-.4 0-.5h-.2l.9-.3.3.1h.1l.1-.2h1l.3.2.2.1 1.4 1.8-.1.4.2.2h.4l1.7 2.3c-.1 0-.1.1 0 .2v.1l.3.1 1.5 1.9-.1.4.2.2h.4l.3.4c.1.2 0 .5-.2.7a7.4 7.4 0 0 1-1.2-.3l-.2.4-.3.4-.6.2-.1-.1h-.4c-.1 0-.1.1 0 .2l-.8.2a8.2 8.2 0 0 1-1.4-.3l-.3.4-.3.4-.7.2h-.5s-.1 0 0 .2l-.7.1a7.4 7.4 0 0 1-1.4-.3l-.2.4a3 3 0 0 1-.3.3c-.4 0-.8-.1-1-.4l-.2-.3Zm4.6-2.5s.5-.4.5-.8v-.1c0-.1 0-.2-.2-.3a.9.9 0 0 0-.5 0 .5.5 0 0 0-.2 0l-.3.3h-.7a1.2 1.2 0 0 0-.1 0l-.2.2v.1l.2.2c.5.3 1.5.4 1.5.4Zm-4.2-6.5-.2.1-.3.3s-.5-.2-.7 0a.5.5 0 0 0-.1 0c-.2.1-.2.3-.1.4v.1h.2c.4.3 1.4.4 1.4.4s.5-.4.5-.8v-.1c0-.1 0-.2-.2-.3a.9.9 0 0 0-.5 0Zm8 5.6c.1 0 .5-.4.6-.8v-.1l-.2-.3a.9.9 0 0 0-.6 0 .5.5 0 0 0-.2 0l-.2.3s-.5-.2-.8 0c-.2 0-.2.1-.2.2l.1.3h.1c.4.3 1.5.4 1.5.4Zm-3.4-6v-.1l-.2-.3a1 1 0 0 0-.6 0h-.1c-.2 0-.3.2-.3.3 0 0-.5-.2-.8 0-.2 0-.2.1-.2.2l.1.3h.1c.4.3 1.5.4 1.5.4s.4-.4.5-.8Zm-8.6 1.6h-.2l-.2.3c-.1 0-.5-.1-.8 0-.2.1-.3.2-.2.3l.1.2h.1c.4.3 1.5.4 1.5.4l.3-.4.1-.1.1-.3v-.1l-.2-.3a.9.9 0 0 0-.6 0Zm4.3 6.4s.4-.4.5-.8v-.1l-.2-.3a.9.9 0 0 0-.6 0h-.2l-.2.3c-.1 0-.5-.1-.8 0-.2.1-.3.2-.2.3a.4.4 0 0 0 .1.2h.1c.4.3 1.5.4 1.5.4Zm1.1-2h-.3a1 1 0 0 1-.2-.2.9.9 0 0 0 .7 0c.1-.1.2-.3 0-.4a.8.8 0 0 0-.6-.1v-.2h-.2a.8.8 0 0 0-.6-.2h-.1v.1l-.2.1v.3h.1v.1h-.1l-.2.2v.2l.2.1h.8v-.1h.1a.3.3 0 0 1 0 .3h.3l.3-.2Zm4-1h-.2l-.2-.1-.1-.1h.7c.2-.2.2-.3.1-.4l-.1-.1a.9.9 0 0 0-.6 0v-.2l-.2-.1a.8.8 0 0 0-.6 0 .6.6 0 0 0-.2 0v.5h-.1l-.1.2v.2a.9.9 0 0 0 .9 0l.1-.1v.4l.3-.1.3-.1Zm-7.2-2.8-.5.7v.2l.2.2a.8.8 0 0 0 .6 0 .5.5 0 0 0 .2-.1l.1-.1v.4h.3l.3-.2h-.2a1.1 1.1 0 0 1-.4-.2H165c.2-.2.1-.4 0-.5l-1.4-.4Zm4.2 6.4h.1l.2-.2.1-.1v.4h.3l.3-.2h-.4l-.2-.2h.7c.3-.2.3-.4 0-.5l-1.3-.4-.5.7v.2l.2.2h.5Zm3.9-1h.1v-.1c.2 0 .2-.2.2-.2v.4h.3l.3-.2h-.4l-.1-.2h.6a.5.5 0 0 0 .2 0c.1-.2 0-.4-.1-.5-.4-.2-1.4-.3-1.4-.3l-.3.4v.1l-.1.2v.1l.1.2h.6Zm-4.3-6.3s-.2.1-.3.4v.1l-.1.2v.1s0 .2.2.2a.8.8 0 0 0 .5 0 .5.5 0 0 0 .1 0c.2 0 .2-.2.3-.2v.4h.2l.4-.2h-.5l-.1-.2h.6a.5.5 0 0 0 .2 0c.1-.2 0-.4-.1-.5-.4-.2-1.4-.3-1.4-.3Zm-.2 2-.6-.2-.2.4-.4.4.8.2.7.2s0-.3.2-.4l.3-.5-.8-.1Zm4.1 0 .2-.4.4-.5a8.2 8.2 0 0 1-1.5-.3l-.2.4-.3.4.8.2.6.2Zm-8.6.8-.2.4-.4.5h.8l.7.3.2-.4.3-.5a7.7 7.7 0 0 1-1.4-.3Zm7.5-2.9h-.4c-.1 0-.2.1-.1.2a.5.5 0 0 0 .5 0v-.2Zm1 4.5-.4-.1h-.1v.2a.5.5 0 0 0 .5 0v-.1Zm1-2h-.5s-.1.1 0 .2h.4s.1 0 0 0v-.1Zm-3.4-.5a.4.4 0 0 0 .4 0v-.2h-.4c-.1 0-.1.1 0 .2Zm-7 .3h.4l.2-.1v-.1h-.1a.5.5 0 0 0-.4 0c-.1 0-.1 0 0 .1Zm4-1.1H166.4v-.2h-.5c-.1 0-.1.1 0 .2Zm-2.8-1h-.1c-.1 0-.1.1 0 .2a.5.5 0 0 0 .4 0v-.1c-.1-.1-.2-.2-.3-.1Zm1.8 2.9a.5.5 0 0 0 .4 0s.1-.1 0-.2a.5.5 0 0 0-.3 0c-.2 0-.2 0-.1.1v.1Zm2-4a.2.2 0 0 0 0 .1c-.1 0-.1.1 0 .2a.5.5 0 0 0 .4 0v-.2h-.3Zm7.3 6.4.1-.2v-.1h-.4c-.1 0-.2.1-.1.2h.4Zm-4 1h.2v-.3h-.4c-.1 0-.1.1 0 .2h.3Zm-4 1h.2v-.2l-.3-.1h-.1c-.1 0-.1.2 0 .2l.3.1Zm1.2-2a.5.5 0 0 0-.4 0c-.2 0-.2.1-.1.2h.4l.1-.1Z" fill="#fff"/>
  <path d="m175.3 102.9.8.5-.1-.3h-.1l-.6-.2Z" fill="#048ABF"/>
  <path d="M181 101.6v.4l-.1.5 1.7-.9h-.9a5 5 0 0 1-.7 0Z" fill="#F22233"/>
  <path d="M101.4 99.7c-.6 1.1 1.3 1.4-1.2 4-2.5 2.4-7.7 2.1-9.9 3.9-2.2 1.7-2.2-1-1-1.7 1-.8-4.6-.3-7-.5-2.6-.1-.9-2.2-.6-2.5.3-.3.3-3 2.4-4 2-.8 7.4-2.2 9.2-2.2.7-7.4 9.7 0 8 3Z" fill="#E8C5AC"/>
  <path d="M113.3 46.5s-2.8-6.3-4.2-5.2A208.8 208.8 0 0 0 96 78.1c.2 5.2 4 6.2 7.5 4.5 3.6-1.8 10.2-21 10.2-21l-.4-15Z" fill="#67777A"/>
  <path d="m154.4 157.5 2.7 11.3c.2 1.3 4.3 2.8 4 3.6-.1.7 0 1-1 1.7-3.6 3.4-9.9-.8-9.9-.8-.8-.4-4.2-5.8-6.7-10.5l-.1-1.7c-.1-.1-.7.4-.8.3-.9-1.6-1.9-3.5-2-4-.2-.7 0-.6.9-1.9l9.5 11.1 3.4-9.1Z" fill="#313D3F"/>
  <path d="M144 152.1c1.2-1.3 2-2 2.4.8 0 0 .2 2.3 3.6 1.4 3-.8 6.4.2 6.9 2 .2.7-.9 3-.9 3l1.4 9.3c.7 1.2 4.3 2.8 3.7 4-.7 1.1-2 2.2-5.6 1.5-3.5-.7-5.3-3-5.3-3-5.2-7.8-8.7-15.6-8.7-15.6s1.6-2.4 2.5-3.4Z" fill="#788A8E"/>
  <path d="m130.7 173.8-3.6 6.8c-.2 1.3-.8 2.6.2 4.2l.1.2c.8 1.5 1.1 1.4 2.3 1l7.6-3.5c1-.6 2.2-2.1 3.7-4.2 0 0 0-.9.3-1.2.3-.4.6 0 .7-.1l1.3-2c.7-1.2-.5-2.8-1.5-4.6l-3.3 2-7.8 1.4Z" fill="#313D3F"/>
  <path d="M141.3 169.4c-.6-1-.8-1.1-1.2-1 0 0-2.1 2-5.3 1.2-4.7-1-7.8 2.1-6.7 3.6.5.6 1.1 1.8 1.1 1.8l-2.5 5.7c-.6 2-.6 2 .1 3.3.7 1.2 1.2 1 2.8.7l6.7-3c1.8-1 5.1-5.2 5.6-6.6l1.2-2.5-1.8-3.2Z" fill="#788A8E"/>
  <path d="M175.6 115.9c-4-6-16.5-17-20-19.7-10.6-8.1-14.5-3.4-15.3-3.2l-26.4 1.8s-2.5 24.6-.6 36.5c0 0 10.6 34.3 14.6 43.5 2.4 5.4 13-4 12.5-6.3-1.6-6.3-9.6-32-11.5-39.8-.5-5.6 4.5-28.7 4.5-28.8 6.8 6.8 27.5 23 27.5 24.7 0 1.9-17.5 26.9-17.7 27.4-1.2 6 12 8 12.8 7.4 7.6-5.6 14.7-21.3 20.2-32.7 2.6-5.5 2.1-7.2-.6-10.8Z" fill="#313D3F"/>
  <path d="M153.5 40.8s3.3-.2 3.7 6.4c.3 3 .7 18 2 22.8.2.4 2 3.7 3 3.2.4-.3.3 6.2-1.2 8.3-3 4.6-7.2 3.8-9.4.4-2.2-3.6-7.2-21.5-7.2-21.5l9-19.6Z" fill="#67777A"/>
  <path d="M154 94.4c-10.2-6.3-11.7-41-11.7-41l-.4-13-1-2.2-7.4-.6-6.5.2-3.5.4-.3 8.8-10.1 56.5s6.8-4.6 20.5 4c.2 0-.2-8.6 0-8.6l1.1 7.5c14.8-9.7 24.2-9 19.4-12Z" fill="#FFFEF9"/>
  <path d="M133.5 37.6a144.3 144.3 0 0 1-.7 0c-1-.1-3.2 0-5.8.3l6.5-.3ZM125.3 38Z" fill="#8366FF"/>
  <rect width="9.1" height="13.7" rx="1.1" transform="rotate(-16.5 252.1 -505.5)" fill="#fff"/>
  <path d="M159.4 53.7c.5-.1 1.1.3 1.3.9v.4h.2a1.1 1.1 0 0 1 1.2.7 1.1 1.1 0 0 1-.7 1.4h-.3a1 1 0 0 1-.7-.2l.4.5c.3.3.4.3.5.3l-.7.2-.7.2s.2 0 .3-.5V57a1 1 0 0 1-.7.8 1 1 0 0 1-1.4-.8 1 1 0 0 1 .8-1.3l-.2-.4c-.2-.6 0-1.3.6-1.5ZM155.8 53.3h-.4l.1-2.1.5-.2 1.3 1.8-.4.1-1-1.4-.1 1.8Zm-.2-.8 1-.3.1.3-1 .3-.1-.3ZM163.5 60.5l-.4.1.1-2.2.5-.1L165 60h-.4l-1-1.4v1.8Zm-.2-.8 1-.3.1.3-1 .3-.1-.3Z" fill="#414042"/>
  <g filter="url(#a)">
    <rect x="159.5" y="48" width="9.1" height="13.7" rx="1.1" transform="rotate(-3.7 159.5 48)" fill="#fff"/>
  </g>
  <path d="m164.4 52.2 1.2 1.1c.8.8 1.4 1 1.4 1l-1.3 1.3-.9 1.3-1-1c-.8-.8-1.5-1.1-1.5-1.1l1.2-1.3 1-1.3ZM161.3 48.8h.3l.3.2.2.3v1.3l-.3.3h-.7a.7.7 0 0 1-.4-.5h.4l.1.2h.2c.2 0 .3 0 .3-.2l.1-.5a.5.5 0 0 1-.3.3h-.2a.6.6 0 0 1-.6-.3v-.7l.2-.3h.4Zm0 .3-.1.1-.2.2v.4h.2l.2.1a.4.4 0 0 0 .3-.1.4.4 0 0 0-.1-.6h-.3Z" fill="#F22233"/>
  <path d="M167.5 57.6h.3l.3.1.2.3v1.4a.7.7 0 0 1-.7.3h-.3a.7.7 0 0 1-.4-.6h.4l.1.2h.2l.3-.1.1-.6a.5.5 0 0 1-.3.3h-.2a.6.6 0 0 1-.6-.2V58c0-.2.1-.2.2-.3l.4-.1Zm0 .3a.4.4 0 0 0-.3.2.4.4 0 0 0 0 .4l.2.1h.2a.4.4 0 0 0 .3 0 .4.4 0 0 0-.1-.7h-.2Z" fill="#414042"/>
  <g filter="url(#b)">
    <rect x="164.8" y="47.6" width="9.1" height="13.7" rx="1.1" transform="rotate(9 164.8 47.6)" fill="#fff"/>
    <path d="M168.6 52.8s1.6 1.4 1.7 2.4v.4c0 .5-.4 1-1 1H169c-.4-.2-.7-.7-.8-.8 0 .2 0 .6.2 1l.3.3h-.7l-.7-.1s.2 0 .5-.4l.4-.8-.3.2c-.2.2-.5.3-.8.3h-.1c-.5-.2-.8-.7-.7-1.3v-.3l.2-.3c.6-.9 2.1-1.7 2.1-1.6ZM166 50.9l-.3-.1a.6.6 0 0 1-.2-.3v-.3h.3l.1.3h.2c.1.1.2 0 .2 0h.2v-.6l-.3-.1H165.6l.2-1 1.2.1v.3l-.9-.1-.1.5h.4a.6.6 0 0 1 .5.3v.4l-.1.4-.3.2h-.4ZM170.2 60.8l-.3-.2a.6.6 0 0 1-.3-.2V60h.4v.3h.6l.1-.3V60l-.1-.1-.2-.1h-.7l.3-1.1 1.2.2v.3l-1-.1-.1.5h.2l.2-.1a.6.6 0 0 1 .5.4v.7l-.4.2h-.4Z" fill="#414042"/>
  </g>
  <path d="M154.4 48.4c.8-7.6-.9-7.8-.9-7.8l-13.4-1.9 1 2.4.4 14 1.1 52 4.7-6.4c3.9-5.2 8-4 8-4.6-.5-5.2-7.3-8.1-6.8-13.2.5-4.1 5.5-29.7 6-34.5ZM123.5 48.2v-9.7c-5.5.6-12.4 2.2-13.3 2.3-2.3.4-.8 6.5-.8 6.5l5 32.4s-1.7 24.1-.9 23.8c9.9-3.3 15.4 1.2 15.4 1.2l-5.4-56.5Z" fill="#788A8E"/>
  <path d="M124.8 38.5s-1.3 1.3-1 9.2c.2 8.6 2.5 29.4 2.5 29.4l-9.5-19.5c-.4-1 3.2-3.4 3.2-3.4.7-.6.2-1.2-.2-1.4l-3.4-2.4 2.8-9.4s1.8-4 5.7-4.6c2.7-.3 4.4-.1 4.4-.1l-4.5 2.2ZM138.9 38.7s1.6 1.6 2 9.4l1 28.6 6-19.7c-.3-.5-3.7-2.8-3.7-2.8-.4-.2-.4-.5 0-.7l4.6-2.1-3.9-9.4s-2-5.2-6-5.7c-2.7-.3-3.6.4-3.6.4l3.6 2Z" fill="#9EB1B7"/>
  <path d="m124.3 39.7.2-11.4 13.2-.7 1.8 11.2s.2 4.2-5 5.5c-.9.3-2.8 2.8-3.2 2.8-.2 0-7-7.4-7-7.4Z" fill="#E8C5AC"/>
  <path d="M126.8 36.7c.8.8 2 1.3 3.1 1.3h2l2.8-.6s2-.3 2.9-1.2l1.2-1.7-1.1-6.9-13.2.7-.1 5.8 2.4 2.6Z" fill="#D1A382"/>
  <path d="M121.4 5.5c2.1-1.8 3.8-2.8 3.8-2.8s-1.5 1.8-1.1 1.7l6.3-2.3-1 1.7s-.4 1 .9.6l3.8-1.6-.1 1.6-.9 1.7s-14 1.8-13.8 1.4c.7-1 2-2 2-2Z" fill="#142635"/>
  <path d="M139 18.7h.7c1 .1 2.3.9 2.2 2.4l-.2 3.3c0 2.4-2.1 1.9-2.1 1.9l-.5-7.6ZM121.9 21l-.7.2c-.2 0-.4.1-.5.3-.8.5-1.3 1.4-1 2.6l1.1 3c.7 2.4 2.6 1.4 2.6 1.4l-1.5-7.5Z" fill="#D1A382"/>
  <path d="m128 9.4-5.4-.5-2.2 4.1 2.3 17.4c.2 1.2.8 2.3 1.7 3l3.1 2.6c1 .7 2.1 1 3.2 1l2-.3 2-.3c1-.2 2.1-.8 2.8-1.7l2.3-3.3c.7-1 1-2.2.8-3.4l-2.3-17.4L128 9.4Z" fill="#E8C5AC"/>
  <path d="M120 20s-.5-2.6-1.7-7.2c-.5-1.7-.3-3.2.4-4.5.6-1 1.7-1.8 3.1-2.3 2.2-.8 8.7-2 12.2-1.6 2.1.2 3.5.8 4.6 2.2.7 1 1 2.1 1 3.6l-.2 8.1s-1 .6-1.4-3.3c-.7-4.8-3.7-4.9-4.4-4.8l.9 3.8s-6.7-2.1-7.1-2.1c-.5 0-6.6-2-6.5 1.7l.6 7.6s-.9.2-1.4-1.1Z" fill="#142635"/>
  <path d="M156.4 67.5c1.2-1.5 1.6-1.4 3.4-2.7 3.8-2.6 2.5-4.6 2.8-5.8.9-3.9 2.2-4 3.4-3.6 1.1.4 2.3 5.2 3.3 7.3.8 1.8.2 2.1-.7 2.8-3 2.3-5.1 2.8-5.5 3.3-.5.5.3 4.8-.1 5.2-4.6 5.5-8.5 2.6-8.3 1.7 0-.5 2-4.4 2-4.4s-1.8-1.8-.3-3.8Z" fill="#E8C5AC"/>
  <path d="M154.7 75s.5 2.4 3.2 1.9 5.2-4.3 5.2-4.3.3-.7.6.1c.3.9.2 3.4.2 3.4s-1.4 3-2.8 3.7c-1.5.9-4.8 2.3-7 .6-2.2-1.7-.5-4.7-.1-5.4.4-.7.7 0 .7 0Z" fill="#fff"/>
  <path d="m122.7 44.8 8.7 2.4 9.6-4.7s-1.3 6.9-1.7 6.9c-1.2 0-5.2-2.9-8-1.8-3.4-.5-7.2 2.9-7.4 2.3-.6-1.7-1.2-5.1-1.2-5.1Z" fill="#DADADA"/>
  <path d="m129 80.7 1.2-31.3h2.2l4.6 31.9-4 8s0 4 .6 9.6l-1.2-9V88l-3.4-7.4Z" fill="#DADADA"/>
  <path d="m126.3 44.4 5 2.8 5.1-3 .9.7s-3 3.9-5.8 3.9-6-3.2-6-3.2l.8-1.2Z" fill="#3860B2"/>
  <path d="M124.3 35.2s-2.5 2-3 2.7c-.6.9 2 9.6 2.5 10.4.4.8 2.7-4.1 7.5-1.1.6.4-3-3.6-4.4-4.7-1.4-1.1-2.8-5.8-2.6-7.3Z" fill="#FFFEF9"/>
  <path d="M138.9 35.1s2.5 2 3 2.7c.6.8-2 9.6-2.4 10.4-.5.8-1.4-5-8.1-1-.6.4 3.6-3.7 5-4.8 1.4-1.2 2.8-5.8 2.5-7.3Z" fill="#FFFEF9"/>
  <path d="m129.6 46.8.2-.1 3.1-.2c.1 0 .2 0 .2.2l.2 2.3c0 .1 0 .2-.2.3l-1.5 1c0 .2-.2.2-.3.1l-1.5-1-.1-.2v-2.4Z" fill="#4870D3"/>
  <path d="m130.2 49.4-1.4 30.3 4.3 8.8 3.8-8.5-4.3-30.9-2.4.3Z" fill="#4870D3"/>
  <path d="M96 77.9s4.5-1.2 9 2.8c0 8-5 15.4-3.3 19.4-4 1.7-8.5-.3-10.9-2.3 2.3-4 5.2-20 5.2-20Z" fill="#fff"/>
  <path d="M96 77.9s4.5-1.2 9 2.8c0 5.7-3.3 14.3-3.3 18.2-5.2 1.2-9.2 0-10.3-2.2.7-4.3 4.6-18.8 4.6-18.8Z" fill="#6A7A7D"/>
  <defs>
    <filter id="a" x="158.3" y="46.4" width="12.1" height="16.4" filterUnits="userSpaceOnUse" color-interpolation-filters="sRGB">
      <feFlood flood-opacity="0" result="BackgroundImageFix"/>
      <feColorMatrix in="SourceAlpha" values="0 0 0 0 0 0 0 0 0 0 0 0 0 0 0 0 0 0 127 0" result="hardAlpha"/>
      <feOffset dx="-.1"/>
      <feGaussianBlur stdDeviation=".6"/>
      <feComposite in2="hardAlpha" operator="out"/>
      <feColorMatrix values="0 0 0 0 0 0 0 0 0 0 0 0 0 0 0 0 0 0 0.25 0"/>
      <feBlend in2="BackgroundImageFix" result="effect1_dropShadow_559_825"/>
      <feBlend in="SourceGraphic" in2="effect1_dropShadow_559_825" result="shape"/>
    </filter>
    <filter id="b" x="161.6" y="46.7" width="13.1" height="16.9" filterUnits="userSpaceOnUse" color-interpolation-filters="sRGB">
      <feFlood flood-opacity="0" result="BackgroundImageFix"/>
      <feColorMatrix in="SourceAlpha" values="0 0 0 0 0 0 0 0 0 0 0 0 0 0 0 0 0 0 127 0" result="hardAlpha"/>
      <feOffset dx="-.1"/>
      <feGaussianBlur stdDeviation=".6"/>
      <feComposite in2="hardAlpha" operator="out"/>
      <feColorMatrix values="0 0 0 0 0 0 0 0 0 0 0 0 0 0 0 0 0 0 0.25 0"/>
      <feBlend in2="BackgroundImageFix" result="effect1_dropShadow_559_825"/>
      <feBlend in="SourceGraphic" in2="effect1_dropShadow_559_825" result="shape"/>
    </filter>
  </defs>
</svg>