<svg width="462" height="504" viewBox="0 0 462 504" fill="none" xmlns="http://www.w3.org/2000/svg">
<path d="M198.493 87.6248C198.493 87.6248 194.482 74.7411 191.525 76.5927C186.79 79.5517 158.486 139.997 158.148 144.763C157.437 154.836 164.761 157.651 171.72 155.129C179.033 152.478 195.966 116.757 195.966 116.757L198.493 87.6248Z" fill="#DDDCEA"/>
<path d="M274.211 89.8626C274.211 89.8626 275.305 75.6034 277.152 77.1117C281.476 80.6422 311.868 140.979 312.207 145.745C312.917 155.818 305.593 158.636 298.632 156.111C291.318 153.459 273.5 116.146 273.5 116.146L274.211 89.8626Z" fill="#67777A"/>
<path d="M312.251 146.314C312.251 146.314 306.35 135.831 293.637 142.693C289.927 144.697 287.104 170.469 287.104 170.469C287.104 170.469 288.468 189.749 303.608 179.703C311.216 174.655 312.251 146.314 312.251 146.314Z" fill="#6A7A7D"/>
<path d="M304.612 172.675C304.612 172.675 294.112 165.174 290.612 169.175C287.613 171.175 288.018 175.174 288.018 175.174C288.018 175.174 288.361 189.273 302.209 179.997C309.167 175.336 304.612 172.675 304.612 172.675Z" fill="#EAE9F7"/>
<path d="M160.12 139.211C160.12 139.211 171.456 135.184 176.53 148.715C178.012 152.661 163.203 173.946 163.203 173.946C163.203 173.946 149.507 187.581 144.696 170.059C142.278 161.255 160.12 139.211 160.12 139.211Z" fill="#6A7A7D"/>
<path d="M146.5 164C146.5 164 158.379 158.5 161.501 171C162.5 175 158.726 176.741 158.726 176.741C158.726 176.741 147.228 188.23 143.189 173.466C143.5 166.5 146.5 164 146.5 164Z" fill="#EAE9F7"/>
<path d="M196.392 89.4416C196.392 89.4416 192.094 76.3604 189.107 78.2967C184.322 81.3911 156.407 143.514 156.138 148.382C155.573 158.671 163.091 161.426 170.151 158.742C177.57 155.92 194.277 119.205 194.277 119.205L196.392 89.4416Z" fill="#67777A"/>
<path d="M278.481 308.4L283.747 330.913C284.129 333.422 292.214 336.425 291.756 338.045C291.408 339.29 291.554 339.85 289.838 341.438C282.604 348.112 270.109 339.819 270.109 339.819C268.463 339.068 261.786 328.247 256.807 319.027C256.682 318.802 256.622 315.809 256.501 315.589C256.378 315.356 255.102 316.371 254.984 316.146C253.289 312.954 251.284 309.192 250.989 308.151C250.641 306.937 250.887 306.989 252.778 304.538L271.639 326.541L278.481 308.4Z" fill="#313D3F"/>
<path d="M257.795 297.782C260.241 295.085 261.656 293.591 262.606 299.232C262.606 299.232 263.004 303.849 269.673 302.141C275.677 300.608 282.39 302.591 283.259 306.016C283.636 307.494 281.556 312.018 281.556 312.018L284.345 330.536C285.763 332.749 292.774 335.915 291.66 338.196C290.276 340.64 287.563 342.748 280.585 341.333C273.602 339.912 270.01 335.365 270.01 335.365C259.794 319.885 252.779 304.535 252.779 304.535C252.779 304.535 255.942 299.815 257.795 297.782Z" fill="#788A8E"/>
<path d="M231.308 340.782L224.299 354.311C223.929 356.821 222.736 359.312 224.573 362.565C225.206 363.686 223.845 361.276 224.846 363.048C226.457 365.903 227.04 365.664 229.405 364.915L244.412 357.948C246.349 356.855 248.902 353.848 251.818 349.762C251.97 349.547 251.935 347.948 252.329 347.379C252.912 346.549 253.6 347.311 253.807 347.011C254.683 345.738 255.787 343.988 256.288 343.174C257.795 340.697 255.442 337.561 253.473 334.073L246.806 337.81L231.308 340.782Z" fill="#313D3F"/>
<path d="M252.357 332.12C251.29 330.231 250.92 329.863 250.117 330.181L250.097 330.145C250.097 330.145 245.814 333.899 239.497 332.496C230.112 330.407 224.1 336.676 226.296 339.639C227.153 340.796 228.514 343.206 228.514 343.206L223.502 354.524C222.345 358.286 222.188 358.333 223.661 360.942C225.063 363.373 226.138 363.031 229.142 362.381L242.571 356.542C246.1 354.55 252.643 346.166 253.65 343.293L255.93 338.449L252.357 332.12Z" fill="#788A8E"/>
<path d="M320.486 225.967C312.477 213.959 287.785 192.416 280.687 186.974C259.686 170.86 251.973 180.172 250.374 180.572L198.174 184.115C198.174 184.115 193.19 232.997 196.911 256.507C196.911 256.507 217.88 324.577 225.79 342.658C230.519 353.466 251.781 334.748 250.651 330.227C247.543 317.797 231.66 266.698 227.798 251.259C226.927 240.15 236.681 194.42 236.71 194.263C250.142 207.732 291.332 240.013 291.332 243.215C291.332 246.933 256.489 296.469 256.245 297.633C253.817 309.317 279.931 313.493 281.542 312.302C296.714 301.073 310.633 269.939 321.558 247.342C326.778 236.529 325.768 233.118 320.486 225.967Z" fill="#313D3F"/>
<path d="M277.772 183.324C257.432 170.894 254.383 102.207 254.383 102.207L253.59 76.3995L251.743 71.9779C246.769 71.4599 241.639 71.0047 236.856 70.7222L224.128 71.2218C221.891 71.4023 219.502 71.6143 217.064 71.8445L216.499 89.4757L196.41 201.405C196.41 201.405 209.97 192.364 237.091 209.315C237.479 209.359 236.726 192.324 237.091 192.364C237.091 192.364 239.351 205.925 239.351 207.055C268.732 187.844 287.317 189.157 277.772 183.324Z" fill="#FFFEF9"/>
<path d="M236.86 70.722C240.428 70.947 244.188 71.2792 247.937 71.6638C243.733 71.2295 239.502 70.8658 235.562 70.6382C233.629 70.5283 229.317 70.803 224.145 71.2556L236.86 70.722Z" fill="#8366FF"/>
<path d="M220.705 71.5753C221.825 71.4654 222.926 71.366 223.994 71.2744C222.924 71.366 221.825 71.4654 220.705 71.5753Z" fill="#8366FF"/>
<path d="M278.441 92.2004C279.891 77.1619 276.613 76.623 276.613 76.623C276.613 76.623 263.986 74.5352 250.086 72.9707L251.933 77.7376L252.726 105.562L245 208C245 208 262.459 198.059 264.209 195.755C272.003 185.535 275.597 191.677 275.5 190.5C274.694 180.257 269.917 164.122 271 154C271.871 145.903 277.526 101.75 278.441 92.2004Z" fill="#788A8E"/>
<path d="M217.097 91.6941V72.5815C206.208 73.6804 192.506 76.8217 190.761 77.1016C186.241 77.8268 189.092 89.9594 189.092 89.9594L199.241 154.189C199.241 154.189 195.8 201.989 197.352 201.455C216.882 194.779 227.91 203.781 227.91 203.781L217.097 91.6941Z" fill="#788A8E"/>
<path d="M219.606 72.4587C219.606 72.4587 217.063 75.2033 217.594 90.744C218.185 107.847 222.693 149.051 222.693 149.051L203.838 110.453C202.956 108.391 210.224 103.721 210.224 103.721C211.563 102.384 210.674 101.241 209.884 100.796C209.884 100.796 203.346 96.5757 203.076 96.131L208.683 77.4167C208.683 77.4167 212.1 69.3794 219.87 68.4402C225.215 67.7939 228.645 68.1707 228.645 68.1707L219.606 72.4587Z" fill="#9EB1B7"/>
<path d="M247.641 72.958C247.641 72.958 250.912 76.0661 251.537 91.6069C252.107 105.74 249.5 149.5 249.5 149.5L265.503 109.136C264.964 108.155 258.177 103.597 258.177 103.597C257.395 103.174 257.382 102.703 258.177 102.258C258.177 102.258 266.753 98.5976 267.287 98.0587L259.606 79.4778C259.606 79.4778 255.406 69.1643 247.639 68.2277C242.291 67.5815 240.48 69.0283 240.48 69.0283L247.641 72.958Z" fill="#9EB1B7"/>
<path d="M218.641 74.8683L219.054 52.3969L245.212 51.0051L248.799 73.1233C248.799 73.1233 249.191 81.4666 239.09 84.0594C237.229 84.5355 233.378 89.619 232.669 89.619C232.237 89.6164 218.641 74.8683 218.641 74.8683Z" fill="#E8C5AC"/>
<path d="M219.087 5.03717C223.726 2.03629 227.213 0.492676 227.213 0.492676C227.213 0.492676 223.927 3.68974 224.626 3.51968C225.314 3.34962 237.66 0.612999 237.66 0.612999L235.261 3.75777C235.261 3.75777 234.22 5.73573 236.831 5.09474C239.826 4.35956 244.766 2.86824 244.766 2.86824L244.125 6.03393L242.016 9.18134C242.016 9.18134 213.852 9.34099 214.522 8.64767C216.172 6.92876 219.087 5.03717 219.087 5.03717Z" fill="#142635"/>
<path d="M250.702 35.4226L252.013 35.4881C253.993 36.0166 256.141 37.8532 255.673 40.8619C255.252 43.5933 255.034 43.8288 254.514 47.2195C253.776 52.0151 249.844 50.4925 249.844 50.4925L250.702 35.4226Z" fill="#D1A382"/>
<path d="M216.238 35.7761L214.922 35.8729C214.548 35.9802 214.171 36.1346 213.807 36.3413C212.251 37.1968 210.95 38.8895 211.374 41.32C211.855 44.0436 212.078 44.2764 212.672 47.6488C213.499 52.4367 217.407 50.8276 217.407 50.8276L216.238 35.7761Z" fill="#D1A382"/>
<path d="M223.546 70.3344C225.042 71.9889 227.141 72.959 229.347 72.9945L233.15 73.0609L236.82 73.1207C239.013 73.165 241.148 72.2724 242.7 70.6667L247.499 65L246.74 54L219.076 54.6575L218.822 65.0696L223.546 70.3344Z" fill="#D1A382"/>
<path d="M231.067 14.4615L220.667 12.0938L215.285 19.6758L215.644 54.53C215.678 56.8899 216.588 59.1556 218.197 60.8353L223.744 66.6434C225.34 68.3153 227.556 69.2597 229.842 69.2309L233.793 69.1917V69.1864L237.602 69.1446C239.881 69.1237 242.068 68.1373 243.635 66.4263L249.061 60.5109C250.636 58.7972 251.505 56.5079 251.481 54.1559L251.12 19.299L231.067 14.4615Z" fill="#E8C5AC"/>
<path d="M212.975 33.5048C212.975 33.5048 212.493 28.1754 211.154 18.7829C210.662 15.3321 211.358 12.3286 213.119 10.0759C214.613 8.16865 216.857 6.80035 219.795 6.14366C224.272 5.13901 237.448 4.58691 244.127 6.03372C248.297 6.94157 250.801 8.36223 252.672 11.562C253.88 13.6314 254.181 15.9233 253.839 18.8117C253.587 20.9335 251.419 34.7162 251.419 34.7162C251.419 34.7162 249.448 35.5979 249.37 27.9426C249.268 18.3042 243.452 17.3754 241.974 17.3937C241.728 17.3963 242.793 25.0463 242.793 25.0463C242.793 25.0463 230.122 19.2486 229.303 19.0916C228.479 18.9346 216.8 13.812 216.138 20.8917C215.944 22.9507 215.562 36.0112 215.562 36.0112C215.562 36.0112 213.747 36.2205 212.975 33.5048Z" fill="#142635"/>
<path d="M215.621 85.012L232.725 89.8205L252.5 80.5C252.5 80.5 250.93 94.5 250 94.5C247.74 94.5 238.222 88.4021 232.725 90.6634C225.791 89.5322 218.258 96.3123 217.881 95.1823C216.751 91.7922 215.621 85.012 215.621 85.012Z" fill="#DADADA"/>
<path d="M228.051 156.204L230.311 94.0522H234.831L243.871 157.334L235.961 173.154C235.961 173.154 235.961 181.064 237.091 192.365C235.961 184.454 234.831 174.284 234.831 174.284C234.831 174.284 234.831 173.154 234.831 170.894C232.571 166.374 228.051 156.204 228.051 156.204Z" fill="#DADADA"/>
<path d="M222.759 84.2046L232.724 89.8191L242.789 83.8984L244.461 85.2668C244.461 85.2668 238.643 92.8566 233.078 92.8566C227.513 92.8566 221.09 86.6325 221.09 86.6325L222.759 84.2046Z" fill="#3860B2"/>
<path d="M218.809 66.0442C218.809 66.0442 213.851 69.7882 212.74 71.4076C211.63 73.0271 216.787 90.3287 217.7 91.9429C218.608 93.565 223.063 83.7513 232.568 89.7688C233.693 90.483 226.501 82.6367 223.772 80.4102C221.036 78.1864 218.304 68.8776 218.809 66.0442Z" fill="#FFFEF9"/>
<path d="M247.651 65.8423C247.651 65.8423 252.609 69.5888 253.72 71.2031C254.832 72.8226 250.908 90.3779 250 92C249.087 93.6195 246.026 81.9796 232.722 89.8206C231.576 90.4982 239.964 82.4374 242.698 80.211C245.427 77.9819 248.156 68.6757 247.651 65.8423Z" fill="#FFFEF9"/>
<path d="M229.238 89.0539C229.238 88.8629 229.387 88.7007 229.578 88.6928L235.769 88.4181C235.96 88.4129 236.127 88.5568 236.137 88.7504L236.493 93.3237C236.509 93.5382 236.423 93.7475 236.253 93.8836L233.181 96.0944C233.019 96.2252 232.794 96.2461 232.613 96.1467L229.633 94.2394C229.448 94.1373 229.332 93.9411 229.33 93.7292L229.238 89.0539Z" fill="#4870D3"/>
<path d="M230.495 94.0683L227.609 154.167L236.11 171.618L243.7 154.774L235.197 93.6157L230.495 94.0683Z" fill="#4870D3"/>
<path d="M448.488 222.974H12.8691V416.868H448.488V222.974Z" fill="#A97C50"/>
<path d="M448.489 222.974H230.68V416.868H448.489V222.974Z" fill="#94673C"/>
<path d="M439.656 200.874H21.5847H0V290.713C0 408.062 103.253 503.199 230.62 503.199C357.987 503.199 461.24 408.067 461.24 290.713V200.874H439.656Z" fill="#1D232D"/>
<path d="M440.076 178.725H22.0046H0.419922V273.83C0.419922 398.062 103.673 498.769 231.04 498.769C358.407 498.769 461.66 398.062 461.66 273.83V178.725H440.076Z" fill="#414042"/>
<path d="M427.797 180.94H32.8124H12.4199V271.11C12.4199 388.892 109.971 484.373 230.307 484.373C350.639 484.373 448.19 388.892 448.19 271.11V180.94H427.797Z" fill="#58A350"/>
<path d="M247.777 350.636V351.245H249.895V352.626H250.46V357.45H249.895V362.284H250.46V367.108H249.895V371.942H250.46V376.766H249.895V381.6H250.46V383.022C250.46 384.178 250.365 385.303 250.189 386.408L249.63 386.309C249.389 387.851 248.957 389.356 248.36 390.778L248.887 391.018C248.274 392.503 247.496 393.893 246.576 395.165L246.121 394.795C245.224 396.034 244.19 397.154 243.041 398.134L243.394 398.608C242.212 399.613 240.917 400.468 239.527 401.15L239.29 400.603C237.955 401.259 236.542 401.749 235.088 402.041L235.197 402.635C234.032 402.874 232.831 402.999 231.601 402.999C231.284 402.999 230.969 402.994 230.659 402.973L230.686 402.369C229.208 402.301 227.749 402.03 226.341 401.588L226.181 402.161C224.706 401.692 223.307 401.041 222.008 400.228L222.304 399.707C221.034 398.926 219.854 397.967 218.807 396.868L218.408 397.3C217.323 396.175 216.366 394.914 215.56 393.539L216.047 393.221C215.264 391.893 214.644 390.466 214.193 388.981L213.647 389.169C213.186 387.663 212.894 386.08 212.785 384.444L213.353 384.402C213.32 383.949 213.309 383.491 213.309 383.022V379.615H212.736V374.776H213.309V369.952H212.736V365.118H213.309V360.294H212.736V355.47H213.309V351.245H215.847V350.636H220.404V351.245H224.962V350.636H229.529V351.245H234.086V350.636H238.654V351.245H243.211V350.636H247.777Z" fill="#227F3A"/>
<path d="M148.398 320.721L150.55 322.133L150.854 321.617L154.731 324.154L154.433 324.665L158.318 327.212L158.619 326.691L162.502 329.228L162.202 329.744L166.075 332.276L166.379 331.765L170.258 334.302L169.958 334.812L173.844 337.36L174.144 336.844L178.025 339.381L177.729 339.891L179.526 341.074L178.842 342.241L179.324 342.559L176.923 346.674L176.436 346.351L174.041 350.461L174.526 350.773L172.129 354.884L171.646 354.566L169.24 358.671L169.727 358.994L167.332 363.099L166.845 362.781L164.45 366.891L164.933 367.209L164.217 368.433C163.648 369.412 163.008 370.319 162.315 371.152L161.889 370.756C160.907 371.923 159.805 372.975 158.591 373.85L158.919 374.35C157.657 375.273 156.305 376.023 154.888 376.596L154.685 376.038C153.318 376.585 151.872 376.96 150.405 377.158L150.476 377.757C149.708 377.861 148.935 377.908 148.159 377.908C147.414 377.908 146.668 377.861 145.925 377.768L145.99 377.169C144.523 376.981 143.089 376.611 141.71 376.049L141.502 376.622C140.396 376.174 139.313 375.616 138.268 374.929C137.999 374.757 137.737 374.574 137.478 374.387L137.804 373.892C136.578 373.007 135.463 371.965 134.493 370.798L134.065 371.199C133.045 369.985 132.18 368.646 131.479 367.235L131.989 366.953C131.307 365.578 130.776 364.104 130.423 362.588L129.863 362.734C129.5 361.176 129.311 359.572 129.309 357.962H129.88C129.88 356.384 130.058 354.831 130.409 353.316L129.852 353.175C130.209 351.638 130.749 350.128 131.469 348.674L131.974 348.961C132.174 348.549 132.382 348.164 132.615 347.768L134.305 344.861L133.824 344.548L136.223 340.433L136.708 340.751L139.103 336.641L138.622 336.328L141.015 332.223L141.496 332.541L143.902 328.431L143.413 328.113L145.81 324.003L146.295 324.321L148.398 320.721Z" fill="#227F3A"/>
<path d="M108.32 258.651L109.455 261.048L109.963 260.777L112.004 265.095L111.498 265.371L113.538 269.679L114.044 269.414L116.086 273.732L115.581 274.003L117.623 278.327L118.129 278.056L120.169 282.374L119.663 282.65L121.706 286.958L122.212 286.693L124.254 291.016L123.748 291.282L124.695 293.288L123.526 293.907L123.784 294.444L119.703 296.601L119.443 296.069L115.373 298.226L115.625 298.762L111.544 300.924L111.29 300.388L107.209 302.55L107.467 303.086L103.391 305.248L103.139 304.711L99.0562 306.873L99.3102 307.41L98.0991 308.056C97.1272 308.571 96.1343 308.988 95.1309 309.311L94.9651 308.733C93.5523 309.186 92.0872 309.457 90.6199 309.54L90.6472 310.15C90.3218 310.165 89.9944 310.176 89.6711 310.176C88.4725 310.176 87.2802 310.056 86.1131 309.816L86.218 309.223C84.7738 308.931 83.3611 308.452 82.0156 307.8L81.7805 308.342C80.4056 307.675 79.102 306.832 77.9034 305.821L78.2645 305.347C77.1057 304.378 76.0688 303.258 75.1641 302.018L74.7085 302.388C73.9864 301.393 73.342 300.31 72.7899 299.143C72.6514 298.846 72.5171 298.549 72.3932 298.247L72.9243 297.997C72.3177 296.559 71.8873 295.064 71.6459 293.527L71.0771 293.631C70.8126 292.027 70.7391 290.417 70.8462 288.823L71.415 288.865C71.5137 287.313 71.8013 285.771 72.2505 284.276L71.7068 284.093C72.1728 282.562 72.8067 281.093 73.6086 279.723L74.0935 280.04C74.8639 278.707 75.7917 277.483 76.8392 276.384L76.4445 275.962C77.5109 274.852 78.7158 273.868 80.0529 273.029L80.3405 273.55C80.7141 273.315 81.0899 273.107 81.4761 272.893L84.3666 271.362L84.1147 270.82L88.1912 268.658L88.4494 269.2L92.5196 267.038L92.2677 266.496L96.3484 264.329L96.6003 264.871L100.683 262.709L100.423 262.168L104.499 260.006L104.753 260.548L108.32 258.651Z" fill="#227F3A"/>
<path d="M314.819 320.721L316.914 324.316L317.401 323.998L319.798 328.108L319.309 328.426L321.704 332.536L322.193 332.213L324.592 336.323L324.11 336.636L326.505 340.746L326.99 340.428L329.387 344.538L328.9 344.856L330.6 347.763C330.831 348.158 331.041 348.544 331.24 348.955L331.744 348.669C332.466 350.122 333.002 351.633 333.361 353.17L332.806 353.31C333.159 354.831 333.335 356.379 333.335 357.957H333.902C333.898 359.567 333.711 361.171 333.348 362.729L332.796 362.583C332.443 364.104 331.912 365.573 331.23 366.948L331.732 367.229C331.033 368.641 330.168 369.975 329.148 371.194L328.726 370.793C327.743 371.959 326.629 373.001 325.415 373.887L325.739 374.382C325.483 374.569 325.22 374.752 324.951 374.929C323.904 375.616 322.819 376.179 321.71 376.622L321.509 376.049C320.13 376.611 318.683 376.986 317.216 377.169L317.29 377.768C316.547 377.861 315.803 377.903 315.06 377.903C314.282 377.903 313.505 377.856 312.737 377.752L312.804 377.153C311.347 376.955 309.901 376.58 308.522 376.033L308.324 376.59C306.909 376.023 305.556 375.272 304.294 374.345L304.615 373.845C303.412 372.97 302.298 371.918 301.33 370.751L300.898 371.152C300.203 370.313 299.563 369.407 298.992 368.428L298.278 367.209L298.769 366.891L296.364 362.781L295.881 363.099L293.484 358.988L293.968 358.665L291.575 354.561L291.088 354.878L288.691 350.768L289.18 350.451L286.775 346.34L286.294 346.658L283.897 342.548L284.38 342.23L283.695 341.063L285.492 339.881L285.194 339.371L289.073 336.834L289.376 337.349L293.259 334.802L292.955 334.291L296.836 331.755L297.132 332.265L301.015 329.733L300.717 329.218L304.596 326.681L304.901 327.196L308.786 324.649L308.484 324.139L312.361 321.602L312.657 322.112L314.819 320.721Z" fill="#227F3A"/>
<path d="M333.914 222.01V222.604H337.432C337.422 223.411 337.411 224.218 337.378 225.031C337.814 226.662 337.699 228.271 337.535 229.865C336.872 231.36 336.662 232.949 336.395 234.517L336.897 234.632C336.639 236.205 336.334 237.768 335.984 239.33L335.491 239.174C335.15 240.695 334.762 242.232 334.332 243.743L334.812 243.946C334.382 245.456 333.91 246.967 333.398 248.462L332.93 248.228C332.436 249.686 331.884 251.161 331.299 252.609L331.756 252.874C331.181 254.307 330.566 255.739 329.913 257.156L329.468 256.859C328.828 258.25 328.154 259.641 327.449 260.996L327.873 261.319C327.167 262.673 326.427 264.022 325.656 265.351L325.243 265.007C324.481 266.314 323.685 267.611 322.881 268.888L323.276 269.252C322.463 270.518 321.62 271.768 320.748 273.003L320.364 272.612C319.516 273.816 318.622 275.029 317.707 276.212L318.076 276.623C317.169 277.801 316.239 278.957 315.28 280.098L314.928 279.671C313.977 280.791 313.007 281.916 312.024 282.979L312.364 283.427C311.38 284.505 310.372 285.568 309.342 286.609L309.014 286.146C307.998 287.172 306.951 288.193 305.903 289.172L306.212 289.652C305.156 290.636 304.083 291.6 302.986 292.548L302.692 292.058C301.619 292.98 300.509 293.902 299.405 294.788L299.68 295.288C298.569 296.174 297.436 297.043 296.285 297.893L296.017 297.372C294.904 298.2 293.745 299.018 292.574 299.815L292.824 300.341C291.659 301.128 290.481 301.898 289.285 302.643L289.045 302.102C287.868 302.847 286.663 303.56 285.46 304.253L285.68 304.8C284.476 305.488 283.254 306.154 282.018 306.8L281.818 306.253C280.594 306.884 279.345 307.504 278.111 308.087L278.3 308.655C277.055 309.243 275.802 309.811 274.53 310.353L274.36 309.78C273.124 310.322 271.845 310.832 270.563 311.322L270.718 311.895C269.446 312.385 268.159 312.848 266.862 313.291L266.725 312.713C265.445 313.145 264.143 313.557 262.85 313.942L262.972 314.531C261.677 314.916 260.369 315.276 259.053 315.609L258.948 315.015C257.655 315.354 256.333 315.661 255.019 315.937L255.109 316.531C253.791 316.813 252.464 317.068 251.131 317.297L251.06 316.703C249.748 316.922 248.423 317.125 247.088 317.313L247.143 317.906C245.812 318.084 244.477 318.235 243.131 318.354L243.091 317.75C241.769 317.88 240.432 317.974 239.099 318.042L239.122 318.646C237.898 318.714 236.67 318.756 235.438 318.776L235.083 318.183C234.592 318.188 234.099 318.188 233.605 318.188C233.112 318.188 232.617 318.183 232.128 318.183L231.078 318.156L231.068 318.761C229.722 318.724 228.385 318.667 227.052 318.578L227.075 317.979C225.74 317.886 224.407 317.781 223.083 317.641L223.039 318.24C221.697 318.099 220.366 317.933 219.04 317.745L219.101 317.151C217.765 316.953 216.441 316.74 215.129 316.495L215.051 317.089C213.723 316.844 212.398 316.573 211.086 316.276L211.181 315.687C209.856 315.385 208.552 315.067 207.253 314.718L207.14 315.312C205.826 314.963 204.524 314.588 203.229 314.187L203.357 313.598C202.056 313.203 200.765 312.781 199.495 312.327L199.352 312.911C198.057 312.458 196.776 311.978 195.506 311.478L195.668 310.905C194.388 310.4 193.128 309.879 191.883 309.327L191.707 309.889C190.443 309.332 189.19 308.754 187.954 308.144L188.143 307.582C186.906 306.988 185.67 306.358 184.457 305.701L184.251 306.248C183.021 305.592 181.805 304.909 180.607 304.206L180.827 303.664C179.624 302.951 178.422 302.216 177.252 301.482L177.017 302.013C175.831 301.253 174.656 300.471 173.501 299.669L173.755 299.148C172.597 298.341 171.438 297.502 170.323 296.668L170.052 297.179C168.911 296.319 167.79 295.439 166.683 294.538L166.971 294.043C165.869 293.142 164.765 292.209 163.694 291.261L163.394 291.751C162.307 290.787 161.245 289.813 160.201 288.818L160.516 288.344C159.467 287.354 158.43 286.323 157.424 285.286L157.097 285.739C156.077 284.687 155.073 283.609 154.101 282.515L154.448 282.072C153.453 280.973 152.493 279.843 151.578 278.717L151.219 279.15C150.27 277.993 149.351 276.826 148.457 275.639L148.832 275.232C147.938 274.05 147.057 272.826 146.206 271.596L145.822 271.982C144.962 270.726 144.135 269.471 143.333 268.184L143.734 267.825C142.926 266.538 142.145 265.22 141.416 263.923L141.001 264.257C140.245 262.913 139.519 261.553 138.83 260.183L139.252 259.876C138.57 258.5 137.898 257.099 137.292 255.708L136.846 255.995C136.21 254.567 135.612 253.119 135.054 251.671C134.938 249.962 134.42 248.478 133.935 247.009L133.473 247.228C132.984 245.722 132.533 244.206 132.123 242.685L132.6 242.498C132.193 240.976 131.827 239.424 131.508 237.898C130.696 236.476 130.417 234.897 130.184 233.319L130.681 233.215C130.45 231.647 130.262 230.063 130.117 228.485C129.489 226.948 129.401 225.349 129.365 223.744C129.852 223.359 129.852 222.984 129.842 222.609H131.916V222.015H135.942V222.609H139.97V222.015H143.984V222.609H145.881C145.881 223.078 145.892 223.531 145.915 224C146.481 225.573 146.62 227.167 146.832 228.766C146.555 230.449 146.832 232.058 147.185 233.637L147.674 233.486C148.018 235.022 148.425 236.554 148.9 238.075L148.429 238.283C148.893 239.778 149.424 241.284 150.018 242.779L150.468 242.518C151.037 243.951 151.658 245.378 152.334 246.79L151.895 247.092C152.567 248.483 153.285 249.874 154.047 251.228L154.46 250.895C155.201 252.218 155.986 253.52 156.813 254.812L156.417 255.182C157.223 256.443 158.094 257.703 158.988 258.943L159.368 258.547C160.239 259.745 161.148 260.933 162.093 262.1L161.736 262.517C162.662 263.663 163.644 264.809 164.637 265.913L164.977 265.475C165.949 266.559 166.948 267.627 167.985 268.669L167.662 269.127C168.675 270.153 169.746 271.185 170.817 272.175L171.123 271.695C172.179 272.669 173.266 273.623 174.37 274.555L174.081 275.045C175.172 275.967 176.299 276.868 177.448 277.743L177.714 277.243C178.835 278.108 179.981 278.947 181.146 279.764L180.89 280.28C182.038 281.088 183.229 281.879 184.434 282.65L184.667 282.124C185.844 282.88 187.036 283.609 188.25 284.312L188.029 284.854C189.243 285.557 190.479 286.234 191.703 286.885L191.906 286.338C193.13 286.984 194.369 287.604 195.622 288.198L195.433 288.761C196.692 289.355 197.96 289.917 199.23 290.454L199.394 289.891C200.658 290.428 201.93 290.933 203.214 291.412L203.07 291.98C204.348 292.459 205.649 292.918 206.953 293.335L207.085 292.756C208.378 293.178 209.684 293.569 210.996 293.934L210.88 294.517C212.192 294.876 213.529 295.215 214.852 295.522L214.946 294.929C216.265 295.231 217.587 295.496 218.92 295.741L218.849 296.33C220.184 296.575 221.529 296.783 222.864 296.96L222.919 296.366C224.252 296.543 225.591 296.689 226.934 296.799L226.901 297.392C228.236 297.507 229.602 297.59 230.937 297.622L230.954 297.028C231.851 297.054 232.747 297.069 233.641 297.069C234.088 297.069 234.535 297.064 234.983 297.059L234.989 297.653C236.334 297.632 237.692 297.57 239.038 297.491L239.011 296.892C240.348 296.804 241.685 296.679 243.016 296.528L243.064 297.116C244.387 296.965 245.743 296.778 247.067 296.569L247.002 295.97C248.333 295.752 249.657 295.507 250.974 295.225L251.062 295.819C252.376 295.538 253.711 295.225 255.023 294.887L254.918 294.298C256.23 293.96 257.533 293.59 258.824 293.194L258.952 293.767C260.252 293.371 261.555 292.939 262.836 292.48L262.693 291.907C263.984 291.449 265.269 290.959 266.536 290.443L266.696 291.016C267.976 290.49 269.257 289.943 270.502 289.37L270.321 288.818C271.581 288.245 272.823 287.641 274.056 287.021L274.253 287.573C275.5 286.932 276.736 286.276 277.949 285.599L277.733 285.052C278.955 284.364 280.16 283.656 281.348 282.916L281.579 283.447C282.779 282.713 283.974 281.926 285.128 281.135L284.885 280.614C286.063 279.817 287.215 278.993 288.351 278.144L288.617 278.655C289.753 277.816 290.899 276.925 292.003 276.014L291.722 275.519C292.838 274.613 293.934 273.675 295.003 272.722L295.303 273.206C296.384 272.237 297.465 271.232 298.502 270.216L298.183 269.752C299.232 268.726 300.253 267.679 301.243 266.616L301.579 267.064C302.593 265.981 303.588 264.856 304.524 263.736L304.172 263.303C305.133 262.162 306.063 260.996 306.955 259.813L307.327 260.219C308.244 259.016 309.126 257.766 309.965 256.531L309.571 256.151C310.423 254.88 311.231 253.598 311.997 252.301L312.411 252.645C313.194 251.312 313.943 249.936 314.64 248.582L314.212 248.264C314.919 246.873 315.572 245.467 316.174 244.05L316.628 244.326C317.247 242.857 317.818 241.372 318.328 239.898L317.854 239.669C318.368 238.158 318.821 236.648 319.208 235.116L319.693 235.293C320.089 233.715 320.421 232.126 320.687 230.563L320.192 230.443C320.455 228.855 320.646 227.266 320.761 225.672C321.336 224.687 321.382 223.645 321.393 222.593L321.846 221.999H325.862V222.593H329.89V221.999H333.914V222.01Z" fill="#227F3A"/>
<path d="M354.898 258.653L358.46 260.544L358.723 259.997L362.797 262.159L362.543 262.706L366.624 264.867L366.878 264.326L370.954 266.488L370.694 267.029L374.777 269.191L375.028 268.649L379.109 270.811L378.857 271.353L381.748 272.885C382.134 273.093 382.508 273.306 382.873 273.541L383.167 273.02C384.504 273.853 385.709 274.843 386.775 275.953L386.372 276.38C387.43 277.479 388.356 278.703 389.132 280.037L389.615 279.719C390.415 281.094 391.051 282.563 391.515 284.09L390.971 284.272C391.425 285.767 391.7 287.309 391.809 288.861L392.376 288.819C392.481 290.414 392.407 292.023 392.143 293.628L391.58 293.523C391.328 295.065 390.896 296.56 390.3 297.993L390.822 298.238C390.696 298.54 390.564 298.842 390.423 299.139C389.874 300.306 389.229 301.389 388.507 302.384L388.051 302.015C387.157 303.254 386.12 304.374 384.962 305.343L385.318 305.817C384.12 306.828 382.814 307.672 381.435 308.344L381.198 307.797C379.863 308.453 378.45 308.932 376.995 309.219L377.107 309.813C375.937 310.047 374.749 310.172 373.551 310.172C373.225 310.172 372.9 310.162 372.573 310.146L372.606 309.537C371.128 309.453 369.674 309.188 368.261 308.729L368.095 309.313C367.088 308.984 366.09 308.568 365.116 308.052L363.907 307.411L364.168 306.869L360.087 304.708L359.831 305.249L355.75 303.088L356.004 302.546L351.934 300.384L351.676 300.921L347.597 298.764L347.853 298.222L343.773 296.066L343.519 296.607L339.436 294.445L339.692 293.909L338.533 293.289L339.48 291.284L338.964 291.013L341.008 286.689L341.522 286.955L343.563 282.647L343.05 282.371L345.091 278.052L345.605 278.323L347.648 273.999L347.135 273.734L349.18 269.41L349.688 269.676L351.73 265.368L351.222 265.091L353.265 260.773L353.773 261.044L354.898 258.653Z" fill="#227F3A"/>
<path d="M145.5 166.5C145.5 166.5 156.11 162.708 158.823 169C161.539 175.292 157.22 183.817 158.823 188.998C160.427 194.18 155.614 192.329 154.996 189.737C154.38 187.146 151.295 197.633 149.198 202.074C147.1 206.517 144.633 201.952 144.261 201.21C143.893 200.471 138.958 198.497 138.834 194.054C138.71 189.613 137.734 180.566 138.956 177.272C140.56 172.96 145.5 166.5 145.5 166.5Z" fill="#E8C5AC"/>
<path d="M305 175.5C305 175.5 298 170 293 169.5C286.818 172.459 285.126 181.842 280.513 184.694C275.897 187.547 280.745 189.315 282.909 187.766C285.078 186.216 280.511 196.15 279.173 200.876C277.833 205.603 282.695 203.784 283.461 203.47C284.227 203.153 289.242 204.907 292.258 201.64C295.268 198.373 301.95 192.196 303.193 188.911C304.821 184.606 305 175.5 305 175.5Z" fill="#E8C5AC"/>
</svg>
